<svg width="42" height="42" viewBox="0 0 42 42" fill="none" xmlns="http://www.w3.org/2000/svg">
<circle cx="21" cy="21" r="20.35" fill="white" stroke="#212121" stroke-width="0.7"/>
<mask id="mask0_319_913" style="mask-type:luminance" maskUnits="userSpaceOnUse" x="1" y="1" width="40" height="40">
<path d="M21 41C32.0457 41 41 32.0457 41 21C41 9.9543 32.0457 1 21 1C9.9543 1 1 9.9543 1 21C1 32.0457 9.9543 41 21 41Z" fill="white"/>
</mask>
<g mask="url(#mask0_319_913)">
<path d="M29.8724 46.1127C29.8724 46.1127 28.0679 42.8044 25.9627 40.3984C23.7491 37.8691 20.5491 37.0901 20.5491 37.0901L21.2138 34.8255C22.8469 35.3578 24.5822 35.5352 26.3446 35.2886C33.4574 34.2901 38.2815 26.7473 37.1145 18.4405C35.9506 10.1337 29.2379 4.20893 22.1221 5.20743C15.0063 6.20592 10.1852 13.7488 11.3521 22.0555C11.8905 25.8931 13.6138 29.2255 16.0138 31.5984C16.0138 31.5984 14.8349 34.0826 14.5341 35.8871C14.5341 35.8871 9.42132 34.9849 5.81229 40.9999C4.16718 43.7428 3.70703 46.4134 3.70703 46.4134" fill="#FFF7EB"/>
<path d="M15.051 34.4141L15.0059 34.5135C15.0209 34.4863 15.036 34.4532 15.051 34.4141Z" fill="#1B1B1B"/>
<path d="M12.2959 25.2046C12.323 25.2799 12.3441 25.307 12.3531 25.307C12.323 25.2408 12.2989 25.1836 12.2959 25.2046Z" fill="#1B1B1B"/>
<path d="M11.9229 23.4785C11.9289 23.5147 11.9349 23.5478 11.9409 23.5809C11.9409 23.5418 11.9349 23.4996 11.9229 23.4785Z" fill="#1B1B1B"/>
<path d="M15.0508 34.4144L15.1654 34.1581C15.1412 34.1279 15.099 34.2847 15.0508 34.4144Z" fill="#1B1B1B"/>
<path d="M11.5808 36.4015L11.5024 36.4286C11.4843 36.4467 11.4662 36.4678 11.4511 36.489L11.5808 36.3984V36.4015Z" fill="#1B1B1B"/>
<path d="M8.57899 38.0736C8.64235 38.0253 8.60916 37.9409 8.60916 37.8926C8.59709 37.9499 8.5639 38.0012 8.51562 38.0495C8.52468 38.0615 8.5458 38.0706 8.582 38.0736H8.57899Z" fill="#1B1B1B"/>
<path d="M14.0107 36.083C14.0107 36.083 14.0298 36.1084 14.0425 36.1148C14.0425 36.1021 14.0298 36.0925 14.0107 36.083Z" fill="#1B1B1B"/>
<path d="M11.6073 20.2842C11.6073 20.2842 11.6073 20.2933 11.6073 20.2994C11.6195 20.3846 11.6164 20.3359 11.6073 20.2842Z" fill="#1B1B1B"/>
<path d="M30.9521 8.05031C30.732 7.78796 31.4466 8.30362 31.0968 7.93271C31.1119 7.98699 30.6505 7.76082 30.9521 8.05031Z" fill="#1B1B1B"/>
<path d="M31.0957 7.93192L31.0576 7.89062C31.0735 7.90651 31.083 7.91604 31.0957 7.93192Z" fill="#1B1B1B"/>
<path d="M12.8737 13.0869C12.8526 13.0959 12.8315 13.117 12.8105 13.1411C12.8195 13.1411 12.8345 13.1321 12.8737 13.0869Z" fill="#1B1B1B"/>
<path d="M11.463 18.3955L11.4811 18.2598C11.4691 18.3141 11.4661 18.3563 11.463 18.3955Z" fill="#1B1B1B"/>
<path d="M14.1639 10.5339C14.2091 10.4766 14.2363 10.4615 14.2876 10.374C14.2785 10.3801 14.2695 10.3861 14.2604 10.3921C14.2484 10.4283 14.2212 10.4706 14.1639 10.5339Z" fill="#1B1B1B"/>
<path d="M16.1339 8.30176C16.1189 8.30778 16.0978 8.31682 16.0827 8.32585C16.0617 8.34693 16.0376 8.37103 16.0165 8.39211L16.1369 8.30176H16.1339Z" fill="#1B1B1B"/>
<path d="M20.9942 36.8525C20.9791 36.8827 20.9701 36.9037 20.9611 36.9188C21.0123 36.8736 21.1388 36.8857 20.9942 36.8525Z" fill="#1B1B1B"/>
<path d="M13.6886 10.0492L13.9954 9.6582C13.9051 9.76347 13.7939 9.90783 13.6886 10.0492Z" fill="#1B1B1B"/>
<path d="M36.741 26.3926L36.7139 26.504C36.7289 26.4618 36.741 26.4227 36.741 26.3926Z" fill="#1B1B1B"/>
<path d="M14.9464 8.52474C15.0278 8.4795 15.1092 8.42824 15.1846 8.36491C15.1936 8.34682 15.2087 8.32571 15.2087 8.30762C15.1213 8.37999 15.0308 8.44935 14.9434 8.52172L14.9464 8.52474Z" fill="#1B1B1B"/>
<path d="M23.8452 38.0223C23.4362 37.7727 23.5986 38.0013 23.4783 38.0043C22.97 37.7576 23.2888 37.8058 23.1474 37.6644C22.8196 37.5231 22.5309 37.499 22.2933 37.3877C22.2843 37.3637 22.2392 37.3366 22.3023 37.3396C22.1159 37.3035 21.8602 37.1952 21.5926 37.099C21.4602 37.0479 21.3219 37.0058 21.1926 36.9697C21.1595 36.9607 21.1264 36.9546 21.0963 36.9456C21.0813 36.9456 21.0692 36.9456 21.0542 36.9456C21.0271 36.9456 20.9941 36.9456 20.958 36.9516C20.952 36.9396 20.955 36.9306 20.958 36.9246C20.9339 36.9757 20.9068 37.0238 20.8617 37.0539C20.8076 37.0388 20.7474 37.0298 20.6873 37.0238C20.6753 36.9637 20.6993 36.8825 20.7565 36.8404C20.7264 36.9306 20.7565 36.9276 20.7775 36.9486V36.8223C20.9099 36.711 20.8016 36.9185 20.8467 36.9366C20.8617 36.9366 20.8768 36.9306 20.8888 36.9216H20.8738C20.8647 36.8855 20.8738 36.8343 20.8738 36.7802L20.8798 36.693C20.8888 36.6419 20.8978 36.5907 20.9068 36.5396C20.9459 36.3321 20.988 36.1366 21.0482 35.9892C21.1655 35.9531 20.8677 36.7231 21.0783 36.3351L20.988 36.5697L20.9429 36.687C20.9309 36.7201 20.9249 36.7261 20.9159 36.7501C20.967 36.714 20.9911 36.711 21.0001 36.711C21.0061 36.7291 21.0001 36.7291 21.0001 36.7441C20.9911 36.7742 20.988 36.7802 21.0843 36.7531L21.0903 36.7471L21.1083 36.696C21.1204 36.6599 21.1294 36.6268 21.1384 36.5967C21.1565 36.5336 21.1715 36.4764 21.1895 36.4223C21.2166 36.317 21.2377 36.2268 21.2557 36.1366C21.2948 35.9561 21.3339 35.7757 21.4422 35.4659C21.4362 35.3847 21.4121 35.3967 21.388 35.3998C21.361 35.4118 21.3459 35.3937 21.3279 35.3546C21.3309 35.2975 21.3429 35.2404 21.355 35.1982C21.361 35.1772 21.367 35.1592 21.373 35.1441C21.373 35.1201 21.4031 35.1501 21.4181 35.1531C21.4843 35.1922 21.5264 35.2373 21.5474 35.2734C21.5595 35.2915 21.5655 35.3095 21.5715 35.3246C21.5865 35.3426 21.6377 35.3667 21.6768 35.3847C21.764 35.4238 21.8843 35.4479 22.0617 35.4569C22.2572 35.4298 22.3505 35.3246 22.8256 35.481L22.6362 35.5652C23.2828 35.6855 23.0271 35.4689 23.6978 35.6253C23.5715 35.6584 23.1835 35.6073 23.2798 35.6313C23.7099 35.7727 23.5986 35.6043 23.9384 35.6313L24.0016 35.7396C24.7023 35.7697 25.4723 35.6825 26.2271 35.5622C26.188 35.5982 26.0617 35.6464 26.2452 35.6554C26.4858 35.6103 26.7324 35.5652 26.985 35.517C27.2347 35.4659 27.4873 35.4118 27.7429 35.3607C28.2452 35.2373 28.7414 35.108 29.1926 34.9546L29.4903 34.7321C29.5685 34.699 29.6497 34.708 29.5745 34.7592C29.9234 34.6358 29.5685 34.702 29.7129 34.5937C29.8963 34.4975 29.9805 34.5185 29.8753 34.5998C30.152 34.4283 30.5369 34.1727 30.9189 33.914C31.3008 33.6554 31.6798 33.3847 31.9775 33.2163C31.9474 33.2494 31.9204 33.2855 31.8903 33.3185C32.3264 33.0148 32.2482 32.8133 32.6602 32.5486L32.6001 32.6238C33.0452 32.2659 33.4482 31.8178 33.8302 31.3967C34.1971 30.9637 34.5309 30.5516 34.8317 30.2298C34.8226 30.1246 35.0001 29.902 35.1474 29.6764C35.2948 29.4479 35.4302 29.2283 35.373 29.1531C35.758 28.6238 35.7129 28.8103 36.167 28.0073C36.2753 27.7847 36.2121 27.6253 36.3144 27.3426L36.4016 27.3697C36.4256 27.2313 36.4407 27.09 36.4587 26.9516L36.6392 26.7862C36.6662 26.696 36.6933 26.6028 36.7114 26.5095C36.6723 26.6148 36.5911 26.7231 36.573 26.696C36.6843 26.2659 36.97 25.6915 37.0151 25.6885C37.0903 25.3456 37.1474 24.9967 37.1986 24.6509C37.2286 24.681 37.2016 24.8554 37.1926 24.9967C37.2256 24.4283 37.3159 24.9185 37.3399 24.3952C37.3068 24.4584 37.2918 24.3471 37.2768 24.3321C37.3279 24.2118 37.382 24.0073 37.4271 23.7817C37.4632 23.5531 37.4963 23.3005 37.5144 23.084L37.5655 23.1742C37.6798 22.3982 37.6888 21.5291 37.6798 20.6539C37.6527 20.9697 37.5444 20.8945 37.5294 20.6419L37.6256 20.5366C37.5595 20.3742 37.5956 20.8043 37.5114 20.4674C37.5114 20.1426 37.6166 20.2449 37.6527 20.4313L37.6076 20.0343C37.6347 20.0103 37.6557 20.1005 37.6918 20.1246C37.6317 19.9652 37.7429 19.4298 37.6226 19.2043L37.6497 19.1802C37.5505 18.308 37.4602 17.917 37.3129 17.2193C37.2256 17.2223 37.1926 16.9456 37.0753 16.7561C36.979 16.2449 36.8918 15.6644 36.6783 15.0719C36.4918 14.6689 36.567 14.9727 36.4557 14.8043C36.5249 14.7441 36.2843 14.1637 36.4557 14.4464C36.3114 14.0975 36.2211 13.8719 36.0978 13.6343C36.0377 13.514 35.9745 13.3907 35.8993 13.2434C35.8151 13.099 35.7189 12.9336 35.5986 12.7261C35.6166 12.8343 35.6557 12.9426 35.6076 12.9005C35.5204 12.7531 35.4602 12.5366 35.5023 12.5396L35.5324 12.5757C35.2256 12.1336 34.967 11.5712 34.6723 11.0539C34.5309 10.7922 34.3805 10.5426 34.2211 10.3231C34.0677 10.1005 33.8993 9.91404 33.7339 9.77268L33.77 9.80577C33.5655 9.58922 33.3429 9.39373 33.1234 9.19223C32.8587 8.87945 33.3309 9.33358 33.1625 9.07795C32.4106 8.47043 32.0918 7.99825 31.4211 7.56516C31.2497 7.28546 30.8076 6.95764 30.3144 6.66592C29.8241 6.36817 29.2828 6.10652 28.9369 5.86592L28.958 5.93509C28.7414 5.88998 28.7384 5.79073 28.5971 5.71855C28.6031 5.76366 28.7895 5.85689 28.6572 5.82682C27.8181 5.48095 26.9309 5.16817 26.0106 4.94862C25.0903 4.72907 24.1309 4.60576 23.1835 4.62381C22.4918 4.64787 22.8166 4.91554 21.9505 4.89148C22.0256 4.84336 22.1008 4.79825 22.179 4.75915C21.4993 4.91253 20.8106 5.05689 20.1399 5.27043C19.4723 5.48697 18.8196 5.75464 18.2452 6.11253C18.3053 6.05539 18.2963 6.02832 18.4136 5.97118C18.1189 6.02832 17.4843 6.47945 17.5174 6.53659C17.3369 6.64486 17.4482 6.51855 17.3219 6.56366C17.0512 6.67795 16.7805 7.04486 16.6151 7.07494C16.588 7.08095 16.6662 7.00877 16.7053 6.97268C16.567 7.10201 16.0136 7.50201 16.2061 7.45388C15.788 7.74261 15.5023 8.11554 15.1865 8.36516C15.0602 8.60877 14.567 8.96967 14.6061 9.11404C14.5249 8.99373 13.9565 9.72456 13.8302 10.0253C13.8602 9.91404 13.6317 10.2238 13.6587 10.0885C13.4572 10.3922 13.2918 10.684 13.385 10.6689C12.8888 11.1531 12.8166 11.887 12.4738 12.1306C12.0617 13.1321 11.767 14.0855 11.5414 15.0178C11.4813 14.9847 11.5444 14.7231 11.6196 14.4764C11.6948 14.2298 11.77 13.9922 11.6948 13.9892C11.4512 14.8825 11.4392 15.4208 11.2256 16.299C11.1625 16.5276 11.1926 16.1576 11.1835 16.0734C11.0512 16.9787 10.8888 17.8238 10.9189 18.6388C10.9068 18.6388 10.8978 18.5486 10.8918 18.4644C10.8888 18.6238 10.8497 18.8373 10.9129 18.8193L10.9038 18.6629C10.955 18.5366 10.9941 18.699 11.0241 18.8945C11.0572 19.09 11.0933 19.3155 11.1174 19.3306C10.9429 19.0569 11.0662 20.1246 10.8437 19.6975C10.8557 19.8028 10.8918 19.9351 10.9309 19.911C10.9249 20.0674 10.9008 20.1185 10.8497 19.9591C10.9038 20.5306 10.952 20.3261 10.988 20.8404C10.958 20.8404 10.9399 20.7381 10.9008 20.687C10.982 20.9456 11.0452 21.2043 11.0783 21.6404C11.0572 21.6163 11.0392 21.6704 11.0241 21.5411C11.1114 22.29 11.352 22.7832 11.4692 23.5952C11.2858 23.3877 11.4933 23.8749 11.3941 23.9471C11.4422 24.0885 11.4843 24.2298 11.5384 24.3682L11.5444 24.1817C11.6497 24.5546 11.8151 24.8644 11.8903 25.1892L11.755 24.9306L12.0046 25.6133C11.9715 25.481 11.9444 25.3456 11.9144 25.2103C12.0948 25.5622 12.0317 25.1261 12.173 25.6193C12.1249 25.5261 12.3053 25.9802 12.3174 26.1907C12.4256 26.3531 12.5369 26.5185 12.6211 26.7892C12.6211 26.8704 12.4828 26.7862 12.4828 26.8404C12.6452 26.9727 12.8918 27.6524 13.0993 27.8118C13.0422 27.7516 12.988 27.7757 12.988 27.8058L13.1294 27.911C13.1896 28.0825 13.1956 28.1095 13.1384 28.1065C13.3941 28.5817 13.1775 27.89 13.4422 28.4734C13.4121 28.4343 13.4151 28.4584 13.352 28.3742C13.6437 28.9486 14.0437 29.4028 14.3625 29.899C14.3745 30.1095 14.0347 29.499 14.0768 29.7155C14.3354 30.0584 14.6332 30.3892 14.9339 30.708C15.0873 30.8644 15.2407 31.0208 15.3911 31.1742C15.4632 31.2524 15.5414 31.3246 15.6166 31.4028L15.7099 31.499L15.779 31.5772L15.7189 31.496C15.785 31.481 15.8542 31.5411 15.9023 31.6163C15.8512 31.7005 15.7911 31.7727 15.7309 31.8659C15.6617 31.9802 15.5986 32.1065 15.5685 32.2358C15.5986 32.1366 15.5414 32.0795 15.5444 32.1095C15.3008 32.6178 15.1324 33.1862 14.9038 34.0073V33.893C14.7565 34.1937 14.6061 34.717 14.5008 35.0659C14.5129 35.1802 14.4617 35.3787 14.5459 35.2704C14.5099 35.3546 14.4738 35.4358 14.4377 35.514C14.4106 35.5712 14.4016 35.6343 14.3745 35.6734C14.3053 35.6584 14.2452 35.6494 14.182 35.6494H14.0557H13.8933C13.6768 35.6524 13.4692 35.6855 13.2617 35.7095C13.0572 35.7426 12.8527 35.7727 12.6512 35.7998C12.4527 35.8358 12.2482 35.8479 12.0437 35.8569C12.158 35.8238 12.3144 35.7667 12.2211 35.7817C11.9474 35.8509 11.6768 35.9411 11.4091 36.0313C11.4933 36.0734 11.5264 36.0373 11.7129 36.0464C11.6677 36.0795 11.5896 36.1185 11.4993 36.1576C11.4121 36.2028 11.3099 36.2479 11.2136 36.281C11.5505 36.1125 11.1775 36.1757 11.0061 36.1937C11.0392 36.2058 10.9941 36.2449 11.0151 36.2599C10.558 36.293 10.9971 36.4103 10.4196 36.5697L10.4317 36.5246C10.3324 36.5787 10.2422 36.6389 10.1489 36.696C10.0587 36.7592 9.9685 36.8223 9.86023 36.8764C9.73391 36.8554 10.0467 36.7261 10.0317 36.6599C9.88429 36.7471 9.75797 36.8614 9.63166 36.9667C9.50233 37.0689 9.37602 37.1622 9.23166 37.2193C9.33391 37.114 9.51136 37.0088 9.62564 36.9216C9.28278 37.0028 9.26775 37.0539 9.05421 37.1832L9.07526 37.1712L8.57602 37.4689L8.71135 37.4058C8.59406 37.6043 8.4497 37.7667 8.26624 37.914C8.09181 38.0674 7.88128 38.2148 7.73993 38.4764C8.03466 37.9862 7.75196 38.3561 7.71587 38.2599C7.59557 38.3471 7.42113 38.4885 7.44519 38.4253C7.37602 38.5486 7.2888 38.6208 7.18955 38.705C7.09331 38.7892 6.98805 38.8855 6.91286 39.0749C6.87978 39.0689 6.7294 39.3005 6.71135 39.2043C6.50684 39.496 6.80459 39.1712 6.81361 39.2193C6.68729 39.4659 6.4497 39.6825 6.23316 39.9591C6.01963 40.2358 5.79105 40.5426 5.63466 40.9035C5.34895 41.514 5.37602 41.6674 5.14444 42.2419C5.01211 42.4073 5.12339 42.0404 5.12339 42.0404C4.93391 42.3231 4.83166 42.5576 4.73542 42.8614C4.73542 42.7922 4.6903 42.8434 4.62113 42.9186C4.5279 43.1592 4.65421 43.117 4.48579 43.4118C4.47677 43.3456 4.45872 43.2584 4.47376 43.1321C4.38053 43.4208 4.32639 43.7185 4.24519 44.0223C4.17 44.0825 4.23316 43.8178 4.24519 43.7035C4.13993 44.0404 3.98654 44.5787 4.03166 44.705L4.1279 44.5005C4.09181 44.6238 4.04068 44.5426 4.05572 44.4464C4.0888 44.1396 4.22414 44.0464 4.25722 44.0404L4.20008 44.2539C4.43466 44.0975 4.47677 43.4118 4.66324 43.0028L4.70835 43.2223C4.73241 43.0689 4.76248 42.9155 4.79256 42.7622C4.86173 42.687 4.95196 42.6569 4.87978 42.8614C5.06624 42.5998 4.95196 42.5847 5.13241 42.3712C5.15647 42.3501 5.15346 42.3652 5.14745 42.3922L5.2497 42.0975C5.24669 42.1637 5.35196 42.0915 5.2497 42.2539C5.55948 41.7907 5.58053 41.4178 5.77 41.2825L5.75496 41.3276C5.92639 40.9817 5.92339 40.9607 5.89331 40.9486C5.86323 40.9366 5.81211 40.9426 5.9294 40.6689L6.33241 40.4674L6.29933 40.3531C6.34444 40.29 6.43767 40.1607 6.45271 40.2058C6.56399 39.9231 6.39256 40.2238 6.43767 40.0464C6.72639 39.7847 7.06323 39.1922 7.22564 39.2163C7.25872 39.0629 6.95496 39.4659 7.17451 39.117C7.36098 39.1291 7.48128 38.7561 7.77301 38.5516C7.75496 38.687 7.49632 38.8915 7.79105 38.693C7.81511 38.5727 7.93541 38.4494 8.08278 38.3441C8.23316 38.2449 8.40158 38.1486 8.50083 38.0434C8.47075 37.9982 8.58504 37.884 8.75045 37.7426C8.9279 37.6163 9.15948 37.4629 9.35196 37.3065C9.35196 37.3185 9.40008 37.2945 9.47827 37.2494C9.56248 37.2103 9.67978 37.1501 9.8091 37.087C9.93842 37.0208 10.0828 36.9516 10.2181 36.8825C10.3595 36.8283 10.4948 36.7772 10.6031 36.7381L10.5971 36.7592C10.6151 36.69 10.7324 36.6118 10.8828 36.5306C11.0422 36.4674 11.2317 36.3922 11.3911 36.3261C11.4001 36.3922 11.3489 36.4373 11.1865 36.5276L11.4873 36.4223C11.5474 36.3592 11.6377 36.3201 11.8362 36.2539L11.779 36.3531C11.9835 36.299 12.179 36.2118 12.4046 36.1637C12.5159 36.1366 12.6302 36.1065 12.7535 36.0855C12.8768 36.0704 13.0061 36.0614 13.1414 36.0584C13.1685 35.9802 12.6783 35.893 13.2647 35.7787C13.2888 35.8208 13.3159 35.884 13.1655 35.917C13.2136 35.902 13.3429 35.8689 13.4452 35.884L13.2166 35.9652C13.4692 35.9802 13.3429 35.899 13.5444 35.896C13.5444 35.9561 13.6948 35.9321 13.6677 35.9802C13.6166 35.9892 13.4933 35.9652 13.4181 35.9922C13.6437 35.9862 13.9144 36.0283 13.9986 36.0734C13.9896 36.0554 13.9896 36.0373 14.0136 36.0193C14.0407 36.0043 14.0738 35.9922 14.188 35.9952C14.6963 36.0434 14.4858 36.0855 14.7114 36.1486C14.7264 36.1456 14.7294 36.1095 14.7414 36.0734C14.7354 35.887 14.8527 35.496 14.7685 35.481C14.7986 35.3607 14.8437 35.3456 14.8768 35.3065C14.8858 35.084 15.1474 34.311 14.985 34.5216L14.964 34.5757C14.964 34.5757 14.967 34.5516 14.97 34.5396C15.1023 33.8118 15.5144 33.1201 15.764 32.4373L15.7911 32.4494C15.8362 32.317 15.8903 32.1787 15.9444 32.0404C16.0106 31.8779 16.0798 31.7155 16.1399 31.5682C15.9986 31.4298 15.8542 31.3035 15.767 31.2464C15.6768 31.1531 15.5986 30.9907 15.6617 31.0058C15.4302 30.7712 15.367 30.7742 15.1023 30.3742C15.352 30.5967 15.0632 30.2599 15.3489 30.6088C15.0933 30.2629 15.0662 30.1667 14.7234 29.8479C14.8798 29.9261 14.6031 29.5381 14.4708 29.3817C14.5099 29.4749 14.555 29.5652 14.6031 29.6554C14.4527 29.481 14.3535 29.3065 14.2422 29.1381L14.3865 29.1712C14.0016 28.3922 13.373 27.9411 13.2527 27.2524C13.0843 27.0779 13.4271 27.6945 13.2587 27.5501C13.0783 27.1892 13.0452 26.7411 12.988 26.6298C12.8286 26.1035 12.6452 26.2178 12.4798 25.6614C12.4738 25.7426 12.4076 25.8419 12.2241 25.4479C12.1099 25.0569 12.2091 24.9276 12.3174 25.1592C12.3505 25.2494 12.3535 25.2975 12.3414 25.2975C12.3926 25.4178 12.4708 25.5712 12.4497 25.4088L12.3986 25.3727C12.3715 25.1712 12.1941 24.6479 12.2903 24.7531C12.173 24.4734 12.1941 24.6479 12.2452 24.8674C12.1429 24.3592 12.0136 24.0945 11.9264 23.5712C11.9264 23.6584 11.9053 23.7426 11.8843 23.6614C11.752 22.8915 11.7459 23.3396 11.6196 22.8253C11.6196 22.5185 11.761 22.9095 11.6317 22.3922C11.6166 22.0674 11.7129 22.311 11.764 22.4313C11.6106 21.9682 11.6888 21.5351 11.6647 21.2614L11.7219 21.508C11.6888 21.3607 11.6708 21.2373 11.6647 21.111L11.6046 21.2614C11.6046 21.111 11.5956 20.9877 11.6256 20.9877C11.5685 20.8373 11.5174 21.114 11.4302 20.8133C11.4452 20.6118 11.355 20.2058 11.4512 20.1336C11.4392 20.7622 11.5384 20.0614 11.5805 20.5877C11.5595 20.4885 11.5595 20.3622 11.5655 20.2118C11.5745 20.1877 11.5865 20.2328 11.5926 20.2719C11.6647 19.6764 11.4632 20.0013 11.4753 19.3817C11.5264 19.4599 11.5775 19.2404 11.5685 19.1381C11.5655 19.3877 11.4783 19.2554 11.4392 19.0238C11.4993 18.6268 11.4302 18.5907 11.4482 18.3802L11.4151 18.6178C11.37 18.5336 11.376 18.3321 11.3911 18.0554C11.4362 18.0343 11.3941 18.311 11.4211 18.2118C11.361 17.893 11.5805 17.5261 11.5865 17.093C11.6497 16.9005 11.6888 17.09 11.7369 16.9185C11.752 16.4343 11.8933 16.4193 11.9474 15.917C11.8452 16.0434 11.8542 16.0734 11.8692 15.7095C11.8181 15.9832 11.779 16.2569 11.7489 16.5336C11.7489 16.3531 11.7429 16.1697 11.7489 15.9892C11.6918 16.2358 11.6918 16.5216 11.6497 16.6659C11.6407 16.4043 11.6497 16.4343 11.5715 16.5426C11.7369 16.2208 11.6437 15.8539 11.8091 15.481L11.9775 15.5351C12.2031 14.9817 12.164 14.4855 12.4798 13.7727L12.3625 13.9952C12.3354 13.8749 12.5189 13.5411 12.5911 13.3005C12.6362 13.3456 12.7174 13.2073 12.7956 13.1261C12.7474 13.117 13.0271 12.6118 12.958 12.4975L13.1805 12.2208C13.5023 11.6855 13.37 11.508 13.7068 11.0028C13.6677 11.1922 13.8452 10.9817 13.6738 11.3486C13.779 11.1772 13.8813 11.0298 13.8482 11.0058C13.9444 10.9306 14.0888 10.4975 14.2452 10.3802C14.2753 10.296 14.2422 10.2388 14.3805 10.0584C14.4046 10.0464 14.4046 10.0764 14.4046 10.0764C14.3805 10.0584 14.585 9.76667 14.4136 9.88697C14.6813 9.7005 14.9489 9.36065 15.2377 9.04486C15.376 8.88246 15.5234 8.73509 15.6647 8.60577C15.8031 8.47343 15.9414 8.37118 16.0677 8.31103C16.2241 8.15764 16.3956 7.98622 16.579 7.83584C16.7565 7.67644 16.9369 7.53208 17.0993 7.41779C17.0903 7.44787 17.1144 7.44185 17.0512 7.48095C17.5264 7.20426 17.2286 7.1411 17.7911 6.84937C18.1129 6.75915 17.5384 7.07193 17.7249 6.99674C17.8121 7.05689 17.9655 6.94561 18.158 6.82231C18.3474 6.69298 18.573 6.53659 18.7896 6.5005L18.7053 6.55464C19.0181 6.47043 19.376 6.14561 19.8753 5.9802C19.8753 5.9802 19.8572 6.00426 19.8813 6.01028C20.179 5.78772 20.8286 5.55614 21.3219 5.42682C21.1835 5.5381 21.1053 5.51704 21.2166 5.57118C21.4362 5.51103 21.1234 5.4599 21.5655 5.34561C21.7189 5.36065 22.0497 5.34561 22.1038 5.41779L21.6858 5.49298C21.9174 5.55915 22.2271 5.39373 22.4527 5.39674L22.4286 5.44787C22.7505 5.39975 22.9099 5.35764 23.0813 5.32155C23.2497 5.28246 23.4271 5.24035 23.779 5.25238L23.7068 5.21629C24.0948 5.10201 24.0286 5.27945 24.4166 5.2193L24.5249 5.34561C24.7775 5.32757 25.4211 5.32456 25.8753 5.39373C25.7399 5.41479 25.5384 5.40877 25.3309 5.40276C25.1234 5.40276 24.9068 5.40877 24.7414 5.40877C24.8647 5.42381 25.0753 5.44787 25.2708 5.46291C25.4662 5.48095 25.6497 5.50201 25.7189 5.48396C25.6166 5.47795 25.4873 5.48396 25.3941 5.44787C25.5535 5.42982 25.7339 5.42682 25.9384 5.44186C26.1429 5.4599 26.3655 5.50802 26.6121 5.56516C26.5399 5.6614 26.8497 5.76967 27.2106 5.88697C27.388 5.95614 27.5805 6.02832 27.7459 6.1005C27.9083 6.17569 28.0407 6.26291 28.1068 6.33509C28.9489 6.60276 29.6587 7.12907 30.4978 7.70652C30.3023 7.35163 30.7474 7.87193 30.8016 7.69449C31.0001 7.83283 31.0723 7.88998 31.0813 7.91103C31.2557 8.08546 31.4091 8.27795 31.5745 8.4584C31.6708 8.60877 31.373 8.34411 31.364 8.38922C31.752 8.73509 31.4813 8.58772 31.7008 8.85539C31.6918 8.75915 31.8993 8.90652 32.0948 9.13208C32.0166 9.01178 31.9294 8.9005 31.8482 8.78321C32.152 8.99373 32.2332 9.1381 32.3174 9.27644C32.4016 9.4178 32.4858 9.55313 32.7655 9.79373L32.567 9.6614C32.8557 9.90802 33.4692 10.708 33.7971 10.9276C33.8211 10.9937 33.8332 11.093 33.7219 10.9697C34.2392 11.7005 34.955 12.5757 35.1805 13.2554L35.1083 13.2133C35.1926 13.3576 35.3219 13.4358 35.364 13.6524C35.3429 13.6524 35.2948 13.6103 35.3249 13.6825C35.373 13.7576 35.5865 14.0584 35.6437 14.2779C35.6046 14.2238 35.5655 14.1727 35.5234 14.1216C35.6617 14.5426 35.8211 14.8404 35.9595 15.1321C36.1098 15.4208 36.2482 15.6945 36.3685 16.0494C36.2482 16.0825 36.3805 16.7652 36.4347 17.108L36.4136 17.099C36.6181 18.1005 36.8347 18.7952 36.955 19.7456C36.9339 19.896 36.9219 20.0975 36.9129 20.3261C36.9099 20.5576 36.9099 20.8193 36.8978 21.09C36.8978 21.3637 36.8828 21.6464 36.8587 21.9201C36.8437 22.1937 36.8016 22.4584 36.7595 22.69C36.7986 22.5486 36.8587 22.7231 36.8557 22.8945C36.8016 23.111 36.8587 23.5201 36.7444 23.4659L36.7565 23.3877C36.6211 23.5381 36.567 23.9892 36.4978 24.3381L36.6392 24.4283C36.4226 24.8614 36.2993 25.4569 36.1399 25.9952C36.0677 26.2659 35.9896 26.5216 35.9023 26.7321C35.8211 26.9456 35.7309 27.114 35.6317 27.2103C35.5805 27.4328 35.4692 27.6885 35.4031 27.905L35.3309 27.8569C35.1896 28.1336 35.0723 28.3351 34.9459 28.5546C34.8286 28.7772 34.6873 29.0058 34.4948 29.3396L34.5249 29.1742C34.2933 29.5351 34.4347 29.7667 34.2061 30.1035L34.0317 30.1246C33.5835 30.7411 33.0031 31.2434 32.5429 31.8389C32.5399 31.8178 32.5279 31.7757 32.6121 31.6855C32.4888 31.8148 32.2181 32.0253 32.0076 32.2148C31.7941 32.3982 31.6317 32.5516 31.7369 32.5817C31.6617 32.5035 31.1204 33.0539 30.7926 33.3125L30.8016 33.2073C30.57 33.484 30.579 33.5231 30.167 33.7847C30.0617 33.8328 30.0467 33.7757 30.1911 33.7185C29.8392 33.8689 29.9655 33.9321 29.5294 34.1005L29.6617 33.9742C29.3068 34.1456 29.3459 34.1516 29.1715 34.296C28.958 34.4343 28.4647 34.5546 28.3865 34.5005C28.3535 34.5637 28.167 34.696 27.9354 34.7351C27.8963 34.717 27.9745 34.6749 28.0106 34.6539C27.8482 34.687 27.7099 34.7261 27.5896 34.7682C27.4662 34.8043 27.355 34.8404 27.2497 34.8764C27.0422 34.9516 26.8527 35.0058 26.6211 34.9998C26.6061 34.9727 26.576 34.9667 26.5369 34.9637C27.0542 34.8915 27.4572 34.7712 27.4241 34.7952C27.4031 34.7201 26.9971 34.8013 27.2948 34.6238C26.988 34.7622 26.4437 34.9907 26.0286 35.0028C26.0076 34.9967 25.9895 34.9937 25.9715 34.9817L26.0136 34.9667C25.9204 34.9727 25.8362 34.9847 25.758 35.0058C25.6286 35.0058 25.5444 34.9998 25.4181 35.0058C25.367 34.9486 24.9399 34.9937 24.7324 34.9877C24.7505 35.0749 24.4738 35.0569 24.7324 35.1291C24.6993 35.1231 24.7715 35.1201 24.9129 35.114C24.9429 35.114 24.982 35.111 25.0031 35.105C25.0001 35.105 24.9941 35.111 24.988 35.114C25.1264 35.105 25.3068 35.102 25.5083 35.084C25.3459 35.1381 25.1715 35.1832 24.9369 35.1411C24.8286 35.1952 24.7083 35.2554 24.6422 35.2795C24.3505 35.1652 23.8031 35.0599 23.7339 34.9787C23.0933 34.9727 22.2482 34.7832 21.8181 34.8253C21.6497 34.7982 21.5896 34.714 21.4963 34.6599C21.5715 34.6779 21.6527 34.696 21.7279 34.711C21.779 34.7201 21.8241 34.7291 21.8542 34.7261C21.8061 34.717 21.764 34.711 21.6978 34.696C21.6166 34.6749 21.5294 34.6539 21.4422 34.6298C21.355 34.6058 21.2677 34.5817 21.1805 34.5576L21.0512 34.5216C21.0512 34.5216 21.0392 34.5185 21.0362 34.5185V34.5366L21.0241 34.5697L21.0061 34.6358C20.9159 34.9877 20.8527 35.2825 20.9008 35.3125C20.7204 35.7486 20.8768 35.0298 20.7114 35.6554L20.7023 35.5622C20.585 35.8208 20.5038 36.0674 20.4437 36.305C20.4106 36.4494 20.3775 36.5937 20.3444 36.7321C20.3083 36.9065 20.2632 37.0779 20.2452 37.2283C20.4828 37.2734 20.7053 37.3095 20.9038 37.3607C21.0602 37.3937 21.2016 37.4298 21.355 37.4779C21.6587 37.5742 21.9715 37.7185 22.2933 37.9381C22.2121 37.887 22.17 37.8599 22.161 37.8358C22.8617 38.2088 23.5805 38.5967 24.2452 39.0629C24.9129 39.5291 25.5083 40.0855 25.9535 40.7351C26.2181 41.093 26.2963 41.093 26.5129 41.2704L26.5008 41.4028L26.8677 41.7095C27.3309 42.1967 27.37 42.7622 27.9565 43.3757L27.9474 43.2524C28.1068 43.508 28.5038 44.0313 28.4166 44.0283C28.4437 44.0494 28.5249 44.0764 28.561 44.1937L28.5249 44.2268L28.985 44.8133C29.2527 45.3246 28.7805 44.8343 29.1986 45.5561C29.373 45.8148 29.758 46.2569 29.7279 46.1396C29.6708 46.0283 29.5956 45.8449 29.6347 45.8148L29.7971 46.0524C29.9444 46.0313 30.182 46.1546 29.9144 45.487L29.5926 45.105L29.5685 44.9336L29.785 45.2885C29.7219 45.0509 29.5956 44.9516 29.4753 44.8283C29.4873 44.7742 29.4723 44.702 29.4332 44.6118L29.0662 44.2689C29.0813 44.1907 29.2738 44.3952 29.1264 44.1035C28.952 43.9441 29.1384 44.3531 28.9038 44.0554C28.8317 43.8238 28.9099 43.8539 28.7174 43.6494C28.7264 43.5982 28.7775 43.6343 28.8497 43.7185C28.6813 43.5321 28.4768 43.1802 28.3444 43.117C28.2723 42.8674 27.8572 42.4404 27.9805 42.3862C27.9083 42.3411 27.6467 42.0885 27.5053 41.911C27.8813 42.1516 27.0061 41.2223 27.2046 41.2103C26.9068 41.0509 26.4677 40.3712 26.0286 40.0163C26.0587 40.0313 26.1159 40.0614 26.1459 40.1005C25.9384 39.8629 25.9083 39.7667 25.788 39.6013C25.6708 39.6614 25.3099 39.3336 25.0572 39.2313C24.8377 38.9005 25.3249 39.2734 25.3038 39.114C25.2557 39.1982 24.7264 38.7592 24.7775 38.9065C24.585 38.6779 24.5971 38.7291 24.5339 38.5607C24.4076 38.6479 24.2993 38.4193 24.0437 38.3622C23.7309 38.0674 24.0286 38.1847 23.6076 37.9802C23.4392 37.8268 23.8241 37.9952 23.8241 37.9952L23.8452 38.0223ZM26.2271 35.5321C26.1339 35.5471 26.0527 35.5592 26.0016 35.5652C26.0497 35.5592 26.1129 35.5471 26.2241 35.5321H26.2271ZM27.1354 35.3787C27.0271 35.4058 26.8858 35.4208 26.7414 35.4479C26.7053 35.4238 26.7354 35.3877 26.8256 35.3757C26.7805 35.3998 26.9971 35.3877 27.1354 35.3787ZM25.1835 35.0298C25.3219 35.0118 25.367 35.0298 25.388 35.0419C25.3219 35.0479 25.2467 35.0539 25.1474 35.0629C25.1444 35.0629 25.1354 35.0719 25.1324 35.0749C25.1444 35.0569 25.1595 35.0419 25.1865 35.0298H25.1835Z" fill="#1B1B1B"/>
<path d="M24.9343 35.1446C24.9132 35.1446 24.9041 35.1507 24.877 35.1507C24.9071 35.1567 24.9343 35.1627 24.9614 35.1688C24.9795 35.1597 24.9946 35.1507 25.0097 35.1416C24.9856 35.1416 24.9584 35.1416 24.9343 35.1416V35.1446Z" fill="#1B1B1B"/>
<path d="M15.0005 34.5318L15.0069 34.5127C15.0069 34.5127 14.991 34.5413 14.9814 34.5476C14.9878 34.5349 14.991 34.5381 14.9973 34.5286L15.0005 34.5318Z" fill="#1B1B1B"/>
<path d="M36.4219 27.3732L36.4008 27.3672L36.3857 27.4485L36.4219 27.3732Z" fill="#1B1B1B"/>
<path d="M11.0068 36.197C11.0068 36.197 10.9736 36.191 10.9375 36.197C10.9435 36.2 10.9706 36.197 11.0068 36.197Z" fill="#1B1B1B"/>
<path d="M9.05753 37.1855L8.78613 37.3393C8.90675 37.276 8.99119 37.2278 9.05753 37.1855Z" fill="#1B1B1B"/>
<path d="M7.72208 38.2129C7.71593 38.2406 7.72208 38.2529 7.72208 38.2652L7.71593 38.2129H7.72208Z" fill="#1B1B1B"/>
<path d="M10.8915 18.4715C10.8915 18.4474 10.8915 18.4262 10.8915 18.4051C10.8824 18.2512 10.8854 18.3568 10.8915 18.4715Z" fill="#1B1B1B"/>
<path d="M12.3181 26.1978C12.2728 26.1254 12.2306 26.053 12.1914 25.9746C12.2366 26.1073 12.2728 26.2128 12.3181 26.1978Z" fill="#1B1B1B"/>
<path d="M13.6553 10.0936C13.6553 10.0936 13.6772 10.0654 13.6897 10.0498L13.6553 10.0936Z" fill="#1B1B1B"/>
<path d="M12.0616 25.6289C12.0947 25.7676 12.14 25.8762 12.1912 25.9727C12.155 25.8611 12.1158 25.7314 12.0616 25.6289Z" fill="#1B1B1B"/>
<path d="M6.96743 39.6074L6.60352 40.0225C6.69073 39.9683 6.80201 39.8931 6.65765 40.0946C7.16291 39.6104 6.50728 40.1608 6.96743 39.6074Z" fill="#1B1B1B"/>
<path d="M8.14861 38.3834C7.94356 38.5945 8.18178 38.4135 8.1848 38.4407C8.30542 38.2989 8.33558 38.2627 8.14861 38.3834Z" fill="#1B1B1B"/>
<path d="M15.6138 30.9013L15.6891 30.8712C15.5295 30.7086 15.665 30.8893 15.6138 30.9013Z" fill="#1B1B1B"/>
<path d="M13.836 29.2617L13.9265 29.4788L14.0471 29.5271L13.836 29.2617Z" fill="#1B1B1B"/>
<path d="M13.5813 27.7802L13.6386 27.8616C13.5662 27.7561 13.5059 27.6475 13.4365 27.542L13.5813 27.7802Z" fill="#1B1B1B"/>
<path d="M15.8004 8.71732L15.6858 8.69922C15.5892 8.8199 15.6435 8.91645 15.8004 8.71732Z" fill="#1B1B1B"/>
<path d="M23.713 5.32098C23.8093 5.37211 24.0559 5.39617 24.2123 5.36309C24.0138 5.34203 23.8153 5.31196 23.713 5.32098Z" fill="#1B1B1B"/>
<path d="M36.4407 24.8557L36.4497 24.6748L36.4015 25.0095L36.4407 24.8557Z" fill="#1B1B1B"/>
<path d="M2.28719 49.8453C2.28719 49.8453 2.8887 43.8303 5.59546 40.8227C8.30223 37.8152 10.1067 35.71 12.8135 35.71C12.8135 35.71 11.0451 38.6092 16.7233 39.319C21.5353 39.9205 20.9338 37.2137 20.9338 37.2137C21.9534 37.731 24.7413 39.0724 25.7458 40.2212C27.8511 42.6273 29.6556 45.9355 29.6556 45.9355" fill="#3B27FF"/>
<path d="M26.0557 40.4248L26.0743 40.4621C26.0743 40.4621 26.065 40.4373 26.0557 40.4248Z" fill="#1B1B1B"/>
<path d="M22.9944 38.1188C23.022 38.131 23.0373 38.131 23.0403 38.1249C23.0128 38.1157 22.9914 38.1096 22.9944 38.1188Z" fill="#1B1B1B"/>
<path d="M22.4551 37.7363C22.4551 37.7363 22.4773 37.7522 22.49 37.7617C22.4805 37.749 22.4678 37.7363 22.4551 37.7363Z" fill="#1B1B1B"/>
<path d="M26.056 40.4254L26.0078 40.332C25.9837 40.3411 26.0289 40.3832 26.056 40.4254Z" fill="#1B1B1B"/>
<path d="M26.5938 40.9703C26.5938 40.9703 26.6032 40.9547 26.6032 40.9453C26.5969 40.9516 26.5938 40.9578 26.5938 40.9703Z" fill="#1B1B1B"/>
<path d="M21.2852 37.0479C21.2852 37.0479 21.2915 37.051 21.2947 37.0542C21.3487 37.0733 21.3201 37.0606 21.2852 37.0479Z" fill="#1B1B1B"/>
<path d="M12.8438 36.9817C12.8136 37.0993 12.7291 36.8187 12.708 36.9937C12.7291 36.9756 12.8408 37.1205 12.8438 36.9817Z" fill="#1B1B1B"/>
<path d="M19.7363 38.8438C19.7363 38.8438 19.7586 38.8565 19.7713 38.8565C19.7681 38.8501 19.7586 38.8469 19.7363 38.8438Z" fill="#1B1B1B"/>
<path d="M18.7987 39.1744C18.7716 39.1744 18.7626 39.1653 18.7264 39.1744C18.7295 39.1744 18.7325 39.1804 18.7385 39.1804C18.7505 39.1714 18.7686 39.1653 18.7987 39.1714V39.1744Z" fill="#1B1B1B"/>
<path d="M17.7247 39.2168C17.7247 39.2168 17.7369 39.2259 17.743 39.229C17.7552 39.229 17.7673 39.229 17.7765 39.2259L17.7217 39.2168H17.7247Z" fill="#1B1B1B"/>
<path d="M18.8169 39.6768L18.6309 39.6828C18.6819 39.6828 18.7509 39.6828 18.8169 39.6768Z" fill="#1B1B1B"/>
<path d="M7.83962 38.7598L7.81738 38.7947C7.81738 38.7947 7.83962 38.7725 7.83962 38.7598Z" fill="#1B1B1B"/>
<path d="M18.0854 39.719C18.0523 39.6949 18.0191 39.6829 17.983 39.6738C17.977 39.6799 17.9679 39.6829 17.9619 39.6889L18.0854 39.716V39.719Z" fill="#1B1B1B"/>
<path d="M3.32475 46.363C3.36986 46.2036 3.2676 46.2667 3.23151 46.2216C3.26159 46.0261 3.31572 46.1494 3.37287 46.0953C3.3849 45.972 3.33377 45.8577 3.36384 45.7705C3.37888 45.7705 3.3879 45.7524 3.39993 45.7765C3.37587 45.6321 3.51422 45.4066 3.47813 45.2351C3.48715 45.2261 3.49618 45.2231 3.50219 45.2231C3.45407 45.2351 3.41497 45.2231 3.3879 45.2111C3.40896 45.1389 3.37888 45.0637 3.43903 45.0517C3.42399 45.0938 3.44204 45.1058 3.45407 45.1299V45.0487C3.55031 45.0066 3.44806 45.1599 3.5052 45.178C3.52324 45.0246 3.52926 44.8381 3.5864 44.7359C3.6676 44.7359 3.52024 45.0005 3.63452 44.8772L3.5473 45.0366C3.7067 44.9464 3.50219 45.1359 3.6676 45.0607C3.76685 44.8472 3.71873 44.799 3.82099 44.5855C3.79994 44.5223 3.75482 44.5795 3.73377 44.5163C3.77587 44.1705 4.00745 44.3389 4.00445 44.0742C3.98039 43.996 3.90219 43.9359 4.01648 43.7945L4.07362 43.8848C4.16986 43.6772 4.00445 43.7133 4.15783 43.5178C4.16986 43.569 4.11272 43.6923 4.13377 43.6652C4.25708 43.5509 4.13377 43.5449 4.1849 43.4366L4.2661 43.4457C4.36234 43.2261 4.41648 42.9524 4.53678 42.7118C4.54881 42.7359 4.54881 42.787 4.59994 42.7419C4.6661 42.5855 4.75633 42.4291 4.85257 42.2817C4.95181 42.1314 5.07512 42.0051 5.18039 41.8817L5.19542 41.7404C5.21347 41.7163 5.24956 41.7133 5.24354 41.7464C5.33377 41.6562 5.21347 41.7163 5.2255 41.6502C5.26159 41.587 5.30971 41.593 5.30069 41.6442C5.38189 41.4336 5.59843 41.0757 5.79994 40.9404L5.78189 40.9885C5.92625 40.8682 5.82099 40.7419 5.98339 40.6517L5.97136 40.6848C6.2661 40.402 6.52174 40.0261 6.80144 39.8637C6.77136 39.7554 7.1052 39.596 7.024 39.4878C7.22851 39.3614 7.20144 39.4246 7.45708 39.2201C7.52024 39.1599 7.48415 39.0697 7.5473 38.9795L7.59843 39.0246L7.64655 38.8682H7.76084L7.81798 38.787C7.78791 38.8141 7.73678 38.8261 7.72475 38.8081C7.81197 38.6727 8.0255 38.5675 8.05557 38.5915C8.12776 38.4893 8.20294 38.39 8.27813 38.2908C8.29317 38.3178 8.25407 38.366 8.23302 38.4141C8.32324 38.2246 8.31121 38.4411 8.39242 38.2697C8.36535 38.2757 8.37437 38.2306 8.36535 38.2186C8.45858 38.1855 8.60595 38.0442 8.7052 37.9299L8.71723 37.984C8.92475 37.8066 9.12926 37.584 9.36385 37.3915C9.2676 37.4457 9.23151 37.3645 9.29768 37.3013L9.36986 37.3344C9.38791 37.2622 9.27964 37.3705 9.33678 37.2532C9.43302 37.19 9.44806 37.2742 9.41197 37.3314L9.5052 37.2291C9.52625 37.2411 9.5052 37.2712 9.51723 37.2983C9.53527 37.2291 9.74881 37.2141 9.76685 37.1028L9.7849 37.1148C10.0315 36.9494 10.1278 36.8442 10.3353 36.7239C10.3082 36.6667 10.3984 36.6336 10.4345 36.5524C10.5999 36.4742 10.8044 36.4472 10.9939 36.3479C11.1202 36.2637 11.015 36.2817 11.0631 36.2216C11.0962 36.2727 11.2947 36.1945 11.2044 36.2697C11.442 36.1765 11.5082 36.1494 11.812 36.0291C11.7729 36.0141 11.7308 36.0141 11.7458 35.99C11.8029 35.966 11.8811 35.978 11.8811 36.0111L11.8661 36.0201C11.9383 35.99 12.0225 35.975 12.1097 35.969C12.1518 35.966 12.1999 35.963 12.236 35.963C12.2601 35.963 12.2781 35.969 12.2902 35.978C12.3443 36.0111 12.3443 36.0381 12.3533 36.0442C12.3533 36.0472 12.3623 36.0502 12.3804 36.0502H12.3744C12.3894 36.0592 12.4014 36.0893 12.4105 36.1344C12.4105 36.1254 12.4044 36.1464 12.4014 36.1524C12.3984 36.1614 12.3954 36.1645 12.3924 36.1614C12.3864 36.1614 12.3834 36.1464 12.3804 36.1284C12.3684 36.1193 12.3503 36.1223 12.3323 36.1103C12.3323 36.4983 12.23 36.7208 12.3353 37.0366C12.3082 37.1028 12.3052 37.196 12.3232 37.2983C12.3413 37.4005 12.4014 37.5028 12.4526 37.6111C12.4977 37.7224 12.5879 37.8066 12.645 37.9028C12.7082 37.996 12.7593 38.0863 12.8044 38.1584L12.8195 38.1193C12.9097 38.1524 12.8766 38.2066 12.9157 38.2577C12.9308 38.2276 12.8736 38.1675 12.9278 38.1885C13.4661 38.6487 14.0887 39.0336 14.7383 39.2833C14.9759 39.3675 14.9338 39.1208 15.2105 39.2923L15.1052 39.3434C15.6105 39.3945 16.1067 39.5569 16.5969 39.5569C16.5669 39.569 16.5638 39.59 16.5157 39.584C16.609 39.6592 16.8947 39.6321 16.9007 39.587C16.9759 39.599 16.9127 39.6291 16.9578 39.6562C17.0571 39.6983 17.2225 39.6111 17.2736 39.6682C17.2826 39.6772 17.2435 39.6833 17.2255 39.6863C17.2947 39.6652 17.5383 39.7224 17.4781 39.6532C17.6586 39.6953 17.83 39.6321 17.9774 39.6712C18.0736 39.6021 18.2932 39.7103 18.3202 39.6051C18.3112 39.7073 18.6541 39.6592 18.7654 39.6021C18.7293 39.6351 18.8706 39.6261 18.8315 39.6712C18.9669 39.6652 19.0872 39.6081 19.0541 39.563C19.1894 39.599 19.3097 39.5479 19.415 39.5058C19.5202 39.4637 19.6075 39.4066 19.7037 39.4577C20.0857 39.2833 20.4105 39.0336 20.6541 38.7389C20.6841 38.775 20.621 38.8712 20.5398 38.9314C20.4616 38.9975 20.3834 39.0607 20.4225 39.0998C20.4917 39.0336 20.5488 38.9705 20.5999 38.9133C20.6481 38.8472 20.6841 38.781 20.7263 38.7208C20.8105 38.6005 20.8676 38.4652 20.9669 38.3148C21.015 38.2336 20.9909 38.387 20.9819 38.4201C21.0511 38.2427 21.1142 38.0742 21.1533 37.9028C21.1654 37.8667 21.1684 37.8066 21.1744 37.7855V37.7434C21.1744 37.7163 21.1684 37.6863 21.1533 37.6411C21.1623 37.6532 21.1714 37.6742 21.1804 37.6923C21.1774 37.6682 21.1924 37.6682 21.1473 37.6111L21.1593 37.6472C21.1232 37.6291 21.0872 37.5509 21.0451 37.4427C21.033 37.4096 21.009 37.3524 21.009 37.3404C21.015 37.3314 21.018 37.3223 21.015 37.3133C21.0751 37.4938 21.2135 37.4517 21.2285 37.6442C21.2345 37.6381 21.2405 37.6171 21.2285 37.575C21.2586 37.599 21.2616 37.6231 21.2556 37.6592C21.3097 37.6592 21.2917 37.596 21.3789 37.6411C21.3638 37.6592 21.3488 37.6592 21.3338 37.6833C21.3458 37.6652 21.409 37.6712 21.4631 37.6833C21.5172 37.6953 21.5774 37.7193 21.6435 37.7614C21.6285 37.7705 21.6375 37.7945 21.5954 37.7705C21.839 37.8878 22.0556 37.8757 22.2992 38.0502C22.1759 38.0953 22.3714 38.1254 22.3473 38.2066L22.4977 38.2577L22.4616 38.1915C22.5849 38.2577 22.7202 38.2637 22.8105 38.3449L22.7022 38.3269L22.9368 38.4381L22.8225 38.3389C22.9669 38.369 22.8616 38.2366 23.012 38.3479C22.9759 38.3359 23.1323 38.4171 23.1714 38.4953C23.2435 38.5043 23.3217 38.5163 23.3999 38.5855C23.409 38.6216 23.3338 38.6547 23.3398 38.6787C23.433 38.6517 23.6315 38.8231 23.7398 38.8051C23.7067 38.8051 23.6826 38.8411 23.6857 38.8562L23.7638 38.8381C23.809 38.8863 23.812 38.8983 23.7849 38.9254C23.9443 39.0336 23.7879 38.8021 23.9593 38.9614C23.9413 38.9554 23.9443 38.9675 23.9082 38.9554C24.0887 39.0968 24.3052 39.1599 24.4616 39.3043C24.4646 39.4096 24.2992 39.2171 24.3172 39.3163C24.5729 39.4727 24.8947 39.587 25.1052 39.7915L25.0691 39.7494C25.1774 39.6833 25.2014 39.9299 25.3458 39.987C25.3127 39.969 25.2676 40.0051 25.2826 40.002C25.418 40.1464 25.5894 40.2487 25.818 40.4652L25.7699 40.4562C25.827 40.5645 25.9623 40.7058 26.0315 40.8141C26.0796 40.8231 26.1217 40.8863 26.1278 40.8231C26.242 41.2381 26.6721 41.3584 26.7684 41.7284C26.7413 41.6953 26.6872 41.6652 26.7052 41.6923L26.9067 41.9178C26.9338 41.8667 26.9067 41.8667 26.9067 41.7915C26.9548 41.8036 27.024 41.8577 27.0691 41.9178C26.9608 41.8276 27.0029 41.969 27.012 42.0321C27.018 42.0141 27.045 42.0201 27.0541 42.0081C27.0721 42.1885 27.1563 41.966 27.2315 42.1795L27.2014 42.1855C27.2586 42.2427 27.3308 42.2817 27.3759 42.3569C27.3488 42.4201 27.3037 42.3028 27.2586 42.3269C27.3308 42.4231 27.4902 42.4562 27.5052 42.5825C27.4631 42.5494 27.418 42.4893 27.3759 42.4562C27.3879 42.5945 27.409 42.5945 27.4511 42.6757V42.6667L27.5383 42.8532L27.5232 42.799C27.7368 42.8351 27.7217 43.0366 27.9202 43.1509C27.7278 43.0396 27.8541 43.1539 27.7909 43.181C27.8029 43.2351 27.83 43.3133 27.8029 43.3043C27.9022 43.3554 27.8541 43.4637 27.9984 43.5329C27.9834 43.5509 28.0526 43.6201 27.9954 43.6321C28.0796 43.7284 28.0105 43.587 28.0405 43.581C28.209 43.7043 28.212 44.0111 28.4466 44.1945C28.609 44.375 28.6962 44.375 28.8466 44.5464C28.8556 44.6306 28.7473 44.5344 28.7473 44.5344C28.7834 44.6547 28.8345 44.7299 28.9157 44.8141C28.8887 44.8051 28.8857 44.8321 28.8826 44.8742C28.9338 44.9494 28.9819 44.8863 29.018 45.0066C28.9849 45.0005 28.9398 44.9975 28.8947 44.9735C28.9669 45.0547 29.0571 45.1269 29.1323 45.2141C29.1142 45.2592 29.0481 45.184 29.006 45.163C29.0841 45.2622 29.2014 45.4276 29.2736 45.4306L29.2526 45.3494C29.2796 45.3885 29.2195 45.3975 29.1924 45.3735C29.0962 45.3043 29.1323 45.2291 29.1473 45.2111L29.1984 45.2742C29.2676 45.1389 29.018 45.0066 28.9398 44.8652L29.0541 44.8742L28.9037 44.772C28.9037 44.7299 28.9398 44.6817 28.9909 44.7419C28.9699 44.6186 28.9097 44.6727 28.9007 44.5614C28.9007 44.5464 28.9067 44.5494 28.9157 44.5554L28.8315 44.4742C28.8586 44.4833 28.8796 44.4231 28.9037 44.4893C28.8435 44.2878 28.6721 44.2487 28.6902 44.1464L28.7052 44.1584C28.5278 43.9359 28.633 44.1705 28.4526 44.0351L28.5187 43.8246L28.4466 43.8396C28.4315 43.8126 28.4075 43.7614 28.4345 43.7554C28.3353 43.6893 28.4195 43.7885 28.3473 43.7554C28.3263 43.6021 28.1127 43.4487 28.1879 43.3614C28.1157 43.3494 28.227 43.4938 28.1157 43.3915C28.1909 43.2923 28.0044 43.2592 27.9774 43.1208C28.0496 43.1208 28.0887 43.2381 28.0646 43.1028C27.9383 43.0938 27.9443 42.8833 27.8661 42.8051C27.7939 42.8472 27.7067 42.6306 27.5804 42.4983C27.6105 42.4923 27.421 42.1945 27.3488 42.0381H27.3638C27.2766 42.0562 27.1864 41.9058 27.0992 41.8156C27.1413 41.7915 27.1714 41.7975 27.2285 41.8396L27.1563 41.7434C27.1172 41.7374 27.0841 41.7133 27.033 41.6592L27.0992 41.6472C27.0029 41.5208 26.8496 41.4366 26.7593 41.2472C26.7082 41.2742 26.7293 41.4727 26.5699 41.3254C26.5909 41.3013 26.627 41.2622 26.6721 41.2983C26.6571 41.2863 26.612 41.2622 26.5999 41.2231L26.6932 41.2592C26.6541 41.172 26.63 41.2472 26.5879 41.187C26.624 41.1599 26.5789 41.1239 26.615 41.1118C26.63 41.1239 26.639 41.175 26.6721 41.187C26.627 41.1148 26.5849 41.0186 26.5909 40.9735C26.5759 40.9945 26.5428 41.0096 26.5007 40.9675C26.3984 40.8472 26.5097 40.8923 26.4676 40.8051C26.4195 40.793 26.3804 40.6938 26.3263 40.7359C26.2962 40.6998 26.3172 40.6727 26.3202 40.6487C26.2481 40.6005 26.0646 40.3599 26.0736 40.4742L26.0826 40.4923L26.0706 40.4833C25.9593 40.402 25.8751 40.2908 25.7969 40.1735C25.7067 40.0652 25.6285 39.9389 25.5142 39.8637L25.5293 39.8487C25.3939 39.7554 25.2466 39.6231 25.1263 39.59C25.0902 39.5599 25.0631 39.4878 25.0962 39.4787C24.9879 39.4186 24.9608 39.4306 24.8405 39.2953C24.9638 39.3374 24.8255 39.2411 24.9608 39.3464C24.8435 39.2351 24.8345 39.184 24.6571 39.1389C24.7383 39.1239 24.5969 39.0126 24.5248 38.9825L24.5939 39.0787C24.5187 39.0366 24.4616 38.9915 24.3984 38.9464L24.4736 38.9043C24.2481 38.6487 23.8932 38.7208 23.7608 38.4652C23.6616 38.4652 23.8932 38.5885 23.7969 38.6005C23.6736 38.5163 23.5924 38.3449 23.5533 38.3208C23.3969 38.1825 23.3338 38.3208 23.1593 38.1915C23.1714 38.2276 23.1593 38.3028 23.006 38.2487C22.8796 38.1675 22.9007 38.0622 22.9939 38.0893C23.027 38.1043 23.039 38.1193 23.033 38.1284C23.0811 38.1434 23.1413 38.1645 23.1022 38.1103L23.0721 38.1254C23.021 38.0652 22.8375 37.969 22.9007 37.9539C22.7894 37.9208 22.8375 37.969 22.9037 38.0231C22.7533 37.8968 22.642 37.8787 22.4796 37.7645C22.5007 37.7915 22.5097 37.8336 22.4826 37.8186C22.242 37.6532 22.3473 37.8036 22.1669 37.7254C22.0887 37.6381 22.2481 37.6562 22.0556 37.596C21.9623 37.5178 22.0646 37.5208 22.1187 37.5239C21.9353 37.4878 21.836 37.3404 21.7488 37.2863L21.842 37.3103C21.7849 37.2953 21.7458 37.2742 21.7037 37.2532L21.7278 37.3254C21.6826 37.2923 21.6405 37.2712 21.6526 37.2502C21.5864 37.2562 21.6526 37.3494 21.5293 37.3404C21.442 37.2652 21.2435 37.2291 21.2014 37.1299C21.3638 37.2231 21.3548 37.2021 21.3428 37.169C21.3308 37.1389 21.3037 37.0938 21.4631 37.169C21.3999 37.1479 21.3308 37.1118 21.2405 37.0547C21.2255 37.0396 21.2526 37.0427 21.2766 37.0547C20.8947 36.79 21.1232 37.0667 20.7954 36.8983C20.8014 36.8772 20.7654 36.8411 20.7202 36.8021C20.6751 36.766 20.612 36.7239 20.606 36.7299C20.6571 36.7479 20.7082 36.799 20.7022 36.8171C20.7052 36.8321 20.6932 36.8351 20.6902 36.8502C20.6902 36.8682 20.6872 36.8833 20.6751 36.8983C20.6691 36.8983 20.6631 36.8923 20.6631 36.8923C20.6691 37.1118 20.7413 37.2291 20.7473 37.3434C20.7473 37.2983 20.7473 37.2532 20.7473 37.2081C20.8044 37.3163 20.8044 37.4186 20.8255 37.578C20.7954 37.578 20.7924 37.4216 20.7834 37.4697C20.8315 37.587 20.8014 37.6592 20.7684 37.7464C20.7443 37.8066 20.6962 37.8637 20.7022 37.9389C20.6601 37.993 20.63 37.9239 20.5969 37.969C20.5819 38.1254 20.4947 38.0983 20.4466 38.2427C20.5157 38.2336 20.5097 38.2156 20.4947 38.3449C20.5278 38.2577 20.5759 38.1855 20.5909 38.0953C20.5969 38.1584 20.5909 38.2216 20.5789 38.2848C20.63 38.2156 20.63 38.1133 20.6571 38.0712C20.6661 38.1645 20.6571 38.1554 20.7112 38.1344C20.5999 38.2096 20.639 38.366 20.5187 38.4502L20.4165 38.366C20.3263 38.4141 20.2932 38.4923 20.236 38.5675C20.1729 38.6336 20.1157 38.7299 19.9894 38.778C20.0165 38.769 20.0496 38.769 20.0736 38.7539C20.0736 38.8201 19.9323 38.8381 19.8691 38.8983C19.8571 38.8562 19.8029 38.8652 19.7578 38.8562C19.7789 38.8923 19.5774 38.9224 19.5864 39.0126L19.4541 38.9975C19.2466 39.0487 19.2435 39.178 19.027 39.2141C19.0811 39.1539 18.9819 39.1419 19.1142 39.0787C19.045 39.0938 18.9819 39.0968 18.9849 39.1269C18.9428 39.1118 18.7984 39.2231 18.7263 39.181C18.6992 39.202 18.6932 39.2502 18.612 39.2532C18.6029 39.2442 18.612 39.2321 18.612 39.2321C18.612 39.2532 18.4857 39.2742 18.5638 39.3163C18.3323 39.2111 17.9323 39.3464 17.7368 39.2261C17.5774 39.2472 17.3849 39.2381 17.2375 39.2261C17.2466 39.2141 17.2375 39.2051 17.2676 39.2111C17.0721 39.1509 17.1323 39.3284 16.9097 39.2622C16.8014 39.181 17.036 39.2351 16.9638 39.202C16.9488 39.0547 16.6872 39.202 16.5458 39.0848H16.5849C16.4766 39.0156 16.2962 39.0908 16.1067 39.0517C16.1067 39.0517 16.1187 39.0396 16.1127 39.0306C15.9714 39.0848 15.7187 39.0727 15.5353 39.0427C15.6044 39.0005 15.6225 39.0336 15.6014 38.9675C15.5202 38.9554 15.6044 39.0637 15.439 39.0396C15.3939 38.9975 15.2857 38.9404 15.2857 38.8772L15.436 38.9103C15.3789 38.8141 15.2405 38.8652 15.1653 38.8321L15.1834 38.8021C14.9488 38.7599 14.9247 38.8381 14.6841 38.7479L14.6992 38.781C14.5368 38.8171 14.606 38.6968 14.4526 38.7088L14.4466 38.6126C14.3503 38.6126 14.1217 38.5675 13.9623 38.5073C14.0796 38.4863 14.2571 38.5524 14.3834 38.5524C14.2962 38.5254 14.1097 38.4291 14.0466 38.4502C14.0826 38.4592 14.1338 38.4592 14.1578 38.4863C14.0315 38.4983 13.8781 38.4682 13.7217 38.381C13.7789 38.3148 13.6917 38.2396 13.5834 38.1584C13.5293 38.1193 13.4721 38.0742 13.427 38.0321C13.3849 37.987 13.3608 37.9329 13.3608 37.8878C13.2977 37.8487 13.2405 37.8005 13.1864 37.7494C13.1293 37.6983 13.1022 37.6291 13.0631 37.566C12.9759 37.4427 12.9458 37.2923 12.8796 37.1449C12.7834 37.2983 12.8526 37.0547 12.7263 37.1088C12.6992 37.0306 12.6932 36.9975 12.7022 36.9915C12.7022 36.9073 12.7413 36.8201 12.7593 36.7419C12.7954 36.6848 12.7954 36.8141 12.8255 36.8051C12.8285 36.6396 12.8736 36.7359 12.9157 36.6306C12.8646 36.6517 12.8496 36.5705 12.8766 36.4802L12.8014 36.6066C12.7774 36.4863 12.8075 36.4351 12.8496 36.39C12.8706 36.369 12.8887 36.3449 12.9007 36.3148C12.9037 36.3058 12.9067 36.2998 12.9097 36.2878C12.9157 36.2697 12.9097 36.2878 12.9217 36.2366C12.9398 36.1855 12.9578 36.1344 12.9729 36.0712L12.9518 36.2336C12.9789 36.1464 13.033 36.0141 13.0902 35.8667C13.1684 35.7103 13.2616 35.5299 13.3247 35.3945C13.2796 35.3975 13.2556 35.3975 13.2195 35.4036C13.1774 35.4096 13.1353 35.4186 13.0962 35.4246C13.018 35.4396 12.9488 35.4577 12.8887 35.4817C12.8676 35.4667 12.8435 35.4306 12.9638 35.4156C12.8195 35.4156 12.6541 35.4306 12.4947 35.4487C12.3383 35.4607 12.1608 35.4968 12.0947 35.5208C11.9112 35.569 11.7428 35.6111 11.6044 35.6201L11.6225 35.581C11.5593 35.6081 11.5263 35.6712 11.439 35.6592C11.439 35.6442 11.4571 35.6201 11.427 35.6261C11.3939 35.6442 11.2736 35.7254 11.1864 35.7404L11.2435 35.6802C11.0751 35.7163 10.9548 35.7855 10.8496 35.8547C10.7473 35.9329 10.6601 36.0201 10.5368 36.0893C10.5157 36.0442 10.4405 36.0411 10.3533 36.0592C10.2691 36.0802 10.1759 36.1193 10.1127 36.1464V36.1314C9.92926 36.2216 9.79693 36.3299 9.67663 36.4472C9.55332 36.5584 9.44204 36.6757 9.31272 36.8051C9.0661 36.8502 8.68715 37.2411 8.3864 37.4396C8.44054 37.4156 8.43151 37.5028 8.39242 37.5539C8.31723 37.596 8.26911 37.7614 8.21497 37.6863L8.23903 37.6682C8.13076 37.6442 8.0255 37.7855 7.92625 37.8757L7.99242 37.975C7.61648 38.0953 7.39392 38.6727 7.15031 38.7028C7.11422 38.784 7.04204 38.8592 7.00595 38.9404L6.96084 38.8923C6.78941 39.0517 6.7052 39.1329 6.52174 39.3554L6.52775 39.2802C6.41347 39.3975 6.52775 39.5569 6.42851 39.6682L6.32926 39.6381C6.13978 39.8487 5.88715 40.0051 5.76385 40.2697C5.75783 40.2577 5.74279 40.2336 5.76986 40.1945C5.67963 40.2908 5.37888 40.5344 5.50821 40.5855C5.44204 40.5254 5.30971 40.8051 5.24054 40.9524L5.20745 40.8923C5.1864 41.0457 5.20144 41.0637 5.10219 41.2201C5.06911 41.2502 5.03903 41.2201 5.08715 41.184C4.97287 41.2802 5.05708 41.3043 4.93377 41.4306V41.3524C4.84956 41.4727 4.87362 41.4757 4.8676 41.572C4.83753 41.6622 4.69918 41.7975 4.63903 41.7855C4.65708 41.8216 4.65106 41.9148 4.58791 41.978C4.56385 41.978 4.56986 41.9419 4.57287 41.9269C4.40445 42.1163 4.45257 42.2848 4.31422 42.399C4.29317 42.393 4.28114 42.399 4.2661 42.4051C4.36535 42.2336 4.44354 42.0953 4.44054 42.1133C4.38941 42.0833 4.30219 42.2186 4.29618 42.0652C4.26911 42.2005 4.24505 42.4381 4.1458 42.5614C4.13678 42.5645 4.12775 42.5705 4.11873 42.5705V42.5524C4.09768 42.5825 4.08866 42.6126 4.07963 42.6427C4.04655 42.6818 4.02851 42.7088 4.00745 42.7509C3.95633 42.7449 3.9052 42.9043 3.86911 42.9765C3.92926 42.9975 3.87512 43.0878 3.96535 43.0216C3.95633 43.0306 3.96535 43.0036 3.9864 42.9554C3.98941 42.9434 3.99542 42.9314 3.99542 42.9224V42.9284C4.01948 42.8802 4.04655 42.8201 4.07963 42.7479C4.07963 42.8201 4.07963 42.8893 4.00745 42.9524C4.0255 43.0066 4.04354 43.0667 4.05257 43.0968C3.92625 43.1539 3.79392 43.3254 3.73076 43.3284C3.66159 43.563 3.53227 43.8667 3.58339 44.0472C3.57136 44.1163 3.52024 44.1073 3.49317 44.1254C3.49618 44.0833 3.51723 44.0411 3.50821 44.0141C3.48114 44.1494 3.37587 44.399 3.44204 44.4562C3.34881 44.6066 3.40294 44.3389 3.33678 44.5675L3.32475 44.5284C3.03603 44.9254 3.28264 45.3103 2.96685 45.7524C2.9879 45.7224 2.99693 45.7043 3.01196 45.7013C2.77738 46.2487 2.75933 46.8863 2.52475 47.4246C2.4676 47.581 2.51572 47.6081 2.53377 47.7163L2.45858 47.7374L2.50369 47.9208C2.51572 48.1705 2.25708 48.3028 2.31422 48.6276L2.36535 48.5975C2.33828 48.7058 2.33227 48.9464 2.28415 48.9223C2.29016 48.9344 2.32625 48.9645 2.29618 49.0036H2.26009L2.28114 49.2802C2.227 49.4848 2.1458 49.2261 2.09768 49.5329C2.09768 49.6502 2.16084 49.8727 2.19091 49.8306C2.19693 49.7825 2.227 49.7133 2.26309 49.7163L2.26911 49.8216C2.37136 49.8517 2.4676 49.9389 2.56986 49.7013L2.52775 49.5178L2.5849 49.4697L2.56685 49.6171C2.627 49.5389 2.59091 49.4818 2.56986 49.4186C2.59993 49.4096 2.62099 49.3855 2.63603 49.3524L2.56084 49.166C2.60595 49.1509 2.63001 49.2532 2.66911 49.1419C2.63603 49.0547 2.56685 49.2051 2.55482 49.0667C2.61497 48.9915 2.64806 49.0216 2.624 48.9163C2.65407 48.9073 2.6661 48.9314 2.67212 48.9705C2.65106 48.8772 2.69618 48.7389 2.64806 48.6848C2.72024 48.6066 2.68415 48.387 2.78039 48.4141C2.76234 48.384 2.73227 48.2487 2.7443 48.1675C2.83452 48.3359 2.80745 47.8697 2.92775 47.9329C2.84354 47.8036 2.96384 47.5359 2.9458 47.3344C2.95181 47.3464 2.96384 47.3705 2.95482 47.3855C2.9879 47.2802 3.024 47.2562 3.06009 47.193C2.97587 47.1599 2.99693 46.9885 2.96685 46.8863C3.08114 46.775 3.04806 46.9885 3.13828 46.9675C3.0661 46.9584 3.12324 46.7239 3.05407 46.7539C3.12926 46.6667 3.09918 46.6757 3.18339 46.6426C3.08114 46.5975 3.18339 46.5464 3.1443 46.4472C3.23753 46.3178 3.25557 46.4381 3.2646 46.2727C3.31873 46.2066 3.31572 46.3569 3.31572 46.3569L3.32475 46.363ZM4.51572 42.7058C4.50069 42.7359 4.48866 42.7599 4.47963 42.778C4.48565 42.763 4.49768 42.7419 4.51272 42.7058H4.51572ZM4.67212 42.4231C4.65106 42.4562 4.627 42.4983 4.59994 42.5434C4.57587 42.5434 4.56084 42.5224 4.57888 42.4923C4.58189 42.5163 4.63001 42.4532 4.67212 42.4201V42.4231ZM3.95633 42.8291C3.97136 42.778 3.98941 42.766 4.00445 42.766C3.99542 42.79 3.9864 42.8171 3.97136 42.8532V42.8622C3.97136 42.8622 3.95933 42.8411 3.95633 42.8291Z" fill="#1B1B1B"/>
<path d="M7.61208 39.0459L7.59937 39.0332L7.58984 39.065L7.61208 39.0459Z" fill="#1B1B1B"/>
<path d="M21.1834 37.6943C21.1834 37.6943 21.1834 37.7006 21.1834 37.7037C21.1959 37.7319 21.1896 37.7162 21.1834 37.6943Z" fill="#1B1B1B"/>
<path d="M23.1744 38.4976C23.1413 38.4915 23.1112 38.4885 23.0811 38.4795C23.1232 38.5096 23.1563 38.5277 23.1744 38.4976Z" fill="#1B1B1B"/>
<path d="M18.8392 39.6771V39.6738L18.8165 39.6771H18.8392Z" fill="#1B1B1B"/>
<path d="M22.9669 38.4141C23.0061 38.4502 23.0422 38.4683 23.0814 38.4803C23.0482 38.4562 23.0091 38.4261 22.9669 38.4141Z" fill="#1B1B1B"/>
<path d="M25.0781 39.4306L25.1237 39.3911C25.0477 39.3454 25.1085 39.4093 25.0781 39.4306Z" fill="#1B1B1B"/>
<path d="M24.1963 39.1768L24.2445 39.2521L24.3047 39.228L24.1963 39.1768Z" fill="#1B1B1B"/>
<path d="M23.9773 38.5579L24.0135 38.5699L23.8838 38.5156L23.9773 38.5579Z" fill="#1B1B1B"/>
<path d="M17.917 39.1627L17.9411 39.2349C17.9983 39.2229 18.0073 39.1416 17.917 39.1627Z" fill="#1B1B1B"/>
<path d="M14.7332 38.7209C14.7121 38.6756 14.6337 38.6243 14.5703 38.6394C14.6367 38.6666 14.694 38.7179 14.7332 38.7209Z" fill="#1B1B1B"/>
<path d="M7.81178 38.0193L7.84189 37.9561L7.7666 38.0585L7.81178 38.0193Z" fill="#1B1B1B"/>
<path d="M32.4289 14.0829C32.9131 15.0513 31.8274 16.4889 31.8274 16.4889C31.8274 16.4889 35.1357 16.7896 35.1357 14.6844C35.1357 13.34 33.6319 11.6768 33.6319 11.6768C35.1357 12.2783 36.9402 16.2302 36.9402 16.2302C36.9402 16.2302 37.8425 15.5866 34.835 10.7746C34.835 10.7746 32.3357 6.08888 26.1131 5.0603C24.3928 4.60617 23.1748 4.5791 23.1748 4.5791C20.7928 4.72045 18.8981 5.24677 17.3883 5.96557C15.7853 6.58812 10.3267 9.37609 7.83946 19.1956C4.90713 30.7746 7.6139 30.1731 4.90713 32.2783C2.20037 34.3836 0.0951044 40.0979 5.80939 41.0001C5.80939 41.0001 8.66653 35.4362 14.5312 35.8874C14.5312 35.8874 15.3853 32.1189 16.0109 31.5986C16.4229 31.2558 13.8425 29.3971 12.2786 25.6678C13.4034 23.5956 15.4335 23.5596 16.3357 19.9505C16.9583 17.4633 18.9583 12.155 21.2981 11.9806C22.5462 11.8874 18.2906 16.1911 18.2906 16.1911C18.2906 16.1911 21.9598 17.6708 24.6064 15.2889C25.3943 14.5791 26.1101 13.4844 25.9598 11.5295L26.3056 12.4498C26.6545 13.3761 26.5071 14.4167 25.9177 15.2107L25.1568 16.2362C25.1568 16.2362 27.4756 17.0483 30.0229 15.8934C33.3312 14.3896 28.5192 10.4799 28.5192 10.4799C28.5192 10.4799 31.5267 12.2844 32.4289 14.0889V14.0829Z" fill="black"/>
<path d="M32.5157 32.3594C27.3157 36.9398 21.2195 35.006 21.2195 35.006L20.3984 37.2406C25.812 39.0451 27.4661 42.215 27.4661 42.215C34.5338 43.5804 31.2255 38.7443 31.0751 38.0616C30.9248 37.3789 30.3232 36.6421 31.0751 35.418C31.827 34.194 32.5157 32.3594 32.5157 32.3594Z" fill="black"/>
<path d="M21.7518 28.2182C21.7007 28.2182 21.6526 28.1941 21.6255 28.146C21.5804 28.0768 21.6014 27.9836 21.6736 27.9385C21.7217 27.9084 26.612 24.9129 31.1473 27.331C31.2195 27.3701 31.2496 27.4603 31.2105 27.5355C31.1714 27.6107 31.0811 27.6377 31.0059 27.5986C26.627 25.2618 21.8811 28.164 21.833 28.1941C21.809 28.2092 21.7819 28.2182 21.7548 28.2182H21.7518Z" fill="black"/>
<path d="M27.1594 22.2039C31.0611 22.2039 34.2241 21.6653 34.2241 21.0009C34.2241 20.3365 31.0611 19.7979 27.1594 19.7979C23.2577 19.7979 20.0947 20.3365 20.0947 21.0009C20.0947 21.6653 23.2577 22.2039 27.1594 22.2039Z" fill="#F4BDCB"/>
<path d="M28.0674 25.2107C27.3215 25.2107 26.714 24.6032 26.714 23.8573C26.714 23.1114 27.3215 22.5039 28.0674 22.5039C28.8133 22.5039 29.4208 23.1114 29.4208 23.8573C29.4208 24.6032 28.8133 25.2107 28.0674 25.2107ZM28.0674 22.8047C27.4869 22.8047 27.0148 23.2768 27.0148 23.8573C27.0148 24.4377 27.4869 24.9099 28.0674 24.9099C28.6478 24.9099 29.12 24.4377 29.12 23.8573C29.12 23.2768 28.6478 22.8047 28.0674 22.8047Z" fill="black"/>
<path d="M24.6333 21.9021C25.1449 21.9021 25.5597 21.2288 25.5597 20.3983C25.5597 19.5678 25.1449 18.8945 24.6333 18.8945C24.1218 18.8945 23.707 19.5678 23.707 20.3983C23.707 21.2288 24.1218 21.9021 24.6333 21.9021Z" fill="black"/>
<path d="M31.5025 21.9021C32.0141 21.9021 32.4288 21.2288 32.4288 20.3983C32.4288 19.5678 32.0141 18.8945 31.5025 18.8945C30.9909 18.8945 30.5762 19.5678 30.5762 20.3983C30.5762 21.2288 30.9909 21.9021 31.5025 21.9021Z" fill="black"/>
<path d="M26.2629 19.1947C26.2148 19.1947 26.1667 19.1707 26.1366 19.1286C26.1276 19.1135 25.1892 17.7301 24.1667 17.676C23.7607 17.6519 23.3998 17.8444 23.0689 18.2414C23.0148 18.3045 22.9216 18.3135 22.8584 18.2594C22.7952 18.2053 22.7862 18.112 22.8404 18.0489C23.2343 17.5767 23.6915 17.3481 24.1847 17.3752C25.3607 17.4384 26.3471 18.9 26.3892 18.9632C26.4343 19.0323 26.4163 19.1256 26.3471 19.1707C26.3231 19.1887 26.293 19.1947 26.2629 19.1947Z" fill="black"/>
<path d="M31.0244 19.2138C30.5582 19.2138 30.1311 18.9882 29.7582 18.5401C29.7041 18.4769 29.7131 18.3807 29.7762 18.3296C29.8394 18.2754 29.9356 18.2845 29.9868 18.3476C30.3176 18.7446 30.6845 18.9341 31.0845 18.913C32.1101 18.8589 33.0454 17.4724 33.0544 17.4604C33.0996 17.3912 33.1958 17.3732 33.262 17.4183C33.3311 17.4634 33.3492 17.5566 33.3041 17.6258C33.262 17.689 32.2755 19.1506 31.0996 19.2138C31.0725 19.2138 31.0484 19.2138 31.0214 19.2138H31.0244Z" fill="black"/>
<path d="M18.0706 19.461C18.0195 19.461 17.9714 19.4339 17.9413 19.3888C17.8992 19.3166 17.9203 19.2264 17.9924 19.1813C18.2752 19.0098 18.4376 18.8023 18.4767 18.5647C18.5428 18.1437 18.2 17.7437 18.197 17.7377C18.1428 17.6745 18.1488 17.5813 18.212 17.5241C18.2752 17.47 18.3684 17.476 18.4225 17.5392C18.4406 17.5602 18.8586 18.0444 18.7744 18.6068C18.7233 18.9347 18.5127 19.2144 18.1488 19.4339C18.1248 19.4489 18.0977 19.455 18.0706 19.455V19.461Z" fill="black"/>
<path d="M19.9623 18.6547C19.6857 18.6547 19.4541 18.5765 19.2646 18.4231C18.8255 18.0622 18.8135 17.4216 18.8135 17.3945C18.8135 17.3103 18.8796 17.2441 18.9608 17.2441C19.033 17.2441 19.1112 17.3103 19.1142 17.3915C19.1142 17.3975 19.1263 17.9238 19.4571 18.1945C19.6405 18.3449 19.9022 18.393 20.227 18.3299C20.3082 18.3148 20.3864 18.369 20.4014 18.4502C20.4165 18.5314 20.3623 18.6096 20.2811 18.6246C20.1699 18.6456 20.0616 18.6547 19.9623 18.6547Z" fill="black"/>
<path d="M18.7446 20.152C18.7446 20.152 18.7235 20.152 18.7145 20.149C18.6333 20.131 18.5792 20.0528 18.5972 19.9716C18.6032 19.9445 18.7386 19.3159 19.2378 19.0483C19.5296 18.8889 19.8784 18.8889 20.2754 19.0483C20.3536 19.0783 20.3897 19.1656 20.3596 19.2437C20.3296 19.3219 20.2423 19.358 20.1641 19.328C19.8544 19.2047 19.5897 19.2016 19.3792 19.3159C19.0032 19.5204 18.892 20.0317 18.892 20.0347C18.8769 20.1069 18.8138 20.155 18.7446 20.155V20.152Z" fill="black"/>
</g>
</svg>
