<svg width="42" height="42" viewBox="0 0 42 42" fill="none" xmlns="http://www.w3.org/2000/svg">
<path d="M9.26766 9.2V12.35H3.44766V9.2H4.13766V10.18H8.57766V9.2H9.26766ZM4.74766 5.18C4.71432 5.23333 4.63432 5.31667 4.50766 5.43C4.38766 5.53667 4.18432 5.66667 3.89766 5.82C3.72432 5.91333 3.50766 6.03 3.24766 6.17C2.99432 6.30333 2.72766 6.43667 2.44766 6.57L2.11766 6.01C2.43099 5.86333 2.73099 5.72 3.01766 5.58C3.30432 5.43333 3.53432 5.30667 3.70766 5.2C3.85432 5.10667 3.97099 5.02 4.05766 4.94C4.15099 4.86 4.21766 4.77667 4.25766 4.69C4.30432 4.59667 4.33432 4.49667 4.34766 4.39C4.36099 4.27667 4.36766 4.14333 4.36766 3.99V3.36H5.07766V4C5.07766 4.14667 5.08432 4.27333 5.09766 4.38C5.11099 4.48 5.14099 4.57333 5.18766 4.66C5.24099 4.74667 5.31766 4.83 5.41766 4.91C5.52432 4.99 5.66766 5.08333 5.84766 5.19C6.00099 5.28333 6.20432 5.39667 6.45766 5.53C6.71766 5.65667 6.97432 5.77667 7.22766 5.89L6.91766 6.43C6.68432 6.31667 6.46432 6.20667 6.25766 6.1C6.05099 5.99333 5.87099 5.9 5.71766 5.82C5.38432 5.64667 5.14432 5.51 4.99766 5.41C4.85766 5.31 4.77766 5.23333 4.75766 5.18H4.74766ZM7.86766 7.5C7.42766 7.54667 6.98432 7.58667 6.53766 7.62C6.09766 7.64667 5.59766 7.66667 5.03766 7.68V8.8H4.32766V7.7C3.98099 7.71333 3.60432 7.72 3.19766 7.72C2.79766 7.72 2.35432 7.72 1.86766 7.72V7.11C2.58766 7.11 3.22099 7.10667 3.76766 7.1C4.31432 7.09333 4.81432 7.08333 5.26766 7.07C5.72766 7.05 6.15766 7.02667 6.55766 7C6.95766 6.97333 7.37432 6.93667 7.80766 6.89L7.86766 7.5ZM8.57766 11.72V10.8H4.13766V11.72H8.57766ZM9.26766 8.76H8.56766V3.22H9.26766V8.76ZM15.9692 6.2V3.41H16.6692V11.91H15.9692V6.84H13.8792V6.2H15.9692ZM18.6092 12.36H17.9092V3.22H18.6092V12.36ZM11.2992 4.08H12.0092V9.15H12.7392C13.0726 9.15 13.4459 9.13667 13.8592 9.11C14.2726 9.08333 14.7026 9.03 15.1492 8.95L15.2292 9.58C14.7692 9.67333 14.2892 9.73333 13.7892 9.76C13.2892 9.78 12.8259 9.79 12.3992 9.79H11.2992V4.08ZM21.0908 5.92C21.0908 5.59333 21.1708 5.3 21.3308 5.04C21.4908 4.77333 21.7074 4.54667 21.9808 4.36C22.2541 4.17333 22.5708 4.03 22.9308 3.93C23.2974 3.82333 23.6874 3.77 24.1008 3.77C24.5074 3.77 24.8908 3.82333 25.2508 3.93C25.6174 4.03 25.9374 4.17333 26.2108 4.36C26.4908 4.54667 26.7108 4.77333 26.8708 5.04C27.0308 5.3 27.1108 5.59333 27.1108 5.92V6.41C27.1108 6.76333 27.0174 7.08 26.8308 7.36C26.6441 7.64 26.3941 7.87333 26.0808 8.06V10.46H28.3008V11.07H19.9008V10.46H22.1208V8.06C21.8008 7.87333 21.5474 7.64333 21.3608 7.37C21.1808 7.09 21.0908 6.77 21.0908 6.41V5.92ZM24.1008 4.42C23.7741 4.42 23.4708 4.46 23.1908 4.54C22.9108 4.61333 22.6674 4.71667 22.4608 4.85C22.2541 4.98333 22.0908 5.14333 21.9708 5.33C21.8508 5.51667 21.7908 5.72333 21.7908 5.95V6.38C21.7908 6.60667 21.8508 6.81333 21.9708 7C22.0908 7.18667 22.2541 7.35 22.4608 7.49C22.6674 7.62333 22.9108 7.72667 23.1908 7.8C23.4708 7.87333 23.7741 7.91 24.1008 7.91C24.4208 7.91 24.7208 7.87333 25.0008 7.8C25.2874 7.72667 25.5341 7.62333 25.7408 7.49C25.9474 7.35 26.1108 7.18667 26.2308 7C26.3508 6.81333 26.4108 6.60667 26.4108 6.38V5.95C26.4108 5.72333 26.3508 5.51667 26.2308 5.33C26.1108 5.14333 25.9474 4.98333 25.7408 4.85C25.5341 4.71667 25.2874 4.61333 25.0008 4.54C24.7208 4.46 24.4208 4.42 24.1008 4.42ZM24.1008 8.56C23.8674 8.56 23.6441 8.54333 23.4308 8.51C23.2174 8.47667 23.0141 8.43 22.8208 8.37V10.46H25.3808V8.37C25.1874 8.43667 24.9808 8.48667 24.7608 8.52C24.5474 8.54667 24.3274 8.56 24.1008 8.56Z" fill="#212121"/>
<path d="M11.1146 31.7808V24.8568L9.14659 25.9847L8.40259 24.7367L11.2946 23.1287H12.6506V31.7808H11.1146ZM18.556 31.7808V24.8568L16.588 25.9847L15.844 24.7367L18.736 23.1287H20.092V31.7808H18.556Z" fill="#212121"/>
<circle cx="21" cy="21" r="20.35" fill="white" stroke="#212121" stroke-width="0.7"/>
<g clip-path="url(#clip0_319_821)">
<mask id="mask0_319_821" style="mask-type:luminance" maskUnits="userSpaceOnUse" x="1" y="1" width="40" height="40">
<path d="M21 41C32.0457 41 41 32.0457 41 21C41 9.9543 32.0457 1 21 1C9.9543 1 1 9.9543 1 21C1 32.0457 9.9543 41 21 41Z" fill="white"/>
</mask>
<g mask="url(#mask0_319_821)">
<path d="M28.8198 45.9623C28.8198 45.9623 27.0153 42.654 24.9101 40.248C22.6965 37.7187 19.4965 36.9397 19.4965 36.9397L20.1612 34.6751C21.7943 35.2074 23.5296 35.3849 25.292 35.1382C32.4048 34.1397 37.2289 26.5969 36.0619 18.2901C34.898 9.98335 28.1852 4.05854 21.0695 5.05704C13.9537 6.05553 9.13261 13.5984 10.2995 21.9052C10.8379 25.7428 12.5612 29.0751 14.9612 31.448C14.9612 31.448 13.7822 33.9322 13.4815 35.7367C13.4815 35.7367 8.3687 34.8345 4.75968 40.8495C3.11457 43.5924 2.65442 46.263 2.65442 46.263" fill="#FFF7EB"/>
<path d="M13.9992 34.2637L13.954 34.3631C13.969 34.336 13.9841 34.3028 13.9992 34.2637Z" fill="#1B1B1B"/>
<path d="M11.2441 25.0542C11.2712 25.1295 11.2923 25.1566 11.3014 25.1566C11.2712 25.0904 11.2472 25.0332 11.2441 25.0542Z" fill="#1B1B1B"/>
<path d="M10.871 23.3271C10.877 23.3633 10.883 23.3964 10.889 23.4295C10.889 23.3904 10.883 23.3482 10.871 23.3271Z" fill="#1B1B1B"/>
<path d="M13.999 34.264L14.1136 34.0077C14.0895 33.9775 14.0473 34.1343 13.999 34.264Z" fill="#1B1B1B"/>
<path d="M10.5284 36.2511L10.45 36.2782C10.4319 36.2963 10.4138 36.3174 10.3987 36.3386L10.5284 36.248V36.2511Z" fill="#1B1B1B"/>
<path d="M7.52723 37.9232C7.59059 37.8749 7.5574 37.7905 7.5574 37.7422C7.54533 37.7995 7.51214 37.8508 7.46387 37.8991C7.47292 37.9111 7.49404 37.9202 7.53024 37.9232H7.52723Z" fill="#1B1B1B"/>
<path d="M12.9581 35.9326C12.9581 35.9326 12.9776 35.9585 12.9905 35.965C12.9905 35.952 12.9776 35.9423 12.9581 35.9326Z" fill="#1B1B1B"/>
<path d="M10.5547 20.1338C10.5547 20.1338 10.5547 20.1429 10.5547 20.149C10.5669 20.2342 10.5638 20.1855 10.5547 20.1338Z" fill="#1B1B1B"/>
<path d="M29.8994 7.89992C29.6792 7.63757 30.3939 8.15323 30.0441 7.78232C30.0592 7.83659 29.5978 7.61043 29.8994 7.89992Z" fill="#1B1B1B"/>
<path d="M30.0438 7.78233L30.0049 7.74023C30.0211 7.75642 30.0308 7.76614 30.0438 7.78233Z" fill="#1B1B1B"/>
<path d="M11.8211 12.9365C11.8 12.9456 11.7789 12.9666 11.7578 12.9907C11.7668 12.9907 11.7819 12.9817 11.8211 12.9365Z" fill="#1B1B1B"/>
<path d="M10.4111 18.2451L10.4292 18.1094C10.4172 18.1637 10.4141 18.2059 10.4111 18.2451Z" fill="#1B1B1B"/>
<path d="M13.1113 10.3835C13.1566 10.3262 13.1837 10.3111 13.235 10.2236C13.226 10.2297 13.2169 10.2357 13.2079 10.2417C13.1958 10.2779 13.1687 10.3202 13.1113 10.3835Z" fill="#1B1B1B"/>
<path d="M15.0813 8.15137C15.0663 8.15739 15.0452 8.16643 15.0301 8.17546C15.009 8.19654 14.9849 8.22064 14.9639 8.24172L15.0843 8.15137H15.0813Z" fill="#1B1B1B"/>
<path d="M19.9423 36.7021C19.9273 36.7323 19.9182 36.7533 19.9092 36.7684C19.9604 36.7232 20.0869 36.7353 19.9423 36.7021Z" fill="#1B1B1B"/>
<path d="M12.6367 9.89879L12.9435 9.50781C12.8533 9.61308 12.742 9.75744 12.6367 9.89879Z" fill="#1B1B1B"/>
<path d="M35.6892 26.2412L35.6621 26.3526C35.6772 26.3105 35.6892 26.2713 35.6892 26.2412Z" fill="#1B1B1B"/>
<path d="M13.8935 8.37435C13.9749 8.32911 14.0564 8.27785 14.1317 8.21452C14.1408 8.19643 14.1559 8.17532 14.1559 8.15723C14.0684 8.2296 13.978 8.29896 13.8905 8.37133L13.8935 8.37435Z" fill="#1B1B1B"/>
<path d="M22.7933 37.8719C22.3843 37.6223 22.5467 37.8509 22.4264 37.8539C21.9181 37.6073 22.2369 37.6554 22.0956 37.514C21.7677 37.3727 21.479 37.3486 21.2414 37.2373C21.2324 37.2133 21.1873 37.1862 21.2505 37.1892C21.064 37.1531 20.8083 37.0448 20.5407 36.9486C20.4083 36.8975 20.27 36.8554 20.1407 36.8193C20.1076 36.8103 20.0745 36.8042 20.0444 36.7952C20.0294 36.7952 20.0174 36.7952 20.0023 36.7952C19.9753 36.7952 19.9422 36.7952 19.9061 36.8012C19.9001 36.7892 19.9031 36.7802 19.9061 36.7742C19.882 36.8253 19.855 36.8734 19.8099 36.9035C19.7557 36.8885 19.6956 36.8794 19.6354 36.8734C19.6234 36.8133 19.6474 36.7321 19.7046 36.69C19.6745 36.7802 19.7046 36.7772 19.7256 36.7982V36.6719C19.858 36.5606 19.7497 36.7682 19.7948 36.7862C19.8099 36.7862 19.8249 36.7802 19.8369 36.7712H19.8219C19.8129 36.7351 19.8219 36.6839 19.8219 36.6298L19.8279 36.5426C19.8369 36.4915 19.8459 36.4403 19.855 36.3892C19.8941 36.1817 19.9362 35.9862 19.9963 35.8388C20.1136 35.8027 19.8159 36.5727 20.0264 36.1847L19.9362 36.4193L19.8911 36.5366C19.879 36.5697 19.873 36.5757 19.864 36.5997C19.9151 36.5636 19.9392 36.5606 19.9482 36.5606C19.9542 36.5787 19.9482 36.5787 19.9482 36.5937C19.9392 36.6238 19.9362 36.6298 20.0324 36.6027L20.0384 36.5967L20.0565 36.5456C20.0685 36.5095 20.0775 36.4764 20.0865 36.4464C20.1046 36.3832 20.1196 36.326 20.1377 36.2719C20.1647 36.1667 20.1858 36.0764 20.2038 35.9862C20.2429 35.8058 20.282 35.6253 20.3903 35.3155C20.3843 35.2343 20.3602 35.2464 20.3362 35.2494C20.3091 35.2614 20.2941 35.2433 20.276 35.2042C20.279 35.1471 20.2911 35.09 20.3031 35.0479C20.3091 35.0268 20.3151 35.0088 20.3211 34.9937C20.3211 34.9697 20.3512 34.9997 20.3662 35.0027C20.4324 35.0418 20.4745 35.087 20.4956 35.123C20.5076 35.1411 20.5136 35.1591 20.5196 35.1742C20.5347 35.1922 20.5858 35.2163 20.6249 35.2343C20.7121 35.2734 20.8324 35.2975 21.0099 35.3065C21.2053 35.2794 21.2986 35.1742 21.7738 35.3306L21.5843 35.4148C22.2309 35.5351 21.9753 35.3185 22.6459 35.4749C22.5196 35.508 22.1317 35.4569 22.2279 35.4809C22.658 35.6223 22.5467 35.4539 22.8865 35.4809L22.9497 35.5892C23.6505 35.6193 24.4204 35.5321 25.1753 35.4118C25.1362 35.4479 25.0099 35.496 25.1933 35.505C25.4339 35.4599 25.6805 35.4148 25.9332 35.3667C26.1828 35.3155 26.4354 35.2614 26.6911 35.2103C27.1933 35.087 27.6895 34.9576 28.1407 34.8042L28.4384 34.5817C28.5166 34.5486 28.5978 34.5576 28.5226 34.6088C28.8715 34.4854 28.5166 34.5516 28.661 34.4433C28.8444 34.3471 28.9286 34.3682 28.8234 34.4494C29.1001 34.2779 29.485 34.0223 29.867 33.7636C30.2489 33.505 30.6279 33.2343 30.9256 33.0659C30.8956 33.099 30.8685 33.1351 30.8384 33.1682C31.2745 32.8644 31.1963 32.6629 31.6083 32.3982L31.5482 32.4734C31.9933 32.1155 32.3963 31.6674 32.7783 31.2464C33.1452 30.8133 33.479 30.4012 33.7798 30.0794C33.7708 29.9742 33.9482 29.7516 34.0956 29.5261C34.2429 29.2975 34.3783 29.0779 34.3211 29.0027C34.7061 28.4734 34.661 28.6599 35.1151 27.8569C35.2234 27.6343 35.1602 27.4749 35.2625 27.1922L35.3497 27.2193C35.3738 27.0809 35.3888 26.9396 35.4068 26.8012L35.5873 26.6358C35.6144 26.5456 35.6414 26.4524 35.6595 26.3591C35.6204 26.4644 35.5392 26.5727 35.5211 26.5456C35.6324 26.1155 35.9181 25.5411 35.9632 25.5381C36.0384 25.1952 36.0956 24.8464 36.1467 24.5005C36.1768 24.5306 36.1497 24.705 36.1407 24.8464C36.1738 24.2779 36.264 24.7682 36.288 24.2448C36.255 24.308 36.2399 24.1967 36.2249 24.1817C36.276 24.0614 36.3302 23.8569 36.3753 23.6313C36.4114 23.4027 36.4444 23.1501 36.4625 22.9336L36.5136 23.0238C36.6279 22.2479 36.6369 21.3787 36.6279 20.5035C36.6008 20.8193 36.4926 20.7441 36.4775 20.4915L36.5738 20.3862C36.5076 20.2238 36.5437 20.6539 36.4595 20.317C36.4595 19.9922 36.5647 20.0945 36.6008 20.2809L36.5557 19.8839C36.5828 19.8599 36.6038 19.9501 36.6399 19.9742C36.5798 19.8148 36.6911 19.2794 36.5708 19.0539L36.5978 19.0298C36.4986 18.1576 36.4083 17.7667 36.261 17.0689C36.1738 17.0719 36.1407 16.7952 36.0234 16.6057C35.9271 16.0945 35.8399 15.514 35.6264 14.9215C35.4399 14.5185 35.5151 14.8223 35.4038 14.6539C35.473 14.5937 35.2324 14.0133 35.4038 14.296C35.2595 13.9471 35.1692 13.7215 35.0459 13.4839C34.9858 13.3636 34.9226 13.2403 34.8474 13.093C34.7632 12.9486 34.667 12.7832 34.5467 12.5757C34.5647 12.6839 34.6038 12.7922 34.5557 12.7501C34.4685 12.6027 34.4083 12.3862 34.4505 12.3892L34.4805 12.4253C34.1738 11.9832 33.9151 11.4208 33.6204 10.9035C33.479 10.6418 33.3286 10.3922 33.1692 10.1727C33.0159 9.95011 32.8474 9.76364 32.682 9.62229L32.7181 9.65537C32.5136 9.43883 32.2911 9.24334 32.0715 9.04184C31.8068 8.72906 32.279 9.18319 32.1106 8.92755C31.3587 8.32004 31.0399 7.84786 30.3692 7.41477C30.1978 7.13507 29.7557 6.80725 29.2625 6.51552C28.7723 6.21778 28.2309 5.95613 27.885 5.71552L27.9061 5.7847C27.6895 5.73958 27.6865 5.64034 27.5452 5.56816C27.5512 5.61327 27.7377 5.7065 27.6053 5.67643C26.7662 5.33056 25.879 5.01778 24.9587 4.79823C24.0384 4.57868 23.079 4.45537 22.1317 4.47342C21.4399 4.49748 21.7647 4.76515 20.8986 4.74109C20.9738 4.69297 21.0489 4.64786 21.1271 4.60876C20.4474 4.76214 19.7587 4.9065 19.088 5.12004C18.4204 5.33658 17.7677 5.60425 17.1933 5.96214C17.2535 5.905 17.2444 5.87793 17.3617 5.82079C17.067 5.87793 16.4324 6.32906 16.4655 6.3862C16.285 6.49447 16.3963 6.36816 16.27 6.41327C15.9993 6.52755 15.7286 6.89447 15.5632 6.92455C15.5362 6.93056 15.6144 6.85838 15.6535 6.82229C15.5151 6.95161 14.9617 7.35161 15.1542 7.30349C14.7362 7.59222 14.4505 7.96515 14.1347 8.21477C14.0083 8.45838 13.5151 8.81928 13.5542 8.96364C13.473 8.84334 12.9046 9.57417 12.7783 9.87492C12.8083 9.76364 12.5798 10.0734 12.6068 9.93808C12.4053 10.2418 12.2399 10.5336 12.3332 10.5185C11.8369 11.0027 11.7647 11.7366 11.4219 11.9802C11.0099 12.9817 10.7151 13.9351 10.4895 14.8674C10.4294 14.8343 10.4926 14.5727 10.5677 14.3261C10.6429 14.0794 10.7181 13.8418 10.6429 13.8388C10.3993 14.7321 10.3873 15.2704 10.1738 16.1486C10.1106 16.3772 10.1407 16.0073 10.1317 15.923C9.99932 16.8283 9.83692 17.6734 9.86699 18.4885C9.85496 18.4885 9.84594 18.3982 9.83993 18.314C9.83692 18.4734 9.79782 18.687 9.86098 18.6689L9.85196 18.5125C9.90308 18.3862 9.94218 18.5486 9.97226 18.7441C10.0053 18.9396 10.0414 19.1651 10.0655 19.1802C9.89105 18.9065 10.0144 19.9742 9.79181 19.5471C9.80384 19.6524 9.83993 19.7847 9.87902 19.7606C9.87301 19.917 9.84895 19.9682 9.79782 19.8088C9.85196 20.3802 9.90008 20.1757 9.93617 20.69C9.90609 20.69 9.88805 20.5877 9.84895 20.5366C9.93015 20.7952 9.99331 21.0539 10.0264 21.49C10.0053 21.4659 9.98729 21.52 9.97226 21.3907C10.0595 22.1396 10.3001 22.6328 10.4174 23.4448C10.2339 23.2373 10.4414 23.7245 10.3422 23.7967C10.3903 23.9381 10.4324 24.0794 10.4865 24.2178L10.4926 24.0313C10.5978 24.4042 10.7632 24.714 10.8384 25.0388L10.7031 24.7802L10.9527 25.4629C10.9196 25.3306 10.8926 25.1952 10.8625 25.0599C11.0429 25.4118 10.9798 24.9757 11.1211 25.4689C11.073 25.3757 11.2535 25.8298 11.2655 26.0403C11.3738 26.2027 11.485 26.3682 11.5692 26.6388C11.5692 26.72 11.4309 26.6358 11.4309 26.69C11.5933 26.8223 11.8399 27.502 12.0474 27.6614C11.9903 27.6012 11.9362 27.6253 11.9362 27.6554L12.0775 27.7606C12.1377 27.9321 12.1437 27.9591 12.0865 27.9561C12.3422 28.4313 12.1256 27.7396 12.3903 28.323C12.3602 28.2839 12.3632 28.308 12.3001 28.2238C12.5918 28.7982 12.9918 29.2524 13.3106 29.7486C13.3226 29.9591 12.9828 29.3486 13.0249 29.5651C13.2835 29.908 13.5813 30.2388 13.882 30.5576C14.0354 30.714 14.1888 30.8704 14.3392 31.0238C14.4114 31.102 14.4896 31.1742 14.5647 31.2524L14.658 31.3486L14.7271 31.4268L14.667 31.3456C14.7332 31.3306 14.8023 31.3907 14.8505 31.4659C14.7993 31.5501 14.7392 31.6223 14.679 31.7155C14.6099 31.8298 14.5467 31.9561 14.5166 32.0854C14.5467 31.9862 14.4896 31.9291 14.4926 31.9591C14.2489 32.4674 14.0805 33.0358 13.852 33.8569V33.7426C13.7046 34.0433 13.5542 34.5667 13.4489 34.9155C13.461 35.0298 13.4099 35.2283 13.4941 35.12C13.458 35.2042 13.4219 35.2854 13.3858 35.3636C13.3587 35.4208 13.3497 35.4839 13.3226 35.523C13.2535 35.508 13.1933 35.499 13.1302 35.499H13.0038H12.8414C12.6249 35.502 12.4174 35.5351 12.2099 35.5591C12.0053 35.5922 11.8008 35.6223 11.5993 35.6494C11.4008 35.6854 11.1963 35.6975 10.9918 35.7065C11.1061 35.6734 11.2625 35.6163 11.1692 35.6313C10.8956 35.7005 10.6249 35.7907 10.3572 35.8809C10.4414 35.923 10.4745 35.887 10.661 35.896C10.6159 35.9291 10.5377 35.9682 10.4474 36.0073C10.3602 36.0524 10.258 36.0975 10.1617 36.1306C10.4986 35.9621 10.1256 36.0253 9.95421 36.0433C9.98729 36.0554 9.94218 36.0945 9.96323 36.1095C9.50609 36.1426 9.94519 36.2599 9.36775 36.4193L9.37978 36.3742C9.28053 36.4283 9.1903 36.4885 9.09707 36.5456C9.00684 36.6088 8.91662 36.6719 8.80835 36.7261C8.68203 36.705 8.99481 36.5757 8.97978 36.5095C8.83241 36.5967 8.70609 36.711 8.57978 36.8163C8.45045 36.9185 8.32414 37.0118 8.17978 37.0689C8.28203 36.9636 8.45948 36.8584 8.57376 36.7712C8.2309 36.8524 8.21587 36.9035 8.00233 37.0328L8.02338 37.0208L7.52414 37.3185L7.65947 37.2554C7.54218 37.4539 7.39782 37.6163 7.21436 37.7636C7.03993 37.917 6.8294 38.0644 6.68805 38.3261C6.98278 37.8358 6.70008 38.2057 6.66399 38.1095C6.54369 38.1967 6.36925 38.3381 6.39331 38.2749C6.32414 38.3982 6.23692 38.4704 6.13767 38.5546C6.04143 38.6388 5.93617 38.7351 5.86098 38.9245C5.8279 38.9185 5.67752 39.1501 5.65948 39.0539C5.45496 39.3456 5.75271 39.0208 5.76173 39.0689C5.63541 39.3155 5.39782 39.5321 5.18128 39.8088C4.96775 40.0854 4.73917 40.3922 4.58278 40.7531C4.29707 41.3636 4.32414 41.517 4.09256 42.0915C3.96023 42.2569 4.07151 41.89 4.07151 41.89C3.88203 42.1727 3.77978 42.4073 3.68354 42.711C3.68354 42.6418 3.63842 42.693 3.56925 42.7682C3.47602 43.0088 3.60233 42.9667 3.43391 43.2614C3.42489 43.1952 3.40684 43.108 3.42188 42.9817C3.32865 43.2704 3.27451 43.5682 3.19331 43.8719C3.11812 43.9321 3.18128 43.6674 3.19331 43.5531C3.08805 43.89 2.93466 44.4283 2.97978 44.5546L3.07602 44.3501C3.03993 44.4734 2.9888 44.3922 3.00384 44.296C3.03692 43.9892 3.17226 43.896 3.20534 43.89L3.1482 44.1035C3.38278 43.9471 3.42489 43.2614 3.61136 42.8524L3.65647 43.0719C3.68053 42.9185 3.7106 42.7651 3.74068 42.6118C3.80985 42.5366 3.90008 42.5065 3.8279 42.711C4.01436 42.4494 3.90008 42.4343 4.08053 42.2208C4.10459 42.1997 4.10158 42.2148 4.09557 42.2418L4.19782 41.9471C4.19481 42.0133 4.30008 41.9411 4.19782 42.1035C4.5076 41.6403 4.52865 41.2674 4.71812 41.1321L4.70308 41.1772C4.87451 40.8313 4.87151 40.8103 4.84143 40.7982C4.81136 40.7862 4.76023 40.7922 4.87752 40.5185L5.28053 40.317L5.24745 40.2027C5.29256 40.1396 5.38579 40.0103 5.40083 40.0554C5.51211 39.7727 5.34068 40.0734 5.38579 39.896C5.67451 39.6343 6.01136 39.0418 6.17376 39.0659C6.20684 38.9125 5.90308 39.3155 6.12263 38.9667C6.3091 38.9787 6.4294 38.6057 6.72113 38.4012C6.70308 38.5366 6.44444 38.7411 6.73917 38.5426C6.76323 38.4223 6.88354 38.299 7.0309 38.1937C7.18128 38.0945 7.3497 37.9982 7.44895 37.893C7.41887 37.8479 7.53316 37.7336 7.69857 37.5922C7.87602 37.4659 8.1076 37.3125 8.30008 37.1561C8.30008 37.1682 8.3482 37.1441 8.42639 37.099C8.5106 37.0599 8.6279 36.9997 8.75722 36.9366C8.88654 36.8704 9.0309 36.8012 9.16624 36.7321C9.3076 36.6779 9.44293 36.6268 9.5512 36.5877L9.54519 36.6088C9.56323 36.5396 9.68053 36.4614 9.8309 36.3802C9.9903 36.317 10.1798 36.2418 10.3392 36.1757C10.3482 36.2418 10.2971 36.287 10.1347 36.3772L10.4354 36.2719C10.4956 36.2088 10.5858 36.1697 10.7843 36.1035L10.7271 36.2027C10.9317 36.1486 11.1271 36.0614 11.3527 36.0133C11.464 35.9862 11.5783 35.9561 11.7016 35.9351C11.8249 35.92 11.9542 35.911 12.0895 35.908C12.1166 35.8298 11.6264 35.7426 12.2129 35.6283C12.2369 35.6704 12.264 35.7336 12.1136 35.7667C12.1617 35.7516 12.2911 35.7185 12.3933 35.7336L12.1647 35.8148C12.4174 35.8298 12.2911 35.7486 12.4926 35.7456C12.4926 35.8057 12.6429 35.7817 12.6159 35.8298C12.5647 35.8388 12.4414 35.8148 12.3662 35.8418C12.5918 35.8358 12.8625 35.8779 12.9467 35.923C12.9377 35.905 12.9377 35.887 12.9617 35.8689C12.9888 35.8539 13.0219 35.8418 13.1362 35.8448C13.6444 35.893 13.4339 35.9351 13.6595 35.9982C13.6745 35.9952 13.6775 35.9591 13.6896 35.923C13.6835 35.7366 13.8008 35.3456 13.7166 35.3306C13.7467 35.2103 13.7918 35.1952 13.8249 35.1561C13.8339 34.9336 14.0956 34.1606 13.9332 34.3712L13.9121 34.4253C13.9121 34.4253 13.9151 34.4012 13.9181 34.3892C14.0505 33.6614 14.4625 32.9697 14.7121 32.287L14.7392 32.299C14.7843 32.1667 14.8384 32.0283 14.8926 31.89C14.9587 31.7276 15.0279 31.5651 15.088 31.4178C14.9467 31.2794 14.8023 31.1531 14.7151 31.096C14.6249 31.0027 14.5467 30.8403 14.6099 30.8554C14.3783 30.6208 14.3151 30.6238 14.0505 30.2238C14.3001 30.4464 14.0114 30.1095 14.2971 30.4584C14.0414 30.1125 14.0144 30.0163 13.6715 29.6975C13.8279 29.7757 13.5512 29.3877 13.4189 29.2313C13.458 29.3245 13.5031 29.4148 13.5512 29.505C13.4008 29.3306 13.3016 29.1561 13.1903 28.9877L13.3347 29.0208C12.9497 28.2418 12.3211 27.7907 12.2008 27.102C12.0324 26.9276 12.3753 27.5441 12.2068 27.3997C12.0264 27.0388 11.9933 26.5907 11.9362 26.4794C11.7768 25.9531 11.5933 26.0674 11.4279 25.511C11.4219 25.5922 11.3557 25.6915 11.1723 25.2975C11.058 24.9065 11.1572 24.7772 11.2655 25.0088C11.2986 25.099 11.3016 25.1471 11.2895 25.1471C11.3407 25.2674 11.4189 25.4208 11.3978 25.2584L11.3467 25.2223C11.3196 25.0208 11.1422 24.4975 11.2384 24.6027C11.1211 24.323 11.1422 24.4975 11.1933 24.717C11.0911 24.2088 10.9617 23.9441 10.8745 23.4208C10.8745 23.508 10.8535 23.5922 10.8324 23.511C10.7001 22.7411 10.6941 23.1892 10.5677 22.6749C10.5677 22.3682 10.7091 22.7591 10.5798 22.2418C10.5647 21.917 10.661 22.1606 10.7121 22.2809C10.5587 21.8178 10.6369 21.3847 10.6129 21.111L10.67 21.3576C10.6369 21.2103 10.6189 21.087 10.6129 20.9606L10.5527 21.111C10.5527 20.9606 10.5437 20.8373 10.5738 20.8373C10.5166 20.687 10.4655 20.9636 10.3783 20.6629C10.3933 20.4614 10.3031 20.0554 10.3993 19.9832C10.3873 20.6118 10.4865 19.911 10.5286 20.4373C10.5076 20.3381 10.5076 20.2118 10.5136 20.0614C10.5226 20.0373 10.5347 20.0824 10.5407 20.1215C10.6129 19.5261 10.4114 19.8509 10.4234 19.2313C10.4745 19.3095 10.5256 19.09 10.5166 18.9877C10.5136 19.2373 10.4264 19.105 10.3873 18.8734C10.4474 18.4764 10.3783 18.4403 10.3963 18.2298L10.3632 18.4674C10.3181 18.3832 10.3241 18.1817 10.3392 17.905C10.3843 17.8839 10.3422 18.1606 10.3692 18.0614C10.3091 17.7426 10.5286 17.3757 10.5347 16.9426C10.5978 16.7501 10.6369 16.9396 10.685 16.7682C10.7001 16.2839 10.8414 16.2689 10.8956 15.7667C10.7933 15.893 10.8023 15.923 10.8174 15.5591C10.7662 15.8328 10.7271 16.1065 10.6971 16.3832C10.6971 16.2027 10.6911 16.0193 10.6971 15.8388C10.6399 16.0854 10.6399 16.3712 10.5978 16.5155C10.5888 16.2539 10.5978 16.2839 10.5196 16.3922C10.685 16.0704 10.5918 15.7035 10.7572 15.3306L10.9256 15.3847C11.1512 14.8313 11.1121 14.3351 11.4279 13.6223L11.3106 13.8448C11.2835 13.7245 11.467 13.3907 11.5392 13.1501C11.5843 13.1952 11.6655 13.0569 11.7437 12.9757C11.6956 12.9667 11.9753 12.4614 11.9061 12.3471L12.1286 12.0704C12.4505 11.5351 12.3181 11.3576 12.655 10.8524C12.6159 11.0418 12.7933 10.8313 12.6219 11.1982C12.7271 11.0268 12.8294 10.8794 12.7963 10.8554C12.8926 10.7802 13.0369 10.3471 13.1933 10.2298C13.2234 10.1456 13.1903 10.0885 13.3286 9.90801C13.3527 9.89598 13.3527 9.92605 13.3527 9.92605C13.3286 9.90801 13.5332 9.61628 13.3617 9.73658C13.6294 9.55011 13.8971 9.21026 14.1858 8.89447C14.3241 8.73207 14.4715 8.5847 14.6129 8.45537C14.7512 8.32304 14.8896 8.22079 15.0159 8.16064C15.1723 8.00725 15.3437 7.83582 15.5271 7.68545C15.7046 7.52605 15.885 7.38169 16.0474 7.2674C16.0384 7.29748 16.0625 7.29146 15.9993 7.33056C16.4745 7.05387 16.1768 6.99071 16.7392 6.69898C17.061 6.60876 16.4865 6.92154 16.673 6.84635C16.7602 6.9065 16.9136 6.79522 17.1061 6.67192C17.2956 6.54259 17.5211 6.3862 17.7377 6.35011L17.6535 6.40425C17.9662 6.32004 18.3241 5.99522 18.8234 5.82981C18.8234 5.82981 18.8053 5.85387 18.8294 5.85989C19.1271 5.63733 19.7768 5.40575 20.27 5.27643C20.1317 5.38771 20.0535 5.36665 20.1647 5.42079C20.3843 5.36064 20.0715 5.30951 20.5136 5.19522C20.667 5.21026 20.9978 5.19522 21.052 5.2674L20.6339 5.34259C20.8655 5.40876 21.1753 5.24334 21.4008 5.24635L21.3768 5.29748C21.6986 5.24936 21.858 5.20725 22.0294 5.17116C22.1978 5.13207 22.3753 5.08996 22.7271 5.10199L22.655 5.0659C23.0429 4.95161 22.9768 5.12906 23.3647 5.06891L23.473 5.19522C23.7256 5.17718 24.3692 5.17417 24.8234 5.24334C24.688 5.2644 24.4865 5.25838 24.279 5.25237C24.0715 5.25237 23.855 5.25838 23.6896 5.25838C23.8129 5.27342 24.0234 5.29748 24.2189 5.31252C24.4144 5.33056 24.5978 5.35161 24.667 5.33357C24.5647 5.32755 24.4354 5.33357 24.3422 5.29748C24.5016 5.27943 24.682 5.27643 24.8865 5.29146C25.0911 5.30951 25.3136 5.35763 25.5602 5.41477C25.488 5.51101 25.7978 5.61928 26.1587 5.73658C26.3362 5.80575 26.5286 5.87793 26.6941 5.95011C26.8565 6.0253 26.9888 6.11252 27.055 6.1847C27.8971 6.45237 28.6068 6.97868 29.4459 7.55613C29.2505 7.20124 29.6956 7.72154 29.7497 7.5441C29.9482 7.68244 30.0204 7.73958 30.0294 7.76064C30.2038 7.93507 30.3572 8.12755 30.5226 8.30801C30.6189 8.45838 30.3211 8.19372 30.3121 8.23883C30.7001 8.5847 30.4294 8.43733 30.6489 8.705C30.6399 8.60876 30.8474 8.75613 31.0429 8.98169C30.9647 8.86139 30.8775 8.75011 30.7963 8.63282C31.1001 8.84334 31.1813 8.9877 31.2655 9.12605C31.3497 9.2674 31.4339 9.40274 31.7136 9.64334L31.5151 9.51101C31.8038 9.75763 32.4174 10.5576 32.7452 10.7772C32.7692 10.8433 32.7813 10.9426 32.67 10.8193C33.1873 11.5501 33.9031 12.4253 34.1286 13.105L34.0565 13.0629C34.1407 13.2073 34.27 13.2854 34.3121 13.502C34.2911 13.502 34.2429 13.4599 34.273 13.5321C34.3211 13.6073 34.5347 13.908 34.5918 14.1276C34.5527 14.0734 34.5136 14.0223 34.4715 13.9712C34.6099 14.3922 34.7692 14.69 34.9076 14.9817C35.058 15.2704 35.1963 15.5441 35.3166 15.899C35.1963 15.9321 35.3286 16.6148 35.3828 16.9576L35.3617 16.9486C35.5662 17.9501 35.7828 18.6448 35.9031 19.5952C35.882 19.7456 35.87 19.9471 35.861 20.1757C35.858 20.4073 35.858 20.6689 35.8459 20.9396C35.8459 21.2133 35.8309 21.496 35.8068 21.7697C35.7918 22.0433 35.7497 22.308 35.7076 22.5396C35.7467 22.3982 35.8068 22.5727 35.8038 22.7441C35.7497 22.9606 35.8068 23.3697 35.6926 23.3155L35.7046 23.2373C35.5692 23.3877 35.5151 23.8388 35.4459 24.1877L35.5873 24.2779C35.3708 24.711 35.2474 25.3065 35.088 25.8448C35.0159 26.1155 34.9377 26.3712 34.8505 26.5817C34.7692 26.7952 34.679 26.9636 34.5798 27.0599C34.5286 27.2824 34.4174 27.5381 34.3512 27.7546L34.279 27.7065C34.1377 27.9832 34.0204 28.1847 33.8941 28.4042C33.7768 28.6268 33.6354 28.8554 33.4429 29.1892L33.473 29.0238C33.2414 29.3847 33.3828 29.6163 33.1542 29.9531L32.9798 29.9742C32.5317 30.5907 31.9512 31.093 31.4911 31.6885C31.488 31.6674 31.476 31.6253 31.5602 31.5351C31.4369 31.6644 31.1662 31.8749 30.9557 32.0644C30.7422 32.2479 30.5798 32.4012 30.685 32.4313C30.6098 32.3531 30.0685 32.9035 29.7407 33.1621L29.7497 33.0569C29.5181 33.3336 29.5271 33.3727 29.1151 33.6343C29.0099 33.6824 28.9948 33.6253 29.1392 33.5682C28.7873 33.7185 28.9136 33.7817 28.4775 33.9501L28.6099 33.8238C28.255 33.9952 28.2941 34.0012 28.1196 34.1456C27.9061 34.2839 27.4129 34.4042 27.3347 34.3501C27.3016 34.4133 27.1151 34.5456 26.8835 34.5847C26.8444 34.5667 26.9226 34.5245 26.9587 34.5035C26.7963 34.5366 26.658 34.5757 26.5377 34.6178C26.4144 34.6539 26.3031 34.69 26.1978 34.7261C25.9903 34.8012 25.8008 34.8554 25.5692 34.8494C25.5542 34.8223 25.5241 34.8163 25.485 34.8133C26.0023 34.7411 26.4053 34.6208 26.3723 34.6448C26.3512 34.5697 25.9452 34.6509 26.2429 34.4734C25.9362 34.6118 25.3918 34.8403 24.9768 34.8524C24.9557 34.8464 24.9377 34.8433 24.9196 34.8313L24.9617 34.8163C24.8685 34.8223 24.7843 34.8343 24.7061 34.8554C24.5768 34.8554 24.4926 34.8494 24.3662 34.8554C24.3151 34.7982 23.888 34.8433 23.6805 34.8373C23.6986 34.9245 23.4219 34.9065 23.6805 34.9787C23.6474 34.9727 23.7196 34.9697 23.861 34.9636C23.8911 34.9636 23.9302 34.9606 23.9512 34.9546C23.9482 34.9546 23.9422 34.9606 23.9362 34.9636C24.0745 34.9546 24.255 34.9516 24.4565 34.9336C24.2941 34.9877 24.1196 35.0328 23.885 34.9907C23.7768 35.0448 23.6565 35.105 23.5903 35.1291C23.2986 35.0148 22.7512 34.9095 22.682 34.8283C22.0414 34.8223 21.1963 34.6328 20.7662 34.6749C20.5978 34.6479 20.5377 34.5636 20.4444 34.5095C20.5196 34.5276 20.6008 34.5456 20.676 34.5606C20.7271 34.5697 20.7723 34.5787 20.8023 34.5757C20.7542 34.5667 20.7121 34.5606 20.6459 34.5456C20.5647 34.5245 20.4775 34.5035 20.3903 34.4794C20.3031 34.4554 20.2159 34.4313 20.1286 34.4073L19.9993 34.3712C19.9993 34.3712 19.9873 34.3682 19.9843 34.3682V34.3862L19.9723 34.4193L19.9542 34.4854C19.864 34.8373 19.8008 35.1321 19.8489 35.1621C19.6685 35.5982 19.8249 34.8794 19.6595 35.505L19.6505 35.4118C19.5332 35.6704 19.452 35.917 19.3918 36.1546C19.3587 36.299 19.3256 36.4433 19.2926 36.5817C19.2565 36.7561 19.2114 36.9276 19.1933 37.0779C19.4309 37.123 19.6535 37.1591 19.852 37.2103C20.0083 37.2433 20.1497 37.2794 20.3031 37.3276C20.6068 37.4238 20.9196 37.5682 21.2414 37.7877C21.1602 37.7366 21.1181 37.7095 21.1091 37.6854C21.8099 38.0584 22.5286 38.4464 23.1933 38.9125C23.861 39.3787 24.4565 39.9351 24.9016 40.5847C25.1662 40.9426 25.2444 40.9426 25.461 41.12L25.4489 41.2524L25.8159 41.5591C26.279 42.0464 26.3181 42.6118 26.9046 43.2253L26.8956 43.102C27.055 43.3576 27.452 43.8809 27.3647 43.8779C27.3918 43.899 27.473 43.926 27.5091 44.0433L27.473 44.0764L27.9332 44.6629C28.2008 45.1742 27.7286 44.6839 28.1467 45.4057C28.3211 45.6644 28.7061 46.1065 28.676 45.9892C28.6189 45.8779 28.5437 45.6945 28.5828 45.6644L28.7452 45.902C28.8926 45.8809 29.1302 46.0042 28.8625 45.3366L28.5407 44.9546L28.5166 44.7832L28.7332 45.1381C28.67 44.9005 28.5437 44.8012 28.4234 44.6779C28.4354 44.6238 28.4204 44.5516 28.3813 44.4614L28.0144 44.1185C28.0294 44.0403 28.2219 44.2448 28.0745 43.9531C27.9001 43.7937 28.0865 44.2027 27.852 43.905C27.7798 43.6734 27.858 43.7035 27.6655 43.499C27.6745 43.4479 27.7256 43.4839 27.7978 43.5682C27.6294 43.3817 27.4249 43.0298 27.2926 42.9666C27.2204 42.717 26.8053 42.29 26.9286 42.2358C26.8565 42.1907 26.5948 41.9381 26.4535 41.7606C26.8294 42.0012 25.9542 41.0719 26.1527 41.0599C25.855 40.9005 25.4159 40.2208 24.9768 39.8659C25.0068 39.8809 25.064 39.911 25.0941 39.9501C24.8865 39.7125 24.8565 39.6163 24.7362 39.4509C24.6189 39.511 24.258 39.1832 24.0053 39.0809C23.7858 38.7501 24.273 39.123 24.252 38.9636C24.2038 39.0479 23.6745 38.6088 23.7256 38.7561C23.5332 38.5276 23.5452 38.5787 23.482 38.4103C23.3557 38.4975 23.2474 38.2689 22.9918 38.2118C22.679 37.917 22.9768 38.0343 22.5557 37.8298C22.3873 37.6764 22.7723 37.8448 22.7723 37.8448L22.7933 37.8719ZM25.1753 35.3817C25.082 35.3967 25.0008 35.4088 24.9497 35.4148C24.9978 35.4088 25.061 35.3967 25.1723 35.3817H25.1753ZM26.0835 35.2283C25.9753 35.2554 25.8339 35.2704 25.6895 35.2975C25.6535 35.2734 25.6835 35.2373 25.7738 35.2253C25.7286 35.2494 25.9452 35.2373 26.0835 35.2283ZM24.1317 34.8794C24.27 34.8614 24.3151 34.8794 24.3362 34.8915C24.27 34.8975 24.1948 34.9035 24.0956 34.9125C24.0926 34.9125 24.0835 34.9215 24.0805 34.9245C24.0926 34.9065 24.1076 34.8915 24.1347 34.8794H24.1317Z" fill="#1B1B1B"/>
<path d="M23.8815 34.9933C23.8603 34.9933 23.8513 34.9993 23.8241 34.9993C23.8543 35.0053 23.8815 35.0114 23.9086 35.0174C23.9267 35.0083 23.9418 34.9993 23.9569 34.9902C23.9328 34.9902 23.9056 34.9902 23.8815 34.9902V34.9933Z" fill="#1B1B1B"/>
<path d="M13.9489 34.3813L13.9553 34.3623C13.9553 34.3623 13.9394 34.3908 13.9299 34.3972C13.9363 34.3845 13.9394 34.3877 13.9458 34.3782L13.9489 34.3813Z" fill="#1B1B1B"/>
<path d="M35.3701 27.2228L35.349 27.2168L35.334 27.2981L35.3701 27.2228Z" fill="#1B1B1B"/>
<path d="M9.95398 36.0466C9.95398 36.0466 9.92086 36.0406 9.88472 36.0466C9.89074 36.0496 9.91785 36.0466 9.95398 36.0466Z" fill="#1B1B1B"/>
<path d="M8.00565 37.0352L7.73425 37.1889C7.85487 37.1256 7.93931 37.0774 8.00565 37.0352Z" fill="#1B1B1B"/>
<path d="M6.66924 38.0615C6.66309 38.0892 6.66924 38.1015 6.66924 38.1138L6.66309 38.0615H6.66924Z" fill="#1B1B1B"/>
<path d="M9.83947 18.3211C9.83947 18.297 9.83947 18.2758 9.83947 18.2547C9.83042 18.1008 9.83343 18.2064 9.83947 18.3211Z" fill="#1B1B1B"/>
<path d="M11.2652 26.0474C11.22 25.975 11.1778 25.9026 11.1385 25.8242C11.1838 25.9569 11.22 26.0624 11.2652 26.0474Z" fill="#1B1B1B"/>
<path d="M12.6035 9.9432C12.6035 9.9432 12.6254 9.91505 12.6379 9.89941L12.6035 9.9432Z" fill="#1B1B1B"/>
<path d="M11.0098 25.4785C11.0429 25.6172 11.0882 25.7258 11.1394 25.8223C11.1032 25.7107 11.064 25.581 11.0098 25.4785Z" fill="#1B1B1B"/>
<path d="M5.91457 39.457L5.55066 39.8721C5.63788 39.8179 5.74916 39.7427 5.60479 39.9443C6.11006 39.46 5.45442 40.0104 5.91457 39.457Z" fill="#1B1B1B"/>
<path d="M7.09673 38.233C6.89168 38.4441 7.1299 38.2631 7.13292 38.2903C7.25354 38.1485 7.2837 38.1124 7.09673 38.233Z" fill="#1B1B1B"/>
<path d="M14.5612 30.75L14.6365 30.7199C14.4769 30.5572 14.6124 30.7379 14.5612 30.75Z" fill="#1B1B1B"/>
<path d="M12.7842 29.1113L12.8746 29.3284L12.9953 29.3767L12.7842 29.1113Z" fill="#1B1B1B"/>
<path d="M12.5285 27.6298L12.5858 27.7112C12.5135 27.6057 12.4531 27.4971 12.3838 27.3916L12.5285 27.6298Z" fill="#1B1B1B"/>
<path d="M14.7486 8.56693L14.634 8.54883C14.5374 8.66951 14.5918 8.76606 14.7486 8.56693Z" fill="#1B1B1B"/>
<path d="M22.6602 5.17059C22.7564 5.22172 23.003 5.24578 23.1594 5.2127C22.9609 5.19164 22.7624 5.16157 22.6602 5.17059Z" fill="#1B1B1B"/>
<path d="M35.3888 24.7053L35.3979 24.5244L35.3496 24.8591L35.3888 24.7053Z" fill="#1B1B1B"/>
<path d="M23.5807 21.7517C24.0922 21.7517 24.507 21.0784 24.507 20.2479C24.507 19.4174 24.0922 18.7441 23.5807 18.7441C23.0691 18.7441 22.6543 19.4174 22.6543 20.2479C22.6543 21.0784 23.0691 21.7517 23.5807 21.7517Z" fill="black"/>
<path d="M30.4499 21.7517C30.9615 21.7517 31.3762 21.0784 31.3762 20.2479C31.3762 19.4174 30.9615 18.7441 30.4499 18.7441C29.9383 18.7441 29.5236 19.4174 29.5236 20.2479C29.5236 21.0784 29.9383 21.7517 30.4499 21.7517Z" fill="black"/>
<path d="M22.2662 24.7595C23.3808 24.7595 24.2843 24.2209 24.2843 23.5565C24.2843 22.8921 23.3808 22.3535 22.2662 22.3535C21.1517 22.3535 20.2482 22.8921 20.2482 23.5565C20.2482 24.2209 21.1517 24.7595 22.2662 24.7595Z" fill="#F4BDCB"/>
<path d="M31.2893 24.7595C32.4038 24.7595 33.3073 24.2209 33.3073 23.5565C33.3073 22.8921 32.4038 22.3535 31.2893 22.3535C30.1748 22.3535 29.2713 22.8921 29.2713 23.5565C29.2713 24.2209 30.1748 24.7595 31.2893 24.7595Z" fill="#F4BDCB"/>
<path d="M27.0155 25.0603C26.2696 25.0603 25.6621 24.4528 25.6621 23.7069C25.6621 22.961 26.2696 22.3535 27.0155 22.3535C27.7614 22.3535 28.3689 22.961 28.3689 23.7069C28.3689 24.4528 27.7614 25.0603 27.0155 25.0603ZM27.0155 22.6543C26.435 22.6543 25.9629 23.1264 25.9629 23.7069C25.9629 24.2874 26.435 24.7595 27.0155 24.7595C27.5959 24.7595 28.0681 24.2874 28.0681 23.7069C28.0681 23.1264 27.5959 22.6543 27.0155 22.6543Z" fill="black"/>
<path d="M1.45107 49.5709C1.45107 49.5709 2.05257 43.5558 4.75934 40.5483C7.4661 37.5408 9.27061 35.4355 11.9774 35.4355C11.9774 35.4355 10.209 38.3348 15.8872 39.0446C20.6992 39.6461 20.0977 36.9393 20.0977 36.9393C21.1172 37.4566 23.9052 38.798 24.9097 39.9468C27.015 42.3528 28.8195 45.6611 28.8195 45.6611" fill="#3B27FF"/>
<path d="M25.2198 40.1514L25.2389 40.1894C25.2389 40.1894 25.2294 40.1641 25.2198 40.1514Z" fill="#1B1B1B"/>
<path d="M22.1614 37.8454C22.189 37.8576 22.2043 37.8576 22.2073 37.8515C22.1798 37.8423 22.1584 37.8362 22.1614 37.8454Z" fill="#1B1B1B"/>
<path d="M21.6232 37.4629C21.6232 37.4629 21.6454 37.4787 21.6581 37.4883C21.6485 37.4756 21.6359 37.4629 21.6232 37.4629Z" fill="#1B1B1B"/>
<path d="M25.2199 40.152L25.1717 40.0586C25.1476 40.0676 25.1927 40.1098 25.2199 40.152Z" fill="#1B1B1B"/>
<path d="M25.7607 40.6974C25.7607 40.6974 25.7703 40.6814 25.7703 40.6719C25.7639 40.6783 25.7607 40.6846 25.7607 40.6974Z" fill="#1B1B1B"/>
<path d="M20.453 36.7725C20.453 36.7725 20.4595 36.7757 20.4627 36.7789C20.5178 36.7984 20.4886 36.7854 20.453 36.7725Z" fill="#1B1B1B"/>
<path d="M12.0109 36.7043C11.9807 36.822 11.8962 36.5414 11.8751 36.7164C11.8962 36.6983 12.0079 36.8431 12.0109 36.7043Z" fill="#1B1B1B"/>
<path d="M18.9014 38.5674C18.9014 38.5674 18.9236 38.5801 18.9363 38.5801C18.9331 38.5737 18.9236 38.5706 18.9014 38.5674Z" fill="#1B1B1B"/>
<path d="M17.9657 38.9009C17.9386 38.9009 17.9296 38.8919 17.8934 38.9009C17.8964 38.9009 17.8995 38.907 17.9055 38.907C17.9175 38.8979 17.9356 38.8919 17.9657 38.8979V38.9009Z" fill="#1B1B1B"/>
<path d="M16.8887 38.9404C16.8887 38.9404 16.9009 38.9496 16.907 38.9526C16.9192 38.9526 16.9313 38.9526 16.9405 38.9496L16.8857 38.9404H16.8887Z" fill="#1B1B1B"/>
<path d="M17.98 39.3994L17.7939 39.4054C17.845 39.4054 17.914 39.4054 17.98 39.3994Z" fill="#1B1B1B"/>
<path d="M7.00364 38.4854L6.98145 38.5202C6.98145 38.5202 7.00364 38.498 7.00364 38.4854Z" fill="#1B1B1B"/>
<path d="M17.2534 39.4446C17.2202 39.4205 17.1871 39.4084 17.151 39.3994C17.1419 39.4054 17.1359 39.4085 17.1299 39.4145L17.2534 39.4416V39.4446Z" fill="#1B1B1B"/>
<path d="M2.49164 46.0884C2.53675 45.929 2.4345 45.9921 2.3954 45.947C2.42547 45.7515 2.47961 45.8748 2.53675 45.8207C2.54878 45.6974 2.49765 45.5831 2.52773 45.4959C2.54277 45.4959 2.55179 45.4779 2.56382 45.5019C2.53976 45.3576 2.6781 45.132 2.64201 44.9606C2.65104 44.9515 2.66006 44.9485 2.66908 44.9485C2.62096 44.9606 2.58186 44.9485 2.5548 44.9365C2.57585 44.8643 2.54577 44.7891 2.60592 44.7771C2.59089 44.8192 2.60893 44.8312 2.62096 44.8553V44.7741C2.7172 44.732 2.61495 44.8854 2.67209 44.9034C2.69013 44.75 2.69615 44.5636 2.75329 44.4613C2.8345 44.4613 2.68412 44.726 2.80141 44.6027L2.71419 44.7621C2.87359 44.6718 2.66908 44.8613 2.8345 44.7861C2.93374 44.5726 2.88562 44.5245 2.98788 44.3109C2.96683 44.2478 2.92171 44.3049 2.90066 44.2418C2.94277 43.8959 3.17435 44.0643 3.17134 43.7997C3.14728 43.7215 3.06908 43.6613 3.18337 43.52L3.24051 43.6102C3.33675 43.4027 3.17134 43.4388 3.32472 43.2433C3.33675 43.2944 3.27961 43.4177 3.30066 43.3906C3.42397 43.2764 3.30066 43.2703 3.35179 43.1621L3.43299 43.1711C3.52923 42.9515 3.58337 42.6779 3.70367 42.4373C3.7157 42.4613 3.7157 42.5124 3.76683 42.4673C3.83299 42.3109 3.92322 42.1545 4.01946 42.0072C4.11871 41.8568 4.24201 41.7305 4.34728 41.6072L4.35931 41.4688C4.37735 41.4448 4.41344 41.4418 4.40743 41.4748C4.49765 41.3846 4.37735 41.4448 4.38938 41.3786C4.42547 41.3154 4.47359 41.3215 4.46457 41.3726C4.54577 41.1621 4.76232 40.8042 4.96382 40.6688L4.94577 40.717C5.09013 40.5967 4.98487 40.4703 5.14728 40.3801L5.13224 40.4132C5.42698 40.1305 5.68262 39.7545 5.96232 39.5951C5.93224 39.4869 6.26608 39.3275 6.18487 39.2192C6.38938 39.0929 6.36232 39.1561 6.61796 38.9515C6.68111 38.8914 6.64502 38.8012 6.70818 38.7109L6.75931 38.7561L6.80743 38.5997H6.92171L6.97886 38.5185C6.94878 38.5455 6.89765 38.5576 6.88562 38.5395C6.97284 38.4042 7.18638 38.2989 7.21645 38.323C7.28863 38.2207 7.36382 38.1215 7.43901 38.0222C7.45405 38.0493 7.41495 38.0974 7.3939 38.1455C7.48412 37.9561 7.47209 38.1726 7.55329 38.0012C7.52623 38.0072 7.53525 37.9621 7.52623 37.95C7.61946 37.917 7.76683 37.7756 7.86608 37.6613L7.87811 37.7155C8.08562 37.538 8.29014 37.3155 8.52472 37.123C8.42848 37.1771 8.39239 37.0959 8.45856 37.0327L8.53074 37.0658C8.54878 36.9936 8.44051 37.1019 8.49765 36.9846C8.5939 36.9215 8.60893 37.0057 8.57284 37.0628L8.66608 36.9606C8.68713 36.9726 8.66608 37.0027 8.67811 37.0297C8.69615 36.9606 8.90968 36.9455 8.92773 36.8342L8.94577 36.8463C9.19239 36.6809 9.28863 36.5756 9.49615 36.4553C9.46908 36.3982 9.55931 36.3651 9.5954 36.2839C9.76081 36.2057 9.96532 36.1786 10.1548 36.0794C10.2811 35.9951 10.1759 36.0132 10.224 35.953C10.2571 36.0042 10.4555 35.926 10.3653 36.0012C10.6029 35.9079 10.6691 35.8809 10.9728 35.7606C10.9337 35.7455 10.8916 35.7455 10.9067 35.7215C10.9638 35.6974 11.042 35.7094 11.042 35.7425L11.027 35.7515C11.0992 35.7215 11.1834 35.7064 11.2706 35.7004C11.3127 35.6974 11.3608 35.6944 11.3969 35.6944C11.421 35.6944 11.439 35.7004 11.451 35.7094C11.5052 35.7425 11.5052 35.7696 11.5172 35.7756C11.5172 35.7816 11.5262 35.7816 11.5443 35.7816H11.5383C11.5533 35.7906 11.5653 35.8207 11.5743 35.8658C11.5743 35.8568 11.5683 35.8779 11.5653 35.8839C11.5623 35.8929 11.5593 35.8959 11.5563 35.8929C11.5503 35.8929 11.5473 35.8779 11.5443 35.8598C11.5322 35.8508 11.5142 35.8538 11.4992 35.8418C11.4992 36.2297 11.3969 36.4523 11.5022 36.7681C11.4751 36.8342 11.4721 36.9275 11.4901 37.0297C11.5082 37.132 11.5683 37.2342 11.6195 37.3425C11.6646 37.4538 11.7548 37.538 11.8119 37.6342C11.8751 37.7275 11.9262 37.8177 11.9713 37.8899L11.9864 37.8478C12.0766 37.8809 12.0435 37.935 12.0826 37.9861C12.0977 37.9561 12.0405 37.8959 12.0946 37.917C12.633 38.3771 13.2555 38.7621 13.9052 39.0117C14.1428 39.0959 14.1007 38.8493 14.3774 39.0207L14.2721 39.0718C14.7774 39.123 15.2736 39.2854 15.7638 39.2854C15.7337 39.2974 15.7307 39.3185 15.6826 39.3124C15.7759 39.3876 16.0616 39.3606 16.0676 39.3155C16.1428 39.3275 16.0796 39.3576 16.1247 39.3846C16.224 39.4267 16.3894 39.3395 16.4405 39.3967C16.4495 39.4057 16.4104 39.4117 16.3924 39.4147C16.4616 39.3936 16.7052 39.4508 16.645 39.3816C16.8255 39.4237 16.9969 39.3606 17.1443 39.3997C17.2405 39.3305 17.4601 39.4388 17.4871 39.3335C17.4781 39.4358 17.821 39.3876 17.9322 39.3305C17.8962 39.3636 18.0375 39.3545 17.9984 39.3997C18.1337 39.3936 18.254 39.3365 18.221 39.2914C18.3563 39.3275 18.4766 39.2764 18.5819 39.2342C18.6871 39.1921 18.7743 39.135 18.8706 39.1861C19.2525 39.0117 19.5774 38.7621 19.821 38.4673C19.851 38.5034 19.7909 38.5997 19.7067 38.6598C19.6285 38.726 19.5503 38.7891 19.5894 38.8282C19.6586 38.7621 19.7157 38.6989 19.7668 38.6418C19.8149 38.5756 19.851 38.5094 19.8931 38.4493C19.9774 38.329 20.0345 38.1936 20.1337 38.0433C20.1819 37.9621 20.1578 38.1154 20.1488 38.1485C20.218 37.9711 20.2811 37.8027 20.3202 37.6312C20.3322 37.5952 20.3352 37.535 20.3413 37.5139V37.4718C20.3413 37.4448 20.3352 37.4147 20.3202 37.3696C20.3292 37.3816 20.3383 37.4027 20.3473 37.4207C20.3443 37.3967 20.3593 37.3967 20.3142 37.3395L20.3262 37.3756C20.2901 37.3576 20.254 37.2794 20.2119 37.1711C20.1999 37.138 20.1759 37.0809 20.1759 37.0688C20.1819 37.0598 20.1849 37.0508 20.1819 37.0418C20.242 37.2222 20.3804 37.1801 20.3954 37.3726C20.4014 37.3666 20.4074 37.3455 20.3954 37.3034C20.4255 37.3275 20.4285 37.3515 20.4225 37.3876C20.4766 37.3876 20.4586 37.3245 20.5458 37.3696C20.5307 37.3876 20.5157 37.3876 20.5007 37.4117C20.5127 37.3936 20.5759 37.3997 20.63 37.4117C20.6841 37.4237 20.7443 37.4478 20.8104 37.4899C20.7954 37.4989 20.8044 37.523 20.7623 37.4989C21.0059 37.6162 21.2225 37.6042 21.4661 37.7786C21.3428 37.8237 21.5383 37.8538 21.5142 37.935L21.6646 37.9861L21.6285 37.92C21.7518 37.9861 21.8871 37.9921 21.9774 38.0733L21.8691 38.0553L22.1037 38.1666L21.9894 38.0673C22.1337 38.0974 22.0285 37.9651 22.1789 38.0764C22.1428 38.0643 22.2992 38.1455 22.3383 38.2237C22.4104 38.2327 22.4886 38.2448 22.5668 38.3139C22.5759 38.35 22.5007 38.3831 22.5067 38.4072C22.5999 38.3801 22.7984 38.5515 22.9067 38.5335C22.8736 38.5335 22.8495 38.5696 22.8525 38.5846L22.9307 38.5666C22.9759 38.6147 22.9789 38.6267 22.9518 38.6538C23.1112 38.7621 22.9548 38.5305 23.1262 38.6899C23.1082 38.6839 23.1112 38.6959 23.0751 38.6839C23.2556 38.8252 23.4721 38.8884 23.6285 39.0327C23.6315 39.138 23.4661 38.9455 23.4841 39.0448C23.7398 39.2012 24.0616 39.3155 24.2721 39.52L24.236 39.4779C24.3443 39.4117 24.3683 39.6583 24.5127 39.7154C24.4796 39.6974 24.4345 39.7335 24.4495 39.7305C24.5849 39.8748 24.7563 39.9771 24.9849 40.1936L24.9368 40.1846C24.9939 40.2929 25.1292 40.4342 25.1984 40.5425C25.2465 40.5515 25.2886 40.6147 25.2946 40.5515C25.4089 40.9666 25.839 41.0869 25.9383 41.4568C25.9112 41.4237 25.8571 41.3936 25.8751 41.4207L26.0766 41.6463C26.1037 41.5951 26.0766 41.5951 26.0766 41.52C26.1247 41.532 26.1939 41.5861 26.239 41.6463C26.1307 41.556 26.1728 41.6974 26.1819 41.7606C26.1879 41.7425 26.215 41.7485 26.224 41.7365C26.242 41.917 26.3262 41.6944 26.4014 41.9079L26.3713 41.9139C26.4285 41.9711 26.5007 42.0102 26.5458 42.0854C26.5187 42.1485 26.4736 42.0312 26.4285 42.0553C26.5007 42.1515 26.6601 42.1846 26.6751 42.3109C26.63 42.2779 26.5879 42.2177 26.5458 42.1846C26.5578 42.323 26.5789 42.323 26.621 42.4042V42.3951L26.7082 42.5816L26.6931 42.5275C26.9067 42.5636 26.8916 42.7651 27.0901 42.8794C26.8977 42.7681 27.024 42.8824 26.9608 42.9094C26.9728 42.9636 26.9999 43.0418 26.9728 43.0327C27.0721 43.0839 27.024 43.1921 27.1683 43.2613C27.1533 43.2794 27.2225 43.3485 27.1653 43.3606C27.2495 43.4568 27.1804 43.3154 27.2104 43.3094C27.3789 43.4327 27.3819 43.7395 27.6165 43.923C27.7789 44.1034 27.8661 44.1034 28.0165 44.2748C28.0255 44.3591 27.9172 44.2628 27.9172 44.2628C27.9533 44.3831 28.0044 44.4583 28.0856 44.5425C28.0586 44.5335 28.0556 44.5606 28.0525 44.6057C28.1037 44.6809 28.1518 44.6177 28.1879 44.738C28.1548 44.732 28.1097 44.729 28.0646 44.7049C28.1368 44.7861 28.227 44.8583 28.3022 44.9455C28.2841 44.9906 28.218 44.9154 28.1759 44.8944C28.254 44.9936 28.3713 45.1591 28.4435 45.1621L28.4225 45.0809C28.4495 45.12 28.3894 45.129 28.3623 45.1049C28.2661 45.0357 28.3022 44.9606 28.3172 44.9425L28.3713 45.0057C28.4405 44.8703 28.1909 44.738 28.1127 44.5967L28.227 44.6057L28.0766 44.5034C28.0766 44.4613 28.1127 44.4132 28.1638 44.4733C28.1428 44.35 28.0826 44.4042 28.0736 44.2929C28.0736 44.2779 28.0826 44.2809 28.0886 44.2869L28.0044 44.2057C28.0315 44.2147 28.0525 44.1546 28.0766 44.2207C28.0165 44.0192 27.845 43.9801 27.8631 43.8779L27.8781 43.8899C27.7007 43.6673 27.8059 43.9019 27.6255 43.7666L27.6916 43.5561L27.6195 43.5711C27.6074 43.544 27.5804 43.4929 27.6074 43.4869C27.5082 43.4207 27.5924 43.52 27.5202 43.4869C27.4992 43.3335 27.2856 43.1801 27.3608 43.0929C27.2886 43.0809 27.3999 43.2252 27.2886 43.123C27.3638 43.0237 27.1774 42.9906 27.1503 42.8523C27.2225 42.8523 27.2616 42.9696 27.2375 42.8342C27.1112 42.8252 27.1172 42.6147 27.039 42.5365C26.9668 42.5786 26.8796 42.3621 26.7533 42.2297C26.7834 42.2237 26.5939 41.926 26.5217 41.7696H26.5368C26.4495 41.7876 26.3593 41.6373 26.2721 41.547C26.3142 41.523 26.3443 41.529 26.4014 41.5711L26.3292 41.4748C26.2901 41.4688 26.2571 41.4448 26.2059 41.3906L26.2721 41.3786C26.1759 41.2523 26.0225 41.1681 25.9322 40.9786C25.8811 41.0057 25.9022 41.2042 25.7428 41.0568C25.7638 41.0327 25.7999 40.9936 25.845 41.0297C25.83 41.0177 25.7849 40.9936 25.7728 40.9545L25.8661 40.9906C25.827 40.9034 25.8029 40.9786 25.7608 40.9185C25.7969 40.8914 25.7518 40.8553 25.7879 40.8433C25.8029 40.8553 25.8119 40.9064 25.845 40.9185C25.7999 40.8463 25.7578 40.75 25.7638 40.7049C25.7488 40.726 25.7157 40.741 25.6736 40.6989C25.5713 40.5786 25.6826 40.6237 25.6405 40.5365C25.5924 40.5245 25.5533 40.4252 25.4992 40.4673C25.4691 40.4312 25.4901 40.4042 25.4931 40.3801C25.421 40.332 25.2375 40.0914 25.2465 40.2057L25.2556 40.2237L25.2435 40.2147C25.1322 40.1335 25.048 40.0222 24.9698 39.9049C24.8796 39.7967 24.8014 39.6703 24.6871 39.5951L24.7022 39.5801C24.5668 39.4869 24.4195 39.3545 24.2992 39.3215C24.2631 39.2914 24.236 39.2192 24.2691 39.2102C24.1608 39.15 24.1337 39.1621 24.0134 39.0267C24.1368 39.0688 23.9984 38.9726 24.1337 39.0779C24.0165 38.9666 24.0074 38.9154 23.83 38.8703C23.9112 38.8553 23.7698 38.744 23.6977 38.7139L23.7668 38.8102C23.6916 38.7681 23.6345 38.723 23.5713 38.6779L23.6465 38.6358C23.421 38.3801 23.0661 38.4523 22.9337 38.1967C22.8345 38.1967 23.0661 38.32 22.9698 38.332C22.8465 38.2478 22.7653 38.0764 22.7262 38.0523C22.5698 37.9139 22.5067 38.0523 22.3322 37.923C22.3443 37.9591 22.3322 38.0342 22.1789 37.9801C22.0525 37.8989 22.0736 37.7936 22.1668 37.8207C22.1999 37.8358 22.2089 37.8508 22.2059 37.8598C22.254 37.8748 22.3142 37.8959 22.2751 37.8418L22.245 37.8568C22.1939 37.7967 22.0104 37.7004 22.0736 37.6854C21.9623 37.6523 22.0104 37.7004 22.0766 37.7545C21.9262 37.6282 21.8149 37.6102 21.6525 37.4959C21.6736 37.523 21.6826 37.5651 21.6556 37.55C21.4149 37.3846 21.5202 37.535 21.3398 37.4568C21.2586 37.3696 21.421 37.3876 21.2285 37.3275C21.1353 37.2493 21.2375 37.2523 21.2916 37.2553C21.1082 37.2192 21.0089 37.0718 20.9217 37.0177L21.015 37.0418C20.9578 37.0267 20.9187 37.0057 20.8766 36.9846L20.9007 37.0568C20.8556 37.0237 20.8134 37.0027 20.8255 36.9816C20.7593 36.9876 20.8255 37.0809 20.7022 37.0718C20.615 36.9967 20.4165 36.9606 20.3743 36.8613C20.5368 36.9545 20.5277 36.9335 20.5157 36.9004C20.5037 36.8703 20.4766 36.8252 20.636 36.9004C20.5728 36.8794 20.5037 36.8433 20.4134 36.7861C20.3984 36.7711 20.4255 36.7741 20.4495 36.7861C20.0676 36.5215 20.2962 36.7982 19.9683 36.6297C19.9743 36.6087 19.9383 36.5726 19.8931 36.5335C19.848 36.4974 19.7849 36.4553 19.7789 36.4613C19.83 36.4794 19.8811 36.5305 19.8751 36.5485C19.8781 36.5636 19.8661 36.5666 19.8631 36.5816C19.8631 36.5997 19.8601 36.6147 19.848 36.6297C19.842 36.6297 19.836 36.6237 19.833 36.6237C19.839 36.8433 19.9112 36.9606 19.9172 37.0748C19.9172 37.0297 19.9172 36.9846 19.9172 36.9395C19.9743 37.0478 19.9743 37.15 19.9954 37.3094C19.9653 37.3094 19.9623 37.153 19.9533 37.2012C20.0014 37.3185 19.9713 37.3906 19.9383 37.4779C19.9142 37.538 19.8661 37.5951 19.8721 37.6703C19.83 37.7245 19.7999 37.6553 19.7668 37.7004C19.7518 37.8568 19.6646 37.8297 19.6165 37.9741C19.6856 37.9651 19.6796 37.947 19.6646 38.0764C19.6977 37.9891 19.7458 37.917 19.7608 37.8267C19.7668 37.8899 19.7608 37.953 19.7488 38.0162C19.7999 37.947 19.7999 37.8448 19.827 37.8027C19.836 37.8959 19.827 37.8869 19.8811 37.8658C19.7698 37.941 19.8089 38.0974 19.6886 38.1816L19.5864 38.0974C19.4962 38.1455 19.4631 38.2237 19.4059 38.2989C19.3428 38.3651 19.2856 38.4613 19.1593 38.5094C19.1864 38.5004 19.2195 38.5004 19.2435 38.4854C19.2435 38.5515 19.1022 38.5696 19.039 38.6297C19.027 38.5876 18.9728 38.5967 18.9277 38.5876C18.9488 38.6237 18.7473 38.6538 18.7563 38.744L18.624 38.729C18.4165 38.7801 18.4134 38.9094 18.1969 38.9455C18.251 38.8854 18.1518 38.8733 18.2841 38.8102C18.2149 38.8252 18.1518 38.8282 18.1548 38.8583C18.1127 38.8433 17.9683 38.9545 17.8962 38.9124C17.8691 38.9335 17.8631 38.9816 17.7819 38.9846C17.7728 38.9756 17.7819 38.9636 17.7819 38.9636C17.7819 38.9846 17.6556 39.0057 17.7337 39.0478C17.5022 38.9425 17.1022 39.0779 16.9067 38.9576C16.7473 38.9786 16.5548 38.9696 16.4074 38.9576C16.4165 38.9455 16.4074 38.9365 16.4375 38.9425C16.242 38.8824 16.3022 39.0598 16.0796 38.9936C15.9713 38.9124 16.2059 38.9666 16.1337 38.9335C16.1187 38.7861 15.8571 38.9335 15.7157 38.8162H15.7548C15.6465 38.747 15.4661 38.8222 15.2766 38.7831C15.2766 38.7831 15.2886 38.7711 15.2826 38.7621C15.1413 38.8162 14.8886 38.8042 14.7052 38.7741C14.7743 38.732 14.7924 38.7651 14.7713 38.6989C14.6901 38.6869 14.7743 38.7951 14.6089 38.7711C14.5638 38.729 14.4556 38.6718 14.4556 38.6087L14.6059 38.6418C14.5488 38.5455 14.4104 38.5967 14.3352 38.5636L14.3533 38.5335C14.1187 38.4914 14.0946 38.5696 13.854 38.4794L13.8691 38.5124C13.7067 38.5485 13.7759 38.4282 13.6225 38.4403L13.6165 38.344C13.5202 38.344 13.2916 38.2989 13.1322 38.2388C13.2495 38.2177 13.427 38.2839 13.5533 38.2839C13.4661 38.2568 13.2796 38.1606 13.2165 38.1816C13.2525 38.1906 13.3037 38.1906 13.3277 38.2177C13.2014 38.2297 13.048 38.1997 12.8916 38.1124C12.9488 38.0463 12.8616 37.9711 12.7533 37.8899C12.6992 37.8508 12.642 37.8057 12.5969 37.7636C12.5548 37.7185 12.5307 37.6643 12.5307 37.6192C12.4676 37.5801 12.4104 37.532 12.3563 37.4809C12.2992 37.4297 12.2721 37.3606 12.233 37.2974C12.1458 37.1741 12.1157 37.0237 12.0495 36.8764C11.9533 37.0297 12.0225 36.7861 11.8962 36.8403C11.8691 36.7621 11.8631 36.729 11.8721 36.723C11.8721 36.6388 11.9112 36.5515 11.9292 36.4733C11.9653 36.4162 11.9653 36.5455 11.9954 36.5365C11.9984 36.3711 12.0435 36.4673 12.0856 36.3621C12.0345 36.3831 12.0225 36.3019 12.0465 36.2117L11.9713 36.338C11.9473 36.2177 11.9774 36.1666 12.0195 36.1215C12.0405 36.1004 12.0586 36.0764 12.0706 36.0463C12.0736 36.0373 12.0766 36.0312 12.0796 36.0192C12.0856 36.0012 12.0796 36.0192 12.0916 35.9681C12.1097 35.917 12.1277 35.8658 12.1428 35.8027L12.1217 35.9651C12.1488 35.8779 12.2029 35.7455 12.2601 35.5982C12.3383 35.4418 12.4315 35.2613 12.4946 35.126C12.4495 35.129 12.4255 35.129 12.3894 35.135C12.3473 35.141 12.3052 35.15 12.2661 35.1561C12.1879 35.1711 12.1187 35.1891 12.0586 35.2132C12.0375 35.1982 12.0134 35.1621 12.1337 35.147C11.9894 35.147 11.824 35.1621 11.6646 35.1801C11.5082 35.1921 11.3307 35.2282 11.2646 35.2523C11.0811 35.3004 10.9127 35.3425 10.7743 35.3515L10.7924 35.3124C10.7292 35.3395 10.6962 35.4027 10.6089 35.3906C10.6089 35.3756 10.627 35.3515 10.5969 35.3576C10.5638 35.3756 10.4435 35.4568 10.3563 35.4718L10.4134 35.4117C10.245 35.4478 10.1247 35.517 10.0195 35.5861C9.9172 35.6643 9.82999 35.7515 9.70668 35.8207C9.68562 35.7756 9.61044 35.7726 9.52322 35.7906C9.43901 35.8117 9.34578 35.8508 9.28262 35.8779V35.8628C9.09916 35.953 8.96683 36.0613 8.84653 36.1786C8.72322 36.2899 8.61194 36.4072 8.48262 36.5365C8.23299 36.5816 7.85705 36.9726 7.5563 37.1711C7.61044 37.147 7.60141 37.2342 7.56232 37.2854C7.48713 37.3275 7.43901 37.4929 7.38487 37.4177L7.40893 37.3997C7.30066 37.3756 7.1954 37.517 7.09615 37.6072L7.16232 37.7064C6.78638 37.8267 6.56382 38.4042 6.32021 38.4342C6.28412 38.5155 6.21194 38.5906 6.17585 38.6718L6.13074 38.6237C5.95931 38.7831 5.8751 38.8643 5.69164 39.0869L5.69765 39.0117C5.58337 39.129 5.69765 39.2884 5.59841 39.3997L5.49916 39.3696C5.30968 39.5801 5.05705 39.7365 4.93374 40.0012C4.92773 39.9891 4.91269 39.9651 4.93976 39.926C4.84953 40.0222 4.54878 40.2658 4.6781 40.317C4.61194 40.2568 4.47961 40.5365 4.41044 40.6839L4.37735 40.6237C4.3563 40.7771 4.37134 40.7951 4.27209 40.9515C4.23901 40.9816 4.20893 40.9515 4.25705 40.9155C4.14277 41.0117 4.22698 41.0357 4.10367 41.1621V41.0839C4.01946 41.2042 4.04352 41.2072 4.0375 41.3034C4.00743 41.3936 3.86908 41.529 3.80893 41.517C3.82698 41.553 3.82096 41.6463 3.7578 41.7094C3.73374 41.7094 3.73976 41.6733 3.74277 41.6583C3.57435 41.8478 3.62247 42.0162 3.48412 42.1305C3.46307 42.1245 3.45104 42.1305 3.436 42.1365C3.53224 41.9651 3.61344 41.8267 3.61044 41.8448C3.55931 41.8147 3.47209 41.95 3.46607 41.7967C3.43901 41.932 3.41495 42.1696 3.3157 42.2929C3.30668 42.2959 3.29765 42.3019 3.28863 42.3019V42.2839C3.26758 42.3139 3.25856 42.344 3.24953 42.3741C3.21645 42.4132 3.19841 42.4403 3.17735 42.4824C3.12622 42.4764 3.0751 42.6357 3.03901 42.7079C3.09916 42.729 3.04502 42.8192 3.13525 42.753C3.12623 42.7621 3.13525 42.735 3.1563 42.6869C3.15931 42.6748 3.16532 42.6628 3.16532 42.6538V42.6598C3.18938 42.6117 3.21645 42.5515 3.24953 42.4794C3.24953 42.5515 3.24953 42.6207 3.17735 42.6839C3.1954 42.738 3.21344 42.7982 3.22247 42.8282C3.09615 42.8854 2.96382 43.0568 2.90066 43.0598C2.83149 43.2944 2.70216 43.5982 2.75329 43.7786C2.74126 43.8478 2.69013 43.8388 2.66307 43.8568C2.66607 43.8147 2.68713 43.7726 2.6781 43.7455C2.65104 43.8809 2.54577 44.1305 2.61194 44.1876C2.51871 44.338 2.57284 44.0703 2.50668 44.2989L2.49465 44.2598C2.20592 44.6568 2.45254 45.0418 2.13675 45.4839C2.1578 45.4538 2.16683 45.4358 2.18186 45.4327C1.94728 45.9801 1.92923 46.6177 1.69465 47.1561C1.6375 47.3124 1.68562 47.3395 1.70367 47.4478L1.62848 47.4688L1.67359 47.6523C1.68562 47.9019 1.42698 48.0342 1.48412 48.3591L1.53525 48.329C1.50818 48.4373 1.50216 48.6779 1.45404 48.6538C1.46006 48.6658 1.49615 48.6959 1.46607 48.735H1.42998L1.45104 49.0117C1.3969 49.2162 1.3157 48.9576 1.26758 49.2643C1.26758 49.3816 1.33074 49.6042 1.36081 49.5621C1.36683 49.5139 1.3969 49.4478 1.43299 49.4478L1.43901 49.553C1.54126 49.5831 1.6375 49.6703 1.73976 49.4327L1.69765 49.2493L1.7548 49.2012L1.73675 49.3485C1.7969 49.2703 1.76081 49.2132 1.73976 49.15C1.76983 49.141 1.79089 49.117 1.80592 49.0839L1.73074 48.8974C1.77585 48.8824 1.79991 48.9846 1.83901 48.8733C1.80592 48.7861 1.73675 48.9365 1.72472 48.7982C1.78487 48.723 1.81795 48.753 1.79389 48.6478C1.82397 48.6388 1.836 48.6628 1.84201 48.7019C1.82096 48.6087 1.86607 48.4703 1.81795 48.4162C1.89013 48.338 1.85404 48.1185 1.95028 48.1455C1.93224 48.1154 1.90216 47.9801 1.91419 47.8989C2.00442 48.0673 1.97735 47.6012 2.09765 47.6643C2.01044 47.535 2.13374 47.2673 2.1157 47.0658C2.12171 47.0779 2.13374 47.1019 2.12472 47.117C2.1578 47.0117 2.19389 46.9876 2.22998 46.9245C2.14878 46.8914 2.16683 46.72 2.13675 46.6177C2.25104 46.5064 2.21795 46.72 2.30818 46.6989C2.236 46.6899 2.29314 46.4553 2.22397 46.4854C2.29916 46.3982 2.26908 46.4072 2.35329 46.3741C2.25104 46.329 2.35329 46.2779 2.31419 46.1786C2.40743 46.0493 2.42547 46.1696 2.4345 46.0042C2.48863 45.938 2.48863 46.0884 2.48863 46.0884H2.49164ZM3.68262 42.4312C3.66758 42.4613 3.65555 42.4854 3.64653 42.5034C3.65254 42.4884 3.66457 42.4673 3.68262 42.4312ZM3.83901 42.1485C3.81795 42.1816 3.79389 42.2237 3.76683 42.2688C3.74277 42.2688 3.72773 42.2478 3.74577 42.2177C3.74878 42.2418 3.7969 42.1786 3.83901 42.1455V42.1485ZM3.12322 42.5545C3.13826 42.5034 3.1563 42.4914 3.17134 42.4914C3.16232 42.5155 3.15329 42.5425 3.13826 42.5786V42.5876C3.13826 42.5876 3.12623 42.5666 3.12322 42.5545Z" fill="#1B1B1B"/>
<path d="M6.77657 38.7695L6.76362 38.7598L6.75391 38.7921L6.77657 38.7695Z" fill="#1B1B1B"/>
<path d="M20.3477 37.4209C20.3477 37.4209 20.3477 37.4273 20.3477 37.4305C20.3604 37.4592 20.3541 37.4432 20.3477 37.4209Z" fill="#1B1B1B"/>
<path d="M22.3414 38.2212C22.3083 38.2152 22.2782 38.2122 22.248 38.2031C22.2902 38.2332 22.3233 38.2513 22.3414 38.2212Z" fill="#1B1B1B"/>
<path d="M22.1338 38.1367C22.1729 38.1729 22.2091 38.1909 22.2482 38.203C22.2151 38.1789 22.176 38.1488 22.1338 38.1367Z" fill="#1B1B1B"/>
<path d="M24.2451 39.1562L24.2908 39.1167C24.2147 39.071 24.2756 39.1349 24.2451 39.1562Z" fill="#1B1B1B"/>
<path d="M23.3612 38.9043L23.4094 38.9796L23.4726 38.9555L23.3612 38.9043Z" fill="#1B1B1B"/>
<path d="M23.1444 38.2835L23.1806 38.2956L23.0479 38.2383L23.1444 38.2835Z" fill="#1B1B1B"/>
<path d="M17.084 38.8853L17.1081 38.9576C17.1653 38.9455 17.1743 38.8642 17.084 38.8853Z" fill="#1B1B1B"/>
<path d="M13.9001 38.4435C13.879 38.3983 13.8005 38.347 13.7372 38.3621C13.8036 38.3892 13.8609 38.4405 13.9001 38.4435Z" fill="#1B1B1B"/>
<path d="M6.97584 37.7459L7.00897 37.6826L6.93066 37.785L6.97584 37.7459Z" fill="#1B1B1B"/>
<path d="M21.4661 26.1159C21.5473 26.7114 22.0074 27.4453 22.3052 27.8242C23.1262 28.8678 25.436 31.7129 29.2736 28.9731C31.3789 27.4693 30.1758 25.6648 27.7698 26.5671C25.9352 27.2558 25.3819 25.8904 24.0285 24.8588C22.6811 23.8332 21.2586 24.5671 21.4691 26.1159H21.4661Z" fill="white"/>
<path d="M22.7687 24.6807C23.1146 24.6807 23.4875 24.8251 23.8424 25.0927C24.1702 25.3424 24.4499 25.613 24.7206 25.8747C25.3431 26.4792 25.9326 27.0476 26.8529 27.0476C27.1687 27.0476 27.5025 26.9815 27.8725 26.8431C28.2665 26.6957 28.6364 26.6206 28.9702 26.6206C29.5206 26.6206 29.9146 26.8251 30.0259 27.1679C30.1371 27.5198 29.9537 28.1123 29.0965 28.7228C28.074 29.4536 27.0845 29.8236 26.1612 29.8236C24.2665 29.8236 23.0574 28.2867 22.5401 27.6311C22.2123 27.213 21.8274 26.5454 21.7642 26.0702C21.704 25.6341 21.7943 25.2551 22.0138 25.0025C22.1973 24.792 22.4649 24.6777 22.7687 24.6777M22.7687 24.377C21.9356 24.377 21.3191 25.0536 21.4634 26.1093C21.5446 26.7048 22.0048 27.4386 22.3025 27.8176C22.871 28.5394 24.1522 30.1243 26.1582 30.1243C27.0514 30.1243 28.089 29.8115 29.268 28.9664C30.9822 27.7424 30.504 26.3198 28.9672 26.3198C28.6153 26.3198 28.2123 26.395 27.7642 26.5604C27.4183 26.6897 27.1176 26.7469 26.8499 26.7469C25.692 26.7469 25.1206 25.6882 24.0228 24.8521C23.5928 24.5243 23.1567 24.377 22.7657 24.377H22.7687Z" fill="black"/>
<path d="M24.1831 25.1265L22.4276 27.8164L22.6795 27.9808L24.435 25.2909L24.1831 25.1265Z" fill="black"/>
<path d="M25.6778 26.3491L24.1738 29.3564L24.4428 29.491L25.9468 26.4837L25.6778 26.3491Z" fill="black"/>
<path d="M27.7762 26.66L26.5732 29.9668L26.8559 30.0696L28.0588 26.7628L27.7762 26.66Z" fill="black"/>
<path d="M24.6093 18.7436C24.5612 18.7436 24.513 18.7195 24.483 18.6774C24.4739 18.6624 23.5356 17.2789 22.513 17.2248C22.107 17.2007 21.7461 17.3932 21.4153 17.7902C21.3612 17.8533 21.2679 17.8624 21.2048 17.8082C21.1416 17.7541 21.1326 17.6609 21.1867 17.5977C21.5807 17.1255 22.0409 16.897 22.5311 16.924C23.707 16.9872 24.6935 18.4488 24.7356 18.512C24.7807 18.5812 24.7627 18.6744 24.6935 18.7195C24.6694 18.7376 24.6394 18.7436 24.6093 18.7436Z" fill="black"/>
<path d="M29.7223 18.7436C29.6952 18.7436 29.6712 18.7376 29.6471 18.7225C29.5749 18.6804 29.5509 18.5872 29.593 18.518C29.605 18.5 30.6667 16.7586 33.1028 18.0819C33.1749 18.121 33.202 18.2143 33.1629 18.2865C33.1238 18.3586 33.0306 18.3857 32.9584 18.3466C30.784 17.1647 29.8877 18.6083 29.8516 18.6714C29.8246 18.7195 29.7734 18.7436 29.7223 18.7436Z" fill="black"/>
<path d="M31.3762 13.9325C31.8604 14.9009 30.7747 16.3385 30.7747 16.3385C30.7747 16.3385 34.083 16.6392 34.083 14.534C34.083 13.1896 32.5792 11.5265 32.5792 11.5265C34.083 12.128 35.8875 16.0798 35.8875 16.0798C35.8875 16.0798 35.286 12.128 32.5792 9.42119C32.5792 9.42119 29.8724 5.81217 25.0604 4.90991C23.3401 4.45578 22.1221 4.42871 22.1221 4.42871C19.7401 4.57006 17.8454 5.09638 16.3356 5.81518C14.7326 6.43773 9.27395 9.2257 6.78673 19.0452C3.8544 30.6242 6.56117 30.0227 3.8544 32.128C1.14763 34.2332 -0.95763 39.9475 4.75666 40.8498C4.75666 40.8498 7.6138 35.2858 13.4785 35.737C13.4785 35.737 14.3326 31.9686 14.9582 31.4483C15.3702 31.1054 12.7897 29.2468 11.2258 25.5174C12.3506 23.4452 14.3807 23.4092 15.283 19.8001C15.9055 17.3129 17.9055 12.0046 20.2454 11.8302C21.4935 11.737 17.2379 16.0407 17.2379 16.0407C17.2379 16.0407 20.907 17.5204 23.5536 15.1385C24.3416 14.4287 25.0574 13.334 24.907 11.3791L25.2529 12.2994C25.6018 13.2257 25.4544 14.2663 24.8649 15.0603L24.104 16.0859C24.104 16.0859 26.4228 16.8979 28.9702 15.743C32.2785 14.2392 27.4664 10.3295 27.4664 10.3295C27.4664 10.3295 30.4739 12.134 31.3762 13.9385V13.9325Z" fill="black"/>
<path d="M31.464 32.21C26.264 36.7904 20.1677 34.8566 20.1677 34.8566L19.3467 37.0912C24.7602 38.8957 26.4143 42.0656 26.4143 42.0656C33.482 43.431 30.1737 38.5949 30.0234 37.9122C29.873 37.2295 29.2715 36.4927 30.0234 35.2686C30.7753 34.0445 31.464 32.21 31.464 32.21Z" fill="black"/>
</g>
</g>
<defs>
<clipPath id="clip0_319_821">
<rect width="40" height="40" fill="white" transform="translate(1 1)"/>
</clipPath>
</defs>
</svg>
