<svg width="42" height="42" viewBox="0 0 42 42" fill="none" xmlns="http://www.w3.org/2000/svg">
<circle cx="21" cy="21" r="20.35" fill="white" stroke="#212121" stroke-width="0.7"/>
<mask id="mask0_319_546" style="mask-type:luminance" maskUnits="userSpaceOnUse" x="1" y="1" width="40" height="40">
<path d="M21 41C32.0457 41 41 32.0457 41 21C41 9.9543 32.0457 1 21 1C9.9543 1 1 9.9543 1 21C1 32.0457 9.9543 41 21 41Z" fill="white"/>
</mask>
<g mask="url(#mask0_319_546)">
<path d="M23.7071 39.6465C21.4935 37.1171 18.2935 36.3382 18.2935 36.3382L18.9582 34.0735C20.5913 34.6059 22.3266 34.7833 24.089 34.5367C31.2018 33.5382 36.0259 25.9953 34.8589 17.6886C33.695 9.38179 26.9823 3.45698 19.8665 4.45547C12.7507 5.45397 7.92962 12.9968 9.09654 21.3036C9.63488 25.1412 11.3582 28.4735 13.7582 30.8465C13.7582 30.8465 12.5792 33.3307 12.2785 35.1352C12.2785 35.1352 7.16571 34.2329 3.55669 40.248" fill="#FFF7EB"/>
<path d="M3.4694 40.1983C3.4513 40.2526 3.49051 40.2405 3.57192 40.1078L3.59002 39.9902L3.4694 40.1983Z" fill="#1B1B1B"/>
<path d="M4.12246 39.3765C4.19765 39.2081 4.2969 39.0186 4.18562 39.0848C4.11645 39.2592 4.08036 39.2863 4.02021 39.4818C3.93901 39.6141 3.8578 39.6983 3.8578 39.6683C3.83675 39.7224 3.71645 39.8638 3.6954 39.951C3.83976 39.8036 3.98111 39.5931 4.10141 39.3495C4.14051 39.3074 4.12246 39.3615 4.12246 39.3765Z" fill="#1B1B1B"/>
<path d="M13.1808 30.1348L13.241 30.2101C13.2259 30.189 13.2048 30.1619 13.1808 30.1348Z" fill="#1B1B1B"/>
<path d="M9.27743 21.8082C9.28947 21.8775 9.29851 21.9076 9.30453 21.9106C9.28947 21.8474 9.28044 21.7931 9.27743 21.8082Z" fill="#1B1B1B"/>
<path d="M9.13583 20.2266C9.13583 20.2597 9.13583 20.2898 9.13884 20.3199C9.13884 20.2838 9.13884 20.2476 9.13583 20.2266Z" fill="#1B1B1B"/>
<path d="M13.1802 30.1336L13.0272 29.9385C13.0032 29.9385 13.1022 30.0405 13.1802 30.1336Z" fill="#1B1B1B"/>
<path d="M5.37636 37.6943C5.34022 37.7335 5.31311 37.7696 5.28902 37.8028L5.37636 37.7064C5.37636 37.7064 5.37636 37.7004 5.37636 37.6943Z" fill="#1B1B1B"/>
<path d="M12.7028 33.8682L12.6817 33.9406C12.6817 33.9647 12.6817 33.9858 12.6817 34.007L12.7028 33.8682Z" fill="#1B1B1B"/>
<path d="M10.4709 35.2863C10.5403 35.2772 10.5614 35.235 10.5855 35.2139C10.5493 35.238 10.495 35.2471 10.4347 35.2621C10.4347 35.2712 10.4467 35.2772 10.4709 35.2863Z" fill="#1B1B1B"/>
<path d="M6.0145 37.333L5.95126 37.3962C5.96932 37.3812 5.99643 37.3541 6.0145 37.333Z" fill="#1B1B1B"/>
<path d="M13.4875 31.7553C13.4875 31.7553 13.5063 31.7428 13.5125 31.7334C13.5063 31.7334 13.4969 31.7397 13.4875 31.7553Z" fill="#1B1B1B"/>
<path d="M20.9311 37.2139C20.9311 37.2139 20.9311 37.2205 20.9278 37.2205C20.9477 37.2271 20.9543 37.2271 20.9311 37.2139Z" fill="#1B1B1B"/>
<path d="M23.6981 39.6533L23.662 39.6172C23.662 39.6172 23.6439 39.6172 23.6379 39.6262L23.7012 39.6533H23.6981Z" fill="#1B1B1B"/>
<path d="M28.0164 6.5912C27.7872 6.38916 28.4476 6.82943 28.0978 6.53692C28.122 6.57311 27.7209 6.359 28.0164 6.5912Z" fill="#1B1B1B"/>
<path d="M5.43661 37.6402L5.52696 37.5469C5.4848 37.589 5.45769 37.6192 5.43661 37.6402Z" fill="#1B1B1B"/>
<path d="M28.0989 6.53795L28.0616 6.50684C28.0772 6.51928 28.0865 6.52862 28.0989 6.53795Z" fill="#1B1B1B"/>
<path d="M11.0796 10.9961C11.0796 10.9961 11.0488 11.0268 11.0304 11.0484C11.0365 11.0484 11.0488 11.0361 11.0796 10.9961Z" fill="#1B1B1B"/>
<path d="M9.34579 15.638L9.37289 15.5176C9.36085 15.5658 9.35181 15.6049 9.34579 15.638Z" fill="#1B1B1B"/>
<path d="M12.4806 8.83898C12.5258 8.78769 12.5439 8.77562 12.5982 8.7002C12.5922 8.70623 12.5862 8.71226 12.5771 8.7183C12.559 8.74847 12.5349 8.78468 12.4806 8.83898Z" fill="#1B1B1B"/>
<path d="M14.3929 6.95614C14.3929 6.95614 14.3628 6.97119 14.3477 6.98023C14.3266 6.9983 14.3025 7.01637 14.2815 7.03444L14.3899 6.95312L14.3929 6.95614Z" fill="#1B1B1B"/>
<path d="M22.0234 34.8138C21.963 34.7987 21.9269 34.7836 21.8967 34.7686C21.9389 34.8017 21.5318 34.7927 22.0234 34.8138Z" fill="#1B1B1B"/>
<path d="M5.39401 37.7129C5.39703 37.6948 5.40907 37.6738 5.43919 37.6406C5.41811 37.6647 5.39703 37.6858 5.37595 37.7069C5.37595 37.7159 5.37595 37.7219 5.39401 37.7099V37.7129Z" fill="#1B1B1B"/>
<path d="M12.2932 8.53759C12.3867 8.423 12.4862 8.31746 12.5857 8.21191C12.4983 8.29936 12.3897 8.41697 12.2932 8.53759Z" fill="#1B1B1B"/>
<path d="M35.0482 22.4678L35.0391 22.5672C35.0452 22.528 35.0482 22.4949 35.0482 22.4678Z" fill="#1B1B1B"/>
<path d="M13.4962 7.28356C13.5655 7.24134 13.6319 7.19309 13.7012 7.14183C13.7133 7.12675 13.7254 7.11167 13.7314 7.09961L13.4962 7.28356Z" fill="#1B1B1B"/>
<path d="M19.1603 34.3895C19.1874 34.3985 19.1904 34.3955 19.2475 34.4075C19.2866 34.4135 19.3017 34.4075 19.3107 34.4015C19.3227 34.3865 19.2987 34.3564 19.3438 34.3534C19.828 34.4707 19.5543 34.4526 19.7137 34.5248C20.0205 34.588 20.2641 34.582 20.4927 34.6271C20.5077 34.6391 20.5528 34.6481 20.4987 34.6511C20.8295 34.6692 21.4671 34.7925 21.8521 34.7534C21.8791 34.7594 21.8942 34.7654 21.9002 34.7684C21.84 34.7383 21.831 34.7083 21.846 34.6902C22.0325 34.6992 22.1889 34.6722 22.2581 34.7083C22.1438 34.7053 22.1348 34.7203 22.0806 34.7293L22.2761 34.7173C22.4505 34.7744 22.0114 34.7293 22.0084 34.7654C22.3904 34.7654 22.8325 34.7173 23.1212 34.7173C23.1844 34.7684 22.4415 34.7564 22.8325 34.7925C22.6821 34.7895 22.5317 34.7835 22.3814 34.7774C22.7272 34.8617 22.1047 34.7684 22.4235 34.8586C23.022 34.8707 23.0911 34.8256 23.6866 34.7895C23.816 34.7474 23.6385 34.7534 23.7678 34.7113C24.1829 34.6391 24.3483 34.6331 24.4896 34.6421C24.631 34.6451 24.7483 34.6632 25.043 34.5549C25.1904 34.4797 25.2415 34.4226 25.6716 34.3293L25.5423 34.4286C26.0957 34.2662 25.837 34.2692 26.4175 34.1038C26.3242 34.1609 25.9964 34.2752 26.0806 34.2511C26.4626 34.1609 26.3302 34.1278 26.613 34.0256L26.6911 34.0526C27.2596 33.815 27.8551 33.4932 28.4325 33.1353C28.4084 33.1654 28.3152 33.2376 28.4596 33.1744C29.1844 32.7143 29.9754 32.1459 30.5979 31.5955L30.7934 31.3429C30.8445 31.2917 30.9047 31.2617 30.8536 31.3218C31.0942 31.1053 30.8445 31.2917 30.9438 31.1684C31.0731 31.0391 31.1302 31.012 31.0611 31.1053C31.434 30.6722 32.0596 29.8361 32.4325 29.3669L32.3784 29.4722C32.6521 29.0932 32.6039 28.991 32.8566 28.6451L32.8205 28.7203C33.3708 27.8722 33.8039 26.8436 34.1318 26.1489C34.1348 25.9955 34.4866 25.2135 34.4205 25.1263C34.613 24.585 34.6069 24.7534 34.8175 23.9684C34.8746 23.7579 34.8325 23.6406 34.8746 23.3759H34.9227L34.9408 23.012L35.022 22.8286L35.046 22.5789C35.028 22.6782 34.9949 22.7865 34.9829 22.7684C35.025 22.3805 35.1333 21.8241 35.1573 21.815C35.1814 21.5053 35.1754 21.1955 35.1814 20.8857C35.1994 20.9068 35.1964 21.0632 35.2024 21.1865C35.1814 20.6902 35.2626 21.0992 35.2325 20.6421C35.2205 20.7023 35.2054 20.609 35.1964 20.597C35.2295 20.3714 35.2355 19.8541 35.2024 19.4752L35.2355 19.5474C35.2355 19.2015 35.1934 18.8406 35.1633 18.4677C35.1122 18.0977 35.0731 17.7158 35.0039 17.3338C35.034 17.6105 34.9678 17.5534 34.9287 17.3338L34.9618 17.2376C34.9077 17.0992 34.9829 17.4752 34.8957 17.1835C34.8536 16.8977 34.9197 16.982 34.9618 17.1444C34.9348 17.0301 34.9167 16.9158 34.8836 16.8015C34.8927 16.7774 34.9167 16.8586 34.9408 16.8767C34.8806 16.7414 34.8686 16.2722 34.7693 16.0797L34.7784 16.0586C34.5919 15.3068 34.4776 14.9729 34.2731 14.3774C34.228 14.3774 34.1558 14.1429 34.0626 13.9774C33.9874 13.7609 33.9062 13.5293 33.819 13.2887C33.7257 13.0511 33.6205 12.8045 33.5062 12.5489C33.3107 12.209 33.422 12.4617 33.3227 12.3173C33.3438 12.2752 33.0911 11.7789 33.2445 12.0256C32.9227 11.4391 32.8325 11.2737 32.3513 10.5789C32.3904 10.6632 32.4385 10.7534 32.3994 10.7173C32.3092 10.594 32.219 10.4195 32.246 10.4286L32.2731 10.4586C31.7077 9.70075 31.04 8.63609 30.4385 8.1579L30.4716 8.18496C30.2821 8.00451 30.0806 7.83609 29.8791 7.67068C29.6175 7.42105 30.0566 7.79699 29.8791 7.5985C29.2024 7.08722 28.8626 6.7203 28.2581 6.36541C28.1648 6.26316 28.0145 6.14887 27.831 6.03158C27.6505 5.90827 27.437 5.78496 27.2115 5.67068C26.7663 5.43008 26.2821 5.22256 25.9573 5.05113L25.9874 5.09323C25.8039 5.04511 25.7829 4.98496 25.6536 4.93384C25.6656 4.9579 25.837 5.03008 25.7227 5C24.225 4.44662 22.5318 4.07369 20.8746 4.13684C20.2701 4.1609 20.5438 4.29323 19.7859 4.31429C19.8551 4.28421 19.9242 4.26316 19.9934 4.2391C18.7994 4.44662 17.5513 4.75338 16.5017 5.31579C16.5618 5.27369 16.5558 5.25865 16.6611 5.21053C16.4175 5.28271 15.828 5.62256 15.846 5.65865C15.6836 5.74587 15.7949 5.65865 15.6896 5.70075C15.4551 5.8 15.1754 6.07068 15.043 6.10978C15.022 6.11579 15.0972 6.06166 15.1333 6.03459C14.9979 6.13083 14.5017 6.46767 14.6551 6.40752C14.4656 6.52782 14.3002 6.66015 14.1468 6.79248C13.9904 6.92181 13.846 7.04211 13.7077 7.15338C13.6385 7.24962 13.4911 7.36993 13.3648 7.48421C13.2415 7.6015 13.1333 7.70677 13.1302 7.7579C13.1002 7.6797 12.5468 8.2812 12.3964 8.5188C12.4415 8.43158 12.225 8.69323 12.2731 8.59098C12.0656 8.83759 11.8972 9.0782 11.9603 9.05714C11.7528 9.26767 11.5844 9.51429 11.4521 9.74587C11.3137 9.97143 11.1964 10.1699 11.0701 10.2872C10.6039 11.1203 10.246 11.9233 9.94829 12.7233C9.88513 12.6662 10.3092 11.8511 10.231 11.8571C9.92724 12.612 9.81295 13.0662 9.55431 13.8271C9.47912 14.0226 9.56333 13.7068 9.57536 13.6346C9.35882 14.4135 9.13927 15.1414 9.05506 15.8571C9.04904 15.8541 9.05506 15.7759 9.06408 15.7038C9.04002 15.8451 8.9919 16.0256 9.02799 16.0165L9.04604 15.8782C9.09115 15.7699 9.08213 15.9143 9.07611 16.0857C9.0731 16.2602 9.06107 16.4617 9.0701 16.4767C9.00995 16.2271 8.95581 17.1744 8.89265 16.7835C8.88965 16.8767 8.89265 16.994 8.91371 16.9759C8.89265 17.1143 8.87762 17.1564 8.86859 17.012C8.83852 17.5203 8.87762 17.3429 8.85356 17.8C8.83852 17.8 8.83852 17.7038 8.82348 17.6556C8.84453 17.8902 8.84453 18.1248 8.8325 18.5128C8.82348 18.4887 8.81145 18.5338 8.81446 18.4195C8.81446 18.7534 8.82348 19.0361 8.85356 19.3278C8.86559 19.4722 8.87762 19.6195 8.88363 19.7759C8.89867 19.9323 8.9107 20.0977 8.91671 20.2812C8.83551 20.0707 8.91371 20.5308 8.86258 20.5759L8.92574 20.9639L8.93476 20.8045C8.97085 21.1474 9.04904 21.4421 9.08513 21.7368L9.02198 21.4872C9.06107 21.6977 9.09416 21.9113 9.13626 22.1218C9.11822 22.0015 9.10919 21.8782 9.09716 21.7579C9.18438 22.0947 9.15731 21.7098 9.22348 22.1609C9.19942 22.0707 9.28964 22.4977 9.29265 22.6782C9.34378 22.8406 9.40995 23.003 9.45506 23.2526C9.45506 23.3218 9.38288 23.2165 9.37987 23.2617C9.45807 23.415 9.60543 24.0346 9.71671 24.2241C9.68363 24.1609 9.65356 24.1669 9.65656 24.191L9.73777 24.3143C9.77686 24.4677 9.77686 24.4917 9.74679 24.4767C9.89115 24.9338 9.76483 24.3113 9.91822 24.8586C9.90017 24.8165 9.90017 24.8406 9.86408 24.7534C10.0445 25.2947 10.2761 25.7759 10.4836 26.2571C10.4957 26.4226 10.2791 25.8451 10.3092 26.0256C10.628 26.7173 11.0581 27.406 11.431 28.0346L11.3648 27.9173C11.4881 27.9594 11.6145 28.4045 11.8611 28.6842C11.8039 28.612 11.7558 28.612 11.7769 28.6271C12.0445 29.0511 12.3874 29.4541 12.8957 30.0195L12.8175 29.9624C12.9979 30.197 13.3257 30.5549 13.5453 30.7865C13.5754 30.8105 13.6175 30.8406 13.6445 30.8586C13.6686 30.8767 13.6896 30.8857 13.6746 30.8526L13.6957 30.8827L13.6235 31L13.5423 31.1564C13.4881 31.2617 13.44 31.3669 13.3949 31.4722C13.3047 31.6857 13.2235 31.8962 13.1513 32.1068C13.0009 32.5278 12.8686 32.9368 12.6851 33.3278C12.7182 33.2286 12.7513 33.0872 12.7212 33.1654C12.646 33.403 12.5739 33.6406 12.5107 33.8782C12.5618 33.8331 12.5588 33.791 12.631 33.6496C12.622 33.7459 12.5769 33.9504 12.5257 34.1248C12.5979 33.8 12.4686 34.1098 12.4145 34.2481C12.4325 34.2271 12.4295 34.2782 12.4445 34.2692C12.2851 34.6301 12.4927 34.3474 12.3333 34.8526L12.3212 34.8226C12.3032 34.9399 12.3002 35.0301 12.2791 35.1383C12.2009 35.1323 12.1227 35.1233 12.0385 35.1173C11.9633 35.0692 12.237 35.1173 12.219 35.0842C12.1618 35.0782 12.1167 35.0782 12.0415 35.0782C11.9663 35.0782 11.8942 35.0842 11.822 35.0872C11.6776 35.0992 11.5363 35.1053 11.4009 35.0872C11.5272 35.0722 11.7107 35.0752 11.84 35.0692C11.5453 35.018 11.5062 35.0241 11.2866 35.0271H11.3077C11.1363 35.0271 10.9648 35.0271 10.7934 35.0421H10.9257C10.5618 35.1835 10.1618 35.1474 9.68363 35.3429C10.1438 35.1564 9.7528 35.2857 9.77987 35.2316C9.65055 35.2526 9.45506 35.2887 9.50619 35.2617C9.28062 35.3519 9.10919 35.3459 8.80544 35.5113C8.78739 35.5023 8.56183 35.5955 8.59792 35.5444C8.3122 35.6767 8.67611 35.5353 8.65807 35.5684C8.44152 35.6767 8.18288 35.791 7.89115 35.9023C7.61746 36.0436 7.30769 36.191 7.03701 36.4105C6.56483 36.7805 6.49265 36.8647 6.09566 37.2496C5.93927 37.3519 6.17686 37.1113 6.17686 37.1113C5.93927 37.2947 5.7528 37.4301 5.56934 37.6466C5.59942 37.5955 5.5513 37.6316 5.47912 37.6827C5.32273 37.8481 5.40995 37.8301 5.18739 38.0316C5.21145 37.9835 5.23852 37.9173 5.30468 37.8271C5.13325 38.0346 4.9498 38.2271 4.79641 38.4617C4.73325 38.5038 4.86859 38.3023 4.92273 38.2211C4.73025 38.4677 4.4325 38.8677 4.40243 38.9669L4.53777 38.8195C4.46859 38.9098 4.47461 38.8436 4.51972 38.7744C4.66107 38.5459 4.77235 38.4827 4.7934 38.4797L4.67611 38.6391C4.77536 38.591 4.88664 38.4256 5.02799 38.2541C5.17235 38.0857 5.32574 37.8902 5.46709 37.7489L5.39792 37.9113L5.64453 37.5835C5.71671 37.5323 5.78288 37.5173 5.65055 37.6647C5.8731 37.4872 5.82198 37.4812 6.02649 37.3459C6.05055 37.3338 6.04453 37.3429 6.02649 37.3609L6.22498 37.1684C6.1919 37.2135 6.28814 37.1714 6.1528 37.2767C6.54077 36.9729 6.75731 36.7534 6.93476 36.6782L6.90168 36.7053C7.45807 36.2992 6.91972 36.615 7.33476 36.3023L7.69265 36.2301L7.72874 36.1579C7.7919 36.1248 7.91521 36.0586 7.90017 36.0887C8.12273 35.9444 7.84904 36.0887 7.97536 35.9955C8.14077 35.9444 8.35431 35.8421 8.53777 35.7579C8.72423 35.6737 8.88965 35.6316 8.93476 35.6496C9.04002 35.5774 8.61596 35.7338 8.9528 35.5895C9.01596 35.6105 9.1122 35.5714 9.23551 35.5203C9.35581 35.4692 9.50919 35.4241 9.66258 35.397C9.57837 35.4602 9.28965 35.5143 9.59942 35.4692C9.68062 35.415 9.82799 35.3729 9.98739 35.3519C10.1468 35.3338 10.3182 35.3218 10.4445 35.2917C10.4475 35.2346 11.0069 35.1895 11.446 35.1654C11.437 35.1714 11.5423 35.1774 11.7047 35.1865C11.8671 35.1955 12.0505 35.2075 12.3513 35.2586C12.3754 35.1654 12.3934 35.0662 12.4145 34.9759C12.4325 34.9008 12.4445 34.8466 12.4596 34.7895L12.4656 34.8045C12.4265 34.7143 12.5348 34.3053 12.616 34.0075C12.646 34.0286 12.637 34.0857 12.6099 34.2481C12.634 34.1549 12.6611 34.0617 12.6881 33.9714C12.6911 33.9023 12.7062 33.812 12.7603 33.6316L12.7784 33.7128C12.8927 33.3459 12.9799 32.9609 13.1844 32.5068C13.1573 32.4677 12.9408 32.8376 13.1062 32.3353C13.1333 32.3233 13.1724 32.3203 13.1302 32.4526C13.1423 32.4105 13.1724 32.2962 13.2145 32.215L13.1693 32.4226C13.2656 32.218 13.1844 32.3023 13.2566 32.1338C13.2836 32.1489 13.3257 32.0165 13.3378 32.0496C13.3227 32.0947 13.2686 32.191 13.2536 32.2602C13.3348 32.0707 13.446 31.8511 13.4972 31.785C13.4761 31.794 13.4611 31.7699 13.5152 31.6316C13.6656 31.2767 13.5994 31.5233 13.7047 31.3248C13.7137 31.2767 13.7498 31.2015 13.7769 31.1323C13.7979 31.0752 13.843 30.9669 13.819 30.9669C13.84 30.9188 13.8611 30.8857 13.8761 30.8586C13.843 30.8135 13.837 30.7895 13.816 30.7564C13.7739 30.7143 13.7047 30.6481 13.6265 30.5729C13.5603 30.5068 13.4881 30.4346 13.422 30.3714C13.2987 30.2421 13.2084 30.1519 13.2656 30.2511L13.2987 30.2902C13.2987 30.2902 13.2836 30.2752 13.2746 30.2662C12.7934 29.815 12.4145 29.2105 12.0265 28.6902L12.0385 28.6812C11.7979 28.3744 11.5543 27.9654 11.3829 27.7459C11.3257 27.6466 11.2716 27.4962 11.3107 27.5293C11.1543 27.2767 11.1182 27.2586 10.9438 26.8677C11.1032 27.1203 10.9167 26.7654 11.1002 27.1293C10.9378 26.7805 10.9077 26.6992 10.6972 26.3414C10.7934 26.4526 10.613 26.0617 10.5318 25.8962C10.5558 25.9835 10.5889 26.0677 10.619 26.1519C10.5227 25.9684 10.4626 25.8 10.3934 25.6316L10.4776 25.7038C10.225 24.9639 9.8701 24.4165 9.79792 23.812C9.70769 23.6226 9.89115 24.2301 9.80092 24.0617C9.70769 23.7098 9.66859 23.3308 9.64754 23.2195C9.55731 22.7323 9.46107 22.7895 9.37987 22.2752C9.37686 22.3444 9.34077 22.4165 9.24754 22.0376C9.19641 21.6767 9.24754 21.5835 9.30168 21.809C9.31671 21.8932 9.31671 21.9353 9.3107 21.9353C9.33476 22.0496 9.37686 22.197 9.36483 22.0556L9.33777 22.0135C9.32574 21.8331 9.24754 21.3429 9.29265 21.4541C9.2325 21.1865 9.24453 21.3429 9.26859 21.5444C9.22348 21.0812 9.16934 20.8256 9.14528 20.3504C9.14228 20.4256 9.12423 20.4977 9.12122 20.4226C9.09416 19.7218 9.05807 20.1188 9.02799 19.6436C9.04604 19.3729 9.09716 19.7368 9.05807 19.2617C9.06709 18.9699 9.10318 19.1985 9.12122 19.3128C9.06709 18.8797 9.14528 18.5008 9.1513 18.2541L9.16333 18.4827C9.15431 18.3474 9.15731 18.2331 9.16333 18.1218L9.12122 18.2511C9.13626 18.1188 9.14228 18.0045 9.15731 18.0075C9.14228 17.8692 9.09115 18.1098 9.07611 17.8331C9.10017 17.6556 9.09416 17.2857 9.1513 17.2286C9.08213 17.788 9.19942 17.1714 9.16934 17.6466C9.16934 17.5534 9.17837 17.4421 9.19942 17.3098C9.20543 17.2887 9.20844 17.3308 9.20544 17.3669C9.30468 16.8376 9.16634 17.1143 9.24453 16.5609C9.25957 16.6331 9.31371 16.4406 9.31972 16.3504C9.28664 16.5729 9.25957 16.4496 9.26859 16.2421C9.34077 15.8902 9.32273 15.8571 9.35581 15.6707L9.30769 15.8812C9.29566 15.806 9.33175 15.6286 9.37085 15.382C9.39491 15.3639 9.34378 15.6075 9.37085 15.5233C9.37686 15.2406 9.5513 14.9188 9.61747 14.5368C9.68363 14.3684 9.6716 14.5338 9.72574 14.3865C9.80694 13.9594 9.89115 13.9474 10.0054 13.5083C9.93025 13.6195 9.93025 13.6466 9.99942 13.3308L9.7919 14.0496C9.82198 13.8902 9.85807 13.7338 9.89115 13.5774C9.81897 13.794 9.76183 14.0376 9.72273 14.1669C9.75581 13.9383 9.75882 13.9624 9.70168 14.0586C9.84604 13.7789 9.85506 13.4602 10.0145 13.1353L10.0927 13.1774C10.2069 12.9338 10.2731 12.7053 10.3693 12.4647C10.4566 12.2211 10.5558 11.9594 10.7212 11.6526L10.6099 11.8481C10.622 11.7489 10.7874 11.4541 10.8866 11.2526C10.9017 11.2857 10.9799 11.1654 11.043 11.0902C11.031 11.0902 11.0911 10.9789 11.1543 10.8556C11.2205 10.7353 11.2896 10.606 11.2806 10.5639L11.4761 10.3173C11.8009 9.85714 11.7558 9.73083 12.0927 9.30075C12.0205 9.45113 12.1859 9.26767 11.9874 9.57143C12.0957 9.42707 12.1979 9.30075 12.1829 9.28571C12.2551 9.20752 12.4656 8.87068 12.5919 8.7594C12.631 8.69323 12.619 8.65113 12.7603 8.50075C12.7784 8.48872 12.7693 8.50978 12.7693 8.50978C12.7573 8.50075 12.9708 8.26015 12.8265 8.37143C13.046 8.19098 13.3197 7.91429 13.5904 7.64662C13.8701 7.38797 14.1468 7.13835 14.3663 7.02105C14.5137 6.88872 14.6881 6.75639 14.8596 6.63008C15.028 6.49775 15.1994 6.38045 15.3528 6.28421C15.3378 6.30526 15.3588 6.29624 15.3017 6.33233C15.7317 6.08872 15.5092 6.09173 16.0175 5.8391C16.2911 5.73985 15.7708 6.01053 15.9333 5.93534C16.0445 5.97744 16.5227 5.5985 16.8957 5.49624L16.8145 5.53835C17.0911 5.45414 17.446 5.22557 17.8972 5.0782C17.8972 5.0782 17.8791 5.09323 17.8972 5.09323C18.0415 5.01504 18.2641 4.93985 18.4987 4.85564C18.7363 4.77744 18.9979 4.71729 19.2205 4.65414C19.0881 4.72331 19.022 4.7203 19.1152 4.73835C19.3137 4.69023 19.04 4.6812 19.443 4.6C19.5784 4.6 19.8701 4.56692 19.9152 4.6L19.5363 4.66617C19.6385 4.67519 19.7588 4.65414 19.8821 4.62707C20.0054 4.60602 20.1287 4.58196 20.228 4.57594L20.2039 4.60301C20.4927 4.5609 20.64 4.53985 20.7934 4.51579C20.9468 4.49775 21.1062 4.45865 21.422 4.47068L21.3558 4.45263C21.7017 4.4015 21.6445 4.4797 21.9934 4.45263L22.0957 4.5188C22.3242 4.51278 22.8987 4.52481 23.3047 4.58496C23.1844 4.58196 23.0069 4.57594 22.8205 4.56993C22.634 4.5609 22.4415 4.54887 22.2942 4.5579C22.5197 4.56391 23.0551 4.6391 23.1754 4.62406C23.0851 4.61504 22.9678 4.61805 22.8806 4.59699C23.1633 4.57895 23.5272 4.62105 23.9693 4.7203C23.9182 4.77143 24.2039 4.83459 24.5318 4.93384C24.6972 4.98496 24.8716 5.0391 25.025 5.09323C25.1754 5.15338 25.3017 5.21353 25.3708 5.26166C26.1318 5.49925 26.8175 5.88722 27.6054 6.36241C27.3739 6.11278 27.837 6.50075 27.837 6.39549C28.0265 6.50075 28.0866 6.5579 28.1017 6.57293C28.2701 6.71429 28.4445 6.84662 28.6039 6.99699C28.7122 7.11128 28.4295 6.88872 28.4325 6.9188C28.8024 7.21053 28.5678 7.06917 28.7994 7.27669C28.7693 7.21354 28.9618 7.33384 29.1573 7.5203C29.0701 7.43008 28.9859 7.33384 28.8927 7.24662C29.434 7.62857 29.2896 7.65865 29.8069 8.07369L29.6325 7.95338C29.9032 8.1609 30.5287 8.82857 30.7994 9.03609C30.8325 9.08722 30.8656 9.16241 30.7603 9.05714C31.2927 9.67068 31.9543 10.4316 32.2551 10.997L32.2039 10.9549C32.2881 11.0812 32.3784 11.1594 32.4596 11.3338C32.4475 11.3308 32.4084 11.2917 32.4445 11.3549C32.4987 11.418 32.6821 11.6857 32.7693 11.8692L32.6641 11.7308C33.028 12.4376 33.2806 12.7865 33.5693 13.394C33.5032 13.4211 33.7287 14.0045 33.816 14.3053L33.8039 14.2992C34.1077 15.1714 34.3363 15.782 34.5378 16.6211C34.5889 17.1564 34.8205 18.4105 34.8145 19.2707C34.8145 19.1383 34.8686 19.2887 34.8776 19.4421C34.8716 19.6436 34.9408 19.9985 34.8776 19.9684V19.8962C34.8265 20.0496 34.8295 20.4617 34.8265 20.7835L34.9047 20.8406C34.7754 21.6767 34.7453 23.0541 34.5348 23.4872C34.5227 23.6917 34.4566 23.9353 34.4325 24.1368L34.3934 24.1158C34.249 24.6602 34.1708 24.9308 33.9573 25.5925L33.9724 25.4481C33.8521 25.8211 33.9212 25.9564 33.7979 26.2993L33.6987 26.3774C33.437 27.015 33.0851 27.6105 32.8024 28.2271C32.8024 28.212 32.7934 28.185 32.8445 28.0857C32.7724 28.2301 32.5919 28.4857 32.4626 28.7053C32.3272 28.9218 32.219 29.0932 32.2881 29.0692C32.2611 29.0571 32.1648 29.2045 32.0445 29.391C31.9212 29.5744 31.7739 29.8 31.6716 29.9564V29.8872C31.5182 30.1609 31.5272 30.182 31.2505 30.5248C31.1754 30.597 31.1633 30.5699 31.2656 30.4737C31.016 30.7143 31.1152 30.7023 30.8115 30.991C30.8415 30.9489 30.8716 30.9068 30.9017 30.8586C30.6521 31.1113 30.6791 31.0992 30.5618 31.2586C30.4205 31.4361 30.0536 31.7068 29.9934 31.7158C29.9754 31.7669 29.843 31.9143 29.6716 32.0376C29.6415 32.0436 29.6957 31.9895 29.7227 31.9624C29.4851 32.1398 29.3167 32.2842 29.1603 32.4045C29.0069 32.5308 28.8686 32.6391 28.6851 32.7293C28.6701 32.7233 28.643 32.7293 28.613 32.7444C29.016 32.4977 29.3107 32.2571 29.2866 32.2872C29.2626 32.2571 28.9528 32.4737 29.1663 32.2541C28.9438 32.4617 28.5408 32.8015 28.213 32.9729C28.1949 32.9789 28.1769 32.985 28.1648 32.985L28.1949 32.9609C28.1197 33 28.0536 33.0391 27.9934 33.0812C27.8881 33.1353 27.822 33.1684 27.7197 33.2195C27.6656 33.2105 27.3227 33.397 27.1513 33.4782C27.1844 33.5113 26.9528 33.6015 27.1814 33.5414C27.1513 33.5504 27.2114 33.5233 27.3257 33.4632C27.3498 33.4481 27.3799 33.4331 27.3949 33.4241L27.3859 33.4331C27.4972 33.3759 27.6415 33.3038 27.8069 33.2195C27.6836 33.3098 27.5513 33.391 27.3528 33.4662C27.2776 33.5353 27.1934 33.6075 27.1393 33.6406C27.0069 33.6647 26.8235 33.7188 26.6611 33.7669C26.4987 33.812 26.3573 33.8391 26.3182 33.8331C26.0536 33.9504 25.7257 34.0466 25.428 34.1459C25.1272 34.2331 24.8505 34.3143 24.6791 34.3895C24.5167 34.4286 24.4866 34.3985 24.4235 34.3985C24.5167 34.3744 24.628 34.3564 24.6761 34.3383C24.5167 34.3744 24.2761 34.4196 24.0656 34.4617C23.8551 34.4947 23.6746 34.5278 23.6385 34.5579C23.2205 34.5699 23.8671 34.4887 23.2987 34.5459L23.3739 34.5248C22.8114 34.5218 22.3603 34.5549 21.8851 34.5609C21.413 34.5669 20.9167 34.5399 20.3152 34.3624C20.3994 34.3865 20.4415 34.3985 20.4566 34.4105C20.213 34.3564 19.9693 34.2992 19.7257 34.2331L19.3588 34.1338L18.9047 33.9955C18.625 34.9729 18.4896 35.4902 18.1889 36.4376C18.2942 36.4677 18.4054 36.5008 18.5107 36.5338C18.5859 36.5579 18.6611 36.588 18.7363 36.618C19.1092 36.7594 19.1573 36.7474 19.3979 36.8075L19.4611 36.8827C19.5964 36.9218 19.7318 36.9549 19.8641 36.997C20.4205 37.2105 20.7423 37.5323 21.4099 37.8632L21.3438 37.788C21.5724 37.9323 22.0656 38.2451 22.0054 38.2511C22.0295 38.2632 22.0957 38.2782 22.1708 38.3534L22.1618 38.3774C22.3513 38.4917 22.5227 38.6301 22.7032 38.7594C23.0761 39.1083 22.5859 38.7744 23.1272 39.2797C23.3287 39.4662 23.7167 39.803 23.6596 39.7158C23.5844 39.6346 23.4761 39.4962 23.4851 39.4752L23.6686 39.6526C23.7528 39.6406 23.9453 39.7399 23.5423 39.2406C23.434 39.1383 23.3137 39.0481 23.1964 38.9579L23.1152 38.8346L23.3889 39.0902C23.2566 38.9218 23.1363 38.8496 23.016 38.7624C23.0009 38.7233 22.9648 38.6722 22.9017 38.612L22.5227 38.3865C22.4987 38.3323 22.7092 38.4677 22.4896 38.2722C22.3062 38.1759 22.6099 38.4376 22.3242 38.2511C22.1739 38.1008 22.237 38.1158 22.0235 37.9895C22.0054 37.9534 22.0536 37.9744 22.1378 38.0286C21.9483 37.9143 21.6445 37.7068 21.5302 37.6737C21.3648 37.5233 20.8836 37.3008 20.9317 37.2586C20.8626 37.2376 20.5648 37.1173 20.3814 37.0331C20.5648 37.0812 20.3964 36.991 20.1949 36.8947C19.9904 36.7985 19.7558 36.6932 19.816 36.6752C19.6746 36.6541 19.443 36.5669 19.1814 36.4737C19.049 36.4286 18.9137 36.3805 18.7784 36.3414C18.7122 36.3203 18.643 36.3023 18.5799 36.2842C18.5558 36.2812 18.5348 36.2782 18.5077 36.2752C18.5227 36.2752 18.5498 36.2692 18.5588 36.2752C18.5408 36.2692 18.5257 36.2602 18.5167 36.2571C18.5257 36.2361 18.5378 36.2211 18.5468 36.209C18.5528 36.2 18.5528 36.209 18.5618 36.185C18.5708 36.1579 18.5829 36.1308 18.5949 36.1008C18.5468 36.0496 18.6551 35.6436 18.6821 35.415C18.8295 35.1113 18.6911 35.6286 18.7724 35.5444C18.7212 35.5444 18.8896 34.9789 18.8205 35.0752C18.9257 34.8406 18.8987 34.8707 18.9829 34.7594C18.9528 34.7263 18.9678 34.6692 18.9889 34.594C19.0009 34.5549 19.013 34.5128 19.025 34.4647C19.031 34.4436 19.037 34.4135 19.04 34.3925C19.04 34.3835 19.04 34.3714 19.04 34.3594C19.0581 34.3323 19.0671 34.3263 19.0761 34.3263C19.1453 34.3744 19.0942 34.3744 19.2265 34.3955C19.3167 34.4316 19.2716 34.4316 19.2054 34.4226C19.1874 34.4226 19.1633 34.4256 19.1633 34.4256L19.1603 34.3895ZM28.4205 33.1143C28.3483 33.1564 28.2881 33.1925 28.249 33.2165C28.2851 33.1955 28.3333 33.1654 28.4205 33.1143ZM29.1032 32.6692C29.022 32.7293 28.9197 32.7925 28.8084 32.8647C28.7754 32.8677 28.7934 32.8376 28.8626 32.7955C28.8295 32.8256 28.9979 32.7353 29.1032 32.6692ZM27.4942 33.2857C27.6054 33.2256 27.6445 33.2135 27.6656 33.2135C27.6145 33.2406 27.5513 33.2737 27.4701 33.3158C27.4701 33.3158 27.4611 33.3248 27.4581 33.3278C27.4641 33.3158 27.4731 33.3038 27.4942 33.2857Z" fill="#1B1B1B"/>
<path d="M27.3128 33.4364C27.2978 33.4454 27.2887 33.4514 27.2677 33.4635C27.2918 33.4544 27.3159 33.4454 27.3399 33.4394C27.352 33.4273 27.364 33.4183 27.3731 33.4062C27.352 33.4153 27.3309 33.4273 27.3128 33.4364Z" fill="#1B1B1B"/>
<path d="M13.2511 30.2217L13.2384 30.209C13.2384 30.209 13.2542 30.2312 13.2574 30.2408C13.2511 30.2312 13.2511 30.228 13.2479 30.2217H13.2511Z" fill="#1B1B1B"/>
<path d="M34.9253 23.3662H34.9133L34.9102 23.4385L34.9253 23.3662Z" fill="#1B1B1B"/>
<path d="M12.3995 34.2275C12.3995 34.2275 12.3843 34.2488 12.3721 34.2823C12.3752 34.2823 12.3874 34.258 12.3995 34.2275Z" fill="#1B1B1B"/>
<path d="M9.78975 35.1826C9.77099 35.1951 9.76786 35.2014 9.76473 35.2076L9.78663 35.1826H9.78975Z" fill="#1B1B1B"/>
<path d="M9.05184 15.6865C9.05485 15.6654 9.05786 15.6474 9.06088 15.6293C9.07895 15.4938 9.06389 15.5871 9.05184 15.6865Z" fill="#1B1B1B"/>
<path d="M9.27716 22.6615C9.25605 22.5891 9.23494 22.5197 9.21383 22.4443C9.23494 22.568 9.25303 22.6645 9.27716 22.6615Z" fill="#1B1B1B"/>
<path d="M12.2638 8.57249C12.2638 8.57249 12.2855 8.5476 12.2949 8.53516L12.2638 8.57249Z" fill="#1B1B1B"/>
<path d="M9.14772 22.125C9.1628 22.2486 9.18692 22.3512 9.21105 22.4446C9.19295 22.3421 9.17486 22.2245 9.14772 22.125Z" fill="#1B1B1B"/>
<path d="M4.49252 38.6865L4.44735 38.7407C4.44735 38.7407 4.44735 38.7468 4.44735 38.7528L4.49252 38.6865Z" fill="#1B1B1B"/>
<path d="M4.44391 38.7539L4.39874 38.8202C4.42283 38.79 4.4409 38.766 4.44391 38.7539Z" fill="#1B1B1B"/>
<path d="M4.30282 38.9552L4.39937 38.8164C4.36316 38.8617 4.3179 38.916 4.30282 38.9552Z" fill="#1B1B1B"/>
<path d="M5.85425 37.2649L5.8606 37.2363C5.8606 37.2363 5.85107 37.2554 5.85425 37.2649Z" fill="#1B1B1B"/>
<path d="M6.30861 36.8711C6.19733 36.9613 6.01388 37.0786 5.86651 37.217L5.86049 37.238C5.91764 37.1598 6.22139 36.9794 6.30861 36.8711Z" fill="#1B1B1B"/>
<path d="M8.53714 35.7793L8.08301 35.9718C8.17023 35.9507 8.28151 35.9237 8.08 36.0199C8.66346 35.8094 7.94767 36.041 8.54015 35.7793H8.53714Z" fill="#1B1B1B"/>
<path d="M9.99901 35.352C9.74268 35.4123 10.0081 35.3731 9.99599 35.3852C10.1588 35.34 10.198 35.3279 9.99901 35.352Z" fill="#1B1B1B"/>
<path d="M11.2557 27.4034H11.3039C11.1985 27.2318 11.2888 27.4125 11.2557 27.4034Z" fill="#1B1B1B"/>
<path d="M10.1466 25.5742L10.2039 25.7702L10.2732 25.8456L10.1466 25.5742Z" fill="#1B1B1B"/>
<path d="M9.96839 24.3026L10.0016 24.387L9.88094 24.0674L9.96839 24.3026Z" fill="#1B1B1B"/>
<path d="M14.0469 7.28613L13.9715 7.29217C13.875 7.39173 13.887 7.44906 14.0469 7.28613Z" fill="#1B1B1B"/>
<path d="M21.34 4.45922C21.4273 4.48328 21.6528 4.50132 21.7912 4.47726C21.6107 4.47125 21.4333 4.4532 21.34 4.45922Z" fill="#1B1B1B"/>
<path d="M34.8111 21.196L34.8051 21.0361L34.799 21.3377L34.8111 21.196Z" fill="#1B1B1B"/>
<path d="M22.3777 21.1501C22.8893 21.1501 23.304 20.4768 23.304 19.6463C23.304 18.8158 22.8893 18.1426 22.3777 18.1426C21.8661 18.1426 21.4514 18.8158 21.4514 19.6463C21.4514 20.4768 21.8661 21.1501 22.3777 21.1501Z" fill="black"/>
<path d="M29.2468 21.1501C29.7584 21.1501 30.1732 20.4768 30.1732 19.6463C30.1732 18.8158 29.7584 18.1426 29.2468 18.1426C28.7352 18.1426 28.3205 18.8158 28.3205 19.6463C28.3205 20.4768 28.7352 21.1501 29.2468 21.1501Z" fill="black"/>
<path d="M21.0631 24.158C22.1776 24.158 23.0811 23.6194 23.0811 22.955C23.0811 22.2906 22.1776 21.752 21.0631 21.752C19.9485 21.752 19.045 22.2906 19.045 22.955C19.045 23.6194 19.9485 24.158 21.0631 24.158Z" fill="#F4BDCB"/>
<path d="M30.0865 24.158C31.201 24.158 32.1045 23.6194 32.1045 22.955C32.1045 22.2906 31.201 21.752 30.0865 21.752C28.972 21.752 28.0684 22.2906 28.0684 22.955C28.0684 23.6194 28.972 24.158 30.0865 24.158Z" fill="#F4BDCB"/>
<path d="M25.8125 24.4587C25.0666 24.4587 24.4591 23.8512 24.4591 23.1053C24.4591 22.3595 25.0666 21.752 25.8125 21.752C26.5583 21.752 27.1658 22.3595 27.1658 23.1053C27.1658 23.8512 26.5583 24.4587 25.8125 24.4587ZM25.8125 22.0527C25.232 22.0527 24.7598 22.5249 24.7598 23.1053C24.7598 23.6858 25.232 24.158 25.8125 24.158C26.3929 24.158 26.8651 23.6858 26.8651 23.1053C26.8651 22.5249 26.3929 22.0527 25.8125 22.0527Z" fill="black"/>
<path d="M30.1732 13.3309C30.6574 14.2993 29.5717 15.7369 29.5717 15.7369C29.5717 15.7369 32.8799 16.0377 32.8799 13.9324C32.8799 12.588 31.3762 10.9249 31.3762 10.9249C32.8799 11.5264 34.6844 15.4783 34.6844 15.4783C34.6844 15.4783 34.0829 11.5264 31.3762 8.81963C31.3762 8.81963 28.6694 5.21061 23.8574 4.30835C22.1371 3.85422 20.919 3.82715 20.919 3.82715C18.5371 3.9685 16.6423 4.49482 15.1326 5.21361C13.5296 5.83617 8.07091 8.62414 5.58369 18.4437C2.65136 30.0226 5.35813 29.4211 2.65136 31.5264C-0.055408 33.6317 -2.16067 39.3459 3.55361 40.2482C3.55361 40.2482 6.41076 34.6843 12.2754 35.1354C12.2754 35.1354 13.1296 31.367 13.7551 30.8467C14.1671 30.5038 11.5867 28.6452 10.0228 24.9159C11.1476 22.8437 13.1777 22.8076 14.0799 19.1986C14.7025 16.7114 16.7025 11.4031 19.0423 11.2287C20.2905 11.1354 16.0348 15.4392 16.0348 15.4392C16.0348 15.4392 19.704 16.9189 22.3506 14.5369C23.1386 13.8271 23.8544 12.7324 23.704 10.7775L24.0499 11.6978C24.3987 12.6241 24.2514 13.6647 23.6619 14.4587L22.901 15.4843C22.901 15.4843 25.2198 16.2963 27.7671 15.1414C31.0754 13.6377 26.2634 9.7279 26.2634 9.7279C26.2634 9.7279 29.2709 11.5324 30.1732 13.3369V13.3309Z" fill="black"/>
<path d="M30.2609 31.6084C25.0609 36.1888 18.9647 34.255 18.9647 34.255L18.1436 36.4896C23.5572 38.2941 25.2113 41.464 25.2113 41.464C32.279 42.8295 28.9707 37.9934 28.8203 37.3107C28.67 36.6279 28.0685 35.8911 28.8203 34.667C29.5722 33.443 30.2609 31.6084 30.2609 31.6084Z" fill="black"/>
<path d="M25.6646 27.6949C22.5488 27.6949 20.8887 24.7175 20.8676 24.6814C20.8285 24.6092 20.8556 24.516 20.9278 24.4769C20.9999 24.4378 21.0932 24.4649 21.1323 24.537C21.2165 24.6934 23.2496 28.3265 27.1232 27.1716C27.2044 27.1476 27.2857 27.1927 27.3097 27.2739C27.3338 27.3521 27.2887 27.4363 27.2075 27.4604C26.6571 27.6228 26.1428 27.6949 25.6616 27.6949H25.6646Z" fill="black"/>
<path d="M23.2563 17.178C23.2022 17.178 23.1481 17.148 23.121 17.0968C22.9135 16.6938 22.6999 16.4833 22.4984 16.4833H22.4924C22.2007 16.4893 21.933 16.9254 21.8548 17.0938C21.8187 17.169 21.7285 17.2021 21.6533 17.166C21.5781 17.1299 21.545 17.0427 21.5811 16.9675C21.6172 16.8893 21.9571 16.1946 22.4864 16.1855H22.4984C22.8232 16.1855 23.124 16.4472 23.3887 16.9645C23.4278 17.0397 23.3977 17.1299 23.3225 17.166C23.3014 17.178 23.2774 17.181 23.2533 17.181L23.2563 17.178Z" fill="black"/>
<path d="M29.8725 17.178C29.8184 17.178 29.7643 17.148 29.7372 17.0968C29.5297 16.6938 29.3161 16.4833 29.1146 16.4833H29.1086C28.8169 16.4893 28.5492 16.9254 28.471 17.0938C28.4349 17.169 28.3447 17.2021 28.2695 17.166C28.1943 17.1299 28.1613 17.0427 28.1973 16.9675C28.2334 16.8893 28.5733 16.1946 29.1026 16.1855H29.1146C29.4395 16.1855 29.7402 16.4472 30.0049 16.9645C30.044 17.0397 30.0139 17.1299 29.9387 17.166C29.9176 17.178 29.8936 17.181 29.8695 17.181L29.8725 17.178Z" fill="black"/>
<path d="M0.233398 48.8648C0.233398 48.8648 0.834902 42.8498 3.54167 39.8423C6.24844 36.8348 8.05295 34.7295 10.7597 34.7295C10.7597 34.7295 8.99129 37.6287 14.6695 38.3385C19.4815 38.94 18.88 36.2333 18.88 36.2333C19.8996 36.7505 22.6875 38.0919 23.692 39.2408C25.7973 41.6468 27.6018 44.9551 27.6018 44.9551" fill="#3B27FF"/>
<path d="M24.0019 39.4453L24.0205 39.4826C24.0205 39.4826 24.0112 39.4578 24.0019 39.4453Z" fill="#1B1B1B"/>
<path d="M20.9428 37.1383C20.9703 37.1506 20.9856 37.1506 20.9887 37.1444C20.9611 37.1353 20.9397 37.1292 20.9428 37.1383Z" fill="#1B1B1B"/>
<path d="M20.4044 36.7559C20.4044 36.7559 20.4266 36.7717 20.4393 36.7813C20.4298 36.7686 20.4171 36.7559 20.4044 36.7559Z" fill="#1B1B1B"/>
<path d="M24.0024 39.4449L23.9542 39.3516C23.9301 39.3606 23.9753 39.4028 24.0024 39.4449Z" fill="#1B1B1B"/>
<path d="M25.0929 40.7384L25.1111 40.7627C25.1111 40.7627 25.1385 40.7658 25.1507 40.7627L25.0929 40.7354V40.7384Z" fill="#1B1B1B"/>
<path d="M24.5433 39.9908C24.5433 39.9908 24.5526 39.9752 24.5526 39.9658C24.5464 39.9721 24.5433 39.9783 24.5433 39.9908Z" fill="#1B1B1B"/>
<path d="M19.2346 36.0674C19.2346 36.0674 19.241 36.0706 19.2441 36.0737C19.2981 36.0928 19.2695 36.0801 19.2346 36.0674Z" fill="#1B1B1B"/>
<path d="M10.7931 35.9983C10.7629 36.1159 10.6784 35.8353 10.6573 36.0103C10.6784 35.9922 10.7901 36.1371 10.7931 35.9983Z" fill="#1B1B1B"/>
<path d="M17.6827 37.8623C17.6827 37.8623 17.7049 37.875 17.7176 37.875C17.7145 37.8687 17.7049 37.8655 17.6827 37.8623Z" fill="#1B1B1B"/>
<path d="M16.7481 38.1949C16.721 38.1949 16.712 38.1859 16.6759 38.1949C16.6789 38.1949 16.6819 38.2009 16.6879 38.2009C16.7 38.1919 16.718 38.1859 16.7481 38.1919V38.1949Z" fill="#1B1B1B"/>
<path d="M15.6712 38.2363C15.6712 38.2363 15.6834 38.2455 15.6895 38.2485C15.7017 38.2485 15.7138 38.2485 15.723 38.2455L15.6682 38.2363H15.6712Z" fill="#1B1B1B"/>
<path d="M16.7623 38.6963L16.5763 38.7023C16.6273 38.7023 16.6963 38.7023 16.7623 38.6963Z" fill="#1B1B1B"/>
<path d="M5.78697 37.7783L5.76473 37.8133C5.76473 37.8133 5.78697 37.791 5.78697 37.7783Z" fill="#1B1B1B"/>
<path d="M16.0347 38.7385C16.0016 38.7144 15.9684 38.7024 15.9323 38.6934C15.9233 38.6994 15.9172 38.7024 15.9112 38.7084L16.0347 38.7355V38.7385Z" fill="#1B1B1B"/>
<path d="M1.27433 45.3825C1.31945 45.2231 1.21719 45.2862 1.1811 45.2411C1.21118 45.0456 1.26531 45.1689 1.32245 45.1148C1.33448 44.9915 1.28336 44.8772 1.31343 44.79C1.32847 44.79 1.33749 44.772 1.34952 44.796C1.32546 44.6517 1.46381 44.4261 1.42772 44.2547C1.43674 44.2456 1.44576 44.2426 1.45478 44.2426C1.40666 44.2547 1.36757 44.2426 1.3405 44.2306C1.36155 44.1584 1.33148 44.0832 1.39163 44.0712C1.37659 44.1133 1.39463 44.1253 1.40666 44.1494V44.0682C1.5029 44.0261 1.40065 44.1795 1.45779 44.1975C1.47584 44.0441 1.48185 43.8577 1.53899 43.7554C1.6202 43.7554 1.47283 44.0201 1.58712 43.8968L1.4999 44.0562C1.6593 43.9659 1.45478 44.1554 1.6202 44.0802C1.71945 43.8667 1.67133 43.8186 1.77358 43.605C1.75253 43.5419 1.70742 43.599 1.68636 43.5359C1.72847 43.19 1.96005 43.3584 1.95704 43.0938C1.93298 43.0156 1.85478 42.9554 1.96907 42.8141L2.02621 42.9043C2.12245 42.6968 1.95704 42.7329 2.11042 42.5374C2.12245 42.5885 2.06531 42.7118 2.08636 42.6847C2.20967 42.5705 2.08636 42.5644 2.13749 42.4562L2.21869 42.4652C2.31493 42.2456 2.36907 41.972 2.48937 41.7314C2.5014 41.7554 2.5014 41.8065 2.55253 41.7614C2.61869 41.605 2.70892 41.4486 2.80516 41.3013C2.90441 41.1509 3.02772 41.0246 3.13298 40.9013L3.14802 40.7599C3.16606 40.7359 3.20215 40.7329 3.19614 40.7659C3.28636 40.6757 3.16606 40.7359 3.17809 40.6697C3.21418 40.6065 3.2623 40.6126 3.25328 40.6637C3.33448 40.4532 3.55102 40.0953 3.75253 39.9599L3.73448 40.008C3.87884 39.8877 3.77358 39.7614 3.93599 39.6712L3.92095 39.7043C4.21569 39.4216 4.47133 39.0456 4.75102 38.8832C4.72095 38.775 5.05478 38.6156 4.97358 38.5073C5.17809 38.381 5.15102 38.4441 5.40666 38.2396C5.46982 38.1795 5.43373 38.0893 5.49689 37.999L5.54802 38.0441L5.59614 37.8877H5.71042L5.76757 37.8065C5.73749 37.8336 5.68636 37.8456 5.67433 37.8276C5.76155 37.6923 5.97508 37.587 6.00516 37.6111C6.07734 37.5088 6.15253 37.4096 6.22772 37.3103C6.24275 37.3374 6.20366 37.3855 6.1826 37.4336C6.27283 37.2441 6.2608 37.4607 6.342 37.2893C6.31493 37.2953 6.32396 37.2502 6.31493 37.2381C6.40817 37.205 6.55554 37.0637 6.65478 36.9494L6.66681 37.0035C6.87433 36.8261 7.07884 36.6035 7.31343 36.4111C7.21719 36.4652 7.1811 36.384 7.24727 36.3208L7.31945 36.3539C7.33749 36.2817 7.22922 36.39 7.28636 36.2727C7.3826 36.2096 7.39764 36.2938 7.36155 36.3509L7.45478 36.2486C7.47584 36.2607 7.45478 36.2908 7.46681 36.3178C7.48486 36.2486 7.69839 36.2336 7.71644 36.1223L7.73448 36.1344C7.9811 35.969 8.07734 35.8637 8.28486 35.7434C8.25779 35.6862 8.34802 35.6532 8.38411 35.572C8.54952 35.4938 8.75403 35.4667 8.94351 35.3674C9.06982 35.2832 8.96456 35.3013 9.01268 35.2411C9.04576 35.2923 9.24426 35.2141 9.15403 35.2893C9.39163 35.196 9.45779 35.1689 9.76155 35.0486C9.72245 35.0336 9.68035 35.0336 9.69539 35.0096C9.75253 34.9855 9.83072 34.9975 9.83072 35.0306L9.81569 35.0396C9.89087 35.0096 9.97208 34.9945 10.0593 34.9885C10.1014 34.9855 10.1495 34.9825 10.1856 34.9825C10.2097 34.9825 10.2277 34.9885 10.2397 34.9975C10.2939 35.0306 10.2939 35.0577 10.3059 35.0637C10.3059 35.0667 10.3149 35.0697 10.333 35.0697H10.327C10.342 35.0787 10.354 35.1088 10.3631 35.1539C10.3631 35.1449 10.357 35.1659 10.354 35.172C10.351 35.181 10.348 35.184 10.345 35.181C10.339 35.181 10.336 35.1659 10.333 35.1479C10.3209 35.1389 10.3029 35.1419 10.2849 35.1299C10.2849 35.5178 10.1856 35.7404 10.2879 36.0562C10.2608 36.1223 10.2578 36.2156 10.2758 36.3178C10.2939 36.4201 10.354 36.5223 10.4052 36.6306C10.4503 36.7419 10.5405 36.8261 10.5976 36.9223C10.6608 37.0156 10.7119 37.1058 10.757 37.178L10.7721 37.1389C10.8623 37.172 10.8292 37.2261 10.8683 37.2772C10.8834 37.2471 10.8262 37.187 10.8803 37.208C11.4187 37.6682 12.0412 38.0532 12.6909 38.3028C12.9285 38.387 12.8864 38.1404 13.1631 38.3118L13.0578 38.3629C13.5631 38.4141 14.0593 38.5765 14.5495 38.5765C14.5194 38.5885 14.5164 38.6096 14.4683 38.6035C14.5616 38.6787 14.8473 38.6517 14.8533 38.6065C14.9285 38.6186 14.8653 38.6486 14.9104 38.6757C15.0097 38.7178 15.1751 38.6306 15.2262 38.6877C15.2352 38.6968 15.1961 38.7028 15.1751 38.7058C15.2443 38.6847 15.4879 38.7389 15.4277 38.6727C15.6082 38.7148 15.7796 38.6517 15.927 38.6908C16.0232 38.6216 16.2428 38.7299 16.2698 38.6246C16.2608 38.7268 16.6037 38.6787 16.7149 38.6216C16.6788 38.6547 16.8202 38.6456 16.7811 38.6908C16.9164 38.6847 17.0367 38.6276 17.0037 38.5825C17.139 38.6186 17.2593 38.5674 17.3646 38.5253C17.4698 38.4832 17.557 38.4261 17.6533 38.4772C18.0352 38.3028 18.36 38.0532 18.6037 37.7584C18.6337 37.7945 18.5706 37.8908 18.4894 37.9509C18.4112 38.0171 18.333 38.0802 18.3721 38.1193C18.4412 38.0532 18.4984 37.99 18.5495 37.9329C18.5976 37.8667 18.6337 37.8005 18.6758 37.7404C18.76 37.6201 18.8172 37.4847 18.9164 37.3344C18.9646 37.2532 18.9405 37.4065 18.9315 37.4396C19.0006 37.2622 19.0638 37.0938 19.1029 36.9223C19.1149 36.8862 19.1179 36.8261 19.124 36.805V36.7629C19.124 36.7359 19.1179 36.7058 19.1029 36.6607C19.1119 36.6727 19.1209 36.6938 19.13 36.7118C19.127 36.6877 19.142 36.6877 19.0969 36.6306L19.1089 36.6667C19.0728 36.6486 19.0367 36.5705 18.9946 36.4622C18.9826 36.4291 18.9585 36.372 18.9585 36.3599C18.9646 36.3509 18.9676 36.3419 18.9646 36.3329C19.0247 36.5133 19.1631 36.4712 19.1781 36.6637C19.1841 36.6577 19.1901 36.6366 19.1781 36.5945C19.2082 36.6186 19.2112 36.6426 19.2052 36.6787C19.2593 36.6787 19.2412 36.6156 19.3285 36.6607C19.3134 36.6787 19.2984 36.6787 19.2834 36.7028C19.2954 36.6847 19.3585 36.6908 19.4127 36.7028C19.4668 36.7148 19.527 36.7389 19.5931 36.781C19.5781 36.79 19.5871 36.8141 19.545 36.79C19.7886 36.9073 20.0052 36.8953 20.2488 37.0697C20.1255 37.1148 20.324 37.1449 20.2969 37.2261L20.4473 37.2772L20.4112 37.2111C20.5345 37.2772 20.6698 37.2832 20.76 37.3644L20.6518 37.3464L20.8864 37.4577L20.7721 37.3584C20.9164 37.3885 20.8112 37.2562 20.9616 37.3674C20.9255 37.3554 21.0819 37.4366 21.1209 37.5148C21.1931 37.5238 21.2713 37.5359 21.3495 37.605C21.3585 37.6411 21.2834 37.6742 21.2894 37.6983C21.3826 37.6712 21.5811 37.8426 21.6894 37.8246C21.6563 37.8246 21.6322 37.8607 21.6352 37.8757L21.7134 37.8577C21.7585 37.9058 21.7616 37.9178 21.7345 37.9449C21.8939 38.0532 21.7375 37.8216 21.9089 37.981C21.8909 37.975 21.8939 37.987 21.8578 37.975C22.0382 38.1163 22.2548 38.1795 22.4112 38.3238C22.4142 38.4291 22.2488 38.2366 22.2668 38.3359C22.5225 38.4923 22.8443 38.6065 23.0548 38.8111L23.0187 38.769C23.127 38.7028 23.151 38.9494 23.2954 39.0065C23.2623 38.9885 23.2172 39.0246 23.2322 39.0216C23.3676 39.1659 23.539 39.2682 23.7676 39.4847L23.7194 39.4757C23.7766 39.584 23.9119 39.7253 23.9811 39.8336C24.0292 39.8426 24.0713 39.9058 24.0773 39.8426C24.1916 40.2577 24.6217 40.378 24.7209 40.7479C24.6939 40.7148 24.6397 40.6847 24.6578 40.7118L24.8593 40.9374C24.8864 40.8862 24.8593 40.8862 24.8593 40.8111C24.9074 40.8231 24.9766 40.8772 25.0187 40.9374C24.9104 40.8471 24.9525 40.9885 24.9615 41.0517C24.9676 41.0336 24.9946 41.0396 25.0037 41.0276C25.0217 41.208 25.1059 40.9855 25.1811 41.199L25.151 41.205C25.2082 41.2622 25.2803 41.3013 25.3255 41.3765C25.2984 41.4396 25.2533 41.3223 25.2082 41.3464C25.2803 41.4426 25.4397 41.4757 25.4548 41.602C25.4097 41.569 25.3676 41.5088 25.3255 41.4757C25.3375 41.6141 25.3585 41.6141 25.4006 41.6953V41.6862L25.4879 41.8727L25.4728 41.8186C25.6864 41.8547 25.6713 42.0562 25.8698 42.1705C25.6773 42.0592 25.8037 42.1735 25.7405 42.2005C25.7525 42.2547 25.7796 42.3329 25.7525 42.3238C25.8518 42.375 25.8037 42.4832 25.948 42.5524C25.933 42.5705 26.0022 42.6396 25.945 42.6517C26.0292 42.7479 25.96 42.6065 25.9901 42.6005C26.1585 42.7238 26.1616 43.0306 26.3961 43.2141C26.5585 43.3945 26.6458 43.3945 26.7961 43.5659C26.8052 43.6502 26.6969 43.5539 26.6969 43.5539C26.733 43.6742 26.7841 43.7494 26.8653 43.8336C26.8382 43.8246 26.8352 43.8517 26.8322 43.8938C26.8834 43.9689 26.9315 43.9058 26.9676 44.0261C26.9345 44.0201 26.8894 44.0171 26.8443 43.993C26.9164 44.0742 27.0067 44.1464 27.0819 44.2336C27.0638 44.2787 26.9976 44.2035 26.9555 44.1825C27.0337 44.2817 27.151 44.4471 27.2232 44.4502L27.2022 44.3689C27.2292 44.408 27.1691 44.4171 27.142 44.393C27.0458 44.3238 27.0818 44.2487 27.0969 44.2306L27.151 44.2938C27.2202 44.1584 26.9706 44.0261 26.8924 43.8847L27.0067 43.8938L26.8563 43.7915C26.8563 43.7494 26.8924 43.7013 26.9435 43.7614C26.9225 43.6381 26.8623 43.6923 26.8533 43.581C26.8533 43.5659 26.8623 43.5689 26.8683 43.575L26.7841 43.4938C26.8112 43.5028 26.8322 43.4426 26.8563 43.5088C26.7961 43.3073 26.6247 43.2682 26.6428 43.1659L26.6578 43.178C26.4803 42.9554 26.5856 43.19 26.4052 43.0547L26.4713 42.8441L26.3991 42.8592C26.3871 42.8321 26.36 42.781 26.3871 42.775C26.2879 42.7088 26.3721 42.808 26.2999 42.775C26.2788 42.6216 26.0653 42.4682 26.1405 42.381C26.0683 42.3689 26.1796 42.5133 26.0683 42.4111C26.1435 42.3118 25.957 42.2787 25.93 42.1404C26.0022 42.1404 26.0412 42.2577 26.0172 42.1223C25.8909 42.1133 25.8969 41.9028 25.8187 41.8246C25.7465 41.8667 25.6593 41.6502 25.533 41.5178C25.5631 41.5118 25.3736 41.2141 25.3014 41.0577H25.3164C25.2292 41.0757 25.139 40.9253 25.0518 40.8351C25.0939 40.8111 25.124 40.8171 25.1811 40.8592L25.1089 40.7629C25.0698 40.7569 25.0367 40.7329 24.9856 40.6787L25.0518 40.6667C24.9555 40.5404 24.8022 40.4562 24.7119 40.2667C24.6608 40.2938 24.6819 40.4923 24.5225 40.3449C24.5435 40.3208 24.5796 40.2817 24.6247 40.3178C24.6097 40.3058 24.5646 40.2817 24.5525 40.2426L24.6458 40.2787C24.6067 40.1915 24.5826 40.2667 24.5405 40.2065C24.5766 40.1795 24.5315 40.1434 24.5676 40.1314C24.5826 40.1434 24.5916 40.1945 24.6247 40.2065C24.5796 40.1344 24.5375 40.0381 24.5435 39.993C24.5285 40.0141 24.4954 40.0291 24.4533 39.987C24.351 39.8667 24.4623 39.9118 24.4202 39.8246C24.3721 39.8126 24.333 39.7133 24.2788 39.7554C24.2488 39.7193 24.2698 39.6923 24.2728 39.6682C24.2006 39.6201 24.0172 39.3795 24.0262 39.4938L24.0352 39.5118L24.0232 39.5028C23.9119 39.4216 23.8277 39.3103 23.7495 39.193C23.6593 39.0847 23.5811 38.9584 23.4668 38.8832L23.4819 38.8682C23.3465 38.775 23.1991 38.6426 23.0788 38.6096C23.0428 38.5795 23.0157 38.5073 23.0488 38.4983C22.9405 38.4381 22.9134 38.4502 22.7931 38.3148C22.9164 38.3569 22.7781 38.2607 22.9134 38.3659C22.7961 38.2547 22.7871 38.2035 22.6097 38.1584C22.6909 38.1434 22.5495 38.0321 22.4773 38.002L22.5465 38.0983C22.4713 38.0562 22.4142 38.0111 22.351 37.9659L22.4262 37.9238C22.2006 37.6682 21.8458 37.7404 21.7134 37.4847C21.6142 37.4847 21.8458 37.608 21.7495 37.6201C21.6262 37.5359 21.545 37.3644 21.5059 37.3404C21.3495 37.202 21.2864 37.3404 21.1119 37.2111C21.124 37.2471 21.1119 37.3223 20.9585 37.2682C20.8322 37.187 20.8533 37.0817 20.9435 37.1088C20.9766 37.1238 20.9886 37.1389 20.9826 37.1479C21.0307 37.1629 21.0909 37.184 21.0518 37.1299L21.0217 37.1449C20.9706 37.0847 20.7871 36.9885 20.8503 36.9735C20.739 36.9404 20.7871 36.9885 20.8533 37.0426C20.7029 36.9163 20.5916 36.8983 20.4292 36.784C20.4503 36.8111 20.4593 36.8532 20.4322 36.8381C20.1916 36.6727 20.2969 36.8231 20.1164 36.7449C20.0352 36.6577 20.1976 36.6757 20.0052 36.6156C19.9119 36.5374 20.0142 36.5404 20.0683 36.5434C19.8849 36.5073 19.7856 36.3599 19.6984 36.3058L19.7916 36.3299C19.7345 36.3148 19.6954 36.2938 19.6533 36.2727L19.6773 36.3449C19.6322 36.3118 19.5901 36.2908 19.6022 36.2697C19.536 36.2757 19.6022 36.369 19.4788 36.3599C19.3916 36.2847 19.1931 36.2487 19.151 36.1494C19.3134 36.2426 19.3044 36.2216 19.2924 36.1885C19.2803 36.1584 19.2533 36.1133 19.4127 36.1885C19.3495 36.1674 19.2803 36.1314 19.1901 36.0742C19.1751 36.0592 19.2022 36.0622 19.2262 36.0742C18.8443 35.8096 19.0728 36.0862 18.745 35.9178C18.751 35.8968 18.7149 35.8607 18.6698 35.8216C18.6247 35.7855 18.5616 35.7434 18.5555 35.7494C18.6067 35.7674 18.6578 35.8186 18.6518 35.8366C18.6548 35.8517 18.6428 35.8547 18.6397 35.8697C18.6397 35.8877 18.6367 35.9028 18.6247 35.9178C18.6187 35.9178 18.6127 35.9118 18.6097 35.9118C18.6157 36.1314 18.6879 36.2487 18.6939 36.3629C18.6939 36.3178 18.6939 36.2727 18.6939 36.2276C18.751 36.3359 18.751 36.4381 18.7721 36.5975C18.742 36.5975 18.739 36.4411 18.73 36.4893C18.7781 36.6065 18.748 36.6787 18.7149 36.7659C18.6909 36.8261 18.6428 36.8832 18.6488 36.9584C18.6067 37.0126 18.5766 36.9434 18.5435 36.9885C18.5285 37.1449 18.4413 37.1178 18.3931 37.2622C18.4623 37.2532 18.4563 37.2351 18.4413 37.3644C18.4743 37.2772 18.5225 37.205 18.5375 37.1148C18.5435 37.178 18.5375 37.2411 18.5255 37.3043C18.5766 37.2351 18.5766 37.1329 18.6037 37.0908C18.6127 37.184 18.6037 37.175 18.6578 37.1539C18.5465 37.2291 18.5856 37.3855 18.4653 37.4697L18.3631 37.3855C18.2728 37.4336 18.2397 37.5118 18.1826 37.587C18.1194 37.6532 18.0623 37.7494 17.936 37.7975C17.9631 37.7885 17.9961 37.7885 18.0202 37.7735C18.0202 37.8396 17.8788 37.8577 17.8157 37.9178C17.8037 37.8757 17.7495 37.8847 17.7044 37.8757C17.7255 37.9118 17.524 37.9419 17.533 38.0321L17.4006 38.0171C17.1931 38.0682 17.1901 38.1975 16.9736 38.2336C17.0277 38.1735 16.9285 38.1614 17.0608 38.0983C16.9916 38.1133 16.9285 38.1163 16.9315 38.1464C16.8894 38.1314 16.745 38.2426 16.6728 38.2005C16.6458 38.2216 16.6397 38.2697 16.5585 38.2727C16.5495 38.2637 16.5585 38.2517 16.5585 38.2517C16.5585 38.2727 16.4322 38.2938 16.5104 38.3359C16.2788 38.2306 15.8788 38.3659 15.6834 38.2456C15.524 38.2667 15.3315 38.2577 15.1841 38.2456C15.1931 38.2336 15.1841 38.2246 15.2142 38.2306C15.0187 38.1705 15.0788 38.3479 14.8563 38.2817C14.748 38.2005 14.9826 38.2547 14.9104 38.2216C14.8954 38.0742 14.6337 38.2216 14.4924 38.1043H14.5315C14.4232 38.0351 14.2428 38.1103 14.0533 38.0712C14.0533 38.0712 14.0653 38.0592 14.0593 38.0502C13.9179 38.1043 13.6653 38.0923 13.4819 38.0622C13.551 38.0201 13.5691 38.0532 13.548 37.987C13.4668 37.975 13.551 38.0832 13.3856 38.0592C13.3405 38.0171 13.2322 37.9599 13.2322 37.8968L13.3826 37.9299C13.3255 37.8336 13.1871 37.8847 13.1119 37.8517L13.13 37.8216C12.8954 37.7795 12.8713 37.8577 12.6307 37.7674L12.6458 37.8005C12.4834 37.8366 12.5525 37.7163 12.3991 37.7283L12.3931 37.6321C12.2969 37.6321 12.0683 37.587 11.9089 37.5268C12.0262 37.5058 12.2037 37.572 12.33 37.572C12.2428 37.5449 12.0563 37.4487 11.9931 37.4697C12.0292 37.4787 12.0803 37.4787 12.1044 37.5058C11.9781 37.5178 11.8247 37.4877 11.6683 37.4005C11.7255 37.3344 11.6382 37.2592 11.53 37.178C11.4758 37.1389 11.4187 37.0938 11.3736 37.0517C11.3315 37.0065 11.3074 36.9524 11.3074 36.9073C11.2443 36.8682 11.1871 36.8201 11.133 36.769C11.0758 36.7178 11.0488 36.6486 11.0097 36.5855C10.9225 36.4622 10.8924 36.3118 10.8262 36.1644C10.73 36.3178 10.7991 36.0742 10.6728 36.1283C10.6458 36.0502 10.6397 36.0171 10.6488 36.0111C10.6488 35.9268 10.6879 35.8396 10.7059 35.7614C10.742 35.7043 10.742 35.8336 10.7721 35.8246C10.7751 35.6592 10.8202 35.7554 10.8623 35.6502C10.8112 35.6712 10.7961 35.59 10.8232 35.4998L10.748 35.6261C10.724 35.5058 10.754 35.4547 10.7961 35.4096C10.8172 35.3885 10.8352 35.3644 10.8473 35.3344C10.8503 35.3253 10.8533 35.3193 10.8563 35.3073C10.8623 35.2893 10.8563 35.3073 10.8683 35.2562C10.8864 35.205 10.9044 35.1539 10.9194 35.0908L10.8984 35.2532C10.9255 35.1659 10.9796 35.0336 11.0367 34.8862C11.1149 34.7299 11.2082 34.5494 11.2713 34.4141C11.2262 34.4171 11.2022 34.4171 11.1661 34.4231C11.124 34.4291 11.0819 34.4381 11.0428 34.4441C10.9646 34.4592 10.8954 34.4772 10.8352 34.5013C10.8142 34.4862 10.7901 34.4502 10.9104 34.4351C10.7661 34.4351 10.6006 34.4502 10.4412 34.4682C10.2849 34.4802 10.1074 34.5163 10.0412 34.5404C9.85779 34.5885 9.68937 34.6306 9.55102 34.6396L9.56907 34.6005C9.50591 34.6276 9.47283 34.6908 9.38561 34.6787C9.38561 34.6637 9.40366 34.6396 9.37358 34.6456C9.3405 34.6637 9.2202 34.7449 9.13298 34.7599L9.19012 34.6998C9.0217 34.7359 8.9014 34.805 8.79614 34.8742C8.69388 34.9524 8.60666 35.0396 8.48336 35.1088C8.4623 35.0637 8.38712 35.0607 8.2999 35.0787C8.21569 35.0998 8.12245 35.1389 8.0593 35.1659V35.1509C7.87584 35.2411 7.74351 35.3494 7.62321 35.4667C7.4999 35.578 7.38862 35.6953 7.2593 35.8246C7.00967 35.8697 6.63373 36.2607 6.33298 36.4592C6.38711 36.4351 6.37809 36.5223 6.33899 36.5735C6.26381 36.6156 6.21569 36.781 6.16155 36.7058L6.18561 36.6877C6.07734 36.6637 5.97208 36.805 5.87283 36.8953L5.93899 36.9975C5.56305 37.1178 5.3405 37.6953 5.09689 37.7253C5.0608 37.8065 4.98862 37.8817 4.95253 37.9629L4.90742 37.9148C4.73599 38.0742 4.65178 38.1554 4.46832 38.378L4.47433 38.3028C4.36005 38.4201 4.47433 38.5795 4.37509 38.6908L4.27584 38.6607C4.08636 38.8712 3.83373 39.0276 3.71042 39.2923C3.70441 39.2802 3.68937 39.2562 3.71644 39.2171C3.62621 39.3133 3.32546 39.5569 3.45478 39.608C3.38862 39.5479 3.25629 39.8276 3.18712 39.975L3.15403 39.9148C3.13298 40.0682 3.14802 40.0862 3.04877 40.2426C3.01569 40.2727 2.98561 40.2426 3.03373 40.2065C2.91945 40.3028 3.00366 40.3268 2.88035 40.4532V40.375C2.79614 40.4953 2.8202 40.4983 2.81418 40.5945C2.78411 40.6847 2.64576 40.8201 2.58561 40.808C2.60366 40.8441 2.59764 40.9374 2.53448 41.0005C2.51042 41.0005 2.51644 40.9644 2.51945 40.9494C2.35103 41.1389 2.39915 41.3073 2.2608 41.4216C2.23975 41.4156 2.22772 41.4216 2.21268 41.4276C2.31193 41.2562 2.39012 41.1178 2.38712 41.1359C2.33599 41.1058 2.24877 41.2411 2.24275 41.0877C2.21569 41.2231 2.19163 41.4607 2.09238 41.584C2.08336 41.587 2.07433 41.593 2.06531 41.593V41.575C2.04426 41.605 2.03524 41.6351 2.02621 41.6652C1.99313 41.7043 1.97509 41.7314 1.95403 41.7735C1.9029 41.7674 1.85178 41.9268 1.81569 41.999C1.87584 42.0201 1.8217 42.1103 1.91193 42.0441C1.9029 42.0532 1.91193 42.0261 1.93298 41.978C1.93599 41.9659 1.942 41.9539 1.942 41.9449V41.9509C1.96606 41.9028 1.99313 41.8426 2.02621 41.7705C2.02621 41.8426 2.02621 41.9118 1.95403 41.975C1.97208 42.0291 1.99012 42.0893 1.99915 42.1193C1.87283 42.1765 1.7405 42.3479 1.67734 42.3509C1.60817 42.5855 1.47884 42.8893 1.52997 43.0697C1.51794 43.1389 1.46681 43.1299 1.43975 43.1479C1.44275 43.1058 1.46381 43.0637 1.45478 43.0366C1.42772 43.172 1.32245 43.4216 1.38862 43.4787C1.29539 43.6291 1.34952 43.3614 1.28336 43.59L1.27133 43.5509C0.982604 43.9479 1.22922 44.3329 0.913431 44.775C0.934484 44.7449 0.943506 44.7268 0.958544 44.7238C0.723957 45.2712 0.705912 45.9088 0.471326 46.4471C0.414183 46.6035 0.462303 46.6306 0.480348 46.7389L0.40516 46.7599L0.450273 46.9434C0.462303 47.193 0.203657 47.3253 0.260799 47.6502L0.311927 47.6201C0.28486 47.7283 0.278845 47.9689 0.230724 47.9449C0.236739 47.9569 0.27283 47.987 0.242754 48.0261H0.206664L0.227717 48.3028C0.173581 48.5073 0.0923784 48.2486 0.0442581 48.5554C0.0442581 48.6727 0.107416 48.8953 0.137491 48.8532C0.143506 48.805 0.173581 48.7359 0.209672 48.7389L0.215687 48.8441C0.317942 48.8742 0.414183 48.9614 0.516439 48.7238L0.474333 48.5404L0.531476 48.4923L0.513431 48.6396C0.573581 48.5614 0.537491 48.5043 0.516439 48.4411C0.546514 48.4321 0.567566 48.408 0.582604 48.375L0.507416 48.1885C0.552529 48.1735 0.576589 48.2757 0.615687 48.1644C0.582604 48.0772 0.513431 48.2276 0.501401 48.0893C0.561551 48.0141 0.594634 48.0441 0.570574 47.9389C0.600649 47.9299 0.612679 47.9539 0.618694 47.993C0.597642 47.8998 0.642754 47.7614 0.594634 47.7073C0.666814 47.6291 0.630724 47.4096 0.726965 47.4366C0.70892 47.4065 0.678845 47.2712 0.690875 47.19C0.7811 47.3584 0.754033 46.8923 0.874333 46.9554C0.787115 46.8261 0.910424 46.5584 0.892378 46.3569C0.898393 46.369 0.910424 46.393 0.901401 46.408C0.934484 46.3028 0.970574 46.2787 1.00666 46.2156C0.925461 46.1825 0.943506 46.0111 0.913431 45.9088C1.02772 45.7975 0.994634 46.0111 1.08486 45.99C1.01268 45.981 1.06982 45.7464 1.00065 45.7765C1.07584 45.6893 1.04576 45.6983 1.12997 45.6652C1.02772 45.6201 1.12997 45.569 1.09087 45.4697C1.18411 45.3404 1.20215 45.4607 1.21118 45.2953C1.26531 45.2291 1.2623 45.3795 1.2623 45.3795L1.27433 45.3825ZM2.46531 41.7253C2.45027 41.7554 2.43824 41.7795 2.42922 41.7975C2.43524 41.7825 2.44727 41.7614 2.4623 41.7253H2.46531ZM2.6217 41.4426C2.60065 41.4757 2.57659 41.5178 2.54952 41.5629C2.52546 41.5629 2.51042 41.5419 2.52847 41.5118C2.53148 41.5359 2.5796 41.4727 2.6217 41.4396V41.4426ZM1.90591 41.8517C1.92095 41.8005 1.93899 41.7885 1.95403 41.7885C1.94501 41.8126 1.93599 41.8396 1.92095 41.8757V41.8847C1.92095 41.8847 1.90892 41.8637 1.90591 41.8517Z" fill="#1B1B1B"/>
<path d="M5.55748 38.0623L5.54477 38.0527L5.53524 38.0845L5.55748 38.0623Z" fill="#1B1B1B"/>
<path d="M19.13 36.7148C19.13 36.7148 19.13 36.7211 19.13 36.7242C19.1425 36.7524 19.1362 36.7367 19.13 36.7148Z" fill="#1B1B1B"/>
<path d="M21.1237 37.5171C21.0906 37.5111 21.0605 37.5081 21.0304 37.499C21.0725 37.5291 21.1057 37.5472 21.1237 37.5171Z" fill="#1B1B1B"/>
<path d="M16.7854 38.6934L16.7628 38.6966L16.7854 38.6934Z" fill="#1B1B1B"/>
<path d="M20.9161 37.4336C20.9552 37.4697 20.9914 37.4878 21.0305 37.4999C20.9974 37.4758 20.9582 37.4456 20.9161 37.4336Z" fill="#1B1B1B"/>
<path d="M23.0274 38.4502L23.0731 38.4106C22.997 38.365 23.0578 38.4289 23.0274 38.4502Z" fill="#1B1B1B"/>
<path d="M22.1427 38.1973L22.1908 38.2726L22.2541 38.2485L22.1427 38.1973Z" fill="#1B1B1B"/>
<path d="M21.9267 37.5775L21.9629 37.5896L21.8302 37.5322L21.9267 37.5775Z" fill="#1B1B1B"/>
<path d="M15.8664 38.1822L15.8905 38.2545C15.9477 38.2424 15.9568 38.1611 15.8664 38.1822Z" fill="#1B1B1B"/>
<path d="M12.6825 37.7375C12.6614 37.6922 12.583 37.6409 12.5196 37.656C12.586 37.6832 12.6433 37.7345 12.6825 37.7375Z" fill="#1B1B1B"/>
<path d="M5.75815 37.0388L5.79128 36.9756L5.71297 37.078L5.75815 37.0388Z" fill="#1B1B1B"/>
<path d="M38.8921 15.601C38.874 15.4597 38.8139 15.3243 38.7357 15.2071C38.6575 15.0928 38.5522 15.0025 38.477 14.8853C38.2725 14.5634 38.1492 14.1785 38.044 13.8176C38.0079 13.6883 37.7342 13.7725 37.7131 13.8777C37.5477 14.7078 37.3823 15.5379 37.2139 16.368C37.2139 16.377 37.2139 16.383 37.2079 16.392C37.0725 16.3078 36.8861 16.2567 36.6785 16.2567C36.2695 16.2567 35.9387 16.4612 35.9387 16.7138C35.9387 16.9665 36.2695 17.171 36.6785 17.171C37.0545 17.171 37.3643 16.9965 37.4094 16.774C37.4394 16.7529 37.4635 16.7289 37.4695 16.6988C37.6169 15.965 37.7613 15.2341 37.9086 14.5003C37.9658 14.6446 38.0289 14.786 38.1041 14.9213C38.2304 15.1529 38.456 15.3183 38.5312 15.577C38.5733 15.7183 38.5733 15.9078 38.5161 16.0251C38.441 16.1785 38.7718 16.1574 38.8259 16.0462C38.8891 15.9138 38.9041 15.7574 38.8861 15.6131L38.8921 15.601Z" fill="#212121"/>
<path d="M38.7263 20.6331C38.7383 20.5729 38.6541 20.5639 38.615 20.5669C38.1789 20.597 37.7428 20.6241 37.3067 20.6541C37.2556 20.6571 37.1774 20.6902 37.1654 20.7474C37.0421 21.3639 36.9187 21.9804 36.7954 22.6C36.7202 22.5789 36.639 22.5639 36.5518 22.5639C36.239 22.5639 35.9864 22.7203 35.9864 22.9128C35.9864 23.1053 36.239 23.2616 36.5518 23.2616C36.8646 23.2616 37.1172 23.1053 37.1172 22.9128C37.1172 22.8406 37.0811 22.7714 37.018 22.7173C37.1323 22.1429 37.2466 21.5714 37.3608 20.997C37.3729 20.9338 37.3879 20.8677 37.3999 20.8045C37.7518 20.7804 38.1037 20.7564 38.4556 20.7353C38.3624 21.2406 38.2721 21.7459 38.1789 22.2481C38.1067 22.2271 38.0255 22.215 37.9413 22.215C37.6285 22.215 37.3759 22.3714 37.3759 22.5639C37.3759 22.7564 37.6285 22.9128 37.9413 22.9128C38.2541 22.9128 38.5067 22.7564 38.5067 22.5639C38.5067 22.4917 38.4706 22.4226 38.4045 22.3654C38.4947 21.8692 38.5849 21.3729 38.6751 20.8767C38.6902 20.7955 38.7052 20.7143 38.7202 20.6331H38.7263Z" fill="#212121"/>
</g>
</svg>
