<svg width="42" height="43" viewBox="0 0 42 43" fill="none" xmlns="http://www.w3.org/2000/svg">
<g filter="url(#filter0_d_6346_21245)">
<circle cx="21" cy="21.0977" r="20" fill="white"/>
</g>
<mask id="mask0_6346_21245" style="mask-type:luminance" maskUnits="userSpaceOnUse" x="1" y="1" width="40" height="41">
<path d="M21 41.0977C32.0457 41.0977 41 32.1434 41 21.0977C41 10.052 32.0457 1.09766 21 1.09766C9.9543 1.09766 1 10.052 1 21.0977C1 32.1434 9.9543 41.0977 21 41.0977Z" fill="white"/>
</mask>
<g mask="url(#mask0_6346_21245)">
<path d="M23.707 39.7441C21.4935 37.2148 18.2935 36.4358 18.2935 36.4358L18.9581 34.1712C20.5912 34.7035 22.3266 34.881 24.089 34.6343C31.2018 33.6358 36.0258 26.093 34.8589 17.7862C33.695 9.47945 26.9822 3.55463 19.8664 4.55313C12.7506 5.55163 7.92957 13.0945 9.09649 21.4013C9.63484 25.2388 11.3581 28.5712 13.7581 30.9441C13.7581 30.9441 12.5792 33.4283 12.2784 35.2328C12.2784 35.2328 7.16566 34.3306 3.55664 40.3456" fill="#FFF7EB"/>
<path d="M3.46919 40.296C3.4511 40.3502 3.4903 40.3382 3.57172 40.2055L3.58981 40.0879L3.46919 40.296Z" fill="#1B1B1B"/>
<path d="M4.12238 39.4742C4.19757 39.3058 4.29682 39.1163 4.18554 39.1825C4.11637 39.3569 4.08027 39.384 4.02012 39.5795C3.93892 39.7118 3.85772 39.796 3.85772 39.7659C3.83667 39.8201 3.71637 39.9614 3.69531 40.0486C3.83967 39.9013 3.98103 39.6907 4.10133 39.4471C4.14043 39.405 4.12238 39.4592 4.12238 39.4742Z" fill="#1B1B1B"/>
<path d="M13.1807 30.2324L13.2409 30.3077C13.2258 30.2866 13.2048 30.2595 13.1807 30.2324Z" fill="#1B1B1B"/>
<path d="M9.27734 21.9059C9.28939 21.9751 9.29843 22.0052 9.30445 22.0083C9.28939 21.945 9.28036 21.8908 9.27734 21.9059Z" fill="#1B1B1B"/>
<path d="M9.13574 20.3242C9.13574 20.3573 9.13574 20.3875 9.13875 20.4176C9.13875 20.3814 9.13875 20.3453 9.13574 20.3242Z" fill="#1B1B1B"/>
<path d="M13.1802 30.2312L13.0271 30.0361C13.0031 30.0361 13.1021 30.1382 13.1802 30.2312Z" fill="#1B1B1B"/>
<path d="M5.3764 37.792C5.34026 37.8311 5.31316 37.8673 5.28906 37.9004L5.3764 37.804C5.3764 37.804 5.3764 37.798 5.3764 37.792Z" fill="#1B1B1B"/>
<path d="M12.7028 33.9658L12.6816 34.0382C12.6816 34.0624 12.6816 34.0835 12.6816 34.1046L12.7028 33.9658Z" fill="#1B1B1B"/>
<path d="M10.4708 35.3839C10.5402 35.3749 10.5613 35.3326 10.5854 35.3115C10.5492 35.3357 10.4949 35.3447 10.4346 35.3598C10.4346 35.3688 10.4466 35.3749 10.4708 35.3839Z" fill="#1B1B1B"/>
<path d="M6.01441 37.4307L5.95117 37.4939C5.96924 37.4788 5.99634 37.4517 6.01441 37.4307Z" fill="#1B1B1B"/>
<path d="M13.4873 31.8529C13.4873 31.8529 13.5061 31.8404 13.5123 31.8311C13.5061 31.8311 13.4967 31.8373 13.4873 31.8529Z" fill="#1B1B1B"/>
<path d="M20.931 37.3115C20.931 37.3115 20.931 37.3181 20.9277 37.3181C20.9476 37.3248 20.9542 37.3248 20.931 37.3115Z" fill="#1B1B1B"/>
<path d="M23.6979 39.751L23.6618 39.7148C23.6618 39.7148 23.6437 39.7148 23.6377 39.7239L23.7009 39.751H23.6979Z" fill="#1B1B1B"/>
<path d="M28.0163 6.68886C27.7872 6.48682 28.4476 6.92709 28.0978 6.63458C28.1219 6.67076 27.7208 6.45666 28.0163 6.68886Z" fill="#1B1B1B"/>
<path d="M5.43652 37.7379L5.52688 37.6445C5.48471 37.6867 5.45761 37.7168 5.43652 37.7379Z" fill="#1B1B1B"/>
<path d="M28.0989 6.63561L28.0615 6.60449C28.0771 6.61694 28.0864 6.62627 28.0989 6.63561Z" fill="#1B1B1B"/>
<path d="M11.0795 11.0938C11.0795 11.0938 11.0487 11.1245 11.0303 11.146C11.0364 11.146 11.0487 11.1337 11.0795 11.0938Z" fill="#1B1B1B"/>
<path d="M9.3457 15.7357L9.37281 15.6152C9.36076 15.6634 9.35173 15.7026 9.3457 15.7357Z" fill="#1B1B1B"/>
<path d="M12.4805 8.93664C12.5257 8.88535 12.5438 8.87328 12.5981 8.79785C12.5921 8.80389 12.5861 8.80992 12.577 8.81595C12.5589 8.84613 12.5348 8.88233 12.4805 8.93664Z" fill="#1B1B1B"/>
<path d="M14.3927 7.05379C14.3927 7.05379 14.3626 7.06885 14.3475 7.07789C14.3264 7.09596 14.3023 7.11403 14.2812 7.1321L14.3897 7.05078L14.3927 7.05379Z" fill="#1B1B1B"/>
<path d="M22.0234 34.9114C21.9631 34.8964 21.9269 34.8813 21.8967 34.8662C21.9389 34.8994 21.5318 34.8903 22.0234 34.9114Z" fill="#1B1B1B"/>
<path d="M5.39405 37.8106C5.39706 37.7925 5.4091 37.7714 5.43922 37.7383C5.41814 37.7624 5.39706 37.7835 5.37598 37.8045C5.37598 37.8136 5.37598 37.8196 5.39405 37.8075V37.8106Z" fill="#1B1B1B"/>
<path d="M12.293 8.63525C12.3865 8.52066 12.486 8.41511 12.5855 8.30957C12.498 8.39702 12.3895 8.51463 12.293 8.63525Z" fill="#1B1B1B"/>
<path d="M35.0481 22.5654L35.0391 22.6648C35.0451 22.6257 35.0481 22.5925 35.0481 22.5654Z" fill="#1B1B1B"/>
<path d="M13.4961 7.38121C13.5655 7.339 13.6318 7.29075 13.7012 7.23948C13.7132 7.22441 13.7253 7.20933 13.7313 7.19727L13.4961 7.38121Z" fill="#1B1B1B"/>
<path d="M19.1602 34.4871C19.1873 34.4962 19.1903 34.4931 19.2475 34.5052C19.2866 34.5112 19.3016 34.5052 19.3106 34.4992C19.3226 34.4841 19.2986 34.454 19.3437 34.451C19.8279 34.5683 19.5542 34.5503 19.7136 34.6225C20.0204 34.6856 20.264 34.6796 20.4926 34.7247C20.5076 34.7368 20.5527 34.7458 20.4986 34.7488C20.8294 34.7668 21.467 34.8901 21.852 34.851C21.879 34.8571 21.8941 34.8631 21.9001 34.8661C21.8399 34.836 21.8309 34.8059 21.846 34.7879C22.0324 34.7969 22.1888 34.7698 22.258 34.8059C22.1437 34.8029 22.1347 34.818 22.0805 34.827L22.276 34.815C22.4505 34.8721 22.0114 34.827 22.0084 34.8631C22.3903 34.8631 22.8324 34.815 23.1211 34.815C23.1843 34.8661 22.4414 34.854 22.8324 34.8901C22.682 34.8871 22.5317 34.8811 22.3813 34.8751C22.7272 34.9593 22.1046 34.8661 22.4234 34.9563C23.0219 34.9683 23.0911 34.9232 23.6866 34.8871C23.8159 34.845 23.6384 34.851 23.7678 34.8089C24.1828 34.7368 24.3482 34.7307 24.4896 34.7398C24.6309 34.7428 24.7482 34.7608 25.0429 34.6525C25.1903 34.5774 25.2414 34.5202 25.6715 34.427L25.5422 34.5262C26.0956 34.3638 25.8369 34.3668 26.4174 34.2014C26.3241 34.2586 25.9963 34.3728 26.0805 34.3488C26.4625 34.2586 26.3302 34.2255 26.6129 34.1232L26.6911 34.1503C27.2595 33.9127 27.855 33.5909 28.4324 33.233C28.4084 33.2631 28.3151 33.3353 28.4595 33.2721C29.1843 32.8119 29.9753 32.2435 30.5978 31.6931L30.7933 31.4405C30.8444 31.3894 30.9046 31.3593 30.8535 31.4195C31.0941 31.2029 30.8444 31.3894 30.9437 31.2661C31.073 31.1368 31.1302 31.1097 31.061 31.2029C31.4339 30.7698 32.0595 29.9337 32.4324 29.4646L32.3783 29.5698C32.652 29.1909 32.6038 29.0886 32.8565 28.7428L32.8204 28.818C33.3708 27.9698 33.8038 26.9413 34.1317 26.2465C34.1347 26.0931 34.4866 25.3112 34.4204 25.224C34.6129 24.6826 34.6069 24.851 34.8174 24.0661C34.8745 23.8556 34.8324 23.7383 34.8745 23.4736H34.9226L34.9407 23.1097L35.0219 22.9262L35.046 22.6766C35.0279 22.7759 34.9948 22.8841 34.9828 22.8661C35.0249 22.4781 35.1332 21.9217 35.1572 21.9127C35.1813 21.6029 35.1753 21.2931 35.1813 20.9834C35.1993 21.0044 35.1963 21.1608 35.2023 21.2841C35.1813 20.7879 35.2625 21.1969 35.2324 20.7398C35.2204 20.7999 35.2053 20.7067 35.1963 20.6947C35.2294 20.4691 35.2354 19.9518 35.2023 19.5728L35.2354 19.645C35.2354 19.2992 35.1933 18.9383 35.1632 18.5653C35.1121 18.1954 35.073 17.8134 35.0038 17.4315C35.0339 17.7082 34.9678 17.651 34.9287 17.4315L34.9617 17.3353C34.9076 17.1969 34.9828 17.5728 34.8956 17.2811C34.8535 16.9954 34.9196 17.0796 34.9617 17.242C34.9347 17.1277 34.9166 17.0134 34.8835 16.8992C34.8926 16.8751 34.9166 16.9563 34.9407 16.9743C34.8805 16.839 34.8685 16.3698 34.7693 16.1774L34.7783 16.1563C34.5918 15.4044 34.4775 15.0706 34.273 14.4751C34.2279 14.4751 34.1557 14.2405 34.0625 14.0751C33.9873 13.8586 33.9061 13.627 33.8189 13.3864C33.7257 13.1488 33.6204 12.9022 33.5061 12.6465C33.3106 12.3067 33.4219 12.5593 33.3226 12.415C33.3437 12.3728 33.0911 11.8766 33.2444 12.1232C32.9226 11.5368 32.8324 11.3713 32.3512 10.6766C32.3903 10.7608 32.4384 10.851 32.3993 10.815C32.3091 10.6916 32.2189 10.5172 32.246 10.5262L32.273 10.5563C31.7076 9.79841 31.0399 8.73375 30.4384 8.25555L30.4715 8.28262C30.282 8.10217 30.0805 7.93375 29.879 7.76833C29.6174 7.51871 30.0565 7.89465 29.879 7.69615C29.2023 7.18488 28.8625 6.81796 28.258 6.46307C28.1647 6.36082 28.0144 6.24653 27.8309 6.12924C27.6505 6.00593 27.4369 5.88262 27.2114 5.76833C26.7663 5.52773 26.282 5.32021 25.9572 5.14879L25.9873 5.19089C25.8038 5.14277 25.7828 5.08262 25.6535 5.03149C25.6655 5.05555 25.8369 5.12773 25.7226 5.09766C24.2249 4.54427 22.5317 4.17134 20.8745 4.2345C20.27 4.25856 20.5437 4.39089 19.7858 4.41194C19.855 4.38187 19.9241 4.36082 19.9933 4.33676C18.7993 4.54427 17.5512 4.85104 16.5016 5.41345C16.5617 5.37134 16.5557 5.3563 16.661 5.30818C16.4174 5.38036 15.8279 5.72021 15.846 5.7563C15.6835 5.84352 15.7948 5.7563 15.6896 5.79841C15.455 5.89766 15.1753 6.16833 15.0429 6.20743C15.0219 6.21345 15.0971 6.15931 15.1332 6.13224C14.9978 6.22848 14.5016 6.56533 14.655 6.50518C14.4655 6.62548 14.3001 6.75781 14.1467 6.89014C13.9903 7.01946 13.846 7.13976 13.7076 7.25104C13.6384 7.34728 13.4911 7.46758 13.3647 7.58187C13.2414 7.69916 13.1332 7.80442 13.1302 7.85555C13.1001 7.77736 12.5467 8.37886 12.3963 8.61645C12.4414 8.52924 12.2249 8.79089 12.273 8.68863C12.0655 8.93525 11.8971 9.17585 11.9602 9.1548C11.7527 9.36533 11.5843 9.61194 11.452 9.84352C11.3136 10.0691 11.1963 10.2676 11.07 10.3849C10.6038 11.218 10.246 12.021 9.94821 12.821C9.88505 12.7638 10.3091 11.9488 10.2309 11.9548C9.92716 12.7097 9.81287 13.1638 9.55422 13.9247C9.47904 14.1202 9.56325 13.8044 9.57528 13.7322C9.35873 14.5112 9.13919 15.239 9.05498 15.9548C9.04896 15.9518 9.05497 15.8736 9.064 15.8014C9.03994 15.9428 8.99182 16.1232 9.02791 16.1142L9.04595 15.9759C9.09107 15.8676 9.08204 16.0119 9.07603 16.1834C9.07302 16.3578 9.06099 16.5593 9.07001 16.5743C9.00986 16.3247 8.95573 17.2721 8.89257 16.8811C8.88956 16.9743 8.89257 17.0916 8.91362 17.0736C8.89257 17.2119 8.87753 17.254 8.86851 17.1097C8.83843 17.618 8.87753 17.4405 8.85347 17.8977C8.83843 17.8977 8.83843 17.8014 8.8234 17.7533C8.84445 17.9879 8.84445 18.2225 8.83242 18.6104C8.8234 18.5864 8.81137 18.6315 8.81437 18.5172C8.81437 18.851 8.8234 19.1337 8.85347 19.4255C8.8655 19.5698 8.87753 19.7172 8.88355 19.8736C8.89858 20.03 8.91061 20.1954 8.91663 20.3789C8.83543 20.1683 8.91362 20.6285 8.86249 20.6736L8.92565 21.0616L8.93467 20.9022C8.97076 21.245 9.04896 21.5398 9.08505 21.8345L9.02189 21.5849C9.06099 21.7954 9.09407 22.0089 9.13618 22.2195C9.11813 22.0992 9.10911 21.9759 9.09708 21.8556C9.1843 22.1924 9.15723 21.8074 9.2234 22.2586C9.19934 22.1683 9.28956 22.5954 9.29257 22.7759C9.3437 22.9383 9.40986 23.1007 9.45497 23.3503C9.45497 23.4195 9.38279 23.3142 9.37979 23.3593C9.45798 23.5127 9.60535 24.1322 9.71663 24.3217C9.68355 24.2586 9.65347 24.2646 9.65648 24.2886L9.73768 24.4119C9.77678 24.5653 9.77678 24.5894 9.7467 24.5743C9.89107 25.0315 9.76475 24.4089 9.91813 24.9563C9.90009 24.9142 9.90009 24.9383 9.864 24.851C10.0444 25.3924 10.276 25.8736 10.4835 26.3548C10.4956 26.5202 10.279 25.9428 10.3091 26.1232C10.6279 26.815 11.058 27.5037 11.4309 28.1322L11.3647 28.015C11.4881 28.0571 11.6144 28.5022 11.861 28.7819C11.8038 28.7097 11.7557 28.7097 11.7768 28.7247C12.0444 29.1488 12.3873 29.5518 12.8956 30.1172L12.8174 30.0601C12.9978 30.2947 13.3257 30.6525 13.5452 30.8841C13.5753 30.9082 13.6174 30.9383 13.6444 30.9563C13.6685 30.9743 13.6896 30.9834 13.6745 30.9503L13.6956 30.9804L13.6234 31.0977L13.5422 31.254C13.4881 31.3593 13.4399 31.4646 13.3948 31.5698C13.3046 31.7834 13.2234 31.9939 13.1512 32.2044C13.0008 32.6255 12.8685 33.0345 12.685 33.4255C12.7181 33.3262 12.7512 33.1849 12.7211 33.2631C12.646 33.5007 12.5738 33.7383 12.5106 33.9759C12.5617 33.9307 12.5587 33.8886 12.6309 33.7473C12.6219 33.8435 12.5768 34.048 12.5257 34.2225C12.5978 33.8977 12.4685 34.2074 12.4144 34.3458C12.4324 34.3247 12.4294 34.3759 12.4444 34.3668C12.285 34.7277 12.4926 34.445 12.3332 34.9503L12.3211 34.9202C12.3031 35.0375 12.3001 35.1277 12.279 35.236C12.2008 35.23 12.1226 35.221 12.0384 35.215C11.9632 35.1668 12.2369 35.215 12.2189 35.1819C12.1617 35.1759 12.1166 35.1759 12.0414 35.1759C11.9663 35.1759 11.8941 35.1819 11.8219 35.1849C11.6775 35.1969 11.5362 35.2029 11.4008 35.1849C11.5272 35.1698 11.7106 35.1728 11.8399 35.1668C11.5452 35.1157 11.5061 35.1217 11.2866 35.1247H11.3076C11.1362 35.1247 10.9647 35.1247 10.7933 35.1398H10.9257C10.5617 35.2811 10.1617 35.245 9.68355 35.4405C10.1437 35.254 9.75272 35.3834 9.77979 35.3292C9.65046 35.3503 9.45498 35.3864 9.5061 35.3593C9.28054 35.4495 9.10911 35.4435 8.80535 35.6089C8.78731 35.5999 8.56174 35.6931 8.59783 35.642C8.31212 35.7743 8.67603 35.633 8.65798 35.6661C8.44144 35.7743 8.18279 35.8886 7.89107 35.9999C7.61738 36.1413 7.30761 36.2886 7.03693 36.5082C6.56475 36.8781 6.49257 36.9623 6.09558 37.3473C5.93919 37.4495 6.17678 37.2089 6.17678 37.2089C5.93919 37.3924 5.75272 37.5277 5.56926 37.7443C5.59934 37.6931 5.55122 37.7292 5.47904 37.7804C5.32264 37.9458 5.40986 37.9277 5.18731 38.1292C5.21137 38.0811 5.23843 38.0149 5.3046 37.9247C5.13317 38.1322 4.94971 38.3247 4.79633 38.5593C4.73317 38.6014 4.86851 38.3999 4.92264 38.3187C4.73016 38.5653 4.43242 38.9653 4.40234 39.0646L4.53768 38.9172C4.46851 39.0074 4.47452 38.9413 4.51964 38.8721C4.66099 38.6435 4.77227 38.5804 4.79332 38.5774L4.67603 38.7368C4.77528 38.6886 4.88655 38.5232 5.02791 38.3518C5.17227 38.1834 5.32565 37.9879 5.46701 37.8465L5.39783 38.0089L5.64445 37.6811C5.71663 37.63 5.78279 37.615 5.65046 37.7623C5.87302 37.5849 5.82189 37.5789 6.0264 37.4435C6.05046 37.4315 6.04445 37.4405 6.0264 37.4586L6.2249 37.2661C6.19182 37.3112 6.28806 37.2691 6.15272 37.3743C6.54069 37.0706 6.75723 36.851 6.93467 36.7759L6.90159 36.8029C7.45798 36.3969 6.91964 36.7127 7.33467 36.3999L7.69257 36.3277L7.72866 36.2556C7.79182 36.2225 7.91513 36.1563 7.90009 36.1864C8.12264 36.042 7.84896 36.1864 7.97528 36.0931C8.14069 36.042 8.35422 35.9398 8.53768 35.8556C8.72415 35.7713 8.88956 35.7292 8.93467 35.7473C9.03994 35.6751 8.61588 35.8315 8.95272 35.6871C9.01588 35.7082 9.11212 35.6691 9.23543 35.618C9.35573 35.5668 9.50911 35.5217 9.66249 35.4947C9.57828 35.5578 9.28956 35.6119 9.59934 35.5668C9.68054 35.5127 9.82791 35.4706 9.98731 35.4495C10.1467 35.4315 10.3181 35.4195 10.4444 35.3894C10.4475 35.3322 11.0069 35.2871 11.446 35.2631C11.4369 35.2691 11.5422 35.2751 11.7046 35.2841C11.867 35.2931 12.0505 35.3052 12.3512 35.3563C12.3753 35.2631 12.3933 35.1638 12.4144 35.0736C12.4324 34.9984 12.4444 34.9443 12.4595 34.8871L12.4655 34.9022C12.4264 34.8119 12.5347 34.4029 12.6159 34.1052C12.646 34.1262 12.6369 34.1834 12.6099 34.3458C12.6339 34.2525 12.661 34.1593 12.6881 34.0691C12.6911 33.9999 12.7061 33.9097 12.7602 33.7292L12.7783 33.8104C12.8926 33.4435 12.9798 33.0586 13.1843 32.6044C13.1572 32.5653 12.9407 32.9353 13.1061 32.433C13.1332 32.421 13.1723 32.418 13.1302 32.5503C13.1422 32.5082 13.1723 32.3939 13.2144 32.3127L13.1693 32.5202C13.2655 32.3157 13.1843 32.3999 13.2565 32.2315C13.2835 32.2465 13.3257 32.1142 13.3377 32.1473C13.3226 32.1924 13.2685 32.2886 13.2535 32.3578C13.3347 32.1683 13.446 31.9488 13.4971 31.8826C13.476 31.8916 13.461 31.8676 13.5151 31.7292C13.6655 31.3743 13.5993 31.621 13.7046 31.4225C13.7136 31.3743 13.7497 31.2992 13.7768 31.23C13.7978 31.1728 13.8429 31.0646 13.8189 31.0646C13.8399 31.0165 13.861 30.9834 13.876 30.9563C13.8429 30.9112 13.8369 30.8871 13.8159 30.854C13.7738 30.8119 13.7046 30.7458 13.6264 30.6706C13.5602 30.6044 13.4881 30.5322 13.4219 30.4691C13.2986 30.3398 13.2084 30.2495 13.2655 30.3488L13.2986 30.3879C13.2986 30.3879 13.2835 30.3728 13.2745 30.3638C12.7933 29.9127 12.4144 29.3082 12.0264 28.7879L12.0384 28.7789C11.7978 28.4721 11.5542 28.0631 11.3828 27.8435C11.3257 27.7443 11.2715 27.5939 11.3106 27.627C11.1542 27.3743 11.1181 27.3563 10.9437 26.9653C11.1031 27.218 10.9166 26.8631 11.1001 27.227C10.9377 26.8781 10.9076 26.7969 10.6971 26.439C10.7933 26.5503 10.6129 26.1593 10.5317 25.9939C10.5557 26.0811 10.5888 26.1653 10.6189 26.2495C10.5226 26.0661 10.4625 25.8977 10.3933 25.7292L10.4775 25.8014C10.2249 25.0616 9.87001 24.5142 9.79783 23.9097C9.70761 23.7202 9.89107 24.3277 9.80084 24.1593C9.70761 23.8074 9.66851 23.4285 9.64746 23.3172C9.55723 22.83 9.46099 22.8871 9.37979 22.3728C9.37678 22.442 9.34069 22.5142 9.24746 22.1352C9.19633 21.7743 9.24746 21.6811 9.30159 21.9067C9.31663 21.9909 9.31663 22.033 9.31061 22.033C9.33467 22.1473 9.37678 22.2946 9.36475 22.1533L9.33768 22.1112C9.32565 21.9307 9.24746 21.4405 9.29257 21.5518C9.23242 21.2841 9.24445 21.4405 9.26851 21.642C9.2234 21.1789 9.16926 20.9232 9.1452 20.448C9.14219 20.5232 9.12415 20.5954 9.12114 20.5202C9.09407 19.8195 9.05798 20.2165 9.02791 19.7413C9.04595 19.4706 9.09708 19.8345 9.05798 19.3593C9.06701 19.0676 9.1031 19.2962 9.12114 19.4104C9.06701 18.9774 9.1452 18.5984 9.15122 18.3518L9.16325 18.5804C9.15422 18.445 9.15723 18.3307 9.16325 18.2195L9.12114 18.3488C9.13618 18.2165 9.14219 18.1022 9.15723 18.1052C9.14219 17.9668 9.09107 18.2074 9.07603 17.9307C9.10009 17.7533 9.09407 17.3834 9.15122 17.3262C9.08204 17.8856 9.19934 17.2691 9.16926 17.7443C9.16926 17.651 9.17828 17.5398 9.19934 17.4074C9.20535 17.3864 9.20836 17.4285 9.20535 17.4646C9.3046 16.9353 9.16625 17.2119 9.24445 16.6586C9.25949 16.7307 9.31362 16.5383 9.31964 16.448C9.28655 16.6706 9.25949 16.5473 9.26851 16.3398C9.34069 15.9879 9.32264 15.9548 9.35573 15.7683L9.30761 15.9789C9.29558 15.9037 9.33167 15.7262 9.37076 15.4796C9.39482 15.4616 9.3437 15.7052 9.37076 15.621C9.37678 15.3383 9.55122 15.0165 9.61738 14.6345C9.68355 14.4661 9.67152 14.6315 9.72565 14.4841C9.80685 14.0571 9.89107 14.045 10.0054 13.6059C9.93016 13.7172 9.93016 13.7443 9.99934 13.4285L9.79182 14.1473C9.82189 13.9879 9.85798 13.8315 9.89107 13.6751C9.81888 13.8916 9.76174 14.1353 9.72264 14.2646C9.75573 14.036 9.75873 14.0601 9.70159 14.1563C9.84595 13.8766 9.85498 13.5578 10.0144 13.233L10.0926 13.2751C10.2069 13.0315 10.273 12.8029 10.3693 12.5623C10.4565 12.3187 10.5557 12.0571 10.7211 11.7503L10.6099 11.9458C10.6219 11.8465 10.7873 11.5518 10.8866 11.3503C10.9016 11.3834 10.9798 11.2631 11.0429 11.1879C11.0309 11.1879 11.0911 11.0766 11.1542 10.9533C11.2204 10.833 11.2896 10.7037 11.2805 10.6616L11.476 10.415C11.8008 9.9548 11.7557 9.82848 12.0926 9.39841C12.0204 9.54879 12.1858 9.36533 11.9873 9.66909C12.0956 9.52472 12.1978 9.39841 12.1828 9.38337C12.255 9.30518 12.4655 8.96833 12.5918 8.85706C12.6309 8.79089 12.6189 8.74879 12.7602 8.59841C12.7783 8.58638 12.7693 8.60743 12.7693 8.60743C12.7572 8.59841 12.9708 8.35781 12.8264 8.46909C13.046 8.28863 13.3196 8.01194 13.5903 7.74427C13.87 7.48563 14.1467 7.236 14.3663 7.11871C14.5136 6.98638 14.6881 6.85405 14.8595 6.72773C15.0279 6.5954 15.1993 6.47811 15.3527 6.38187C15.3377 6.40292 15.3587 6.3939 15.3016 6.42999C15.7317 6.18638 15.5091 6.18939 16.0174 5.93676C16.2911 5.83751 15.7708 6.10818 15.9332 6.033C16.0444 6.0751 16.5226 5.69615 16.8956 5.5939L16.8144 5.636C17.0911 5.55179 17.446 5.32322 17.8971 5.17585C17.8971 5.17585 17.879 5.19089 17.8971 5.19089C18.0414 5.11269 18.264 5.03751 18.4986 4.9533C18.7362 4.8751 18.9978 4.81495 19.2204 4.75179C19.0881 4.82097 19.0219 4.81796 19.1151 4.836C19.3136 4.78788 19.0399 4.77886 19.4429 4.69766C19.5783 4.69766 19.87 4.66457 19.9151 4.69766L19.5362 4.76382C19.6384 4.77285 19.7587 4.75179 19.882 4.72473C20.0053 4.70367 20.1287 4.67961 20.2279 4.6736L20.2038 4.70066C20.4926 4.65856 20.6399 4.63751 20.7933 4.61345C20.9467 4.5954 21.1061 4.5563 21.4219 4.56833L21.3557 4.55029C21.7016 4.49916 21.6444 4.57736 21.9933 4.55029L22.0956 4.61645C22.3241 4.61044 22.8986 4.62247 23.3046 4.68262C23.1843 4.67961 23.0069 4.6736 22.8204 4.66758C22.6339 4.65856 22.4414 4.64653 22.2941 4.65555C22.5196 4.66157 23.055 4.73676 23.1753 4.72172C23.0851 4.7127 22.9678 4.7157 22.8805 4.69465C23.1632 4.6766 23.5272 4.71871 23.9693 4.81796C23.9181 4.86909 24.2038 4.93224 24.5317 5.03149C24.6971 5.08262 24.8715 5.13675 25.0249 5.19089C25.1753 5.25104 25.3016 5.31119 25.3708 5.35931C26.1317 5.59691 26.8174 5.98488 27.6054 6.46006C27.3738 6.21044 27.8369 6.59841 27.8369 6.49315C28.0264 6.59841 28.0866 6.65555 28.1016 6.67059C28.27 6.81194 28.4444 6.94427 28.6038 7.09465C28.7121 7.20894 28.4294 6.98638 28.4324 7.01645C28.8023 7.30818 28.5678 7.16683 28.7993 7.37435C28.7693 7.31119 28.9617 7.43149 29.1572 7.61796C29.07 7.52773 28.9858 7.43149 28.8926 7.34427C29.4339 7.72623 29.2896 7.7563 29.8069 8.17134L29.6324 8.05104C29.9031 8.25856 30.5287 8.92623 30.7993 9.13375C30.8324 9.18487 30.8655 9.26006 30.7602 9.1548C31.2926 9.76833 31.9542 10.5292 32.255 11.0947L32.2038 11.0525C32.2881 11.1789 32.3783 11.2571 32.4595 11.4315C32.4475 11.4285 32.4084 11.3894 32.4444 11.4525C32.4986 11.5157 32.682 11.7834 32.7693 11.9668L32.664 11.8285C33.0279 12.5353 33.2805 12.8841 33.5693 13.4916C33.5031 13.5187 33.7287 14.1022 33.8159 14.4029L33.8038 14.3969C34.1076 15.2691 34.3362 15.8796 34.5377 16.7187C34.5888 17.254 34.8204 18.5082 34.8144 19.3683C34.8144 19.236 34.8685 19.3864 34.8775 19.5398C34.8715 19.7413 34.9407 20.0962 34.8775 20.0661V19.9939C34.8264 20.1473 34.8294 20.5593 34.8264 20.8811L34.9046 20.9383C34.7753 21.7743 34.7452 23.1518 34.5347 23.5849C34.5226 23.7894 34.4565 24.033 34.4324 24.2345L34.3933 24.2134C34.249 24.7578 34.1708 25.0285 33.9572 25.6901L33.9723 25.5458C33.852 25.9187 33.9211 26.054 33.7978 26.3969L33.6986 26.4751C33.4369 27.1127 33.085 27.7082 32.8023 28.3247C32.8023 28.3097 32.7933 28.2826 32.8444 28.1834C32.7723 28.3277 32.5918 28.5834 32.4625 28.8029C32.3272 29.0195 32.2189 29.1909 32.2881 29.1668C32.261 29.1548 32.1647 29.3022 32.0444 29.4886C31.9211 29.6721 31.7738 29.8977 31.6715 30.054V29.9849C31.5181 30.2586 31.5272 30.2796 31.2505 30.6225C31.1753 30.6946 31.1632 30.6676 31.2655 30.5713C31.0159 30.8119 31.1151 30.7999 30.8114 31.0886C30.8414 31.0465 30.8715 31.0044 30.9016 30.9563C30.652 31.2089 30.679 31.1969 30.5617 31.3563C30.4204 31.5337 30.0535 31.8044 29.9933 31.8134C29.9753 31.8646 29.8429 32.0119 29.6715 32.1353C29.6414 32.1413 29.6956 32.0871 29.7226 32.0601C29.4851 32.2375 29.3166 32.3819 29.1602 32.5022C29.0069 32.6285 28.8685 32.7368 28.6851 32.827C28.67 32.821 28.6429 32.827 28.6129 32.842C29.0159 32.5954 29.3106 32.3548 29.2866 32.3849C29.2625 32.3548 28.9527 32.5713 29.1663 32.3518C28.9437 32.5593 28.5407 32.8992 28.2129 33.0706C28.1948 33.0766 28.1768 33.0826 28.1647 33.0826L28.1948 33.0586C28.1196 33.0977 28.0535 33.1368 27.9933 33.1789C27.8881 33.233 27.8219 33.2661 27.7196 33.3172C27.6655 33.3082 27.3226 33.4946 27.1512 33.5759C27.1843 33.6089 26.9527 33.6992 27.1813 33.639C27.1512 33.648 27.2114 33.621 27.3257 33.5608C27.3497 33.5458 27.3798 33.5307 27.3948 33.5217L27.3858 33.5307C27.4971 33.4736 27.6414 33.4014 27.8069 33.3172C27.6835 33.4074 27.5512 33.4886 27.3527 33.5638C27.2775 33.633 27.1933 33.7052 27.1392 33.7383C27.0069 33.7623 26.8234 33.8165 26.661 33.8646C26.4986 33.9097 26.3572 33.9368 26.3181 33.9307C26.0535 34.048 25.7257 34.1443 25.4279 34.2435C25.1272 34.3307 24.8505 34.4119 24.679 34.4871C24.5166 34.5262 24.4866 34.4962 24.4234 34.4962C24.5166 34.4721 24.6279 34.454 24.676 34.436C24.5166 34.4721 24.276 34.5172 24.0655 34.5593C23.855 34.5924 23.6745 34.6255 23.6384 34.6556C23.2204 34.6676 23.867 34.5864 23.2986 34.6435L23.3738 34.6225C22.8114 34.6195 22.3602 34.6525 21.885 34.6586C21.4129 34.6646 20.9166 34.6375 20.3151 34.4601C20.3993 34.4841 20.4414 34.4962 20.4565 34.5082C20.2129 34.454 19.9693 34.3969 19.7257 34.3307L19.3587 34.2315L18.9046 34.0931C18.6249 35.0706 18.4896 35.5879 18.1888 36.5353C18.2941 36.5653 18.4054 36.5984 18.5106 36.6315C18.5858 36.6556 18.661 36.6856 18.7362 36.7157C19.1091 36.8571 19.1572 36.845 19.3978 36.9052L19.461 36.9804C19.5963 37.0195 19.7317 37.0525 19.864 37.0947C20.4204 37.3082 20.7422 37.63 21.4099 37.9608L21.3437 37.8856C21.5723 38.03 22.0655 38.3428 22.0053 38.3488C22.0294 38.3608 22.0956 38.3759 22.1708 38.451L22.1617 38.4751C22.3512 38.5894 22.5226 38.7277 22.7031 38.8571C23.076 39.2059 22.5858 38.8721 23.1272 39.3774C23.3287 39.5638 23.7166 39.9007 23.6595 39.8134C23.5843 39.7322 23.476 39.5939 23.485 39.5728L23.6685 39.7503C23.7527 39.7383 23.9452 39.8375 23.5422 39.3383C23.4339 39.236 23.3136 39.1458 23.1963 39.0556L23.1151 38.9322L23.3888 39.1879C23.2565 39.0195 23.1362 38.9473 23.0159 38.8601C23.0008 38.821 22.9647 38.7698 22.9016 38.7097L22.5226 38.4841C22.4986 38.43 22.7091 38.5653 22.4896 38.3698C22.3061 38.2736 22.6099 38.5353 22.3241 38.3488C22.1738 38.1984 22.2369 38.2134 22.0234 38.0871C22.0054 38.051 22.0535 38.0721 22.1377 38.1262C21.9482 38.0119 21.6444 37.8044 21.5302 37.7713C21.3647 37.621 20.8835 37.3984 20.9317 37.3563C20.8625 37.3353 20.5647 37.2149 20.3813 37.1307C20.5647 37.1789 20.3963 37.0886 20.1948 36.9924C19.9903 36.8962 19.7557 36.7909 19.8159 36.7728C19.6745 36.7518 19.4429 36.6646 19.1813 36.5713C19.049 36.5262 18.9136 36.4781 18.7783 36.439C18.7121 36.418 18.6429 36.3999 18.5798 36.3819C18.5557 36.3789 18.5347 36.3759 18.5076 36.3728C18.5226 36.3728 18.5497 36.3668 18.5587 36.3728C18.5407 36.3668 18.5257 36.3578 18.5166 36.3548C18.5257 36.3337 18.5377 36.3187 18.5467 36.3067C18.5527 36.2977 18.5527 36.3067 18.5617 36.2826C18.5708 36.2556 18.5828 36.2285 18.5948 36.1984C18.5467 36.1473 18.655 35.7413 18.682 35.5127C18.8294 35.2089 18.6911 35.7262 18.7723 35.642C18.7211 35.642 18.8896 35.0766 18.8204 35.1728C18.9257 34.9383 18.8986 34.9683 18.9828 34.8571C18.9527 34.824 18.9678 34.7668 18.9888 34.6916C19.0008 34.6525 19.0129 34.6104 19.0249 34.5623C19.0309 34.5413 19.0369 34.5112 19.0399 34.4901C19.0399 34.4811 19.0399 34.4691 19.0399 34.4571C19.058 34.43 19.067 34.424 19.076 34.424C19.1452 34.4721 19.0941 34.4721 19.2264 34.4931C19.3166 34.5292 19.2715 34.5292 19.2053 34.5202C19.1873 34.5202 19.1632 34.5232 19.1632 34.5232L19.1602 34.4871ZM28.4204 33.2119C28.3482 33.254 28.2881 33.2901 28.249 33.3142C28.285 33.2931 28.3332 33.2631 28.4204 33.2119ZM29.1031 32.7668C29.0219 32.827 28.9196 32.8901 28.8084 32.9623C28.7753 32.9653 28.7933 32.9353 28.8625 32.8931C28.8294 32.9232 28.9978 32.833 29.1031 32.7668ZM27.4941 33.3834C27.6053 33.3232 27.6444 33.3112 27.6655 33.3112C27.6144 33.3383 27.5512 33.3713 27.47 33.4134C27.47 33.4134 27.461 33.4225 27.458 33.4255C27.464 33.4134 27.473 33.4014 27.4941 33.3834Z" fill="#1B1B1B"/>
<path d="M27.3128 33.534C27.2977 33.5431 27.2887 33.5491 27.2676 33.5611C27.2917 33.5521 27.3158 33.5431 27.3399 33.537C27.3519 33.525 27.364 33.516 27.373 33.5039C27.3519 33.5129 27.3308 33.525 27.3128 33.534Z" fill="#1B1B1B"/>
<path d="M13.251 30.3193L13.2383 30.3066C13.2383 30.3066 13.2542 30.3289 13.2573 30.3384C13.251 30.3289 13.251 30.3257 13.2478 30.3193H13.251Z" fill="#1B1B1B"/>
<path d="M34.9252 23.4639H34.9132L34.9102 23.5361L34.9252 23.4639Z" fill="#1B1B1B"/>
<path d="M12.3995 34.3252C12.3995 34.3252 12.3842 34.3465 12.3721 34.38C12.3751 34.38 12.3873 34.3556 12.3995 34.3252Z" fill="#1B1B1B"/>
<path d="M9.78967 35.2803C9.7709 35.2928 9.76778 35.299 9.76465 35.3053L9.78654 35.2803H9.78967Z" fill="#1B1B1B"/>
<path d="M9.05176 15.7842C9.05477 15.7631 9.05778 15.745 9.06079 15.727C9.07886 15.5914 9.0638 15.6848 9.05176 15.7842Z" fill="#1B1B1B"/>
<path d="M9.27719 22.7591C9.25609 22.6867 9.23498 22.6174 9.21387 22.542C9.23498 22.6656 9.25307 22.7621 9.27719 22.7591Z" fill="#1B1B1B"/>
<path d="M12.2637 8.67015C12.2637 8.67015 12.2855 8.64526 12.2948 8.63281L12.2637 8.67015Z" fill="#1B1B1B"/>
<path d="M9.14746 22.2227C9.16254 22.3463 9.18666 22.4488 9.21079 22.5423C9.19269 22.4398 9.1746 22.3222 9.14746 22.2227Z" fill="#1B1B1B"/>
<path d="M4.49244 38.7842L4.44727 38.8384C4.44727 38.8384 4.44727 38.8444 4.44727 38.8504L4.49244 38.7842Z" fill="#1B1B1B"/>
<path d="M4.44361 38.8516L4.39844 38.9178C4.42253 38.8877 4.4406 38.8636 4.44361 38.8516Z" fill="#1B1B1B"/>
<path d="M4.30273 39.0529L4.39928 38.9141C4.36308 38.9593 4.31782 39.0136 4.30273 39.0529Z" fill="#1B1B1B"/>
<path d="M5.85416 37.3626L5.86052 37.334C5.86052 37.334 5.85099 37.353 5.85416 37.3626Z" fill="#1B1B1B"/>
<path d="M6.30847 36.9688C6.19719 37.059 6.01374 37.1763 5.86637 37.3146L5.86035 37.3357C5.91749 37.2575 6.22125 37.077 6.30847 36.9688Z" fill="#1B1B1B"/>
<path d="M8.53722 35.877L8.08309 36.0694C8.1703 36.0484 8.28158 36.0213 8.08008 36.1176C8.66354 35.907 7.94775 36.1386 8.54023 35.877H8.53722Z" fill="#1B1B1B"/>
<path d="M9.99876 35.4497C9.74244 35.51 10.0078 35.4708 9.99575 35.4828C10.1586 35.4376 10.1978 35.4256 9.99876 35.4497Z" fill="#1B1B1B"/>
<path d="M11.2557 27.5011H11.3039C11.1985 27.3294 11.2889 27.5101 11.2557 27.5011Z" fill="#1B1B1B"/>
<path d="M10.1465 25.6719L10.2038 25.8679L10.2731 25.9433L10.1465 25.6719Z" fill="#1B1B1B"/>
<path d="M9.96831 24.4003L10.0015 24.4847L9.88086 24.165L9.96831 24.4003Z" fill="#1B1B1B"/>
<path d="M14.0469 7.38379L13.9714 7.38982C13.8749 7.48939 13.887 7.54671 14.0469 7.38379Z" fill="#1B1B1B"/>
<path d="M21.3398 4.55687C21.4271 4.58093 21.6526 4.59898 21.791 4.57492C21.6105 4.5689 21.4331 4.55086 21.3398 4.55687Z" fill="#1B1B1B"/>
<path d="M34.8109 21.2936L34.8049 21.1338L34.7988 21.4353L34.8109 21.2936Z" fill="#1B1B1B"/>
<path d="M21.063 24.2556C22.1775 24.2556 23.081 23.717 23.081 23.0526C23.081 22.3882 22.1775 21.8496 21.063 21.8496C19.9484 21.8496 19.0449 22.3882 19.0449 23.0526C19.0449 23.717 19.9484 24.2556 21.063 24.2556Z" fill="#F4BDCB"/>
<path d="M30.0864 24.2556C31.2009 24.2556 32.1044 23.717 32.1044 23.0526C32.1044 22.3882 31.2009 21.8496 30.0864 21.8496C28.9719 21.8496 28.0684 22.3882 28.0684 23.0526C28.0684 23.717 28.9719 24.2556 30.0864 24.2556Z" fill="#F4BDCB"/>
<path d="M30.1731 13.4286C30.6573 14.397 29.5716 15.8346 29.5716 15.8346C29.5716 15.8346 32.8798 16.1353 32.8798 14.0301C32.8798 12.6857 31.3761 11.0225 31.3761 11.0225C32.8798 11.6241 34.6844 15.5759 34.6844 15.5759C34.6844 15.5759 34.0829 11.6241 31.3761 8.91729C31.3761 8.91729 28.6693 5.30826 23.8573 4.40601C22.137 3.95187 20.9189 3.9248 20.9189 3.9248C18.537 4.06616 16.6423 4.59247 15.1325 5.31127C13.5295 5.93383 8.07082 8.7218 5.58361 18.5413C2.65127 30.1203 5.35804 29.5188 2.65127 31.624C-0.0554919 33.7293 -2.16075 39.4436 3.55353 40.3459C3.55353 40.3459 6.41067 34.7819 12.2753 35.2331C12.2753 35.2331 13.1295 31.4646 13.755 30.9443C14.1671 30.6015 11.5866 28.7428 10.0227 25.0135C11.1475 22.9413 13.1776 22.9053 14.0798 19.2962C14.7024 16.809 16.7024 11.5007 19.0423 11.3263C20.2904 11.2331 16.0347 15.5368 16.0347 15.5368C16.0347 15.5368 19.7039 17.0165 22.3505 14.6346C23.1385 13.9248 23.8543 12.8301 23.7039 10.8752L24.0498 11.7955C24.3986 12.7218 24.2513 13.7624 23.6618 14.5564L22.9009 15.5819C22.9009 15.5819 25.2197 16.394 27.7671 15.2391C31.0753 13.7353 26.2633 9.82556 26.2633 9.82556C26.2633 9.82556 29.2708 11.6301 30.1731 13.4346V13.4286Z" fill="black"/>
<path d="M30.2608 31.7061C25.0608 36.2865 18.9646 34.3527 18.9646 34.3527L18.1436 36.5873C23.5571 38.3918 25.2112 41.5617 25.2112 41.5617C32.2789 42.9271 28.9706 38.091 28.8202 37.4083C28.6699 36.7256 28.0684 35.9888 28.8202 34.7647C29.5721 33.5406 30.2608 31.7061 30.2608 31.7061Z" fill="black"/>
<path d="M22.3775 21.2478C22.8891 21.2478 23.3038 20.5745 23.3038 19.744C23.3038 18.9135 22.8891 18.2402 22.3775 18.2402C21.8659 18.2402 21.4512 18.9135 21.4512 19.744C21.4512 20.5745 21.8659 21.2478 22.3775 21.2478Z" fill="black"/>
<path d="M29.2466 21.2478C29.7582 21.2478 30.1729 20.5745 30.1729 19.744C30.1729 18.9135 29.7582 18.2402 29.2466 18.2402C28.735 18.2402 28.3203 18.9135 28.3203 19.744C28.3203 20.5745 28.735 21.2478 29.2466 21.2478Z" fill="black"/>
<path d="M25.8124 24.5564C25.0665 24.5564 24.459 23.9489 24.459 23.203C24.459 22.4571 25.0665 21.8496 25.8124 21.8496C26.5582 21.8496 27.1658 22.4571 27.1658 23.203C27.1658 23.9489 26.5582 24.5564 25.8124 24.5564ZM25.8124 22.1504C25.2319 22.1504 24.7597 22.6225 24.7597 23.203C24.7597 23.7834 25.2319 24.2556 25.8124 24.2556C26.3928 24.2556 26.865 23.7834 26.865 23.203C26.865 22.6225 26.3928 22.1504 25.8124 22.1504Z" fill="black"/>
<path d="M25.6645 27.7926C22.5487 27.7926 20.8886 24.8152 20.8675 24.7791C20.8284 24.7069 20.8555 24.6137 20.9277 24.5746C20.9999 24.5355 21.0931 24.5625 21.1322 24.6347C21.2164 24.7911 23.2495 28.4242 27.1232 27.2693C27.2044 27.2452 27.2856 27.2903 27.3096 27.3715C27.3337 27.4497 27.2886 27.534 27.2074 27.558C26.657 27.7204 26.1427 27.7926 25.6615 27.7926H25.6645Z" fill="black"/>
<path d="M23.2562 17.2757C23.2021 17.2757 23.148 17.2456 23.1209 17.1945C22.9134 16.7915 22.6998 16.5809 22.4983 16.5809H22.4923C22.2006 16.587 21.9329 17.0231 21.8547 17.1915C21.8186 17.2667 21.7284 17.2997 21.6532 17.2637C21.578 17.2276 21.545 17.1403 21.5811 17.0652C21.6171 16.987 21.957 16.2922 22.4863 16.2832H22.4983C22.8232 16.2832 23.1239 16.5449 23.3886 17.0622C23.4277 17.1373 23.3976 17.2276 23.3224 17.2637C23.3014 17.2757 23.2773 17.2787 23.2532 17.2787L23.2562 17.2757Z" fill="black"/>
<path d="M29.8724 17.2757C29.8183 17.2757 29.7642 17.2456 29.7371 17.1945C29.5296 16.7915 29.3161 16.5809 29.1146 16.5809H29.1085C28.8168 16.587 28.5491 17.0231 28.4709 17.1915C28.4349 17.2667 28.3446 17.2997 28.2694 17.2637C28.1943 17.2276 28.1612 17.1403 28.1973 17.0652C28.2334 16.987 28.5732 16.2922 29.1025 16.2832H29.1146C29.4394 16.2832 29.7401 16.5449 30.0048 17.0622C30.0439 17.1373 30.0138 17.2276 29.9386 17.2637C29.9176 17.2757 29.8935 17.2787 29.8694 17.2787L29.8724 17.2757Z" fill="black"/>
<path d="M0.233398 48.9625C0.233398 48.9625 0.834902 42.9474 3.54167 39.9399C6.24844 36.9324 8.05295 34.8271 10.7597 34.8271C10.7597 34.8271 8.99129 37.7264 14.6695 38.4362C19.4815 39.0377 18.88 36.3309 18.88 36.3309C19.8996 36.8482 22.6875 38.1896 23.692 39.3384C25.7973 41.7444 27.6018 45.0527 27.6018 45.0527" fill="white"/>
<path d="M24.002 39.543L24.0206 39.5803C24.0206 39.5803 24.0113 39.5554 24.002 39.543Z" fill="#1B1B1B"/>
<path d="M20.9427 37.236C20.9702 37.2482 20.9855 37.2482 20.9886 37.2421C20.961 37.2329 20.9396 37.2268 20.9427 37.236Z" fill="#1B1B1B"/>
<path d="M20.4043 36.8535C20.4043 36.8535 20.4265 36.8694 20.4392 36.8789C20.4297 36.8662 20.417 36.8535 20.4043 36.8535Z" fill="#1B1B1B"/>
<path d="M24.0023 39.5426L23.9541 39.4492C23.93 39.4583 23.9752 39.5004 24.0023 39.5426Z" fill="#1B1B1B"/>
<path d="M25.0928 40.8361L25.111 40.8604C25.111 40.8604 25.1384 40.8634 25.1506 40.8604L25.0928 40.833V40.8361Z" fill="#1B1B1B"/>
<path d="M24.543 40.0885C24.543 40.0885 24.5524 40.0729 24.5524 40.0635C24.5461 40.0697 24.543 40.076 24.543 40.0885Z" fill="#1B1B1B"/>
<path d="M19.2344 36.165C19.2344 36.165 19.2407 36.1682 19.2439 36.1714C19.2979 36.1905 19.2693 36.1777 19.2344 36.165Z" fill="#1B1B1B"/>
<path d="M10.793 36.0959C10.7628 36.2136 10.6783 35.933 10.6572 36.108C10.6783 36.0899 10.79 36.2347 10.793 36.0959Z" fill="#1B1B1B"/>
<path d="M17.6826 37.96C17.6826 37.96 17.7049 37.9727 17.7176 37.9727C17.7144 37.9663 17.7049 37.9631 17.6826 37.96Z" fill="#1B1B1B"/>
<path d="M16.7481 38.2925C16.721 38.2925 16.7119 38.2835 16.6758 38.2925C16.6788 38.2925 16.6818 38.2986 16.6878 38.2986C16.6999 38.2895 16.7179 38.2835 16.7481 38.2895V38.2925Z" fill="#1B1B1B"/>
<path d="M15.671 38.334C15.671 38.334 15.6832 38.3431 15.6893 38.3462C15.7014 38.3462 15.7136 38.3462 15.7228 38.3431L15.668 38.334H15.671Z" fill="#1B1B1B"/>
<path d="M16.7622 38.7939L16.5762 38.7999C16.6272 38.7999 16.6962 38.7999 16.7622 38.7939Z" fill="#1B1B1B"/>
<path d="M5.78689 37.876L5.76465 37.9109C5.76465 37.9109 5.78689 37.8887 5.78689 37.876Z" fill="#1B1B1B"/>
<path d="M16.0346 38.8362C16.0015 38.8121 15.9684 38.8001 15.9322 38.791C15.9232 38.797 15.9172 38.8 15.9111 38.8061L16.0346 38.8332V38.8362Z" fill="#1B1B1B"/>
<path d="M1.27402 45.4801C1.31913 45.3207 1.21688 45.3839 1.18079 45.3388C1.21086 45.1433 1.265 45.2666 1.32214 45.2125C1.33417 45.0892 1.28304 44.9749 1.31312 44.8877C1.32816 44.8877 1.33718 44.8696 1.34921 44.8937C1.32515 44.7493 1.46349 44.5238 1.4274 44.3523C1.43643 44.3433 1.44545 44.3403 1.45447 44.3403C1.40635 44.3523 1.36725 44.3403 1.34019 44.3283C1.36124 44.2561 1.33116 44.1809 1.39131 44.1689C1.37628 44.211 1.39432 44.223 1.40635 44.2471V44.1659C1.50259 44.1237 1.40034 44.2771 1.45748 44.2952C1.47552 44.1418 1.48154 43.9553 1.53868 43.8531C1.61989 43.8531 1.47252 44.1177 1.5868 43.9944L1.49958 44.1538C1.65898 44.0636 1.45447 44.2531 1.61989 44.1779C1.71913 43.9644 1.67101 43.9162 1.77327 43.7027C1.75222 43.6395 1.7071 43.6967 1.68605 43.6335C1.72816 43.2877 1.95973 43.4561 1.95673 43.1914C1.93267 43.1132 1.85447 43.0531 1.96876 42.9117L2.0259 43.0019C2.12214 42.7944 1.95673 42.8305 2.11011 42.635C2.12214 42.6862 2.065 42.8095 2.08605 42.7824C2.20936 42.6681 2.08605 42.6621 2.13718 42.5538L2.21838 42.5628C2.31462 42.3433 2.36876 42.0696 2.48906 41.829C2.50109 41.8531 2.50109 41.9042 2.55222 41.8591C2.61838 41.7027 2.70861 41.5463 2.80485 41.3989C2.9041 41.2486 3.0274 41.1222 3.13267 40.9989L3.1477 40.8576C3.16575 40.8335 3.20184 40.8305 3.19583 40.8636C3.28605 40.7734 3.16575 40.8335 3.17778 40.7674C3.21387 40.7042 3.26199 40.7102 3.25297 40.7613C3.33417 40.5508 3.55071 40.1929 3.75222 40.0576L3.73417 40.1057C3.87853 39.9854 3.77327 39.8591 3.93567 39.7689L3.92064 39.8019C4.21537 39.5192 4.47101 39.1433 4.75071 38.9809C4.72064 38.8726 5.05447 38.7132 4.97327 38.605C5.17778 38.4786 5.15071 38.5418 5.40635 38.3373C5.46951 38.2771 5.43342 38.1869 5.49658 38.0967L5.5477 38.1418L5.59582 37.9854H5.71011L5.76725 37.9042C5.73718 37.9313 5.68605 37.9433 5.67402 37.9253C5.76124 37.7899 5.97477 37.6847 6.00485 37.7087C6.07703 37.6065 6.15222 37.5072 6.2274 37.408C6.24244 37.435 6.20334 37.4831 6.18229 37.5313C6.27252 37.3418 6.26049 37.5583 6.34169 37.3869C6.31462 37.3929 6.32364 37.3478 6.31462 37.3358C6.40785 37.3027 6.55522 37.1613 6.65447 37.0471L6.6665 37.1012C6.87402 36.9237 7.07853 36.7012 7.31312 36.5087C7.21688 36.5628 7.18079 36.4816 7.24695 36.4185L7.31913 36.4516C7.33718 36.3794 7.22891 36.4877 7.28605 36.3704C7.38229 36.3072 7.39733 36.3914 7.36124 36.4486L7.45447 36.3463C7.47552 36.3583 7.45447 36.3884 7.4665 36.4155C7.48455 36.3463 7.69808 36.3313 7.71613 36.22L7.73417 36.232C7.98079 36.0666 8.07703 35.9613 8.28455 35.841C8.25748 35.7839 8.3477 35.7508 8.38379 35.6696C8.54921 35.5914 8.75372 35.5643 8.94319 35.4651C9.06951 35.3809 8.96425 35.3989 9.01237 35.3388C9.04545 35.3899 9.24395 35.3117 9.15372 35.3869C9.39131 35.2937 9.45748 35.2666 9.76124 35.1463C9.72214 35.1313 9.68004 35.1313 9.69507 35.1072C9.75222 35.0831 9.83041 35.0952 9.83041 35.1283L9.81537 35.1373C9.89056 35.1072 9.97176 35.0922 10.059 35.0862C10.1011 35.0831 10.1492 35.0801 10.1853 35.0801C10.2094 35.0801 10.2274 35.0862 10.2394 35.0952C10.2936 35.1283 10.2936 35.1553 10.3056 35.1613C10.3056 35.1644 10.3146 35.1674 10.3327 35.1674H10.3267C10.3417 35.1764 10.3537 35.2065 10.3627 35.2516C10.3627 35.2425 10.3567 35.2636 10.3537 35.2696C10.3507 35.2786 10.3477 35.2816 10.3447 35.2786C10.3387 35.2786 10.3357 35.2636 10.3327 35.2456C10.3206 35.2365 10.3026 35.2395 10.2845 35.2275C10.2845 35.6155 10.1853 35.838 10.2876 36.1538C10.2605 36.22 10.2575 36.3132 10.2755 36.4155C10.2936 36.5177 10.3537 36.62 10.4048 36.7283C10.45 36.8395 10.5402 36.9238 10.5973 37.02C10.6605 37.1132 10.7116 37.2034 10.7567 37.2756L10.7718 37.2365C10.862 37.2696 10.8289 37.3238 10.868 37.3749C10.883 37.3448 10.8259 37.2847 10.88 37.3057C11.4184 37.7659 12.0409 38.1508 12.6906 38.4004C12.9282 38.4847 12.886 38.238 13.1627 38.4095L13.0575 38.4606C13.5627 38.5117 14.059 38.6741 14.5492 38.6741C14.5191 38.6862 14.5161 38.7072 14.468 38.7012C14.5612 38.7764 14.847 38.7493 14.853 38.7042C14.9282 38.7162 14.865 38.7463 14.9101 38.7734C15.0094 38.8155 15.1748 38.7283 15.2259 38.7854C15.2349 38.7944 15.1958 38.8004 15.1748 38.8034C15.2439 38.7824 15.4876 38.8365 15.4274 38.7704C15.6079 38.8125 15.7793 38.7493 15.9267 38.7884C16.0229 38.7192 16.2424 38.8275 16.2695 38.7222C16.2605 38.8245 16.6033 38.7764 16.7146 38.7192C16.6785 38.7523 16.8199 38.7433 16.7808 38.7884C16.9161 38.7824 17.0364 38.7253 17.0033 38.6801C17.1387 38.7162 17.259 38.6651 17.3642 38.623C17.4695 38.5809 17.5567 38.5237 17.653 38.5749C18.0349 38.4004 18.3597 38.1508 18.6033 37.8561C18.6334 37.8922 18.5703 37.9884 18.4891 38.0486C18.4109 38.1147 18.3327 38.1779 18.3718 38.217C18.4409 38.1508 18.4981 38.0877 18.5492 38.0305C18.5973 37.9644 18.6334 37.8982 18.6755 37.838C18.7597 37.7177 18.8169 37.5824 18.9161 37.432C18.9642 37.3508 18.9402 37.5042 18.9312 37.5373C19.0003 37.3598 19.0635 37.1914 19.1026 37.02C19.1146 36.9839 19.1176 36.9238 19.1236 36.9027V36.8606C19.1236 36.8335 19.1176 36.8034 19.1026 36.7583C19.1116 36.7704 19.1206 36.7914 19.1297 36.8095C19.1267 36.7854 19.1417 36.7854 19.0966 36.7283L19.1086 36.7643C19.0725 36.7463 19.0364 36.6681 18.9943 36.5598C18.9823 36.5268 18.9582 36.4696 18.9582 36.4576C18.9642 36.4486 18.9673 36.4395 18.9642 36.4305C19.0244 36.611 19.1627 36.5689 19.1778 36.7613C19.1838 36.7553 19.1898 36.7343 19.1778 36.6922C19.2079 36.7162 19.2109 36.7403 19.2048 36.7764C19.259 36.7764 19.2409 36.7132 19.3282 36.7583C19.3131 36.7764 19.2981 36.7764 19.283 36.8004C19.2951 36.7824 19.3582 36.7884 19.4124 36.8004C19.4665 36.8125 19.5267 36.8365 19.5928 36.8786C19.5778 36.8877 19.5868 36.9117 19.5447 36.8877C19.7883 37.005 20.0048 36.9929 20.2485 37.1674C20.1251 37.2125 20.3236 37.2425 20.2966 37.3237L20.447 37.3749L20.4109 37.3087C20.5342 37.3749 20.6695 37.3809 20.7597 37.4621L20.6515 37.444L20.8861 37.5553L20.7718 37.4561C20.9161 37.4862 20.8109 37.3538 20.9612 37.4651C20.9251 37.4531 21.0815 37.5343 21.1206 37.6125C21.1928 37.6215 21.271 37.6335 21.3492 37.7027C21.3582 37.7388 21.283 37.7719 21.2891 37.7959C21.3823 37.7689 21.5808 37.9403 21.6891 37.9222C21.656 37.9222 21.6319 37.9583 21.6349 37.9734L21.7131 37.9553C21.7582 38.0034 21.7612 38.0155 21.7342 38.0425C21.8936 38.1508 21.7372 37.9192 21.9086 38.0786C21.8906 38.0726 21.8936 38.0847 21.8575 38.0726C22.0379 38.214 22.2545 38.2771 22.4109 38.4215C22.4139 38.5268 22.2485 38.3343 22.2665 38.4335C22.5221 38.5899 22.8439 38.7042 23.0545 38.9087L23.0184 38.8666C23.1267 38.8004 23.1507 39.0471 23.2951 39.1042C23.262 39.0862 23.2169 39.1222 23.2319 39.1192C23.3673 39.2636 23.5387 39.3659 23.7673 39.5824L23.7191 39.5734C23.7763 39.6816 23.9116 39.823 23.9808 39.9313C24.0289 39.9403 24.071 40.0034 24.077 39.9403C24.1913 40.3553 24.6214 40.4756 24.7206 40.8456C24.6936 40.8125 24.6394 40.7824 24.6575 40.8095L24.859 41.035C24.886 40.9839 24.859 40.9839 24.859 40.9087C24.9071 40.9207 24.9763 40.9749 25.0184 41.035C24.9101 40.9448 24.9522 41.0862 24.9612 41.1493C24.9673 41.1313 24.9943 41.1373 25.0033 41.1253C25.0214 41.3057 25.1056 41.0831 25.1808 41.2967L25.1507 41.3027C25.2079 41.3598 25.28 41.3989 25.3251 41.4741C25.2981 41.5373 25.253 41.42 25.2079 41.444C25.28 41.5403 25.4394 41.5734 25.4545 41.6997C25.4094 41.6666 25.3673 41.6065 25.3251 41.5734C25.3372 41.7117 25.3582 41.7117 25.4003 41.7929V41.7839L25.4876 41.9704L25.4725 41.9162C25.6861 41.9523 25.671 42.1538 25.8695 42.2681C25.677 42.1568 25.8033 42.2711 25.7402 42.2982C25.7522 42.3523 25.7793 42.4305 25.7522 42.4215C25.8515 42.4726 25.8033 42.5809 25.9477 42.6501C25.9327 42.6681 26.0018 42.7373 25.9447 42.7493C26.0289 42.8456 25.9597 42.7042 25.9898 42.6982C26.1582 42.8215 26.1612 43.1283 26.3958 43.3117C26.5582 43.4922 26.6454 43.4922 26.7958 43.6636C26.8048 43.7478 26.6966 43.6516 26.6966 43.6516C26.7327 43.7719 26.7838 43.8471 26.865 43.9313C26.8379 43.9222 26.8349 43.9493 26.8319 43.9914C26.883 44.0666 26.9312 44.0034 26.9673 44.1237C26.9342 44.1177 26.8891 44.1147 26.8439 44.0907C26.9161 44.1719 27.0064 44.2441 27.0815 44.3313C27.0635 44.3764 26.9973 44.3012 26.9552 44.2801C27.0334 44.3794 27.1507 44.5448 27.2229 44.5478L27.2018 44.4666C27.2289 44.5057 27.1688 44.5147 27.1417 44.4907C27.0454 44.4215 27.0815 44.3463 27.0966 44.3283L27.1507 44.3914C27.2199 44.2561 26.9703 44.1237 26.8921 43.9824L27.0064 43.9914L26.856 43.8892C26.856 43.8471 26.8921 43.7989 26.9432 43.8591C26.9221 43.7358 26.862 43.7899 26.853 43.6786C26.853 43.6636 26.862 43.6666 26.868 43.6726L26.7838 43.5914C26.8109 43.6004 26.8319 43.5403 26.856 43.6065C26.7958 43.405 26.6244 43.3659 26.6424 43.2636L26.6575 43.2756C26.48 43.0531 26.5853 43.2877 26.4048 43.1523L26.471 42.9418L26.3988 42.9568C26.3868 42.9298 26.3597 42.8786 26.3868 42.8726C26.2876 42.8065 26.3718 42.9057 26.2996 42.8726C26.2785 42.7192 26.065 42.5659 26.1402 42.4786C26.068 42.4666 26.1793 42.611 26.068 42.5087C26.1432 42.4095 25.9567 42.3764 25.9297 42.238C26.0018 42.238 26.0409 42.3553 26.0169 42.22C25.8906 42.211 25.8966 42.0004 25.8184 41.9222C25.7462 41.9644 25.659 41.7478 25.5327 41.6155C25.5627 41.6095 25.3733 41.3117 25.3011 41.1553H25.3161C25.2289 41.1734 25.1387 41.023 25.0515 40.9328C25.0936 40.9087 25.1236 40.9147 25.1808 40.9568L25.1086 40.8606C25.0695 40.8546 25.0364 40.8305 24.9853 40.7764L25.0515 40.7644C24.9552 40.638 24.8018 40.5538 24.7116 40.3644C24.6605 40.3914 24.6815 40.5899 24.5221 40.4425C24.5432 40.4185 24.5793 40.3794 24.6244 40.4155C24.6094 40.4034 24.5642 40.3794 24.5522 40.3403L24.6454 40.3764C24.6064 40.2892 24.5823 40.3644 24.5402 40.3042C24.5763 40.2771 24.5312 40.241 24.5673 40.229C24.5823 40.241 24.5913 40.2922 24.6244 40.3042C24.5793 40.232 24.5372 40.1358 24.5432 40.0907C24.5282 40.1117 24.4951 40.1268 24.453 40.0847C24.3507 39.9644 24.462 40.0095 24.4199 39.9222C24.3718 39.9102 24.3327 39.811 24.2785 39.8531C24.2485 39.817 24.2695 39.7899 24.2725 39.7659C24.2003 39.7177 24.0169 39.4771 24.0259 39.5914L24.0349 39.6095L24.0229 39.6004C23.9116 39.5192 23.8274 39.408 23.7492 39.2907C23.659 39.1824 23.5808 39.0561 23.4665 38.9809L23.4815 38.9659C23.3462 38.8726 23.1988 38.7403 23.0785 38.7072C23.0424 38.6771 23.0154 38.605 23.0485 38.5959C22.9402 38.5358 22.9131 38.5478 22.7928 38.4125C22.9161 38.4546 22.7778 38.3583 22.9131 38.4636C22.7958 38.3523 22.7868 38.3012 22.6094 38.2561C22.6906 38.241 22.5492 38.1298 22.477 38.0997L22.5462 38.1959C22.471 38.1538 22.4139 38.1087 22.3507 38.0636L22.4259 38.0215C22.2003 37.7659 21.8454 37.838 21.7131 37.5824C21.6139 37.5824 21.8454 37.7057 21.7492 37.7177C21.6259 37.6335 21.5447 37.4621 21.5056 37.438C21.3492 37.2997 21.2861 37.438 21.1116 37.3087C21.1236 37.3448 21.1116 37.42 20.9582 37.3659C20.8319 37.2847 20.853 37.1794 20.9432 37.2065C20.9763 37.2215 20.9883 37.2365 20.9823 37.2456C21.0304 37.2606 21.0906 37.2816 21.0515 37.2275L21.0214 37.2425C20.9703 37.1824 20.7868 37.0862 20.85 37.0711C20.7387 37.038 20.7868 37.0862 20.853 37.1403C20.7026 37.014 20.5913 36.9959 20.4289 36.8816C20.45 36.9087 20.459 36.9508 20.4319 36.9358C20.1913 36.7704 20.2966 36.9207 20.1161 36.8425C20.0349 36.7553 20.1973 36.7734 20.0048 36.7132C19.9116 36.635 20.0139 36.638 20.068 36.641C19.8845 36.605 19.7853 36.4576 19.6981 36.4034L19.7913 36.4275C19.7342 36.4125 19.6951 36.3914 19.653 36.3704L19.677 36.4425C19.6319 36.4095 19.5898 36.3884 19.6018 36.3674C19.5357 36.3734 19.6018 36.4666 19.4785 36.4576C19.3913 36.3824 19.1928 36.3463 19.1507 36.2471C19.3131 36.3403 19.3041 36.3192 19.2921 36.2862C19.28 36.2561 19.253 36.211 19.4124 36.2862C19.3492 36.2651 19.28 36.229 19.1898 36.1719C19.1748 36.1568 19.2018 36.1598 19.2259 36.1719C18.8439 35.9072 19.0725 36.1839 18.7447 36.0155C18.7507 35.9944 18.7146 35.9583 18.6695 35.9192C18.6244 35.8831 18.5612 35.841 18.5552 35.8471C18.6064 35.8651 18.6575 35.9162 18.6515 35.9343C18.6545 35.9493 18.6424 35.9523 18.6394 35.9674C18.6394 35.9854 18.6364 36.0004 18.6244 36.0155C18.6184 36.0155 18.6124 36.0095 18.6094 36.0095C18.6154 36.229 18.6876 36.3463 18.6936 36.4606C18.6936 36.4155 18.6936 36.3704 18.6936 36.3253C18.7507 36.4335 18.7507 36.5358 18.7718 36.6952C18.7417 36.6952 18.7387 36.5388 18.7297 36.5869C18.7778 36.7042 18.7477 36.7764 18.7146 36.8636C18.6906 36.9237 18.6424 36.9809 18.6485 37.0561C18.6064 37.1102 18.5763 37.041 18.5432 37.0862C18.5282 37.2425 18.4409 37.2155 18.3928 37.3598C18.462 37.3508 18.456 37.3328 18.4409 37.4621C18.474 37.3749 18.5221 37.3027 18.5372 37.2125C18.5432 37.2756 18.5372 37.3388 18.5251 37.4019C18.5763 37.3328 18.5763 37.2305 18.6033 37.1884C18.6124 37.2816 18.6033 37.2726 18.6575 37.2516C18.5462 37.3268 18.5853 37.4831 18.465 37.5674L18.3627 37.4831C18.2725 37.5313 18.2394 37.6095 18.1823 37.6847C18.1191 37.7508 18.062 37.8471 17.9357 37.8952C17.9627 37.8862 17.9958 37.8862 18.0199 37.8711C18.0199 37.9373 17.8785 37.9553 17.8154 38.0155C17.8033 37.9734 17.7492 37.9824 17.7041 37.9734C17.7251 38.0095 17.5236 38.0395 17.5327 38.1298L17.4003 38.1147C17.1928 38.1659 17.1898 38.2952 16.9733 38.3313C17.0274 38.2711 16.9282 38.2591 17.0605 38.1959C16.9913 38.211 16.9282 38.214 16.9312 38.2441C16.8891 38.229 16.7447 38.3403 16.6725 38.2982C16.6454 38.3192 16.6394 38.3674 16.5582 38.3704C16.5492 38.3613 16.5582 38.3493 16.5582 38.3493C16.5582 38.3704 16.4319 38.3914 16.5101 38.4335C16.2785 38.3283 15.8785 38.4636 15.683 38.3433C15.5236 38.3643 15.3312 38.3553 15.1838 38.3433C15.1928 38.3313 15.1838 38.3222 15.2139 38.3283C15.0184 38.2681 15.0785 38.4456 14.856 38.3794C14.7477 38.2982 14.9823 38.3523 14.9101 38.3192C14.8951 38.1719 14.6334 38.3192 14.4921 38.2019H14.5312C14.4229 38.1328 14.2424 38.208 14.053 38.1689C14.053 38.1689 14.065 38.1568 14.059 38.1478C13.9176 38.2019 13.665 38.1899 13.4815 38.1598C13.5507 38.1177 13.5688 38.1508 13.5477 38.0847C13.4665 38.0726 13.5507 38.1809 13.3853 38.1568C13.3402 38.1147 13.2319 38.0576 13.2319 37.9944L13.3823 38.0275C13.3251 37.9313 13.1868 37.9824 13.1116 37.9493L13.1297 37.9192C12.8951 37.8771 12.871 37.9553 12.6304 37.8651L12.6454 37.8982C12.483 37.9343 12.5522 37.814 12.3988 37.826L12.3928 37.7298C12.2966 37.7298 12.068 37.6847 11.9086 37.6245C12.0259 37.6034 12.2033 37.6696 12.3297 37.6696C12.2424 37.6425 12.056 37.5463 11.9928 37.5674C12.0289 37.5764 12.08 37.5764 12.1041 37.6034C11.9778 37.6155 11.8244 37.5854 11.668 37.4982C11.7251 37.432 11.6379 37.3568 11.5297 37.2756C11.4755 37.2365 11.4184 37.1914 11.3733 37.1493C11.3312 37.1042 11.3071 37.0501 11.3071 37.005C11.2439 36.9659 11.1868 36.9177 11.1327 36.8666C11.0755 36.8155 11.0485 36.7463 11.0094 36.6831C10.9221 36.5598 10.8921 36.4095 10.8259 36.2621C10.7297 36.4155 10.7988 36.1719 10.6725 36.226C10.6454 36.1478 10.6394 36.1147 10.6485 36.1087C10.6485 36.0245 10.6876 35.9373 10.7056 35.8591C10.7417 35.8019 10.7417 35.9313 10.7718 35.9222C10.7748 35.7568 10.8199 35.8531 10.862 35.7478C10.8109 35.7689 10.7958 35.6877 10.8229 35.5974L10.7477 35.7237C10.7236 35.6034 10.7537 35.5523 10.7958 35.5072C10.8169 35.4862 10.8349 35.4621 10.847 35.432C10.85 35.423 10.853 35.417 10.856 35.405C10.862 35.3869 10.856 35.405 10.868 35.3538C10.8861 35.3027 10.9041 35.2516 10.9191 35.1884L10.8981 35.3508C10.9251 35.2636 10.9793 35.1313 11.0364 34.9839C11.1146 34.8275 11.2079 34.6471 11.271 34.5117C11.2259 34.5147 11.2018 34.5147 11.1657 34.5207C11.1236 34.5268 11.0815 34.5358 11.0424 34.5418C10.9642 34.5568 10.8951 34.5749 10.8349 34.5989C10.8139 34.5839 10.7898 34.5478 10.9101 34.5328C10.7657 34.5328 10.6003 34.5478 10.4409 34.5659C10.2845 34.5779 10.1071 34.614 10.0409 34.638C9.85748 34.6862 9.68906 34.7283 9.55071 34.7373L9.56876 34.6982C9.5056 34.7253 9.47252 34.7884 9.3853 34.7764C9.3853 34.7613 9.40334 34.7373 9.37327 34.7433C9.34019 34.7613 9.21989 34.8425 9.13267 34.8576L9.18981 34.7974C9.02139 34.8335 8.90109 34.9027 8.79582 34.9719C8.69357 35.0501 8.60635 35.1373 8.48304 35.2065C8.46199 35.1613 8.3868 35.1583 8.29958 35.1764C8.21537 35.1974 8.12214 35.2365 8.05898 35.2636V35.2486C7.87552 35.3388 7.74319 35.4471 7.62289 35.5644C7.49958 35.6756 7.38831 35.7929 7.25898 35.9222C7.00936 35.9674 6.63342 36.3583 6.33267 36.5568C6.3868 36.5328 6.37778 36.62 6.33868 36.6711C6.26349 36.7132 6.21537 36.8786 6.16124 36.8034L6.1853 36.7854C6.07703 36.7613 5.97176 36.9027 5.87252 36.9929L5.93868 37.0952C5.56274 37.2155 5.34019 37.7929 5.09658 37.823C5.06049 37.9042 4.98831 37.9794 4.95222 38.0606L4.9071 38.0125C4.73567 38.1719 4.65146 38.2531 4.46801 38.4756L4.47402 38.4004C4.35973 38.5177 4.47402 38.6771 4.37477 38.7884L4.27552 38.7583C4.08605 38.9689 3.83342 39.1253 3.71011 39.3899C3.7041 39.3779 3.68906 39.3538 3.71613 39.3147C3.6259 39.411 3.32515 39.6546 3.45447 39.7057C3.38831 39.6456 3.25598 39.9253 3.1868 40.0726L3.15372 40.0125C3.13267 40.1659 3.1477 40.1839 3.04846 40.3403C3.01537 40.3704 2.9853 40.3403 3.03342 40.3042C2.91913 40.4004 3.00334 40.4245 2.88004 40.5508V40.4726C2.79582 40.5929 2.81989 40.5959 2.81387 40.6922C2.78379 40.7824 2.64545 40.9177 2.5853 40.9057C2.60334 40.9418 2.59733 41.035 2.53417 41.0982C2.51011 41.0982 2.51613 41.0621 2.51913 41.0471C2.35071 41.2365 2.39883 41.405 2.26049 41.5192C2.23943 41.5132 2.2274 41.5192 2.21237 41.5253C2.31161 41.3538 2.38981 41.2155 2.3868 41.2335C2.33567 41.2034 2.24846 41.3388 2.24244 41.1854C2.21537 41.3207 2.19131 41.5583 2.09207 41.6816C2.08304 41.6847 2.07402 41.6907 2.065 41.6907V41.6726C2.04395 41.7027 2.03492 41.7328 2.0259 41.7628C1.99282 41.8019 1.97477 41.829 1.95372 41.8711C1.90259 41.8651 1.85146 42.0245 1.81537 42.0967C1.87552 42.1177 1.82139 42.208 1.91161 42.1418C1.90259 42.1508 1.91161 42.1237 1.93267 42.0756C1.93567 42.0636 1.94169 42.0516 1.94169 42.0425V42.0486C1.96575 42.0004 1.99282 41.9403 2.0259 41.8681C2.0259 41.9403 2.0259 42.0095 1.95372 42.0726C1.97176 42.1268 1.98981 42.1869 1.99883 42.217C1.87252 42.2741 1.74019 42.4456 1.67703 42.4486C1.60786 42.6831 1.47853 42.9869 1.52966 43.1674C1.51763 43.2365 1.4665 43.2275 1.43943 43.2456C1.44244 43.2034 1.46349 43.1613 1.45447 43.1343C1.4274 43.2696 1.32214 43.5192 1.38831 43.5764C1.29507 43.7268 1.34921 43.4591 1.28304 43.6877L1.27101 43.6486C0.982291 44.0456 1.22891 44.4305 0.913118 44.8726C0.934171 44.8425 0.943193 44.8245 0.958231 44.8215C0.723645 45.3689 0.705599 46.0065 0.471013 46.5448C0.41387 46.7012 0.46199 46.7283 0.480036 46.8365L0.404848 46.8576L0.44996 47.041C0.46199 47.2907 0.203344 47.423 0.260487 47.7478L0.311615 47.7177C0.284547 47.826 0.278532 48.0666 0.230412 48.0425C0.236427 48.0546 0.272517 48.0847 0.242442 48.1238H0.206351L0.227404 48.4004C0.173269 48.605 0.0920656 48.3463 0.0439453 48.6531C0.0439453 48.7704 0.107103 48.9929 0.137178 48.9508C0.143193 48.9027 0.173269 48.8335 0.209359 48.8365L0.215374 48.9418C0.31763 48.9719 0.41387 49.0591 0.516126 48.8215L0.47402 48.638L0.531163 48.5899L0.513118 48.7373C0.573269 48.6591 0.537178 48.6019 0.516126 48.5388C0.546201 48.5298 0.567254 48.5057 0.582291 48.4726L0.507103 48.2862C0.552216 48.2711 0.576276 48.3734 0.615374 48.2621C0.582291 48.1749 0.513118 48.3253 0.501088 48.1869C0.561239 48.1117 0.594321 48.1418 0.570261 48.0365C0.600336 48.0275 0.612366 48.0516 0.618381 48.0907C0.597329 47.9974 0.642442 47.8591 0.594321 47.805C0.666502 47.7268 0.630411 47.5072 0.726652 47.5343C0.708607 47.5042 0.678532 47.3689 0.690562 47.2877C0.780787 47.4561 0.75372 46.9899 0.87402 47.0531C0.786802 46.9238 0.910111 46.6561 0.892066 46.4546C0.898081 46.4666 0.910111 46.4907 0.901088 46.5057C0.934171 46.4004 0.970261 46.3764 1.00635 46.3132C0.925148 46.2801 0.943193 46.1087 0.913118 46.0065C1.0274 45.8952 0.994321 46.1087 1.08455 46.0877C1.01237 46.0786 1.06951 45.8441 1.00034 45.8741C1.07552 45.7869 1.04545 45.7959 1.12966 45.7628C1.0274 45.7177 1.12966 45.6666 1.09056 45.5674C1.18379 45.438 1.20184 45.5583 1.21086 45.3929C1.265 45.3268 1.26199 45.4771 1.26199 45.4771L1.27402 45.4801ZM2.465 41.823C2.44996 41.8531 2.43793 41.8771 2.42891 41.8952C2.43492 41.8801 2.44695 41.8591 2.46199 41.823H2.465ZM2.62139 41.5403C2.60034 41.5734 2.57628 41.6155 2.54921 41.6606C2.52515 41.6606 2.51011 41.6395 2.52816 41.6095C2.53116 41.6335 2.57928 41.5704 2.62139 41.5373V41.5403ZM1.9056 41.9493C1.92064 41.8982 1.93868 41.8862 1.95372 41.8862C1.9447 41.9102 1.93567 41.9373 1.92064 41.9734V41.9824C1.92064 41.9824 1.90861 41.9613 1.9056 41.9493Z" fill="#1B1B1B"/>
<path d="M5.55739 38.1599L5.54469 38.1504L5.53516 38.1822L5.55739 38.1599Z" fill="#1B1B1B"/>
<path d="M19.1299 36.8125C19.1299 36.8125 19.1299 36.8188 19.1299 36.8219C19.1424 36.85 19.1361 36.8344 19.1299 36.8125Z" fill="#1B1B1B"/>
<path d="M21.1236 37.6147C21.0905 37.6087 21.0604 37.6057 21.0303 37.5967C21.0724 37.6268 21.1056 37.6449 21.1236 37.6147Z" fill="#1B1B1B"/>
<path d="M16.7853 38.791L16.7627 38.7942L16.7853 38.791Z" fill="#1B1B1B"/>
<path d="M20.916 37.5312C20.9552 37.5674 20.9913 37.5855 21.0305 37.5975C20.9973 37.5734 20.9582 37.5433 20.916 37.5312Z" fill="#1B1B1B"/>
<path d="M23.0273 38.5478L23.073 38.5083C22.9969 38.4626 23.0578 38.5265 23.0273 38.5478Z" fill="#1B1B1B"/>
<path d="M22.1426 38.2949L22.1908 38.3702L22.254 38.3461L22.1426 38.2949Z" fill="#1B1B1B"/>
<path d="M21.9266 37.6751L21.9628 37.6872L21.8301 37.6299L21.9266 37.6751Z" fill="#1B1B1B"/>
<path d="M15.8662 38.2798L15.8903 38.3521C15.9475 38.3401 15.9566 38.2588 15.8662 38.2798Z" fill="#1B1B1B"/>
<path d="M12.6825 37.8351C12.6613 37.7899 12.5829 37.7386 12.5195 37.7537C12.5859 37.7808 12.6432 37.8321 12.6825 37.8351Z" fill="#1B1B1B"/>
<path d="M5.75807 37.1365L5.7912 37.0732L5.71289 37.1756L5.75807 37.1365Z" fill="#1B1B1B"/>
<path d="M38.8919 15.6987C38.8738 15.5573 38.8137 15.422 38.7355 15.3047C38.6573 15.1904 38.552 15.1002 38.4768 14.9829C38.2723 14.6611 38.149 14.2761 38.0437 13.9152C38.0076 13.7859 37.734 13.8701 37.7129 13.9754C37.5475 14.8055 37.3821 15.6355 37.2137 16.4656C37.2137 16.4746 37.2137 16.4807 37.2076 16.4897C37.0723 16.4055 36.8858 16.3543 36.6783 16.3543C36.2693 16.3543 35.9385 16.5588 35.9385 16.8115C35.9385 17.0641 36.2693 17.2686 36.6783 17.2686C37.0543 17.2686 37.364 17.0942 37.4092 16.8716C37.4392 16.8506 37.4633 16.8265 37.4693 16.7964C37.6167 16.0626 37.761 15.3318 37.9084 14.5979C37.9655 14.7423 38.0287 14.8837 38.1039 15.019C38.2302 15.2506 38.4558 15.416 38.531 15.6746C38.5731 15.816 38.5731 16.0055 38.5159 16.1228C38.4407 16.2761 38.7716 16.2551 38.8257 16.1438C38.8889 16.0115 38.9039 15.8551 38.8858 15.7107L38.8919 15.6987Z" fill="#212121"/>
<path d="M38.7262 20.7307C38.7382 20.6706 38.654 20.6616 38.6149 20.6646C38.1788 20.6946 37.7427 20.7217 37.3066 20.7518C37.2555 20.7548 37.1773 20.7879 37.1653 20.845C37.042 21.4616 36.9187 22.0781 36.7953 22.6977C36.7202 22.6766 36.639 22.6616 36.5517 22.6616C36.239 22.6616 35.9863 22.818 35.9863 23.0104C35.9863 23.2029 36.239 23.3593 36.5517 23.3593C36.8645 23.3593 37.1172 23.2029 37.1172 23.0104C37.1172 22.9383 37.0811 22.8691 37.0179 22.8149C37.1322 22.2405 37.2465 21.6691 37.3608 21.0946C37.3728 21.0315 37.3878 20.9653 37.3999 20.9022C37.7517 20.8781 38.1036 20.854 38.4555 20.833C38.3623 21.3383 38.272 21.8435 38.1788 22.3458C38.1066 22.3247 38.0254 22.3127 37.9412 22.3127C37.6284 22.3127 37.3758 22.4691 37.3758 22.6616C37.3758 22.854 37.6284 23.0104 37.9412 23.0104C38.254 23.0104 38.5066 22.854 38.5066 22.6616C38.5066 22.5894 38.4705 22.5202 38.4044 22.4631C38.4946 21.9668 38.5848 21.4706 38.675 20.9743C38.6901 20.8931 38.7051 20.8119 38.7202 20.7307H38.7262Z" fill="#212121"/>
</g>
<defs>
<filter id="filter0_d_6346_21245" x="0" y="0.0976562" width="42" height="42" filterUnits="userSpaceOnUse" color-interpolation-filters="sRGB">
<feFlood flood-opacity="0" result="BackgroundImageFix"/>
<feColorMatrix in="SourceAlpha" type="matrix" values="0 0 0 0 0 0 0 0 0 0 0 0 0 0 0 0 0 0 127 0" result="hardAlpha"/>
<feOffset/>
<feGaussianBlur stdDeviation="0.5"/>
<feComposite in2="hardAlpha" operator="out"/>
<feColorMatrix type="matrix" values="0 0 0 0 0.231373 0 0 0 0 0.152941 0 0 0 0 1 0 0 0 0.35 0"/>
<feBlend mode="normal" in2="BackgroundImageFix" result="effect1_dropShadow_6346_21245"/>
<feBlend mode="normal" in="SourceGraphic" in2="effect1_dropShadow_6346_21245" result="shape"/>
</filter>
</defs>
</svg>
