<svg width="40" height="40" viewBox="0 0 40 40" fill="none" xmlns="http://www.w3.org/2000/svg">
<circle cx="20" cy="20" r="20" fill="white"/>
<mask id="mask0_438_200" style="mask-type:luminance" maskUnits="userSpaceOnUse" x="0" y="0" width="40" height="40">
<path d="M20 40C31.0457 40 40 31.0457 40 20C40 8.9543 31.0457 0 20 0C8.9543 0 0 8.9543 0 20C0 31.0457 8.9543 40 20 40Z" fill="white"/>
</mask>
<g mask="url(#mask0_438_200)">
<path d="M22.7071 38.6465C20.4936 36.1171 17.2936 35.3382 17.2936 35.3382L17.9583 33.0735C19.5913 33.6059 21.3267 33.7833 23.0891 33.5367C30.2019 32.5382 35.0259 24.9953 33.859 16.6886C32.6951 8.38179 25.9823 2.45698 18.8665 3.45547C11.7507 4.45397 6.9297 11.9968 8.09661 20.3036C8.63496 24.1412 10.3583 27.4735 12.7583 29.8465C12.7583 29.8465 11.5793 32.3307 11.2786 34.1352C11.2786 34.1352 6.16579 33.2329 2.55676 39.248" fill="#FFF7EB"/>
<path d="M2.46943 39.1981C2.45134 39.2523 2.49054 39.2403 2.57196 39.1076L2.59006 38.99L2.46943 39.1981Z" fill="#1B1B1B"/>
<path d="M3.1225 38.3763C3.19769 38.2079 3.29694 38.0184 3.18566 38.0846C3.11649 38.259 3.0804 38.2861 3.02025 38.4816C2.93904 38.6139 2.85784 38.6981 2.85784 38.668C2.83679 38.7222 2.71649 38.8635 2.69543 38.9507C2.8398 38.8034 2.98115 38.5928 3.10145 38.3492C3.14055 38.3071 3.1225 38.3613 3.1225 38.3763Z" fill="#1B1B1B"/>
<path d="M12.1808 29.1343L12.241 29.2096C12.226 29.1885 12.2049 29.1614 12.1808 29.1343Z" fill="#1B1B1B"/>
<path d="M8.27747 20.808C8.28951 20.8772 8.29855 20.9073 8.30457 20.9104C8.28951 20.8471 8.28048 20.7929 8.27747 20.808Z" fill="#1B1B1B"/>
<path d="M8.13586 19.2263C8.13586 19.2594 8.13586 19.2896 8.13888 19.3197C8.13888 19.2835 8.13888 19.2474 8.13586 19.2263Z" fill="#1B1B1B"/>
<path d="M12.1803 29.1333L12.0272 28.9382C12.0032 28.9382 12.1022 29.0403 12.1803 29.1333Z" fill="#1B1B1B"/>
<path d="M4.3764 36.6941C4.34026 36.7332 4.31316 36.7694 4.28906 36.8025L4.3764 36.7061C4.3764 36.7061 4.3764 36.7001 4.3764 36.6941Z" fill="#1B1B1B"/>
<path d="M11.7029 32.8679L11.6818 32.9403C11.6818 32.9645 11.6818 32.9856 11.6818 33.0067L11.7029 32.8679Z" fill="#1B1B1B"/>
<path d="M9.4709 34.286C9.54029 34.277 9.56141 34.2347 9.58555 34.2136C9.54934 34.2378 9.49504 34.2468 9.43469 34.2619C9.43469 34.2709 9.44676 34.277 9.4709 34.286Z" fill="#1B1B1B"/>
<path d="M5.01454 36.3328L4.95129 36.396C4.96936 36.3809 4.99647 36.3538 5.01454 36.3328Z" fill="#1B1B1B"/>
<path d="M12.4875 30.7553C12.4875 30.7553 12.5063 30.7428 12.5126 30.7334C12.5063 30.7334 12.4969 30.7397 12.4875 30.7553Z" fill="#1B1B1B"/>
<path d="M19.9312 36.2136C19.9312 36.2136 19.9312 36.2202 19.9279 36.2202C19.9477 36.2269 19.9543 36.2269 19.9312 36.2136Z" fill="#1B1B1B"/>
<path d="M22.6982 38.6531L22.662 38.6169C22.662 38.6169 22.644 38.6169 22.6379 38.626L22.7012 38.6531H22.6982Z" fill="#1B1B1B"/>
<path d="M27.0165 5.59096C26.7873 5.38892 27.4477 5.82918 27.0979 5.53668C27.122 5.57286 26.7209 5.35876 27.0165 5.59096Z" fill="#1B1B1B"/>
<path d="M4.43665 36.64L4.527 36.5466C4.48483 36.5888 4.45773 36.6189 4.43665 36.64Z" fill="#1B1B1B"/>
<path d="M27.099 5.53771L27.0616 5.50659C27.0772 5.51904 27.0865 5.52837 27.099 5.53771Z" fill="#1B1B1B"/>
<path d="M10.0796 9.99609C10.0796 9.99609 10.0488 10.0268 10.0304 10.0484C10.0365 10.0484 10.0488 10.0361 10.0796 9.99609Z" fill="#1B1B1B"/>
<path d="M8.34583 14.6378L8.37293 14.5173C8.36088 14.5655 8.35185 14.6047 8.34583 14.6378Z" fill="#1B1B1B"/>
<path d="M11.4806 7.83874C11.5258 7.78745 11.544 7.77538 11.5983 7.69995C11.5922 7.70599 11.5862 7.71202 11.5771 7.71805C11.559 7.74823 11.5349 7.78443 11.4806 7.83874Z" fill="#1B1B1B"/>
<path d="M13.3929 5.95589C13.3929 5.95589 13.3628 5.97095 13.3478 5.97999C13.3267 5.99806 13.3026 6.01613 13.2815 6.0342L13.3899 5.95288L13.3929 5.95589Z" fill="#1B1B1B"/>
<path d="M21.0234 33.8133C20.9631 33.7982 20.9269 33.7831 20.8967 33.7681C20.9389 33.8012 20.5318 33.7922 21.0234 33.8133Z" fill="#1B1B1B"/>
<path d="M4.39405 36.7129C4.39706 36.6948 4.4091 36.6738 4.43922 36.6406C4.41814 36.6647 4.39706 36.6858 4.37598 36.7069C4.37598 36.7159 4.37598 36.7219 4.39405 36.7099V36.7129Z" fill="#1B1B1B"/>
<path d="M11.2932 7.5371C11.3867 7.42251 11.4862 7.31697 11.5857 7.21143C11.4983 7.29888 11.3897 7.41648 11.2932 7.5371Z" fill="#1B1B1B"/>
<path d="M34.0482 21.4675L34.0392 21.5669C34.0452 21.5278 34.0482 21.4946 34.0482 21.4675Z" fill="#1B1B1B"/>
<path d="M12.4962 6.28331C12.5656 6.2411 12.6319 6.19285 12.7013 6.14158C12.7133 6.1265 12.7254 6.11143 12.7314 6.09937L12.4962 6.28331Z" fill="#1B1B1B"/>
<path d="M18.1604 33.3892C18.1874 33.3983 18.1904 33.3952 18.2476 33.4073C18.2867 33.4133 18.3017 33.4073 18.3107 33.4013C18.3228 33.3862 18.2987 33.3561 18.3438 33.3531C18.828 33.4704 18.5543 33.4524 18.7137 33.5246C19.0205 33.5877 19.2641 33.5817 19.4927 33.6268C19.5077 33.6389 19.5528 33.6479 19.4987 33.6509C19.8295 33.6689 20.4671 33.7922 20.8521 33.7531C20.8792 33.7592 20.8942 33.7652 20.9002 33.7682C20.8401 33.7381 20.831 33.708 20.8461 33.69C21.0325 33.699 21.1889 33.6719 21.2581 33.708C21.1438 33.705 21.1348 33.7201 21.0807 33.7291L21.2761 33.7171C21.4506 33.7742 21.0115 33.7291 21.0085 33.7652C21.3904 33.7652 21.8325 33.7171 22.1213 33.7171C22.1844 33.7682 21.4416 33.7561 21.8325 33.7922C21.6822 33.7892 21.5318 33.7832 21.3814 33.7772C21.7273 33.8614 21.1047 33.7682 21.4235 33.8584C22.022 33.8704 22.0912 33.8253 22.6867 33.7892C22.816 33.7471 22.6386 33.7531 22.7679 33.711C23.1829 33.6389 23.3483 33.6328 23.4897 33.6419C23.631 33.6449 23.7483 33.6629 24.0431 33.5546C24.1904 33.4795 24.2416 33.4223 24.6716 33.3291L24.5423 33.4283C25.0957 33.2659 24.8371 33.2689 25.4175 33.1035C25.3243 33.1607 24.9965 33.2749 25.0807 33.2509C25.4626 33.1607 25.3303 33.1276 25.613 33.0253L25.6912 33.0524C26.2596 32.8148 26.8551 32.493 27.4325 32.1351C27.4085 32.1652 27.3152 32.2374 27.4596 32.1742C28.1844 31.714 28.9754 31.1456 29.598 30.5952L29.7934 30.3426C29.8446 30.2915 29.9047 30.2614 29.8536 30.3216C30.0942 30.105 29.8446 30.2915 29.9438 30.1682C30.0731 30.0389 30.1303 30.0118 30.0611 30.105C30.434 29.6719 31.0596 28.8358 31.4325 28.3667L31.3784 28.4719C31.6521 28.093 31.604 27.9907 31.8566 27.6449L31.8205 27.7201C32.3709 26.8719 32.804 25.8434 33.1318 25.1486C33.1348 24.9952 33.4867 24.2133 33.4205 24.1261C33.613 23.5847 33.607 23.7531 33.8175 22.9682C33.8746 22.7577 33.8325 22.6404 33.8746 22.3757H33.9228L33.9408 22.0118L34.022 21.8283L34.0461 21.5787C34.028 21.678 33.9949 21.7862 33.9829 21.7682C34.025 21.3802 34.1333 20.8238 34.1574 20.8148C34.1814 20.505 34.1754 20.1952 34.1814 19.8855C34.1995 19.9065 34.1965 20.0629 34.2025 20.1862C34.1814 19.69 34.2626 20.099 34.2325 19.6419C34.2205 19.702 34.2055 19.6088 34.1964 19.5967C34.2295 19.3712 34.2355 18.8539 34.2025 18.4749L34.2355 18.5471C34.2355 18.2013 34.1934 17.8404 34.1634 17.4674C34.1122 17.0975 34.0731 16.7155 34.004 16.3336C34.034 16.6103 33.9679 16.5531 33.9288 16.3336L33.9619 16.2374C33.9077 16.099 33.9829 16.4749 33.8957 16.1832C33.8536 15.8975 33.9198 15.9817 33.9619 16.1441C33.9348 16.0298 33.9168 15.9155 33.8837 15.8013C33.8927 15.7772 33.9168 15.8584 33.9408 15.8764C33.8807 15.7411 33.8686 15.2719 33.7694 15.0795L33.7784 15.0584C33.5919 14.3065 33.4777 13.9727 33.2731 13.3772C33.228 13.3772 33.1558 13.1426 33.0626 12.9772C32.9874 12.7607 32.9062 12.5291 32.819 12.2885C32.7258 12.0509 32.6205 11.8043 32.5062 11.5486C32.3107 11.2088 32.422 11.4614 32.3228 11.3171C32.3438 11.2749 32.0912 10.7787 32.2446 11.0253C31.9228 10.4389 31.8325 10.2734 31.3513 9.5787C31.3904 9.66291 31.4386 9.75314 31.3995 9.71705C31.3092 9.59374 31.219 9.41931 31.2461 9.42833L31.2731 9.4584C30.7077 8.70051 30.0401 7.63585 29.4386 7.15765L29.4716 7.18472C29.2822 7.00427 29.0807 6.83585 28.8792 6.67043C28.6175 6.42081 29.0566 6.79675 28.8792 6.59825C28.2025 6.08698 27.8626 5.72006 27.2581 5.36517C27.1649 5.26291 27.0145 5.14863 26.831 5.03134C26.6506 4.90803 26.4371 4.78472 26.2115 4.67043C25.7664 4.42983 25.2822 4.22231 24.9574 4.05088L24.9874 4.09299C24.804 4.04487 24.7829 3.98472 24.6536 3.93359C24.6656 3.95765 24.8371 4.02983 24.7228 3.99976C23.225 3.44637 21.5318 3.07344 19.8746 3.1366C19.2701 3.16066 19.5438 3.29299 18.7859 3.31404C18.8551 3.28397 18.9243 3.26292 18.9934 3.23885C17.7995 3.44637 16.5513 3.75314 15.5017 4.31555C15.5619 4.27344 15.5558 4.2584 15.6611 4.21028C15.4175 4.28246 14.828 4.62231 14.8461 4.6584C14.6837 4.74562 14.7949 4.6584 14.6897 4.70051C14.4551 4.79976 14.1754 5.07043 14.0431 5.10953C14.022 5.11555 14.0972 5.06141 14.1333 5.03434C13.998 5.13058 13.5017 5.46743 13.6551 5.40728C13.4656 5.52758 13.3002 5.65991 13.1468 5.79224C12.9904 5.92156 12.8461 6.04186 12.7077 6.15314C12.6386 6.24938 12.4912 6.36968 12.3649 6.48397C12.2416 6.60126 12.1333 6.70652 12.1303 6.75765C12.1002 6.67946 11.5468 7.28096 11.3964 7.51855C11.4416 7.43134 11.225 7.69299 11.2731 7.59073C11.0656 7.83735 10.8972 8.07795 10.9604 8.0569C10.7528 8.26743 10.5844 8.51404 10.4521 8.74562C10.3137 8.97119 10.1964 9.16968 10.0701 9.28697C9.60397 10.1201 9.24607 10.9231 8.94833 11.7231C8.88517 11.6659 9.30923 10.8509 9.23104 10.8569C8.92728 11.6118 8.81299 12.0659 8.55435 12.8268C8.47916 13.0223 8.56337 12.7065 8.5754 12.6343C8.35886 13.4133 8.13931 14.1411 8.0551 14.8569C8.04908 14.8539 8.0551 14.7757 8.06412 14.7035C8.04006 14.8449 7.99194 15.0253 8.02803 15.0163L8.04607 14.878C8.09119 14.7697 8.08216 14.914 8.07615 15.0855C8.07314 15.2599 8.06111 15.4614 8.07013 15.4764C8.00998 15.2268 7.95585 16.1742 7.89269 15.7832C7.88968 15.8764 7.89269 15.9937 7.91374 15.9757C7.89269 16.114 7.87765 16.1561 7.86863 16.0118C7.83856 16.5201 7.87765 16.3426 7.85359 16.7998C7.83856 16.7998 7.83856 16.7035 7.82352 16.6554C7.84457 16.89 7.84457 17.1246 7.83254 17.5125C7.82352 17.4885 7.81149 17.5336 7.8145 17.4193C7.8145 17.7531 7.82352 18.0358 7.85359 18.3276C7.86562 18.4719 7.87765 18.6193 7.88367 18.7757C7.89871 18.9321 7.91074 19.0975 7.91675 19.281C7.83555 19.0704 7.91374 19.5306 7.86262 19.5757L7.92577 19.9637L7.9348 19.8043C7.97089 20.1471 8.04908 20.4419 8.08517 20.7366L8.02201 20.487C8.06111 20.6975 8.09419 20.911 8.1363 21.1216C8.11825 21.0013 8.10923 20.878 8.0972 20.7576C8.18442 21.0945 8.15735 20.7095 8.22352 21.1607C8.19946 21.0704 8.28968 21.4975 8.29269 21.678C8.34382 21.8404 8.40998 22.0028 8.4551 22.2524C8.4551 22.3216 8.38292 22.2163 8.37991 22.2614C8.4581 22.4148 8.60547 23.0343 8.71675 23.2238C8.68367 23.1607 8.65359 23.1667 8.6566 23.1907L8.7378 23.314C8.7769 23.4674 8.7769 23.4915 8.74683 23.4764C8.89119 23.9336 8.76487 23.311 8.91826 23.8584C8.90021 23.8163 8.90021 23.8404 8.86412 23.7531C9.04457 24.2945 9.27615 24.7757 9.48367 25.2569C9.4957 25.4223 9.27916 24.8449 9.30923 25.0253C9.62803 25.717 10.0581 26.4058 10.431 27.0343L10.3649 26.9171C10.4882 26.9592 10.6145 27.4043 10.8611 27.684C10.804 27.6118 10.7558 27.6118 10.7769 27.6268C11.0446 28.0509 11.3874 28.4539 11.8957 29.0193L11.8175 28.9622C11.998 29.1968 12.3258 29.5546 12.5453 29.7862C12.5754 29.8103 12.6175 29.8404 12.6446 29.8584C12.6686 29.8764 12.6897 29.8855 12.6746 29.8524L12.6957 29.8825L12.6235 29.9998L12.5423 30.1561C12.4882 30.2614 12.4401 30.3667 12.3949 30.4719C12.3047 30.6855 12.2235 30.896 12.1513 31.1065C12.001 31.5276 11.8686 31.9366 11.6852 32.3276C11.7183 32.2283 11.7513 32.087 11.7213 32.1652C11.6461 32.4028 11.5739 32.6404 11.5107 32.878C11.5619 32.8328 11.5589 32.7907 11.631 32.6494C11.622 32.7456 11.5769 32.9501 11.5258 33.1246C11.598 32.7998 11.4686 33.1095 11.4145 33.2479C11.4325 33.2268 11.4295 33.278 11.4446 33.2689C11.2852 33.6298 11.4927 33.3471 11.3333 33.8524L11.3213 33.8223C11.3032 33.9396 11.3002 34.0298 11.2792 34.1381C11.201 34.1321 11.1228 34.1231 11.0386 34.1171C10.9634 34.0689 11.2371 34.1171 11.219 34.084C11.1619 34.078 11.1168 34.078 11.0416 34.078C10.9664 34.078 10.8942 34.084 10.822 34.087C10.6777 34.099 10.5363 34.105 10.401 34.087C10.5273 34.0719 10.7107 34.0749 10.8401 34.0689C10.5453 34.0178 10.5062 34.0238 10.2867 34.0268H10.3077C10.1363 34.0268 9.96487 34.0268 9.79344 34.0419H9.92577C9.56186 34.1832 9.16186 34.1471 8.68367 34.3426C9.14382 34.1561 8.75284 34.2855 8.77991 34.2313C8.65059 34.2524 8.4551 34.2885 8.50623 34.2614C8.28066 34.3516 8.10923 34.3456 7.80547 34.511C7.78743 34.502 7.56186 34.5952 7.59795 34.5441C7.31224 34.6764 7.67615 34.5351 7.6581 34.5682C7.44156 34.6764 7.18292 34.7907 6.89119 34.902C6.6175 35.0434 6.30773 35.1907 6.03705 35.4103C5.56487 35.7802 5.49269 35.8644 5.0957 36.2494C4.93931 36.3516 5.1769 36.111 5.1769 36.111C4.93931 36.2945 4.75284 36.4298 4.56938 36.6464C4.59946 36.5952 4.55134 36.6313 4.47916 36.6825C4.32277 36.8479 4.40998 36.8298 4.18743 37.0313C4.21149 36.9832 4.23856 36.917 4.30472 36.8268C4.13329 37.0343 3.94983 37.2268 3.79645 37.4614C3.73329 37.5035 3.86863 37.302 3.92277 37.2208C3.73029 37.4674 3.43254 37.8674 3.40247 37.9667L3.5378 37.8193C3.46863 37.9095 3.47465 37.8434 3.51976 37.7742C3.66111 37.5456 3.77239 37.4825 3.79344 37.4795L3.67615 37.6389C3.7754 37.5907 3.88668 37.4253 4.02803 37.2539C4.17239 37.0855 4.32577 36.89 4.46713 36.7486L4.39795 36.911L4.64457 36.5832C4.71675 36.5321 4.78292 36.5171 4.65059 36.6644C4.87314 36.487 4.82201 36.481 5.02653 36.3456C5.05059 36.3336 5.04457 36.3426 5.02653 36.3607L5.22502 36.1682C5.19194 36.2133 5.28818 36.1712 5.15284 36.2764C5.54081 35.9727 5.75735 35.7531 5.9348 35.678L5.90171 35.705C6.4581 35.299 5.91976 35.6148 6.3348 35.302L6.69269 35.2298L6.72878 35.1577C6.79194 35.1246 6.91525 35.0584 6.90021 35.0885C7.12277 34.9441 6.84908 35.0885 6.9754 34.9952C7.14081 34.9441 7.35435 34.8419 7.5378 34.7577C7.72427 34.6734 7.88968 34.6313 7.9348 34.6494C8.04006 34.5772 7.616 34.7336 7.95284 34.5892C8.016 34.6103 8.11224 34.5712 8.23555 34.5201C8.35585 34.4689 8.50923 34.4238 8.66262 34.3967C8.5784 34.4599 8.28968 34.514 8.59946 34.4689C8.68066 34.4148 8.82803 34.3727 8.98743 34.3516C9.14683 34.3336 9.31826 34.3216 9.44457 34.2915C9.44758 34.2343 10.007 34.1892 10.4461 34.1652C10.4371 34.1712 10.5423 34.1772 10.7047 34.1862C10.8671 34.1952 11.0506 34.2073 11.3513 34.2584C11.3754 34.1652 11.3934 34.0659 11.4145 33.9757C11.4325 33.9005 11.4446 33.8464 11.4596 33.7892L11.4656 33.8043C11.4265 33.714 11.5348 33.305 11.616 33.0073C11.6461 33.0283 11.6371 33.0855 11.61 33.2479C11.634 33.1546 11.6611 33.0614 11.6882 32.9712C11.6912 32.902 11.7062 32.8118 11.7604 32.6313L11.7784 32.7125C11.8927 32.3456 11.9799 31.9607 12.1844 31.5065C12.1574 31.4674 11.9408 31.8374 12.1062 31.3351C12.1333 31.3231 12.1724 31.3201 12.1303 31.4524C12.1423 31.4103 12.1724 31.296 12.2145 31.2148L12.1694 31.4223C12.2656 31.2178 12.1844 31.302 12.2566 31.1336C12.2837 31.1486 12.3258 31.0163 12.3378 31.0494C12.3228 31.0945 12.2686 31.1907 12.2536 31.2599C12.3348 31.0704 12.4461 30.8509 12.4972 30.7847C12.4761 30.7937 12.4611 30.7697 12.5152 30.6313C12.6656 30.2764 12.5995 30.5231 12.7047 30.3246C12.7137 30.2764 12.7498 30.2013 12.7769 30.1321C12.798 30.0749 12.8431 29.9667 12.819 29.9667C12.8401 29.9186 12.8611 29.8855 12.8761 29.8584C12.8431 29.8133 12.8371 29.7892 12.816 29.7561C12.7739 29.714 12.7047 29.6479 12.6265 29.5727C12.5604 29.5065 12.4882 29.4343 12.422 29.3712C12.2987 29.2419 12.2085 29.1516 12.2656 29.2509L12.2987 29.29C12.2987 29.29 12.2837 29.2749 12.2746 29.2659C11.7934 28.8148 11.4145 28.2103 11.0265 27.69L11.0386 27.681C10.798 27.3742 10.5543 26.9652 10.3829 26.7456C10.3258 26.6464 10.2716 26.496 10.3107 26.5291C10.1543 26.2764 10.1183 26.2584 9.94382 25.8674C10.1032 26.1201 9.91675 25.7652 10.1002 26.1291C9.9378 25.7802 9.90773 25.699 9.6972 25.3411C9.79344 25.4524 9.61299 25.0614 9.53179 24.896C9.55585 24.9832 9.58893 25.0674 9.61901 25.1516C9.52277 24.9682 9.46262 24.7998 9.39344 24.6313L9.47765 24.7035C9.22502 23.9637 8.87013 23.4163 8.79795 22.8118C8.70773 22.6223 8.89119 23.2298 8.80096 23.0614C8.70773 22.7095 8.66863 22.3306 8.64758 22.2193C8.55735 21.7321 8.46111 21.7892 8.37991 21.2749C8.3769 21.3441 8.34081 21.4163 8.24758 21.0373C8.19645 20.6764 8.24758 20.5832 8.30171 20.8088C8.31675 20.893 8.31675 20.9351 8.31074 20.9351C8.3348 21.0494 8.3769 21.1967 8.36487 21.0554L8.3378 21.0133C8.32577 20.8328 8.24758 20.3426 8.29269 20.4539C8.23254 20.1862 8.24457 20.3426 8.26863 20.5441C8.22352 20.081 8.16938 19.8253 8.14532 19.3501C8.14232 19.4253 8.12427 19.4975 8.12126 19.4223C8.09419 18.7216 8.0581 19.1186 8.02803 18.6434C8.04607 18.3727 8.0972 18.7366 8.0581 18.2614C8.06713 17.9697 8.10322 18.1983 8.12126 18.3125C8.06713 17.8795 8.14532 17.5005 8.15134 17.2539L8.16337 17.4825C8.15434 17.3471 8.15735 17.2328 8.16337 17.1216L8.12126 17.2509C8.1363 17.1186 8.14232 17.0043 8.15735 17.0073C8.14232 16.8689 8.09119 17.1095 8.07615 16.8328C8.10021 16.6554 8.09419 16.2855 8.15134 16.2283C8.08216 16.7877 8.19946 16.1712 8.16938 16.6464C8.16938 16.5531 8.17841 16.4419 8.19946 16.3095C8.20547 16.2885 8.20848 16.3306 8.20547 16.3667C8.30472 15.8373 8.16637 16.114 8.24457 15.5607C8.25961 15.6328 8.31374 15.4404 8.31976 15.3501C8.28668 15.5727 8.25961 15.4494 8.26863 15.2419C8.34081 14.89 8.32277 14.8569 8.35585 14.6704L8.30773 14.881C8.2957 14.8058 8.33179 14.6283 8.37089 14.3817C8.39495 14.3637 8.34382 14.6073 8.37089 14.5231C8.3769 14.2404 8.55134 13.9186 8.6175 13.5366C8.68367 13.3682 8.67164 13.5336 8.72577 13.3862C8.80698 12.9592 8.89119 12.9471 9.00547 12.508C8.93029 12.6193 8.93029 12.6464 8.99946 12.3306L8.79194 13.0494C8.82201 12.89 8.8581 12.7336 8.89119 12.5772C8.81901 12.7937 8.76186 13.0374 8.72277 13.1667C8.75585 12.9381 8.75886 12.9622 8.70171 13.0584C8.84607 12.7787 8.8551 12.4599 9.0145 12.1351L9.09269 12.1772C9.20698 11.9336 9.27314 11.705 9.36938 11.4644C9.4566 11.2208 9.55585 10.9592 9.72126 10.6524L9.60998 10.8479C9.62201 10.7486 9.78743 10.4539 9.88668 10.2524C9.90171 10.2855 9.97991 10.1652 10.0431 10.09C10.031 10.09 10.0912 9.9787 10.1543 9.8554C10.2205 9.7351 10.2897 9.60577 10.2807 9.56367L10.4761 9.31705C10.801 8.8569 10.7558 8.73058 11.0927 8.30051C11.0205 8.45088 11.1859 8.26743 10.9874 8.57119C11.0957 8.42682 11.198 8.30051 11.1829 8.28547C11.2551 8.20728 11.4656 7.87043 11.5919 7.75916C11.631 7.69299 11.619 7.65088 11.7604 7.50051C11.7784 7.48848 11.7694 7.50953 11.7694 7.50953C11.7574 7.50051 11.9709 7.25991 11.8265 7.37119C12.0461 7.19073 12.3198 6.91404 12.5904 6.64637C12.8701 6.38773 13.1468 6.1381 13.3664 6.02081C13.5137 5.88848 13.6882 5.75615 13.8596 5.62983C14.028 5.4975 14.1995 5.38021 14.3528 5.28397C14.3378 5.30502 14.3589 5.296 14.3017 5.33209C14.7318 5.08848 14.5092 5.09149 15.0175 4.83885C15.2912 4.73961 14.7709 5.01028 14.9333 4.9351C15.0446 4.9772 15.5228 4.59825 15.8957 4.496L15.8145 4.5381C16.0912 4.45389 16.4461 4.22532 16.8972 4.07795C16.8972 4.07795 16.8792 4.09299 16.8972 4.09299C17.0416 4.01479 17.2641 3.93961 17.4987 3.8554C17.7363 3.7772 17.998 3.71705 18.2205 3.65389C18.0882 3.72307 18.022 3.72006 18.1152 3.7381C18.3137 3.68998 18.0401 3.68096 18.4431 3.59976C18.5784 3.59976 18.8701 3.56667 18.9152 3.59976L18.5363 3.66592C18.6386 3.67494 18.7589 3.65389 18.8822 3.62682C19.0055 3.60577 19.1288 3.58171 19.228 3.5757L19.204 3.60276C19.4927 3.56066 19.6401 3.53961 19.7934 3.51555C19.9468 3.4975 20.1062 3.4584 20.422 3.47043L20.3558 3.45239C20.7017 3.40126 20.6446 3.47946 20.9934 3.45239L21.0957 3.51855C21.3243 3.51254 21.8987 3.52457 22.3047 3.58472C22.1844 3.58171 22.007 3.5757 21.8205 3.56968C21.634 3.56066 21.4416 3.54863 21.2942 3.55765C21.5198 3.56367 22.0551 3.63885 22.1754 3.62382C22.0852 3.61479 21.9679 3.6178 21.8807 3.59675C22.1634 3.5787 22.5273 3.62081 22.9694 3.72006C22.9183 3.77119 23.204 3.83434 23.5318 3.93359C23.6972 3.98472 23.8716 4.03885 24.025 4.09299C24.1754 4.15314 24.3017 4.21329 24.3709 4.26141C25.1318 4.49901 25.8175 4.88697 26.6055 5.36216C26.3739 5.11254 26.8371 5.50051 26.8371 5.39525C27.0265 5.50051 27.0867 5.55765 27.1017 5.57269C27.2701 5.71404 27.4446 5.84637 27.604 5.99675C27.7122 6.11104 27.4295 5.88848 27.4325 5.91855C27.8025 6.21028 27.5679 6.06893 27.7995 6.27645C27.7694 6.21329 27.9619 6.33359 28.1574 6.52006C28.0701 6.42983 27.9859 6.33359 27.8927 6.24637C28.434 6.62833 28.2897 6.6584 28.807 7.07344L28.6325 6.95314C28.9032 7.16066 29.5288 7.82833 29.7995 8.03585C29.8325 8.08697 29.8656 8.16216 29.7604 8.0569C30.2927 8.67043 30.9543 9.43134 31.2551 9.99675L31.204 9.95464C31.2882 10.081 31.3784 10.1592 31.4596 10.3336C31.4476 10.3306 31.4085 10.2915 31.4446 10.3546C31.4987 10.4178 31.6822 10.6855 31.7694 10.8689L31.6641 10.7306C32.028 11.4374 32.2807 11.7862 32.5694 12.3937C32.5032 12.4208 32.7288 13.0043 32.816 13.305L32.804 13.299C33.1077 14.1712 33.3363 14.7817 33.5378 15.6208C33.5889 16.1561 33.8205 17.4103 33.8145 18.2704C33.8145 18.1381 33.8686 18.2885 33.8777 18.4419C33.8716 18.6434 33.9408 18.9983 33.8777 18.9682V18.896C33.8265 19.0494 33.8295 19.4614 33.8265 19.7832L33.9047 19.8404C33.7754 20.6764 33.7453 22.0539 33.5348 22.487C33.5228 22.6915 33.4566 22.9351 33.4325 23.1366L33.3934 23.1155C33.2491 23.6599 33.1709 23.9306 32.9574 24.5922L32.9724 24.4479C32.8521 24.8208 32.9213 24.9561 32.798 25.299L32.6987 25.3772C32.4371 26.0148 32.0852 26.6103 31.8025 27.2268C31.8025 27.2118 31.7934 27.1847 31.8446 27.0855C31.7724 27.2298 31.5919 27.4855 31.4626 27.705C31.3273 27.9216 31.219 28.093 31.2882 28.0689C31.2611 28.0569 31.1649 28.2043 31.0446 28.3907C30.9213 28.5742 30.7739 28.7998 30.6716 28.9561V28.887C30.5183 29.1607 30.5273 29.1817 30.2506 29.5246C30.1754 29.5967 30.1634 29.5697 30.2656 29.4734C30.016 29.714 30.1152 29.702 29.8115 29.9907C29.8416 29.9486 29.8716 29.9065 29.9017 29.8584C29.6521 30.111 29.6792 30.099 29.5619 30.2584C29.4205 30.4358 29.0536 30.7065 28.9934 30.7155C28.9754 30.7667 28.8431 30.914 28.6716 31.0373C28.6416 31.0434 28.6957 30.9892 28.7228 30.9622C28.4852 31.1396 28.3168 31.284 28.1604 31.4043C28.007 31.5306 27.8686 31.6389 27.6852 31.7291C27.6701 31.7231 27.6431 31.7291 27.613 31.7441C28.016 31.4975 28.3107 31.2569 28.2867 31.287C28.2626 31.2569 27.9528 31.4734 28.1664 31.2539C27.9438 31.4614 27.5408 31.8013 27.213 31.9727C27.1949 31.9787 27.1769 31.9847 27.1649 31.9847L27.1949 31.9607C27.1198 31.9998 27.0536 32.0389 26.9934 32.081C26.8882 32.1351 26.822 32.1682 26.7198 32.2193C26.6656 32.2103 26.3228 32.3967 26.1513 32.478C26.1844 32.511 25.9528 32.6013 26.1814 32.5411C26.1513 32.5501 26.2115 32.5231 26.3258 32.4629C26.3498 32.4479 26.3799 32.4328 26.3949 32.4238L26.3859 32.4328C26.4972 32.3757 26.6416 32.3035 26.807 32.2193C26.6837 32.3095 26.5513 32.3907 26.3528 32.4659C26.2777 32.5351 26.1934 32.6073 26.1393 32.6404C26.007 32.6644 25.8235 32.7186 25.6611 32.7667C25.4987 32.8118 25.3574 32.8389 25.3183 32.8328C25.0536 32.9501 24.7258 33.0464 24.428 33.1456C24.1273 33.2328 23.8506 33.314 23.6792 33.3892C23.5168 33.4283 23.4867 33.3983 23.4235 33.3983C23.5168 33.3742 23.628 33.3561 23.6762 33.3381C23.5168 33.3742 23.2762 33.4193 23.0656 33.4614C22.8551 33.4945 22.6746 33.5276 22.6386 33.5577C22.2205 33.5697 22.8671 33.4885 22.2987 33.5456L22.3739 33.5246C21.8115 33.5216 21.3604 33.5546 20.8852 33.5607C20.413 33.5667 19.9168 33.5396 19.3152 33.3622C19.3995 33.3862 19.4416 33.3983 19.4566 33.4103C19.213 33.3561 18.9694 33.299 18.7258 33.2328L18.3589 33.1336L17.9047 32.9952C17.625 33.9727 17.4897 34.49 17.1889 35.4374C17.2942 35.4674 17.4055 35.5005 17.5107 35.5336C17.5859 35.5577 17.6611 35.5877 17.7363 35.6178C18.1092 35.7592 18.1574 35.7471 18.398 35.8073L18.4611 35.8825C18.5964 35.9216 18.7318 35.9546 18.8641 35.9967C19.4205 36.2103 19.7423 36.5321 20.41 36.8629L20.3438 36.7877C20.5724 36.9321 21.0656 37.2449 21.0055 37.2509C21.0295 37.2629 21.0957 37.278 21.1709 37.3531L21.1619 37.3772C21.3513 37.4915 21.5228 37.6298 21.7032 37.7592C22.0761 38.108 21.5859 37.7742 22.1273 38.2795C22.3288 38.4659 22.7168 38.8028 22.6596 38.7155C22.5844 38.6343 22.4761 38.496 22.4852 38.4749L22.6686 38.6524C22.7528 38.6404 22.9453 38.7396 22.5423 38.2404C22.434 38.1381 22.3137 38.0479 22.1965 37.9577L22.1152 37.8343L22.3889 38.09C22.2566 37.9216 22.1363 37.8494 22.016 37.7622C22.001 37.7231 21.9649 37.6719 21.9017 37.6118L21.5228 37.3862C21.4987 37.3321 21.7092 37.4674 21.4897 37.2719C21.3062 37.1757 21.61 37.4374 21.3243 37.2509C21.1739 37.1005 21.2371 37.1155 21.0235 36.9892C21.0055 36.9531 21.0536 36.9742 21.1378 37.0283C20.9483 36.914 20.6446 36.7065 20.5303 36.6734C20.3649 36.5231 19.8837 36.3005 19.9318 36.2584C19.8626 36.2373 19.5649 36.117 19.3814 36.0328C19.5649 36.081 19.3964 35.9907 19.1949 35.8945C18.9904 35.7983 18.7558 35.693 18.816 35.6749C18.6746 35.6539 18.4431 35.5667 18.1814 35.4734C18.0491 35.4283 17.9137 35.3802 17.7784 35.3411C17.7122 35.3201 17.6431 35.302 17.5799 35.284C17.5558 35.281 17.5348 35.278 17.5077 35.2749C17.5228 35.2749 17.5498 35.2689 17.5589 35.2749C17.5408 35.2689 17.5258 35.2599 17.5168 35.2569C17.5258 35.2358 17.5378 35.2208 17.5468 35.2088C17.5528 35.1998 17.5528 35.2088 17.5619 35.1847C17.5709 35.1577 17.5829 35.1306 17.5949 35.1005C17.5468 35.0494 17.6551 34.6434 17.6822 34.4148C17.8295 34.111 17.6912 34.6283 17.7724 34.5441C17.7213 34.5441 17.8897 33.9787 17.8205 34.0749C17.9258 33.8404 17.8987 33.8704 17.9829 33.7592C17.9528 33.7261 17.9679 33.6689 17.9889 33.5937C18.001 33.5546 18.013 33.5125 18.025 33.4644C18.031 33.4434 18.0371 33.4133 18.0401 33.3922C18.0401 33.3832 18.0401 33.3712 18.0401 33.3592C18.0581 33.3321 18.0671 33.3261 18.0761 33.3261C18.1453 33.3742 18.0942 33.3742 18.2265 33.3952C18.3167 33.4313 18.2716 33.4313 18.2055 33.4223C18.1874 33.4223 18.1634 33.4253 18.1634 33.4253L18.1604 33.3892ZM27.4205 32.114C27.3483 32.1561 27.2882 32.1922 27.2491 32.2163C27.2852 32.1952 27.3333 32.1652 27.4205 32.114ZM28.1032 31.6689C28.022 31.7291 27.9198 31.7922 27.8085 31.8644C27.7754 31.8674 27.7934 31.8374 27.8626 31.7952C27.8295 31.8253 27.998 31.7351 28.1032 31.6689ZM26.4942 32.2855C26.6055 32.2253 26.6446 32.2133 26.6656 32.2133C26.6145 32.2404 26.5513 32.2734 26.4701 32.3155C26.4701 32.3155 26.4611 32.3246 26.4581 32.3276C26.4641 32.3155 26.4731 32.3035 26.4942 32.2855Z" fill="#1B1B1B"/>
<path d="M26.3129 32.4361C26.2978 32.4452 26.2888 32.4512 26.2677 32.4632C26.2918 32.4542 26.3159 32.4452 26.34 32.4391C26.352 32.4271 26.3641 32.4181 26.3731 32.406C26.352 32.415 26.3309 32.4271 26.3129 32.4361Z" fill="#1B1B1B"/>
<path d="M12.2511 29.2214L12.2384 29.2087C12.2384 29.2087 12.2543 29.231 12.2575 29.2405C12.2511 29.231 12.2511 29.2278 12.2479 29.2214H12.2511Z" fill="#1B1B1B"/>
<path d="M33.9253 22.366H33.9133L33.9103 22.4382L33.9253 22.366Z" fill="#1B1B1B"/>
<path d="M11.3996 33.2275C11.3996 33.2275 11.3844 33.2488 11.3722 33.2823C11.3752 33.2823 11.3874 33.258 11.3996 33.2275Z" fill="#1B1B1B"/>
<path d="M8.78979 34.1824C8.77103 34.1949 8.7679 34.2011 8.76477 34.2074L8.78667 34.1824H8.78979Z" fill="#1B1B1B"/>
<path d="M8.05188 14.6863C8.05489 14.6652 8.0579 14.6471 8.06091 14.6291C8.07899 14.4935 8.06393 14.5869 8.05188 14.6863Z" fill="#1B1B1B"/>
<path d="M8.27719 21.6612C8.25609 21.5888 8.23498 21.5195 8.21387 21.4441C8.23498 21.5677 8.25307 21.6642 8.27719 21.6612Z" fill="#1B1B1B"/>
<path d="M11.2638 7.57225C11.2638 7.57225 11.2856 7.54736 11.2949 7.53491L11.2638 7.57225Z" fill="#1B1B1B"/>
<path d="M8.14771 21.1245C8.16278 21.2481 8.18691 21.3507 8.21103 21.4442C8.19294 21.3416 8.17484 21.224 8.14771 21.1245Z" fill="#1B1B1B"/>
<path d="M3.49256 37.6863L3.44739 37.7405C3.44739 37.7405 3.44739 37.7465 3.44739 37.7525L3.49256 37.6863Z" fill="#1B1B1B"/>
<path d="M3.44398 37.7534L3.3988 37.8197C3.4229 37.7896 3.44096 37.7655 3.44398 37.7534Z" fill="#1B1B1B"/>
<path d="M3.30286 37.955L3.39941 37.8162C3.3632 37.8614 3.31794 37.9157 3.30286 37.955Z" fill="#1B1B1B"/>
<path d="M4.85429 36.2647L4.86064 36.2361C4.86064 36.2361 4.85111 36.2551 4.85429 36.2647Z" fill="#1B1B1B"/>
<path d="M5.30859 35.8706C5.19732 35.9608 5.01386 36.0781 4.86649 36.2165L4.86047 36.2375C4.91762 36.1593 5.22138 35.9789 5.30859 35.8706Z" fill="#1B1B1B"/>
<path d="M7.53722 34.7788L7.08309 34.9713C7.1703 34.9502 7.28158 34.9232 7.08008 35.0194C7.66354 34.8089 6.94775 35.0405 7.54023 34.7788H7.53722Z" fill="#1B1B1B"/>
<path d="M8.99901 34.3515C8.74268 34.4118 9.00805 34.3726 8.99599 34.3847C9.15883 34.3395 9.19803 34.3274 8.99901 34.3515Z" fill="#1B1B1B"/>
<path d="M10.2557 26.4032H10.3039C10.1985 26.2315 10.2889 26.4122 10.2557 26.4032Z" fill="#1B1B1B"/>
<path d="M9.14661 24.574L9.2039 24.77L9.27326 24.8454L9.14661 24.574Z" fill="#1B1B1B"/>
<path d="M8.96843 23.3024L9.0016 23.3868L8.88098 23.0671L8.96843 23.3024Z" fill="#1B1B1B"/>
<path d="M13.047 6.28589L12.9716 6.29192C12.875 6.39149 12.8871 6.44881 13.047 6.28589Z" fill="#1B1B1B"/>
<path d="M20.3401 3.45897C20.4273 3.48303 20.6529 3.50108 20.7912 3.47702C20.6108 3.471 20.4333 3.45296 20.3401 3.45897Z" fill="#1B1B1B"/>
<path d="M33.8111 20.1957L33.8051 20.0359L33.7991 20.3374L33.8111 20.1957Z" fill="#1B1B1B"/>
<path d="M20.0631 23.1577C21.1776 23.1577 22.0811 22.6191 22.0811 21.9547C22.0811 21.2903 21.1776 20.7517 20.0631 20.7517C18.9486 20.7517 18.045 21.2903 18.045 21.9547C18.045 22.6191 18.9486 23.1577 20.0631 23.1577Z" fill="#F4BDCB"/>
<path d="M29.0865 23.1577C30.2011 23.1577 31.1046 22.6191 31.1046 21.9547C31.1046 21.2903 30.2011 20.7517 29.0865 20.7517C27.972 20.7517 27.0685 21.2903 27.0685 21.9547C27.0685 22.6191 27.972 23.1577 29.0865 23.1577Z" fill="#F4BDCB"/>
<path d="M29.1732 12.3307C29.6574 13.2991 28.5717 14.7367 28.5717 14.7367C28.5717 14.7367 31.88 15.0374 31.88 12.9322C31.88 11.5878 30.3762 9.92465 30.3762 9.92465C31.88 10.5262 33.6845 14.478 33.6845 14.478C33.6845 14.478 33.083 10.5262 30.3762 7.81938C30.3762 7.81938 27.6694 4.21036 22.8574 3.30811C21.1371 2.85397 19.9191 2.8269 19.9191 2.8269C17.5371 2.96826 15.6424 3.49457 14.1326 4.21337C12.5296 4.83593 7.07095 7.6239 4.58373 17.4434C1.6514 29.0224 4.35816 28.4209 1.6514 30.5261C-1.05537 32.6314 -3.16063 38.3457 2.55365 39.248C2.55365 39.248 5.4108 33.684 11.2755 34.1352C11.2755 34.1352 12.1296 30.3667 12.7552 29.8464C13.1672 29.5036 10.5867 27.6449 9.02283 23.9156C10.1476 21.8434 12.1777 21.8074 13.08 18.1983C13.7025 15.7111 15.7025 10.4028 18.0424 10.2284C19.2905 10.1352 15.0349 14.4389 15.0349 14.4389C15.0349 14.4389 18.704 15.9186 21.3506 13.5367C22.1386 12.8269 22.8544 11.7322 22.704 9.77728L23.0499 10.6976C23.3988 11.6239 23.2514 12.6645 22.6619 13.4585L21.901 14.484C21.901 14.484 24.2198 15.2961 26.7672 14.1412C30.0755 12.6374 25.2634 8.72766 25.2634 8.72766C25.2634 8.72766 28.2709 10.5322 29.1732 12.3367V12.3307Z" fill="black"/>
<path d="M29.261 30.6082C24.061 35.1886 17.9647 33.2548 17.9647 33.2548L17.1437 35.4894C22.5572 37.2939 24.2113 40.4638 24.2113 40.4638C31.279 41.8292 27.9707 36.9931 27.8204 36.3104C27.67 35.6277 27.0685 34.8909 27.8204 33.6668C28.5722 32.4427 29.261 30.6082 29.261 30.6082Z" fill="black"/>
<path d="M21.3776 20.1499C21.8892 20.1499 22.3039 19.4766 22.3039 18.6461C22.3039 17.8156 21.8892 17.1423 21.3776 17.1423C20.866 17.1423 20.4513 17.8156 20.4513 18.6461C20.4513 19.4766 20.866 20.1499 21.3776 20.1499Z" fill="black"/>
<path d="M28.2468 20.1499C28.7583 20.1499 29.1731 19.4766 29.1731 18.6461C29.1731 17.8156 28.7583 17.1423 28.2468 17.1423C27.7352 17.1423 27.3204 17.8156 27.3204 18.6461C27.3204 19.4766 27.7352 20.1499 28.2468 20.1499Z" fill="black"/>
<path d="M24.8125 23.4585C24.0666 23.4585 23.4591 22.851 23.4591 22.1051C23.4591 21.3592 24.0666 20.7517 24.8125 20.7517C25.5584 20.7517 26.1659 21.3592 26.1659 22.1051C26.1659 22.851 25.5584 23.4585 24.8125 23.4585ZM24.8125 21.0525C24.232 21.0525 23.7599 21.5246 23.7599 22.1051C23.7599 22.6855 24.232 23.1577 24.8125 23.1577C25.3929 23.1577 25.8651 22.6855 25.8651 22.1051C25.8651 21.5246 25.3929 21.0525 24.8125 21.0525Z" fill="black"/>
<path d="M24.6646 26.6947C21.5488 26.6947 19.8887 23.7173 19.8676 23.6812C19.8285 23.609 19.8556 23.5158 19.9278 23.4767C20 23.4376 20.0932 23.4646 20.1323 23.5368C20.2165 23.6932 22.2496 27.3263 26.1233 26.1714C26.2045 26.1473 26.2857 26.1924 26.3098 26.2736C26.3338 26.3518 26.2887 26.4361 26.2075 26.4601C25.6571 26.6225 25.1428 26.6947 24.6616 26.6947H24.6646Z" fill="black"/>
<path d="M22.2564 16.1778C22.2022 16.1778 22.1481 16.1477 22.121 16.0966C21.9135 15.6936 21.7 15.483 21.4985 15.483H21.4925C21.2007 15.4891 20.9331 15.9252 20.8549 16.0936C20.8188 16.1688 20.7285 16.2018 20.6534 16.1658C20.5782 16.1297 20.5451 16.0424 20.5812 15.9673C20.6173 15.8891 20.9571 15.1943 21.4864 15.1853H21.4985C21.8233 15.1853 22.124 15.447 22.3887 15.9643C22.4278 16.0394 22.3977 16.1297 22.3225 16.1658C22.3015 16.1778 22.2774 16.1808 22.2534 16.1808L22.2564 16.1778Z" fill="black"/>
<path d="M28.8726 16.1778C28.8184 16.1778 28.7643 16.1477 28.7372 16.0966C28.5297 15.6936 28.3162 15.483 28.1147 15.483H28.1087C27.8169 15.4891 27.5493 15.9252 27.4711 16.0936C27.435 16.1688 27.3448 16.2018 27.2696 16.1658C27.1944 16.1297 27.1613 16.0424 27.1974 15.9673C27.2335 15.8891 27.5733 15.1943 28.1026 15.1853H28.1147C28.4395 15.1853 28.7402 15.447 29.0049 15.9643C29.044 16.0394 29.0139 16.1297 28.9387 16.1658C28.9177 16.1778 28.8936 16.1808 28.8696 16.1808L28.8726 16.1778Z" fill="black"/>
<path d="M-0.766602 47.8643C-0.766602 47.8643 -0.165098 41.8493 2.54167 38.8418C5.24844 35.8343 7.05295 33.729 9.75971 33.729C9.75971 33.729 7.99129 36.6283 13.6695 37.338C18.4815 37.9395 17.88 35.2328 17.88 35.2328C18.8996 35.7501 21.6875 37.0914 22.692 38.2403C24.7973 40.6463 26.6018 43.9546 26.6018 43.9546" fill="white"/>
<path d="M23.0019 38.4451L23.0206 38.4824C23.0206 38.4824 23.0112 38.4575 23.0019 38.4451Z" fill="#1B1B1B"/>
<path d="M19.9428 36.1381C19.9703 36.1503 19.9856 36.1503 19.9887 36.1442C19.9612 36.135 19.9397 36.1289 19.9428 36.1381Z" fill="#1B1B1B"/>
<path d="M19.4044 35.7556C19.4044 35.7556 19.4267 35.7715 19.4394 35.781C19.4298 35.7683 19.4171 35.7556 19.4044 35.7556Z" fill="#1B1B1B"/>
<path d="M23.0024 38.4447L22.9542 38.3513C22.9301 38.3604 22.9753 38.4025 23.0024 38.4447Z" fill="#1B1B1B"/>
<path d="M24.0929 39.7382L24.1112 39.7625C24.1112 39.7625 24.1386 39.7655 24.1507 39.7625L24.0929 39.7351V39.7382Z" fill="#1B1B1B"/>
<path d="M23.5433 38.9906C23.5433 38.9906 23.5527 38.975 23.5527 38.9656C23.5464 38.9718 23.5433 38.9781 23.5433 38.9906Z" fill="#1B1B1B"/>
<path d="M18.2346 35.0674C18.2346 35.0674 18.241 35.0706 18.2441 35.0737C18.2982 35.0928 18.2696 35.0801 18.2346 35.0674Z" fill="#1B1B1B"/>
<path d="M9.79312 34.998C9.76295 35.1157 9.67847 34.8351 9.65735 35.0101C9.67847 34.992 9.7901 35.1368 9.79312 34.998Z" fill="#1B1B1B"/>
<path d="M16.6827 36.8621C16.6827 36.8621 16.705 36.8748 16.7177 36.8748C16.7145 36.8684 16.705 36.8652 16.6827 36.8621Z" fill="#1B1B1B"/>
<path d="M15.7482 37.1946C15.7211 37.1946 15.712 37.1856 15.6759 37.1946C15.6789 37.1946 15.6819 37.2007 15.6879 37.2007C15.7 37.1916 15.7181 37.1856 15.7482 37.1916V37.1946Z" fill="#1B1B1B"/>
<path d="M14.6713 37.2361C14.6713 37.2361 14.6834 37.2452 14.6895 37.2483C14.7017 37.2483 14.7139 37.2483 14.723 37.2452L14.6682 37.2361H14.6713Z" fill="#1B1B1B"/>
<path d="M15.7624 37.696L15.5763 37.702C15.6273 37.702 15.6963 37.702 15.7624 37.696Z" fill="#1B1B1B"/>
<path d="M4.78701 36.7781L4.76477 36.813C4.76477 36.813 4.78701 36.7908 4.78701 36.7781Z" fill="#1B1B1B"/>
<path d="M15.0347 37.7383C15.0016 37.7142 14.9685 37.7022 14.9323 37.6931C14.9233 37.6991 14.9173 37.7021 14.9113 37.7082L15.0347 37.7353V37.7383Z" fill="#1B1B1B"/>
<path d="M0.274387 44.3822C0.319499 44.2228 0.217244 44.286 0.181154 44.2409C0.211229 44.0454 0.265364 44.1687 0.322507 44.1146C0.334537 43.9913 0.283409 43.877 0.313484 43.7898C0.328522 43.7898 0.337545 43.7717 0.349575 43.7958C0.325515 43.6514 0.46386 43.4259 0.42777 43.2544C0.436793 43.2454 0.445815 43.2424 0.454838 43.2424C0.406717 43.2544 0.36762 43.2424 0.340552 43.2304C0.361605 43.1582 0.33153 43.083 0.39168 43.071C0.376642 43.1131 0.394687 43.1251 0.406718 43.1492V43.068C0.502958 43.0258 0.400702 43.1792 0.457845 43.1973C0.47589 43.0439 0.481906 42.8574 0.539048 42.7552C0.620251 42.7552 0.472883 43.0198 0.587169 42.8965L0.499951 43.0559C0.659349 42.9657 0.454838 43.1552 0.620251 43.08C0.719499 42.8665 0.671379 42.8183 0.773635 42.6048C0.752582 42.5416 0.707469 42.5988 0.686417 42.5356C0.728522 42.1898 0.960101 42.3582 0.957093 42.0935C0.933033 42.0153 0.854838 41.9552 0.969123 41.8138L1.02627 41.904C1.12251 41.6965 0.957093 41.7326 1.11048 41.5371C1.12251 41.5883 1.06536 41.7116 1.08642 41.6845C1.20972 41.5702 1.08642 41.5642 1.13754 41.4559L1.21875 41.4649C1.31499 41.2454 1.36912 40.9717 1.48942 40.7311C1.50145 40.7552 1.50145 40.8063 1.55258 40.7612C1.61875 40.6048 1.70897 40.4484 1.80521 40.301C1.90446 40.1507 2.02777 40.0243 2.13303 39.901L2.14807 39.7597C2.16612 39.7356 2.20221 39.7326 2.19619 39.7657C2.28642 39.6755 2.16612 39.7356 2.17815 39.6695C2.21424 39.6063 2.26236 39.6123 2.25333 39.6634C2.33454 39.4529 2.55108 39.095 2.75258 38.9597L2.73454 39.0078C2.8789 38.8875 2.77363 38.7612 2.93604 38.671L2.921 38.704C3.21574 38.4213 3.47138 38.0454 3.75108 37.883C3.721 37.7747 4.05484 37.6153 3.97363 37.5071C4.17815 37.3807 4.15108 37.4439 4.40672 37.2394C4.46988 37.1792 4.43378 37.089 4.49694 36.9988L4.54807 37.0439L4.59619 36.8875H4.71048L4.76762 36.8063C4.73754 36.8334 4.68642 36.8454 4.67439 36.8274C4.7616 36.692 4.97514 36.5868 5.00521 36.6108C5.07739 36.5086 5.15258 36.4093 5.22777 36.3101C5.24281 36.3371 5.20371 36.3852 5.18266 36.4334C5.27288 36.2439 5.26085 36.4604 5.34206 36.289C5.31499 36.295 5.32401 36.2499 5.31499 36.2379C5.40822 36.2048 5.55559 36.0634 5.65484 35.9492L5.66687 36.0033C5.87439 35.8258 6.0789 35.6033 6.31348 35.4108C6.21724 35.4649 6.18115 35.3837 6.24732 35.3206L6.3195 35.3537C6.33754 35.2815 6.22927 35.3898 6.28642 35.2725C6.38266 35.2093 6.39769 35.2935 6.3616 35.3507L6.45484 35.2484C6.47589 35.2604 6.45484 35.2905 6.46687 35.3176C6.48491 35.2484 6.69845 35.2334 6.71649 35.1221L6.73454 35.1341C6.98115 34.9687 7.07739 34.8634 7.28491 34.7431C7.25784 34.686 7.34807 34.6529 7.38416 34.5717C7.54957 34.4935 7.75409 34.4664 7.94356 34.3672C8.06988 34.283 7.96461 34.301 8.01273 34.2409C8.04581 34.292 8.24431 34.2138 8.15409 34.289C8.39168 34.1958 8.45784 34.1687 8.7616 34.0484C8.72251 34.0334 8.6804 34.0334 8.69544 34.0093C8.75258 33.9852 8.83078 33.9973 8.83078 34.0304L8.81574 34.0394C8.89093 34.0093 8.97213 33.9943 9.05935 33.9883C9.10145 33.9852 9.14957 33.9822 9.18566 33.9822C9.20972 33.9822 9.22777 33.9883 9.2398 33.9973C9.29393 34.0304 9.29393 34.0574 9.30596 34.0634C9.30596 34.0665 9.31499 34.0695 9.33303 34.0695H9.32702C9.34205 34.0785 9.35408 34.1086 9.36311 34.1537C9.36311 34.1446 9.35709 34.1657 9.35409 34.1717C9.35108 34.1807 9.34807 34.1837 9.34506 34.1807C9.33905 34.1807 9.33604 34.1657 9.33303 34.1477C9.321 34.1386 9.30296 34.1416 9.28491 34.1296C9.28491 34.5176 9.18566 34.7401 9.28792 35.0559C9.26085 35.1221 9.25784 35.2153 9.27589 35.3176C9.29394 35.4198 9.35409 35.5221 9.40521 35.6304C9.45033 35.7416 9.54055 35.8258 9.59769 35.9221C9.66085 36.0153 9.71198 36.1055 9.75709 36.1777L9.77213 36.1386C9.86236 36.1717 9.82927 36.2258 9.86837 36.277C9.88341 36.2469 9.82627 36.1868 9.8804 36.2078C10.4187 36.668 11.0413 37.0529 11.6909 37.3025C11.9285 37.3868 11.8864 37.1401 12.1631 37.3116L12.0578 37.3627C12.5631 37.4138 13.0593 37.5762 13.5496 37.5762C13.5195 37.5883 13.5165 37.6093 13.4684 37.6033C13.5616 37.6785 13.8473 37.6514 13.8533 37.6063C13.9285 37.6183 13.8654 37.6484 13.9105 37.6755C14.0097 37.7176 14.1751 37.6304 14.2263 37.6875C14.2353 37.6965 14.1962 37.7025 14.1751 37.7055C14.2443 37.6845 14.4879 37.7386 14.4278 37.6725C14.6082 37.7146 14.7796 37.6514 14.927 37.6905C15.0233 37.6213 15.2428 37.7296 15.2699 37.6243C15.2609 37.7266 15.6037 37.6785 15.715 37.6213C15.6789 37.6544 15.8203 37.6454 15.7812 37.6905C15.9165 37.6845 16.0368 37.6274 16.0037 37.5822C16.139 37.6183 16.2593 37.5672 16.3646 37.5251C16.4699 37.483 16.5571 37.4258 16.6533 37.477C17.0353 37.3025 17.3601 37.0529 17.6037 36.7582C17.6338 36.7943 17.5706 36.8905 17.4894 36.9507C17.4112 37.0168 17.333 37.08 17.3721 37.1191C17.4413 37.0529 17.4984 36.9898 17.5496 36.9326C17.5977 36.8665 17.6338 36.8003 17.6759 36.7401C17.7601 36.6198 17.8172 36.4845 17.9165 36.3341C17.9646 36.2529 17.9406 36.4063 17.9315 36.4394C18.0007 36.2619 18.0639 36.0935 18.103 35.9221C18.115 35.886 18.118 35.8258 18.124 35.8048V35.7627C18.124 35.7356 18.118 35.7055 18.103 35.6604C18.112 35.6725 18.121 35.6935 18.13 35.7116C18.127 35.6875 18.1421 35.6875 18.0969 35.6304L18.109 35.6664C18.0729 35.6484 18.0368 35.5702 17.9947 35.4619C17.9827 35.4289 17.9586 35.3717 17.9586 35.3597C17.9646 35.3507 17.9676 35.3416 17.9646 35.3326C18.0248 35.5131 18.1631 35.471 18.1781 35.6634C18.1842 35.6574 18.1902 35.6364 18.1781 35.5943C18.2082 35.6183 18.2112 35.6424 18.2052 35.6785C18.2593 35.6785 18.2413 35.6153 18.3285 35.6604C18.3135 35.6785 18.2984 35.6785 18.2834 35.7025C18.2954 35.6845 18.3586 35.6905 18.4127 35.7025C18.4669 35.7146 18.527 35.7386 18.5932 35.7807C18.5781 35.7898 18.5872 35.8138 18.5451 35.7898C18.7887 35.9071 19.0052 35.895 19.2488 36.0695C19.1255 36.1146 19.324 36.1446 19.2969 36.2258L19.4473 36.277L19.4112 36.2108C19.5345 36.277 19.6699 36.283 19.7601 36.3642L19.6518 36.3461L19.8864 36.4574L19.7721 36.3582C19.9165 36.3883 19.8112 36.2559 19.9616 36.3672C19.9255 36.3552 20.0819 36.4364 20.121 36.5146C20.1932 36.5236 20.2714 36.5356 20.3496 36.6048C20.3586 36.6409 20.2834 36.674 20.2894 36.698C20.3827 36.671 20.5812 36.8424 20.6894 36.8243C20.6563 36.8243 20.6323 36.8604 20.6353 36.8755L20.7135 36.8574C20.7586 36.9055 20.7616 36.9176 20.7345 36.9446C20.8939 37.0529 20.7375 36.8213 20.909 36.9807C20.8909 36.9747 20.8939 36.9868 20.8578 36.9747C21.0383 37.1161 21.2548 37.1792 21.4112 37.3236C21.4142 37.4289 21.2488 37.2364 21.2669 37.3356C21.5225 37.492 21.8443 37.6063 22.0548 37.8108L22.0187 37.7687C22.127 37.7025 22.1511 37.9492 22.2954 38.0063C22.2624 37.9883 22.2172 38.0243 22.2323 38.0213C22.3676 38.1657 22.539 38.268 22.7676 38.4845L22.7195 38.4755C22.7766 38.5837 22.912 38.7251 22.9812 38.8334C23.0293 38.8424 23.0714 38.9055 23.0774 38.8424C23.1917 39.2574 23.6218 39.3777 23.721 39.7477C23.6939 39.7146 23.6398 39.6845 23.6578 39.7116L23.8593 39.9371C23.8864 39.886 23.8593 39.886 23.8593 39.8108C23.9075 39.8228 23.9766 39.877 24.0187 39.9371C23.9105 39.8469 23.9526 39.9883 23.9616 40.0514C23.9676 40.0334 23.9947 40.0394 24.0037 40.0274C24.0218 40.2078 24.106 39.9852 24.1812 40.1988L24.1511 40.2048C24.2082 40.2619 24.2804 40.301 24.3255 40.3762C24.2984 40.4394 24.2533 40.3221 24.2082 40.3461C24.2804 40.4424 24.4398 40.4755 24.4548 40.6018C24.4097 40.5687 24.3676 40.5086 24.3255 40.4755C24.3375 40.6138 24.3586 40.6138 24.4007 40.695V40.686L24.4879 40.8725L24.4729 40.8183C24.6864 40.8544 24.6714 41.0559 24.8699 41.1702C24.6774 41.0589 24.8037 41.1732 24.7406 41.2003C24.7526 41.2544 24.7796 41.3326 24.7526 41.3236C24.8518 41.3747 24.8037 41.483 24.9481 41.5522C24.933 41.5702 25.0022 41.6394 24.9451 41.6514C25.0293 41.7477 24.9601 41.6063 24.9902 41.6003C25.1586 41.7236 25.1616 42.0304 25.3962 42.2138C25.5586 42.3943 25.6458 42.3943 25.7962 42.5657C25.8052 42.6499 25.6969 42.5537 25.6969 42.5537C25.733 42.674 25.7842 42.7492 25.8654 42.8334C25.8383 42.8243 25.8353 42.8514 25.8323 42.8935C25.8834 42.9687 25.9315 42.9055 25.9676 43.0258C25.9345 43.0198 25.8894 43.0168 25.8443 42.9928C25.9165 43.074 26.0067 43.1462 26.0819 43.2334C26.0639 43.2785 25.9977 43.2033 25.9556 43.1822C26.0338 43.2815 26.1511 43.4469 26.2233 43.4499L26.2022 43.3687C26.2293 43.4078 26.1691 43.4168 26.1421 43.3928C26.0458 43.3236 26.0819 43.2484 26.0969 43.2304L26.1511 43.2935C26.2202 43.1582 25.9706 43.0258 25.8924 42.8845L26.0067 42.8935L25.8563 42.7913C25.8563 42.7492 25.8924 42.701 25.9436 42.7612C25.9225 42.6379 25.8624 42.692 25.8533 42.5807C25.8533 42.5657 25.8624 42.5687 25.8684 42.5747L25.7842 42.4935C25.8112 42.5025 25.8323 42.4424 25.8563 42.5086C25.7962 42.3071 25.6248 42.268 25.6428 42.1657L25.6578 42.1777C25.4804 41.9552 25.5857 42.1898 25.4052 42.0544L25.4714 41.8439L25.3992 41.8589C25.3872 41.8319 25.3601 41.7807 25.3872 41.7747C25.2879 41.7086 25.3721 41.8078 25.3 41.7747C25.2789 41.6213 25.0654 41.468 25.1405 41.3807C25.0684 41.3687 25.1796 41.5131 25.0684 41.4108C25.1436 41.3116 24.9571 41.2785 24.93 41.1401C25.0022 41.1401 25.0413 41.2574 25.0172 41.1221C24.8909 41.1131 24.8969 40.9025 24.8187 40.8243C24.7466 40.8665 24.6593 40.6499 24.533 40.5176C24.5631 40.5116 24.3736 40.2138 24.3015 40.0574H24.3165C24.2293 40.0755 24.139 39.9251 24.0518 39.8349C24.0939 39.8108 24.124 39.8168 24.1812 39.8589L24.109 39.7627C24.0699 39.7567 24.0368 39.7326 23.9857 39.6785L24.0518 39.6665C23.9556 39.5401 23.8022 39.4559 23.712 39.2664C23.6609 39.2935 23.6819 39.492 23.5225 39.3446C23.5436 39.3206 23.5796 39.2815 23.6248 39.3176C23.6097 39.3055 23.5646 39.2815 23.5526 39.2424L23.6458 39.2785C23.6067 39.1913 23.5827 39.2665 23.5406 39.2063C23.5766 39.1792 23.5315 39.1431 23.5676 39.1311C23.5827 39.1431 23.5917 39.1943 23.6248 39.2063C23.5796 39.1341 23.5375 39.0379 23.5436 38.9928C23.5285 39.0138 23.4954 39.0289 23.4533 38.9868C23.3511 38.8665 23.4624 38.9116 23.4203 38.8243C23.3721 38.8123 23.333 38.7131 23.2789 38.7552C23.2488 38.7191 23.2699 38.692 23.2729 38.668C23.2007 38.6198 23.0172 38.3792 23.0263 38.4935L23.0353 38.5116L23.0233 38.5025C22.912 38.4213 22.8278 38.3101 22.7496 38.1928C22.6593 38.0845 22.5812 37.9582 22.4669 37.883L22.4819 37.868C22.3466 37.7747 22.1992 37.6424 22.0789 37.6093C22.0428 37.5792 22.0157 37.5071 22.0488 37.498C21.9406 37.4379 21.9135 37.4499 21.7932 37.3146C21.9165 37.3567 21.7781 37.2604 21.9135 37.3657C21.7962 37.2544 21.7872 37.2033 21.6097 37.1582C21.6909 37.1431 21.5496 37.0319 21.4774 37.0018L21.5466 37.098C21.4714 37.0559 21.4142 37.0108 21.3511 36.9657L21.4263 36.9236C21.2007 36.668 20.8458 36.7401 20.7135 36.4845C20.6142 36.4845 20.8458 36.6078 20.7496 36.6198C20.6263 36.5356 20.5451 36.3642 20.506 36.3401C20.3496 36.2018 20.2864 36.3401 20.112 36.2108C20.124 36.2469 20.112 36.3221 19.9586 36.268C19.8323 36.1868 19.8533 36.0815 19.9436 36.1086C19.9766 36.1236 19.9887 36.1386 19.9827 36.1477C20.0308 36.1627 20.0909 36.1837 20.0518 36.1296L20.0218 36.1446C19.9706 36.0845 19.7872 35.9883 19.8503 35.9732C19.739 35.9401 19.7872 35.9883 19.8533 36.0424C19.703 35.9161 19.5917 35.898 19.4293 35.7837C19.4503 35.8108 19.4593 35.8529 19.4323 35.8379C19.1917 35.6725 19.2969 35.8228 19.1165 35.7446C19.0353 35.6574 19.1977 35.6755 19.0052 35.6153C18.912 35.5371 19.0142 35.5401 19.0684 35.5431C18.8849 35.5071 18.7857 35.3597 18.6984 35.3055L18.7917 35.3296C18.7345 35.3146 18.6954 35.2935 18.6533 35.2725L18.6774 35.3446C18.6323 35.3116 18.5902 35.2905 18.6022 35.2695C18.536 35.2755 18.6022 35.3687 18.4789 35.3597C18.3917 35.2845 18.1932 35.2484 18.1511 35.1492C18.3135 35.2424 18.3045 35.2213 18.2924 35.1883C18.2804 35.1582 18.2533 35.1131 18.4127 35.1883C18.3496 35.1672 18.2804 35.1311 18.1902 35.074C18.1751 35.0589 18.2022 35.0619 18.2263 35.074C17.8443 34.8093 18.0729 35.086 17.7451 34.9176C17.7511 34.8965 17.715 34.8604 17.6699 34.8213C17.6248 34.7852 17.5616 34.7431 17.5556 34.7492C17.6067 34.7672 17.6578 34.8183 17.6518 34.8364C17.6548 34.8514 17.6428 34.8544 17.6398 34.8695C17.6398 34.8875 17.6368 34.9025 17.6248 34.9176C17.6187 34.9176 17.6127 34.9116 17.6097 34.9116C17.6157 35.1311 17.6879 35.2484 17.6939 35.3627C17.6939 35.3176 17.6939 35.2725 17.6939 35.2274C17.7511 35.3356 17.7511 35.4379 17.7721 35.5973C17.7421 35.5973 17.739 35.4409 17.73 35.489C17.7781 35.6063 17.7481 35.6785 17.715 35.7657C17.6909 35.8258 17.6428 35.883 17.6488 35.9582C17.6067 36.0123 17.5766 35.9431 17.5436 35.9883C17.5285 36.1446 17.4413 36.1176 17.3932 36.2619C17.4624 36.2529 17.4563 36.2349 17.4413 36.3642C17.4744 36.277 17.5225 36.2048 17.5375 36.1146C17.5436 36.1777 17.5375 36.2409 17.5255 36.304C17.5766 36.2349 17.5766 36.1326 17.6037 36.0905C17.6127 36.1837 17.6037 36.1747 17.6578 36.1537C17.5466 36.2289 17.5857 36.3852 17.4654 36.4695L17.3631 36.3852C17.2729 36.4334 17.2398 36.5116 17.1827 36.5868C17.1195 36.6529 17.0624 36.7492 16.936 36.7973C16.9631 36.7883 16.9962 36.7883 17.0203 36.7732C17.0203 36.8394 16.8789 36.8574 16.8157 36.9176C16.8037 36.8755 16.7496 36.8845 16.7045 36.8755C16.7255 36.9116 16.524 36.9416 16.533 37.0319L16.4007 37.0168C16.1932 37.068 16.1902 37.1973 15.9736 37.2334C16.0278 37.1732 15.9285 37.1612 16.0609 37.098C15.9917 37.1131 15.9285 37.1161 15.9315 37.1462C15.8894 37.1311 15.7451 37.2424 15.6729 37.2003C15.6458 37.2213 15.6398 37.2695 15.5586 37.2725C15.5496 37.2634 15.5586 37.2514 15.5586 37.2514C15.5586 37.2725 15.4323 37.2935 15.5105 37.3356C15.2789 37.2304 14.8789 37.3657 14.6834 37.2454C14.524 37.2664 14.3315 37.2574 14.1842 37.2454C14.1932 37.2334 14.1842 37.2243 14.2142 37.2304C14.0187 37.1702 14.0789 37.3477 13.8563 37.2815C13.7481 37.2003 13.9827 37.2544 13.9105 37.2213C13.8954 37.074 13.6338 37.2213 13.4924 37.104H13.5315C13.4233 37.0349 13.2428 37.1101 13.0533 37.071C13.0533 37.071 13.0654 37.0589 13.0593 37.0499C12.918 37.104 12.6654 37.092 12.4819 37.0619C12.5511 37.0198 12.5691 37.0529 12.5481 36.9868C12.4669 36.9747 12.5511 37.083 12.3857 37.0589C12.3406 37.0168 12.2323 36.9597 12.2323 36.8965L12.3827 36.9296C12.3255 36.8334 12.1872 36.8845 12.112 36.8514L12.13 36.8213C11.8954 36.7792 11.8714 36.8574 11.6308 36.7672L11.6458 36.8003C11.4834 36.8364 11.5526 36.7161 11.3992 36.7281L11.3932 36.6319C11.2969 36.6319 11.0684 36.5868 10.909 36.5266C11.0263 36.5055 11.2037 36.5717 11.33 36.5717C11.2428 36.5446 11.0563 36.4484 10.9932 36.4695C11.0293 36.4785 11.0804 36.4785 11.1045 36.5055C10.9781 36.5176 10.8248 36.4875 10.6684 36.4003C10.7255 36.3341 10.6383 36.2589 10.53 36.1777C10.4759 36.1386 10.4187 36.0935 10.3736 36.0514C10.3315 36.0063 10.3075 35.9522 10.3075 35.9071C10.2443 35.868 10.1872 35.8198 10.133 35.7687C10.0759 35.7176 10.0488 35.6484 10.0097 35.5852C9.92251 35.4619 9.89243 35.3116 9.82627 35.1642C9.73002 35.3176 9.7992 35.074 9.67288 35.1281C9.64581 35.0499 9.6398 35.0168 9.64882 35.0108C9.64882 34.9266 9.68792 34.8394 9.70597 34.7612C9.74206 34.704 9.74206 34.8334 9.77213 34.8243C9.77514 34.6589 9.82025 34.7552 9.86236 34.6499C9.81123 34.671 9.79619 34.5898 9.82326 34.4995L9.74807 34.6258C9.72401 34.5055 9.75409 34.4544 9.79619 34.4093C9.81724 34.3883 9.83529 34.3642 9.84732 34.3341C9.85033 34.3251 9.85333 34.3191 9.85634 34.3071C9.86236 34.289 9.85634 34.3071 9.86837 34.2559C9.88642 34.2048 9.90446 34.1537 9.9195 34.0905L9.89845 34.2529C9.92551 34.1657 9.97965 34.0334 10.0368 33.886C10.115 33.7296 10.2082 33.5492 10.2714 33.4138C10.2263 33.4168 10.2022 33.4168 10.1661 33.4228C10.124 33.4289 10.0819 33.4379 10.0428 33.4439C9.96461 33.4589 9.89544 33.477 9.83529 33.501C9.81424 33.486 9.79018 33.4499 9.91048 33.4349C9.76612 33.4349 9.6007 33.4499 9.4413 33.468C9.28491 33.48 9.10747 33.5161 9.0413 33.5401C8.85784 33.5883 8.68942 33.6304 8.55108 33.6394L8.56912 33.6003C8.50597 33.6274 8.47288 33.6905 8.38566 33.6785C8.38566 33.6634 8.40371 33.6394 8.37363 33.6454C8.34055 33.6634 8.22025 33.7446 8.13303 33.7597L8.19018 33.6995C8.02175 33.7356 7.90145 33.8048 7.79619 33.874C7.69394 33.9522 7.60672 34.0394 7.48341 34.1086C7.46236 34.0634 7.38717 34.0604 7.29995 34.0785C7.21574 34.0995 7.12251 34.1386 7.05935 34.1657V34.1507C6.87589 34.2409 6.74356 34.3492 6.62326 34.4664C6.49995 34.5777 6.38867 34.695 6.25935 34.8243C6.00972 34.8695 5.63378 35.2604 5.33303 35.4589C5.38717 35.4349 5.37815 35.5221 5.33905 35.5732C5.26386 35.6153 5.21574 35.7807 5.1616 35.7055L5.18566 35.6875C5.07739 35.6634 4.97213 35.8048 4.87288 35.895L4.93905 35.9973C4.56311 36.1176 4.34055 36.695 4.09694 36.7251C4.06085 36.8063 3.98867 36.8815 3.95258 36.9627L3.90747 36.9146C3.73604 37.074 3.65183 37.1552 3.46837 37.3777L3.47439 37.3025C3.3601 37.4198 3.47439 37.5792 3.37514 37.6905L3.27589 37.6604C3.08642 37.871 2.83379 38.0274 2.71048 38.292C2.70446 38.28 2.68942 38.2559 2.71649 38.2168C2.62627 38.3131 2.32551 38.5567 2.45484 38.6078C2.38867 38.5477 2.25634 38.8274 2.18717 38.9747L2.15409 38.9146C2.13303 39.068 2.14807 39.086 2.04882 39.2424C2.01574 39.2725 1.98566 39.2424 2.03379 39.2063C1.9195 39.3025 2.00371 39.3266 1.8804 39.4529V39.3747C1.79619 39.495 1.82025 39.498 1.81424 39.5943C1.78416 39.6845 1.64582 39.8198 1.58566 39.8078C1.60371 39.8439 1.59769 39.9371 1.53454 40.0003C1.51048 40.0003 1.51649 39.9642 1.5195 39.9492C1.35108 40.1386 1.3992 40.3071 1.26085 40.4213C1.2398 40.4153 1.22777 40.4213 1.21273 40.4274C1.31198 40.2559 1.39018 40.1176 1.38717 40.1356C1.33604 40.1055 1.24882 40.2409 1.24281 40.0875C1.21574 40.2228 1.19168 40.4604 1.09243 40.5837C1.08341 40.5868 1.07439 40.5928 1.06536 40.5928V40.5747C1.04431 40.6048 1.03529 40.6349 1.02627 40.6649C0.993184 40.704 0.975139 40.7311 0.954086 40.7732C0.902958 40.7672 0.85183 40.9266 0.81574 40.9988C0.87589 41.0198 0.821755 41.1101 0.911981 41.0439C0.902958 41.0529 0.911981 41.0258 0.933033 40.9777C0.936041 40.9657 0.942056 40.9537 0.942056 40.9446V40.9507C0.966116 40.9025 0.993184 40.8424 1.02627 40.7702C1.02627 40.8424 1.02627 40.9116 0.954086 40.9747C0.972131 41.0289 0.990176 41.089 0.999199 41.1191C0.872883 41.1762 0.740552 41.3477 0.677394 41.3507C0.608221 41.5852 0.478898 41.889 0.530026 42.0695C0.517996 42.1386 0.466868 42.1296 0.4398 42.1477C0.442808 42.1055 0.46386 42.0634 0.454838 42.0364C0.42777 42.1717 0.322507 42.4213 0.388672 42.4785C0.295439 42.6289 0.349575 42.3612 0.283409 42.5898L0.271379 42.5507C-0.0173427 42.9477 0.229274 43.3326 -0.0865156 43.7747C-0.0654629 43.7446 -0.0564404 43.7266 -0.0414028 43.7236C-0.275989 44.271 -0.294034 44.9086 -0.528621 45.4469C-0.585764 45.6033 -0.537643 45.6304 -0.519598 45.7386L-0.594786 45.7597L-0.549673 45.9431C-0.537643 46.1928 -0.79629 46.3251 -0.739147 46.6499L-0.688019 46.6198C-0.715087 46.7281 -0.721102 46.9687 -0.769222 46.9446C-0.763207 46.9567 -0.727117 46.9868 -0.757192 47.0258H-0.793282L-0.77223 47.3025C-0.826365 47.5071 -0.907568 47.2484 -0.955688 47.5552C-0.955688 47.6725 -0.892531 47.895 -0.862455 47.8529C-0.85644 47.8048 -0.826365 47.7356 -0.790275 47.7386L-0.78426 47.8439C-0.682004 47.874 -0.585764 47.9612 -0.483508 47.7236L-0.525613 47.5401L-0.46847 47.492L-0.486516 47.6394C-0.426365 47.5612 -0.462455 47.504 -0.483508 47.4409C-0.453433 47.4319 -0.43238 47.4078 -0.417343 47.3747L-0.492531 47.1883C-0.447418 47.1732 -0.423358 47.2755 -0.38426 47.1642C-0.417343 47.077 -0.486516 47.2274 -0.498546 47.089C-0.438395 47.0138 -0.405313 47.0439 -0.429373 46.9386C-0.399297 46.9296 -0.387267 46.9537 -0.381252 46.9928C-0.402305 46.8995 -0.357192 46.7612 -0.405313 46.7071C-0.333132 46.6289 -0.369222 46.4093 -0.272982 46.4364C-0.291027 46.4063 -0.321102 46.271 -0.309072 46.1898C-0.218846 46.3582 -0.245914 45.892 -0.125613 45.9552C-0.212831 45.8259 -0.0895231 45.5582 -0.107568 45.3567C-0.101553 45.3687 -0.0895231 45.3928 -0.0985456 45.4078C-0.0654629 45.3025 -0.0293727 45.2785 0.00671751 45.2153C-0.0744855 45.1822 -0.0564404 45.0108 -0.0865156 44.9086C0.0277702 44.7973 -0.00531258 45.0108 0.084913 44.9898C0.0127325 44.9807 0.0698754 44.7462 0.000702474 44.7762C0.0758904 44.689 0.0458153 44.698 0.130026 44.6649C0.0277702 44.6198 0.130026 44.5687 0.090928 44.4695C0.184161 44.3401 0.202206 44.4604 0.211229 44.295C0.265364 44.2289 0.262357 44.3792 0.262357 44.3792L0.274387 44.3822ZM1.46536 40.7251C1.45033 40.7552 1.4383 40.7792 1.42927 40.7973C1.43529 40.7822 1.44732 40.7612 1.46236 40.7251H1.46536ZM1.62175 40.4424C1.6007 40.4755 1.57664 40.5176 1.54957 40.5627C1.52551 40.5627 1.51048 40.5416 1.52852 40.5116C1.53153 40.5356 1.57965 40.4725 1.62175 40.4394V40.4424ZM0.905966 40.8514C0.921003 40.8003 0.939048 40.7883 0.954086 40.7883C0.945063 40.8123 0.936041 40.8394 0.921003 40.8755V40.8845C0.921003 40.8845 0.908973 40.8634 0.905966 40.8514Z" fill="#1B1B1B"/>
<path d="M4.55752 37.062L4.54481 37.0525L4.53528 37.0843L4.55752 37.062Z" fill="#1B1B1B"/>
<path d="M18.13 35.7146C18.13 35.7146 18.13 35.7209 18.13 35.724C18.1425 35.7521 18.1363 35.7365 18.13 35.7146Z" fill="#1B1B1B"/>
<path d="M20.1238 36.5168C20.0906 36.5108 20.0605 36.5078 20.0304 36.4988C20.0726 36.5289 20.1057 36.547 20.1238 36.5168Z" fill="#1B1B1B"/>
<path d="M15.7855 37.6931L15.7628 37.6963L15.7855 37.6931Z" fill="#1B1B1B"/>
<path d="M19.9161 36.4333C19.9553 36.4695 19.9914 36.4876 20.0306 36.4996C19.9975 36.4755 19.9583 36.4454 19.9161 36.4333Z" fill="#1B1B1B"/>
<path d="M22.0275 37.4499L22.0731 37.4104C21.997 37.3647 22.0579 37.4286 22.0275 37.4499Z" fill="#1B1B1B"/>
<path d="M21.1427 37.197L21.1909 37.2723L21.2541 37.2482L21.1427 37.197Z" fill="#1B1B1B"/>
<path d="M20.9267 36.5772L20.963 36.5893L20.8302 36.532L20.9267 36.5772Z" fill="#1B1B1B"/>
<path d="M14.8665 37.1819L14.8905 37.2542C14.9478 37.2422 14.9568 37.1609 14.8665 37.1819Z" fill="#1B1B1B"/>
<path d="M11.6826 36.7372C11.6615 36.692 11.583 36.6407 11.5197 36.6558C11.586 36.6829 11.6434 36.7342 11.6826 36.7372Z" fill="#1B1B1B"/>
<path d="M4.75819 36.0386L4.79132 35.9753L4.71301 36.0777L4.75819 36.0386Z" fill="#1B1B1B"/>
<path d="M37.8921 14.601C37.8741 14.4597 37.8139 14.3243 37.7357 14.2071C37.6575 14.0928 37.5523 14.0025 37.4771 13.8853C37.2726 13.5634 37.1492 13.1785 37.044 12.8176C37.0079 12.6883 36.7342 12.7725 36.7132 12.8777C36.5477 13.7078 36.3823 14.5379 36.2139 15.368C36.2139 15.377 36.2139 15.383 36.2079 15.392C36.0726 15.3078 35.8861 15.2567 35.6786 15.2567C35.2695 15.2567 34.9387 15.4612 34.9387 15.7138C34.9387 15.9665 35.2695 16.171 35.6786 16.171C36.0545 16.171 36.3643 15.9965 36.4094 15.774C36.4395 15.7529 36.4635 15.7289 36.4695 15.6988C36.6169 14.965 36.7613 14.2341 36.9086 13.5003C36.9658 13.6446 37.0289 13.786 37.1041 13.9213C37.2305 14.1529 37.456 14.3183 37.5312 14.577C37.5733 14.7183 37.5733 14.9078 37.5162 15.0251C37.441 15.1785 37.7718 15.1574 37.8259 15.0462C37.8891 14.9138 37.9041 14.7574 37.8861 14.6131L37.8921 14.601Z" fill="#212121"/>
<path d="M37.7263 19.6328C37.7383 19.5727 37.6541 19.5637 37.615 19.5667C37.1789 19.5967 36.7428 19.6238 36.3068 19.6539C36.2556 19.6569 36.1774 19.69 36.1654 19.7471C36.0421 20.3637 35.9188 20.9802 35.7955 21.5997C35.7203 21.5787 35.6391 21.5637 35.5519 21.5637C35.2391 21.5637 34.9865 21.7201 34.9865 21.9125C34.9865 22.105 35.2391 22.2614 35.5519 22.2614C35.8646 22.2614 36.1173 22.105 36.1173 21.9125C36.1173 21.8404 36.0812 21.7712 36.018 21.717C36.1323 21.1426 36.2466 20.5712 36.3609 19.9967C36.3729 19.9336 36.388 19.8674 36.4 19.8043C36.7519 19.7802 37.1037 19.7561 37.4556 19.7351C37.3624 20.2404 37.2722 20.7456 37.1789 21.2479C37.1068 21.2268 37.0255 21.2148 36.9413 21.2148C36.6286 21.2148 36.3759 21.3712 36.3759 21.5637C36.3759 21.7561 36.6286 21.9125 36.9413 21.9125C37.2541 21.9125 37.5067 21.7561 37.5067 21.5637C37.5067 21.4915 37.4707 21.4223 37.4045 21.3652C37.4947 20.8689 37.5849 20.3727 37.6752 19.8764C37.6902 19.7952 37.7052 19.714 37.7203 19.6328H37.7263Z" fill="#212121"/>
</g>
</svg>
