<svg width="42" height="43" viewBox="0 0 42 43" fill="none" xmlns="http://www.w3.org/2000/svg">
<g filter="url(#filter0_d_6346_22113)">
<circle cx="21" cy="21.0977" r="20" fill="white"/>
</g>
<g clip-path="url(#clip0_6346_22113)">
<mask id="mask0_6346_22113" style="mask-type:luminance" maskUnits="userSpaceOnUse" x="1" y="1" width="40" height="41">
<path d="M21 41.0977C32.0457 41.0977 41 32.1434 41 21.0977C41 10.052 32.0457 1.09766 21 1.09766C9.9543 1.09766 1 10.052 1 21.0977C1 32.1434 9.9543 41.0977 21 41.0977Z" fill="white"/>
</mask>
<g mask="url(#mask0_6346_22113)">
<path d="M28.8197 46.06C28.8197 46.06 27.0152 42.7517 24.9099 40.3457C22.6964 37.8163 19.4964 37.0374 19.4964 37.0374L20.1611 34.7727C21.7941 35.3051 23.5295 35.4825 25.2919 35.2359C32.4047 34.2374 37.2287 26.6945 36.0618 18.3878C34.8979 10.081 28.1851 4.1562 21.0693 5.15469C13.9535 6.15319 9.13249 13.696 10.2994 22.0028C10.8378 25.8404 12.5611 29.1727 14.9611 31.5457C14.9611 31.5457 13.7821 34.0299 13.4814 35.8344C13.4814 35.8344 8.36858 34.9321 4.75956 40.9472C3.11445 43.69 2.6543 46.3607 2.6543 46.3607" fill="#FFF7EB"/>
<path d="M13.9993 34.3613L13.9541 34.4607C13.9692 34.4336 13.9842 34.4005 13.9993 34.3613Z" fill="#1B1B1B"/>
<path d="M11.2441 25.1519C11.2712 25.2272 11.2923 25.2543 11.3014 25.2543C11.2712 25.188 11.2472 25.1308 11.2441 25.1519Z" fill="#1B1B1B"/>
<path d="M10.8711 23.4248C10.8771 23.4609 10.8831 23.4941 10.8892 23.5272C10.8892 23.4881 10.8831 23.4459 10.8711 23.4248Z" fill="#1B1B1B"/>
<path d="M13.999 34.3617L14.1136 34.1053C14.0895 34.0752 14.0473 34.232 13.999 34.3617Z" fill="#1B1B1B"/>
<path d="M10.5282 36.3487L10.4497 36.3759C10.4316 36.394 10.4135 36.4151 10.3984 36.4362L10.5282 36.3457V36.3487Z" fill="#1B1B1B"/>
<path d="M7.52723 38.0209C7.59059 37.9726 7.5574 37.8881 7.5574 37.8398C7.54533 37.8972 7.51214 37.9485 7.46387 37.9967C7.47292 38.0088 7.49404 38.0179 7.53024 38.0209H7.52723Z" fill="#1B1B1B"/>
<path d="M12.958 36.0303C12.958 36.0303 12.9774 36.0562 12.9904 36.0627C12.9904 36.0497 12.9774 36.04 12.958 36.0303Z" fill="#1B1B1B"/>
<path d="M10.5547 20.2314C10.5547 20.2314 10.5547 20.2406 10.5547 20.2467C10.5669 20.3319 10.5638 20.2832 10.5547 20.2314Z" fill="#1B1B1B"/>
<path d="M29.8994 7.99758C29.6792 7.73523 30.3939 8.25088 30.0441 7.87997C30.0592 7.93425 29.5978 7.70809 29.8994 7.99758Z" fill="#1B1B1B"/>
<path d="M30.0437 7.87998L30.0049 7.83789C30.0211 7.85408 30.0308 7.86379 30.0437 7.87998Z" fill="#1B1B1B"/>
<path d="M11.8211 13.0342C11.8 13.0432 11.7789 13.0643 11.7578 13.0884C11.7668 13.0884 11.7819 13.0794 11.8211 13.0342Z" fill="#1B1B1B"/>
<path d="M10.4111 18.3428L10.4292 18.207C10.4172 18.2613 10.4141 18.3036 10.4111 18.3428Z" fill="#1B1B1B"/>
<path d="M13.1113 10.4812C13.1566 10.4239 13.1837 10.4088 13.235 10.3213C13.226 10.3273 13.2169 10.3334 13.2079 10.3394C13.1958 10.3756 13.1687 10.4178 13.1113 10.4812Z" fill="#1B1B1B"/>
<path d="M15.0813 8.24902C15.0663 8.25505 15.0452 8.26408 15.0301 8.27312C15.009 8.2942 14.9849 8.31829 14.9639 8.33938L15.0843 8.24902H15.0813Z" fill="#1B1B1B"/>
<path d="M19.9423 36.7998C19.9273 36.8299 19.9182 36.851 19.9092 36.8661C19.9604 36.8209 20.0869 36.8329 19.9423 36.7998Z" fill="#1B1B1B"/>
<path d="M12.6367 9.99645L12.9435 9.60547C12.8533 9.71073 12.742 9.85509 12.6367 9.99645Z" fill="#1B1B1B"/>
<path d="M35.6892 26.3389L35.6621 26.4503C35.6772 26.4081 35.6892 26.369 35.6892 26.3389Z" fill="#1B1B1B"/>
<path d="M13.8936 8.472C13.9751 8.42677 14.0565 8.3755 14.1319 8.31218C14.1409 8.29408 14.156 8.27298 14.156 8.25488C14.0685 8.32726 13.9781 8.39661 13.8906 8.46899L13.8936 8.472Z" fill="#1B1B1B"/>
<path d="M22.7933 37.9696C22.3843 37.7199 22.5467 37.9485 22.4264 37.9515C21.9181 37.7049 22.2369 37.753 22.0956 37.6117C21.7677 37.4703 21.479 37.4463 21.2414 37.335C21.2324 37.3109 21.1873 37.2839 21.2505 37.2869C21.064 37.2508 20.8083 37.1425 20.5407 37.0463C20.4083 36.9951 20.27 36.953 20.1407 36.9169C20.1076 36.9079 20.0745 36.9019 20.0444 36.8929C20.0294 36.8929 20.0174 36.8929 20.0023 36.8929C19.9753 36.8929 19.9422 36.8929 19.9061 36.8989C19.9001 36.8869 19.9031 36.8778 19.9061 36.8718C19.882 36.923 19.855 36.9711 19.8099 37.0011C19.7557 36.9861 19.6956 36.9771 19.6354 36.9711C19.6234 36.9109 19.6474 36.8297 19.7046 36.7876C19.6745 36.8778 19.7046 36.8748 19.7256 36.8959V36.7696C19.858 36.6583 19.7497 36.8658 19.7948 36.8839C19.8099 36.8839 19.8249 36.8778 19.8369 36.8688H19.8219C19.8129 36.8327 19.8219 36.7816 19.8219 36.7275L19.8279 36.6402C19.8369 36.5891 19.8459 36.538 19.855 36.4869C19.8941 36.2793 19.9362 36.0839 19.9963 35.9365C20.1136 35.9004 19.8159 36.6703 20.0264 36.2824L19.9362 36.5169L19.8911 36.6342C19.879 36.6673 19.873 36.6733 19.864 36.6974C19.9151 36.6613 19.9392 36.6583 19.9482 36.6583C19.9542 36.6763 19.9482 36.6763 19.9482 36.6914C19.9392 36.7215 19.9362 36.7275 20.0324 36.7004L20.0384 36.6944L20.0565 36.6433C20.0685 36.6072 20.0775 36.5741 20.0865 36.544C20.1046 36.4808 20.1196 36.4237 20.1377 36.3696C20.1647 36.2643 20.1858 36.1741 20.2038 36.0839C20.2429 35.9034 20.282 35.723 20.3903 35.4132C20.3843 35.332 20.3602 35.344 20.3362 35.347C20.3091 35.359 20.2941 35.341 20.276 35.3019C20.279 35.2448 20.2911 35.1876 20.3031 35.1455C20.3091 35.1245 20.3151 35.1064 20.3211 35.0914C20.3211 35.0673 20.3512 35.0974 20.3662 35.1004C20.4324 35.1395 20.4745 35.1846 20.4956 35.2207C20.5076 35.2387 20.5136 35.2568 20.5196 35.2718C20.5347 35.2899 20.5858 35.3139 20.6249 35.332C20.7121 35.3711 20.8324 35.3951 21.0099 35.4042C21.2053 35.3771 21.2986 35.2718 21.7738 35.4282L21.5843 35.5124C22.2309 35.6327 21.9753 35.4162 22.6459 35.5726C22.5196 35.6057 22.1317 35.5545 22.2279 35.5786C22.658 35.7199 22.5467 35.5515 22.8865 35.5786L22.9497 35.6869C23.6505 35.7169 24.4204 35.6297 25.1753 35.5094C25.1362 35.5455 25.0099 35.5936 25.1933 35.6027C25.4339 35.5575 25.6805 35.5124 25.9332 35.4643C26.1828 35.4132 26.4354 35.359 26.6911 35.3079C27.1933 35.1846 27.6895 35.0553 28.1407 34.9019L28.4384 34.6793C28.5166 34.6463 28.5978 34.6553 28.5226 34.7064C28.8715 34.5831 28.5166 34.6493 28.661 34.541C28.8444 34.4448 28.9286 34.4658 28.8234 34.547C29.1001 34.3756 29.485 34.1199 29.867 33.8613C30.2489 33.6027 30.6279 33.332 30.9256 33.1636C30.8956 33.1966 30.8685 33.2327 30.8384 33.2658C31.2745 32.9621 31.1963 32.7605 31.6083 32.4959L31.5482 32.5711C31.9933 32.2132 32.3963 31.7651 32.7783 31.344C33.1452 30.9109 33.479 30.4989 33.7798 30.1771C33.7708 30.0718 33.9482 29.8493 34.0956 29.6237C34.2429 29.3951 34.3783 29.1756 34.3211 29.1004C34.7061 28.5711 34.661 28.7575 35.1151 27.9545C35.2234 27.732 35.1602 27.5726 35.2625 27.2899L35.3497 27.3169C35.3738 27.1786 35.3888 27.0372 35.4068 26.8989L35.5873 26.7335C35.6144 26.6433 35.6414 26.55 35.6595 26.4568C35.6204 26.5621 35.5392 26.6703 35.5211 26.6433C35.6324 26.2132 35.9181 25.6387 35.9632 25.6357C36.0384 25.2929 36.0956 24.944 36.1467 24.5981C36.1768 24.6282 36.1497 24.8027 36.1407 24.944C36.1738 24.3756 36.264 24.8658 36.288 24.3425C36.255 24.4057 36.2399 24.2944 36.2249 24.2793C36.276 24.159 36.3302 23.9545 36.3753 23.729C36.4114 23.5004 36.4444 23.2478 36.4625 23.0312L36.5136 23.1215C36.6279 22.3455 36.6369 21.4763 36.6279 20.6011C36.6008 20.9169 36.4926 20.8418 36.4775 20.5891L36.5738 20.4839C36.5076 20.3215 36.5437 20.7515 36.4595 20.4147C36.4595 20.0899 36.5647 20.1921 36.6008 20.3786L36.5557 19.9816C36.5828 19.9575 36.6038 20.0478 36.6399 20.0718C36.5798 19.9124 36.6911 19.3771 36.5708 19.1515L36.5978 19.1275C36.4986 18.2553 36.4083 17.8643 36.261 17.1666C36.1738 17.1696 36.1407 16.8929 36.0234 16.7034C35.9271 16.1921 35.8399 15.6117 35.6264 15.0192C35.4399 14.6162 35.5151 14.9199 35.4038 14.7515C35.473 14.6914 35.2324 14.1109 35.4038 14.3936C35.2595 14.0448 35.1692 13.8192 35.0459 13.5816C34.9858 13.4613 34.9226 13.338 34.8474 13.1906C34.7632 13.0463 34.667 12.8808 34.5467 12.6733C34.5647 12.7816 34.6038 12.8899 34.5557 12.8478C34.4685 12.7004 34.4083 12.4839 34.4505 12.4869L34.4805 12.523C34.1738 12.0809 33.9151 11.5184 33.6204 11.0012C33.479 10.7395 33.3286 10.4899 33.1692 10.2703C33.0159 10.0478 32.8474 9.8613 32.682 9.71995L32.7181 9.75303C32.5136 9.53649 32.2911 9.341 32.0715 9.1395C31.8068 8.82671 32.279 9.28085 32.1106 9.02521C31.3587 8.41769 31.0399 7.94551 30.3692 7.51243C30.1978 7.23273 29.7557 6.90491 29.2625 6.61318C28.7723 6.31544 28.2309 6.05378 27.885 5.81318L27.9061 5.88235C27.6895 5.83724 27.6865 5.73799 27.5452 5.66581C27.5512 5.71092 27.7377 5.80416 27.6053 5.77408C26.7662 5.42822 25.879 5.11544 24.9587 4.89589C24.0384 4.67634 23.079 4.55303 22.1317 4.57108C21.4399 4.59514 21.7647 4.8628 20.8986 4.83874C20.9738 4.79062 21.0489 4.74551 21.1271 4.70641C20.4474 4.8598 19.7587 5.00416 19.088 5.21769C18.4204 5.43423 17.7677 5.7019 17.1933 6.0598C17.2535 6.00265 17.2444 5.97559 17.3617 5.91844C17.067 5.97559 16.4324 6.42671 16.4655 6.48386C16.285 6.59213 16.3963 6.46581 16.27 6.51093C15.9993 6.62521 15.7286 6.99213 15.5632 7.0222C15.5362 7.02822 15.6144 6.95604 15.6535 6.91995C15.5151 7.04927 14.9617 7.44927 15.1542 7.40115C14.7362 7.68987 14.4505 8.0628 14.1347 8.31243C14.0083 8.55604 13.5151 8.91694 13.5542 9.0613C13.473 8.941 12.9046 9.67183 12.7783 9.97258C12.8083 9.8613 12.5798 10.1711 12.6068 10.0357C12.4053 10.3395 12.2399 10.6312 12.3332 10.6162C11.8369 11.1004 11.7647 11.8342 11.4219 12.0778C11.0099 13.0793 10.7151 14.0327 10.4895 14.9651C10.4294 14.932 10.4926 14.6703 10.5677 14.4237C10.6429 14.1771 10.7181 13.9395 10.6429 13.9365C10.3993 14.8297 10.3873 15.3681 10.1738 16.2463C10.1106 16.4748 10.1407 16.1049 10.1317 16.0207C9.99932 16.926 9.83692 17.7711 9.86699 18.5861C9.85496 18.5861 9.84594 18.4959 9.83993 18.4117C9.83692 18.5711 9.79782 18.7846 9.86098 18.7666L9.85196 18.6102C9.90308 18.4839 9.94218 18.6463 9.97226 18.8418C10.0053 19.0372 10.0414 19.2628 10.0655 19.2778C9.89105 19.0042 10.0144 20.0718 9.79181 19.6448C9.80384 19.75 9.83993 19.8824 9.87902 19.8583C9.87301 20.0147 9.84895 20.0658 9.79782 19.9064C9.85196 20.4778 9.90008 20.2733 9.93617 20.7876C9.90609 20.7876 9.88805 20.6854 9.84895 20.6342C9.93015 20.8929 9.99331 21.1515 10.0264 21.5876C10.0053 21.5636 9.98729 21.6177 9.97226 21.4884C10.0595 22.2372 10.3001 22.7305 10.4174 23.5425C10.2339 23.335 10.4414 23.8222 10.3422 23.8944C10.3903 24.0357 10.4324 24.1771 10.4865 24.3154L10.4926 24.129C10.5978 24.5019 10.7632 24.8117 10.8384 25.1365L10.7031 24.8778L10.9527 25.5605C10.9196 25.4282 10.8926 25.2929 10.8625 25.1575C11.0429 25.5094 10.9798 25.0733 11.1211 25.5666C11.073 25.4733 11.2535 25.9275 11.2655 26.138C11.3738 26.3004 11.485 26.4658 11.5692 26.7365C11.5692 26.8177 11.4309 26.7335 11.4309 26.7876C11.5933 26.9199 11.8399 27.5996 12.0474 27.759C11.9903 27.6989 11.9362 27.723 11.9362 27.753L12.0775 27.8583C12.1377 28.0297 12.1437 28.0568 12.0865 28.0538C12.3422 28.529 12.1256 27.8372 12.3903 28.4207C12.3602 28.3816 12.3632 28.4057 12.3001 28.3215C12.5918 28.8959 12.9918 29.35 13.3106 29.8463C13.3226 30.0568 12.9828 29.4463 13.0249 29.6628C13.2835 30.0057 13.5813 30.3365 13.882 30.6553C14.0354 30.8117 14.1888 30.9681 14.3392 31.1215C14.4114 31.1996 14.4896 31.2718 14.5647 31.35L14.658 31.4463L14.7271 31.5245L14.667 31.4433C14.7332 31.4282 14.8023 31.4884 14.8505 31.5636C14.7993 31.6478 14.7392 31.7199 14.679 31.8132C14.6099 31.9275 14.5467 32.0538 14.5166 32.1831C14.5467 32.0839 14.4896 32.0267 14.4926 32.0568C14.2489 32.5651 14.0805 33.1335 13.852 33.9545V33.8402C13.7046 34.141 13.5542 34.6643 13.4489 35.0132C13.461 35.1275 13.4099 35.326 13.4941 35.2177C13.458 35.3019 13.4219 35.3831 13.3858 35.4613C13.3587 35.5184 13.3497 35.5816 13.3226 35.6207C13.2535 35.6057 13.1933 35.5966 13.1302 35.5966H13.0038H12.8414C12.6249 35.5996 12.4174 35.6327 12.2099 35.6568C12.0053 35.6899 11.8008 35.7199 11.5993 35.747C11.4008 35.7831 11.1963 35.7951 10.9918 35.8042C11.1061 35.7711 11.2625 35.7139 11.1692 35.729C10.8956 35.7981 10.6249 35.8884 10.3572 35.9786C10.4414 36.0207 10.4745 35.9846 10.661 35.9936C10.6159 36.0267 10.5377 36.0658 10.4474 36.1049C10.3602 36.15 10.258 36.1951 10.1617 36.2282C10.4986 36.0598 10.1256 36.123 9.95421 36.141C9.98729 36.153 9.94218 36.1921 9.96323 36.2072C9.50609 36.2402 9.94519 36.3575 9.36775 36.5169L9.37978 36.4718C9.28053 36.526 9.1903 36.5861 9.09707 36.6433C9.00684 36.7064 8.91662 36.7696 8.80835 36.8237C8.68203 36.8027 8.99481 36.6733 8.97978 36.6072C8.83241 36.6944 8.70609 36.8087 8.57978 36.9139C8.45045 37.0162 8.32414 37.1094 8.17978 37.1666C8.28203 37.0613 8.45948 36.956 8.57376 36.8688C8.2309 36.95 8.21587 37.0011 8.00233 37.1305L8.02338 37.1184L7.52414 37.4162L7.65947 37.353C7.54218 37.5515 7.39782 37.7139 7.21436 37.8613C7.03993 38.0147 6.8294 38.1621 6.68805 38.4237C6.98278 37.9335 6.70008 38.3034 6.66399 38.2072C6.54369 38.2944 6.36925 38.4357 6.39331 38.3726C6.32414 38.4959 6.23692 38.5681 6.13767 38.6523C6.04143 38.7365 5.93617 38.8327 5.86098 39.0222C5.8279 39.0162 5.67752 39.2478 5.65948 39.1515C5.45496 39.4433 5.75271 39.1184 5.76173 39.1666C5.63541 39.4132 5.39782 39.6297 5.18128 39.9064C4.96775 40.1831 4.73917 40.4899 4.58278 40.8508C4.29707 41.4613 4.32414 41.6147 4.09256 42.1891C3.96023 42.3545 4.07151 41.9876 4.07151 41.9876C3.88203 42.2703 3.77978 42.5049 3.68354 42.8087C3.68354 42.7395 3.63842 42.7906 3.56925 42.8658C3.47602 43.1064 3.60233 43.0643 3.43391 43.359C3.42489 43.2929 3.40684 43.2057 3.42188 43.0793C3.32865 43.3681 3.27451 43.6658 3.19331 43.9696C3.11812 44.0297 3.18128 43.7651 3.19331 43.6508C3.08805 43.9876 2.93466 44.526 2.97978 44.6523L3.07602 44.4478C3.03993 44.5711 2.9888 44.4899 3.00384 44.3936C3.03692 44.0869 3.17226 43.9936 3.20534 43.9876L3.1482 44.2011C3.38278 44.0448 3.42489 43.359 3.61136 42.95L3.65647 43.1696C3.68053 43.0162 3.7106 42.8628 3.74068 42.7094C3.80985 42.6342 3.90008 42.6042 3.8279 42.8087C4.01436 42.547 3.90008 42.532 4.08053 42.3184C4.10459 42.2974 4.10158 42.3124 4.09557 42.3395L4.19782 42.0448C4.19481 42.1109 4.30008 42.0387 4.19782 42.2011C4.5076 41.738 4.52865 41.3651 4.71812 41.2297L4.70308 41.2748C4.87451 40.929 4.87151 40.9079 4.84143 40.8959C4.81136 40.8839 4.76023 40.8899 4.87752 40.6162L5.28053 40.4147L5.24745 40.3004C5.29256 40.2372 5.38579 40.1079 5.40083 40.153C5.51211 39.8703 5.34068 40.1711 5.38579 39.9936C5.67451 39.732 6.01136 39.1395 6.17376 39.1636C6.20684 39.0102 5.90308 39.4132 6.12263 39.0643C6.3091 39.0763 6.4294 38.7034 6.72113 38.4989C6.70308 38.6342 6.44444 38.8387 6.73917 38.6402C6.76323 38.5199 6.88354 38.3966 7.0309 38.2914C7.18128 38.1921 7.3497 38.0959 7.44895 37.9906C7.41887 37.9455 7.53316 37.8312 7.69857 37.6899C7.87602 37.5636 8.1076 37.4102 8.30008 37.2538C8.30008 37.2658 8.3482 37.2418 8.42639 37.1966C8.5106 37.1575 8.6279 37.0974 8.75722 37.0342C8.88654 36.9681 9.0309 36.8989 9.16624 36.8297C9.3076 36.7756 9.44293 36.7245 9.5512 36.6854L9.54519 36.7064C9.56323 36.6372 9.68053 36.559 9.8309 36.4778C9.9903 36.4147 10.1798 36.3395 10.3392 36.2733C10.3482 36.3395 10.2971 36.3846 10.1347 36.4748L10.4354 36.3696C10.4956 36.3064 10.5858 36.2673 10.7843 36.2012L10.7271 36.3004C10.9317 36.2463 11.1271 36.159 11.3527 36.1109C11.464 36.0839 11.5783 36.0538 11.7016 36.0327C11.8249 36.0177 11.9542 36.0087 12.0895 36.0057C12.1166 35.9275 11.6264 35.8402 12.2129 35.726C12.2369 35.7681 12.264 35.8312 12.1136 35.8643C12.1617 35.8493 12.2911 35.8162 12.3933 35.8312L12.1647 35.9124C12.4174 35.9275 12.2911 35.8463 12.4926 35.8433C12.4926 35.9034 12.6429 35.8793 12.6159 35.9275C12.5647 35.9365 12.4414 35.9124 12.3662 35.9395C12.5918 35.9335 12.8625 35.9756 12.9467 36.0207C12.9377 36.0027 12.9377 35.9846 12.9617 35.9666C12.9888 35.9515 13.0219 35.9395 13.1362 35.9425C13.6444 35.9906 13.4339 36.0327 13.6595 36.0959C13.6745 36.0929 13.6775 36.0568 13.6896 36.0207C13.6835 35.8342 13.8008 35.4433 13.7166 35.4282C13.7467 35.3079 13.7918 35.2929 13.8249 35.2538C13.8339 35.0312 14.0956 34.2583 13.9332 34.4688L13.9121 34.523C13.9121 34.523 13.9151 34.4989 13.9181 34.4869C14.0505 33.759 14.4625 33.0673 14.7121 32.3846L14.7392 32.3966C14.7843 32.2643 14.8384 32.126 14.8926 31.9876C14.9587 31.8252 15.0279 31.6628 15.088 31.5154C14.9467 31.3771 14.8023 31.2508 14.7151 31.1936C14.6249 31.1004 14.5467 30.938 14.6099 30.953C14.3783 30.7184 14.3151 30.7215 14.0505 30.3215C14.3001 30.544 14.0114 30.2072 14.2971 30.556C14.0414 30.2102 14.0144 30.1139 13.6715 29.7951C13.8279 29.8733 13.5512 29.4854 13.4189 29.329C13.458 29.4222 13.5031 29.5124 13.5512 29.6027C13.4008 29.4282 13.3016 29.2538 13.1903 29.0854L13.3347 29.1184C12.9497 28.3395 12.3211 27.8884 12.2008 27.1996C12.0324 27.0252 12.3753 27.6418 12.2068 27.4974C12.0264 27.1365 11.9933 26.6884 11.9362 26.5771C11.7768 26.0508 11.5933 26.1651 11.4279 25.6087C11.4219 25.6899 11.3557 25.7891 11.1723 25.3951C11.058 25.0042 11.1572 24.8748 11.2655 25.1064C11.2986 25.1966 11.3016 25.2448 11.2895 25.2448C11.3407 25.3651 11.4189 25.5184 11.3978 25.356L11.3467 25.3199C11.3196 25.1184 11.1422 24.5951 11.2384 24.7004C11.1211 24.4207 11.1422 24.5951 11.1933 24.8147C11.0911 24.3064 10.9617 24.0418 10.8745 23.5184C10.8745 23.6057 10.8535 23.6899 10.8324 23.6087C10.7001 22.8387 10.6941 23.2869 10.5677 22.7726C10.5677 22.4658 10.7091 22.8568 10.5798 22.3395C10.5647 22.0147 10.661 22.2583 10.7121 22.3786C10.5587 21.9154 10.6369 21.4824 10.6129 21.2087L10.67 21.4553C10.6369 21.3079 10.6189 21.1846 10.6129 21.0583L10.5527 21.2087C10.5527 21.0583 10.5437 20.935 10.5738 20.935C10.5166 20.7846 10.4655 21.0613 10.3783 20.7605C10.3933 20.559 10.3031 20.153 10.3993 20.0808C10.3873 20.7094 10.4865 20.0087 10.5286 20.535C10.5076 20.4357 10.5076 20.3094 10.5136 20.159C10.5226 20.135 10.5347 20.1801 10.5407 20.2192C10.6129 19.6237 10.4114 19.9485 10.4234 19.329C10.4745 19.4072 10.5256 19.1876 10.5166 19.0854C10.5136 19.335 10.4264 19.2027 10.3873 18.9711C10.4474 18.5741 10.3783 18.538 10.3963 18.3275L10.3632 18.5651C10.3181 18.4808 10.3241 18.2793 10.3392 18.0027C10.3843 17.9816 10.3422 18.2583 10.3692 18.159C10.3091 17.8402 10.5286 17.4733 10.5347 17.0402C10.5978 16.8478 10.6369 17.0372 10.685 16.8658C10.7001 16.3816 10.8414 16.3666 10.8956 15.8643C10.7933 15.9906 10.8023 16.0207 10.8174 15.6568C10.7662 15.9305 10.7271 16.2042 10.6971 16.4808C10.6971 16.3004 10.6911 16.1169 10.6971 15.9365C10.6399 16.1831 10.6399 16.4688 10.5978 16.6132C10.5888 16.3515 10.5978 16.3816 10.5196 16.4899C10.685 16.1681 10.5918 15.8012 10.7572 15.4282L10.9256 15.4824C11.1512 14.929 11.1121 14.4327 11.4279 13.7199L11.3106 13.9425C11.2835 13.8222 11.467 13.4884 11.5392 13.2478C11.5843 13.2929 11.6655 13.1545 11.7437 13.0733C11.6956 13.0643 11.9753 12.559 11.9061 12.4448L12.1286 12.1681C12.4505 11.6327 12.3181 11.4553 12.655 10.95C12.6159 11.1395 12.7933 10.929 12.6219 11.2959C12.7271 11.1245 12.8294 10.9771 12.7963 10.953C12.8926 10.8778 13.0369 10.4448 13.1933 10.3275C13.2234 10.2433 13.1903 10.1861 13.3286 10.0057C13.3527 9.99363 13.3527 10.0237 13.3527 10.0237C13.3286 10.0057 13.5332 9.71393 13.3617 9.83423C13.6294 9.64777 13.8971 9.30792 14.1858 8.99213C14.3241 8.82972 14.4715 8.68235 14.6129 8.55303C14.7512 8.4207 14.8896 8.31844 15.0159 8.25829C15.1723 8.10491 15.3437 7.93348 15.5271 7.78311C15.7046 7.62371 15.885 7.47935 16.0474 7.36506C16.0384 7.39514 16.0625 7.38912 15.9993 7.42822C16.4745 7.15153 16.1768 7.08837 16.7392 6.79664C17.061 6.70641 16.4865 7.0192 16.673 6.94401C16.7602 7.00416 16.9136 6.89288 17.1061 6.76957C17.2956 6.64025 17.5211 6.48386 17.7377 6.44777L17.6535 6.5019C17.9662 6.41769 18.3241 6.09288 18.8234 5.92747C18.8234 5.92747 18.8053 5.95153 18.8294 5.95754C19.1271 5.73499 19.7768 5.50341 20.27 5.37408C20.1317 5.48536 20.0535 5.46431 20.1647 5.51844C20.3843 5.45829 20.0715 5.40717 20.5136 5.29288C20.667 5.30792 20.9978 5.29288 21.052 5.36506L20.6339 5.44025C20.8655 5.50641 21.1753 5.341 21.4008 5.34401L21.3768 5.39514C21.6986 5.34702 21.858 5.30491 22.0294 5.26882C22.1978 5.22972 22.3753 5.18762 22.7271 5.19965L22.655 5.16356C23.0429 5.04927 22.9768 5.22671 23.3647 5.16656L23.473 5.29288C23.7256 5.27483 24.3692 5.27183 24.8234 5.341C24.688 5.36205 24.4865 5.35604 24.279 5.35002C24.0715 5.35002 23.855 5.35604 23.6896 5.35604C23.8129 5.37108 24.0234 5.39514 24.2189 5.41017C24.4144 5.42822 24.5978 5.44927 24.667 5.43123C24.5647 5.42521 24.4354 5.43123 24.3422 5.39514C24.5016 5.37709 24.682 5.37408 24.8865 5.38912C25.0911 5.40717 25.3136 5.45529 25.5602 5.51243C25.488 5.60867 25.7978 5.71694 26.1587 5.83423C26.3362 5.90341 26.5286 5.97559 26.6941 6.04777C26.8565 6.12295 26.9888 6.21017 27.055 6.28235C27.8971 6.55002 28.6068 7.07634 29.4459 7.65378C29.2505 7.29889 29.6956 7.8192 29.7497 7.64175C29.9482 7.7801 30.0204 7.83724 30.0294 7.85829C30.2038 8.03273 30.3572 8.22521 30.5226 8.40566C30.6189 8.55604 30.3211 8.29138 30.3121 8.33649C30.7001 8.68235 30.4294 8.53499 30.6489 8.80265C30.6399 8.70641 30.8474 8.85378 31.0429 9.07935C30.9647 8.95905 30.8775 8.84777 30.7963 8.73047C31.1001 8.941 31.1813 9.08536 31.2655 9.22371C31.3497 9.36506 31.4339 9.5004 31.7136 9.741L31.5151 9.60867C31.8038 9.85529 32.4174 10.6553 32.7452 10.8748C32.7692 10.941 32.7813 11.0402 32.67 10.9169C33.1873 11.6478 33.9031 12.523 34.1286 13.2027L34.0565 13.1605C34.1407 13.3049 34.27 13.3831 34.3121 13.5996C34.2911 13.5996 34.2429 13.5575 34.273 13.6297C34.3211 13.7049 34.5347 14.0057 34.5918 14.2252C34.5527 14.1711 34.5136 14.1199 34.4715 14.0688C34.6099 14.4899 34.7692 14.7876 34.9076 15.0793C35.058 15.3681 35.1963 15.6418 35.3166 15.9966C35.1963 16.0297 35.3286 16.7124 35.3828 17.0553L35.3617 17.0463C35.5662 18.0478 35.7828 18.7425 35.9031 19.6929C35.882 19.8433 35.87 20.0448 35.861 20.2733C35.858 20.5049 35.858 20.7666 35.8459 21.0372C35.8459 21.3109 35.8309 21.5936 35.8068 21.8673C35.7918 22.141 35.7497 22.4057 35.7076 22.6372C35.7467 22.4959 35.8068 22.6703 35.8038 22.8418C35.7497 23.0583 35.8068 23.4673 35.6926 23.4132L35.7046 23.335C35.5692 23.4854 35.5151 23.9365 35.4459 24.2854L35.5873 24.3756C35.3708 24.8087 35.2474 25.4042 35.088 25.9425C35.0159 26.2132 34.9377 26.4688 34.8505 26.6793C34.7692 26.8929 34.679 27.0613 34.5798 27.1575C34.5286 27.3801 34.4174 27.6357 34.3512 27.8523L34.279 27.8042C34.1377 28.0809 34.0204 28.2824 33.8941 28.5019C33.7768 28.7245 33.6354 28.953 33.4429 29.2869L33.473 29.1215C33.2414 29.4824 33.3828 29.7139 33.1542 30.0508L32.9798 30.0718C32.5317 30.6884 31.9512 31.1906 31.4911 31.7861C31.488 31.7651 31.476 31.723 31.5602 31.6327C31.4369 31.7621 31.1662 31.9726 30.9557 32.1621C30.7422 32.3455 30.5798 32.4989 30.685 32.529C30.6098 32.4508 30.0685 33.0012 29.7407 33.2598L29.7497 33.1545C29.5181 33.4312 29.5271 33.4703 29.1151 33.732C29.0099 33.7801 28.9948 33.723 29.1392 33.6658C28.7873 33.8162 28.9136 33.8793 28.4775 34.0478L28.6099 33.9215C28.255 34.0929 28.2941 34.0989 28.1196 34.2433C27.9061 34.3816 27.4129 34.5019 27.3347 34.4478C27.3016 34.5109 27.1151 34.6433 26.8835 34.6824C26.8444 34.6643 26.9226 34.6222 26.9587 34.6012C26.7963 34.6342 26.658 34.6733 26.5377 34.7154C26.4144 34.7515 26.3031 34.7876 26.1978 34.8237C25.9903 34.8989 25.8008 34.953 25.5692 34.947C25.5542 34.9199 25.5241 34.9139 25.485 34.9109C26.0023 34.8387 26.4053 34.7184 26.3723 34.7425C26.3512 34.6673 25.9452 34.7485 26.2429 34.5711C25.9362 34.7094 25.3918 34.938 24.9768 34.95C24.9557 34.944 24.9377 34.941 24.9196 34.929L24.9617 34.9139C24.8685 34.9199 24.7843 34.932 24.7061 34.953C24.5768 34.953 24.4926 34.947 24.3662 34.953C24.3151 34.8959 23.888 34.941 23.6805 34.935C23.6986 35.0222 23.4219 35.0042 23.6805 35.0763C23.6474 35.0703 23.7196 35.0673 23.861 35.0613C23.8911 35.0613 23.9302 35.0583 23.9512 35.0523C23.9482 35.0523 23.9422 35.0583 23.9362 35.0613C24.0745 35.0523 24.255 35.0493 24.4565 35.0312C24.2941 35.0854 24.1196 35.1305 23.885 35.0884C23.7768 35.1425 23.6565 35.2027 23.5903 35.2267C23.2986 35.1124 22.7512 35.0072 22.682 34.926C22.0414 34.9199 21.1963 34.7305 20.7662 34.7726C20.5978 34.7455 20.5377 34.6613 20.4444 34.6072C20.5196 34.6252 20.6008 34.6433 20.676 34.6583C20.7271 34.6673 20.7723 34.6763 20.8023 34.6733C20.7542 34.6643 20.7121 34.6583 20.6459 34.6433C20.5647 34.6222 20.4775 34.6012 20.3903 34.5771C20.3031 34.553 20.2159 34.529 20.1286 34.5049L19.9993 34.4688C19.9993 34.4688 19.9873 34.4658 19.9843 34.4658V34.4839L19.9723 34.5169L19.9542 34.5831C19.864 34.935 19.8008 35.2297 19.8489 35.2598C19.6685 35.6959 19.8249 34.9771 19.6595 35.6027L19.6505 35.5094C19.5332 35.7681 19.452 36.0147 19.3918 36.2523C19.3587 36.3966 19.3256 36.541 19.2926 36.6793C19.2565 36.8538 19.2114 37.0252 19.1933 37.1756C19.4309 37.2207 19.6535 37.2568 19.852 37.3079C20.0083 37.341 20.1497 37.3771 20.3031 37.4252C20.6068 37.5215 20.9196 37.6658 21.2414 37.8854C21.1602 37.8342 21.1181 37.8072 21.1091 37.7831C21.8099 38.156 22.5286 38.544 23.1933 39.0102C23.861 39.4763 24.4565 40.0327 24.9016 40.6824C25.1662 41.0402 25.2444 41.0402 25.461 41.2177L25.4489 41.35L25.8159 41.6568C26.279 42.144 26.3181 42.7094 26.9046 43.323L26.8956 43.1996C27.055 43.4553 27.452 43.9786 27.3647 43.9756C27.3918 43.9966 27.473 44.0237 27.5091 44.141L27.473 44.1741L27.9332 44.7605C28.2008 45.2718 27.7286 44.7816 28.1467 45.5034C28.3211 45.762 28.7061 46.2042 28.676 46.0869C28.6189 45.9756 28.5437 45.7921 28.5828 45.762L28.7452 45.9996C28.8926 45.9786 29.1302 46.1019 28.8625 45.4342L28.5407 45.0523L28.5166 44.8808L28.7332 45.2357C28.67 44.9981 28.5437 44.8989 28.4234 44.7756C28.4354 44.7214 28.4204 44.6493 28.3813 44.559L28.0144 44.2162C28.0294 44.138 28.2219 44.3425 28.0745 44.0508C27.9001 43.8914 28.0865 44.3004 27.852 44.0027C27.7798 43.7711 27.858 43.8011 27.6655 43.5966C27.6745 43.5455 27.7256 43.5816 27.7978 43.6658C27.6294 43.4793 27.4249 43.1275 27.2926 43.0643C27.2204 42.8147 26.8053 42.3876 26.9286 42.3335C26.8565 42.2884 26.5948 42.0357 26.4535 41.8583C26.8294 42.0989 25.9542 41.1696 26.1527 41.1575C25.855 40.9981 25.4159 40.3184 24.9768 39.9636C25.0068 39.9786 25.064 40.0087 25.0941 40.0478C24.8865 39.8102 24.8565 39.7139 24.7362 39.5485C24.6189 39.6087 24.258 39.2809 24.0053 39.1786C23.7858 38.8478 24.273 39.2207 24.252 39.0613C24.2038 39.1455 23.6745 38.7064 23.7256 38.8538C23.5332 38.6252 23.5452 38.6763 23.482 38.5079C23.3557 38.5951 23.2474 38.3666 22.9918 38.3094C22.679 38.0147 22.9768 38.132 22.5557 37.9275C22.3873 37.7741 22.7723 37.9425 22.7723 37.9425L22.7933 37.9696ZM25.1753 35.4793C25.082 35.4944 25.0008 35.5064 24.9497 35.5124C24.9978 35.5064 25.061 35.4944 25.1723 35.4793H25.1753ZM26.0835 35.326C25.9753 35.353 25.8339 35.3681 25.6895 35.3951C25.6535 35.3711 25.6835 35.335 25.7738 35.323C25.7286 35.347 25.9452 35.335 26.0835 35.326ZM24.1317 34.9771C24.27 34.959 24.3151 34.9771 24.3362 34.9891C24.27 34.9951 24.1948 35.0012 24.0956 35.0102C24.0926 35.0102 24.0835 35.0192 24.0805 35.0222C24.0926 35.0042 24.1076 34.9891 24.1347 34.9771H24.1317Z" fill="#1B1B1B"/>
<path d="M23.8815 35.0909C23.8604 35.0909 23.8514 35.0969 23.8242 35.0969C23.8544 35.103 23.8815 35.109 23.9087 35.115C23.9268 35.106 23.9419 35.0969 23.957 35.0879C23.9328 35.0879 23.9057 35.0879 23.8815 35.0879V35.0909Z" fill="#1B1B1B"/>
<path d="M13.9487 34.479L13.9551 34.46C13.9551 34.46 13.9392 34.4885 13.9297 34.4948C13.936 34.4822 13.9392 34.4853 13.9455 34.4758L13.9487 34.479Z" fill="#1B1B1B"/>
<path d="M35.3701 27.3205L35.349 27.3145L35.334 27.3958L35.3701 27.3205Z" fill="#1B1B1B"/>
<path d="M9.95403 36.1443C9.95403 36.1443 9.9209 36.1383 9.88477 36.1443C9.89079 36.1473 9.91789 36.1443 9.95403 36.1443Z" fill="#1B1B1B"/>
<path d="M8.00577 37.1328L7.73438 37.2866C7.855 37.2233 7.93943 37.175 8.00577 37.1328Z" fill="#1B1B1B"/>
<path d="M6.66924 38.1592C6.66309 38.1869 6.66924 38.1992 6.66924 38.2115L6.66309 38.1592H6.66924Z" fill="#1B1B1B"/>
<path d="M9.8397 18.4188C9.8397 18.3946 9.8397 18.3735 9.8397 18.3524C9.83065 18.1985 9.83366 18.3041 9.8397 18.4188Z" fill="#1B1B1B"/>
<path d="M11.2653 26.145C11.2201 26.0727 11.1779 26.0003 11.1387 25.9219C11.1839 26.0546 11.2201 26.1601 11.2653 26.145Z" fill="#1B1B1B"/>
<path d="M12.6035 10.0409C12.6035 10.0409 12.6254 10.0127 12.6379 9.99707L12.6035 10.0409Z" fill="#1B1B1B"/>
<path d="M11.0098 25.5762C11.0429 25.7149 11.0882 25.8234 11.1394 25.9199C11.1032 25.8084 11.064 25.6787 11.0098 25.5762Z" fill="#1B1B1B"/>
<path d="M5.91469 39.5547L5.55078 39.9697C5.638 39.9156 5.74928 39.8404 5.60492 40.0419C6.11018 39.5577 5.45454 40.1081 5.91469 39.5547Z" fill="#1B1B1B"/>
<path d="M7.09686 38.3306C6.8918 38.5417 7.13003 38.3608 7.13304 38.3879C7.25366 38.2462 7.28382 38.21 7.09686 38.3306Z" fill="#1B1B1B"/>
<path d="M14.5611 30.8476L14.6364 30.8175C14.4768 30.6549 14.6123 30.8356 14.5611 30.8476Z" fill="#1B1B1B"/>
<path d="M12.7842 29.209L12.8746 29.4261L12.9953 29.4744L12.7842 29.209Z" fill="#1B1B1B"/>
<path d="M12.5285 27.7275L12.5858 27.8089C12.5135 27.7034 12.4531 27.5948 12.3838 27.4893L12.5285 27.7275Z" fill="#1B1B1B"/>
<path d="M14.7486 8.66459L14.634 8.64648C14.5374 8.76717 14.5918 8.86372 14.7486 8.66459Z" fill="#1B1B1B"/>
<path d="M22.6602 5.26825C22.7564 5.31937 23.003 5.34343 23.1594 5.31035C22.9609 5.2893 22.7624 5.25922 22.6602 5.26825Z" fill="#1B1B1B"/>
<path d="M35.3888 24.803L35.3979 24.6221L35.3496 24.9568L35.3888 24.803Z" fill="#1B1B1B"/>
<path d="M23.5806 21.8493C24.0922 21.8493 24.5069 21.1761 24.5069 20.3456C24.5069 19.5151 24.0922 18.8418 23.5806 18.8418C23.069 18.8418 22.6543 19.5151 22.6543 20.3456C22.6543 21.1761 23.069 21.8493 23.5806 21.8493Z" fill="black"/>
<path d="M30.4498 21.8493C30.9613 21.8493 31.3761 21.1761 31.3761 20.3456C31.3761 19.5151 30.9613 18.8418 30.4498 18.8418C29.9382 18.8418 29.5234 19.5151 29.5234 20.3456C29.5234 21.1761 29.9382 21.8493 30.4498 21.8493Z" fill="black"/>
<path d="M22.2661 24.8572C23.3806 24.8572 24.2841 24.3186 24.2841 23.6542C24.2841 22.9898 23.3806 22.4512 22.2661 22.4512C21.1516 22.4512 20.248 22.9898 20.248 23.6542C20.248 24.3186 21.1516 24.8572 22.2661 24.8572Z" fill="#F4BDCB"/>
<path d="M31.2895 24.8572C32.4041 24.8572 33.3076 24.3186 33.3076 23.6542C33.3076 22.9898 32.4041 22.4512 31.2895 22.4512C30.175 22.4512 29.2715 22.9898 29.2715 23.6542C29.2715 24.3186 30.175 24.8572 31.2895 24.8572Z" fill="#F4BDCB"/>
<path d="M27.0155 25.1579C26.2696 25.1579 25.6621 24.5504 25.6621 23.8046C25.6621 23.0587 26.2696 22.4512 27.0155 22.4512C27.7614 22.4512 28.3689 23.0587 28.3689 23.8046C28.3689 24.5504 27.7614 25.1579 27.0155 25.1579ZM27.0155 22.7519C26.435 22.7519 25.9629 23.2241 25.9629 23.8046C25.9629 24.385 26.435 24.8572 27.0155 24.8572C27.5959 24.8572 28.0681 24.385 28.0681 23.8046C28.0681 23.2241 27.5959 22.7519 27.0155 22.7519Z" fill="black"/>
<path d="M1.45117 49.6685C1.45117 49.6685 2.05268 43.6535 4.75944 40.646C7.46621 37.6385 9.27072 35.5332 11.9775 35.5332C11.9775 35.5332 10.2091 38.4325 15.8873 39.1422C20.6993 39.7437 20.0978 37.037 20.0978 37.037C21.1173 37.5543 23.9053 38.8956 24.9098 40.0445C27.0151 42.4505 28.8196 45.7588 28.8196 45.7588" fill="white"/>
<path d="M25.2197 40.249L25.2388 40.2871C25.2388 40.2871 25.2292 40.2617 25.2197 40.249Z" fill="#1B1B1B"/>
<path d="M22.1614 37.943C22.189 37.9553 22.2043 37.9553 22.2073 37.9491C22.1798 37.94 22.1584 37.9338 22.1614 37.943Z" fill="#1B1B1B"/>
<path d="M21.623 37.5605C21.623 37.5605 21.6452 37.5764 21.6579 37.5859C21.6484 37.5732 21.6357 37.5605 21.623 37.5605Z" fill="#1B1B1B"/>
<path d="M25.2201 40.2496L25.1719 40.1562C25.1478 40.1653 25.193 40.2074 25.2201 40.2496Z" fill="#1B1B1B"/>
<path d="M25.7607 40.795C25.7607 40.795 25.7703 40.7791 25.7703 40.7695C25.7639 40.7759 25.7607 40.7823 25.7607 40.795Z" fill="#1B1B1B"/>
<path d="M20.4531 36.8701C20.4531 36.8701 20.4596 36.8734 20.4628 36.8766C20.5179 36.896 20.4887 36.8831 20.4531 36.8701Z" fill="#1B1B1B"/>
<path d="M12.0108 36.802C11.9806 36.9196 11.8961 36.6391 11.875 36.814C11.8961 36.7959 12.0078 36.9408 12.0108 36.802Z" fill="#1B1B1B"/>
<path d="M18.9014 38.665C18.9014 38.665 18.9236 38.6777 18.9363 38.6777C18.9331 38.6714 18.9236 38.6682 18.9014 38.665Z" fill="#1B1B1B"/>
<path d="M17.9658 38.9986C17.9387 38.9986 17.9297 38.9896 17.8936 38.9986C17.8966 38.9986 17.8996 39.0046 17.9056 39.0046C17.9176 38.9956 17.9357 38.9896 17.9658 38.9956V38.9986Z" fill="#1B1B1B"/>
<path d="M16.8888 39.0381C16.8888 39.0381 16.901 39.0472 16.907 39.0503C16.9192 39.0503 16.9314 39.0503 16.9405 39.0472L16.8857 39.0381H16.8888Z" fill="#1B1B1B"/>
<path d="M17.98 39.4971L17.7939 39.5031C17.845 39.5031 17.914 39.5031 17.98 39.4971Z" fill="#1B1B1B"/>
<path d="M7.00364 38.583L6.98145 38.6179C6.98145 38.6179 7.00364 38.5957 7.00364 38.583Z" fill="#1B1B1B"/>
<path d="M17.2534 39.5422C17.2202 39.5182 17.1871 39.5061 17.151 39.4971C17.1419 39.5031 17.1359 39.5061 17.1299 39.5121L17.2534 39.5392V39.5422Z" fill="#1B1B1B"/>
<path d="M2.49164 46.186C2.53675 46.0266 2.4345 46.0898 2.3954 46.0447C2.42547 45.8492 2.47961 45.9725 2.53675 45.9184C2.54878 45.7951 2.49765 45.6808 2.52773 45.5936C2.54277 45.5936 2.55179 45.5755 2.56382 45.5996C2.53976 45.4552 2.6781 45.2296 2.64201 45.0582C2.65104 45.0492 2.66006 45.0462 2.66908 45.0462C2.62096 45.0582 2.58186 45.0462 2.5548 45.0342C2.57585 44.962 2.54577 44.8868 2.60592 44.8748C2.59089 44.9169 2.60893 44.9289 2.62096 44.953V44.8718C2.7172 44.8296 2.61495 44.983 2.67209 45.0011C2.69013 44.8477 2.69615 44.6612 2.75329 44.559C2.8345 44.559 2.68412 44.8236 2.80141 44.7003L2.71419 44.8597C2.87359 44.7695 2.66908 44.959 2.8345 44.8838C2.93374 44.6702 2.88562 44.6221 2.98788 44.4086C2.96683 44.3454 2.92171 44.4026 2.90066 44.3394C2.94277 43.9936 3.17435 44.162 3.17134 43.8973C3.14728 43.8191 3.06908 43.759 3.18337 43.6176L3.24051 43.7078C3.33675 43.5003 3.17134 43.5364 3.32472 43.3409C3.33675 43.3921 3.27961 43.5154 3.30066 43.4883C3.42397 43.374 3.30066 43.368 3.35179 43.2597L3.43299 43.2687C3.52923 43.0492 3.58337 42.7755 3.70367 42.5349C3.7157 42.559 3.7157 42.6101 3.76683 42.565C3.83299 42.4086 3.92322 42.2522 4.01946 42.1048C4.11871 41.9545 4.24201 41.8281 4.34728 41.7048L4.35931 41.5665C4.37735 41.5424 4.41344 41.5394 4.40743 41.5725C4.49765 41.4823 4.37735 41.5424 4.38938 41.4763C4.42547 41.4131 4.47359 41.4191 4.46457 41.4703C4.54577 41.2597 4.76232 40.9018 4.96382 40.7665L4.94577 40.8146C5.09013 40.6943 4.98487 40.568 5.14728 40.4778L5.13224 40.5109C5.42698 40.2281 5.68262 39.8522 5.96232 39.6928C5.93224 39.5845 6.26608 39.4251 6.18487 39.3169C6.38938 39.1906 6.36232 39.2537 6.61796 39.0492C6.68111 38.989 6.64502 38.8988 6.70818 38.8086L6.75931 38.8537L6.80743 38.6973H6.92171L6.97886 38.6161C6.94878 38.6432 6.89765 38.6552 6.88562 38.6372C6.97284 38.5018 7.18638 38.3966 7.21645 38.4206C7.28863 38.3184 7.36382 38.2191 7.43901 38.1199C7.45405 38.1469 7.41495 38.1951 7.3939 38.2432C7.48412 38.0537 7.47209 38.2702 7.55329 38.0988C7.52623 38.1048 7.53525 38.0597 7.52623 38.0477C7.61946 38.0146 7.76683 37.8733 7.86608 37.759L7.87811 37.8131C8.08562 37.6357 8.29014 37.4131 8.52472 37.2206C8.42848 37.2748 8.39239 37.1936 8.45856 37.1304L8.53074 37.1635C8.54878 37.0913 8.44051 37.1996 8.49765 37.0823C8.5939 37.0191 8.60893 37.1033 8.57284 37.1605L8.66608 37.0582C8.68713 37.0702 8.66608 37.1003 8.67811 37.1274C8.69615 37.0582 8.90968 37.0432 8.92773 36.9319L8.94577 36.9439C9.19239 36.7785 9.28863 36.6733 9.49615 36.553C9.46908 36.4958 9.55931 36.4627 9.5954 36.3815C9.76081 36.3033 9.96532 36.2763 10.1548 36.177C10.2811 36.0928 10.1759 36.1109 10.224 36.0507C10.2571 36.1018 10.4555 36.0236 10.3653 36.0988C10.6029 36.0056 10.6691 35.9785 10.9728 35.8582C10.9337 35.8432 10.8916 35.8432 10.9067 35.8191C10.9638 35.7951 11.042 35.8071 11.042 35.8402L11.027 35.8492C11.0992 35.8191 11.1834 35.8041 11.2706 35.7981C11.3127 35.7951 11.3608 35.7921 11.3969 35.7921C11.421 35.7921 11.439 35.7981 11.451 35.8071C11.5052 35.8402 11.5052 35.8672 11.5172 35.8733C11.5172 35.8793 11.5262 35.8793 11.5443 35.8793H11.5383C11.5533 35.8883 11.5653 35.9184 11.5743 35.9635C11.5743 35.9545 11.5683 35.9755 11.5653 35.9815C11.5623 35.9905 11.5593 35.9936 11.5563 35.9905C11.5503 35.9905 11.5473 35.9755 11.5443 35.9575C11.5322 35.9484 11.5142 35.9515 11.4992 35.9394C11.4992 36.3274 11.3969 36.5499 11.5022 36.8657C11.4751 36.9319 11.4721 37.0251 11.4901 37.1274C11.5082 37.2296 11.5683 37.3319 11.6195 37.4402C11.6646 37.5515 11.7548 37.6357 11.8119 37.7319C11.8751 37.8251 11.9262 37.9154 11.9713 37.9875L11.9864 37.9454C12.0766 37.9785 12.0435 38.0327 12.0826 38.0838C12.0977 38.0537 12.0405 37.9936 12.0946 38.0146C12.633 38.4748 13.2555 38.8597 13.9052 39.1093C14.1428 39.1936 14.1007 38.9469 14.3774 39.1184L14.2721 39.1695C14.7774 39.2206 15.2736 39.383 15.7638 39.383C15.7337 39.3951 15.7307 39.4161 15.6826 39.4101C15.7759 39.4853 16.0616 39.4582 16.0676 39.4131C16.1428 39.4251 16.0796 39.4552 16.1247 39.4823C16.224 39.5244 16.3894 39.4372 16.4405 39.4943C16.4495 39.5033 16.4104 39.5093 16.3924 39.5124C16.4616 39.4913 16.7052 39.5484 16.645 39.4793C16.8255 39.5214 16.9969 39.4582 17.1443 39.4973C17.2405 39.4281 17.4601 39.5364 17.4871 39.4312C17.4781 39.5334 17.821 39.4853 17.9322 39.4281C17.8962 39.4612 18.0375 39.4522 17.9984 39.4973C18.1337 39.4913 18.254 39.4342 18.221 39.389C18.3563 39.4251 18.4766 39.374 18.5819 39.3319C18.6871 39.2898 18.7743 39.2327 18.8706 39.2838C19.2525 39.1093 19.5774 38.8597 19.821 38.565C19.851 38.6011 19.7909 38.6973 19.7067 38.7575C19.6285 38.8236 19.5503 38.8868 19.5894 38.9259C19.6586 38.8597 19.7157 38.7966 19.7668 38.7394C19.8149 38.6733 19.851 38.6071 19.8931 38.5469C19.9774 38.4266 20.0345 38.2913 20.1337 38.1409C20.1819 38.0597 20.1578 38.2131 20.1488 38.2462C20.218 38.0687 20.2811 37.9003 20.3202 37.7289C20.3322 37.6928 20.3352 37.6327 20.3413 37.6116V37.5695C20.3413 37.5424 20.3352 37.5124 20.3202 37.4672C20.3292 37.4793 20.3383 37.5003 20.3473 37.5184C20.3443 37.4943 20.3593 37.4943 20.3142 37.4372L20.3262 37.4733C20.2901 37.4552 20.254 37.377 20.2119 37.2687C20.1999 37.2357 20.1759 37.1785 20.1759 37.1665C20.1819 37.1575 20.1849 37.1484 20.1819 37.1394C20.242 37.3199 20.3804 37.2778 20.3954 37.4702C20.4014 37.4642 20.4074 37.4432 20.3954 37.4011C20.4255 37.4251 20.4285 37.4492 20.4225 37.4853C20.4766 37.4853 20.4586 37.4221 20.5458 37.4672C20.5307 37.4853 20.5157 37.4853 20.5007 37.5093C20.5127 37.4913 20.5759 37.4973 20.63 37.5093C20.6841 37.5214 20.7443 37.5454 20.8104 37.5875C20.7954 37.5966 20.8044 37.6206 20.7623 37.5966C21.0059 37.7139 21.2225 37.7018 21.4661 37.8763C21.3428 37.9214 21.5383 37.9515 21.5142 38.0327L21.6646 38.0838L21.6285 38.0176C21.7518 38.0838 21.8871 38.0898 21.9774 38.171L21.8691 38.153L22.1037 38.2642L21.9894 38.165C22.1337 38.1951 22.0285 38.0627 22.1789 38.174C22.1428 38.162 22.2992 38.2432 22.3383 38.3214C22.4104 38.3304 22.4886 38.3424 22.5668 38.4116C22.5759 38.4477 22.5007 38.4808 22.5067 38.5048C22.5999 38.4778 22.7984 38.6492 22.9067 38.6312C22.8736 38.6312 22.8495 38.6672 22.8525 38.6823L22.9307 38.6642C22.9759 38.7124 22.9789 38.7244 22.9518 38.7515C23.1112 38.8597 22.9548 38.6281 23.1262 38.7875C23.1082 38.7815 23.1112 38.7936 23.0751 38.7815C23.2556 38.9229 23.4721 38.986 23.6285 39.1304C23.6315 39.2357 23.4661 39.0432 23.4841 39.1424C23.7398 39.2988 24.0616 39.4131 24.2721 39.6176L24.236 39.5755C24.3443 39.5093 24.3683 39.756 24.5127 39.8131C24.4796 39.7951 24.4345 39.8312 24.4495 39.8281C24.5849 39.9725 24.7563 40.0748 24.9849 40.2913L24.9368 40.2823C24.9939 40.3905 25.1292 40.5319 25.1984 40.6402C25.2465 40.6492 25.2886 40.7124 25.2946 40.6492C25.4089 41.0642 25.839 41.1845 25.9383 41.5545C25.9112 41.5214 25.8571 41.4913 25.8751 41.5184L26.0766 41.7439C26.1037 41.6928 26.0766 41.6928 26.0766 41.6176C26.1247 41.6296 26.1939 41.6838 26.239 41.7439C26.1307 41.6537 26.1728 41.7951 26.1819 41.8582C26.1879 41.8402 26.215 41.8462 26.224 41.8342C26.242 42.0146 26.3262 41.7921 26.4014 42.0056L26.3713 42.0116C26.4285 42.0687 26.5007 42.1078 26.5458 42.183C26.5187 42.2462 26.4736 42.1289 26.4285 42.153C26.5007 42.2492 26.6601 42.2823 26.6751 42.4086C26.63 42.3755 26.5879 42.3154 26.5458 42.2823C26.5578 42.4206 26.5789 42.4206 26.621 42.5018V42.4928L26.7082 42.6793L26.6931 42.6251C26.9067 42.6612 26.8916 42.8627 27.0901 42.977C26.8977 42.8657 27.024 42.98 26.9608 43.0071C26.9728 43.0612 26.9999 43.1394 26.9728 43.1304C27.0721 43.1815 27.024 43.2898 27.1683 43.359C27.1533 43.377 27.2225 43.4462 27.1653 43.4582C27.2495 43.5545 27.1804 43.4131 27.2104 43.4071C27.3789 43.5304 27.3819 43.8372 27.6165 44.0206C27.7789 44.2011 27.8661 44.2011 28.0165 44.3725C28.0255 44.4567 27.9172 44.3605 27.9172 44.3605C27.9533 44.4808 28.0044 44.556 28.0856 44.6402C28.0586 44.6312 28.0556 44.6582 28.0525 44.7033C28.1037 44.7785 28.1518 44.7154 28.1879 44.8357C28.1548 44.8296 28.1097 44.8266 28.0646 44.8026C28.1368 44.8838 28.227 44.956 28.3022 45.0432C28.2841 45.0883 28.218 45.0131 28.1759 44.9921C28.254 45.0913 28.3713 45.2567 28.4435 45.2597L28.4225 45.1785C28.4495 45.2176 28.3894 45.2266 28.3623 45.2026C28.2661 45.1334 28.3022 45.0582 28.3172 45.0402L28.3713 45.1033C28.4405 44.968 28.1909 44.8357 28.1127 44.6943L28.227 44.7033L28.0766 44.6011C28.0766 44.559 28.1127 44.5109 28.1638 44.571C28.1428 44.4477 28.0826 44.5018 28.0736 44.3905C28.0736 44.3755 28.0826 44.3785 28.0886 44.3845L28.0044 44.3033C28.0315 44.3124 28.0525 44.2522 28.0766 44.3184C28.0165 44.1169 27.845 44.0778 27.8631 43.9755L27.8781 43.9875C27.7007 43.765 27.8059 43.9996 27.6255 43.8642L27.6916 43.6537L27.6195 43.6687C27.6074 43.6417 27.5804 43.5906 27.6074 43.5845C27.5082 43.5184 27.5924 43.6176 27.5202 43.5845C27.4992 43.4312 27.2856 43.2778 27.3608 43.1906C27.2886 43.1785 27.3999 43.3229 27.2886 43.2206C27.3638 43.1214 27.1774 43.0883 27.1503 42.9499C27.2225 42.9499 27.2616 43.0672 27.2375 42.9319C27.1112 42.9229 27.1172 42.7124 27.039 42.6342C26.9668 42.6763 26.8796 42.4597 26.7533 42.3274C26.7834 42.3214 26.5939 42.0236 26.5217 41.8672H26.5368C26.4495 41.8853 26.3593 41.7349 26.2721 41.6447C26.3142 41.6206 26.3443 41.6266 26.4014 41.6687L26.3292 41.5725C26.2901 41.5665 26.2571 41.5424 26.2059 41.4883L26.2721 41.4763C26.1759 41.3499 26.0225 41.2657 25.9322 41.0763C25.8811 41.1033 25.9022 41.3018 25.7428 41.1545C25.7638 41.1304 25.7999 41.0913 25.845 41.1274C25.83 41.1154 25.7849 41.0913 25.7728 41.0522L25.8661 41.0883C25.827 41.0011 25.8029 41.0763 25.7608 41.0161C25.7969 40.989 25.7518 40.953 25.7879 40.9409C25.8029 40.953 25.8119 41.0041 25.845 41.0161C25.7999 40.9439 25.7578 40.8477 25.7638 40.8026C25.7488 40.8236 25.7157 40.8387 25.6736 40.7966C25.5713 40.6763 25.6826 40.7214 25.6405 40.6342C25.5924 40.6221 25.5533 40.5229 25.4992 40.565C25.4691 40.5289 25.4901 40.5018 25.4931 40.4778C25.421 40.4296 25.2375 40.189 25.2465 40.3033L25.2556 40.3214L25.2435 40.3124C25.1322 40.2312 25.048 40.1199 24.9698 40.0026C24.8796 39.8943 24.8014 39.768 24.6871 39.6928L24.7022 39.6778C24.5668 39.5845 24.4195 39.4522 24.2992 39.4191C24.2631 39.389 24.236 39.3169 24.2691 39.3078C24.1608 39.2477 24.1337 39.2597 24.0134 39.1244C24.1368 39.1665 23.9984 39.0702 24.1337 39.1755C24.0165 39.0642 24.0074 39.0131 23.83 38.968C23.9112 38.953 23.7698 38.8417 23.6977 38.8116L23.7668 38.9078C23.6916 38.8657 23.6345 38.8206 23.5713 38.7755L23.6465 38.7334C23.421 38.4778 23.0661 38.5499 22.9337 38.2943C22.8345 38.2943 23.0661 38.4176 22.9698 38.4296C22.8465 38.3454 22.7653 38.174 22.7262 38.1499C22.5698 38.0116 22.5067 38.1499 22.3322 38.0206C22.3443 38.0567 22.3322 38.1319 22.1789 38.0778C22.0525 37.9966 22.0736 37.8913 22.1668 37.9184C22.1999 37.9334 22.2089 37.9484 22.2059 37.9575C22.254 37.9725 22.3142 37.9936 22.2751 37.9394L22.245 37.9545C22.1939 37.8943 22.0104 37.7981 22.0736 37.783C21.9623 37.7499 22.0104 37.7981 22.0766 37.8522C21.9262 37.7259 21.8149 37.7078 21.6525 37.5936C21.6736 37.6206 21.6826 37.6627 21.6556 37.6477C21.4149 37.4823 21.5202 37.6327 21.3398 37.5545C21.2586 37.4672 21.421 37.4853 21.2285 37.4251C21.1353 37.3469 21.2375 37.3499 21.2916 37.353C21.1082 37.3169 21.0089 37.1695 20.9217 37.1154L21.015 37.1394C20.9578 37.1244 20.9187 37.1033 20.8766 37.0823L20.9007 37.1545C20.8556 37.1214 20.8134 37.1003 20.8255 37.0793C20.7593 37.0853 20.8255 37.1785 20.7022 37.1695C20.615 37.0943 20.4165 37.0582 20.3743 36.959C20.5368 37.0522 20.5277 37.0312 20.5157 36.9981C20.5037 36.968 20.4766 36.9229 20.636 36.9981C20.5728 36.977 20.5037 36.9409 20.4134 36.8838C20.3984 36.8687 20.4255 36.8718 20.4495 36.8838C20.0676 36.6191 20.2962 36.8958 19.9683 36.7274C19.9743 36.7063 19.9383 36.6702 19.8931 36.6312C19.848 36.5951 19.7849 36.553 19.7789 36.559C19.83 36.577 19.8811 36.6281 19.8751 36.6462C19.8781 36.6612 19.8661 36.6642 19.8631 36.6793C19.8631 36.6973 19.8601 36.7124 19.848 36.7274C19.842 36.7274 19.836 36.7214 19.833 36.7214C19.839 36.9409 19.9112 37.0582 19.9172 37.1725C19.9172 37.1274 19.9172 37.0823 19.9172 37.0372C19.9743 37.1454 19.9743 37.2477 19.9954 37.4071C19.9653 37.4071 19.9623 37.2507 19.9533 37.2988C20.0014 37.4161 19.9713 37.4883 19.9383 37.5755C19.9142 37.6357 19.8661 37.6928 19.8721 37.768C19.83 37.8221 19.7999 37.753 19.7668 37.7981C19.7518 37.9545 19.6646 37.9274 19.6165 38.0718C19.6856 38.0627 19.6796 38.0447 19.6646 38.174C19.6977 38.0868 19.7458 38.0146 19.7608 37.9244C19.7668 37.9875 19.7608 38.0507 19.7488 38.1139C19.7999 38.0447 19.7999 37.9424 19.827 37.9003C19.836 37.9936 19.827 37.9845 19.8811 37.9635C19.7698 38.0387 19.8089 38.1951 19.6886 38.2793L19.5864 38.1951C19.4962 38.2432 19.4631 38.3214 19.4059 38.3966C19.3428 38.4627 19.2856 38.559 19.1593 38.6071C19.1864 38.5981 19.2195 38.5981 19.2435 38.583C19.2435 38.6492 19.1022 38.6672 19.039 38.7274C19.027 38.6853 18.9728 38.6943 18.9277 38.6853C18.9488 38.7214 18.7473 38.7515 18.7563 38.8417L18.624 38.8266C18.4165 38.8778 18.4134 39.0071 18.1969 39.0432C18.251 38.983 18.1518 38.971 18.2841 38.9078C18.2149 38.9229 18.1518 38.9259 18.1548 38.956C18.1127 38.9409 17.9683 39.0522 17.8962 39.0101C17.8691 39.0312 17.8631 39.0793 17.7819 39.0823C17.7728 39.0733 17.7819 39.0612 17.7819 39.0612C17.7819 39.0823 17.6556 39.1033 17.7337 39.1454C17.5022 39.0402 17.1022 39.1755 16.9067 39.0552C16.7473 39.0763 16.5548 39.0672 16.4074 39.0552C16.4165 39.0432 16.4074 39.0342 16.4375 39.0402C16.242 38.98 16.3022 39.1575 16.0796 39.0913C15.9713 39.0101 16.2059 39.0642 16.1337 39.0312C16.1187 38.8838 15.8571 39.0312 15.7157 38.9139H15.7548C15.6465 38.8447 15.4661 38.9199 15.2766 38.8808C15.2766 38.8808 15.2886 38.8687 15.2826 38.8597C15.1413 38.9139 14.8886 38.9018 14.7052 38.8718C14.7743 38.8296 14.7924 38.8627 14.7713 38.7966C14.6901 38.7845 14.7743 38.8928 14.6089 38.8687C14.5638 38.8266 14.4556 38.7695 14.4556 38.7063L14.6059 38.7394C14.5488 38.6432 14.4104 38.6943 14.3352 38.6612L14.3533 38.6312C14.1187 38.589 14.0946 38.6672 13.854 38.577L13.8691 38.6101C13.7067 38.6462 13.7759 38.5259 13.6225 38.5379L13.6165 38.4417C13.5202 38.4417 13.2916 38.3966 13.1322 38.3364C13.2495 38.3154 13.427 38.3815 13.5533 38.3815C13.4661 38.3545 13.2796 38.2582 13.2165 38.2793C13.2525 38.2883 13.3037 38.2883 13.3277 38.3154C13.2014 38.3274 13.048 38.2973 12.8916 38.2101C12.9488 38.1439 12.8616 38.0687 12.7533 37.9875C12.6992 37.9484 12.642 37.9033 12.5969 37.8612C12.5548 37.8161 12.5307 37.762 12.5307 37.7169C12.4676 37.6778 12.4104 37.6296 12.3563 37.5785C12.2992 37.5274 12.2721 37.4582 12.233 37.3951C12.1458 37.2718 12.1157 37.1214 12.0495 36.974C11.9533 37.1274 12.0225 36.8838 11.8962 36.9379C11.8691 36.8597 11.8631 36.8266 11.8721 36.8206C11.8721 36.7364 11.9112 36.6492 11.9292 36.571C11.9653 36.5139 11.9653 36.6432 11.9954 36.6342C11.9984 36.4687 12.0435 36.565 12.0856 36.4597C12.0345 36.4808 12.0225 36.3996 12.0465 36.3093L11.9713 36.4357C11.9473 36.3154 11.9774 36.2642 12.0195 36.2191C12.0405 36.1981 12.0586 36.174 12.0706 36.1439C12.0736 36.1349 12.0766 36.1289 12.0796 36.1169C12.0856 36.0988 12.0796 36.1169 12.0916 36.0657C12.1097 36.0146 12.1277 35.9635 12.1428 35.9003L12.1217 36.0627C12.1488 35.9755 12.2029 35.8432 12.2601 35.6958C12.3383 35.5394 12.4315 35.359 12.4946 35.2236C12.4495 35.2266 12.4255 35.2266 12.3894 35.2327C12.3473 35.2387 12.3052 35.2477 12.2661 35.2537C12.1879 35.2687 12.1187 35.2868 12.0586 35.3109C12.0375 35.2958 12.0134 35.2597 12.1337 35.2447C11.9894 35.2447 11.824 35.2597 11.6646 35.2778C11.5082 35.2898 11.3307 35.3259 11.2646 35.3499C11.0811 35.3981 10.9127 35.4402 10.7743 35.4492L10.7924 35.4101C10.7292 35.4372 10.6962 35.5003 10.6089 35.4883C10.6089 35.4733 10.627 35.4492 10.5969 35.4552C10.5638 35.4733 10.4435 35.5545 10.3563 35.5695L10.4134 35.5093C10.245 35.5454 10.1247 35.6146 10.0195 35.6838C9.9172 35.762 9.82999 35.8492 9.70668 35.9184C9.68562 35.8733 9.61044 35.8702 9.52322 35.8883C9.43901 35.9093 9.34578 35.9484 9.28262 35.9755V35.9605C9.09916 36.0507 8.96683 36.159 8.84653 36.2763C8.72322 36.3875 8.61194 36.5048 8.48262 36.6342C8.23299 36.6793 7.85705 37.0702 7.5563 37.2687C7.61044 37.2447 7.60141 37.3319 7.56232 37.383C7.48713 37.4251 7.43901 37.5905 7.38487 37.5154L7.40893 37.4973C7.30066 37.4733 7.1954 37.6146 7.09615 37.7048L7.16232 37.8041C6.78638 37.9244 6.56382 38.5018 6.32021 38.5319C6.28412 38.6131 6.21194 38.6883 6.17585 38.7695L6.13074 38.7214C5.95931 38.8808 5.8751 38.962 5.69164 39.1845L5.69765 39.1093C5.58337 39.2266 5.69765 39.386 5.59841 39.4973L5.49916 39.4672C5.30968 39.6778 5.05705 39.8342 4.93374 40.0988C4.92773 40.0868 4.91269 40.0627 4.93976 40.0236C4.84953 40.1199 4.54878 40.3635 4.6781 40.4146C4.61194 40.3545 4.47961 40.6342 4.41044 40.7815L4.37735 40.7214C4.3563 40.8748 4.37134 40.8928 4.27209 41.0492C4.23901 41.0793 4.20893 41.0492 4.25705 41.0131C4.14277 41.1093 4.22698 41.1334 4.10367 41.2597V41.1815C4.01946 41.3018 4.04352 41.3048 4.0375 41.4011C4.00743 41.4913 3.86908 41.6266 3.80893 41.6146C3.82698 41.6507 3.82096 41.7439 3.7578 41.8071C3.73374 41.8071 3.73976 41.771 3.74277 41.756C3.57435 41.9454 3.62247 42.1139 3.48412 42.2281C3.46307 42.2221 3.45104 42.2281 3.436 42.2342C3.53224 42.0627 3.61344 41.9244 3.61044 41.9424C3.55931 41.9124 3.47209 42.0477 3.46607 41.8943C3.43901 42.0296 3.41495 42.2672 3.3157 42.3906C3.30668 42.3936 3.29765 42.3996 3.28863 42.3996V42.3815C3.26758 42.4116 3.25856 42.4417 3.24953 42.4718C3.21645 42.5109 3.19841 42.5379 3.17735 42.58C3.12622 42.574 3.0751 42.7334 3.03901 42.8056C3.09916 42.8266 3.04502 42.9169 3.13525 42.8507C3.12623 42.8597 3.13525 42.8327 3.1563 42.7845C3.15931 42.7725 3.16532 42.7605 3.16532 42.7515V42.7575C3.18938 42.7093 3.21645 42.6492 3.24953 42.577C3.24953 42.6492 3.24953 42.7184 3.17735 42.7815C3.1954 42.8357 3.21344 42.8958 3.22247 42.9259C3.09615 42.983 2.96382 43.1545 2.90066 43.1575C2.83149 43.3921 2.70216 43.6958 2.75329 43.8763C2.74126 43.9454 2.69013 43.9364 2.66307 43.9545C2.66607 43.9124 2.68713 43.8703 2.6781 43.8432C2.65104 43.9785 2.54577 44.2281 2.61194 44.2853C2.51871 44.4357 2.57284 44.168 2.50668 44.3966L2.49465 44.3575C2.20592 44.7545 2.45254 45.1394 2.13675 45.5815C2.1578 45.5515 2.16683 45.5334 2.18186 45.5304C1.94728 46.0778 1.92923 46.7154 1.69465 47.2537C1.6375 47.4101 1.68562 47.4372 1.70367 47.5454L1.62848 47.5665L1.67359 47.7499C1.68562 47.9996 1.42698 48.1319 1.48412 48.4567L1.53525 48.4266C1.50818 48.5349 1.50216 48.7755 1.45404 48.7515C1.46006 48.7635 1.49615 48.7936 1.46607 48.8327H1.42998L1.45104 49.1093C1.3969 49.3139 1.3157 49.0552 1.26758 49.362C1.26758 49.4793 1.33074 49.7018 1.36081 49.6597C1.36683 49.6116 1.3969 49.5454 1.43299 49.5454L1.43901 49.6507C1.54126 49.6808 1.6375 49.768 1.73976 49.5304L1.69765 49.3469L1.7548 49.2988L1.73675 49.4462C1.7969 49.368 1.76081 49.3109 1.73976 49.2477C1.76983 49.2387 1.79089 49.2146 1.80592 49.1815L1.73074 48.9951C1.77585 48.98 1.79991 49.0823 1.83901 48.971C1.80592 48.8838 1.73675 49.0342 1.72472 48.8958C1.78487 48.8206 1.81795 48.8507 1.79389 48.7454C1.82397 48.7364 1.836 48.7605 1.84201 48.7996C1.82096 48.7063 1.86607 48.568 1.81795 48.5139C1.89013 48.4357 1.85404 48.2161 1.95028 48.2432C1.93224 48.2131 1.90216 48.0778 1.91419 47.9966C2.00442 48.165 1.97735 47.6988 2.09765 47.762C2.01044 47.6327 2.13374 47.365 2.1157 47.1635C2.12171 47.1755 2.13374 47.1996 2.12472 47.2146C2.1578 47.1093 2.19389 47.0853 2.22998 47.0221C2.14878 46.989 2.16683 46.8176 2.13675 46.7154C2.25104 46.6041 2.21795 46.8176 2.30818 46.7966C2.236 46.7875 2.29314 46.553 2.22397 46.583C2.29916 46.4958 2.26908 46.5048 2.35329 46.4718C2.25104 46.4266 2.35329 46.3755 2.31419 46.2763C2.40743 46.1469 2.42547 46.2672 2.4345 46.1018C2.48863 46.0357 2.48863 46.186 2.48863 46.186H2.49164ZM3.68262 42.5289C3.66758 42.559 3.65555 42.583 3.64653 42.6011C3.65254 42.586 3.66457 42.565 3.68262 42.5289ZM3.83901 42.2462C3.81795 42.2793 3.79389 42.3214 3.76683 42.3665C3.74277 42.3665 3.72773 42.3454 3.74577 42.3154C3.74878 42.3394 3.7969 42.2763 3.83901 42.2432V42.2462ZM3.12322 42.6522C3.13826 42.6011 3.1563 42.589 3.17134 42.589C3.16232 42.6131 3.15329 42.6402 3.13826 42.6763V42.6853C3.13826 42.6853 3.12623 42.6642 3.12322 42.6522Z" fill="#1B1B1B"/>
<path d="M6.77657 38.8671L6.76362 38.8574L6.75391 38.8898L6.77657 38.8671Z" fill="#1B1B1B"/>
<path d="M20.3477 37.5186C20.3477 37.5186 20.3477 37.5249 20.3477 37.5281C20.3604 37.5568 20.354 37.5409 20.3477 37.5186Z" fill="#1B1B1B"/>
<path d="M22.3414 38.3189C22.3083 38.3128 22.2782 38.3098 22.248 38.3008C22.2902 38.3309 22.3233 38.349 22.3414 38.3189Z" fill="#1B1B1B"/>
<path d="M22.1338 38.2344C22.1729 38.2705 22.2091 38.2886 22.2482 38.3006C22.2151 38.2765 22.176 38.2464 22.1338 38.2344Z" fill="#1B1B1B"/>
<path d="M24.2451 39.2539L24.2908 39.2143C24.2147 39.1687 24.2756 39.2326 24.2451 39.2539Z" fill="#1B1B1B"/>
<path d="M23.3613 39.002L23.4095 39.0772L23.4728 39.0532L23.3613 39.002Z" fill="#1B1B1B"/>
<path d="M23.1444 38.3812L23.1806 38.3933L23.0479 38.3359L23.1444 38.3812Z" fill="#1B1B1B"/>
<path d="M17.084 38.983L17.1081 39.0552C17.1653 39.0432 17.1743 38.9619 17.084 38.983Z" fill="#1B1B1B"/>
<path d="M13.9002 38.5412C13.8791 38.4959 13.8007 38.4446 13.7373 38.4597C13.8037 38.4869 13.861 38.5382 13.9002 38.5412Z" fill="#1B1B1B"/>
<path d="M6.97584 37.8435L7.00897 37.7803L6.93066 37.8827L6.97584 37.8435Z" fill="#1B1B1B"/>
<path d="M21.4661 26.2136C21.5473 26.8091 22.0074 27.5429 22.3052 27.9219C23.1262 28.9655 25.436 31.8106 29.2736 29.0707C31.3789 27.567 30.1758 25.7625 27.7698 26.6647C25.9352 27.3534 25.3819 25.988 24.0285 24.9565C22.6811 23.9309 21.2586 24.6647 21.4691 26.2136H21.4661Z" fill="white"/>
<path d="M22.7687 24.7784C23.1145 24.7784 23.4875 24.9227 23.8424 25.1904C24.1702 25.44 24.4499 25.7107 24.7206 25.9724C25.3431 26.5769 25.9326 27.1453 26.8529 27.1453C27.1687 27.1453 27.5025 27.0791 27.8724 26.9408C28.2664 26.7934 28.6363 26.7182 28.9702 26.7182C29.5206 26.7182 29.9145 26.9227 30.0258 27.2656C30.1371 27.6175 29.9536 28.2099 29.0965 28.8205C28.0739 29.5513 27.0845 29.9212 26.1612 29.9212C24.2664 29.9212 23.0574 28.3844 22.5401 27.7287C22.2123 27.3107 21.8273 26.643 21.7642 26.1678C21.704 25.7318 21.7942 25.3528 22.0138 25.1002C22.1972 24.8896 22.4649 24.7754 22.7687 24.7754M22.7687 24.4746C21.9356 24.4746 21.3191 25.1513 21.4634 26.2069C21.5446 26.8024 22.0048 27.5363 22.3025 27.9152C22.8709 28.637 24.1521 30.222 26.1582 30.222C27.0514 30.222 28.089 29.9092 29.2679 29.0641C30.9822 27.84 30.504 26.4175 28.9672 26.4175C28.6153 26.4175 28.2123 26.4927 27.7642 26.6581C27.4183 26.7874 27.1175 26.8445 26.8499 26.8445C25.692 26.8445 25.1206 25.7859 24.0228 24.9498C23.5927 24.622 23.1566 24.4746 22.7657 24.4746H22.7687Z" fill="black"/>
<path d="M24.1832 25.2242L22.4277 27.9141L22.6796 28.0784L24.4351 25.3886L24.1832 25.2242Z" fill="black"/>
<path d="M25.6778 26.4468L24.1738 29.4541L24.4428 29.5886L25.9468 26.5813L25.6778 26.4468Z" fill="black"/>
<path d="M27.7762 26.7577L26.5732 30.0645L26.8559 30.1673L28.0588 26.8605L27.7762 26.7577Z" fill="black"/>
<path d="M24.6095 18.8412C24.5613 18.8412 24.5132 18.8172 24.4832 18.7751C24.4741 18.76 23.5358 17.3766 22.5132 17.3224C22.1072 17.2984 21.7463 17.4909 21.4155 17.8878C21.3613 17.951 21.2681 17.96 21.205 17.9059C21.1418 17.8518 21.1328 17.7585 21.1869 17.6954C21.5809 17.2232 22.041 16.9946 22.5313 17.0217C23.7072 17.0848 24.6937 18.5465 24.7358 18.6097C24.7809 18.6788 24.7629 18.7721 24.6937 18.8172C24.6696 18.8352 24.6395 18.8412 24.6095 18.8412Z" fill="black"/>
<path d="M29.7223 18.8413C29.6952 18.8413 29.6712 18.8352 29.6471 18.8202C29.5749 18.7781 29.5509 18.6849 29.593 18.6157C29.605 18.5976 30.6667 16.8563 33.1028 18.1796C33.1749 18.2187 33.202 18.3119 33.1629 18.3841C33.1238 18.4563 33.0306 18.4834 32.9584 18.4443C30.784 17.2623 29.8877 18.7059 29.8516 18.7691C29.8246 18.8172 29.7734 18.8413 29.7223 18.8413Z" fill="black"/>
<path d="M31.3762 14.0301C31.8604 14.9985 30.7747 16.4361 30.7747 16.4361C30.7747 16.4361 34.083 16.7369 34.083 14.6316C34.083 13.2873 32.5792 11.6241 32.5792 11.6241C34.083 12.2256 35.8875 16.1775 35.8875 16.1775C35.8875 16.1775 35.286 12.2256 32.5792 9.51885C32.5792 9.51885 29.8724 5.90983 25.0604 5.00757C23.3401 4.55343 22.1221 4.52637 22.1221 4.52637C19.7401 4.66772 17.8454 5.19404 16.3356 5.91283C14.7326 6.53539 9.27395 9.32336 6.78673 19.1429C3.8544 30.7219 6.56117 30.1203 3.8544 32.2256C1.14763 34.3309 -0.95763 40.0452 4.75666 40.9474C4.75666 40.9474 7.6138 35.3835 13.4785 35.8346C13.4785 35.8346 14.3326 32.0662 14.9582 31.5459C15.3702 31.2031 12.7897 29.3444 11.2258 25.6151C12.3506 23.5429 14.3807 23.5068 15.283 19.8978C15.9055 17.4106 17.9055 12.1023 20.2454 11.9279C21.4935 11.8346 17.2379 16.1384 17.2379 16.1384C17.2379 16.1384 20.907 17.6181 23.5536 15.2361C24.3416 14.5264 25.0574 13.4316 24.907 11.4767L25.2529 12.397C25.6018 13.3234 25.4544 14.364 24.8649 15.1579L24.104 16.1835C24.104 16.1835 26.4228 16.9955 28.9702 15.8407C32.2785 14.3369 27.4664 10.4271 27.4664 10.4271C27.4664 10.4271 30.4739 12.2316 31.3762 14.0361V14.0301Z" fill="black"/>
<path d="M31.464 32.3076C26.264 36.8881 20.1677 34.9542 20.1677 34.9542L19.3467 37.1888C24.7602 38.9933 26.4143 42.1633 26.4143 42.1633C33.482 43.5287 30.1737 38.6926 30.0234 38.0099C29.873 37.3272 29.2715 36.5903 30.0234 35.3663C30.7753 34.1422 31.464 32.3076 31.464 32.3076Z" fill="black"/>
</g>
</g>
<defs>
<filter id="filter0_d_6346_22113" x="0" y="0.0976562" width="42" height="42" filterUnits="userSpaceOnUse" color-interpolation-filters="sRGB">
<feFlood flood-opacity="0" result="BackgroundImageFix"/>
<feColorMatrix in="SourceAlpha" type="matrix" values="0 0 0 0 0 0 0 0 0 0 0 0 0 0 0 0 0 0 127 0" result="hardAlpha"/>
<feOffset/>
<feGaussianBlur stdDeviation="0.5"/>
<feComposite in2="hardAlpha" operator="out"/>
<feColorMatrix type="matrix" values="0 0 0 0 0.231373 0 0 0 0 0.152941 0 0 0 0 1 0 0 0 0.35 0"/>
<feBlend mode="normal" in2="BackgroundImageFix" result="effect1_dropShadow_6346_22113"/>
<feBlend mode="normal" in="SourceGraphic" in2="effect1_dropShadow_6346_22113" result="shape"/>
</filter>
<clipPath id="clip0_6346_22113">
<rect width="40" height="40" fill="white" transform="translate(1 1.09766)"/>
</clipPath>
</defs>
</svg>
