<svg width="40" height="40" viewBox="0 0 40 40" fill="none" xmlns="http://www.w3.org/2000/svg">
<circle cx="20" cy="20" r="20" fill="white"/>
<g clip-path="url(#clip0_438_111)">
<mask id="mask0_438_111" style="mask-type:luminance" maskUnits="userSpaceOnUse" x="0" y="0" width="40" height="40">
<path d="M20 40C31.0457 40 40 31.0457 40 20C40 8.9543 31.0457 0 20 0C8.9543 0 0 8.9543 0 20C0 31.0457 8.9543 40 20 40Z" fill="white"/>
</mask>
<g mask="url(#mask0_438_111)">
<path d="M27.8198 44.9623C27.8198 44.9623 26.0153 41.654 23.9101 39.248C21.6965 36.7187 18.4965 35.9397 18.4965 35.9397L19.1612 33.6751C20.7943 34.2074 22.5296 34.3849 24.292 34.1382C31.4048 33.1397 36.2289 25.5969 35.0619 17.2901C33.898 8.98335 27.1852 3.05854 20.0695 4.05704C12.9537 5.05553 8.13261 12.5984 9.29953 20.9052C9.83788 24.7428 11.5612 28.0751 13.9612 30.448C13.9612 30.448 12.7822 32.9322 12.4815 34.7367C12.4815 34.7367 7.3687 33.8345 3.75968 39.8495C2.11457 42.5924 1.65442 45.263 1.65442 45.263" fill="#FFF7EB"/>
<path d="M12.9992 33.2637L12.954 33.3631C12.969 33.336 12.9841 33.3028 12.9992 33.2637Z" fill="#1B1B1B"/>
<path d="M10.2441 24.0542C10.2712 24.1295 10.2923 24.1566 10.3014 24.1566C10.2712 24.0904 10.2472 24.0332 10.2441 24.0542Z" fill="#1B1B1B"/>
<path d="M9.87097 22.3271C9.877 22.3633 9.88302 22.3964 9.88904 22.4295C9.88904 22.3904 9.88302 22.3482 9.87097 22.3271Z" fill="#1B1B1B"/>
<path d="M12.999 33.264L13.1136 33.0077C13.0895 32.9775 13.0473 33.1343 12.999 33.264Z" fill="#1B1B1B"/>
<path d="M9.52842 35.2511L9.44997 35.2782C9.43187 35.2963 9.41377 35.3174 9.39868 35.3386L9.52842 35.248V35.2511Z" fill="#1B1B1B"/>
<path d="M6.52723 36.9232C6.59059 36.8749 6.5574 36.7905 6.5574 36.7422C6.54533 36.7995 6.51214 36.8508 6.46387 36.8991C6.47292 36.9111 6.49404 36.9202 6.53024 36.9232H6.52723Z" fill="#1B1B1B"/>
<path d="M11.9581 34.9324C11.9581 34.9324 11.9776 34.9583 11.9905 34.9648C11.9905 34.9518 11.9776 34.9421 11.9581 34.9324Z" fill="#1B1B1B"/>
<path d="M9.55469 19.1338C9.55469 19.1338 9.55469 19.1429 9.55469 19.149C9.56686 19.2342 9.56382 19.1855 9.55469 19.1338Z" fill="#1B1B1B"/>
<path d="M28.8994 6.89992C28.6792 6.63757 29.3939 7.15323 29.0441 6.78232C29.0592 6.83659 28.5978 6.61043 28.8994 6.89992Z" fill="#1B1B1B"/>
<path d="M29.0437 6.78233L29.0049 6.74023C29.0211 6.75642 29.0308 6.76614 29.0437 6.78233Z" fill="#1B1B1B"/>
<path d="M10.8211 11.9365C10.8 11.9456 10.7789 11.9666 10.7578 11.9907C10.7668 11.9907 10.7819 11.9817 10.8211 11.9365Z" fill="#1B1B1B"/>
<path d="M9.41113 17.2451L9.42924 17.1094C9.41717 17.1637 9.41415 17.2059 9.41113 17.2451Z" fill="#1B1B1B"/>
<path d="M12.1113 9.38354C12.1566 9.32622 12.1837 9.31113 12.235 9.22363C12.226 9.22967 12.2169 9.2357 12.2079 9.24174C12.1958 9.27794 12.1687 9.32018 12.1113 9.38354Z" fill="#1B1B1B"/>
<path d="M14.0813 7.15137C14.0663 7.15739 14.0452 7.16643 14.0301 7.17546C14.009 7.19654 13.9849 7.22064 13.9639 7.24172L14.0843 7.15137H14.0813Z" fill="#1B1B1B"/>
<path d="M18.9423 35.7021C18.9273 35.7323 18.9182 35.7533 18.9092 35.7684C18.9604 35.7232 19.0869 35.7353 18.9423 35.7021Z" fill="#1B1B1B"/>
<path d="M11.6367 8.89879L11.9435 8.50781C11.8533 8.61308 11.742 8.75744 11.6367 8.89879Z" fill="#1B1B1B"/>
<path d="M34.6892 25.2412L34.6621 25.3526C34.6772 25.3105 34.6892 25.2713 34.6892 25.2412Z" fill="#1B1B1B"/>
<path d="M12.8935 7.37435C12.9749 7.32911 13.0564 7.27785 13.1317 7.21452C13.1408 7.19643 13.1559 7.17532 13.1559 7.15723C13.0684 7.2296 12.978 7.29896 12.8905 7.37133L12.8935 7.37435Z" fill="#1B1B1B"/>
<path d="M21.7933 36.8719C21.3843 36.6223 21.5467 36.8509 21.4264 36.8539C20.9181 36.6073 21.2369 36.6554 21.0956 36.514C20.7677 36.3727 20.479 36.3486 20.2414 36.2373C20.2324 36.2133 20.1873 36.1862 20.2505 36.1892C20.064 36.1531 19.8083 36.0448 19.5407 35.9486C19.4083 35.8975 19.27 35.8554 19.1407 35.8193C19.1076 35.8103 19.0745 35.8042 19.0444 35.7952C19.0294 35.7952 19.0174 35.7952 19.0023 35.7952C18.9753 35.7952 18.9422 35.7952 18.9061 35.8012C18.9001 35.7892 18.9031 35.7802 18.9061 35.7742C18.882 35.8253 18.855 35.8734 18.8099 35.9035C18.7557 35.8885 18.6956 35.8794 18.6354 35.8734C18.6234 35.8133 18.6474 35.7321 18.7046 35.69C18.6745 35.7802 18.7046 35.7772 18.7256 35.7982V35.6719C18.858 35.5606 18.7497 35.7682 18.7948 35.7862C18.8099 35.7862 18.8249 35.7802 18.8369 35.7712H18.8219C18.8129 35.7351 18.8219 35.6839 18.8219 35.6298L18.8279 35.5426C18.8369 35.4915 18.8459 35.4403 18.855 35.3892C18.8941 35.1817 18.9362 34.9862 18.9963 34.8388C19.1136 34.8027 18.8159 35.5727 19.0264 35.1847L18.9362 35.4193L18.8911 35.5366C18.879 35.5697 18.873 35.5757 18.864 35.5997C18.9151 35.5636 18.9392 35.5606 18.9482 35.5606C18.9542 35.5787 18.9482 35.5787 18.9482 35.5937C18.9392 35.6238 18.9362 35.6298 19.0324 35.6027L19.0384 35.5967L19.0565 35.5456C19.0685 35.5095 19.0775 35.4764 19.0865 35.4464C19.1046 35.3832 19.1196 35.326 19.1377 35.2719C19.1647 35.1667 19.1858 35.0764 19.2038 34.9862C19.2429 34.8058 19.282 34.6253 19.3903 34.3155C19.3843 34.2343 19.3602 34.2464 19.3362 34.2494C19.3091 34.2614 19.2941 34.2433 19.276 34.2042C19.279 34.1471 19.2911 34.09 19.3031 34.0479C19.3091 34.0268 19.3151 34.0088 19.3211 33.9937C19.3211 33.9697 19.3512 33.9997 19.3662 34.0027C19.4324 34.0418 19.4745 34.087 19.4956 34.123C19.5076 34.1411 19.5136 34.1591 19.5196 34.1742C19.5347 34.1922 19.5858 34.2163 19.6249 34.2343C19.7121 34.2734 19.8324 34.2975 20.0099 34.3065C20.2053 34.2794 20.2986 34.1742 20.7738 34.3306L20.5843 34.4148C21.2309 34.5351 20.9753 34.3185 21.6459 34.4749C21.5196 34.508 21.1317 34.4569 21.2279 34.4809C21.658 34.6223 21.5467 34.4539 21.8865 34.4809L21.9497 34.5892C22.6505 34.6193 23.4204 34.5321 24.1753 34.4118C24.1362 34.4479 24.0099 34.496 24.1933 34.505C24.4339 34.4599 24.6805 34.4148 24.9332 34.3667C25.1828 34.3155 25.4354 34.2614 25.6911 34.2103C26.1933 34.087 26.6895 33.9576 27.1407 33.8042L27.4384 33.5817C27.5166 33.5486 27.5978 33.5576 27.5226 33.6088C27.8715 33.4854 27.5166 33.5516 27.661 33.4433C27.8444 33.3471 27.9286 33.3682 27.8234 33.4494C28.1001 33.2779 28.485 33.0223 28.867 32.7636C29.2489 32.505 29.6279 32.2343 29.9256 32.0659C29.8956 32.099 29.8685 32.1351 29.8384 32.1682C30.2745 31.8644 30.1963 31.6629 30.6083 31.3982L30.5482 31.4734C30.9933 31.1155 31.3963 30.6674 31.7783 30.2464C32.1452 29.8133 32.479 29.4012 32.7798 29.0794C32.7708 28.9742 32.9482 28.7516 33.0956 28.5261C33.2429 28.2975 33.3783 28.0779 33.3211 28.0027C33.7061 27.4734 33.661 27.6599 34.1151 26.8569C34.2234 26.6343 34.1602 26.4749 34.2625 26.1922L34.3497 26.2193C34.3738 26.0809 34.3888 25.9396 34.4068 25.8012L34.5873 25.6358C34.6144 25.5456 34.6414 25.4524 34.6595 25.3591C34.6204 25.4644 34.5392 25.5727 34.5211 25.5456C34.6324 25.1155 34.9181 24.5411 34.9632 24.5381C35.0384 24.1952 35.0956 23.8464 35.1467 23.5005C35.1768 23.5306 35.1497 23.705 35.1407 23.8464C35.1738 23.2779 35.264 23.7682 35.288 23.2448C35.255 23.308 35.2399 23.1967 35.2249 23.1817C35.276 23.0614 35.3302 22.8569 35.3753 22.6313C35.4114 22.4027 35.4444 22.1501 35.4625 21.9336L35.5136 22.0238C35.6279 21.2479 35.6369 20.3787 35.6279 19.5035C35.6008 19.8193 35.4926 19.7441 35.4775 19.4915L35.5738 19.3862C35.5076 19.2238 35.5437 19.6539 35.4595 19.317C35.4595 18.9922 35.5647 19.0945 35.6008 19.2809L35.5557 18.8839C35.5828 18.8599 35.6038 18.9501 35.6399 18.9742C35.5798 18.8148 35.6911 18.2794 35.5708 18.0539L35.5978 18.0298C35.4986 17.1576 35.4083 16.7667 35.261 16.0689C35.1738 16.0719 35.1407 15.7952 35.0234 15.6057C34.9271 15.0945 34.8399 14.514 34.6264 13.9215C34.4399 13.5185 34.5151 13.8223 34.4038 13.6539C34.473 13.5937 34.2324 13.0133 34.4038 13.296C34.2595 12.9471 34.1692 12.7215 34.0459 12.4839C33.9858 12.3636 33.9226 12.2403 33.8474 12.093C33.7632 11.9486 33.667 11.7832 33.5467 11.5757C33.5647 11.6839 33.6038 11.7922 33.5557 11.7501C33.4685 11.6027 33.4083 11.3862 33.4505 11.3892L33.4805 11.4253C33.1738 10.9832 32.9151 10.4208 32.6204 9.90349C32.479 9.64184 32.3286 9.39222 32.1692 9.17267C32.0159 8.95011 31.8474 8.76364 31.682 8.62229L31.7181 8.65537C31.5136 8.43883 31.2911 8.24334 31.0715 8.04184C30.8068 7.72906 31.279 8.18319 31.1106 7.92755C30.3587 7.32004 30.0399 6.84786 29.3692 6.41477C29.1978 6.13507 28.7557 5.80725 28.2625 5.51552C27.7723 5.21778 27.2309 4.95613 26.885 4.71552L26.9061 4.7847C26.6895 4.73958 26.6865 4.64034 26.5452 4.56816C26.5512 4.61327 26.7377 4.7065 26.6053 4.67643C25.7662 4.33056 24.879 4.01778 23.9587 3.79823C23.0384 3.57868 22.079 3.45537 21.1317 3.47342C20.4399 3.49748 20.7647 3.76515 19.8986 3.74109C19.9738 3.69297 20.0489 3.64786 20.1271 3.60876C19.4474 3.76214 18.7587 3.9065 18.088 4.12004C17.4204 4.33658 16.7677 4.60425 16.1933 4.96214C16.2535 4.905 16.2444 4.87793 16.3617 4.82079C16.067 4.87793 15.4324 5.32906 15.4655 5.3862C15.285 5.49447 15.3963 5.36816 15.27 5.41327C14.9993 5.52755 14.7286 5.89447 14.5632 5.92455C14.5362 5.93056 14.6144 5.85838 14.6535 5.82229C14.5151 5.95161 13.9617 6.35161 14.1542 6.30349C13.7362 6.59222 13.4505 6.96515 13.1347 7.21477C13.0083 7.45838 12.5151 7.81928 12.5542 7.96364C12.473 7.84334 11.9046 8.57417 11.7783 8.87492C11.8083 8.76364 11.5798 9.07342 11.6068 8.93808C11.4053 9.24184 11.2399 9.53357 11.3332 9.51853C10.8369 10.0027 10.7647 10.7366 10.4219 10.9802C10.0099 11.9817 9.71511 12.9351 9.48955 13.8674C9.4294 13.8343 9.49256 13.5727 9.56775 13.3261C9.64293 13.0794 9.71812 12.8418 9.64293 12.8388C9.39932 13.7321 9.38729 14.2704 9.17376 15.1486C9.1106 15.3772 9.14068 15.0073 9.13166 14.923C8.99932 15.8283 8.83692 16.6734 8.86699 17.4885C8.85496 17.4885 8.84594 17.3982 8.83993 17.314C8.83692 17.4734 8.79782 17.687 8.86098 17.6689L8.85196 17.5125C8.90308 17.3862 8.94218 17.5486 8.97226 17.7441C9.00534 17.9396 9.04143 18.1651 9.06549 18.1802C8.89105 17.9065 9.01436 18.9742 8.79181 18.5471C8.80384 18.6524 8.83993 18.7847 8.87902 18.7606C8.87301 18.917 8.84895 18.9682 8.79782 18.8088C8.85196 19.3802 8.90008 19.1757 8.93617 19.69C8.90609 19.69 8.88805 19.5877 8.84895 19.5366C8.93015 19.7952 8.99331 20.0539 9.02639 20.49C9.00534 20.4659 8.98729 20.52 8.97226 20.3907C9.05947 21.1396 9.30008 21.6328 9.41737 22.4448C9.23391 22.2373 9.44143 22.7245 9.34218 22.7967C9.3903 22.9381 9.43241 23.0794 9.48654 23.2178L9.49256 23.0313C9.59782 23.4042 9.76323 23.714 9.83842 24.0388L9.70308 23.7802L9.95271 24.4629C9.91963 24.3306 9.89256 24.1952 9.86248 24.0599C10.0429 24.4118 9.97978 23.9757 10.1211 24.4689C10.073 24.3757 10.2535 24.8298 10.2655 25.0403C10.3738 25.2027 10.485 25.3682 10.5692 25.6388C10.5692 25.72 10.4309 25.6358 10.4309 25.69C10.5933 25.8223 10.8399 26.502 11.0474 26.6614C10.9903 26.6012 10.9362 26.6253 10.9362 26.6554L11.0775 26.7606C11.1377 26.9321 11.1437 26.9591 11.0865 26.9561C11.3422 27.4313 11.1256 26.7396 11.3903 27.323C11.3602 27.2839 11.3632 27.308 11.3001 27.2238C11.5918 27.7982 11.9918 28.2524 12.3106 28.7486C12.3226 28.9591 11.9828 28.3486 12.0249 28.5651C12.2835 28.908 12.5813 29.2388 12.882 29.5576C13.0354 29.714 13.1888 29.8704 13.3392 30.0238C13.4114 30.102 13.4896 30.1742 13.5647 30.2524L13.658 30.3486L13.7271 30.4268L13.667 30.3456C13.7332 30.3306 13.8023 30.3907 13.8505 30.4659C13.7993 30.5501 13.7392 30.6223 13.679 30.7155C13.6099 30.8298 13.5467 30.9561 13.5166 31.0854C13.5467 30.9862 13.4896 30.9291 13.4926 30.9591C13.2489 31.4674 13.0805 32.0358 12.852 32.8569V32.7426C12.7046 33.0433 12.5542 33.5667 12.4489 33.9155C12.461 34.0298 12.4099 34.2283 12.4941 34.12C12.458 34.2042 12.4219 34.2854 12.3858 34.3636C12.3587 34.4208 12.3497 34.4839 12.3226 34.523C12.2535 34.508 12.1933 34.499 12.1302 34.499H12.0038H11.8414C11.6249 34.502 11.4174 34.5351 11.2099 34.5591C11.0053 34.5922 10.8008 34.6223 10.5993 34.6494C10.4008 34.6854 10.1963 34.6975 9.99181 34.7065C10.1061 34.6734 10.2625 34.6163 10.1692 34.6313C9.89557 34.7005 9.62489 34.7907 9.35722 34.8809C9.44143 34.923 9.47451 34.887 9.66098 34.896C9.61587 34.9291 9.53767 34.9682 9.44744 35.0073C9.36023 35.0524 9.25797 35.0975 9.16173 35.1306C9.49857 34.9621 9.12564 35.0253 8.95421 35.0433C8.98729 35.0554 8.94218 35.0945 8.96323 35.1095C8.50609 35.1426 8.94519 35.2599 8.36775 35.4193L8.37978 35.3742C8.28053 35.4283 8.1903 35.4885 8.09707 35.5456C8.00684 35.6088 7.91662 35.6719 7.80835 35.7261C7.68203 35.705 7.99481 35.5757 7.97978 35.5095C7.83241 35.5967 7.70609 35.711 7.57978 35.8163C7.45045 35.9185 7.32414 36.0118 7.17978 36.0689C7.28203 35.9636 7.45948 35.8584 7.57376 35.7712C7.2309 35.8524 7.21587 35.9035 7.00233 36.0328L7.02338 36.0208L6.52414 36.3185L6.65947 36.2554C6.54218 36.4539 6.39782 36.6163 6.21436 36.7636C6.03993 36.917 5.8294 37.0644 5.68805 37.3261C5.98278 36.8358 5.70008 37.2057 5.66399 37.1095C5.54369 37.1967 5.36925 37.3381 5.39331 37.2749C5.32414 37.3982 5.23692 37.4704 5.13767 37.5546C5.04143 37.6388 4.93617 37.7351 4.86098 37.9245C4.8279 37.9185 4.67752 38.1501 4.65948 38.0539C4.45496 38.3456 4.75271 38.0208 4.76173 38.0689C4.63541 38.3155 4.39782 38.5321 4.18128 38.8088C3.96775 39.0854 3.73917 39.3922 3.58278 39.7531C3.29707 40.3636 3.32414 40.517 3.09256 41.0915C2.96023 41.2569 3.07151 40.89 3.07151 40.89C2.88203 41.1727 2.77978 41.4073 2.68354 41.711C2.68354 41.6418 2.63842 41.693 2.56925 41.7682C2.47602 42.0088 2.60233 41.9667 2.43391 42.2614C2.42489 42.1952 2.40684 42.108 2.42188 41.9817C2.32865 42.2704 2.27451 42.5682 2.19331 42.8719C2.11812 42.9321 2.18128 42.6674 2.19331 42.5531C2.08805 42.89 1.93466 43.4283 1.97978 43.5546L2.07602 43.3501C2.03993 43.4734 1.9888 43.3922 2.00384 43.296C2.03692 42.9892 2.17226 42.896 2.20534 42.89L2.1482 43.1035C2.38278 42.9471 2.42489 42.2614 2.61136 41.8524L2.65647 42.0719C2.68053 41.9185 2.7106 41.7651 2.74068 41.6118C2.80985 41.5366 2.90008 41.5065 2.8279 41.711C3.01436 41.4494 2.90008 41.4343 3.08053 41.2208C3.10459 41.1997 3.10158 41.2148 3.09557 41.2418L3.19782 40.9471C3.19481 41.0133 3.30008 40.9411 3.19782 41.1035C3.5076 40.6403 3.52865 40.2674 3.71812 40.1321L3.70308 40.1772C3.87451 39.8313 3.87151 39.8103 3.84143 39.7982C3.81136 39.7862 3.76023 39.7922 3.87752 39.5185L4.28053 39.317L4.24745 39.2027C4.29256 39.1396 4.38579 39.0103 4.40083 39.0554C4.51211 38.7727 4.34068 39.0734 4.38579 38.896C4.67451 38.6343 5.01136 38.0418 5.17376 38.0659C5.20684 37.9125 4.90308 38.3155 5.12263 37.9667C5.3091 37.9787 5.4294 37.6057 5.72113 37.4012C5.70308 37.5366 5.44444 37.7411 5.73917 37.5426C5.76323 37.4223 5.88354 37.299 6.0309 37.1937C6.18128 37.0945 6.3497 36.9982 6.44895 36.893C6.41887 36.8479 6.53316 36.7336 6.69857 36.5922C6.87602 36.4659 7.1076 36.3125 7.30008 36.1561C7.30008 36.1682 7.3482 36.1441 7.42639 36.099C7.5106 36.0599 7.6279 35.9997 7.75722 35.9366C7.88654 35.8704 8.0309 35.8012 8.16624 35.7321C8.3076 35.6779 8.44293 35.6268 8.5512 35.5877L8.54519 35.6088C8.56323 35.5396 8.68053 35.4614 8.8309 35.3802C8.9903 35.317 9.17978 35.2418 9.33917 35.1757C9.3482 35.2418 9.29707 35.287 9.13466 35.3772L9.43542 35.2719C9.49557 35.2088 9.58579 35.1697 9.78429 35.1035L9.72714 35.2027C9.93166 35.1486 10.1271 35.0614 10.3527 35.0133C10.464 34.9862 10.5783 34.9561 10.7016 34.9351C10.8249 34.92 10.9542 34.911 11.0895 34.908C11.1166 34.8298 10.6264 34.7426 11.2129 34.6283C11.2369 34.6704 11.264 34.7336 11.1136 34.7667C11.1617 34.7516 11.2911 34.7185 11.3933 34.7336L11.1647 34.8148C11.4174 34.8298 11.2911 34.7486 11.4926 34.7456C11.4926 34.8057 11.6429 34.7817 11.6159 34.8298C11.5647 34.8388 11.4414 34.8148 11.3662 34.8418C11.5918 34.8358 11.8625 34.8779 11.9467 34.923C11.9377 34.905 11.9377 34.887 11.9617 34.8689C11.9888 34.8539 12.0219 34.8418 12.1362 34.8448C12.6444 34.893 12.4339 34.9351 12.6595 34.9982C12.6745 34.9952 12.6775 34.9591 12.6896 34.923C12.6835 34.7366 12.8008 34.3456 12.7166 34.3306C12.7467 34.2103 12.7918 34.1952 12.8249 34.1561C12.8339 33.9336 13.0956 33.1606 12.9332 33.3712L12.9121 33.4253C12.9121 33.4253 12.9151 33.4012 12.9181 33.3892C13.0505 32.6614 13.4625 31.9697 13.7121 31.287L13.7392 31.299C13.7843 31.1667 13.8384 31.0283 13.8926 30.89C13.9587 30.7276 14.0279 30.5651 14.088 30.4178C13.9467 30.2794 13.8023 30.1531 13.7151 30.096C13.6249 30.0027 13.5467 29.8403 13.6099 29.8554C13.3783 29.6208 13.3151 29.6238 13.0505 29.2238C13.3001 29.4464 13.0114 29.1095 13.2971 29.4584C13.0414 29.1125 13.0144 29.0163 12.6715 28.6975C12.8279 28.7757 12.5512 28.3877 12.4189 28.2313C12.458 28.3245 12.5031 28.4148 12.5512 28.505C12.4008 28.3306 12.3016 28.1561 12.1903 27.9877L12.3347 28.0208C11.9497 27.2418 11.3211 26.7907 11.2008 26.102C11.0324 25.9276 11.3753 26.5441 11.2068 26.3997C11.0264 26.0388 10.9933 25.5907 10.9362 25.4794C10.7768 24.9531 10.5933 25.0674 10.4279 24.511C10.4219 24.5922 10.3557 24.6915 10.1723 24.2975C10.058 23.9065 10.1572 23.7772 10.2655 24.0088C10.2986 24.099 10.3016 24.1471 10.2895 24.1471C10.3407 24.2674 10.4189 24.4208 10.3978 24.2584L10.3467 24.2223C10.3196 24.0208 10.1422 23.4975 10.2384 23.6027C10.1211 23.323 10.1422 23.4975 10.1933 23.717C10.0911 23.2088 9.96173 22.9441 9.87451 22.4208C9.87451 22.508 9.85346 22.5922 9.83241 22.511C9.70008 21.7411 9.69406 22.1892 9.56775 21.6749C9.56775 21.3682 9.7091 21.7591 9.57978 21.2418C9.56474 20.917 9.66098 21.1606 9.71211 21.2809C9.55872 20.8178 9.63692 20.3847 9.61286 20.111L9.67 20.3576C9.63692 20.2103 9.61887 20.087 9.61286 19.9606L9.55271 20.111C9.55271 19.9606 9.54369 19.8373 9.57376 19.8373C9.51662 19.687 9.46549 19.9636 9.37827 19.6629C9.39331 19.4614 9.30308 19.0554 9.39932 18.9832C9.38729 19.6118 9.48654 18.911 9.52865 19.4373C9.5076 19.3381 9.50759 19.2118 9.51361 19.0614C9.52263 19.0373 9.53466 19.0824 9.54068 19.1215C9.61286 18.5261 9.41135 18.8509 9.42338 18.2313C9.47451 18.3095 9.52564 18.09 9.51662 17.9877C9.51361 18.2373 9.42639 18.105 9.38729 17.8734C9.44744 17.4764 9.37827 17.4403 9.39632 17.2298L9.36323 17.4674C9.31812 17.3832 9.32414 17.1817 9.33917 16.905C9.38429 16.8839 9.34218 17.1606 9.36925 17.0614C9.3091 16.7426 9.52865 16.3757 9.53466 15.9426C9.59782 15.7501 9.63692 15.9396 9.68504 15.7682C9.70008 15.2839 9.84143 15.2689 9.89557 14.7667C9.79331 14.893 9.80233 14.923 9.81737 14.5591C9.76624 14.8328 9.72714 15.1065 9.69707 15.3832C9.69707 15.2027 9.69105 15.0193 9.69707 14.8388C9.63993 15.0854 9.63993 15.3712 9.59782 15.5155C9.5888 15.2539 9.59782 15.2839 9.51963 15.3922C9.68504 15.0704 9.59181 14.7035 9.75722 14.3306L9.92564 14.3847C10.1512 13.8313 10.1121 13.3351 10.4279 12.6223L10.3106 12.8448C10.2835 12.7245 10.467 12.3907 10.5392 12.1501C10.5843 12.1952 10.6655 12.0569 10.7437 11.9757C10.6956 11.9667 10.9753 11.4614 10.9061 11.3471L11.1286 11.0704C11.4505 10.5351 11.3181 10.3576 11.655 9.85237C11.6159 10.0418 11.7933 9.83131 11.6219 10.1982C11.7271 10.0268 11.8294 9.87943 11.7963 9.85537C11.8926 9.78019 12.0369 9.3471 12.1933 9.22981C12.2234 9.1456 12.1903 9.08846 12.3286 8.90801C12.3527 8.89598 12.3527 8.92605 12.3527 8.92605C12.3286 8.90801 12.5332 8.61628 12.3617 8.73658C12.6294 8.55011 12.8971 8.21026 13.1858 7.89447C13.3241 7.73207 13.4715 7.5847 13.6129 7.45537C13.7512 7.32304 13.8896 7.22079 14.0159 7.16064C14.1723 7.00725 14.3437 6.83582 14.5271 6.68545C14.7046 6.52605 14.885 6.38169 15.0474 6.2674C15.0384 6.29748 15.0625 6.29146 14.9993 6.33056C15.4745 6.05387 15.1768 5.99071 15.7392 5.69898C16.061 5.60876 15.4865 5.92154 15.673 5.84635C15.7602 5.9065 15.9136 5.79522 16.1061 5.67192C16.2956 5.54259 16.5211 5.3862 16.7377 5.35011L16.6535 5.40425C16.9662 5.32004 17.3241 4.99522 17.8234 4.82981C17.8234 4.82981 17.8053 4.85387 17.8294 4.85989C18.1271 4.63733 18.7768 4.40575 19.27 4.27643C19.1317 4.38771 19.0535 4.36665 19.1647 4.42079C19.3843 4.36064 19.0715 4.30951 19.5136 4.19522C19.667 4.21026 19.9978 4.19522 20.052 4.2674L19.6339 4.34259C19.8655 4.40876 20.1753 4.24334 20.4008 4.24635L20.3768 4.29748C20.6986 4.24936 20.858 4.20725 21.0294 4.17116C21.1978 4.13207 21.3753 4.08996 21.7271 4.10199L21.655 4.0659C22.0429 3.95161 21.9768 4.12906 22.3647 4.06891L22.473 4.19522C22.7256 4.17718 23.3692 4.17417 23.8234 4.24334C23.688 4.2644 23.4865 4.25838 23.279 4.25237C23.0715 4.25237 22.855 4.25838 22.6896 4.25838C22.8129 4.27342 23.0234 4.29748 23.2189 4.31252C23.4144 4.33056 23.5978 4.35161 23.667 4.33357C23.5647 4.32755 23.4354 4.33357 23.3422 4.29748C23.5016 4.27943 23.682 4.27643 23.8865 4.29146C24.0911 4.30951 24.3136 4.35763 24.5602 4.41477C24.488 4.51101 24.7978 4.61928 25.1587 4.73658C25.3362 4.80575 25.5286 4.87793 25.6941 4.95011C25.8565 5.0253 25.9888 5.11252 26.055 5.1847C26.8971 5.45237 27.6068 5.97868 28.4459 6.55613C28.2505 6.20124 28.6956 6.72154 28.7497 6.5441C28.9482 6.68244 29.0204 6.73958 29.0294 6.76064C29.2038 6.93507 29.3572 7.12755 29.5226 7.30801C29.6189 7.45838 29.3211 7.19372 29.3121 7.23883C29.7001 7.5847 29.4294 7.43733 29.6489 7.705C29.6399 7.60876 29.8474 7.75613 30.0429 7.98169C29.9647 7.86139 29.8775 7.75011 29.7963 7.63282C30.1001 7.84334 30.1813 7.9877 30.2655 8.12605C30.3497 8.2674 30.4339 8.40274 30.7136 8.64334L30.5151 8.51101C30.8038 8.75763 31.4174 9.55763 31.7452 9.77718C31.7692 9.84334 31.7813 9.94259 31.67 9.81928C32.1873 10.5501 32.9031 11.4253 33.1286 12.105L33.0565 12.0629C33.1407 12.2073 33.27 12.2854 33.3121 12.502C33.2911 12.502 33.2429 12.4599 33.273 12.5321C33.3211 12.6073 33.5347 12.908 33.5918 13.1276C33.5527 13.0734 33.5136 13.0223 33.4715 12.9712C33.6099 13.3922 33.7692 13.69 33.9076 13.9817C34.058 14.2704 34.1963 14.5441 34.3166 14.899C34.1963 14.9321 34.3286 15.6148 34.3828 15.9576L34.3617 15.9486C34.5662 16.9501 34.7828 17.6448 34.9031 18.5952C34.882 18.7456 34.87 18.9471 34.861 19.1757C34.858 19.4073 34.858 19.6689 34.8459 19.9396C34.8459 20.2133 34.8309 20.496 34.8068 20.7697C34.7918 21.0433 34.7497 21.308 34.7076 21.5396C34.7467 21.3982 34.8068 21.5727 34.8038 21.7441C34.7497 21.9606 34.8068 22.3697 34.6926 22.3155L34.7046 22.2373C34.5692 22.3877 34.5151 22.8388 34.4459 23.1877L34.5873 23.2779C34.3708 23.711 34.2474 24.3065 34.088 24.8448C34.0159 25.1155 33.9377 25.3712 33.8505 25.5817C33.7692 25.7952 33.679 25.9636 33.5798 26.0599C33.5286 26.2824 33.4174 26.5381 33.3512 26.7546L33.279 26.7065C33.1377 26.9832 33.0204 27.1847 32.8941 27.4042C32.7768 27.6268 32.6354 27.8554 32.4429 28.1892L32.473 28.0238C32.2414 28.3847 32.3828 28.6163 32.1542 28.9531L31.9798 28.9742C31.5317 29.5907 30.9512 30.093 30.4911 30.6885C30.488 30.6674 30.476 30.6253 30.5602 30.5351C30.4369 30.6644 30.1662 30.8749 29.9557 31.0644C29.7422 31.2479 29.5798 31.4012 29.685 31.4313C29.6098 31.3531 29.0685 31.9035 28.7407 32.1621L28.7497 32.0569C28.5181 32.3336 28.5271 32.3727 28.1151 32.6343C28.0099 32.6824 27.9948 32.6253 28.1392 32.5682C27.7873 32.7185 27.9136 32.7817 27.4775 32.9501L27.6099 32.8238C27.255 32.9952 27.2941 33.0012 27.1196 33.1456C26.9061 33.2839 26.4129 33.4042 26.3347 33.3501C26.3016 33.4133 26.1151 33.5456 25.8835 33.5847C25.8444 33.5667 25.9226 33.5245 25.9587 33.5035C25.7963 33.5366 25.658 33.5757 25.5377 33.6178C25.4144 33.6539 25.3031 33.69 25.1978 33.7261C24.9903 33.8012 24.8008 33.8554 24.5692 33.8494C24.5542 33.8223 24.5241 33.8163 24.485 33.8133C25.0023 33.7411 25.4053 33.6208 25.3723 33.6448C25.3512 33.5697 24.9452 33.6509 25.2429 33.4734C24.9362 33.6118 24.3918 33.8403 23.9768 33.8524C23.9557 33.8464 23.9377 33.8433 23.9196 33.8313L23.9617 33.8163C23.8685 33.8223 23.7843 33.8343 23.7061 33.8554C23.5768 33.8554 23.4926 33.8494 23.3662 33.8554C23.3151 33.7982 22.888 33.8433 22.6805 33.8373C22.6986 33.9245 22.4219 33.9065 22.6805 33.9787C22.6474 33.9727 22.7196 33.9697 22.861 33.9636C22.8911 33.9636 22.9302 33.9606 22.9512 33.9546C22.9482 33.9546 22.9422 33.9606 22.9362 33.9636C23.0745 33.9546 23.255 33.9516 23.4565 33.9336C23.2941 33.9877 23.1196 34.0328 22.885 33.9907C22.7768 34.0448 22.6565 34.105 22.5903 34.1291C22.2986 34.0148 21.7512 33.9095 21.682 33.8283C21.0414 33.8223 20.1963 33.6328 19.7662 33.6749C19.5978 33.6479 19.5377 33.5636 19.4444 33.5095C19.5196 33.5276 19.6008 33.5456 19.676 33.5606C19.7271 33.5697 19.7723 33.5787 19.8023 33.5757C19.7542 33.5667 19.7121 33.5606 19.6459 33.5456C19.5647 33.5245 19.4775 33.5035 19.3903 33.4794C19.3031 33.4554 19.2159 33.4313 19.1286 33.4073L18.9993 33.3712C18.9993 33.3712 18.9873 33.3682 18.9843 33.3682V33.3862L18.9723 33.4193L18.9542 33.4854C18.864 33.8373 18.8008 34.1321 18.8489 34.1621C18.6685 34.5982 18.8249 33.8794 18.6595 34.505L18.6505 34.4118C18.5332 34.6704 18.452 34.917 18.3918 35.1546C18.3587 35.299 18.3256 35.4433 18.2926 35.5817C18.2565 35.7561 18.2114 35.9276 18.1933 36.0779C18.4309 36.123 18.6535 36.1591 18.852 36.2103C19.0083 36.2433 19.1497 36.2794 19.3031 36.3276C19.6068 36.4238 19.9196 36.5682 20.2414 36.7877C20.1602 36.7366 20.1181 36.7095 20.1091 36.6854C20.8099 37.0584 21.5286 37.4464 22.1933 37.9125C22.861 38.3787 23.4565 38.9351 23.9016 39.5847C24.1662 39.9426 24.2444 39.9426 24.461 40.12L24.4489 40.2524L24.8159 40.5591C25.279 41.0464 25.3181 41.6118 25.9046 42.2253L25.8956 42.102C26.055 42.3576 26.452 42.8809 26.3647 42.8779C26.3918 42.899 26.473 42.926 26.5091 43.0433L26.473 43.0764L26.9332 43.6629C27.2008 44.1742 26.7286 43.6839 27.1467 44.4057C27.3211 44.6644 27.7061 45.1065 27.676 44.9892C27.6189 44.8779 27.5437 44.6945 27.5828 44.6644L27.7452 44.902C27.8926 44.8809 28.1302 45.0042 27.8625 44.3366L27.5407 43.9546L27.5166 43.7832L27.7332 44.1381C27.67 43.9005 27.5437 43.8012 27.4234 43.6779C27.4354 43.6238 27.4204 43.5516 27.3813 43.4614L27.0144 43.1185C27.0294 43.0403 27.2219 43.2448 27.0745 42.9531C26.9001 42.7937 27.0865 43.2027 26.852 42.905C26.7798 42.6734 26.858 42.7035 26.6655 42.499C26.6745 42.4479 26.7256 42.4839 26.7978 42.5682C26.6294 42.3817 26.4249 42.0298 26.2926 41.9666C26.2204 41.717 25.8053 41.29 25.9286 41.2358C25.8565 41.1907 25.5948 40.9381 25.4535 40.7606C25.8294 41.0012 24.9542 40.0719 25.1527 40.0599C24.855 39.9005 24.4159 39.2208 23.9768 38.8659C24.0068 38.8809 24.064 38.911 24.0941 38.9501C23.8865 38.7125 23.8565 38.6163 23.7362 38.4509C23.6189 38.511 23.258 38.1832 23.0053 38.0809C22.7858 37.7501 23.273 38.123 23.252 37.9636C23.2038 38.0479 22.6745 37.6088 22.7256 37.7561C22.5332 37.5276 22.5452 37.5787 22.482 37.4103C22.3557 37.4975 22.2474 37.2689 21.9918 37.2118C21.679 36.917 21.9768 37.0343 21.5557 36.8298C21.3873 36.6764 21.7723 36.8448 21.7723 36.8448L21.7933 36.8719ZM24.1753 34.3817C24.082 34.3967 24.0008 34.4088 23.9497 34.4148C23.9978 34.4088 24.061 34.3967 24.1723 34.3817H24.1753ZM25.0835 34.2283C24.9753 34.2554 24.8339 34.2704 24.6895 34.2975C24.6535 34.2734 24.6835 34.2373 24.7738 34.2253C24.7286 34.2494 24.9452 34.2373 25.0835 34.2283ZM23.1317 33.8794C23.27 33.8614 23.3151 33.8794 23.3362 33.8915C23.27 33.8975 23.1948 33.9035 23.0956 33.9125C23.0926 33.9125 23.0835 33.9215 23.0805 33.9245C23.0926 33.9065 23.1076 33.8915 23.1347 33.8794H23.1317Z" fill="#1B1B1B"/>
<path d="M22.8815 33.9933C22.8604 33.9933 22.8513 33.9993 22.8242 33.9993C22.8543 34.0053 22.8815 34.0114 22.9086 34.0174C22.9267 34.0083 22.9418 33.9993 22.9569 33.9902C22.9328 33.9902 22.9056 33.9902 22.8815 33.9902V33.9933Z" fill="#1B1B1B"/>
<path d="M12.949 33.3813L12.9553 33.3623C12.9553 33.3623 12.9394 33.3908 12.9299 33.3972C12.9363 33.3845 12.9394 33.3877 12.9458 33.3782L12.949 33.3813Z" fill="#1B1B1B"/>
<path d="M34.3701 26.2228L34.349 26.2168L34.334 26.2981L34.3701 26.2228Z" fill="#1B1B1B"/>
<path d="M8.95397 35.0469C8.95397 35.0469 8.92084 35.0408 8.8847 35.0469C8.89073 35.0499 8.91783 35.0469 8.95397 35.0469Z" fill="#1B1B1B"/>
<path d="M7.00565 36.0352L6.73425 36.1889C6.85487 36.1256 6.93931 36.0774 7.00565 36.0352Z" fill="#1B1B1B"/>
<path d="M5.66924 37.0615C5.66309 37.0892 5.66924 37.1015 5.66924 37.1138L5.66309 37.0615H5.66924Z" fill="#1B1B1B"/>
<path d="M8.83945 17.3211C8.83945 17.297 8.83945 17.2758 8.83945 17.2547C8.8304 17.1008 8.83342 17.2064 8.83945 17.3211Z" fill="#1B1B1B"/>
<path d="M10.2652 25.0474C10.22 24.975 10.1778 24.9026 10.1385 24.8242C10.1838 24.9569 10.22 25.0624 10.2652 25.0474Z" fill="#1B1B1B"/>
<path d="M11.6035 8.9432C11.6035 8.9432 11.6254 8.91505 11.6379 8.89941L11.6035 8.9432Z" fill="#1B1B1B"/>
<path d="M10.0098 24.4785C10.0429 24.6172 10.0882 24.7258 10.1394 24.8223C10.1032 24.7107 10.064 24.581 10.0098 24.4785Z" fill="#1B1B1B"/>
<path d="M4.91457 38.457L4.55066 38.8721C4.63788 38.8179 4.74916 38.7427 4.60479 38.9443C5.11006 38.46 4.45442 39.0104 4.91457 38.457Z" fill="#1B1B1B"/>
<path d="M6.09673 37.233C5.89168 37.4441 6.1299 37.2631 6.13292 37.2903C6.25354 37.1485 6.2837 37.1124 6.09673 37.233Z" fill="#1B1B1B"/>
<path d="M13.5612 29.75L13.6365 29.7199C13.4769 29.5572 13.6124 29.7379 13.5612 29.75Z" fill="#1B1B1B"/>
<path d="M11.7842 28.1113L11.8746 28.3284L11.9953 28.3767L11.7842 28.1113Z" fill="#1B1B1B"/>
<path d="M11.5285 26.6298L11.5858 26.7112C11.5135 26.6057 11.4531 26.4971 11.3838 26.3916L11.5285 26.6298Z" fill="#1B1B1B"/>
<path d="M13.7486 7.56693L13.634 7.54883C13.5374 7.66951 13.5918 7.76606 13.7486 7.56693Z" fill="#1B1B1B"/>
<path d="M21.6602 4.17059C21.7564 4.22172 22.003 4.24578 22.1594 4.2127C21.9609 4.19164 21.7624 4.16157 21.6602 4.17059Z" fill="#1B1B1B"/>
<path d="M34.3888 23.7053L34.3979 23.5244L34.3496 23.8591L34.3888 23.7053Z" fill="#1B1B1B"/>
<path d="M22.5807 20.7517C23.0923 20.7517 23.507 20.0784 23.507 19.2479C23.507 18.4174 23.0923 17.7441 22.5807 17.7441C22.0691 17.7441 21.6544 18.4174 21.6544 19.2479C21.6544 20.0784 22.0691 20.7517 22.5807 20.7517Z" fill="black"/>
<path d="M29.4499 20.7517C29.9615 20.7517 30.3762 20.0784 30.3762 19.2479C30.3762 18.4174 29.9615 17.7441 29.4499 17.7441C28.9383 17.7441 28.5236 18.4174 28.5236 19.2479C28.5236 20.0784 28.9383 20.7517 29.4499 20.7517Z" fill="black"/>
<path d="M21.2662 23.7598C22.3807 23.7598 23.2843 23.2212 23.2843 22.5568C23.2843 21.8924 22.3807 21.3538 21.2662 21.3538C20.1517 21.3538 19.2482 21.8924 19.2482 22.5568C19.2482 23.2212 20.1517 23.7598 21.2662 23.7598Z" fill="#F4BDCB"/>
<path d="M30.2893 23.7598C31.4038 23.7598 32.3073 23.2212 32.3073 22.5568C32.3073 21.8924 31.4038 21.3538 30.2893 21.3538C29.1747 21.3538 28.2712 21.8924 28.2712 22.5568C28.2712 23.2212 29.1747 23.7598 30.2893 23.7598Z" fill="#F4BDCB"/>
<path d="M26.0155 24.0603C25.2696 24.0603 24.6621 23.4528 24.6621 22.7069C24.6621 21.961 25.2696 21.3535 26.0155 21.3535C26.7614 21.3535 27.3689 21.961 27.3689 22.7069C27.3689 23.4528 26.7614 24.0603 26.0155 24.0603ZM26.0155 21.6543C25.435 21.6543 24.9629 22.1264 24.9629 22.7069C24.9629 23.2874 25.435 23.7595 26.0155 23.7595C26.5959 23.7595 27.0681 23.2874 27.0681 22.7069C27.0681 22.1264 26.5959 21.6543 26.0155 21.6543Z" fill="black"/>
<path d="M0.45105 48.5709C0.45105 48.5709 1.05255 42.5558 3.75932 39.5483C6.46609 36.5408 8.2706 34.4355 10.9774 34.4355C10.9774 34.4355 9.20895 37.3348 14.8871 38.0446C19.6992 38.6461 19.0977 35.9393 19.0977 35.9393C20.1172 36.4566 22.9052 37.798 23.9097 38.9468C26.015 41.3528 27.8195 44.6611 27.8195 44.6611" fill="white"/>
<path d="M24.2198 39.1514L24.2389 39.1894C24.2389 39.1894 24.2294 39.1641 24.2198 39.1514Z" fill="#1B1B1B"/>
<path d="M21.1614 36.8454C21.189 36.8576 21.2043 36.8576 21.2073 36.8515C21.1798 36.8423 21.1584 36.8362 21.1614 36.8454Z" fill="#1B1B1B"/>
<path d="M20.6232 36.4629C20.6232 36.4629 20.6454 36.4787 20.6581 36.4883C20.6485 36.4756 20.6359 36.4629 20.6232 36.4629Z" fill="#1B1B1B"/>
<path d="M24.2199 39.1517L24.1717 39.0583C24.1476 39.0674 24.1928 39.1095 24.2199 39.1517Z" fill="#1B1B1B"/>
<path d="M24.7607 39.6974C24.7607 39.6974 24.7703 39.6814 24.7703 39.6719C24.7639 39.6783 24.7607 39.6846 24.7607 39.6974Z" fill="#1B1B1B"/>
<path d="M19.453 35.7725C19.453 35.7725 19.4595 35.7757 19.4627 35.7789C19.5178 35.7984 19.4886 35.7854 19.453 35.7725Z" fill="#1B1B1B"/>
<path d="M11.0109 35.7043C10.9807 35.822 10.8962 35.5414 10.8751 35.7164C10.8962 35.6983 11.0079 35.8431 11.0109 35.7043Z" fill="#1B1B1B"/>
<path d="M17.9014 37.5674C17.9014 37.5674 17.9236 37.5801 17.9363 37.5801C17.9331 37.5737 17.9236 37.5706 17.9014 37.5674Z" fill="#1B1B1B"/>
<path d="M16.9657 37.9009C16.9386 37.9009 16.9296 37.8919 16.8934 37.9009C16.8964 37.9009 16.8995 37.907 16.9055 37.907C16.9175 37.8979 16.9356 37.8919 16.9657 37.8979V37.9009Z" fill="#1B1B1B"/>
<path d="M15.8887 37.9402C15.8887 37.9402 15.9009 37.9493 15.907 37.9524C15.9192 37.9524 15.9313 37.9524 15.9405 37.9493L15.8857 37.9402H15.8887Z" fill="#1B1B1B"/>
<path d="M16.98 38.3994L16.7939 38.4054C16.845 38.4054 16.914 38.4054 16.98 38.3994Z" fill="#1B1B1B"/>
<path d="M6.00364 37.4854L5.98145 37.5202C5.98145 37.5202 6.00364 37.498 6.00364 37.4854Z" fill="#1B1B1B"/>
<path d="M16.2534 38.4446C16.2202 38.4205 16.1871 38.4084 16.151 38.3994C16.1419 38.4054 16.1359 38.4085 16.1299 38.4145L16.2534 38.4416V38.4446Z" fill="#1B1B1B"/>
<path d="M1.49164 45.0884C1.53675 44.929 1.4345 44.9921 1.3954 44.947C1.42547 44.7515 1.47961 44.8748 1.53675 44.8207C1.54878 44.6974 1.49765 44.5831 1.52773 44.4959C1.54277 44.4959 1.55179 44.4779 1.56382 44.5019C1.53976 44.3576 1.6781 44.132 1.64201 43.9606C1.65104 43.9515 1.66006 43.9485 1.66908 43.9485C1.62096 43.9606 1.58186 43.9485 1.5548 43.9365C1.57585 43.8643 1.54577 43.7891 1.60592 43.7771C1.59089 43.8192 1.60893 43.8312 1.62096 43.8553V43.7741C1.7172 43.732 1.61495 43.8854 1.67209 43.9034C1.69013 43.75 1.69615 43.5636 1.75329 43.4613C1.8345 43.4613 1.68412 43.726 1.80141 43.6027L1.71419 43.7621C1.87359 43.6718 1.66908 43.8613 1.8345 43.7861C1.93374 43.5726 1.88562 43.5245 1.98788 43.3109C1.96683 43.2478 1.92171 43.3049 1.90066 43.2418C1.94277 42.8959 2.17435 43.0643 2.17134 42.7997C2.14728 42.7215 2.06908 42.6613 2.18337 42.52L2.24051 42.6102C2.33675 42.4027 2.17134 42.4388 2.32472 42.2433C2.33675 42.2944 2.27961 42.4177 2.30066 42.3906C2.42397 42.2764 2.30066 42.2703 2.35179 42.1621L2.43299 42.1711C2.52923 41.9515 2.58337 41.6779 2.70367 41.4373C2.7157 41.4613 2.7157 41.5124 2.76683 41.4673C2.83299 41.3109 2.92322 41.1545 3.01946 41.0072C3.11871 40.8568 3.24201 40.7305 3.34728 40.6072L3.35931 40.4688C3.37735 40.4448 3.41344 40.4418 3.40743 40.4748C3.49765 40.3846 3.37735 40.4448 3.38938 40.3786C3.42547 40.3154 3.47359 40.3215 3.46457 40.3726C3.54577 40.1621 3.76232 39.8042 3.96382 39.6688L3.94577 39.717C4.09013 39.5967 3.98487 39.4703 4.14728 39.3801L4.13224 39.4132C4.42698 39.1305 4.68262 38.7545 4.96232 38.5951C4.93224 38.4869 5.26608 38.3275 5.18487 38.2192C5.38938 38.0929 5.36232 38.1561 5.61796 37.9515C5.68111 37.8914 5.64502 37.8012 5.70818 37.7109L5.75931 37.7561L5.80743 37.5997H5.92171L5.97886 37.5185C5.94878 37.5455 5.89765 37.5576 5.88562 37.5395C5.97284 37.4042 6.18638 37.2989 6.21645 37.323C6.28863 37.2207 6.36382 37.1215 6.43901 37.0222C6.45405 37.0493 6.41495 37.0974 6.3939 37.1455C6.48412 36.9561 6.47209 37.1726 6.55329 37.0012C6.52623 37.0072 6.53525 36.9621 6.52623 36.95C6.61946 36.917 6.76683 36.7756 6.86608 36.6613L6.87811 36.7155C7.08562 36.538 7.29014 36.3155 7.52472 36.123C7.42848 36.1771 7.39239 36.0959 7.45856 36.0327L7.53074 36.0658C7.54878 35.9936 7.44051 36.1019 7.49765 35.9846C7.5939 35.9215 7.60893 36.0057 7.57284 36.0628L7.66608 35.9606C7.68713 35.9726 7.66608 36.0027 7.67811 36.0297C7.69615 35.9606 7.90968 35.9455 7.92773 35.8342L7.94577 35.8463C8.19239 35.6809 8.28863 35.5756 8.49615 35.4553C8.46908 35.3982 8.55931 35.3651 8.5954 35.2839C8.76081 35.2057 8.96532 35.1786 9.1548 35.0794C9.28111 34.9951 9.17585 35.0132 9.22397 34.953C9.25705 35.0042 9.45555 34.926 9.36532 35.0012C9.60292 34.9079 9.66908 34.8809 9.97284 34.7606C9.93375 34.7455 9.89164 34.7455 9.90668 34.7215C9.96382 34.6974 10.042 34.7094 10.042 34.7425L10.027 34.7515C10.0992 34.7215 10.1834 34.7064 10.2706 34.7004C10.3127 34.6974 10.3608 34.6944 10.3969 34.6944C10.421 34.6944 10.439 34.7004 10.451 34.7094C10.5052 34.7425 10.5052 34.7696 10.5172 34.7756C10.5172 34.7816 10.5262 34.7816 10.5443 34.7816H10.5383C10.5533 34.7906 10.5653 34.8207 10.5743 34.8658C10.5743 34.8568 10.5683 34.8779 10.5653 34.8839C10.5623 34.8929 10.5593 34.8959 10.5563 34.8929C10.5503 34.8929 10.5473 34.8779 10.5443 34.8598C10.5322 34.8508 10.5142 34.8538 10.4992 34.8418C10.4992 35.2297 10.3969 35.4523 10.5022 35.7681C10.4751 35.8342 10.4721 35.9275 10.4901 36.0297C10.5082 36.132 10.5683 36.2342 10.6195 36.3425C10.6646 36.4538 10.7548 36.538 10.8119 36.6342C10.8751 36.7275 10.9262 36.8177 10.9713 36.8899L10.9864 36.8478C11.0766 36.8809 11.0435 36.935 11.0826 36.9861C11.0977 36.9561 11.0405 36.8959 11.0946 36.917C11.633 37.3771 12.2555 37.7621 12.9052 38.0117C13.1428 38.0959 13.1007 37.8493 13.3774 38.0207L13.2721 38.0718C13.7774 38.123 14.2736 38.2854 14.7638 38.2854C14.7337 38.2974 14.7307 38.3185 14.6826 38.3124C14.7759 38.3876 15.0616 38.3606 15.0676 38.3155C15.1428 38.3275 15.0796 38.3576 15.1247 38.3846C15.224 38.4267 15.3894 38.3395 15.4405 38.3967C15.4495 38.4057 15.4104 38.4117 15.3924 38.4147C15.4616 38.3936 15.7052 38.4508 15.645 38.3816C15.8255 38.4237 15.9969 38.3606 16.1443 38.3997C16.2405 38.3305 16.4601 38.4388 16.4871 38.3335C16.4781 38.4358 16.821 38.3876 16.9322 38.3305C16.8962 38.3636 17.0375 38.3545 16.9984 38.3997C17.1337 38.3936 17.254 38.3365 17.221 38.2914C17.3563 38.3275 17.4766 38.2764 17.5819 38.2342C17.6871 38.1921 17.7743 38.135 17.8706 38.1861C18.2525 38.0117 18.5774 37.7621 18.821 37.4673C18.851 37.5034 18.7909 37.5997 18.7067 37.6598C18.6285 37.726 18.5503 37.7891 18.5894 37.8282C18.6586 37.7621 18.7157 37.6989 18.7668 37.6418C18.8149 37.5756 18.851 37.5094 18.8931 37.4493C18.9774 37.329 19.0345 37.1936 19.1337 37.0433C19.1819 36.9621 19.1578 37.1154 19.1488 37.1485C19.218 36.9711 19.2811 36.8027 19.3202 36.6312C19.3322 36.5952 19.3352 36.535 19.3413 36.5139V36.4718C19.3413 36.4448 19.3352 36.4147 19.3202 36.3696C19.3292 36.3816 19.3383 36.4027 19.3473 36.4207C19.3443 36.3967 19.3593 36.3967 19.3142 36.3395L19.3262 36.3756C19.2901 36.3576 19.254 36.2794 19.2119 36.1711C19.1999 36.138 19.1759 36.0809 19.1759 36.0688C19.1819 36.0598 19.1849 36.0508 19.1819 36.0418C19.242 36.2222 19.3804 36.1801 19.3954 36.3726C19.4014 36.3666 19.4074 36.3455 19.3954 36.3034C19.4255 36.3275 19.4285 36.3515 19.4225 36.3876C19.4766 36.3876 19.4586 36.3245 19.5458 36.3696C19.5307 36.3876 19.5157 36.3876 19.5007 36.4117C19.5127 36.3936 19.5759 36.3997 19.63 36.4117C19.6841 36.4237 19.7443 36.4478 19.8104 36.4899C19.7954 36.4989 19.8044 36.523 19.7623 36.4989C20.0059 36.6162 20.2225 36.6042 20.4661 36.7786C20.3428 36.8237 20.5383 36.8538 20.5142 36.935L20.6646 36.9861L20.6285 36.92C20.7518 36.9861 20.8871 36.9921 20.9774 37.0733L20.8691 37.0553L21.1037 37.1666L20.9894 37.0673C21.1337 37.0974 21.0285 36.9651 21.1789 37.0764C21.1428 37.0643 21.2992 37.1455 21.3383 37.2237C21.4104 37.2327 21.4886 37.2448 21.5668 37.3139C21.5759 37.35 21.5007 37.3831 21.5067 37.4072C21.5999 37.3801 21.7984 37.5515 21.9067 37.5335C21.8736 37.5335 21.8495 37.5696 21.8525 37.5846L21.9307 37.5666C21.9759 37.6147 21.9789 37.6267 21.9518 37.6538C22.1112 37.7621 21.9548 37.5305 22.1262 37.6899C22.1082 37.6839 22.1112 37.6959 22.0751 37.6839C22.2556 37.8252 22.4721 37.8884 22.6285 38.0327C22.6315 38.138 22.4661 37.9455 22.4841 38.0448C22.7398 38.2012 23.0616 38.3155 23.2721 38.52L23.236 38.4779C23.3443 38.4117 23.3683 38.6583 23.5127 38.7154C23.4796 38.6974 23.4345 38.7335 23.4495 38.7305C23.5849 38.8748 23.7563 38.9771 23.9849 39.1936L23.9368 39.1846C23.9939 39.2929 24.1292 39.4342 24.1984 39.5425C24.2465 39.5515 24.2886 39.6147 24.2946 39.5515C24.4089 39.9666 24.839 40.0869 24.9383 40.4568C24.9112 40.4237 24.8571 40.3936 24.8751 40.4207L25.0766 40.6463C25.1037 40.5951 25.0766 40.5951 25.0766 40.52C25.1247 40.532 25.1939 40.5861 25.239 40.6463C25.1307 40.556 25.1728 40.6974 25.1819 40.7606C25.1879 40.7425 25.215 40.7485 25.224 40.7365C25.242 40.917 25.3262 40.6944 25.4014 40.9079L25.3713 40.9139C25.4285 40.9711 25.5007 41.0102 25.5458 41.0854C25.5187 41.1485 25.4736 41.0312 25.4285 41.0553C25.5007 41.1515 25.6601 41.1846 25.6751 41.3109C25.63 41.2779 25.5879 41.2177 25.5458 41.1846C25.5578 41.323 25.5789 41.323 25.621 41.4042V41.3951L25.7082 41.5816L25.6931 41.5275C25.9067 41.5636 25.8916 41.7651 26.0901 41.8794C25.8977 41.7681 26.024 41.8824 25.9608 41.9094C25.9728 41.9636 25.9999 42.0418 25.9728 42.0327C26.0721 42.0839 26.024 42.1921 26.1683 42.2613C26.1533 42.2794 26.2225 42.3485 26.1653 42.3606C26.2495 42.4568 26.1804 42.3154 26.2104 42.3094C26.3789 42.4327 26.3819 42.7395 26.6165 42.923C26.7789 43.1034 26.8661 43.1034 27.0165 43.2748C27.0255 43.3591 26.9172 43.2628 26.9172 43.2628C26.9533 43.3831 27.0044 43.4583 27.0856 43.5425C27.0586 43.5335 27.0556 43.5606 27.0525 43.6057C27.1037 43.6809 27.1518 43.6177 27.1879 43.738C27.1548 43.732 27.1097 43.729 27.0646 43.7049C27.1368 43.7861 27.227 43.8583 27.3022 43.9455C27.2841 43.9906 27.218 43.9154 27.1759 43.8944C27.254 43.9936 27.3713 44.1591 27.4435 44.1621L27.4225 44.0809C27.4495 44.12 27.3894 44.129 27.3623 44.1049C27.2661 44.0357 27.3022 43.9606 27.3172 43.9425L27.3713 44.0057C27.4405 43.8703 27.1909 43.738 27.1127 43.5967L27.227 43.6057L27.0766 43.5034C27.0766 43.4613 27.1127 43.4132 27.1638 43.4733C27.1428 43.35 27.0826 43.4042 27.0736 43.2929C27.0736 43.2779 27.0826 43.2809 27.0886 43.2869L27.0044 43.2057C27.0315 43.2147 27.0525 43.1546 27.0766 43.2207C27.0165 43.0192 26.845 42.9801 26.8631 42.8779L26.8781 42.8899C26.7007 42.6673 26.8059 42.9019 26.6255 42.7666L26.6916 42.5561L26.6195 42.5711C26.6074 42.544 26.5804 42.4929 26.6074 42.4869C26.5082 42.4207 26.5924 42.52 26.5202 42.4869C26.4992 42.3335 26.2856 42.1801 26.3608 42.0929C26.2886 42.0809 26.3999 42.2252 26.2886 42.123C26.3638 42.0237 26.1774 41.9906 26.1503 41.8523C26.2225 41.8523 26.2616 41.9696 26.2375 41.8342C26.1112 41.8252 26.1172 41.6147 26.039 41.5365C25.9668 41.5786 25.8796 41.3621 25.7533 41.2297C25.7834 41.2237 25.5939 40.926 25.5217 40.7696H25.5368C25.4495 40.7876 25.3593 40.6373 25.2721 40.547C25.3142 40.523 25.3443 40.529 25.4014 40.5711L25.3292 40.4748C25.2901 40.4688 25.2571 40.4448 25.2059 40.3906L25.2721 40.3786C25.1759 40.2523 25.0225 40.1681 24.9322 39.9786C24.8811 40.0057 24.9022 40.2042 24.7428 40.0568C24.7638 40.0327 24.7999 39.9936 24.845 40.0297C24.83 40.0177 24.7849 39.9936 24.7728 39.9545L24.8661 39.9906C24.827 39.9034 24.8029 39.9786 24.7608 39.9185C24.7969 39.8914 24.7518 39.8553 24.7879 39.8433C24.8029 39.8553 24.8119 39.9064 24.845 39.9185C24.7999 39.8463 24.7578 39.75 24.7638 39.7049C24.7488 39.726 24.7157 39.741 24.6736 39.6989C24.5713 39.5786 24.6826 39.6237 24.6405 39.5365C24.5924 39.5245 24.5533 39.4252 24.4992 39.4673C24.4691 39.4312 24.4901 39.4042 24.4931 39.3801C24.421 39.332 24.2375 39.0914 24.2465 39.2057L24.2556 39.2237L24.2435 39.2147C24.1322 39.1335 24.048 39.0222 23.9698 38.9049C23.8796 38.7967 23.8014 38.6703 23.6871 38.5951L23.7022 38.5801C23.5668 38.4869 23.4195 38.3545 23.2992 38.3215C23.2631 38.2914 23.236 38.2192 23.2691 38.2102C23.1608 38.15 23.1337 38.1621 23.0134 38.0267C23.1368 38.0688 22.9984 37.9726 23.1337 38.0779C23.0165 37.9666 23.0074 37.9154 22.83 37.8703C22.9112 37.8553 22.7698 37.744 22.6977 37.7139L22.7668 37.8102C22.6916 37.7681 22.6345 37.723 22.5713 37.6779L22.6465 37.6358C22.421 37.3801 22.0661 37.4523 21.9337 37.1967C21.8345 37.1967 22.0661 37.32 21.9698 37.332C21.8465 37.2478 21.7653 37.0764 21.7262 37.0523C21.5698 36.9139 21.5067 37.0523 21.3322 36.923C21.3443 36.9591 21.3322 37.0342 21.1789 36.9801C21.0525 36.8989 21.0736 36.7936 21.1668 36.8207C21.1999 36.8358 21.2089 36.8508 21.2059 36.8598C21.254 36.8748 21.3142 36.8959 21.2751 36.8418L21.245 36.8568C21.1939 36.7967 21.0104 36.7004 21.0736 36.6854C20.9623 36.6523 21.0104 36.7004 21.0766 36.7545C20.9262 36.6282 20.8149 36.6102 20.6525 36.4959C20.6736 36.523 20.6826 36.5651 20.6556 36.55C20.4149 36.3846 20.5202 36.535 20.3398 36.4568C20.2586 36.3696 20.421 36.3876 20.2285 36.3275C20.1353 36.2493 20.2375 36.2523 20.2916 36.2553C20.1082 36.2192 20.0089 36.0718 19.9217 36.0177L20.015 36.0418C19.9578 36.0267 19.9187 36.0057 19.8766 35.9846L19.9007 36.0568C19.8556 36.0237 19.8134 36.0027 19.8255 35.9816C19.7593 35.9876 19.8255 36.0809 19.7022 36.0718C19.615 35.9967 19.4165 35.9606 19.3743 35.8613C19.5368 35.9545 19.5277 35.9335 19.5157 35.9004C19.5037 35.8703 19.4766 35.8252 19.636 35.9004C19.5728 35.8794 19.5037 35.8433 19.4134 35.7861C19.3984 35.7711 19.4255 35.7741 19.4495 35.7861C19.0676 35.5215 19.2962 35.7982 18.9683 35.6297C18.9743 35.6087 18.9383 35.5726 18.8931 35.5335C18.848 35.4974 18.7849 35.4553 18.7789 35.4613C18.83 35.4794 18.8811 35.5305 18.8751 35.5485C18.8781 35.5636 18.8661 35.5666 18.8631 35.5816C18.8631 35.5997 18.8601 35.6147 18.848 35.6297C18.842 35.6297 18.836 35.6237 18.833 35.6237C18.839 35.8433 18.9112 35.9606 18.9172 36.0748C18.9172 36.0297 18.9172 35.9846 18.9172 35.9395C18.9743 36.0478 18.9743 36.15 18.9954 36.3094C18.9653 36.3094 18.9623 36.153 18.9533 36.2012C19.0014 36.3185 18.9713 36.3906 18.9383 36.4779C18.9142 36.538 18.8661 36.5951 18.8721 36.6703C18.83 36.7245 18.7999 36.6553 18.7668 36.7004C18.7518 36.8568 18.6646 36.8297 18.6165 36.9741C18.6856 36.9651 18.6796 36.947 18.6646 37.0764C18.6977 36.9891 18.7458 36.917 18.7608 36.8267C18.7668 36.8899 18.7608 36.953 18.7488 37.0162C18.7999 36.947 18.7999 36.8448 18.827 36.8027C18.836 36.8959 18.827 36.8869 18.8811 36.8658C18.7698 36.941 18.8089 37.0974 18.6886 37.1816L18.5864 37.0974C18.4962 37.1455 18.4631 37.2237 18.4059 37.2989C18.3428 37.3651 18.2856 37.4613 18.1593 37.5094C18.1864 37.5004 18.2195 37.5004 18.2435 37.4854C18.2435 37.5515 18.1022 37.5696 18.039 37.6297C18.027 37.5876 17.9728 37.5967 17.9277 37.5876C17.9488 37.6237 17.7473 37.6538 17.7563 37.744L17.624 37.729C17.4165 37.7801 17.4134 37.9094 17.1969 37.9455C17.251 37.8854 17.1518 37.8733 17.2841 37.8102C17.2149 37.8252 17.1518 37.8282 17.1548 37.8583C17.1127 37.8433 16.9683 37.9545 16.8962 37.9124C16.8691 37.9335 16.8631 37.9816 16.7819 37.9846C16.7728 37.9756 16.7819 37.9636 16.7819 37.9636C16.7819 37.9846 16.6556 38.0057 16.7337 38.0478C16.5022 37.9425 16.1022 38.0779 15.9067 37.9576C15.7473 37.9786 15.5548 37.9696 15.4074 37.9576C15.4165 37.9455 15.4074 37.9365 15.4375 37.9425C15.242 37.8824 15.3022 38.0598 15.0796 37.9936C14.9713 37.9124 15.2059 37.9666 15.1337 37.9335C15.1187 37.7861 14.8571 37.9335 14.7157 37.8162H14.7548C14.6465 37.747 14.4661 37.8222 14.2766 37.7831C14.2766 37.7831 14.2886 37.7711 14.2826 37.7621C14.1413 37.8162 13.8886 37.8042 13.7052 37.7741C13.7743 37.732 13.7924 37.7651 13.7713 37.6989C13.6901 37.6869 13.7743 37.7951 13.6089 37.7711C13.5638 37.729 13.4556 37.6718 13.4556 37.6087L13.6059 37.6418C13.5488 37.5455 13.4104 37.5967 13.3352 37.5636L13.3533 37.5335C13.1187 37.4914 13.0946 37.5696 12.854 37.4794L12.8691 37.5124C12.7067 37.5485 12.7759 37.4282 12.6225 37.4403L12.6165 37.344C12.5202 37.344 12.2916 37.2989 12.1322 37.2388C12.2495 37.2177 12.427 37.2839 12.5533 37.2839C12.4661 37.2568 12.2796 37.1606 12.2165 37.1816C12.2525 37.1906 12.3037 37.1906 12.3277 37.2177C12.2014 37.2297 12.048 37.1997 11.8916 37.1124C11.9488 37.0463 11.8616 36.9711 11.7533 36.8899C11.6992 36.8508 11.642 36.8057 11.5969 36.7636C11.5548 36.7185 11.5307 36.6643 11.5307 36.6192C11.4676 36.5801 11.4104 36.532 11.3563 36.4809C11.2992 36.4297 11.2721 36.3606 11.233 36.2974C11.1458 36.1741 11.1157 36.0237 11.0495 35.8764C10.9533 36.0297 11.0225 35.7861 10.8962 35.8403C10.8691 35.7621 10.8631 35.729 10.8721 35.723C10.8721 35.6388 10.9112 35.5515 10.9292 35.4733C10.9653 35.4162 10.9653 35.5455 10.9954 35.5365C10.9984 35.3711 11.0435 35.4673 11.0856 35.3621C11.0345 35.3831 11.0225 35.3019 11.0465 35.2117L10.9713 35.338C10.9473 35.2177 10.9774 35.1666 11.0195 35.1215C11.0405 35.1004 11.0586 35.0764 11.0706 35.0463C11.0736 35.0373 11.0766 35.0312 11.0796 35.0192C11.0856 35.0012 11.0796 35.0192 11.0916 34.9681C11.1097 34.917 11.1277 34.8658 11.1428 34.8027L11.1217 34.9651C11.1488 34.8779 11.2029 34.7455 11.2601 34.5982C11.3383 34.4418 11.4315 34.2613 11.4946 34.126C11.4495 34.129 11.4255 34.129 11.3894 34.135C11.3473 34.141 11.3052 34.15 11.2661 34.1561C11.1879 34.1711 11.1187 34.1891 11.0586 34.2132C11.0375 34.1982 11.0134 34.1621 11.1337 34.147C10.9894 34.147 10.824 34.1621 10.6646 34.1801C10.5082 34.1921 10.3307 34.2282 10.2646 34.2523C10.0811 34.3004 9.91269 34.3425 9.77435 34.3515L9.79239 34.3124C9.72923 34.3395 9.69615 34.4027 9.60893 34.3906C9.60893 34.3756 9.62698 34.3515 9.5969 34.3576C9.56382 34.3756 9.44352 34.4568 9.3563 34.4718L9.41344 34.4117C9.24502 34.4478 9.12472 34.517 9.01946 34.5861C8.9172 34.6643 8.82999 34.7515 8.70668 34.8207C8.68562 34.7756 8.61044 34.7726 8.52322 34.7906C8.43901 34.8117 8.34578 34.8508 8.28262 34.8779V34.8628C8.09916 34.953 7.96683 35.0613 7.84653 35.1786C7.72322 35.2899 7.61194 35.4072 7.48262 35.5365C7.23299 35.5816 6.85705 35.9726 6.5563 36.1711C6.61044 36.147 6.60141 36.2342 6.56232 36.2854C6.48713 36.3275 6.43901 36.4929 6.38487 36.4177L6.40893 36.3997C6.30066 36.3756 6.1954 36.517 6.09615 36.6072L6.16232 36.7064C5.78638 36.8267 5.56382 37.4042 5.32021 37.4342C5.28412 37.5155 5.21194 37.5906 5.17585 37.6718L5.13074 37.6237C4.95931 37.7831 4.8751 37.8643 4.69164 38.0869L4.69765 38.0117C4.58337 38.129 4.69765 38.2884 4.59841 38.3997L4.49916 38.3696C4.30968 38.5801 4.05705 38.7365 3.93374 39.0012C3.92773 38.9891 3.91269 38.9651 3.93976 38.926C3.84953 39.0222 3.54878 39.2658 3.6781 39.317C3.61194 39.2568 3.47961 39.5365 3.41044 39.6839L3.37735 39.6237C3.3563 39.7771 3.37134 39.7951 3.27209 39.9515C3.23901 39.9816 3.20893 39.9515 3.25705 39.9155C3.14277 40.0117 3.22698 40.0357 3.10367 40.1621V40.0839C3.01946 40.2042 3.04352 40.2072 3.0375 40.3034C3.00743 40.3936 2.86908 40.529 2.80893 40.517C2.82698 40.553 2.82096 40.6463 2.7578 40.7094C2.73374 40.7094 2.73976 40.6733 2.74277 40.6583C2.57435 40.8478 2.62247 41.0162 2.48412 41.1305C2.46307 41.1245 2.45104 41.1305 2.436 41.1365C2.53224 40.9651 2.61344 40.8267 2.61044 40.8448C2.55931 40.8147 2.47209 40.95 2.46607 40.7967C2.43901 40.932 2.41495 41.1696 2.3157 41.2929C2.30668 41.2959 2.29765 41.3019 2.28863 41.3019V41.2839C2.26758 41.3139 2.25856 41.344 2.24953 41.3741C2.21645 41.4132 2.19841 41.4403 2.17735 41.4824C2.12622 41.4764 2.0751 41.6357 2.03901 41.7079C2.09916 41.729 2.04502 41.8192 2.13525 41.753C2.12623 41.7621 2.13525 41.735 2.1563 41.6869C2.15931 41.6748 2.16532 41.6628 2.16532 41.6538V41.6598C2.18938 41.6117 2.21645 41.5515 2.24953 41.4794C2.24953 41.5515 2.24953 41.6207 2.17735 41.6839C2.1954 41.738 2.21344 41.7982 2.22247 41.8282C2.09615 41.8854 1.96382 42.0568 1.90066 42.0598C1.83149 42.2944 1.70216 42.5982 1.75329 42.7786C1.74126 42.8478 1.69013 42.8388 1.66307 42.8568C1.66607 42.8147 1.68713 42.7726 1.6781 42.7455C1.65104 42.8809 1.54577 43.1305 1.61194 43.1876C1.51871 43.338 1.57284 43.0703 1.50668 43.2989L1.49465 43.2598C1.20592 43.6568 1.45254 44.0418 1.13675 44.4839C1.1578 44.4538 1.16683 44.4358 1.18186 44.4327C0.947277 44.9801 0.929232 45.6177 0.694646 46.1561C0.637503 46.3124 0.685623 46.3395 0.703668 46.4478L0.62848 46.4688L0.673593 46.6523C0.685623 46.9019 0.426977 47.0342 0.48412 47.3591L0.535247 47.329C0.50818 47.4373 0.502165 47.6779 0.454044 47.6538C0.460059 47.6658 0.49615 47.6959 0.466074 47.735H0.429984L0.451037 48.0117C0.396901 48.2162 0.315698 47.9576 0.267578 48.2643C0.267578 48.3816 0.330736 48.6042 0.360811 48.5621C0.366826 48.5139 0.396901 48.4478 0.432992 48.4478L0.439007 48.553C0.541262 48.5831 0.637503 48.6703 0.739759 48.4327L0.697653 48.2493L0.754796 48.2012L0.736751 48.3485C0.796902 48.2703 0.760811 48.2132 0.739759 48.15C0.769834 48.141 0.790886 48.117 0.805924 48.0839L0.730736 47.8974C0.775849 47.8824 0.799909 47.9846 0.839007 47.8733C0.805924 47.7861 0.736751 47.9365 0.724721 47.7982C0.784871 47.723 0.817954 47.753 0.793894 47.6478C0.823969 47.6388 0.835999 47.6628 0.842014 47.7019C0.820962 47.6087 0.866074 47.4703 0.817954 47.4162C0.890135 47.338 0.854044 47.1185 0.950285 47.1455C0.93224 47.1154 0.902165 46.9801 0.914195 46.8989C1.00442 47.0673 0.977353 46.6012 1.09765 46.6643C1.01044 46.535 1.13374 46.2673 1.1157 46.0658C1.12171 46.0779 1.13374 46.1019 1.12472 46.117C1.1578 46.0117 1.19389 45.9876 1.22998 45.9245C1.14878 45.8914 1.16683 45.72 1.13675 45.6177C1.25104 45.5064 1.21795 45.72 1.30818 45.6989C1.236 45.6899 1.29314 45.4553 1.22397 45.4854C1.29916 45.3982 1.26908 45.4072 1.35329 45.3741C1.25104 45.329 1.35329 45.2779 1.31419 45.1786C1.40743 45.0493 1.42547 45.1696 1.4345 45.0042C1.48863 44.938 1.48863 45.0884 1.48863 45.0884H1.49164ZM2.68262 41.4312C2.66758 41.4613 2.65555 41.4854 2.64653 41.5034C2.65254 41.4884 2.66457 41.4673 2.68262 41.4312ZM2.83901 41.1485C2.81795 41.1816 2.79389 41.2237 2.76683 41.2688C2.74277 41.2688 2.72773 41.2478 2.74577 41.2177C2.74878 41.2418 2.7969 41.1786 2.83901 41.1455V41.1485ZM2.12322 41.5545C2.13826 41.5034 2.1563 41.4914 2.17134 41.4914C2.16232 41.5155 2.15329 41.5425 2.13826 41.5786V41.5876C2.13826 41.5876 2.12623 41.5666 2.12322 41.5545Z" fill="#1B1B1B"/>
<path d="M5.77657 37.7695L5.76362 37.7598L5.75391 37.7921L5.77657 37.7695Z" fill="#1B1B1B"/>
<path d="M19.3477 36.4209C19.3477 36.4209 19.3477 36.4273 19.3477 36.4305C19.3604 36.4592 19.354 36.4432 19.3477 36.4209Z" fill="#1B1B1B"/>
<path d="M21.3414 37.2212C21.3083 37.2152 21.2782 37.2122 21.248 37.2031C21.2902 37.2332 21.3233 37.2513 21.3414 37.2212Z" fill="#1B1B1B"/>
<path d="M21.1338 37.1367C21.1729 37.1729 21.2091 37.1909 21.2482 37.203C21.2151 37.1789 21.176 37.1488 21.1338 37.1367Z" fill="#1B1B1B"/>
<path d="M23.2451 38.1562L23.2908 38.1167C23.2147 38.071 23.2756 38.1349 23.2451 38.1562Z" fill="#1B1B1B"/>
<path d="M22.3612 37.9043L22.4094 37.9796L22.4726 37.9555L22.3612 37.9043Z" fill="#1B1B1B"/>
<path d="M22.1444 37.2835L22.1806 37.2956L22.0479 37.2383L22.1444 37.2835Z" fill="#1B1B1B"/>
<path d="M16.084 37.8853L16.1081 37.9576C16.1653 37.9455 16.1743 37.8642 16.084 37.8853Z" fill="#1B1B1B"/>
<path d="M12.9001 37.4435C12.879 37.3983 12.8005 37.347 12.7372 37.3621C12.8036 37.3892 12.8609 37.4405 12.9001 37.4435Z" fill="#1B1B1B"/>
<path d="M5.97584 36.7459L6.00897 36.6826L5.93066 36.785L5.97584 36.7459Z" fill="#1B1B1B"/>
<path d="M20.4661 25.1159C20.5473 25.7114 21.0074 26.4453 21.3052 26.8242C22.1262 27.8678 24.436 30.7129 28.2736 27.9731C30.3789 26.4693 29.1758 24.6648 26.7698 25.5671C24.9352 26.2558 24.3819 24.8904 23.0285 23.8588C21.6811 22.8332 20.2586 23.5671 20.4691 25.1159H20.4661Z" fill="white"/>
<path d="M21.7687 23.6805C22.1145 23.6805 22.4875 23.8248 22.8424 24.0925C23.1702 24.3421 23.4499 24.6128 23.7206 24.8745C24.3431 25.479 24.9326 26.0474 25.8529 26.0474C26.1687 26.0474 26.5025 25.9812 26.8724 25.8429C27.2664 25.6955 27.6363 25.6203 27.9702 25.6203C28.5206 25.6203 28.9145 25.8248 29.0258 26.1677C29.1371 26.5196 28.9536 27.112 28.0965 27.7226C27.0739 28.4534 26.0845 28.8233 25.1612 28.8233C23.2664 28.8233 22.0574 27.2865 21.5401 26.6308C21.2123 26.2128 20.8273 25.5451 20.7642 25.0699C20.704 24.6339 20.7942 24.2549 21.0138 24.0023C21.1972 23.7917 21.4649 23.6775 21.7687 23.6775M21.7687 23.3767C20.9356 23.3767 20.3191 24.0534 20.4634 25.109C20.5446 25.7045 21.0048 26.4384 21.3025 26.8173C21.8709 27.5391 23.1521 29.1241 25.1582 29.1241C26.0514 29.1241 27.089 28.8113 28.2679 27.9662C29.9822 26.7421 29.504 25.3196 27.9672 25.3196C27.6153 25.3196 27.2123 25.3948 26.7642 25.5602C26.4183 25.6895 26.1175 25.7466 25.8499 25.7466C24.692 25.7466 24.1206 24.688 23.0228 23.8519C22.5927 23.5241 22.1566 23.3767 21.7657 23.3767H21.7687Z" fill="black"/>
<path d="M23.1831 24.1265L21.4276 26.8164L21.6795 26.9808L23.435 24.2909L23.1831 24.1265Z" fill="black"/>
<path d="M24.6778 25.3491L23.1738 28.3564L23.4428 28.491L24.9468 25.4837L24.6778 25.3491Z" fill="black"/>
<path d="M26.7762 25.66L25.5732 28.9668L25.8559 29.0696L27.0588 25.7628L26.7762 25.66Z" fill="black"/>
<path d="M23.6093 17.7438C23.5612 17.7438 23.513 17.7198 23.483 17.6777C23.4739 17.6626 22.5356 16.2792 21.513 16.225C21.107 16.201 20.7461 16.3934 20.4153 16.7904C20.3612 16.8536 20.2679 16.8626 20.2048 16.8085C20.1416 16.7543 20.1326 16.6611 20.1867 16.598C20.5807 16.1258 21.0409 15.8972 21.5311 15.9243C22.707 15.9874 23.6935 17.4491 23.7356 17.5122C23.7807 17.5814 23.7627 17.6746 23.6935 17.7198C23.6694 17.7378 23.6394 17.7438 23.6093 17.7438Z" fill="black"/>
<path d="M28.7223 17.7436C28.6952 17.7436 28.6712 17.7376 28.6471 17.7225C28.5749 17.6804 28.5509 17.5872 28.593 17.518C28.605 17.5 29.6667 15.7586 32.1028 17.0819C32.1749 17.121 32.202 17.2143 32.1629 17.2865C32.1238 17.3586 32.0306 17.3857 31.9584 17.3466C29.784 16.1647 28.8877 17.6083 28.8516 17.6714C28.8246 17.7195 28.7734 17.7436 28.7223 17.7436Z" fill="black"/>
<path d="M30.3762 12.9325C30.8604 13.9009 29.7747 15.3385 29.7747 15.3385C29.7747 15.3385 33.083 15.6392 33.083 13.534C33.083 12.1896 31.5792 10.5265 31.5792 10.5265C33.083 11.128 34.8875 15.0798 34.8875 15.0798C34.8875 15.0798 34.286 11.128 31.5792 8.42119C31.5792 8.42119 28.8724 4.81217 24.0604 3.90991C22.3401 3.45578 21.1221 3.42871 21.1221 3.42871C18.7401 3.57006 16.8454 4.09638 15.3356 4.81518C13.7326 5.43773 8.27395 8.2257 5.78673 18.0452C2.8544 29.6242 5.56117 29.0227 2.8544 31.128C0.147633 33.2332 -1.95763 38.9475 3.75666 39.8498C3.75666 39.8498 6.6138 34.2858 12.4785 34.737C12.4785 34.737 13.3326 30.9686 13.9582 30.4483C14.3702 30.1054 11.7897 28.2468 10.2258 24.5174C11.3506 22.4452 13.3807 22.4092 14.283 18.8001C14.9055 16.3129 16.9055 11.0046 19.2454 10.8302C20.4935 10.737 16.2379 15.0407 16.2379 15.0407C16.2379 15.0407 19.907 16.5204 22.5536 14.1385C23.3416 13.4287 24.0574 12.334 23.907 10.3791L24.2529 11.2994C24.6018 12.2257 24.4544 13.2663 23.8649 14.0603L23.104 15.0859C23.104 15.0859 25.4228 15.8979 27.9702 14.743C31.2785 13.2392 26.4664 9.32946 26.4664 9.32946C26.4664 9.32946 29.4739 11.134 30.3762 12.9385V12.9325Z" fill="black"/>
<path d="M30.464 31.21C25.264 35.7904 19.1677 33.8566 19.1677 33.8566L18.3467 36.0912C23.7602 37.8957 25.4143 41.0656 25.4143 41.0656C32.482 42.431 29.1737 37.5949 29.0234 36.9122C28.873 36.2295 28.2715 35.4927 29.0234 34.2686C29.7753 33.0445 30.464 31.21 30.464 31.21Z" fill="black"/>
</g>
</g>
<defs>
<clipPath id="clip0_438_111">
<rect width="40" height="40" fill="white"/>
</clipPath>
</defs>
</svg>
