<svg width="40" height="41" viewBox="0 0 40 41" fill="none" xmlns="http://www.w3.org/2000/svg">
<circle cx="20" cy="20" r="20" fill="white"/>
<mask id="mask0_438_301" style="mask-type:alpha" maskUnits="userSpaceOnUse" x="0" y="0" width="40" height="40">
<circle cx="20" cy="20" r="20" fill="white"/>
</mask>
<g mask="url(#mask0_438_301)">
<path d="M28.8724 45.1127C28.8724 45.1127 27.0679 41.8044 24.9627 39.3984C22.7491 36.8691 19.5491 36.0901 19.5491 36.0901L20.2138 33.8255C21.8469 34.3578 23.5822 34.5352 25.3446 34.2886C32.4574 33.2901 37.2815 25.7473 36.1145 17.4405C34.9506 9.13374 28.2379 3.20893 21.1221 4.20743C14.0063 5.20592 9.18523 12.7488 10.3521 21.0555C10.8905 24.8931 12.6138 28.2255 15.0138 30.5984C15.0138 30.5984 13.8349 33.0826 13.5341 34.8871C13.5341 34.8871 8.42132 33.9849 4.81229 39.9999C3.16718 42.7428 2.70703 45.4134 2.70703 45.4134" fill="#FFF7EB"/>
<path d="M14.051 33.4141L14.0059 33.5135C14.0209 33.4863 14.036 33.4532 14.051 33.4141Z" fill="#1B1B1B"/>
<path d="M11.2959 24.2046C11.323 24.2799 11.3441 24.307 11.3531 24.307C11.323 24.2408 11.2989 24.1836 11.2959 24.2046Z" fill="#1B1B1B"/>
<path d="M10.9229 22.4785C10.9289 22.5147 10.9349 22.5478 10.9409 22.5809C10.9409 22.5418 10.9349 22.4996 10.9229 22.4785Z" fill="#1B1B1B"/>
<path d="M14.0508 33.4144L14.1654 33.1581C14.1412 33.1279 14.099 33.2847 14.0508 33.4144Z" fill="#1B1B1B"/>
<path d="M10.5809 35.4015L10.5025 35.4286C10.4844 35.4467 10.4663 35.4678 10.4512 35.489L10.5809 35.3984V35.4015Z" fill="#1B1B1B"/>
<path d="M7.57899 37.0736C7.64235 37.0253 7.60916 36.9409 7.60916 36.8926C7.59709 36.9499 7.5639 37.0012 7.51562 37.0495C7.52468 37.0615 7.5458 37.0706 7.582 37.0736H7.57899Z" fill="#1B1B1B"/>
<path d="M13.0107 35.083C13.0107 35.083 13.0298 35.1084 13.0425 35.1148C13.0425 35.1021 13.0298 35.0925 13.0107 35.083Z" fill="#1B1B1B"/>
<path d="M10.6074 19.2842C10.6074 19.2842 10.6074 19.2933 10.6074 19.2994C10.6196 19.3846 10.6166 19.3359 10.6074 19.2842Z" fill="#1B1B1B"/>
<path d="M29.9521 7.05031C29.732 6.78796 30.4466 7.30362 30.0968 6.93271C30.1119 6.98699 29.6505 6.76082 29.9521 7.05031Z" fill="#1B1B1B"/>
<path d="M30.0957 6.93192L30.0576 6.89062C30.0735 6.90651 30.083 6.91604 30.0957 6.93192Z" fill="#1B1B1B"/>
<path d="M11.8738 12.0869C11.8527 12.0959 11.8316 12.117 11.8105 12.1411C11.8196 12.1411 11.8346 12.1321 11.8738 12.0869Z" fill="#1B1B1B"/>
<path d="M10.4629 17.3955L10.481 17.2598C10.4689 17.3141 10.4659 17.3563 10.4629 17.3955Z" fill="#1B1B1B"/>
<path d="M13.1641 9.53393C13.2093 9.47661 13.2365 9.46152 13.2878 9.37402C13.2787 9.38006 13.2697 9.38609 13.2606 9.39213C13.2485 9.42833 13.2214 9.47057 13.1641 9.53393Z" fill="#1B1B1B"/>
<path d="M15.1341 7.30176C15.119 7.30778 15.0979 7.31682 15.0829 7.32585C15.0618 7.34693 15.0377 7.37103 15.0166 7.39211L15.1371 7.30176H15.1341Z" fill="#1B1B1B"/>
<path d="M19.9941 35.8525C19.979 35.8827 19.97 35.9037 19.9609 35.9188C20.0121 35.8736 20.1386 35.8857 19.9941 35.8525Z" fill="#1B1B1B"/>
<path d="M12.6885 9.04918L12.9952 8.6582C12.905 8.76347 12.7937 8.90783 12.6885 9.04918Z" fill="#1B1B1B"/>
<path d="M35.741 25.3926L35.7139 25.504C35.7289 25.4618 35.741 25.4227 35.741 25.3926Z" fill="#1B1B1B"/>
<path d="M13.9464 7.52474C14.0278 7.4795 14.1092 7.42824 14.1846 7.36491C14.1936 7.34682 14.2087 7.32571 14.2087 7.30762C14.1213 7.37999 14.0308 7.44935 13.9434 7.52172L13.9464 7.52474Z" fill="#1B1B1B"/>
<path d="M22.8451 37.0223C22.436 36.7727 22.5985 37.0013 22.4781 37.0043C21.9699 36.7576 22.2887 36.8058 22.1473 36.6644C21.8195 36.5231 21.5308 36.499 21.2932 36.3877C21.2842 36.3637 21.2391 36.3366 21.3022 36.3396C21.1157 36.3035 20.8601 36.1952 20.5924 36.099C20.4601 36.0479 20.3218 36.0058 20.1924 35.9697C20.1594 35.9607 20.1263 35.9546 20.0962 35.9456C20.0812 35.9456 20.0691 35.9456 20.0541 35.9456C20.027 35.9456 19.9939 35.9456 19.9578 35.9516C19.9518 35.9396 19.9548 35.9306 19.9578 35.9246C19.9338 35.9757 19.9067 36.0238 19.8616 36.0539C19.8075 36.0388 19.7473 36.0298 19.6872 36.0238C19.6751 35.9637 19.6992 35.8825 19.7563 35.8404C19.7263 35.9306 19.7563 35.9276 19.7774 35.9486V35.8223C19.9097 35.711 19.8015 35.9185 19.8466 35.9366C19.8616 35.9366 19.8766 35.9306 19.8887 35.9216H19.8736C19.8646 35.8855 19.8736 35.8343 19.8736 35.7802L19.8797 35.693C19.8887 35.6419 19.8977 35.5907 19.9067 35.5396C19.9458 35.3321 19.9879 35.1366 20.0481 34.9892C20.1654 34.9531 19.8676 35.7231 20.0782 35.3351L19.9879 35.5697L19.9428 35.687C19.9308 35.7201 19.9248 35.7261 19.9157 35.7501C19.9669 35.714 19.9909 35.711 20 35.711C20.006 35.7291 20 35.7291 20 35.7441C19.9909 35.7742 19.9879 35.7802 20.0842 35.7531L20.0902 35.7471L20.1082 35.696C20.1203 35.6599 20.1293 35.6268 20.1383 35.5967C20.1563 35.5336 20.1714 35.4764 20.1894 35.4223C20.2165 35.317 20.2375 35.2268 20.2556 35.1366C20.2947 34.9561 20.3338 34.7757 20.4421 34.4659C20.436 34.3847 20.412 34.3967 20.3879 34.3998C20.3609 34.4118 20.3458 34.3937 20.3278 34.3546C20.3308 34.2975 20.3428 34.2404 20.3548 34.1982C20.3609 34.1772 20.3669 34.1592 20.3729 34.1441C20.3729 34.1201 20.403 34.1501 20.418 34.1531C20.4842 34.1922 20.5263 34.2373 20.5473 34.2734C20.5594 34.2915 20.5654 34.3095 20.5714 34.3246C20.5864 34.3426 20.6375 34.3667 20.6766 34.3847C20.7639 34.4238 20.8842 34.4479 21.0616 34.4569C21.2571 34.4298 21.3503 34.3246 21.8255 34.481L21.636 34.5652C22.2827 34.6855 22.027 34.4689 22.6977 34.6253C22.5714 34.6584 22.1834 34.6073 22.2797 34.6313C22.7097 34.7727 22.5984 34.6043 22.9383 34.6313L23.0015 34.7396C23.7022 34.7697 24.4721 34.6825 25.227 34.5622C25.1879 34.5982 25.0616 34.6464 25.2451 34.6554C25.4857 34.6103 25.7323 34.5652 25.9849 34.517C26.2345 34.4659 26.4872 34.4118 26.7428 34.3607C27.2451 34.2373 27.7413 34.108 28.1924 33.9546L28.4902 33.7321C28.5684 33.699 28.6496 33.708 28.5744 33.7592C28.9233 33.6358 28.5684 33.702 28.7127 33.5937C28.8962 33.4975 28.9804 33.5185 28.8751 33.5998C29.1518 33.4283 29.5368 33.1727 29.9188 32.914C30.3007 32.6554 30.6797 32.3847 30.9774 32.2163C30.9473 32.2494 30.9203 32.2855 30.8902 32.3185C31.3263 32.0148 31.2481 31.8133 31.6601 31.5486L31.6 31.6238C32.0451 31.2659 32.4481 30.8178 32.83 30.3967C33.1969 29.9637 33.5308 29.5516 33.8315 29.2298C33.8225 29.1246 34 28.902 34.1473 28.6764C34.2947 28.4479 34.43 28.2283 34.3729 28.1531C34.7578 27.6238 34.7127 27.8103 35.1669 27.0073C35.2751 26.7847 35.212 26.6253 35.3142 26.3426L35.4015 26.3697C35.4255 26.2313 35.4406 26.09 35.4586 25.9516L35.6391 25.7862C35.6661 25.696 35.6932 25.6028 35.7112 25.5095C35.6721 25.6148 35.5909 25.7231 35.5729 25.696C35.6842 25.2659 35.9699 24.6915 36.015 24.6885C36.0902 24.3456 36.1473 23.9967 36.1985 23.6509C36.2285 23.681 36.2015 23.8554 36.1924 23.9967C36.2255 23.4283 36.3157 23.9185 36.3398 23.3952C36.3067 23.4584 36.2917 23.3471 36.2766 23.3321C36.3278 23.2118 36.3819 23.0073 36.427 22.7817C36.4631 22.5531 36.4962 22.3005 36.5142 22.084L36.5654 22.1742C36.6797 21.3982 36.6887 20.5291 36.6797 19.6539C36.6526 19.9697 36.5443 19.8945 36.5293 19.6419L36.6255 19.5366C36.5594 19.3742 36.5954 19.8043 36.5112 19.4674C36.5112 19.1426 36.6165 19.2449 36.6526 19.4313L36.6075 19.0343C36.6345 19.0103 36.6556 19.1005 36.6917 19.1246C36.6315 18.9652 36.7428 18.4298 36.6225 18.2043L36.6496 18.1802C36.5503 17.308 36.4601 16.917 36.3127 16.2193C36.2255 16.2223 36.1924 15.9456 36.0751 15.7561C35.9789 15.2449 35.8917 14.6644 35.6781 14.0719C35.4917 13.6689 35.5669 13.9727 35.4556 13.8043C35.5248 13.7441 35.2842 13.1637 35.4556 13.4464C35.3112 13.0975 35.221 12.8719 35.0977 12.6343C35.0375 12.514 34.9744 12.3907 34.8992 12.2434C34.815 12.099 34.7188 11.9336 34.5985 11.7261C34.6165 11.8343 34.6556 11.9426 34.6075 11.9005C34.5203 11.7531 34.4601 11.5366 34.5022 11.5396L34.5323 11.5757C34.2255 11.1336 33.9669 10.5712 33.6721 10.0539C33.5308 9.79223 33.3804 9.54261 33.221 9.32306C33.0676 9.1005 32.8992 8.91404 32.7338 8.77268L32.7699 8.80577C32.5654 8.58922 32.3428 8.39373 32.1233 8.19223C31.8586 7.87945 32.3308 8.33358 32.1624 8.07795C31.4105 7.47043 31.0917 6.99825 30.421 6.56516C30.2496 6.28546 29.8075 5.95764 29.3142 5.66592C28.824 5.36817 28.2827 5.10652 27.9368 4.86592L27.9578 4.93509C27.7413 4.88998 27.7383 4.79073 27.5969 4.71855C27.603 4.76366 27.7894 4.85689 27.6571 4.82682C26.818 4.48095 25.9308 4.16817 25.0105 3.94862C24.0902 3.72907 23.1308 3.60576 22.1834 3.62381C21.4917 3.64787 21.8165 3.91554 20.9503 3.89148C21.0255 3.84336 21.1007 3.79825 21.1789 3.75915C20.4992 3.91253 19.8105 4.05689 19.1398 4.27043C18.4721 4.48697 17.8195 4.75464 17.2451 5.11253C17.3052 5.05539 17.2962 5.02832 17.4135 4.97118C17.1188 5.02832 16.4842 5.47945 16.5172 5.53659C16.3368 5.64486 16.4481 5.51855 16.3218 5.56366C16.0511 5.67795 15.7804 6.04486 15.615 6.07494C15.5879 6.08095 15.6661 6.00877 15.7052 5.97268C15.5669 6.10201 15.0135 6.50201 15.206 6.45388C14.7879 6.74261 14.5022 7.11554 14.1864 7.36516C14.0601 7.60877 13.5669 7.96967 13.606 8.11404C13.5248 7.99373 12.9563 8.72456 12.83 9.02531C12.8601 8.91404 12.6315 9.22381 12.6586 9.08847C12.4571 9.39223 12.2917 9.68396 12.3849 9.66892C11.8887 10.1531 11.8165 10.887 11.4736 11.1306C11.0616 12.1321 10.7669 13.0855 10.5413 14.0178C10.4812 13.9847 10.5443 13.7231 10.6195 13.4764C10.6947 13.2298 10.7699 12.9922 10.6947 12.9892C10.4511 13.8825 10.4391 14.4208 10.2255 15.299C10.1624 15.5276 10.1924 15.1576 10.1834 15.0734C10.0511 15.9787 9.88868 16.8238 9.91875 17.6388C9.90672 17.6388 9.8977 17.5486 9.89168 17.4644C9.88868 17.6238 9.84958 17.8373 9.91274 17.8193L9.90371 17.6629C9.95484 17.5366 9.99394 17.699 10.024 17.8945C10.0571 18.09 10.0932 18.3155 10.1172 18.3306C9.94281 18.0569 10.0661 19.1246 9.84356 18.6975C9.85559 18.8028 9.89168 18.9351 9.93078 18.911C9.92477 19.0674 9.90071 19.1185 9.84958 18.9591C9.90371 19.5306 9.95183 19.3261 9.98792 19.8404C9.95785 19.8404 9.9398 19.7381 9.90071 19.687C9.98191 19.9456 10.0451 20.2043 10.0781 20.6404C10.0571 20.6163 10.0391 20.6704 10.024 20.5411C10.1112 21.29 10.3518 21.7832 10.4691 22.5952C10.2857 22.3877 10.4932 22.8749 10.3939 22.9471C10.4421 23.0885 10.4842 23.2298 10.5383 23.3682L10.5443 23.1817C10.6496 23.5546 10.815 23.8644 10.8902 24.1892L10.7548 23.9306L11.0045 24.6133C10.9714 24.481 10.9443 24.3456 10.9142 24.2103C11.0947 24.5622 11.0315 24.1261 11.1729 24.6193C11.1248 24.5261 11.3052 24.9802 11.3172 25.1907C11.4255 25.3531 11.5368 25.5185 11.621 25.7892C11.621 25.8704 11.4827 25.7862 11.4827 25.8404C11.6451 25.9727 11.8917 26.6524 12.0992 26.8118C12.0421 26.7516 11.9879 26.7757 11.9879 26.8058L12.1293 26.911C12.1894 27.0825 12.1954 27.1095 12.1383 27.1065C12.3939 27.5817 12.1774 26.89 12.4421 27.4734C12.412 27.4343 12.415 27.4584 12.3518 27.3742C12.6436 27.9486 13.0436 28.4028 13.3624 28.899C13.3744 29.1095 13.0345 28.499 13.0766 28.7155C13.3353 29.0584 13.633 29.3892 13.9338 29.708C14.0872 29.8644 14.2406 30.0208 14.3909 30.1742C14.4631 30.2524 14.5413 30.3246 14.6165 30.4028L14.7097 30.499L14.7789 30.5772L14.7188 30.496C14.7849 30.481 14.8541 30.5411 14.9022 30.6163C14.8511 30.7005 14.7909 30.7727 14.7308 30.8659C14.6616 30.9802 14.5985 31.1065 14.5684 31.2358C14.5985 31.1366 14.5413 31.0795 14.5443 31.1095C14.3007 31.6178 14.1323 32.1862 13.9037 33.0073V32.893C13.7563 33.1937 13.606 33.717 13.5007 34.0659C13.5127 34.1802 13.4616 34.3787 13.5458 34.2704C13.5097 34.3546 13.4736 34.4358 13.4375 34.514C13.4105 34.5712 13.4015 34.6343 13.3744 34.6734C13.3052 34.6584 13.2451 34.6494 13.1819 34.6494H13.0556H12.8932C12.6766 34.6524 12.4691 34.6855 12.2616 34.7095C12.0571 34.7426 11.8526 34.7727 11.6511 34.7998C11.4526 34.8358 11.2481 34.8479 11.0436 34.8569C11.1578 34.8238 11.3142 34.7667 11.221 34.7817C10.9473 34.8509 10.6766 34.9411 10.409 35.0313C10.4932 35.0734 10.5263 35.0373 10.7127 35.0464C10.6676 35.0795 10.5894 35.1185 10.4992 35.1576C10.412 35.2028 10.3097 35.2479 10.2135 35.281C10.5503 35.1125 10.1774 35.1757 10.006 35.1937C10.0391 35.2058 9.99394 35.2449 10.015 35.2599C9.55785 35.293 9.99695 35.4103 9.4195 35.5697L9.43153 35.5246C9.33229 35.5787 9.24206 35.6389 9.14883 35.696C9.0586 35.7592 8.96838 35.8223 8.8601 35.8764C8.73379 35.8554 9.04657 35.7261 9.03153 35.6599C8.88417 35.7471 8.75785 35.8614 8.63153 35.9667C8.50221 36.0689 8.37589 36.1622 8.23153 36.2193C8.33379 36.114 8.51123 36.0088 8.62552 35.9216C8.28266 36.0028 8.26762 36.0539 8.05409 36.1832L8.07514 36.1712L7.57589 36.4689L7.71123 36.4058C7.59394 36.6043 7.44958 36.7667 7.26612 36.914C7.09168 37.0674 6.88116 37.2148 6.7398 37.4764C7.03454 36.9862 6.75183 37.3561 6.71574 37.2599C6.59544 37.3471 6.42101 37.4885 6.44507 37.4253C6.37589 37.5486 6.28868 37.6208 6.18943 37.705C6.09319 37.7892 5.98792 37.8855 5.91274 38.0749C5.87965 38.0689 5.72928 38.3005 5.71123 38.2043C5.50672 38.496 5.80447 38.1712 5.81349 38.2193C5.68717 38.4659 5.44958 38.6825 5.23304 38.9591C5.0195 39.2358 4.79093 39.5426 4.63454 39.9035C4.34883 40.514 4.37589 40.6674 4.14432 41.2419C4.01198 41.4073 4.12326 41.0404 4.12326 41.0404C3.93379 41.3231 3.83153 41.5576 3.73529 41.8614C3.73529 41.7922 3.69018 41.8434 3.62101 41.9186C3.52777 42.1592 3.65409 42.117 3.48567 42.4118C3.47665 42.3456 3.4586 42.2584 3.47364 42.1321C3.38041 42.4208 3.32627 42.7185 3.24507 43.0223C3.16988 43.0825 3.23304 42.8178 3.24507 42.7035C3.1398 43.0404 2.98642 43.5787 3.03153 43.705L3.12777 43.5005C3.09168 43.6238 3.04056 43.5426 3.05559 43.4464C3.08868 43.1396 3.22402 43.0464 3.2571 43.0404L3.19996 43.2539C3.43454 43.0975 3.47665 42.4118 3.66311 42.0028L3.70823 42.2223C3.73229 42.0689 3.76236 41.9155 3.79244 41.7622C3.86161 41.687 3.95183 41.6569 3.87965 41.8614C4.06612 41.5998 3.95183 41.5847 4.13229 41.3712C4.15635 41.3501 4.15334 41.3652 4.14732 41.3922L4.24958 41.0975C4.24657 41.1637 4.35183 41.0915 4.24958 41.2539C4.55935 40.7907 4.58041 40.4178 4.76988 40.2825L4.75484 40.3276C4.92627 39.9817 4.92326 39.9607 4.89319 39.9486C4.86311 39.9366 4.81198 39.9426 4.92928 39.6689L5.33229 39.4674L5.2992 39.3531C5.34432 39.29 5.43755 39.1607 5.45259 39.2058C5.56386 38.9231 5.39244 39.2238 5.43755 39.0464C5.72627 38.7847 6.06311 38.1922 6.22552 38.2163C6.2586 38.0629 5.95484 38.4659 6.17439 38.117C6.36086 38.1291 6.48116 37.7561 6.77289 37.5516C6.75484 37.687 6.4962 37.8915 6.79093 37.693C6.81499 37.5727 6.93529 37.4494 7.08266 37.3441C7.23304 37.2449 7.40146 37.1486 7.50071 37.0434C7.47063 36.9982 7.58492 36.884 7.75033 36.7426C7.92777 36.6163 8.15935 36.4629 8.35183 36.3065C8.35183 36.3185 8.39995 36.2945 8.47815 36.2494C8.56236 36.2103 8.67965 36.1501 8.80898 36.087C8.9383 36.0208 9.08266 35.9516 9.218 35.8825C9.35935 35.8283 9.49469 35.7772 9.60296 35.7381L9.59695 35.7592C9.61499 35.69 9.73229 35.6118 9.88266 35.5306C10.0421 35.4674 10.2315 35.3922 10.3909 35.3261C10.4 35.3922 10.3488 35.4373 10.1864 35.5276L10.4872 35.4223C10.5473 35.3592 10.6375 35.3201 10.836 35.2539L10.7789 35.3531C10.9834 35.299 11.1789 35.2118 11.4045 35.1637C11.5157 35.1366 11.63 35.1065 11.7533 35.0855C11.8766 35.0704 12.006 35.0614 12.1413 35.0584C12.1684 34.9802 11.6781 34.893 12.2646 34.7787C12.2887 34.8208 12.3157 34.884 12.1654 34.917C12.2135 34.902 12.3428 34.8689 12.4451 34.884L12.2165 34.9652C12.4691 34.9802 12.3428 34.899 12.5443 34.896C12.5443 34.9561 12.6947 34.9321 12.6676 34.9802C12.6165 34.9892 12.4932 34.9652 12.418 34.9922C12.6436 34.9862 12.9142 35.0283 12.9985 35.0734C12.9894 35.0554 12.9894 35.0373 13.0135 35.0193C13.0406 35.0043 13.0736 34.9922 13.1879 34.9952C13.6962 35.0434 13.4857 35.0855 13.7112 35.1486C13.7263 35.1456 13.7293 35.1095 13.7413 35.0734C13.7353 34.887 13.8526 34.496 13.7684 34.481C13.7985 34.3607 13.8436 34.3456 13.8766 34.3065C13.8857 34.084 14.1473 33.311 13.9849 33.5216L13.9639 33.5757C13.9639 33.5757 13.9669 33.5516 13.9699 33.5396C14.1022 32.8118 14.5142 32.1201 14.7639 31.4373L14.7909 31.4494C14.836 31.317 14.8902 31.1787 14.9443 31.0404C15.0105 30.8779 15.0797 30.7155 15.1398 30.5682C14.9985 30.4298 14.8541 30.3035 14.7669 30.2464C14.6766 30.1531 14.5985 29.9907 14.6616 30.0058C14.43 29.7712 14.3669 29.7742 14.1022 29.3742C14.3518 29.5967 14.0631 29.2599 14.3488 29.6088C14.0932 29.2629 14.0661 29.1667 13.7233 28.8479C13.8797 28.9261 13.603 28.5381 13.4706 28.3817C13.5097 28.4749 13.5548 28.5652 13.603 28.6554C13.4526 28.481 13.3533 28.3065 13.2421 28.1381L13.3864 28.1712C13.0015 27.3922 12.3729 26.9411 12.2526 26.2524C12.0842 26.0779 12.427 26.6945 12.2586 26.5501C12.0781 26.1892 12.0451 25.7411 11.9879 25.6298C11.8285 25.1035 11.6451 25.2178 11.4797 24.6614C11.4736 24.7426 11.4075 24.8419 11.224 24.4479C11.1097 24.0569 11.209 23.9276 11.3172 24.1592C11.3503 24.2494 11.3533 24.2975 11.3413 24.2975C11.3924 24.4178 11.4706 24.5712 11.4496 24.4088L11.3985 24.3727C11.3714 24.1712 11.1939 23.6479 11.2902 23.7531C11.1729 23.4734 11.1939 23.6479 11.2451 23.8674C11.1428 23.3592 11.0135 23.0945 10.9263 22.5712C10.9263 22.6584 10.9052 22.7426 10.8842 22.6614C10.7518 21.8915 10.7458 22.3396 10.6195 21.8253C10.6195 21.5185 10.7609 21.9095 10.6315 21.3922C10.6165 21.0674 10.7127 21.311 10.7639 21.4313C10.6105 20.9682 10.6887 20.5351 10.6646 20.2614L10.7218 20.508C10.6887 20.3607 10.6706 20.2373 10.6646 20.111L10.6045 20.2614C10.6045 20.111 10.5954 19.9877 10.6255 19.9877C10.5684 19.8373 10.5172 20.114 10.43 19.8133C10.4451 19.6118 10.3548 19.2058 10.4511 19.1336C10.4391 19.7622 10.5383 19.0614 10.5804 19.5877C10.5594 19.4885 10.5594 19.3622 10.5654 19.2118C10.5744 19.1877 10.5864 19.2328 10.5924 19.2719C10.6646 18.6764 10.4631 19.0013 10.4751 18.3817C10.5263 18.4599 10.5774 18.2404 10.5684 18.1381C10.5654 18.3877 10.4781 18.2554 10.4391 18.0238C10.4992 17.6268 10.43 17.5907 10.4481 17.3802L10.415 17.6178C10.3699 17.5336 10.3759 17.3321 10.3909 17.0554C10.436 17.0343 10.3939 17.311 10.421 17.2118C10.3609 16.893 10.5804 16.5261 10.5864 16.093C10.6496 15.9005 10.6887 16.09 10.7368 15.9185C10.7518 15.4343 10.8932 15.4193 10.9473 14.917C10.8451 15.0434 10.8541 15.0734 10.8691 14.7095C10.818 14.9832 10.7789 15.2569 10.7488 15.5336C10.7488 15.3531 10.7428 15.1697 10.7488 14.9892C10.6917 15.2358 10.6917 15.5216 10.6496 15.6659C10.6406 15.4043 10.6496 15.4343 10.5714 15.5426C10.7368 15.2208 10.6436 14.8539 10.809 14.481L10.9774 14.5351C11.203 13.9817 11.1639 13.4855 11.4797 12.7727L11.3624 12.9952C11.3353 12.8749 11.5188 12.5411 11.5909 12.3005C11.636 12.3456 11.7172 12.2073 11.7954 12.1261C11.7473 12.117 12.027 11.6118 11.9578 11.4975L12.1804 11.2208C12.5022 10.6855 12.3699 10.508 12.7067 10.0028C12.6676 10.1922 12.8451 9.9817 12.6736 10.3486C12.7789 10.1772 12.8812 10.0298 12.8481 10.0058C12.9443 9.93058 13.0887 9.49749 13.2451 9.3802C13.2751 9.29599 13.2421 9.23885 13.3804 9.0584C13.4045 9.04637 13.4045 9.07644 13.4045 9.07644C13.3804 9.0584 13.5849 8.76667 13.4135 8.88697C13.6812 8.7005 13.9488 8.36065 14.2375 8.04486C14.3759 7.88246 14.5233 7.73509 14.6646 7.60577C14.803 7.47343 14.9413 7.37118 15.0676 7.31103C15.224 7.15764 15.3954 6.98622 15.5789 6.83584C15.7563 6.67644 15.9368 6.53208 16.0992 6.41779C16.0902 6.44787 16.1142 6.44185 16.0511 6.48095C16.5263 6.20426 16.2285 6.1411 16.7909 5.84937C17.1127 5.75915 16.5383 6.07193 16.7248 5.99674C16.812 6.05689 16.9654 5.94561 17.1578 5.82231C17.3473 5.69298 17.5729 5.53659 17.7894 5.5005L17.7052 5.55464C18.018 5.47043 18.3759 5.14561 18.8751 4.9802C18.8751 4.9802 18.8571 5.00426 18.8812 5.01028C19.1789 4.78772 19.8285 4.55614 20.3218 4.42682C20.1834 4.5381 20.1052 4.51704 20.2165 4.57118C20.436 4.51103 20.1233 4.4599 20.5654 4.34561C20.7188 4.36065 21.0496 4.34561 21.1037 4.41779L20.6857 4.49298C20.9172 4.55915 21.227 4.39373 21.4526 4.39674L21.4285 4.44787C21.7503 4.39975 21.9097 4.35764 22.0812 4.32155C22.2496 4.28246 22.427 4.24035 22.7789 4.25238L22.7067 4.21629C23.0947 4.10201 23.0285 4.27945 23.4165 4.2193L23.5248 4.34561C23.7774 4.32757 24.421 4.32456 24.8751 4.39373C24.7398 4.41479 24.5383 4.40877 24.3308 4.40276C24.1233 4.40276 23.9067 4.40877 23.7413 4.40877C23.8646 4.42381 24.0751 4.44787 24.2706 4.46291C24.4661 4.48095 24.6496 4.50201 24.7188 4.48396C24.6165 4.47795 24.4872 4.48396 24.3939 4.44787C24.5533 4.42982 24.7338 4.42682 24.9383 4.44186C25.1428 4.4599 25.3654 4.50802 25.612 4.56516C25.5398 4.6614 25.8496 4.76967 26.2105 4.88697C26.3879 4.95614 26.5804 5.02832 26.7458 5.1005C26.9082 5.17569 27.0406 5.26291 27.1067 5.33509C27.9488 5.60276 28.6586 6.12907 29.4977 6.70652C29.3022 6.35163 29.7473 6.87193 29.8015 6.69449C30 6.83283 30.0721 6.88998 30.0812 6.91103C30.2556 7.08546 30.409 7.27795 30.5744 7.4584C30.6706 7.60877 30.3729 7.34411 30.3639 7.38922C30.7518 7.73509 30.4812 7.58772 30.7007 7.85539C30.6917 7.75915 30.8992 7.90652 31.0947 8.13208C31.0165 8.01178 30.9293 7.9005 30.8481 7.78321C31.1518 7.99373 31.233 8.1381 31.3172 8.27644C31.4015 8.4178 31.4857 8.55313 31.7654 8.79373L31.5669 8.6614C31.8556 8.90802 32.4691 9.70802 32.7969 9.92757C32.821 9.99373 32.833 10.093 32.7218 9.96968C33.2391 10.7005 33.9548 11.5757 34.1804 12.2554L34.1082 12.2133C34.1924 12.3576 34.3218 12.4358 34.3639 12.6524C34.3428 12.6524 34.2947 12.6103 34.3248 12.6825C34.3729 12.7576 34.5864 13.0584 34.6436 13.2779C34.6045 13.2238 34.5654 13.1727 34.5233 13.1216C34.6616 13.5426 34.821 13.8404 34.9594 14.1321C35.1097 14.4208 35.2481 14.6945 35.3684 15.0494C35.2481 15.0825 35.3804 15.7652 35.4345 16.108L35.4135 16.099C35.618 17.1005 35.8345 17.7952 35.9548 18.7456C35.9338 18.896 35.9218 19.0975 35.9127 19.3261C35.9097 19.5576 35.9097 19.8193 35.8977 20.09C35.8977 20.3637 35.8827 20.6464 35.8586 20.9201C35.8436 21.1937 35.8015 21.4584 35.7594 21.69C35.7985 21.5486 35.8586 21.7231 35.8556 21.8945C35.8015 22.111 35.8586 22.5201 35.7443 22.4659L35.7563 22.3877C35.621 22.5381 35.5669 22.9892 35.4977 23.3381L35.6391 23.4283C35.4225 23.8614 35.2992 24.4569 35.1398 24.9952C35.0676 25.2659 34.9894 25.5216 34.9022 25.7321C34.821 25.9456 34.7308 26.114 34.6315 26.2103C34.5804 26.4328 34.4691 26.6885 34.403 26.905L34.3308 26.8569C34.1894 27.1336 34.0721 27.3351 33.9458 27.5546C33.8285 27.7772 33.6872 28.0058 33.4947 28.3396L33.5248 28.1742C33.2932 28.5351 33.4345 28.7667 33.206 29.1035L33.0315 29.1246C32.5834 29.7411 32.003 30.2434 31.5428 30.8389C31.5398 30.8178 31.5278 30.7757 31.612 30.6855C31.4887 30.8148 31.218 31.0253 31.0075 31.2148C30.7939 31.3982 30.6315 31.5516 30.7368 31.5817C30.6616 31.5035 30.1203 32.0539 29.7924 32.3125L29.8015 32.2073C29.5699 32.484 29.5789 32.5231 29.1669 32.7847C29.0616 32.8328 29.0466 32.7757 29.1909 32.7185C28.8391 32.8689 28.9654 32.9321 28.5293 33.1005L28.6616 32.9742C28.3067 33.1456 28.3458 33.1516 28.1714 33.296C27.9578 33.4343 27.4646 33.5546 27.3864 33.5005C27.3533 33.5637 27.1669 33.696 26.9353 33.7351C26.8962 33.717 26.9744 33.6749 27.0105 33.6539C26.8481 33.687 26.7097 33.7261 26.5894 33.7682C26.4661 33.8043 26.3548 33.8404 26.2496 33.8764C26.0421 33.9516 25.8526 34.0058 25.621 33.9998C25.606 33.9727 25.5759 33.9667 25.5368 33.9637C26.0541 33.8915 26.4571 33.7712 26.424 33.7952C26.403 33.7201 25.9969 33.8013 26.2947 33.6238C25.9879 33.7622 25.4436 33.9907 25.0285 34.0028C25.0075 33.9967 24.9894 33.9937 24.9714 33.9817L25.0135 33.9667C24.9203 33.9727 24.836 33.9847 24.7578 34.0058C24.6285 34.0058 24.5443 33.9998 24.418 34.0058C24.3669 33.9486 23.9398 33.9937 23.7323 33.9877C23.7503 34.0749 23.4736 34.0569 23.7323 34.1291C23.6992 34.1231 23.7714 34.1201 23.9127 34.114C23.9428 34.114 23.9819 34.111 24.003 34.105C24 34.105 23.9939 34.111 23.9879 34.114C24.1263 34.105 24.3067 34.102 24.5082 34.084C24.3458 34.1381 24.1714 34.1832 23.9368 34.1411C23.8285 34.1952 23.7082 34.2554 23.6421 34.2795C23.3503 34.1652 22.803 34.0599 22.7338 33.9787C22.0932 33.9727 21.2481 33.7832 20.818 33.8253C20.6496 33.7982 20.5894 33.714 20.4962 33.6599C20.5714 33.6779 20.6526 33.696 20.7278 33.711C20.7789 33.7201 20.824 33.7291 20.8541 33.7261C20.806 33.717 20.7639 33.711 20.6977 33.696C20.6165 33.6749 20.5293 33.6539 20.4421 33.6298C20.3548 33.6058 20.2676 33.5817 20.1804 33.5576L20.0511 33.5216C20.0511 33.5216 20.0391 33.5185 20.036 33.5185V33.5366L20.024 33.5697L20.006 33.6358C19.9157 33.9877 19.8526 34.2825 19.9007 34.3125C19.7203 34.7486 19.8766 34.0298 19.7112 34.6554L19.7022 34.5622C19.5849 34.8208 19.5037 35.0674 19.4436 35.305C19.4105 35.4494 19.3774 35.5937 19.3443 35.7321C19.3082 35.9065 19.2631 36.0779 19.2451 36.2283C19.4827 36.2734 19.7052 36.3095 19.9037 36.3607C20.0601 36.3937 20.2015 36.4298 20.3548 36.4779C20.6586 36.5742 20.9714 36.7185 21.2932 36.9381C21.212 36.887 21.1699 36.8599 21.1609 36.8358C21.8616 37.2088 22.5804 37.5967 23.2451 38.0629C23.9127 38.5291 24.5082 39.0855 24.9533 39.7351C25.218 40.093 25.2962 40.093 25.5127 40.2704L25.5007 40.4028L25.8676 40.7095C26.3308 41.1967 26.3699 41.7622 26.9563 42.3757L26.9473 42.2524C27.1067 42.508 27.5037 43.0313 27.4165 43.0283C27.4436 43.0494 27.5248 43.0764 27.5609 43.1937L27.5248 43.2268L27.9849 43.8133C28.2526 44.3246 27.7804 43.8343 28.1985 44.5561C28.3729 44.8148 28.7578 45.2569 28.7278 45.1396C28.6706 45.0283 28.5954 44.8449 28.6345 44.8148L28.7969 45.0524C28.9443 45.0313 29.1819 45.1546 28.9142 44.487L28.5924 44.105L28.5684 43.9336L28.7849 44.2885C28.7218 44.0509 28.5954 43.9516 28.4751 43.8283C28.4872 43.7742 28.4721 43.702 28.433 43.6118L28.0661 43.2689C28.0812 43.1907 28.2736 43.3952 28.1263 43.1035C27.9518 42.9441 28.1383 43.3531 27.9037 43.0554C27.8315 42.8238 27.9097 42.8539 27.7172 42.6494C27.7263 42.5982 27.7774 42.6343 27.8496 42.7185C27.6812 42.5321 27.4766 42.1802 27.3443 42.117C27.2721 41.8674 26.8571 41.4404 26.9804 41.3862C26.9082 41.3411 26.6466 41.0885 26.5052 40.911C26.8812 41.1516 26.006 40.2223 26.2045 40.2103C25.9067 40.0509 25.4676 39.3712 25.0285 39.0163C25.0586 39.0313 25.1157 39.0614 25.1458 39.1005C24.9383 38.8629 24.9082 38.7667 24.7879 38.6013C24.6706 38.6614 24.3097 38.3336 24.0571 38.2313C23.8375 37.9005 24.3248 38.2734 24.3037 38.114C24.2556 38.1982 23.7263 37.7592 23.7774 37.9065C23.5849 37.6779 23.5969 37.7291 23.5338 37.5607C23.4075 37.6479 23.2992 37.4193 23.0436 37.3622C22.7308 37.0674 23.0285 37.1847 22.6075 36.9802C22.4391 36.8268 22.824 36.9952 22.824 36.9952L22.8451 37.0223ZM25.227 34.5321C25.1338 34.5471 25.0526 34.5592 25.0015 34.5652C25.0496 34.5592 25.1127 34.5471 25.224 34.5321H25.227ZM26.1353 34.3787C26.027 34.4058 25.8857 34.4208 25.7413 34.4479C25.7052 34.4238 25.7353 34.3877 25.8255 34.3757C25.7804 34.3998 25.9969 34.3877 26.1353 34.3787ZM24.1834 34.0298C24.3218 34.0118 24.3669 34.0298 24.3879 34.0419C24.3218 34.0479 24.2466 34.0539 24.1473 34.0629C24.1443 34.0629 24.1353 34.0719 24.1323 34.0749C24.1443 34.0569 24.1594 34.0419 24.1864 34.0298H24.1834Z" fill="#1B1B1B"/>
<path d="M23.9343 34.1446C23.9132 34.1446 23.9041 34.1507 23.877 34.1507C23.9071 34.1567 23.9343 34.1627 23.9614 34.1688C23.9795 34.1597 23.9946 34.1507 24.0097 34.1416C23.9856 34.1416 23.9584 34.1416 23.9343 34.1416V34.1446Z" fill="#1B1B1B"/>
<path d="M14.0005 33.5318L14.0069 33.5127C14.0069 33.5127 13.991 33.5413 13.9814 33.5476C13.9878 33.5349 13.991 33.5381 13.9973 33.5286L14.0005 33.5318Z" fill="#1B1B1B"/>
<path d="M35.4219 26.3732L35.4008 26.3672L35.3857 26.4485L35.4219 26.3732Z" fill="#1B1B1B"/>
<path d="M10.0068 35.197C10.0068 35.197 9.97364 35.191 9.9375 35.197C9.94352 35.2 9.97063 35.197 10.0068 35.197Z" fill="#1B1B1B"/>
<path d="M8.05753 36.1855L7.78613 36.3393C7.90675 36.276 7.99119 36.2278 8.05753 36.1855Z" fill="#1B1B1B"/>
<path d="M6.72197 37.2129C6.71582 37.2406 6.72197 37.2529 6.72197 37.2652L6.71582 37.2129H6.72197Z" fill="#1B1B1B"/>
<path d="M9.89145 17.4715C9.89145 17.4474 9.89145 17.4262 9.89145 17.4051C9.8824 17.2512 9.88542 17.3568 9.89145 17.4715Z" fill="#1B1B1B"/>
<path d="M11.3181 25.1978C11.2728 25.1254 11.2306 25.053 11.1914 24.9746C11.2366 25.1073 11.2728 25.2128 11.3181 25.1978Z" fill="#1B1B1B"/>
<path d="M12.6553 9.09359C12.6553 9.09359 12.6772 9.06544 12.6897 9.0498L12.6553 9.09359Z" fill="#1B1B1B"/>
<path d="M11.0615 24.6289C11.0947 24.7676 11.1399 24.8762 11.1912 24.9727C11.155 24.8611 11.1158 24.7314 11.0615 24.6289Z" fill="#1B1B1B"/>
<path d="M5.96743 38.6074L5.60352 39.0225C5.69073 38.9683 5.80201 38.8931 5.65765 39.0946C6.16291 38.6104 5.50728 39.1608 5.96743 38.6074Z" fill="#1B1B1B"/>
<path d="M7.14861 37.3834C6.94356 37.5945 7.18178 37.4135 7.1848 37.4407C7.30542 37.2989 7.33558 37.2627 7.14861 37.3834Z" fill="#1B1B1B"/>
<path d="M14.6138 29.9013L14.6891 29.8712C14.5295 29.7086 14.665 29.8893 14.6138 29.9013Z" fill="#1B1B1B"/>
<path d="M12.8359 28.2617L12.9264 28.4788L13.047 28.5271L12.8359 28.2617Z" fill="#1B1B1B"/>
<path d="M12.5813 26.7802L12.6386 26.8616C12.5662 26.7561 12.5059 26.6475 12.4365 26.542L12.5813 26.7802Z" fill="#1B1B1B"/>
<path d="M14.8004 7.71732L14.6858 7.69922C14.5892 7.8199 14.6435 7.91645 14.8004 7.71732Z" fill="#1B1B1B"/>
<path d="M22.7129 4.32098C22.8091 4.37211 23.0557 4.39617 23.2121 4.36309C23.0136 4.34203 22.8151 4.31196 22.7129 4.32098Z" fill="#1B1B1B"/>
<path d="M35.4406 23.8557L35.4496 23.6748L35.4014 24.0095L35.4406 23.8557Z" fill="#1B1B1B"/>
<path d="M1.28711 48.8453C1.28711 48.8453 1.88861 42.8303 4.59538 39.8227C7.30215 36.8152 9.10666 34.71 11.8134 34.71C11.8134 34.71 10.045 37.6092 15.7232 38.319C20.5352 38.9205 19.9337 36.2137 19.9337 36.2137C20.9533 36.731 23.7412 38.0724 24.7458 39.2212C26.851 41.6273 28.6555 44.9355 28.6555 44.9355" fill="white"/>
<path d="M25.0557 39.4248L25.0743 39.4621C25.0743 39.4621 25.065 39.4373 25.0557 39.4248Z" fill="#1B1B1B"/>
<path d="M21.9944 37.1188C22.022 37.131 22.0373 37.131 22.0403 37.1249C22.0128 37.1157 21.9914 37.1096 21.9944 37.1188Z" fill="#1B1B1B"/>
<path d="M21.4551 36.7363C21.4551 36.7363 21.4773 36.7522 21.49 36.7617C21.4805 36.749 21.4678 36.7363 21.4551 36.7363Z" fill="#1B1B1B"/>
<path d="M25.056 39.4254L25.0078 39.332C24.9837 39.3411 25.0289 39.3832 25.056 39.4254Z" fill="#1B1B1B"/>
<path d="M25.5938 39.9703C25.5938 39.9703 25.6031 39.9547 25.6031 39.9453C25.5969 39.9516 25.5938 39.9578 25.5938 39.9703Z" fill="#1B1B1B"/>
<path d="M20.2852 36.0479C20.2852 36.0479 20.2915 36.051 20.2947 36.0542C20.3487 36.0733 20.3201 36.0606 20.2852 36.0479Z" fill="#1B1B1B"/>
<path d="M11.8438 35.9817C11.8136 36.0993 11.7291 35.8187 11.708 35.9937C11.7291 35.9756 11.8408 36.1205 11.8438 35.9817Z" fill="#1B1B1B"/>
<path d="M18.7363 37.8438C18.7363 37.8438 18.7586 37.8565 18.7713 37.8565C18.7681 37.8501 18.7586 37.8469 18.7363 37.8438Z" fill="#1B1B1B"/>
<path d="M17.7988 38.1744C17.7717 38.1744 17.7627 38.1653 17.7266 38.1744C17.7296 38.1744 17.7326 38.1804 17.7386 38.1804C17.7507 38.1714 17.7687 38.1653 17.7988 38.1714V38.1744Z" fill="#1B1B1B"/>
<path d="M16.7247 38.2168C16.7247 38.2168 16.7369 38.2259 16.743 38.229C16.7552 38.229 16.7673 38.229 16.7765 38.2259L16.7217 38.2168H16.7247Z" fill="#1B1B1B"/>
<path d="M17.8169 38.6768L17.6309 38.6828C17.6819 38.6828 17.7509 38.6828 17.8169 38.6768Z" fill="#1B1B1B"/>
<path d="M6.83962 37.7598L6.81738 37.7947C6.81738 37.7947 6.83962 37.7725 6.83962 37.7598Z" fill="#1B1B1B"/>
<path d="M17.0854 38.719C17.0523 38.6949 17.0191 38.6829 16.983 38.6738C16.977 38.6799 16.9679 38.6829 16.9619 38.6889L17.0854 38.716V38.719Z" fill="#1B1B1B"/>
<path d="M2.32472 45.363C2.36984 45.2036 2.26758 45.2667 2.23149 45.2216C2.26157 45.0261 2.3157 45.1494 2.37284 45.0953C2.38487 44.972 2.33375 44.8577 2.36382 44.7705C2.37886 44.7705 2.38788 44.7524 2.39991 44.7765C2.37585 44.6321 2.5142 44.4066 2.47811 44.2351C2.48713 44.2261 2.49615 44.2231 2.50217 44.2231C2.45405 44.2351 2.41495 44.2231 2.38788 44.2111C2.40893 44.1389 2.37886 44.0637 2.43901 44.0517C2.42397 44.0938 2.44202 44.1058 2.45405 44.1299V44.0487C2.55029 44.0066 2.44803 44.1599 2.50518 44.178C2.52322 44.0246 2.52924 43.8381 2.58638 43.7359C2.66758 43.7359 2.52021 44.0005 2.6345 43.8772L2.54728 44.0366C2.70668 43.9464 2.50217 44.1359 2.66758 44.0607C2.76683 43.8472 2.71871 43.799 2.82096 43.5855C2.79991 43.5223 2.7548 43.5795 2.73375 43.5163C2.77585 43.1705 3.00743 43.3389 3.00442 43.0742C2.98036 42.996 2.90217 42.9359 3.01645 42.7945L3.0736 42.8848C3.16984 42.6772 3.00442 42.7133 3.15781 42.5178C3.16984 42.569 3.11269 42.6923 3.13375 42.6652C3.25706 42.5509 3.13375 42.5449 3.18487 42.4366L3.26608 42.4457C3.36232 42.2261 3.41645 41.9524 3.53675 41.7118C3.54878 41.7359 3.54878 41.787 3.59991 41.7419C3.66608 41.5855 3.7563 41.4291 3.85254 41.2817C3.95179 41.1314 4.0751 41.0051 4.18036 40.8817L4.1954 40.7404C4.21345 40.7163 4.24954 40.7133 4.24352 40.7464C4.33375 40.6562 4.21345 40.7163 4.22548 40.6502C4.26157 40.587 4.30969 40.593 4.30066 40.6442C4.38187 40.4336 4.59841 40.0757 4.79991 39.9404L4.78187 39.9885C4.92623 39.8682 4.82097 39.7419 4.98337 39.6517L4.97134 39.6848C5.26608 39.402 5.52172 39.0261 5.80142 38.8637C5.77134 38.7554 6.10518 38.596 6.02397 38.4878C6.22848 38.3614 6.20142 38.4246 6.45706 38.2201C6.52021 38.1599 6.48412 38.0697 6.54728 37.9795L6.59841 38.0246L6.64653 37.8682H6.76081L6.81796 37.787C6.78788 37.8141 6.73676 37.8261 6.72473 37.8081C6.81194 37.6727 7.02548 37.5675 7.05555 37.5915C7.12773 37.4893 7.20292 37.39 7.27811 37.2908C7.29315 37.3178 7.25405 37.366 7.233 37.4141C7.32322 37.2246 7.31119 37.4411 7.39239 37.2697C7.36533 37.2757 7.37435 37.2306 7.36533 37.2186C7.45856 37.1855 7.60593 37.0442 7.70518 36.9299L7.71721 36.984C7.92473 36.8066 8.12924 36.584 8.36382 36.3915C8.26758 36.4457 8.23149 36.3645 8.29766 36.3013L8.36984 36.3344C8.38788 36.2622 8.27961 36.3705 8.33675 36.2532C8.433 36.19 8.44803 36.2742 8.41194 36.3314L8.50518 36.2291C8.52623 36.2411 8.50518 36.2712 8.51721 36.2983C8.53525 36.2291 8.74879 36.2141 8.76683 36.1028L8.78488 36.1148C9.03149 35.9494 9.12773 35.8442 9.33525 35.7239C9.30818 35.6667 9.39841 35.6336 9.4345 35.5524C9.59991 35.4742 9.80442 35.4472 9.9939 35.3479C10.1202 35.2637 10.015 35.2817 10.0631 35.2216C10.0962 35.2727 10.2947 35.1945 10.2044 35.2697C10.442 35.1765 10.5082 35.1494 10.8119 35.0291C10.7728 35.0141 10.7307 35.0141 10.7458 34.99C10.8029 34.966 10.8811 34.978 10.8811 35.0111L10.8661 35.0201C10.9383 34.99 11.0225 34.975 11.1097 34.969C11.1518 34.966 11.1999 34.963 11.236 34.963C11.2601 34.963 11.2781 34.969 11.2901 34.978C11.3443 35.0111 11.3443 35.0381 11.3533 35.0442C11.3533 35.0472 11.3623 35.0502 11.3804 35.0502H11.3743C11.3894 35.0592 11.4014 35.0893 11.4104 35.1344C11.4104 35.1254 11.4044 35.1464 11.4014 35.1524C11.3984 35.1614 11.3954 35.1645 11.3924 35.1614C11.3864 35.1614 11.3834 35.1464 11.3804 35.1284C11.3683 35.1193 11.3503 35.1223 11.3322 35.1103C11.3322 35.4983 11.23 35.7208 11.3353 36.0366C11.3082 36.1028 11.3052 36.196 11.3232 36.2983C11.3413 36.4005 11.4014 36.5028 11.4525 36.6111C11.4977 36.7224 11.5879 36.8066 11.645 36.9028C11.7082 36.996 11.7593 37.0863 11.8044 37.1584L11.8195 37.1193C11.9097 37.1524 11.8766 37.2066 11.9157 37.2577C11.9307 37.2276 11.8736 37.1675 11.9277 37.1885C12.4661 37.6487 13.0886 38.0336 13.7383 38.2833C13.9759 38.3675 13.9337 38.1208 14.2104 38.2923L14.1052 38.3434C14.6104 38.3945 15.1067 38.5569 15.5969 38.5569C15.5668 38.569 15.5638 38.59 15.5157 38.584C15.6089 38.6592 15.8947 38.6321 15.9007 38.587C15.9759 38.599 15.9127 38.6291 15.9578 38.6562C16.0571 38.6983 16.2225 38.6111 16.2736 38.6682C16.2826 38.6772 16.2435 38.6833 16.2255 38.6863C16.2947 38.6652 16.5383 38.7224 16.4781 38.6532C16.6586 38.6953 16.83 38.6321 16.9774 38.6712C17.0736 38.6021 17.2931 38.7103 17.3202 38.6051C17.3112 38.7073 17.654 38.6592 17.7653 38.6021C17.7292 38.6351 17.8706 38.6261 17.8315 38.6712C17.9668 38.6652 18.0871 38.6081 18.054 38.563C18.1894 38.599 18.3097 38.5479 18.415 38.5058C18.5202 38.4637 18.6074 38.4066 18.7037 38.4577C19.0856 38.2833 19.4104 38.0336 19.654 37.7389C19.6841 37.775 19.621 37.8712 19.5398 37.9314C19.4616 37.9975 19.3834 38.0607 19.4225 38.0998C19.4916 38.0336 19.5488 37.9705 19.5999 37.9133C19.648 37.8472 19.6841 37.781 19.7262 37.7208C19.8104 37.6005 19.8676 37.4652 19.9668 37.3148C20.015 37.2336 19.9909 37.387 19.9819 37.4201C20.051 37.2427 20.1142 37.0742 20.1533 36.9028C20.1653 36.8667 20.1683 36.8066 20.1744 36.7855V36.7434C20.1744 36.7163 20.1683 36.6863 20.1533 36.6411C20.1623 36.6532 20.1713 36.6742 20.1804 36.6923C20.1774 36.6682 20.1924 36.6682 20.1473 36.6111L20.1593 36.6472C20.1232 36.6291 20.0871 36.5509 20.045 36.4427C20.033 36.4096 20.0089 36.3524 20.0089 36.3404C20.015 36.3314 20.018 36.3223 20.015 36.3133C20.0751 36.4938 20.2134 36.4517 20.2285 36.6442C20.2345 36.6381 20.2405 36.6171 20.2285 36.575C20.2586 36.599 20.2616 36.6231 20.2556 36.6592C20.3097 36.6592 20.2916 36.596 20.3789 36.6411C20.3638 36.6592 20.3488 36.6592 20.3337 36.6833C20.3458 36.6652 20.4089 36.6712 20.4631 36.6833C20.5172 36.6953 20.5774 36.7193 20.6435 36.7614C20.6285 36.7705 20.6375 36.7945 20.5954 36.7705C20.839 36.8878 21.0556 36.8757 21.2992 37.0502C21.1759 37.0953 21.3713 37.1254 21.3473 37.2066L21.4977 37.2577L21.4616 37.1915C21.5849 37.2577 21.7202 37.2637 21.8104 37.3449L21.7022 37.3269L21.9368 37.4381L21.8225 37.3389C21.9668 37.369 21.8616 37.2366 22.0119 37.3479C21.9759 37.3359 22.1322 37.4171 22.1713 37.4953C22.2435 37.5043 22.3217 37.5163 22.3999 37.5855C22.4089 37.6216 22.3337 37.6547 22.3398 37.6787C22.433 37.6517 22.6315 37.8231 22.7398 37.8051C22.7067 37.8051 22.6826 37.8411 22.6856 37.8562L22.7638 37.8381C22.8089 37.8863 22.8119 37.8983 22.7849 37.9254C22.9443 38.0336 22.7879 37.8021 22.9593 37.9614C22.9413 37.9554 22.9443 37.9675 22.9082 37.9554C23.0886 38.0968 23.3052 38.1599 23.4616 38.3043C23.4646 38.4096 23.2992 38.2171 23.3172 38.3163C23.5728 38.4727 23.8947 38.587 24.1052 38.7915L24.0691 38.7494C24.1774 38.6833 24.2014 38.9299 24.3458 38.987C24.3127 38.969 24.2676 39.0051 24.2826 39.002C24.418 39.1464 24.5894 39.2487 24.818 39.4652L24.7698 39.4562C24.827 39.5645 24.9623 39.7058 25.0315 39.8141C25.0796 39.8231 25.1217 39.8863 25.1277 39.8231C25.242 40.2381 25.6721 40.3584 25.7683 40.7284C25.7413 40.6953 25.6871 40.6652 25.7052 40.6923L25.9067 40.9178C25.9337 40.8667 25.9067 40.8667 25.9067 40.7915C25.9548 40.8036 26.024 40.8577 26.0691 40.9178C25.9608 40.8276 26.0029 40.969 26.0119 41.0321C26.018 41.0141 26.045 41.0201 26.054 41.0081C26.0721 41.1885 26.1563 40.966 26.2315 41.1795L26.2014 41.1855C26.2586 41.2427 26.3307 41.2817 26.3759 41.3569C26.3488 41.4201 26.3037 41.3028 26.2586 41.3269C26.3307 41.4231 26.4901 41.4562 26.5052 41.5825C26.4631 41.5494 26.418 41.4893 26.3759 41.4562C26.3879 41.5945 26.4089 41.5945 26.451 41.6757V41.6667L26.5383 41.8532L26.5232 41.799C26.7368 41.8351 26.7217 42.0366 26.9202 42.1509C26.7277 42.0396 26.8541 42.1539 26.7909 42.181C26.8029 42.2351 26.83 42.3133 26.8029 42.3043C26.9022 42.3554 26.854 42.4637 26.9984 42.5329C26.9834 42.5509 27.0525 42.6201 26.9954 42.6321C27.0796 42.7284 27.0104 42.587 27.0405 42.581C27.2089 42.7043 27.2119 43.0111 27.4465 43.1945C27.6089 43.375 27.6962 43.375 27.8465 43.5464C27.8556 43.6306 27.7473 43.5344 27.7473 43.5344C27.7834 43.6547 27.8345 43.7299 27.9157 43.8141C27.8886 43.8051 27.8856 43.8321 27.8826 43.8742C27.9337 43.9494 27.9819 43.8863 28.018 44.0066C27.9849 44.0005 27.9398 43.9975 27.8947 43.9735C27.9668 44.0547 28.0571 44.1269 28.1322 44.2141C28.1142 44.2592 28.048 44.184 28.0059 44.163C28.0841 44.2622 28.2014 44.4276 28.2736 44.4306L28.2525 44.3494C28.2796 44.3885 28.2195 44.3975 28.1924 44.3735C28.0962 44.3043 28.1322 44.2291 28.1473 44.2111L28.1984 44.2742C28.2676 44.1389 28.018 44.0066 27.9398 43.8652L28.0541 43.8742L27.9037 43.772C27.9037 43.7299 27.9398 43.6817 27.9909 43.7419C27.9698 43.6186 27.9097 43.6727 27.9007 43.5614C27.9007 43.5464 27.9067 43.5494 27.9157 43.5554L27.8315 43.4742C27.8586 43.4833 27.8796 43.4231 27.9037 43.4893C27.8435 43.2878 27.6721 43.2487 27.6901 43.1464L27.7052 43.1584C27.5277 42.9359 27.633 43.1705 27.4525 43.0351L27.5187 42.8246L27.4465 42.8396C27.4315 42.8126 27.4074 42.7614 27.4345 42.7554C27.3353 42.6893 27.4195 42.7885 27.3473 42.7554C27.3262 42.6021 27.1127 42.4487 27.1879 42.3614C27.1157 42.3494 27.227 42.4938 27.1157 42.3915C27.1909 42.2923 27.0044 42.2592 26.9774 42.1208C27.0495 42.1208 27.0886 42.2381 27.0646 42.1028C26.9383 42.0938 26.9443 41.8833 26.8661 41.8051C26.7939 41.8472 26.7067 41.6306 26.5804 41.4983C26.6104 41.4923 26.421 41.1945 26.3488 41.0381H26.3638C26.2766 41.0562 26.1864 40.9058 26.0992 40.8156C26.1413 40.7915 26.1713 40.7975 26.2285 40.8396L26.1563 40.7434C26.1172 40.7374 26.0841 40.7133 26.033 40.6592L26.0992 40.6472C26.0029 40.5208 25.8495 40.4366 25.7593 40.2472C25.7082 40.2742 25.7292 40.4727 25.5698 40.3254C25.5909 40.3013 25.627 40.2622 25.6721 40.2983C25.6571 40.2863 25.6119 40.2622 25.5999 40.2231L25.6931 40.2592C25.6541 40.172 25.63 40.2472 25.5879 40.187C25.624 40.1599 25.5789 40.1239 25.615 40.1118C25.63 40.1239 25.639 40.175 25.6721 40.187C25.627 40.1148 25.5849 40.0186 25.5909 39.9735C25.5759 39.9945 25.5428 40.0096 25.5007 39.9675C25.3984 39.8472 25.5097 39.8923 25.4676 39.8051C25.4195 39.793 25.3804 39.6938 25.3262 39.7359C25.2962 39.6998 25.3172 39.6727 25.3202 39.6487C25.248 39.6005 25.0646 39.3599 25.0736 39.4742L25.0826 39.4923L25.0706 39.4833C24.9593 39.402 24.8751 39.2908 24.7969 39.1735C24.7067 39.0652 24.6285 38.9389 24.5142 38.8637L24.5292 38.8487C24.3939 38.7554 24.2465 38.6231 24.1262 38.59C24.0901 38.5599 24.0631 38.4878 24.0962 38.4787C23.9879 38.4186 23.9608 38.4306 23.8405 38.2953C23.9638 38.3374 23.8255 38.2411 23.9608 38.3464C23.8435 38.2351 23.8345 38.184 23.6571 38.1389C23.7383 38.1239 23.5969 38.0126 23.5247 37.9825L23.5939 38.0787C23.5187 38.0366 23.4616 37.9915 23.3984 37.9464L23.4736 37.9043C23.248 37.6487 22.8931 37.7208 22.7608 37.4652C22.6616 37.4652 22.8931 37.5885 22.7969 37.6005C22.6736 37.5163 22.5924 37.3449 22.5533 37.3208C22.3969 37.1825 22.3337 37.3208 22.1593 37.1915C22.1713 37.2276 22.1593 37.3028 22.0059 37.2487C21.8796 37.1675 21.9007 37.0622 21.9939 37.0893C22.027 37.1043 22.039 37.1193 22.033 37.1284C22.0811 37.1434 22.1413 37.1645 22.1022 37.1103L22.0721 37.1254C22.021 37.0652 21.8375 36.969 21.9007 36.9539C21.7894 36.9208 21.8375 36.969 21.9037 37.0231C21.7533 36.8968 21.642 36.8787 21.4796 36.7645C21.5007 36.7915 21.5097 36.8336 21.4826 36.8186C21.242 36.6532 21.3473 36.8036 21.1668 36.7254C21.0886 36.6381 21.248 36.6562 21.0556 36.596C20.9623 36.5178 21.0646 36.5208 21.1187 36.5239C20.9353 36.4878 20.836 36.3404 20.7488 36.2863L20.842 36.3103C20.7849 36.2953 20.7458 36.2742 20.7037 36.2532L20.7277 36.3254C20.6826 36.2923 20.6405 36.2712 20.6525 36.2502C20.5864 36.2562 20.6525 36.3494 20.5292 36.3404C20.442 36.2652 20.2435 36.2291 20.2014 36.1299C20.3638 36.2231 20.3548 36.2021 20.3428 36.169C20.3307 36.1389 20.3037 36.0938 20.4631 36.169C20.3999 36.1479 20.3307 36.1118 20.2405 36.0547C20.2255 36.0396 20.2525 36.0427 20.2766 36.0547C19.8947 35.79 20.1232 36.0667 19.7954 35.8983C19.8014 35.8772 19.7653 35.8411 19.7202 35.8021C19.6751 35.766 19.6119 35.7239 19.6059 35.7299C19.6571 35.7479 19.7082 35.799 19.7022 35.8171C19.7052 35.8321 19.6931 35.8351 19.6901 35.8502C19.6901 35.8682 19.6871 35.8833 19.6751 35.8983C19.6691 35.8983 19.6631 35.8923 19.6631 35.8923C19.6691 36.1118 19.7413 36.2291 19.7473 36.3434C19.7473 36.2983 19.7473 36.2532 19.7473 36.2081C19.8044 36.3163 19.8044 36.4186 19.8255 36.578C19.7954 36.578 19.7924 36.4216 19.7834 36.4697C19.8315 36.587 19.8014 36.6592 19.7683 36.7464C19.7443 36.8066 19.6962 36.8637 19.7022 36.9389C19.6601 36.993 19.63 36.9239 19.5969 36.969C19.5819 37.1254 19.4947 37.0983 19.4465 37.2427C19.5157 37.2336 19.5097 37.2156 19.4947 37.3449C19.5277 37.2577 19.5759 37.1855 19.5909 37.0953C19.5969 37.1584 19.5909 37.2216 19.5789 37.2848C19.63 37.2156 19.63 37.1133 19.6571 37.0712C19.6661 37.1645 19.6571 37.1554 19.7112 37.1344C19.5999 37.2096 19.639 37.366 19.5187 37.4502L19.4165 37.366C19.3262 37.4141 19.2931 37.4923 19.236 37.5675C19.1728 37.6336 19.1157 37.7299 18.9894 37.778C19.0165 37.769 19.0495 37.769 19.0736 37.7539C19.0736 37.8201 18.9322 37.8381 18.8691 37.8983C18.8571 37.8562 18.8029 37.8652 18.7578 37.8562C18.7789 37.8923 18.5774 37.9224 18.5864 38.0126L18.454 37.9975C18.2465 38.0487 18.2435 38.178 18.027 38.2141C18.0811 38.1539 17.9819 38.1419 18.1142 38.0787C18.045 38.0938 17.9819 38.0968 17.9849 38.1269C17.9428 38.1118 17.7984 38.2231 17.7262 38.181C17.6992 38.202 17.6931 38.2502 17.6119 38.2532C17.6029 38.2442 17.6119 38.2321 17.6119 38.2321C17.6119 38.2532 17.4856 38.2742 17.5638 38.3163C17.3322 38.2111 16.9322 38.3464 16.7368 38.2261C16.5774 38.2472 16.3849 38.2381 16.2375 38.2261C16.2465 38.2141 16.2375 38.2051 16.2676 38.2111C16.0721 38.1509 16.1322 38.3284 15.9097 38.2622C15.8014 38.181 16.036 38.2351 15.9638 38.202C15.9488 38.0547 15.6871 38.202 15.5458 38.0848H15.5849C15.4766 38.0156 15.2962 38.0908 15.1067 38.0517C15.1067 38.0517 15.1187 38.0396 15.1127 38.0306C14.9713 38.0848 14.7187 38.0727 14.5353 38.0427C14.6044 38.0005 14.6225 38.0336 14.6014 37.9675C14.5202 37.9554 14.6044 38.0637 14.439 38.0396C14.3939 37.9975 14.2856 37.9404 14.2856 37.8772L14.436 37.9103C14.3789 37.8141 14.2405 37.8652 14.1653 37.8321L14.1834 37.8021C13.9488 37.7599 13.9247 37.8381 13.6841 37.7479L13.6992 37.781C13.5368 37.8171 13.6059 37.6968 13.4525 37.7088L13.4465 37.6126C13.3503 37.6126 13.1217 37.5675 12.9623 37.5073C13.0796 37.4863 13.2571 37.5524 13.3834 37.5524C13.2962 37.5254 13.1097 37.4291 13.0465 37.4502C13.0826 37.4592 13.1337 37.4592 13.1578 37.4863C13.0315 37.4983 12.8781 37.4682 12.7217 37.381C12.7789 37.3148 12.6916 37.2396 12.5834 37.1584C12.5292 37.1193 12.4721 37.0742 12.427 37.0321C12.3849 36.987 12.3608 36.9329 12.3608 36.8878C12.2977 36.8487 12.2405 36.8005 12.1864 36.7494C12.1292 36.6983 12.1022 36.6291 12.0631 36.566C11.9759 36.4427 11.9458 36.2923 11.8796 36.1449C11.7834 36.2983 11.8525 36.0547 11.7262 36.1088C11.6992 36.0306 11.6931 35.9975 11.7022 35.9915C11.7022 35.9073 11.7413 35.8201 11.7593 35.7419C11.7954 35.6848 11.7954 35.8141 11.8255 35.8051C11.8285 35.6396 11.8736 35.7359 11.9157 35.6306C11.8646 35.6517 11.8495 35.5705 11.8766 35.4802L11.8014 35.6066C11.7774 35.4863 11.8074 35.4351 11.8495 35.39C11.8706 35.369 11.8886 35.3449 11.9007 35.3148C11.9037 35.3058 11.9067 35.2998 11.9097 35.2878C11.9157 35.2697 11.9097 35.2878 11.9217 35.2366C11.9398 35.1855 11.9578 35.1344 11.9728 35.0712L11.9518 35.2336C11.9789 35.1464 12.033 35.0141 12.0901 34.8667C12.1683 34.7103 12.2616 34.5299 12.3247 34.3945C12.2796 34.3975 12.2556 34.3975 12.2195 34.4036C12.1774 34.4096 12.1353 34.4186 12.0962 34.4246C12.018 34.4396 11.9488 34.4577 11.8886 34.4817C11.8676 34.4667 11.8435 34.4306 11.9638 34.4156C11.8195 34.4156 11.654 34.4306 11.4947 34.4487C11.3383 34.4607 11.1608 34.4968 11.0946 34.5208C10.9112 34.569 10.7428 34.6111 10.6044 34.6201L10.6225 34.581C10.5593 34.6081 10.5262 34.6712 10.439 34.6592C10.439 34.6442 10.4571 34.6201 10.427 34.6261C10.3939 34.6442 10.2736 34.7254 10.1864 34.7404L10.2435 34.6802C10.0751 34.7163 9.9548 34.7855 9.84954 34.8547C9.74728 34.9329 9.66006 35.0201 9.53676 35.0893C9.5157 35.0442 9.44051 35.0411 9.3533 35.0592C9.26909 35.0802 9.17585 35.1193 9.11269 35.1464V35.1314C8.92924 35.2216 8.79691 35.3299 8.6766 35.4472C8.5533 35.5584 8.44202 35.6757 8.31269 35.8051C8.06608 35.8502 7.68713 36.2411 7.38638 36.4396C7.44051 36.4156 7.43149 36.5028 7.39239 36.5539C7.31721 36.596 7.26909 36.7614 7.21495 36.6863L7.23901 36.6682C7.13074 36.6442 7.02548 36.7855 6.92623 36.8757L6.99239 36.975C6.61645 37.0953 6.3939 37.6727 6.15029 37.7028C6.1142 37.784 6.04202 37.8592 6.00593 37.9404L5.96081 37.8923C5.78939 38.0517 5.70518 38.1329 5.52172 38.3554L5.52773 38.2802C5.41345 38.3975 5.52773 38.5569 5.42848 38.6682L5.32924 38.6381C5.13976 38.8487 4.88713 39.0051 4.76382 39.2697C4.75781 39.2577 4.74277 39.2336 4.76984 39.1945C4.67961 39.2908 4.37886 39.5344 4.50818 39.5855C4.44202 39.5254 4.30969 39.8051 4.24051 39.9524L4.20743 39.8923C4.18638 40.0457 4.20142 40.0637 4.10217 40.2201C4.06909 40.2502 4.03901 40.2201 4.08713 40.184C3.97284 40.2802 4.05706 40.3043 3.93375 40.4306V40.3524C3.84954 40.4727 3.8736 40.4757 3.86758 40.572C3.83751 40.6622 3.69916 40.7975 3.63901 40.7855C3.65706 40.8216 3.65104 40.9148 3.58788 40.978C3.56382 40.978 3.56984 40.9419 3.57284 40.9269C3.40442 41.1163 3.45254 41.2848 3.3142 41.399C3.29315 41.393 3.28112 41.399 3.26608 41.4051C3.36533 41.2336 3.44352 41.0953 3.44051 41.1133C3.38939 41.0833 3.30217 41.2186 3.29615 41.0652C3.26909 41.2005 3.24502 41.4381 3.14578 41.5614C3.13675 41.5645 3.12773 41.5705 3.11871 41.5705V41.5524C3.09766 41.5825 3.08863 41.6126 3.07961 41.6427C3.04653 41.6818 3.02848 41.7088 3.00743 41.7509C2.9563 41.7449 2.90518 41.9043 2.86909 41.9765C2.92924 41.9975 2.8751 42.0878 2.96533 42.0216C2.9563 42.0306 2.96533 42.0036 2.98638 41.9554C2.98939 41.9434 2.9954 41.9314 2.9954 41.9224V41.9284C3.01946 41.8802 3.04653 41.8201 3.07961 41.7479C3.07961 41.8201 3.07961 41.8893 3.00743 41.9524C3.02548 42.0066 3.04352 42.0667 3.05254 42.0968C2.92623 42.1539 2.7939 42.3254 2.73074 42.3284C2.66157 42.563 2.53224 42.8667 2.58337 43.0472C2.57134 43.1163 2.52021 43.1073 2.49315 43.1254C2.49615 43.0833 2.51721 43.0411 2.50818 43.0141C2.48112 43.1494 2.37585 43.399 2.44202 43.4562C2.34878 43.6066 2.40292 43.3389 2.33675 43.5675L2.32472 43.5284C2.036 43.9254 2.28262 44.3103 1.96683 44.7524C1.98788 44.7224 1.9969 44.7043 2.01194 44.7013C1.77736 45.2487 1.75931 45.8863 1.52472 46.4246C1.46758 46.581 1.5157 46.6081 1.53375 46.7163L1.45856 46.7374L1.50367 46.9208C1.5157 47.1705 1.25705 47.3028 1.3142 47.6276L1.36533 47.5975C1.33826 47.7058 1.33224 47.9464 1.28412 47.9223C1.29014 47.9344 1.32623 47.9645 1.29615 48.0036H1.26006L1.28111 48.2802C1.22698 48.4848 1.14578 48.2261 1.09766 48.5329C1.09766 48.6502 1.16081 48.8727 1.19089 48.8306C1.1969 48.7825 1.22698 48.7133 1.26307 48.7163L1.26908 48.8216C1.37134 48.8517 1.46758 48.9389 1.56984 48.7013L1.52773 48.5178L1.58487 48.4697L1.56683 48.6171C1.62698 48.5389 1.59089 48.4818 1.56984 48.4186C1.59991 48.4096 1.62096 48.3855 1.636 48.3524L1.56081 48.166C1.60593 48.1509 1.62999 48.2532 1.66908 48.1419C1.636 48.0547 1.56683 48.2051 1.5548 48.0667C1.61495 47.9915 1.64803 48.0216 1.62397 47.9163C1.65405 47.9073 1.66608 47.9314 1.67209 47.9705C1.65104 47.8772 1.69615 47.7389 1.64803 47.6848C1.72021 47.6066 1.68412 47.387 1.78036 47.4141C1.76232 47.384 1.73224 47.2487 1.74427 47.1675C1.8345 47.3359 1.80743 46.8697 1.92773 46.9329C1.84352 46.8036 1.96382 46.5359 1.94578 46.3344C1.95179 46.3464 1.96382 46.3705 1.9548 46.3855C1.98788 46.2802 2.02397 46.2562 2.06006 46.193C1.97585 46.1599 1.9969 45.9885 1.96683 45.8863C2.08112 45.775 2.04803 45.9885 2.13826 45.9675C2.06608 45.9584 2.12322 45.7239 2.05405 45.7539C2.12924 45.6667 2.09916 45.6757 2.18337 45.6426C2.08112 45.5975 2.18337 45.5464 2.14427 45.4472C2.23751 45.3178 2.25555 45.4381 2.26457 45.2727C2.31871 45.2066 2.3157 45.3569 2.3157 45.3569L2.32472 45.363ZM3.5157 41.7058C3.50066 41.7359 3.48863 41.7599 3.47961 41.778C3.48563 41.763 3.49766 41.7419 3.51269 41.7058H3.5157ZM3.67209 41.4231C3.65104 41.4562 3.62698 41.4983 3.59991 41.5434C3.57585 41.5434 3.56081 41.5224 3.57886 41.4923C3.58187 41.5163 3.62999 41.4532 3.67209 41.4201V41.4231ZM2.9563 41.8291C2.97134 41.778 2.98939 41.766 3.00442 41.766C2.9954 41.79 2.98638 41.8171 2.97134 41.8532V41.8622C2.97134 41.8622 2.95931 41.8411 2.9563 41.8291Z" fill="#1B1B1B"/>
<path d="M6.61208 38.0459L6.59937 38.0332L6.58984 38.065L6.61208 38.0459Z" fill="#1B1B1B"/>
<path d="M20.1836 36.6943C20.1836 36.6943 20.1836 36.7006 20.1836 36.7037C20.1961 36.7319 20.1898 36.7162 20.1836 36.6943Z" fill="#1B1B1B"/>
<path d="M22.1744 37.4976C22.1413 37.4915 22.1112 37.4885 22.0811 37.4795C22.1232 37.5096 22.1563 37.5277 22.1744 37.4976Z" fill="#1B1B1B"/>
<path d="M17.839 38.6771V38.6738L17.8164 38.6771H17.839Z" fill="#1B1B1B"/>
<path d="M21.9668 37.4141C22.0059 37.4502 22.0421 37.4683 22.0812 37.4803C22.0481 37.4562 22.009 37.4261 21.9668 37.4141Z" fill="#1B1B1B"/>
<path d="M24.0781 38.4306L24.1238 38.3911C24.0477 38.3454 24.1086 38.4093 24.0781 38.4306Z" fill="#1B1B1B"/>
<path d="M23.1963 38.1768L23.2445 38.2521L23.3047 38.228L23.1963 38.1768Z" fill="#1B1B1B"/>
<path d="M22.9773 37.5579L23.0135 37.5699L22.8838 37.5156L22.9773 37.5579Z" fill="#1B1B1B"/>
<path d="M16.917 38.1627L16.9411 38.2349C16.9983 38.2229 17.0073 38.1416 16.917 38.1627Z" fill="#1B1B1B"/>
<path d="M13.7332 37.7209C13.7121 37.6756 13.6337 37.6243 13.5703 37.6394C13.6367 37.6666 13.694 37.7179 13.7332 37.7209Z" fill="#1B1B1B"/>
<path d="M6.81178 37.0193L6.84189 36.9561L6.7666 37.0585L6.81178 37.0193Z" fill="#1B1B1B"/>
<path d="M31.4289 13.0829C31.9131 14.0513 30.8274 15.4889 30.8274 15.4889C30.8274 15.4889 34.1357 15.7896 34.1357 13.6844C34.1357 12.34 32.6319 10.6768 32.6319 10.6768C34.1357 11.2783 35.9402 15.2302 35.9402 15.2302C35.9402 15.2302 36.8425 14.5866 33.835 9.77459C33.835 9.77459 31.3357 5.08888 25.1131 4.0603C23.3928 3.60617 22.1748 3.5791 22.1748 3.5791C19.7928 3.72045 17.8981 4.24677 16.3883 4.96557C14.7853 5.58812 9.32668 8.37609 6.83946 18.1956C3.90713 29.7746 6.6139 29.1731 3.90713 31.2783C1.20037 33.3836 -0.904896 39.0979 4.80939 40.0001C4.80939 40.0001 7.66653 34.4362 13.5312 34.8874C13.5312 34.8874 14.3853 31.1189 15.0109 30.5986C15.4229 30.2558 12.8425 28.3971 11.2786 24.6678C12.4034 22.5956 14.4335 22.5596 15.3357 18.9505C15.9583 16.4633 17.9583 11.155 20.2981 10.9806C21.5462 10.8874 17.2906 15.1911 17.2906 15.1911C17.2906 15.1911 20.9598 16.6708 23.6064 14.2889C24.3943 13.5791 25.1101 12.4844 24.9598 10.5295L25.3056 11.4498C25.6545 12.3761 25.5071 13.4167 24.9177 14.2107L24.1568 15.2362C24.1568 15.2362 26.4756 16.0483 29.0229 14.8934C32.3312 13.3896 27.5192 9.47985 27.5192 9.47985C27.5192 9.47985 30.5267 11.2844 31.4289 13.0889V13.0829Z" fill="black"/>
<path d="M31.5157 31.3594C26.3157 35.9398 20.2195 34.006 20.2195 34.006L19.3984 36.2406C24.812 38.0451 26.4661 41.215 26.4661 41.215C33.5338 42.5804 30.2255 37.7443 30.0751 37.0616C29.9248 36.3789 29.3232 35.6421 30.0751 34.418C30.827 33.194 31.5157 31.3594 31.5157 31.3594Z" fill="black"/>
<path d="M20.7516 27.2182C20.7005 27.2182 20.6523 27.1941 20.6253 27.146C20.5802 27.0768 20.6012 26.9836 20.6734 26.9385C20.7215 26.9084 25.6117 23.9129 30.1471 26.331C30.2192 26.3701 30.2493 26.4603 30.2102 26.5355C30.1711 26.6107 30.0809 26.6377 30.0057 26.5986C25.6268 24.2618 20.8809 27.164 20.8328 27.1941C20.8087 27.2092 20.7817 27.2182 20.7546 27.2182H20.7516Z" fill="black"/>
<path d="M26.1594 21.2039C30.0611 21.2039 33.2241 20.6653 33.2241 20.0009C33.2241 19.3365 30.0611 18.7979 26.1594 18.7979C22.2577 18.7979 19.0947 19.3365 19.0947 20.0009C19.0947 20.6653 22.2577 21.2039 26.1594 21.2039Z" fill="#F4BDCB"/>
<path d="M27.0673 24.2107C26.3214 24.2107 25.7139 23.6032 25.7139 22.8573C25.7139 22.1114 26.3214 21.5039 27.0673 21.5039C27.8131 21.5039 28.4206 22.1114 28.4206 22.8573C28.4206 23.6032 27.8131 24.2107 27.0673 24.2107ZM27.0673 21.8047C26.4868 21.8047 26.0146 22.2768 26.0146 22.8573C26.0146 23.4377 26.4868 23.9099 27.0673 23.9099C27.6477 23.9099 28.1199 23.4377 28.1199 22.8573C28.1199 22.2768 27.6477 21.8047 27.0673 21.8047Z" fill="black"/>
<path d="M23.6333 20.9021C24.1449 20.9021 24.5597 20.2288 24.5597 19.3983C24.5597 18.5678 24.1449 17.8945 23.6333 17.8945C23.1218 17.8945 22.707 18.5678 22.707 19.3983C22.707 20.2288 23.1218 20.9021 23.6333 20.9021Z" fill="black"/>
<path d="M30.5025 20.9021C31.0141 20.9021 31.4288 20.2288 31.4288 19.3983C31.4288 18.5678 31.0141 17.8945 30.5025 17.8945C29.9909 17.8945 29.5762 18.5678 29.5762 19.3983C29.5762 20.2288 29.9909 20.9021 30.5025 20.9021Z" fill="black"/>
<path d="M25.2628 18.1947C25.2147 18.1947 25.1665 18.1707 25.1365 18.1286C25.1275 18.1135 24.1891 16.7301 23.1665 16.676C22.7605 16.6519 22.3996 16.8444 22.0688 17.2414C22.0147 17.3045 21.9214 17.3135 21.8583 17.2594C21.7951 17.2053 21.7861 17.112 21.8402 17.0489C22.2342 16.5767 22.6914 16.3481 23.1846 16.3752C24.3605 16.4384 25.347 17.9 25.3891 17.9632C25.4342 18.0323 25.4162 18.1256 25.347 18.1707C25.3229 18.1887 25.2929 18.1947 25.2628 18.1947Z" fill="black"/>
<path d="M30.0244 18.2138C29.5582 18.2138 29.1311 17.9882 28.7582 17.5401C28.7041 17.4769 28.7131 17.3807 28.7762 17.3296C28.8394 17.2754 28.9356 17.2845 28.9868 17.3476C29.3176 17.7446 29.6845 17.9341 30.0845 17.913C31.1101 17.8589 32.0454 16.4724 32.0544 16.4604C32.0996 16.3912 32.1958 16.3732 32.262 16.4183C32.3311 16.4634 32.3492 16.5566 32.3041 16.6258C32.262 16.689 31.2755 18.1506 30.0996 18.2138C30.0725 18.2138 30.0484 18.2138 30.0214 18.2138H30.0244Z" fill="black"/>
<path d="M17.0708 18.461C17.0196 18.461 16.9715 18.4339 16.9414 18.3888C16.8993 18.3166 16.9204 18.2264 16.9926 18.1813C17.2753 18.0098 17.4377 17.8023 17.4768 17.5647C17.5429 17.1437 17.2001 16.7437 17.1971 16.7377C17.1429 16.6745 17.149 16.5813 17.2121 16.5241C17.2753 16.47 17.3685 16.476 17.4226 16.5392C17.4407 16.5602 17.8587 17.0444 17.7745 17.6068C17.7234 17.9347 17.5129 18.2144 17.149 18.4339C17.1249 18.4489 17.0978 18.455 17.0708 18.455V18.461Z" fill="black"/>
<path d="M18.9623 17.6547C18.6857 17.6547 18.4541 17.5765 18.2646 17.4231C17.8255 17.0622 17.8135 16.4216 17.8135 16.3945C17.8135 16.3103 17.8796 16.2441 17.9608 16.2441C18.033 16.2441 18.1112 16.3103 18.1142 16.3915C18.1142 16.3975 18.1263 16.9238 18.4571 17.1945C18.6405 17.3449 18.9022 17.393 19.227 17.3299C19.3082 17.3148 19.3864 17.369 19.4014 17.4502C19.4165 17.5314 19.3623 17.6096 19.2811 17.6246C19.1699 17.6456 19.0616 17.6547 18.9623 17.6547Z" fill="black"/>
<path d="M17.7446 19.152C17.7446 19.152 17.7235 19.152 17.7145 19.149C17.6333 19.131 17.5792 19.0528 17.5972 18.9716C17.6032 18.9445 17.7386 18.3159 18.2378 18.0483C18.5296 17.8889 18.8784 17.8889 19.2754 18.0483C19.3536 18.0783 19.3897 18.1656 19.3596 18.2437C19.3296 18.3219 19.2423 18.358 19.1641 18.328C18.8544 18.2047 18.5897 18.2016 18.3792 18.3159C18.0032 18.5204 17.892 19.0317 17.892 19.0347C17.8769 19.1069 17.8138 19.155 17.7446 19.155V19.152Z" fill="black"/>
</g>
</svg>
