<svg width="42" height="43" viewBox="0 0 42 43" fill="none" xmlns="http://www.w3.org/2000/svg">
<g filter="url(#filter0_d_6342_9599)">
<circle cx="21" cy="21.0977" r="20" fill="white"/>
</g>
<mask id="mask0_6342_9599" style="mask-type:alpha" maskUnits="userSpaceOnUse" x="1" y="1" width="40" height="41">
<circle cx="21" cy="21.0977" r="20" fill="white"/>
</mask>
<g mask="url(#mask0_6342_9599)">
<path d="M29.8724 46.2103C29.8724 46.2103 28.0679 42.9021 25.9627 40.4961C23.7491 37.9667 20.5491 37.1878 20.5491 37.1878L21.2138 34.9231C22.8469 35.4555 24.5822 35.6329 26.3446 35.3863C33.4574 34.3878 38.2815 26.8449 37.1145 18.5382C35.9506 10.2314 29.2379 4.30659 22.1221 5.30508C15.0063 6.30358 10.1852 13.8464 11.3521 22.1532C11.8905 25.9908 13.6138 29.3231 16.0138 31.6961C16.0138 31.6961 14.8349 34.1803 14.5341 35.9848C14.5341 35.9848 9.42132 35.0825 5.81229 41.0976C4.16718 43.8404 3.70703 46.5111 3.70703 46.5111" fill="#FFF7EB"/>
<path d="M15.051 34.5117L15.0059 34.6111C15.0209 34.584 15.036 34.5509 15.051 34.5117Z" fill="#1B1B1B"/>
<path d="M12.2959 25.3023C12.323 25.3776 12.3441 25.4047 12.3531 25.4047C12.323 25.3384 12.2989 25.2812 12.2959 25.3023Z" fill="#1B1B1B"/>
<path d="M11.9229 23.5762C11.9289 23.6123 11.9349 23.6454 11.9409 23.6786C11.9409 23.6394 11.9349 23.5973 11.9229 23.5762Z" fill="#1B1B1B"/>
<path d="M15.0508 34.512L15.1654 34.2557C15.1412 34.2256 15.099 34.3824 15.0508 34.512Z" fill="#1B1B1B"/>
<path d="M11.5809 36.4991L11.5025 36.5263C11.4844 36.5444 11.4663 36.5655 11.4512 36.5866L11.5809 36.4961V36.4991Z" fill="#1B1B1B"/>
<path d="M8.57899 38.1713C8.64235 38.123 8.60916 38.0385 8.60916 37.9902C8.59709 38.0476 8.5639 38.0989 8.51562 38.1471C8.52468 38.1592 8.5458 38.1682 8.582 38.1713H8.57899Z" fill="#1B1B1B"/>
<path d="M14.0107 36.1807C14.0107 36.1807 14.0298 36.2061 14.0425 36.2124C14.0425 36.1997 14.0298 36.1902 14.0107 36.1807Z" fill="#1B1B1B"/>
<path d="M11.6074 20.3818C11.6074 20.3818 11.6074 20.391 11.6074 20.3971C11.6196 20.4823 11.6166 20.4336 11.6074 20.3818Z" fill="#1B1B1B"/>
<path d="M30.9521 8.14797C30.732 7.88562 31.4466 8.40127 31.0968 8.03036C31.1119 8.08464 30.6505 7.85848 30.9521 8.14797Z" fill="#1B1B1B"/>
<path d="M31.0957 8.02958L31.0576 7.98828C31.0735 8.00416 31.083 8.0137 31.0957 8.02958Z" fill="#1B1B1B"/>
<path d="M12.8738 13.1846C12.8527 13.1936 12.8316 13.2147 12.8105 13.2388C12.8196 13.2388 12.8346 13.2297 12.8738 13.1846Z" fill="#1B1B1B"/>
<path d="M11.4629 18.4932L11.481 18.3574C11.4689 18.4117 11.4659 18.454 11.4629 18.4932Z" fill="#1B1B1B"/>
<path d="M14.1641 10.6316C14.2093 10.5743 14.2365 10.5592 14.2878 10.4717C14.2787 10.4777 14.2697 10.4837 14.2606 10.4898C14.2485 10.526 14.2214 10.5682 14.1641 10.6316Z" fill="#1B1B1B"/>
<path d="M16.1341 8.39941C16.119 8.40544 16.0979 8.41447 16.0829 8.42351C16.0618 8.44459 16.0377 8.46868 16.0166 8.48977L16.1371 8.39941H16.1341Z" fill="#1B1B1B"/>
<path d="M20.9941 36.9502C20.979 36.9803 20.97 37.0014 20.9609 37.0165C21.0121 36.9713 21.1386 36.9833 20.9941 36.9502Z" fill="#1B1B1B"/>
<path d="M13.6885 10.1468L13.9952 9.75586C13.905 9.86112 13.7937 10.0055 13.6885 10.1468Z" fill="#1B1B1B"/>
<path d="M36.741 26.4902L36.7139 26.6017C36.7289 26.5595 36.741 26.5204 36.741 26.4902Z" fill="#1B1B1B"/>
<path d="M14.9464 8.62239C15.0278 8.57716 15.1092 8.5259 15.1846 8.46257C15.1936 8.44448 15.2087 8.42337 15.2087 8.40527C15.1213 8.47765 15.0308 8.547 14.9434 8.61938L14.9464 8.62239Z" fill="#1B1B1B"/>
<path d="M23.8451 38.12C23.436 37.8703 23.5985 38.0989 23.4781 38.1019C22.9699 37.8553 23.2887 37.9034 23.1473 37.7621C22.8195 37.6207 22.5308 37.5967 22.2932 37.4854C22.2842 37.4613 22.2391 37.4343 22.3022 37.4373C22.1157 37.4012 21.8601 37.2929 21.5924 37.1967C21.4601 37.1455 21.3218 37.1034 21.1924 37.0673C21.1594 37.0583 21.1263 37.0523 21.0962 37.0433C21.0812 37.0433 21.0691 37.0433 21.0541 37.0433C21.027 37.0433 20.9939 37.0433 20.9578 37.0493C20.9518 37.0373 20.9548 37.0282 20.9578 37.0222C20.9338 37.0733 20.9067 37.1215 20.8616 37.1515C20.8075 37.1365 20.7473 37.1275 20.6872 37.1215C20.6751 37.0613 20.6992 36.9801 20.7563 36.938C20.7263 37.0282 20.7563 37.0252 20.7774 37.0463V36.92C20.9097 36.8087 20.8015 37.0162 20.8466 37.0343C20.8616 37.0343 20.8766 37.0282 20.8887 37.0192H20.8736C20.8646 36.9831 20.8736 36.932 20.8736 36.8779L20.8797 36.7906C20.8887 36.7395 20.8977 36.6884 20.9067 36.6373C20.9458 36.4297 20.9879 36.2342 21.0481 36.0869C21.1654 36.0508 20.8676 36.8207 21.0782 36.4327L20.9879 36.6673L20.9428 36.7846C20.9308 36.8177 20.9248 36.8237 20.9157 36.8478C20.9669 36.8117 20.9909 36.8087 21 36.8087C21.006 36.8267 21 36.8267 21 36.8418C20.9909 36.8718 20.9879 36.8779 21.0842 36.8508L21.0902 36.8448L21.1082 36.7936C21.1203 36.7576 21.1293 36.7245 21.1383 36.6944C21.1563 36.6312 21.1714 36.5741 21.1894 36.52C21.2165 36.4147 21.2375 36.3245 21.2556 36.2343C21.2947 36.0538 21.3338 35.8733 21.4421 35.5636C21.436 35.4824 21.412 35.4944 21.3879 35.4974C21.3609 35.5094 21.3458 35.4914 21.3278 35.4523C21.3308 35.3952 21.3428 35.338 21.3548 35.2959C21.3609 35.2749 21.3669 35.2568 21.3729 35.2418C21.3729 35.2177 21.403 35.2478 21.418 35.2508C21.4842 35.2899 21.5263 35.335 21.5473 35.3711C21.5594 35.3891 21.5654 35.4072 21.5714 35.4222C21.5864 35.4403 21.6375 35.4643 21.6766 35.4824C21.7639 35.5215 21.8842 35.5455 22.0616 35.5546C22.2571 35.5275 22.3503 35.4222 22.8255 35.5786L22.636 35.6628C23.2827 35.7831 23.027 35.5666 23.6977 35.723C23.5714 35.7561 23.1834 35.7049 23.2797 35.729C23.7097 35.8703 23.5984 35.7019 23.9383 35.729L24.0015 35.8373C24.7022 35.8673 25.4721 35.7801 26.227 35.6598C26.1879 35.6959 26.0616 35.744 26.2451 35.753C26.4857 35.7079 26.7323 35.6628 26.9849 35.6147C27.2345 35.5636 27.4872 35.5094 27.7428 35.4583C28.2451 35.335 28.7413 35.2057 29.1924 35.0523L29.4902 34.8297C29.5684 34.7967 29.6496 34.8057 29.5744 34.8568C29.9233 34.7335 29.5684 34.7997 29.7127 34.6914C29.8962 34.5952 29.9804 34.6162 29.8751 34.6974C30.1518 34.526 30.5368 34.2703 30.9188 34.0117C31.3007 33.753 31.6797 33.4824 31.9774 33.314C31.9473 33.347 31.9203 33.3831 31.8902 33.4162C32.3263 33.1124 32.2481 32.9109 32.6601 32.6463L32.6 32.7215C33.0451 32.3636 33.4481 31.9155 33.83 31.4944C34.1969 31.0613 34.5308 30.6493 34.8315 30.3275C34.8225 30.2222 35 29.9997 35.1473 29.7741C35.2947 29.5455 35.43 29.326 35.3729 29.2508C35.7578 28.7215 35.7127 28.9079 36.1669 28.1049C36.2751 27.8824 36.212 27.723 36.3142 27.4403L36.4015 27.4673C36.4255 27.329 36.4406 27.1876 36.4586 27.0493L36.6391 26.8839C36.6661 26.7936 36.6932 26.7004 36.7112 26.6072C36.6721 26.7124 36.5909 26.8207 36.5729 26.7936C36.6842 26.3636 36.9699 25.7891 37.015 25.7861C37.0902 25.4433 37.1473 25.0944 37.1985 24.7485C37.2285 24.7786 37.2015 24.953 37.1924 25.0944C37.2255 24.526 37.3157 25.0162 37.3398 24.4929C37.3067 24.5561 37.2917 24.4448 37.2766 24.4297C37.3278 24.3094 37.3819 24.1049 37.427 23.8794C37.4631 23.6508 37.4962 23.3982 37.5142 23.1816L37.5654 23.2718C37.6797 22.4959 37.6887 21.6267 37.6797 20.7515C37.6526 21.0673 37.5443 20.9921 37.5293 20.7395L37.6255 20.6342C37.5594 20.4718 37.5954 20.9019 37.5112 20.5651C37.5112 20.2403 37.6165 20.3425 37.6526 20.529L37.6075 20.132C37.6345 20.1079 37.6556 20.1982 37.6917 20.2222C37.6315 20.0628 37.7428 19.5275 37.6225 19.3019L37.6496 19.2779C37.5503 18.4057 37.4601 18.0147 37.3127 17.317C37.2255 17.32 37.1924 17.0433 37.0751 16.8538C36.9789 16.3425 36.8917 15.7621 36.6781 15.1696C36.4917 14.7666 36.5669 15.0703 36.4556 14.9019C36.5248 14.8418 36.2842 14.2613 36.4556 14.544C36.3112 14.1952 36.221 13.9696 36.0977 13.732C36.0375 13.6117 35.9744 13.4884 35.8992 13.341C35.815 13.1967 35.7188 13.0312 35.5985 12.8237C35.6165 12.932 35.6556 13.0403 35.6075 12.9982C35.5203 12.8508 35.4601 12.6342 35.5022 12.6373L35.5323 12.6733C35.2255 12.2312 34.9669 11.6688 34.6721 11.1515C34.5308 10.8899 34.3804 10.6403 34.221 10.4207C34.0676 10.1982 33.8992 10.0117 33.7338 9.87034L33.7699 9.90342C33.5654 9.68688 33.3428 9.49139 33.1233 9.28989C32.8586 8.97711 33.3308 9.43124 33.1624 9.1756C32.4105 8.56808 32.0917 8.0959 31.421 7.66282C31.2496 7.38312 30.8075 7.0553 30.3142 6.76357C29.824 6.46583 29.2827 6.20417 28.9368 5.96357L28.9578 6.03274C28.7413 5.98763 28.7383 5.88838 28.5969 5.8162C28.603 5.86132 28.7894 5.95455 28.6571 5.92447C27.818 5.57861 26.9308 5.26583 26.0105 5.04628C25.0902 4.82673 24.1308 4.70342 23.1834 4.72147C22.4917 4.74553 22.8165 5.0132 21.9503 4.98914C22.0255 4.94101 22.1007 4.8959 22.1789 4.8568C21.4992 5.01019 20.8105 5.15455 20.1398 5.36808C19.4721 5.58462 18.8195 5.85229 18.2451 6.21019C18.3052 6.15305 18.2962 6.12598 18.4135 6.06883C18.1188 6.12598 17.4842 6.57711 17.5172 6.63425C17.3368 6.74252 17.4481 6.6162 17.3218 6.66132C17.0511 6.7756 16.7804 7.14252 16.615 7.17259C16.5879 7.17861 16.6661 7.10643 16.7052 7.07034C16.5669 7.19966 16.0135 7.59966 16.206 7.55154C15.7879 7.84026 15.5022 8.2132 15.1864 8.46282C15.0601 8.70643 14.5669 9.06733 14.606 9.21169C14.5248 9.09139 13.9563 9.82222 13.83 10.123C13.8601 10.0117 13.6315 10.3215 13.6586 10.1861C13.4571 10.4899 13.2917 10.7816 13.3849 10.7666C12.8887 11.2508 12.8165 11.9846 12.4736 12.2282C12.0616 13.2297 11.7669 14.1831 11.5413 15.1155C11.4812 15.0824 11.5443 14.8207 11.6195 14.5741C11.6947 14.3275 11.7699 14.0899 11.6947 14.0869C11.4511 14.9801 11.4391 15.5185 11.2255 16.3967C11.1624 16.6252 11.1924 16.2553 11.1834 16.1711C11.0511 17.0764 10.8887 17.9215 10.9188 18.7365C10.9067 18.7365 10.8977 18.6463 10.8917 18.5621C10.8887 18.7215 10.8496 18.935 10.9127 18.917L10.9037 18.7606C10.9548 18.6342 10.9939 18.7967 11.024 18.9921C11.0571 19.1876 11.0932 19.4132 11.1172 19.4282C10.9428 19.1545 11.0661 20.2222 10.8436 19.7952C10.8556 19.9004 10.8917 20.0327 10.9308 20.0087C10.9248 20.1651 10.9007 20.2162 10.8496 20.0568C10.9037 20.6282 10.9518 20.4237 10.9879 20.938C10.9578 20.938 10.9398 20.8358 10.9007 20.7846C10.9819 21.0433 11.0451 21.3019 11.0781 21.738C11.0571 21.7139 11.0391 21.7681 11.024 21.6388C11.1112 22.3876 11.3518 22.8809 11.4691 23.6929C11.2857 23.4854 11.4932 23.9726 11.3939 24.0448C11.4421 24.1861 11.4842 24.3275 11.5383 24.4658L11.5443 24.2794C11.6496 24.6523 11.815 24.9621 11.8902 25.2869L11.7548 25.0282L12.0045 25.7109C11.9714 25.5786 11.9443 25.4433 11.9142 25.3079C12.0947 25.6598 12.0315 25.2237 12.1729 25.717C12.1248 25.6237 12.3052 26.0779 12.3172 26.2884C12.4255 26.4508 12.5368 26.6162 12.621 26.8869C12.621 26.9681 12.4827 26.8839 12.4827 26.938C12.6451 27.0703 12.8917 27.75 13.0992 27.9094C13.0421 27.8493 12.9879 27.8733 12.9879 27.9034L13.1293 28.0087C13.1894 28.1801 13.1954 28.2072 13.1383 28.2042C13.3939 28.6794 13.1774 27.9876 13.4421 28.5711C13.412 28.532 13.415 28.5561 13.3518 28.4718C13.6436 29.0463 14.0436 29.5004 14.3624 29.9967C14.3744 30.2072 14.0345 29.5967 14.0766 29.8132C14.3353 30.1561 14.633 30.4869 14.9338 30.8057C15.0872 30.9621 15.2406 31.1185 15.3909 31.2718C15.4631 31.35 15.5413 31.4222 15.6165 31.5004L15.7097 31.5967L15.7789 31.6749L15.7188 31.5936C15.7849 31.5786 15.8541 31.6388 15.9022 31.714C15.8511 31.7982 15.7909 31.8703 15.7308 31.9636C15.6616 32.0779 15.5985 32.2042 15.5684 32.3335C15.5985 32.2343 15.5413 32.1771 15.5443 32.2072C15.3007 32.7155 15.1323 33.2839 14.9037 34.1049V33.9906C14.7563 34.2914 14.606 34.8147 14.5007 35.1636C14.5127 35.2779 14.4616 35.4764 14.5458 35.3681C14.5097 35.4523 14.4736 35.5335 14.4375 35.6117C14.4105 35.6688 14.4015 35.732 14.3744 35.7711C14.3052 35.7561 14.2451 35.747 14.1819 35.747H14.0556H13.8932C13.6766 35.75 13.4691 35.7831 13.2616 35.8072C13.0571 35.8403 12.8526 35.8703 12.6511 35.8974C12.4526 35.9335 12.2481 35.9455 12.0436 35.9546C12.1578 35.9215 12.3142 35.8643 12.221 35.8794C11.9473 35.9485 11.6766 36.0388 11.409 36.129C11.4932 36.1711 11.5263 36.135 11.7127 36.144C11.6676 36.1771 11.5894 36.2162 11.4992 36.2553C11.412 36.3004 11.3097 36.3455 11.2135 36.3786C11.5503 36.2102 11.1774 36.2733 11.006 36.2914C11.0391 36.3034 10.9939 36.3425 11.015 36.3576C10.5578 36.3906 10.9969 36.5079 10.4195 36.6673L10.4315 36.6222C10.3323 36.6764 10.2421 36.7365 10.1488 36.7936C10.0586 36.8568 9.96838 36.92 9.8601 36.9741C9.73379 36.953 10.0466 36.8237 10.0315 36.7576C9.88417 36.8448 9.75785 36.9591 9.63153 37.0643C9.50221 37.1666 9.37589 37.2598 9.23153 37.317C9.33379 37.2117 9.51123 37.1064 9.62552 37.0192C9.28266 37.1004 9.26762 37.1515 9.05409 37.2809L9.07514 37.2688L8.57589 37.5666L8.71123 37.5034C8.59394 37.7019 8.44958 37.8643 8.26612 38.0117C8.09168 38.1651 7.88116 38.3124 7.7398 38.5741C8.03454 38.0839 7.75183 38.4538 7.71574 38.3576C7.59544 38.4448 7.42101 38.5861 7.44507 38.523C7.37589 38.6463 7.28868 38.7185 7.18943 38.8027C7.09319 38.8869 6.98792 38.9831 6.91274 39.1726C6.87965 39.1666 6.72928 39.3982 6.71123 39.3019C6.50672 39.5936 6.80447 39.2688 6.81349 39.317C6.68717 39.5636 6.44958 39.7801 6.23304 40.0568C6.0195 40.3335 5.79093 40.6403 5.63454 41.0012C5.34883 41.6117 5.37589 41.7651 5.14432 42.3395C5.01198 42.5049 5.12326 42.138 5.12326 42.138C4.93379 42.4207 4.83153 42.6553 4.73529 42.9591C4.73529 42.8899 4.69018 42.941 4.62101 43.0162C4.52777 43.2568 4.65409 43.2147 4.48567 43.5094C4.47665 43.4433 4.4586 43.3561 4.47364 43.2297C4.38041 43.5185 4.32627 43.8162 4.24507 44.12C4.16988 44.1801 4.23304 43.9155 4.24507 43.8012C4.1398 44.138 3.98642 44.6764 4.03153 44.8027L4.12777 44.5982C4.09168 44.7215 4.04056 44.6403 4.05559 44.544C4.08868 44.2373 4.22402 44.144 4.2571 44.138L4.19996 44.3515C4.43454 44.1952 4.47665 43.5094 4.66311 43.1004L4.70823 43.32C4.73229 43.1666 4.76236 43.0132 4.79244 42.8598C4.86161 42.7846 4.95183 42.7546 4.87965 42.9591C5.06612 42.6974 4.95183 42.6824 5.13229 42.4688C5.15635 42.4478 5.15334 42.4628 5.14732 42.4899L5.24958 42.1952C5.24657 42.2613 5.35183 42.1891 5.24958 42.3515C5.55935 41.8884 5.58041 41.5155 5.76988 41.3801L5.75484 41.4252C5.92627 41.0794 5.92326 41.0583 5.89319 41.0463C5.86311 41.0343 5.81198 41.0403 5.92928 40.7666L6.33229 40.5651L6.2992 40.4508C6.34432 40.3876 6.43755 40.2583 6.45259 40.3034C6.56386 40.0207 6.39244 40.3215 6.43755 40.144C6.72627 39.8824 7.06311 39.2899 7.22552 39.314C7.2586 39.1606 6.95484 39.5636 7.17439 39.2147C7.36086 39.2267 7.48116 38.8538 7.77289 38.6493C7.75484 38.7846 7.4962 38.9891 7.79093 38.7906C7.81499 38.6703 7.93529 38.547 8.08266 38.4418C8.23304 38.3425 8.40146 38.2463 8.50071 38.141C8.47063 38.0959 8.58492 37.9816 8.75033 37.8403C8.92777 37.7139 9.15935 37.5606 9.35183 37.4042C9.35183 37.4162 9.39995 37.3921 9.47815 37.347C9.56236 37.3079 9.67965 37.2478 9.80898 37.1846C9.9383 37.1185 10.0827 37.0493 10.218 36.9801C10.3594 36.926 10.4947 36.8749 10.603 36.8358L10.5969 36.8568C10.615 36.7876 10.7323 36.7094 10.8827 36.6282C11.0421 36.5651 11.2315 36.4899 11.3909 36.4237C11.4 36.4899 11.3488 36.535 11.1864 36.6252L11.4872 36.52C11.5473 36.4568 11.6375 36.4177 11.836 36.3515L11.7789 36.4508C11.9834 36.3967 12.1789 36.3094 12.4045 36.2613C12.5157 36.2343 12.63 36.2042 12.7533 36.1831C12.8766 36.1681 13.006 36.1591 13.1413 36.1561C13.1684 36.0779 12.6781 35.9906 13.2646 35.8764C13.2887 35.9185 13.3157 35.9816 13.1654 36.0147C13.2135 35.9997 13.3428 35.9666 13.4451 35.9816L13.2165 36.0628C13.4691 36.0779 13.3428 35.9967 13.5443 35.9936C13.5443 36.0538 13.6947 36.0297 13.6676 36.0779C13.6165 36.0869 13.4932 36.0628 13.418 36.0899C13.6436 36.0839 13.9142 36.126 13.9985 36.1711C13.9894 36.153 13.9894 36.135 14.0135 36.117C14.0406 36.1019 14.0736 36.0899 14.1879 36.0929C14.6962 36.141 14.4857 36.1831 14.7112 36.2463C14.7263 36.2433 14.7293 36.2072 14.7413 36.1711C14.7353 35.9846 14.8526 35.5936 14.7684 35.5786C14.7985 35.4583 14.8436 35.4433 14.8766 35.4042C14.8857 35.1816 15.1473 34.4087 14.9849 34.6192L14.9639 34.6733C14.9639 34.6733 14.9669 34.6493 14.9699 34.6373C15.1022 33.9094 15.5142 33.2177 15.7639 32.535L15.7909 32.547C15.836 32.4147 15.8902 32.2764 15.9443 32.138C16.0105 31.9756 16.0797 31.8132 16.1398 31.6658C15.9985 31.5275 15.8541 31.4012 15.7669 31.344C15.6766 31.2508 15.5985 31.0884 15.6616 31.1034C15.43 30.8688 15.3669 30.8718 15.1022 30.4718C15.3518 30.6944 15.0631 30.3576 15.3488 30.7064C15.0932 30.3606 15.0661 30.2643 14.7233 29.9455C14.8797 30.0237 14.603 29.6358 14.4706 29.4794C14.5097 29.5726 14.5548 29.6628 14.603 29.753C14.4526 29.5786 14.3533 29.4042 14.2421 29.2358L14.3864 29.2688C14.0015 28.4899 13.3729 28.0388 13.2526 27.35C13.0842 27.1756 13.427 27.7921 13.2586 27.6478C13.0781 27.2869 13.0451 26.8388 12.9879 26.7275C12.8285 26.2012 12.6451 26.3155 12.4797 25.7591C12.4736 25.8403 12.4075 25.9395 12.224 25.5455C12.1097 25.1546 12.209 25.0252 12.3172 25.2568C12.3503 25.347 12.3533 25.3952 12.3413 25.3952C12.3924 25.5155 12.4706 25.6688 12.4496 25.5064L12.3985 25.4703C12.3714 25.2688 12.1939 24.7455 12.2902 24.8508C12.1729 24.5711 12.1939 24.7455 12.2451 24.9651C12.1428 24.4568 12.0135 24.1921 11.9263 23.6688C11.9263 23.7561 11.9052 23.8403 11.8842 23.7591C11.7518 22.9891 11.7458 23.4373 11.6195 22.923C11.6195 22.6162 11.7609 23.0072 11.6315 22.4899C11.6165 22.1651 11.7127 22.4087 11.7639 22.529C11.6105 22.0658 11.6887 21.6327 11.6646 21.3591L11.7218 21.6057C11.6887 21.4583 11.6706 21.335 11.6646 21.2087L11.6045 21.3591C11.6045 21.2087 11.5954 21.0854 11.6255 21.0854C11.5684 20.935 11.5172 21.2117 11.43 20.9109C11.4451 20.7094 11.3548 20.3034 11.4511 20.2312C11.4391 20.8598 11.5383 20.1591 11.5804 20.6854C11.5594 20.5861 11.5594 20.4598 11.5654 20.3094C11.5744 20.2854 11.5864 20.3305 11.5924 20.3696C11.6646 19.7741 11.4631 20.0989 11.4751 19.4794C11.5263 19.5576 11.5774 19.338 11.5684 19.2358C11.5654 19.4854 11.4781 19.353 11.4391 19.1215C11.4992 18.7245 11.43 18.6884 11.4481 18.4779L11.415 18.7155C11.3699 18.6312 11.3759 18.4297 11.3909 18.153C11.436 18.132 11.3939 18.4087 11.421 18.3094C11.3609 17.9906 11.5804 17.6237 11.5864 17.1906C11.6496 16.9982 11.6887 17.1876 11.7368 17.0162C11.7518 16.532 11.8932 16.517 11.9473 16.0147C11.8451 16.141 11.8541 16.1711 11.8691 15.8072C11.818 16.0809 11.7789 16.3545 11.7488 16.6312C11.7488 16.4508 11.7428 16.2673 11.7488 16.0869C11.6917 16.3335 11.6917 16.6192 11.6496 16.7636C11.6406 16.5019 11.6496 16.532 11.5714 16.6403C11.7368 16.3185 11.6436 15.9515 11.809 15.5786L11.9774 15.6327C12.203 15.0794 12.1639 14.5831 12.4797 13.8703L12.3624 14.0929C12.3353 13.9726 12.5188 13.6388 12.5909 13.3982C12.636 13.4433 12.7172 13.3049 12.7954 13.2237C12.7473 13.2147 13.027 12.7094 12.9578 12.5952L13.1804 12.3185C13.5022 11.7831 13.3699 11.6057 13.7067 11.1004C13.6676 11.2899 13.8451 11.0794 13.6736 11.4463C13.7789 11.2748 13.8812 11.1275 13.8481 11.1034C13.9443 11.0282 14.0887 10.5952 14.2451 10.4779C14.2751 10.3936 14.2421 10.3365 14.3804 10.1561C14.4045 10.144 14.4045 10.1741 14.4045 10.1741C14.3804 10.1561 14.5849 9.86432 14.4135 9.98462C14.6812 9.79816 14.9488 9.45831 15.2375 9.14252C15.3759 8.98011 15.5233 8.83274 15.6646 8.70342C15.803 8.57109 15.9413 8.46883 16.0676 8.40868C16.224 8.2553 16.3954 8.08387 16.5789 7.9335C16.7563 7.7741 16.9368 7.62974 17.0992 7.51545C17.0902 7.54553 17.1142 7.53951 17.0511 7.57861C17.5263 7.30192 17.2285 7.23876 17.7909 6.94703C18.1127 6.8568 17.5383 7.16959 17.7248 7.0944C17.812 7.15455 17.9654 7.04327 18.1578 6.91996C18.3473 6.79064 18.5729 6.63425 18.7894 6.59816L18.7052 6.65229C19.018 6.56808 19.3759 6.24327 19.8751 6.07786C19.8751 6.07786 19.8571 6.10192 19.8812 6.10793C20.1789 5.88538 20.8285 5.6538 21.3218 5.52447C21.1834 5.63575 21.1052 5.6147 21.2165 5.66883C21.436 5.60868 21.1233 5.55756 21.5654 5.44327C21.7188 5.45831 22.0496 5.44327 22.1037 5.51545L21.6857 5.59064C21.9172 5.6568 22.227 5.49139 22.4526 5.4944L22.4285 5.54553C22.7503 5.49741 22.9097 5.4553 23.0812 5.41921C23.2496 5.38011 23.427 5.33801 23.7789 5.35004L23.7067 5.31395C24.0947 5.19966 24.0285 5.37711 24.4165 5.31695L24.5248 5.44327C24.7774 5.42523 25.421 5.42222 25.8751 5.49139C25.7398 5.51244 25.5383 5.50643 25.3308 5.50041C25.1233 5.50041 24.9067 5.50643 24.7413 5.50643C24.8646 5.52147 25.0751 5.54553 25.2706 5.56056C25.4661 5.57861 25.6496 5.59966 25.7188 5.58162C25.6165 5.5756 25.4872 5.58162 25.3939 5.54553C25.5533 5.52748 25.7338 5.52447 25.9383 5.53951C26.1428 5.55756 26.3654 5.60568 26.612 5.66282C26.5398 5.75906 26.8496 5.86733 27.2105 5.98462C27.3879 6.0538 27.5804 6.12598 27.7458 6.19816C27.9082 6.27335 28.0406 6.36056 28.1067 6.43274C28.9488 6.70041 29.6586 7.22673 30.4977 7.80417C30.3022 7.44929 30.7473 7.96959 30.8015 7.79214C31 7.93049 31.0721 7.98763 31.0812 8.00868C31.2556 8.18312 31.409 8.3756 31.5744 8.55605C31.6706 8.70643 31.3729 8.44177 31.3639 8.48688C31.7518 8.83274 31.4812 8.68538 31.7007 8.95305C31.6917 8.8568 31.8992 9.00417 32.0947 9.22974C32.0165 9.10944 31.9293 8.99816 31.8481 8.88086C32.1518 9.09139 32.233 9.23575 32.3172 9.3741C32.4015 9.51545 32.4857 9.65079 32.7654 9.89139L32.5669 9.75906C32.8556 10.0057 33.4691 10.8057 33.7969 11.0252C33.821 11.0914 33.833 11.1906 33.7218 11.0673C34.2391 11.7982 34.9548 12.6733 35.1804 13.353L35.1082 13.3109C35.1924 13.4553 35.3218 13.5335 35.3639 13.75C35.3428 13.75 35.2947 13.7079 35.3248 13.7801C35.3729 13.8553 35.5864 14.1561 35.6436 14.3756C35.6045 14.3215 35.5654 14.2703 35.5233 14.2192C35.6616 14.6403 35.821 14.938 35.9594 15.2297C36.1097 15.5185 36.2481 15.7921 36.3684 16.147C36.2481 16.1801 36.3804 16.8628 36.4345 17.2057L36.4135 17.1967C36.618 18.1982 36.8345 18.8929 36.9548 19.8433C36.9338 19.9936 36.9218 20.1952 36.9127 20.4237C36.9097 20.6553 36.9097 20.917 36.8977 21.1876C36.8977 21.4613 36.8827 21.744 36.8586 22.0177C36.8436 22.2914 36.8015 22.5561 36.7594 22.7876C36.7985 22.6463 36.8586 22.8207 36.8556 22.9921C36.8015 23.2087 36.8586 23.6177 36.7443 23.5636L36.7563 23.4854C36.621 23.6358 36.5669 24.0869 36.4977 24.4358L36.6391 24.526C36.4225 24.9591 36.2992 25.5546 36.1398 26.0929C36.0676 26.3636 35.9894 26.6192 35.9022 26.8297C35.821 27.0433 35.7308 27.2117 35.6315 27.3079C35.5804 27.5305 35.4691 27.7861 35.403 28.0027L35.3308 27.9546C35.1894 28.2312 35.0721 28.4327 34.9458 28.6523C34.8285 28.8749 34.6872 29.1034 34.4947 29.4373L34.5248 29.2718C34.2932 29.6327 34.4345 29.8643 34.206 30.2012L34.0315 30.2222C33.5834 30.8388 33.003 31.341 32.5428 31.9365C32.5398 31.9155 32.5278 31.8733 32.612 31.7831C32.4887 31.9124 32.218 32.123 32.0075 32.3124C31.7939 32.4959 31.6315 32.6493 31.7368 32.6794C31.6616 32.6012 31.1203 33.1515 30.7924 33.4102L30.8015 33.3049C30.5699 33.5816 30.5789 33.6207 30.1669 33.8824C30.0616 33.9305 30.0466 33.8733 30.1909 33.8162C29.8391 33.9666 29.9654 34.0297 29.5293 34.1982L29.6616 34.0718C29.3067 34.2433 29.3458 34.2493 29.1714 34.3936C28.9578 34.532 28.4646 34.6523 28.3864 34.5982C28.3533 34.6613 28.1669 34.7936 27.9353 34.8327C27.8962 34.8147 27.9744 34.7726 28.0105 34.7515C27.8481 34.7846 27.7097 34.8237 27.5894 34.8658C27.4661 34.9019 27.3548 34.938 27.2496 34.9741C27.0421 35.0493 26.8526 35.1034 26.621 35.0974C26.606 35.0703 26.5759 35.0643 26.5368 35.0613C27.0541 34.9891 27.4571 34.8688 27.424 34.8929C27.403 34.8177 26.9969 34.8989 27.2947 34.7215C26.9879 34.8598 26.4436 35.0884 26.0285 35.1004C26.0075 35.0944 25.9894 35.0914 25.9714 35.0794L26.0135 35.0643C25.9203 35.0703 25.836 35.0824 25.7578 35.1034C25.6285 35.1034 25.5443 35.0974 25.418 35.1034C25.3669 35.0463 24.9398 35.0914 24.7323 35.0854C24.7503 35.1726 24.4736 35.1546 24.7323 35.2267C24.6992 35.2207 24.7714 35.2177 24.9127 35.2117C24.9428 35.2117 24.9819 35.2087 25.003 35.2027C25 35.2027 24.9939 35.2087 24.9879 35.2117C25.1263 35.2027 25.3067 35.1997 25.5082 35.1816C25.3458 35.2358 25.1714 35.2809 24.9368 35.2388C24.8285 35.2929 24.7082 35.353 24.6421 35.3771C24.3503 35.2628 23.803 35.1576 23.7338 35.0764C23.0932 35.0703 22.2481 34.8809 21.818 34.923C21.6496 34.8959 21.5894 34.8117 21.4962 34.7576C21.5714 34.7756 21.6526 34.7936 21.7278 34.8087C21.7789 34.8177 21.824 34.8267 21.8541 34.8237C21.806 34.8147 21.7639 34.8087 21.6977 34.7936C21.6165 34.7726 21.5293 34.7515 21.4421 34.7275C21.3548 34.7034 21.2676 34.6794 21.1804 34.6553L21.0511 34.6192C21.0511 34.6192 21.0391 34.6162 21.036 34.6162V34.6343L21.024 34.6673L21.006 34.7335C20.9157 35.0854 20.8526 35.3801 20.9007 35.4102C20.7203 35.8463 20.8766 35.1275 20.7112 35.753L20.7022 35.6598C20.5849 35.9185 20.5037 36.1651 20.4436 36.4027C20.4105 36.547 20.3774 36.6914 20.3443 36.8297C20.3082 37.0042 20.2631 37.1756 20.2451 37.326C20.4827 37.3711 20.7052 37.4072 20.9037 37.4583C21.0601 37.4914 21.2015 37.5275 21.3548 37.5756C21.6586 37.6718 21.9714 37.8162 22.2932 38.0358C22.212 37.9846 22.1699 37.9576 22.1609 37.9335C22.8616 38.3064 23.5804 38.6944 24.2451 39.1606C24.9127 39.6267 25.5082 40.1831 25.9533 40.8327C26.218 41.1906 26.2962 41.1906 26.5127 41.3681L26.5007 41.5004L26.8676 41.8072C27.3308 42.2944 27.3699 42.8598 27.9563 43.4733L27.9473 43.35C28.1067 43.6057 28.5037 44.129 28.4165 44.126C28.4436 44.147 28.5248 44.1741 28.5609 44.2914L28.5248 44.3245L28.9849 44.9109C29.2526 45.4222 28.7804 44.932 29.1985 45.6538C29.3729 45.9124 29.7578 46.3545 29.7278 46.2373C29.6706 46.126 29.5954 45.9425 29.6345 45.9124L29.7969 46.15C29.9443 46.129 30.1819 46.2523 29.9142 45.5846L29.5924 45.2027L29.5684 45.0312L29.7849 45.3861C29.7218 45.1485 29.5954 45.0493 29.4751 44.926C29.4872 44.8718 29.4721 44.7997 29.433 44.7094L29.0661 44.3666C29.0812 44.2884 29.2736 44.4929 29.1263 44.2012C28.9518 44.0418 29.1383 44.4508 28.9037 44.153C28.8315 43.9215 28.9097 43.9515 28.7172 43.747C28.7263 43.6959 28.7774 43.732 28.8496 43.8162C28.6812 43.6297 28.4766 43.2779 28.3443 43.2147C28.2721 42.9651 27.8571 42.538 27.9804 42.4839C27.9082 42.4388 27.6466 42.1861 27.5052 42.0087C27.8812 42.2493 27.006 41.32 27.2045 41.3079C26.9067 41.1485 26.4676 40.4688 26.0285 40.1139C26.0586 40.129 26.1157 40.1591 26.1458 40.1982C25.9383 39.9606 25.9082 39.8643 25.7879 39.6989C25.6706 39.7591 25.3097 39.4312 25.0571 39.329C24.8375 38.9982 25.3248 39.3711 25.3037 39.2117C25.2556 39.2959 24.7263 38.8568 24.7774 39.0042C24.5849 38.7756 24.5969 38.8267 24.5338 38.6583C24.4075 38.7455 24.2992 38.517 24.0436 38.4598C23.7308 38.1651 24.0285 38.2824 23.6075 38.0779C23.4391 37.9245 23.824 38.0929 23.824 38.0929L23.8451 38.12ZM26.227 35.6297C26.1338 35.6448 26.0526 35.6568 26.0015 35.6628C26.0496 35.6568 26.1127 35.6448 26.224 35.6297H26.227ZM27.1353 35.4764C27.027 35.5034 26.8857 35.5185 26.7413 35.5455C26.7052 35.5215 26.7353 35.4854 26.8255 35.4733C26.7804 35.4974 26.9969 35.4854 27.1353 35.4764ZM25.1834 35.1275C25.3218 35.1094 25.3669 35.1275 25.3879 35.1395C25.3218 35.1455 25.2466 35.1515 25.1473 35.1606C25.1443 35.1606 25.1353 35.1696 25.1323 35.1726C25.1443 35.1546 25.1594 35.1395 25.1864 35.1275H25.1834Z" fill="#1B1B1B"/>
<path d="M24.9343 35.2423C24.9132 35.2423 24.9041 35.2483 24.877 35.2483C24.9071 35.2543 24.9343 35.2604 24.9614 35.2664C24.9795 35.2574 24.9946 35.2483 25.0097 35.2393C24.9856 35.2393 24.9584 35.2393 24.9343 35.2393V35.2423Z" fill="#1B1B1B"/>
<path d="M15.0005 34.6294L15.0069 34.6104C15.0069 34.6104 14.991 34.6389 14.9814 34.6453C14.9878 34.6326 14.991 34.6358 14.9973 34.6262L15.0005 34.6294Z" fill="#1B1B1B"/>
<path d="M36.4219 27.4709L36.4008 27.4648L36.3857 27.5462L36.4219 27.4709Z" fill="#1B1B1B"/>
<path d="M11.0068 36.2947C11.0068 36.2947 10.9736 36.2886 10.9375 36.2947C10.9435 36.2977 10.9706 36.2947 11.0068 36.2947Z" fill="#1B1B1B"/>
<path d="M9.05753 37.2832L8.78613 37.437C8.90675 37.3737 8.99119 37.3254 9.05753 37.2832Z" fill="#1B1B1B"/>
<path d="M7.72197 38.3105C7.71582 38.3382 7.72197 38.3505 7.72197 38.3628L7.71582 38.3105H7.72197Z" fill="#1B1B1B"/>
<path d="M10.8915 18.5691C10.8915 18.545 10.8915 18.5239 10.8915 18.5028C10.8824 18.3489 10.8854 18.4545 10.8915 18.5691Z" fill="#1B1B1B"/>
<path d="M12.3181 26.2954C12.2728 26.223 12.2306 26.1507 12.1914 26.0723C12.2366 26.2049 12.2728 26.3105 12.3181 26.2954Z" fill="#1B1B1B"/>
<path d="M13.6553 10.1913C13.6553 10.1913 13.6772 10.1631 13.6897 10.1475L13.6553 10.1913Z" fill="#1B1B1B"/>
<path d="M12.0615 25.7266C12.0947 25.8653 12.1399 25.9738 12.1912 26.0703C12.155 25.9588 12.1158 25.8291 12.0615 25.7266Z" fill="#1B1B1B"/>
<path d="M6.96743 39.7051L6.60352 40.1201C6.69073 40.066 6.80201 39.9908 6.65765 40.1923C7.16291 39.7081 6.50728 40.2585 6.96743 39.7051Z" fill="#1B1B1B"/>
<path d="M8.14861 38.481C7.94356 38.6921 8.18178 38.5112 8.1848 38.5383C8.30542 38.3966 8.33558 38.3604 8.14861 38.481Z" fill="#1B1B1B"/>
<path d="M15.6138 30.999L15.6891 30.9689C15.5295 30.8063 15.665 30.987 15.6138 30.999Z" fill="#1B1B1B"/>
<path d="M13.8359 29.3594L13.9264 29.5765L14.047 29.6247L13.8359 29.3594Z" fill="#1B1B1B"/>
<path d="M13.5813 27.8779L13.6386 27.9593C13.5662 27.8538 13.5059 27.7452 13.4365 27.6396L13.5813 27.8779Z" fill="#1B1B1B"/>
<path d="M15.8004 8.81498L15.6858 8.79688C15.5892 8.91756 15.6435 9.01411 15.8004 8.81498Z" fill="#1B1B1B"/>
<path d="M23.7129 5.41864C23.8091 5.46976 24.0557 5.49382 24.2121 5.46074C24.0136 5.43969 23.8151 5.40961 23.7129 5.41864Z" fill="#1B1B1B"/>
<path d="M36.4406 24.9534L36.4496 24.7725L36.4014 25.1072L36.4406 24.9534Z" fill="#1B1B1B"/>
<path d="M2.28711 49.943C2.28711 49.943 2.88861 43.9279 5.59538 40.9204C8.30215 37.9129 10.1067 35.8076 12.8134 35.8076C12.8134 35.8076 11.045 38.7069 16.7232 39.4166C21.5352 40.0181 20.9337 37.3114 20.9337 37.3114C21.9533 37.8287 24.7412 39.17 25.7458 40.3189C27.851 42.7249 29.6555 46.0332 29.6555 46.0332" fill="white"/>
<path d="M26.0557 40.5225L26.0743 40.5598C26.0743 40.5598 26.065 40.5349 26.0557 40.5225Z" fill="#1B1B1B"/>
<path d="M22.9944 38.2165C23.022 38.2287 23.0373 38.2287 23.0403 38.2226C23.0128 38.2134 22.9914 38.2073 22.9944 38.2165Z" fill="#1B1B1B"/>
<path d="M22.4551 37.834C22.4551 37.834 22.4773 37.8499 22.49 37.8594C22.4805 37.8467 22.4678 37.834 22.4551 37.834Z" fill="#1B1B1B"/>
<path d="M26.056 40.5231L26.0078 40.4297C25.9837 40.4387 26.0289 40.4809 26.056 40.5231Z" fill="#1B1B1B"/>
<path d="M26.5938 41.068C26.5938 41.068 26.6031 41.0524 26.6031 41.043C26.5969 41.0492 26.5938 41.0555 26.5938 41.068Z" fill="#1B1B1B"/>
<path d="M21.2852 37.1455C21.2852 37.1455 21.2915 37.1487 21.2947 37.1519C21.3487 37.1709 21.3201 37.1582 21.2852 37.1455Z" fill="#1B1B1B"/>
<path d="M12.8438 37.0793C12.8136 37.197 12.7291 36.9164 12.708 37.0914C12.7291 37.0733 12.8408 37.2181 12.8438 37.0793Z" fill="#1B1B1B"/>
<path d="M19.7363 38.9414C19.7363 38.9414 19.7586 38.9541 19.7713 38.9541C19.7681 38.9478 19.7586 38.9446 19.7363 38.9414Z" fill="#1B1B1B"/>
<path d="M18.7988 39.272C18.7717 39.272 18.7627 39.263 18.7266 39.272C18.7296 39.272 18.7326 39.2781 18.7386 39.2781C18.7507 39.269 18.7687 39.263 18.7988 39.269V39.272Z" fill="#1B1B1B"/>
<path d="M17.7247 39.3145C17.7247 39.3145 17.7369 39.3236 17.743 39.3266C17.7552 39.3266 17.7673 39.3266 17.7765 39.3236L17.7217 39.3145H17.7247Z" fill="#1B1B1B"/>
<path d="M18.8169 39.7744L18.6309 39.7804C18.6819 39.7804 18.7509 39.7804 18.8169 39.7744Z" fill="#1B1B1B"/>
<path d="M7.83962 38.8574L7.81738 38.8924C7.81738 38.8924 7.83962 38.8701 7.83962 38.8574Z" fill="#1B1B1B"/>
<path d="M18.0854 39.8167C18.0523 39.7926 18.0191 39.7805 17.983 39.7715C17.977 39.7775 17.9679 39.7805 17.9619 39.7865L18.0854 39.8136V39.8167Z" fill="#1B1B1B"/>
<path d="M3.32472 46.4606C3.36984 46.3012 3.26758 46.3644 3.23149 46.3193C3.26157 46.1238 3.3157 46.2471 3.37284 46.1929C3.38487 46.0696 3.33375 45.9553 3.36382 45.8681C3.37886 45.8681 3.38788 45.8501 3.39991 45.8741C3.37585 45.7298 3.5142 45.5042 3.47811 45.3328C3.48713 45.3238 3.49615 45.3208 3.50217 45.3208C3.45405 45.3328 3.41495 45.3208 3.38788 45.3087C3.40893 45.2365 3.37886 45.1614 3.43901 45.1493C3.42397 45.1914 3.44202 45.2035 3.45405 45.2275V45.1463C3.55029 45.1042 3.44803 45.2576 3.50518 45.2756C3.52322 45.1223 3.52924 44.9358 3.58638 44.8335C3.66758 44.8335 3.52021 45.0982 3.6345 44.9749L3.54728 45.1343C3.70668 45.0441 3.50217 45.2335 3.66758 45.1584C3.76683 44.9448 3.71871 44.8967 3.82096 44.6832C3.79991 44.62 3.7548 44.6772 3.73375 44.614C3.77585 44.2681 4.00743 44.4365 4.00442 44.1719C3.98036 44.0937 3.90217 44.0335 4.01645 43.8922L4.0736 43.9824C4.16984 43.7749 4.00442 43.811 4.15781 43.6155C4.16984 43.6666 4.11269 43.7899 4.13375 43.7629C4.25706 43.6486 4.13375 43.6426 4.18487 43.5343L4.26608 43.5433C4.36232 43.3238 4.41645 43.0501 4.53675 42.8095C4.54878 42.8335 4.54878 42.8847 4.59991 42.8396C4.66608 42.6832 4.7563 42.5268 4.85254 42.3794C4.95179 42.229 5.0751 42.1027 5.18036 41.9794L5.1954 41.8381C5.21345 41.814 5.24954 41.811 5.24352 41.8441C5.33375 41.7538 5.21345 41.814 5.22548 41.7478C5.26157 41.6847 5.30969 41.6907 5.30066 41.7418C5.38187 41.5313 5.59841 41.1734 5.79991 41.0381L5.78187 41.0862C5.92623 40.9659 5.82097 40.8396 5.98337 40.7493L5.97134 40.7824C6.26608 40.4997 6.52172 40.1238 6.80142 39.9614C6.77134 39.8531 7.10518 39.6937 7.02397 39.5854C7.22848 39.4591 7.20142 39.5223 7.45706 39.3178C7.52021 39.2576 7.48412 39.1674 7.54728 39.0771L7.59841 39.1223L7.64653 38.9659H7.76081L7.81796 38.8847C7.78788 38.9117 7.73676 38.9238 7.72473 38.9057C7.81194 38.7704 8.02548 38.6651 8.05555 38.6892C8.12773 38.5869 8.20292 38.4877 8.27811 38.3884C8.29315 38.4155 8.25405 38.4636 8.233 38.5117C8.32322 38.3223 8.31119 38.5388 8.39239 38.3674C8.36533 38.3734 8.37435 38.3283 8.36533 38.3162C8.45856 38.2832 8.60593 38.1418 8.70518 38.0275L8.71721 38.0817C8.92473 37.9042 9.12924 37.6817 9.36382 37.4892C9.26758 37.5433 9.23149 37.4621 9.29766 37.399L9.36984 37.432C9.38788 37.3599 9.27961 37.4681 9.33675 37.3508C9.433 37.2877 9.44803 37.3719 9.41194 37.429L9.50518 37.3268C9.52623 37.3388 9.50518 37.3689 9.51721 37.3959C9.53525 37.3268 9.74879 37.3117 9.76683 37.2005L9.78488 37.2125C10.0315 37.0471 10.1277 36.9418 10.3353 36.8215C10.3082 36.7644 10.3984 36.7313 10.4345 36.6501C10.5999 36.5719 10.8044 36.5448 10.9939 36.4456C11.1202 36.3614 11.015 36.3794 11.0631 36.3193C11.0962 36.3704 11.2947 36.2922 11.2044 36.3674C11.442 36.2741 11.5082 36.2471 11.8119 36.1268C11.7728 36.1117 11.7307 36.1117 11.7458 36.0877C11.8029 36.0636 11.8811 36.0756 11.8811 36.1087L11.8661 36.1178C11.9383 36.0877 12.0225 36.0726 12.1097 36.0666C12.1518 36.0636 12.1999 36.0606 12.236 36.0606C12.2601 36.0606 12.2781 36.0666 12.2901 36.0756C12.3443 36.1087 12.3443 36.1358 12.3533 36.1418C12.3533 36.1448 12.3623 36.1478 12.3804 36.1478H12.3743C12.3894 36.1568 12.4014 36.1869 12.4104 36.232C12.4104 36.223 12.4044 36.2441 12.4014 36.2501C12.3984 36.2591 12.3954 36.2621 12.3924 36.2591C12.3864 36.2591 12.3834 36.2441 12.3804 36.226C12.3683 36.217 12.3503 36.22 12.3322 36.208C12.3322 36.5959 12.23 36.8185 12.3353 37.1343C12.3082 37.2005 12.3052 37.2937 12.3232 37.3959C12.3413 37.4982 12.4014 37.6005 12.4525 37.7087C12.4977 37.82 12.5879 37.9042 12.645 38.0005C12.7082 38.0937 12.7593 38.1839 12.8044 38.2561L12.8195 38.217C12.9097 38.2501 12.8766 38.3042 12.9157 38.3553C12.9307 38.3253 12.8736 38.2651 12.9277 38.2862C13.4661 38.7463 14.0886 39.1313 14.7383 39.3809C14.9759 39.4651 14.9337 39.2185 15.2104 39.3899L15.1052 39.4411C15.6104 39.4922 16.1067 39.6546 16.5969 39.6546C16.5668 39.6666 16.5638 39.6877 16.5157 39.6817C16.6089 39.7568 16.8947 39.7298 16.9007 39.6847C16.9759 39.6967 16.9127 39.7268 16.9578 39.7538C17.0571 39.7959 17.2225 39.7087 17.2736 39.7659C17.2826 39.7749 17.2435 39.7809 17.2255 39.7839C17.2947 39.7629 17.5383 39.82 17.4781 39.7508C17.6586 39.7929 17.83 39.7298 17.9774 39.7689C18.0736 39.6997 18.2931 39.808 18.3202 39.7027C18.3112 39.805 18.654 39.7569 18.7653 39.6997C18.7292 39.7328 18.8706 39.7238 18.8315 39.7689C18.9668 39.7629 19.0871 39.7057 19.054 39.6606C19.1894 39.6967 19.3097 39.6456 19.415 39.6035C19.5202 39.5614 19.6074 39.5042 19.7037 39.5553C20.0856 39.3809 20.4104 39.1313 20.654 38.8365C20.6841 38.8726 20.621 38.9689 20.5398 39.029C20.4616 39.0952 20.3834 39.1584 20.4225 39.1975C20.4916 39.1313 20.5488 39.0681 20.5999 39.011C20.648 38.9448 20.6841 38.8787 20.7262 38.8185C20.8104 38.6982 20.8676 38.5629 20.9668 38.4125C21.015 38.3313 20.9909 38.4847 20.9819 38.5178C21.051 38.3403 21.1142 38.1719 21.1533 38.0005C21.1653 37.9644 21.1683 37.9042 21.1744 37.8832V37.8411C21.1744 37.814 21.1683 37.7839 21.1533 37.7388C21.1623 37.7508 21.1713 37.7719 21.1804 37.7899C21.1774 37.7659 21.1924 37.7659 21.1473 37.7087L21.1593 37.7448C21.1232 37.7268 21.0871 37.6486 21.045 37.5403C21.033 37.5072 21.0089 37.4501 21.0089 37.4381C21.015 37.429 21.018 37.42 21.015 37.411C21.0751 37.5914 21.2134 37.5493 21.2285 37.7418C21.2345 37.7358 21.2405 37.7147 21.2285 37.6726C21.2586 37.6967 21.2616 37.7208 21.2556 37.7568C21.3097 37.7568 21.2916 37.6937 21.3789 37.7388C21.3638 37.7568 21.3488 37.7568 21.3337 37.7809C21.3458 37.7629 21.4089 37.7689 21.4631 37.7809C21.5172 37.7929 21.5774 37.817 21.6435 37.8591C21.6285 37.8681 21.6375 37.8922 21.5954 37.8681C21.839 37.9854 22.0556 37.9734 22.2992 38.1478C22.1759 38.1929 22.3713 38.223 22.3473 38.3042L22.4977 38.3553L22.4616 38.2892C22.5849 38.3553 22.7202 38.3614 22.8104 38.4426L22.7022 38.4245L22.9368 38.5358L22.8225 38.4365C22.9668 38.4666 22.8616 38.3343 23.0119 38.4456C22.9759 38.4335 23.1322 38.5147 23.1713 38.5929C23.2435 38.602 23.3217 38.614 23.3999 38.6832C23.4089 38.7193 23.3337 38.7523 23.3398 38.7764C23.433 38.7493 23.6315 38.9208 23.7398 38.9027C23.7067 38.9027 23.6826 38.9388 23.6856 38.9538L23.7638 38.9358C23.8089 38.9839 23.8119 38.9959 23.7849 39.023C23.9443 39.1313 23.7879 38.8997 23.9593 39.0591C23.9413 39.0531 23.9443 39.0651 23.9082 39.0531C24.0886 39.1944 24.3052 39.2576 24.4616 39.402C24.4646 39.5072 24.2992 39.3147 24.3172 39.414C24.5728 39.5704 24.8947 39.6847 25.1052 39.8892L25.0691 39.8471C25.1774 39.7809 25.2014 40.0275 25.3458 40.0847C25.3127 40.0666 25.2676 40.1027 25.2826 40.0997C25.418 40.2441 25.5894 40.3463 25.818 40.5629L25.7698 40.5538C25.827 40.6621 25.9623 40.8035 26.0315 40.9117C26.0796 40.9208 26.1217 40.9839 26.1277 40.9208C26.242 41.3358 26.6721 41.4561 26.7683 41.826C26.7413 41.7929 26.6871 41.7629 26.7052 41.7899L26.9067 42.0155C26.9337 41.9644 26.9067 41.9644 26.9067 41.8892C26.9548 41.9012 27.024 41.9553 27.0691 42.0155C26.9608 41.9253 27.0029 42.0666 27.0119 42.1298C27.018 42.1117 27.045 42.1178 27.054 42.1057C27.0721 42.2862 27.1563 42.0636 27.2315 42.2771L27.2014 42.2832C27.2586 42.3403 27.3307 42.3794 27.3759 42.4546C27.3488 42.5177 27.3037 42.4005 27.2586 42.4245C27.3307 42.5208 27.4901 42.5538 27.5052 42.6802C27.4631 42.6471 27.418 42.5869 27.3759 42.5538C27.3879 42.6922 27.4089 42.6922 27.451 42.7734V42.7644L27.5383 42.9508L27.5232 42.8967C27.7368 42.9328 27.7217 43.1343 27.9202 43.2486C27.7277 43.1373 27.8541 43.2516 27.7909 43.2787C27.8029 43.3328 27.83 43.411 27.8029 43.402C27.9022 43.4531 27.854 43.5614 27.9984 43.6305C27.9834 43.6486 28.0525 43.7178 27.9954 43.7298C28.0796 43.826 28.0104 43.6847 28.0405 43.6787C28.2089 43.802 28.2119 44.1087 28.4465 44.2922C28.6089 44.4726 28.6962 44.4726 28.8465 44.6441C28.8556 44.7283 28.7473 44.632 28.7473 44.632C28.7834 44.7523 28.8345 44.8275 28.9157 44.9117C28.8886 44.9027 28.8856 44.9298 28.8826 44.9719C28.9337 45.0471 28.9819 44.9839 29.018 45.1042C28.9849 45.0982 28.9398 45.0952 28.8947 45.0711C28.9668 45.1523 29.0571 45.2245 29.1322 45.3117C29.1142 45.3568 29.048 45.2817 29.0059 45.2606C29.0841 45.3599 29.2014 45.5253 29.2736 45.5283L29.2525 45.4471C29.2796 45.4862 29.2195 45.4952 29.1924 45.4711C29.0962 45.402 29.1322 45.3268 29.1473 45.3087L29.1984 45.3719C29.2676 45.2365 29.018 45.1042 28.9398 44.9629L29.0541 44.9719L28.9037 44.8696C28.9037 44.8275 28.9398 44.7794 28.9909 44.8396C28.9698 44.7162 28.9097 44.7704 28.9007 44.6591C28.9007 44.6441 28.9067 44.6471 28.9157 44.6531L28.8315 44.5719C28.8586 44.5809 28.8796 44.5208 28.9037 44.5869C28.8435 44.3854 28.6721 44.3463 28.6901 44.2441L28.7052 44.2561C28.5277 44.0335 28.633 44.2681 28.4525 44.1328L28.5187 43.9223L28.4465 43.9373C28.4315 43.9102 28.4074 43.8591 28.4345 43.8531C28.3353 43.7869 28.4195 43.8862 28.3473 43.8531C28.3262 43.6997 28.1127 43.5463 28.1879 43.4591C28.1157 43.4471 28.227 43.5914 28.1157 43.4892C28.1909 43.3899 28.0044 43.3568 27.9774 43.2185C28.0495 43.2185 28.0886 43.3358 28.0646 43.2005C27.9383 43.1914 27.9443 42.9809 27.8661 42.9027C27.7939 42.9448 27.7067 42.7283 27.5804 42.5959C27.6104 42.5899 27.421 42.2922 27.3488 42.1358H27.3638C27.2766 42.1538 27.1864 42.0035 27.0992 41.9132C27.1413 41.8892 27.1713 41.8952 27.2285 41.9373L27.1563 41.8411C27.1172 41.835 27.0841 41.811 27.033 41.7568L27.0992 41.7448C27.0029 41.6185 26.8495 41.5343 26.7593 41.3448C26.7082 41.3719 26.7292 41.5704 26.5698 41.423C26.5909 41.399 26.627 41.3599 26.6721 41.3959C26.6571 41.3839 26.6119 41.3599 26.5999 41.3208L26.6931 41.3568C26.6541 41.2696 26.63 41.3448 26.5879 41.2847C26.624 41.2576 26.5789 41.2215 26.615 41.2095C26.63 41.2215 26.639 41.2726 26.6721 41.2847C26.627 41.2125 26.5849 41.1162 26.5909 41.0711C26.5759 41.0922 26.5428 41.1072 26.5007 41.0651C26.3984 40.9448 26.5097 40.9899 26.4676 40.9027C26.4195 40.8907 26.3804 40.7914 26.3262 40.8335C26.2962 40.7974 26.3172 40.7704 26.3202 40.7463C26.248 40.6982 26.0646 40.4576 26.0736 40.5719L26.0826 40.5899L26.0706 40.5809C25.9593 40.4997 25.8751 40.3884 25.7969 40.2711C25.7067 40.1629 25.6285 40.0365 25.5142 39.9614L25.5292 39.9463C25.3939 39.8531 25.2465 39.7208 25.1262 39.6877C25.0901 39.6576 25.0631 39.5854 25.0962 39.5764C24.9879 39.5162 24.9608 39.5283 24.8405 39.3929C24.9638 39.435 24.8255 39.3388 24.9608 39.4441C24.8435 39.3328 24.8345 39.2817 24.6571 39.2365C24.7383 39.2215 24.5969 39.1102 24.5247 39.0802L24.5939 39.1764C24.5187 39.1343 24.4616 39.0892 24.3984 39.0441L24.4736 39.002C24.248 38.7463 23.8931 38.8185 23.7608 38.5629C23.6616 38.5629 23.8931 38.6862 23.7969 38.6982C23.6736 38.614 23.5924 38.4426 23.5533 38.4185C23.3969 38.2802 23.3337 38.4185 23.1593 38.2892C23.1713 38.3253 23.1593 38.4005 23.0059 38.3463C22.8796 38.2651 22.9007 38.1599 22.9939 38.1869C23.027 38.202 23.039 38.217 23.033 38.226C23.0811 38.2411 23.1413 38.2621 23.1022 38.208L23.0721 38.223C23.021 38.1629 22.8375 38.0666 22.9007 38.0516C22.7894 38.0185 22.8375 38.0666 22.9037 38.1208C22.7533 37.9944 22.642 37.9764 22.4796 37.8621C22.5007 37.8892 22.5097 37.9313 22.4826 37.9162C22.242 37.7508 22.3473 37.9012 22.1668 37.823C22.0886 37.7358 22.248 37.7538 22.0556 37.6937C21.9623 37.6155 22.0646 37.6185 22.1187 37.6215C21.9353 37.5854 21.836 37.4381 21.7488 37.3839L21.842 37.408C21.7849 37.3929 21.7458 37.3719 21.7037 37.3508L21.7277 37.423C21.6826 37.3899 21.6405 37.3689 21.6525 37.3478C21.5864 37.3538 21.6525 37.4471 21.5292 37.4381C21.442 37.3629 21.2435 37.3268 21.2014 37.2275C21.3638 37.3208 21.3548 37.2997 21.3428 37.2666C21.3307 37.2365 21.3037 37.1914 21.4631 37.2666C21.3999 37.2456 21.3307 37.2095 21.2405 37.1523C21.2255 37.1373 21.2525 37.1403 21.2766 37.1523C20.8947 36.8877 21.1232 37.1644 20.7954 36.9959C20.8014 36.9749 20.7653 36.9388 20.7202 36.8997C20.6751 36.8636 20.6119 36.8215 20.6059 36.8275C20.6571 36.8456 20.7082 36.8967 20.7022 36.9147C20.7052 36.9298 20.6931 36.9328 20.6901 36.9478C20.6901 36.9659 20.6871 36.9809 20.6751 36.9959C20.6691 36.9959 20.6631 36.9899 20.6631 36.9899C20.6691 37.2095 20.7413 37.3268 20.7473 37.4411C20.7473 37.3959 20.7473 37.3508 20.7473 37.3057C20.8044 37.414 20.8044 37.5162 20.8255 37.6756C20.7954 37.6756 20.7924 37.5193 20.7834 37.5674C20.8315 37.6847 20.8014 37.7568 20.7683 37.8441C20.7443 37.9042 20.6962 37.9614 20.7022 38.0365C20.6601 38.0907 20.63 38.0215 20.5969 38.0666C20.5819 38.223 20.4947 38.1959 20.4465 38.3403C20.5157 38.3313 20.5097 38.3132 20.4947 38.4426C20.5277 38.3553 20.5759 38.2832 20.5909 38.1929C20.5969 38.2561 20.5909 38.3193 20.5789 38.3824C20.63 38.3132 20.63 38.211 20.6571 38.1689C20.6661 38.2621 20.6571 38.2531 20.7112 38.232C20.5999 38.3072 20.639 38.4636 20.5187 38.5478L20.4165 38.4636C20.3262 38.5117 20.2931 38.5899 20.236 38.6651C20.1728 38.7313 20.1157 38.8275 19.9894 38.8756C20.0165 38.8666 20.0495 38.8666 20.0736 38.8516C20.0736 38.9178 19.9322 38.9358 19.8691 38.9959C19.8571 38.9538 19.8029 38.9629 19.7578 38.9538C19.7789 38.9899 19.5774 39.02 19.5864 39.1102L19.454 39.0952C19.2465 39.1463 19.2435 39.2756 19.027 39.3117C19.0811 39.2516 18.9819 39.2396 19.1142 39.1764C19.045 39.1914 18.9819 39.1944 18.9849 39.2245C18.9428 39.2095 18.7984 39.3208 18.7262 39.2787C18.6992 39.2997 18.6931 39.3478 18.6119 39.3508C18.6029 39.3418 18.6119 39.3298 18.6119 39.3298C18.6119 39.3508 18.4856 39.3719 18.5638 39.414C18.3322 39.3087 17.9322 39.4441 17.7368 39.3238C17.5774 39.3448 17.3849 39.3358 17.2375 39.3238C17.2465 39.3117 17.2375 39.3027 17.2676 39.3087C17.0721 39.2486 17.1322 39.426 16.9097 39.3599C16.8014 39.2787 17.036 39.3328 16.9638 39.2997C16.9488 39.1523 16.6871 39.2997 16.5458 39.1824H16.5849C16.4766 39.1132 16.2962 39.1884 16.1067 39.1493C16.1067 39.1493 16.1187 39.1373 16.1127 39.1283C15.9713 39.1824 15.7187 39.1704 15.5353 39.1403C15.6044 39.0982 15.6225 39.1313 15.6014 39.0651C15.5202 39.0531 15.6044 39.1614 15.439 39.1373C15.3939 39.0952 15.2856 39.0381 15.2856 38.9749L15.436 39.008C15.3789 38.9117 15.2405 38.9629 15.1653 38.9298L15.1834 38.8997C14.9488 38.8576 14.9247 38.9358 14.6841 38.8456L14.6992 38.8787C14.5368 38.9147 14.6059 38.7944 14.4525 38.8065L14.4465 38.7102C14.3503 38.7102 14.1217 38.6651 13.9623 38.605C14.0796 38.5839 14.2571 38.6501 14.3834 38.6501C14.2962 38.623 14.1097 38.5268 14.0465 38.5478C14.0826 38.5568 14.1337 38.5568 14.1578 38.5839C14.0315 38.5959 13.8781 38.5659 13.7217 38.4787C13.7789 38.4125 13.6916 38.3373 13.5834 38.2561C13.5292 38.217 13.4721 38.1719 13.427 38.1298C13.3849 38.0847 13.3608 38.0305 13.3608 37.9854C13.2977 37.9463 13.2405 37.8982 13.1864 37.8471C13.1292 37.7959 13.1022 37.7268 13.0631 37.6636C12.9759 37.5403 12.9458 37.3899 12.8796 37.2426C12.7834 37.3959 12.8525 37.1523 12.7262 37.2065C12.6992 37.1283 12.6931 37.0952 12.7022 37.0892C12.7022 37.005 12.7413 36.9178 12.7593 36.8396C12.7954 36.7824 12.7954 36.9117 12.8255 36.9027C12.8285 36.7373 12.8736 36.8335 12.9157 36.7283C12.8646 36.7493 12.8495 36.6681 12.8766 36.5779L12.8014 36.7042C12.7774 36.5839 12.8074 36.5328 12.8495 36.4877C12.8706 36.4666 12.8886 36.4426 12.9007 36.4125C12.9037 36.4035 12.9067 36.3975 12.9097 36.3854C12.9157 36.3674 12.9097 36.3854 12.9217 36.3343C12.9398 36.2832 12.9578 36.232 12.9728 36.1689L12.9518 36.3313C12.9789 36.2441 13.033 36.1117 13.0901 35.9644C13.1683 35.808 13.2616 35.6275 13.3247 35.4922C13.2796 35.4952 13.2556 35.4952 13.2195 35.5012C13.1774 35.5072 13.1353 35.5162 13.0962 35.5223C13.018 35.5373 12.9488 35.5553 12.8886 35.5794C12.8676 35.5644 12.8435 35.5283 12.9638 35.5132C12.8195 35.5132 12.654 35.5283 12.4947 35.5463C12.3383 35.5584 12.1608 35.5944 12.0946 35.6185C11.9112 35.6666 11.7428 35.7087 11.6044 35.7178L11.6225 35.6787C11.5593 35.7057 11.5262 35.7689 11.439 35.7568C11.439 35.7418 11.4571 35.7178 11.427 35.7238C11.3939 35.7418 11.2736 35.823 11.1864 35.8381L11.2435 35.7779C11.0751 35.814 10.9548 35.8832 10.8495 35.9523C10.7473 36.0305 10.6601 36.1178 10.5368 36.1869C10.5157 36.1418 10.4405 36.1388 10.3533 36.1568C10.2691 36.1779 10.1759 36.217 10.1127 36.2441V36.229C9.92924 36.3193 9.79691 36.4275 9.6766 36.5448C9.5533 36.6561 9.44202 36.7734 9.31269 36.9027C9.06608 36.9478 8.68713 37.3388 8.38638 37.5373C8.44051 37.5132 8.43149 37.6005 8.39239 37.6516C8.31721 37.6937 8.26909 37.8591 8.21495 37.7839L8.23901 37.7659C8.13074 37.7418 8.02548 37.8832 7.92623 37.9734L7.99239 38.0726C7.61645 38.1929 7.3939 38.7704 7.15029 38.8005C7.1142 38.8817 7.04202 38.9568 7.00593 39.0381L6.96081 38.9899C6.78939 39.1493 6.70518 39.2305 6.52172 39.4531L6.52773 39.3779C6.41345 39.4952 6.52773 39.6546 6.42848 39.7659L6.32924 39.7358C6.13976 39.9463 5.88713 40.1027 5.76382 40.3674C5.75781 40.3553 5.74277 40.3313 5.76984 40.2922C5.67961 40.3884 5.37886 40.632 5.50818 40.6832C5.44202 40.623 5.30969 40.9027 5.24051 41.0501L5.20743 40.9899C5.18638 41.1433 5.20142 41.1614 5.10217 41.3177C5.06909 41.3478 5.03901 41.3178 5.08713 41.2817C4.97284 41.3779 5.05706 41.402 4.93375 41.5283V41.4501C4.84954 41.5704 4.8736 41.5734 4.86758 41.6696C4.83751 41.7599 4.69916 41.8952 4.63901 41.8832C4.65706 41.9193 4.65104 42.0125 4.58788 42.0756C4.56382 42.0756 4.56984 42.0396 4.57284 42.0245C4.40442 42.214 4.45254 42.3824 4.3142 42.4967C4.29315 42.4907 4.28112 42.4967 4.26608 42.5027C4.36533 42.3313 4.44352 42.1929 4.44051 42.211C4.38939 42.1809 4.30217 42.3162 4.29615 42.1629C4.26909 42.2982 4.24502 42.5358 4.14578 42.6591C4.13675 42.6621 4.12773 42.6681 4.11871 42.6681V42.6501C4.09766 42.6802 4.08863 42.7102 4.07961 42.7403C4.04653 42.7794 4.02848 42.8065 4.00743 42.8486C3.9563 42.8426 3.90518 43.002 3.86909 43.0741C3.92924 43.0952 3.8751 43.1854 3.96533 43.1193C3.9563 43.1283 3.96533 43.1012 3.98638 43.0531C3.98939 43.0411 3.9954 43.029 3.9954 43.02V43.026C4.01946 42.9779 4.04653 42.9178 4.07961 42.8456C4.07961 42.9178 4.07961 42.9869 4.00743 43.0501C4.02548 43.1042 4.04352 43.1644 4.05254 43.1944C3.92623 43.2516 3.7939 43.423 3.73074 43.426C3.66157 43.6606 3.53224 43.9644 3.58337 44.1448C3.57134 44.214 3.52021 44.205 3.49315 44.223C3.49615 44.1809 3.51721 44.1388 3.50818 44.1117C3.48112 44.2471 3.37585 44.4967 3.44202 44.5538C3.34878 44.7042 3.40292 44.4365 3.33675 44.6651L3.32472 44.626C3.036 45.023 3.28262 45.408 2.96683 45.8501C2.98788 45.82 2.9969 45.802 3.01194 45.799C2.77736 46.3463 2.75931 46.9839 2.52472 47.5223C2.46758 47.6787 2.5157 47.7057 2.53375 47.814L2.45856 47.835L2.50367 48.0185C2.5157 48.2681 2.25705 48.4005 2.3142 48.7253L2.36533 48.6952C2.33826 48.8035 2.33224 49.0441 2.28412 49.02C2.29014 49.032 2.32623 49.0621 2.29615 49.1012H2.26006L2.28111 49.3779C2.22698 49.5824 2.14578 49.3238 2.09766 49.6305C2.09766 49.7478 2.16081 49.9704 2.19089 49.9283C2.1969 49.8802 2.22698 49.811 2.26307 49.814L2.26908 49.9193C2.37134 49.9493 2.46758 50.0365 2.56984 49.799L2.52773 49.6155L2.58487 49.5674L2.56683 49.7147C2.62698 49.6365 2.59089 49.5794 2.56984 49.5162C2.59991 49.5072 2.62096 49.4832 2.636 49.4501L2.56081 49.2636C2.60593 49.2486 2.62999 49.3508 2.66908 49.2396C2.636 49.1523 2.56683 49.3027 2.5548 49.1644C2.61495 49.0892 2.64803 49.1193 2.62397 49.014C2.65405 49.005 2.66608 49.029 2.67209 49.0681C2.65104 48.9749 2.69615 48.8365 2.64803 48.7824C2.72021 48.7042 2.68412 48.4847 2.78036 48.5117C2.76232 48.4817 2.73224 48.3463 2.74427 48.2651C2.8345 48.4335 2.80743 47.9674 2.92773 48.0305C2.84352 47.9012 2.96382 47.6335 2.94578 47.432C2.95179 47.4441 2.96382 47.4681 2.9548 47.4832C2.98788 47.3779 3.02397 47.3538 3.06006 47.2907C2.97585 47.2576 2.9969 47.0862 2.96683 46.9839C3.08112 46.8726 3.04803 47.0862 3.13826 47.0651C3.06608 47.0561 3.12322 46.8215 3.05405 46.8516C3.12924 46.7644 3.09916 46.7734 3.18337 46.7403C3.08112 46.6952 3.18337 46.6441 3.14427 46.5448C3.23751 46.4155 3.25555 46.5358 3.26457 46.3704C3.31871 46.3042 3.3157 46.4546 3.3157 46.4546L3.32472 46.4606ZM4.5157 42.8035C4.50066 42.8335 4.48863 42.8576 4.47961 42.8756C4.48563 42.8606 4.49766 42.8396 4.51269 42.8035H4.5157ZM4.67209 42.5208C4.65104 42.5538 4.62698 42.5959 4.59991 42.6411C4.57585 42.6411 4.56081 42.62 4.57886 42.5899C4.58187 42.614 4.62999 42.5508 4.67209 42.5178V42.5208ZM3.9563 42.9268C3.97134 42.8756 3.98939 42.8636 4.00442 42.8636C3.9954 42.8877 3.98638 42.9147 3.97134 42.9508V42.9599C3.97134 42.9599 3.95931 42.9388 3.9563 42.9268Z" fill="#1B1B1B"/>
<path d="M7.61208 39.1436L7.59937 39.1309L7.58984 39.1626L7.61208 39.1436Z" fill="#1B1B1B"/>
<path d="M21.1836 37.792C21.1836 37.792 21.1836 37.7982 21.1836 37.8014C21.1961 37.8295 21.1898 37.8139 21.1836 37.792Z" fill="#1B1B1B"/>
<path d="M23.1744 38.5952C23.1413 38.5892 23.1112 38.5862 23.0811 38.5771C23.1232 38.6073 23.1563 38.6253 23.1744 38.5952Z" fill="#1B1B1B"/>
<path d="M18.839 39.7747V39.7715L18.8164 39.7747H18.839Z" fill="#1B1B1B"/>
<path d="M22.9668 38.5117C23.0059 38.5479 23.0421 38.5659 23.0812 38.578C23.0481 38.5539 23.009 38.5238 22.9668 38.5117Z" fill="#1B1B1B"/>
<path d="M25.0781 39.5283L25.1238 39.4887C25.0477 39.4431 25.1086 39.507 25.0781 39.5283Z" fill="#1B1B1B"/>
<path d="M24.1963 39.2744L24.2445 39.3497L24.3047 39.3256L24.1963 39.2744Z" fill="#1B1B1B"/>
<path d="M23.9773 38.6555L24.0135 38.6676L23.8838 38.6133L23.9773 38.6555Z" fill="#1B1B1B"/>
<path d="M17.917 39.2603L17.9411 39.3326C17.9983 39.3205 18.0073 39.2392 17.917 39.2603Z" fill="#1B1B1B"/>
<path d="M14.7332 38.8185C14.7121 38.7733 14.6337 38.722 14.5703 38.7371C14.6367 38.7642 14.694 38.8155 14.7332 38.8185Z" fill="#1B1B1B"/>
<path d="M7.81178 38.117L7.84189 38.0537L7.7666 38.1561L7.81178 38.117Z" fill="#1B1B1B"/>
<path d="M32.4289 14.1805C32.9131 15.1489 31.8274 16.5865 31.8274 16.5865C31.8274 16.5865 35.1357 16.8873 35.1357 14.782C35.1357 13.4377 33.6319 11.7745 33.6319 11.7745C35.1357 12.376 36.9402 16.3279 36.9402 16.3279C36.9402 16.3279 37.8425 15.6843 34.835 10.8722C34.835 10.8722 32.3357 6.18653 26.1131 5.15796C24.3928 4.70383 23.1748 4.67676 23.1748 4.67676C20.7928 4.81811 18.8981 5.34443 17.3883 6.06322C15.7853 6.68578 10.3267 9.47375 7.83946 19.2933C4.90713 30.8722 7.6139 30.2707 4.90713 32.376C2.20037 34.4813 0.0951044 40.1955 5.80939 41.0978C5.80939 41.0978 8.66653 35.5339 14.5312 35.985C14.5312 35.985 15.3853 32.2166 16.0109 31.6963C16.4229 31.3534 13.8425 29.4948 12.2786 25.7655C13.4034 23.6933 15.4335 23.6572 16.3357 20.0482C16.9583 17.561 18.9583 12.2527 21.2981 12.0783C22.5462 11.985 18.2906 16.2888 18.2906 16.2888C18.2906 16.2888 21.9598 17.7685 24.6064 15.3865C25.3943 14.6768 26.1101 13.582 25.9598 11.6271L26.3056 12.5474C26.6545 13.4737 26.5071 14.5143 25.9177 15.3083L25.1568 16.3339C25.1568 16.3339 27.4756 17.1459 30.0229 15.991C33.3312 14.4873 28.5192 10.5775 28.5192 10.5775C28.5192 10.5775 31.5267 12.382 32.4289 14.1865V14.1805Z" fill="black"/>
<path d="M32.5157 32.457C27.3157 37.0375 21.2195 35.1036 21.2195 35.1036L20.3984 37.3382C25.812 39.1427 27.4661 42.3127 27.4661 42.3127C34.5338 43.6781 31.2255 38.842 31.0751 38.1593C30.9248 37.4766 30.3232 36.7397 31.0751 35.5157C31.827 34.2916 32.5157 32.457 32.5157 32.457Z" fill="black"/>
<path d="M21.7516 28.3158C21.7005 28.3158 21.6523 28.2918 21.6253 28.2437C21.5802 28.1745 21.6012 28.0813 21.6734 28.0361C21.7215 28.0061 26.6117 25.0106 31.1471 27.4286C31.2192 27.4677 31.2493 27.5579 31.2102 27.6331C31.1711 27.7083 31.0809 27.7354 31.0057 27.6963C26.6268 25.3594 21.8809 28.2617 21.8328 28.2918C21.8087 28.3068 21.7817 28.3158 21.7546 28.3158H21.7516Z" fill="black"/>
<path d="M27.1594 22.3015C31.0611 22.3015 34.2241 21.7629 34.2241 21.0985C34.2241 20.4341 31.0611 19.8955 27.1594 19.8955C23.2577 19.8955 20.0947 20.4341 20.0947 21.0985C20.0947 21.7629 23.2577 22.3015 27.1594 22.3015Z" fill="#F4BDCB"/>
<path d="M28.0673 25.3083C27.3214 25.3083 26.7139 24.7008 26.7139 23.9549C26.7139 23.2091 27.3214 22.6016 28.0673 22.6016C28.8131 22.6016 29.4206 23.2091 29.4206 23.9549C29.4206 24.7008 28.8131 25.3083 28.0673 25.3083ZM28.0673 22.9023C27.4868 22.9023 27.0146 23.3745 27.0146 23.9549C27.0146 24.5354 27.4868 25.0076 28.0673 25.0076C28.6477 25.0076 29.1199 24.5354 29.1199 23.9549C29.1199 23.3745 28.6477 22.9023 28.0673 22.9023Z" fill="black"/>
<path d="M24.6333 21.9997C25.1449 21.9997 25.5597 21.3265 25.5597 20.4959C25.5597 19.6654 25.1449 18.9922 24.6333 18.9922C24.1218 18.9922 23.707 19.6654 23.707 20.4959C23.707 21.3265 24.1218 21.9997 24.6333 21.9997Z" fill="black"/>
<path d="M31.5025 21.9997C32.0141 21.9997 32.4288 21.3265 32.4288 20.4959C32.4288 19.6654 32.0141 18.9922 31.5025 18.9922C30.9909 18.9922 30.5762 19.6654 30.5762 20.4959C30.5762 21.3265 30.9909 21.9997 31.5025 21.9997Z" fill="black"/>
<path d="M26.2628 19.2924C26.2147 19.2924 26.1665 19.2683 26.1365 19.2262C26.1275 19.2112 25.1891 17.8277 24.1665 17.7736C23.7605 17.7495 23.3996 17.942 23.0688 18.339C23.0147 18.4022 22.9214 18.4112 22.8583 18.3571C22.7951 18.3029 22.7861 18.2097 22.8402 18.1465C23.2342 17.6744 23.6914 17.4458 24.1846 17.4729C25.3605 17.536 26.347 18.9977 26.3891 19.0608C26.4342 19.13 26.4162 19.2232 26.347 19.2683C26.3229 19.2864 26.2929 19.2924 26.2628 19.2924Z" fill="black"/>
<path d="M31.0244 19.3114C30.5582 19.3114 30.1311 19.0859 29.7582 18.6378C29.7041 18.5746 29.7131 18.4784 29.7762 18.4272C29.8394 18.3731 29.9356 18.3821 29.9868 18.4453C30.3176 18.8423 30.6845 19.0317 31.0845 19.0107C32.1101 18.9566 33.0454 17.5701 33.0544 17.5581C33.0996 17.4889 33.1958 17.4708 33.262 17.516C33.3311 17.5611 33.3492 17.6543 33.3041 17.7235C33.262 17.7866 32.2755 19.2483 31.0996 19.3114C31.0725 19.3114 31.0484 19.3114 31.0214 19.3114H31.0244Z" fill="black"/>
<path d="M18.0708 19.5586C18.0196 19.5586 17.9715 19.5316 17.9414 19.4864C17.8993 19.4143 17.9204 19.324 17.9926 19.2789C18.2753 19.1075 18.4377 18.9 18.4768 18.6624C18.5429 18.2413 18.2001 17.8413 18.1971 17.8353C18.1429 17.7722 18.149 17.6789 18.2121 17.6218C18.2753 17.5676 18.3685 17.5737 18.4226 17.6368C18.4407 17.6579 18.8587 18.1421 18.7745 18.7045C18.7234 19.0323 18.5129 19.312 18.149 19.5316C18.1249 19.5466 18.0978 19.5526 18.0708 19.5526V19.5586Z" fill="black"/>
<path d="M19.9623 18.7523C19.6857 18.7523 19.4541 18.6741 19.2646 18.5207C18.8255 18.1598 18.8135 17.5192 18.8135 17.4922C18.8135 17.408 18.8796 17.3418 18.9608 17.3418C19.033 17.3418 19.1112 17.408 19.1142 17.4892C19.1142 17.4952 19.1263 18.0215 19.4571 18.2922C19.6405 18.4425 19.9022 18.4907 20.227 18.4275C20.3082 18.4125 20.3864 18.4666 20.4014 18.5478C20.4165 18.629 20.3623 18.7072 20.2811 18.7222C20.1699 18.7433 20.0616 18.7523 19.9623 18.7523Z" fill="black"/>
<path d="M18.7446 20.2497C18.7446 20.2497 18.7235 20.2497 18.7145 20.2467C18.6333 20.2286 18.5792 20.1504 18.5972 20.0692C18.6032 20.0422 18.7386 19.4136 19.2378 19.1459C19.5296 18.9865 19.8784 18.9865 20.2754 19.1459C20.3536 19.176 20.3897 19.2632 20.3596 19.3414C20.3296 19.4196 20.2423 19.4557 20.1641 19.4256C19.8544 19.3023 19.5897 19.2993 19.3792 19.4136C19.0032 19.6181 18.892 20.1294 18.892 20.1324C18.8769 20.2046 18.8138 20.2527 18.7446 20.2527V20.2497Z" fill="black"/>
</g>
<defs>
<filter id="filter0_d_6342_9599" x="0" y="0.0976562" width="42" height="42" filterUnits="userSpaceOnUse" color-interpolation-filters="sRGB">
<feFlood flood-opacity="0" result="BackgroundImageFix"/>
<feColorMatrix in="SourceAlpha" type="matrix" values="0 0 0 0 0 0 0 0 0 0 0 0 0 0 0 0 0 0 127 0" result="hardAlpha"/>
<feOffset/>
<feGaussianBlur stdDeviation="0.5"/>
<feComposite in2="hardAlpha" operator="out"/>
<feColorMatrix type="matrix" values="0 0 0 0 0.231373 0 0 0 0 0.152941 0 0 0 0 1 0 0 0 0.35 0"/>
<feBlend mode="normal" in2="BackgroundImageFix" result="effect1_dropShadow_6342_9599"/>
<feBlend mode="normal" in="SourceGraphic" in2="effect1_dropShadow_6342_9599" result="shape"/>
</filter>
</defs>
</svg>
