<svg width="132" height="120" viewBox="0 0 132 120" fill="none" xmlns="http://www.w3.org/2000/svg">
<rect width="132" height="120" rx="8" fill="#EEE6FF"/>
<path d="M46.7473 108.68H45.5593V97.616H46.7473V108.68ZM40.9273 98.36C42.5473 98.36 43.7233 99.464 43.7233 101.576V102.824C43.7233 104.936 42.5473 106.028 40.9273 106.028C39.3073 106.028 38.1313 104.936 38.1313 102.824V101.576C38.1313 99.452 39.3073 98.36 40.9273 98.36ZM40.9273 104.96C41.7913 104.96 42.5833 104.348 42.5833 102.656V101.744C42.5833 100.052 41.7793 99.44 40.9273 99.44C40.0633 99.44 39.2713 100.052 39.2713 101.744V102.656C39.2713 104.348 40.0633 104.96 40.9273 104.96ZM54.4652 105.764H49.2932V98.612H54.4652V105.764ZM50.4692 99.632V104.744H53.2892V99.632H50.4692ZM57.6692 108.68H56.4812V97.616H57.6692V108.68ZM63.1191 103.232H63.1071C62.9991 103.496 62.7831 103.76 62.3991 104.18C61.9071 104.72 61.3071 105.332 60.5031 106.076L59.7231 105.272C60.4431 104.624 61.0311 104.036 61.5711 103.436C62.3631 102.56 62.4951 102.104 62.4951 101.216V99.644H60.1191V98.612H66.0111V99.644H63.6951V101.216C63.6951 102.164 63.8271 102.524 64.6791 103.448C65.1951 104.012 65.6991 104.48 66.4071 105.104L65.6271 105.908C64.8111 105.164 64.3071 104.66 63.8511 104.168C63.5151 103.808 63.2151 103.472 63.1191 103.232ZM68.6991 108.68H67.5111V97.616H68.6991V108.68ZM76.8129 100.748V99.716H73.7409V98.696H77.9769V100.952C77.9769 101.216 77.9649 101.456 77.9529 101.684H79.4889V97.844H80.6529V108.14H79.4889V102.716H77.7609C77.3889 103.82 76.4529 104.732 74.0889 106.316L73.4289 105.392C76.8129 103.22 76.8129 102.38 76.8129 100.748ZM82.9569 97.616V108.68H81.7929V97.616H82.9569ZM93.4348 103.82H92.2588V97.616H93.4348V103.82ZM93.4348 104.396V108.668H86.5348V104.396H93.4348ZM92.2588 107.66V105.404H87.7108V107.66H92.2588ZM89.1028 100.856V100.46C89.1028 99.824 88.5508 99.044 87.4948 99.044C86.4388 99.044 85.8868 99.824 85.8868 100.46V100.856C85.8868 101.492 86.4388 102.272 87.4948 102.272C88.5508 102.272 89.1028 101.492 89.1028 100.856ZM90.2428 100.4V100.916C90.2428 101.888 89.3908 103.304 87.4948 103.304C85.5988 103.304 84.7468 101.888 84.7468 100.916V100.4C84.7468 99.428 85.5988 98.012 87.4948 98.012C89.3908 98.012 90.2428 99.428 90.2428 100.4Z" fill="#8C6EFF"/>
<rect x="14" y="18" width="48" height="32" rx="4" fill="#D1C2FE"/>
<rect x="14" y="56" width="48" height="32" rx="4" fill="#D1C2FE"/>
<rect x="70" y="18" width="48" height="32" rx="4" fill="#D1C2FE"/>
<rect x="70" y="56" width="48" height="32" rx="4" fill="#D1C2FE"/>
<path d="M93.0859 36.8896L90.0379 33.78L89 34.8315L93.0859 39L101.857 30.0515L100.827 29L93.0859 36.8896Z" fill="white"/>
</svg>
