<svg width="132" height="120" viewBox="0 0 132 120" fill="none" xmlns="http://www.w3.org/2000/svg">
<rect width="132" height="120" rx="8" fill="#EEE6FF"/>
<path d="M45.8473 100.184V97.616H46.9873V104.096H45.8473V101.204H44.5033V104.072H43.3753V97.76H44.5033V100.184H45.8473ZM39.7273 105.692V104.672H46.9873V108.788H45.7993V105.692H39.7273ZM38.2153 104.132L37.7113 103.208C40.6513 101.828 40.9873 101.324 40.9873 100.004V99.32H38.0953V98.312H42.1153V100.112C42.1153 102.056 41.4433 102.596 38.2153 104.132ZM57.3092 105.824H56.1332V97.616H57.3092V100.988H58.8692V102.02H57.3092V105.824ZM51.4412 105.248V107.552H57.6092V108.572H50.2532V105.248H51.4412ZM55.4492 102.92L55.5452 103.904C53.6372 104.096 52.1972 104.18 48.5012 104.18V103.16H50.7092V100.868H51.8852V103.136C53.2052 103.1 54.1892 103.04 55.4492 102.92ZM54.4052 102.128L53.2412 101.984C53.4212 101.156 53.5052 100.352 53.5052 99.668V99.2H49.2452V98.18H54.6812V99.5C54.6812 100.352 54.5732 101.432 54.4052 102.128ZM67.3791 104.048V97.616H68.5551V104.048H67.3791ZM61.2711 105.644V104.624H68.5551V108.788H67.3671V105.644H61.2711ZM62.8911 101.396H62.8791C62.8191 101.6 62.4471 102.02 62.0751 102.356C61.5831 102.812 60.8511 103.424 60.2151 103.928L59.5071 103.088C60.2751 102.5 61.0431 101.852 61.4631 101.432C62.0751 100.82 62.2431 100.364 62.2431 99.524V98.072H63.4431V99.476C63.4431 100.22 63.4911 100.616 64.0671 101.144C64.6311 101.66 65.3391 102.224 66.0471 102.74L65.3511 103.568C64.7271 103.1 64.1511 102.62 63.5751 102.14C63.2151 101.84 62.9631 101.576 62.8911 101.396ZM80.7729 102.812L80.8689 103.808C79.8729 103.916 78.8649 103.988 77.7249 104.036V108.344H76.5129V104.072C75.6369 104.096 74.6649 104.096 73.5849 104.096V103.064C75.4689 103.076 76.9569 103.052 78.2649 102.992C78.3849 102.512 78.4689 101.972 78.5169 101.384L74.1609 101.54L74.1369 100.532L78.5649 100.436C78.5769 100.256 78.5769 100.064 78.5769 99.872V99.188H74.2929V98.168H79.7529V99.788C79.7529 100.904 79.6689 102.02 79.4769 102.92C79.9209 102.896 80.3409 102.86 80.7729 102.812ZM82.6449 108.68H81.4689V97.616H82.6449V108.68ZM88.6828 99.632H85.5268V98.6H93.1588V99.632H89.9908V100.364C89.9908 101.024 90.1588 101.468 91.1908 102.092C92.1148 102.656 92.6908 102.968 93.6988 103.508L93.1468 104.444C92.1268 103.904 91.4668 103.556 90.6628 103.052C89.8708 102.548 89.4628 102.188 89.3428 101.984C89.2108 102.2 88.8028 102.572 88.0108 103.076C87.1948 103.592 86.4388 104 85.5388 104.48L84.9628 103.544C86.0308 102.968 86.7268 102.596 87.4828 102.116C88.4668 101.492 88.6828 101.036 88.6828 100.364V99.632ZM84.2668 106.196H94.4188V107.204H84.2668V106.196Z" fill="#8C6EFF"/>
<rect x="14" y="22" width="104" height="28" rx="4" fill="#D1C2FE"/>
<rect x="14" y="56" width="104" height="28" rx="4" fill="#D1C2FE"/>
<path d="M101.131 38.8896L98.0495 35.78L97 36.8315L101.131 41L110 32.0515L108.958 31L101.131 38.8896Z" fill="white"/>
</svg>
