<svg width="26" height="24" viewBox="0 0 26 24" fill="none" xmlns="http://www.w3.org/2000/svg">
<path id="Subtract" fill-rule="evenodd" clip-rule="evenodd" d="M9.33333 0C8.70936 0 8.13234 0.331423 7.81793 0.870402L6.36075 3.36842H4.5614C2.04221 3.36842 0 5.41063 0 7.92982V19.4386C0 21.9578 2.04221 24 4.5614 24H21.4035C23.9227 24 25.9649 21.9578 25.9649 19.4386V7.92982C25.9649 5.41063 23.9227 3.36842 21.4035 3.36842H19.6042L18.147 0.870402C17.8326 0.331423 17.2556 0 16.6316 0H9.33333ZM13.4502 9.64829C11.3509 9.64829 9.64904 11.3501 9.64904 13.4495C9.64904 15.5488 11.3509 17.2506 13.4502 17.2506C15.5495 17.2506 17.2514 15.5488 17.2514 13.4495C17.2514 11.3501 15.5495 9.64829 13.4502 9.64829ZM7.89466 13.4495C7.89466 10.3812 10.382 7.8939 13.4502 7.8939C16.5185 7.8939 19.0058 10.3812 19.0058 13.4495C19.0058 16.5177 16.5185 19.005 13.4502 19.005C10.382 19.005 7.89466 16.5177 7.89466 13.4495ZM20.3398 8.93843C19.7956 8.93843 19.3544 8.49727 19.3544 7.95308C19.3544 7.40889 19.7956 6.96774 20.3398 6.96774C20.8839 6.96774 21.3251 7.40889 21.3251 7.95308C21.3251 8.49727 20.8839 8.93843 20.3398 8.93843Z" fill="#9E9E9E"/>
</svg>
