<svg width="24" height="24" viewBox="0 0 24 24" fill="none" xmlns="http://www.w3.org/2000/svg">
<path fill-rule="evenodd" clip-rule="evenodd" d="M15.9996 7.99918C15.9996 8.52442 15.8962 9.04452 15.6953 9.52979C15.4943 10.0151 15.1998 10.456 14.8284 10.8274C14.4571 11.1989 14.0162 11.4935 13.531 11.6946C13.0457 11.8956 12.5256 11.9991 12.0004 11.9992C10.9397 11.9993 9.9223 11.578 9.17215 10.828C8.422 10.078 8.00052 9.06076 8.00041 8C8.00035 7.47477 8.10375 6.95467 8.3047 6.46939C8.50565 5.98412 8.80021 5.54318 9.17157 5.17174C9.92156 4.4216 10.9388 4.00011 11.9996 4C13.0603 3.99989 14.0777 4.42117 14.8278 5.17116C15.578 5.92116 15.9995 6.93843 15.9996 7.99918ZM12 13.2228C6.24042 13.2228 4 16.8882 4 18.5934C4 20.2978 8.76928 20.7521 12 20.7521C15.2307 20.7521 20 20.2978 20 18.5934C20 16.8882 17.7596 13.2228 12 13.2228Z" fill="#9E9E9E"/>
</svg>
