<svg width="14" height="16" viewBox="0 0 14 16" fill="none" xmlns="http://www.w3.org/2000/svg">
<path d="M6.94134 0.413574C9.47672 0.413574 11.3538 1.22829 12.5726 2.85771C13.5242 4.12866 14 5.75482 14 7.7362C14 9.88052 13.4558 11.6631 12.3673 13.084C11.0899 14.7525 9.26816 15.5868 6.90223 15.5868C4.69274 15.5868 2.95577 14.8568 1.69134 13.3968C0.56378 11.989 0 10.2097 0 8.05883C0 6.11655 0.482309 4.45454 1.44693 3.07279C2.68529 1.29998 4.51676 0.413574 6.94134 0.413574ZM7.13687 13.8465C8.85102 13.8465 10.0894 13.2339 10.852 12.0085C11.621 10.7767 12.0056 9.36236 12.0056 7.76553C12.0056 6.07745 11.5624 4.71851 10.676 3.68871C9.79609 2.65892 8.59032 2.14402 7.05866 2.14402C5.57263 2.14402 4.36033 2.65566 3.42179 3.67894C2.48324 4.6957 2.01397 6.19802 2.01397 8.18592C2.01397 9.77624 2.4148 11.1189 3.21648 12.2139C4.02467 13.3023 5.33147 13.8465 7.13687 13.8465Z" fill="white"/>
</svg>
