<svg width="16" height="16" viewBox="0 0 16 16" fill="none" xmlns="http://www.w3.org/2000/svg">
<path d="M12.8 11.2C12.168 11.2 11.6 11.448 11.1761 11.848L5.52805 8.56C5.56805 8.376 5.60005 8.192 5.60005 8C5.60005 7.808 5.56805 7.624 5.52805 7.44L11.168 4.152C11.592 4.552 12.168 4.8 12.8 4.8C14.128 4.8 15.2001 3.728 15.2001 2.4C15.2001 1.072 14.128 0 12.8 0C11.472 0 10.4 1.072 10.4 2.4C10.4 2.592 10.432 2.784 10.472 2.96L4.83205 6.248C4.40005 5.848 3.83205 5.6 3.20005 5.6C1.87205 5.6 0.800049 6.672 0.800049 8C0.800049 9.328 1.87205 10.4 3.20005 10.4C3.83205 10.4 4.40005 10.152 4.83205 9.752L10.472 13.048C10.432 13.224 10.4 13.408 10.4 13.6C10.4 14.928 11.472 16 12.8 16C14.128 16 15.2001 14.928 15.2001 13.6C15.2001 12.272 14.128 11.2 12.8 11.2Z" fill="white"/>
</svg>
