<svg width="54" height="54" viewBox="0 0 54 54" fill="none" xmlns="http://www.w3.org/2000/svg">
<circle cx="27" cy="27" r="26.4" fill="white" stroke="#FF4D57" stroke-width="0.8"/>
<mask id="mask0_4971_5021" style="mask-type:luminance" maskUnits="userSpaceOnUse" x="1" y="1" width="52" height="52">
<path d="M27 53C41.3594 53 53 41.3594 53 27C53 12.6406 41.3594 1 27 1C12.6406 1 1 12.6406 1 27C1 41.3594 12.6406 53 27 53Z" fill="white"/>
</mask>
<g mask="url(#mask0_4971_5021)">
<path d="M30.5187 51.2406C27.6411 47.9525 23.4811 46.9398 23.4811 46.9398L24.3452 43.9958C26.4682 44.6878 28.7241 44.9185 31.0153 44.5979C40.2619 43.2998 46.5332 33.4941 45.0162 22.6953C43.5031 11.8965 34.7765 4.19427 25.5259 5.49231C16.2754 6.79036 10.0081 16.5961 11.525 27.3949C12.2249 32.3837 14.4652 36.7158 17.5852 39.8006C17.5852 39.8006 16.0526 43.0301 15.6616 45.3759C15.6616 45.3759 9.01497 44.203 4.32324 52.0225" fill="#FFF7EB"/>
<path d="M4.20974 51.9561C4.18628 52.0264 4.23711 52.0108 4.34267 51.8388L4.36613 51.6863L4.20974 51.9561Z" fill="#1B1B1B"/>
<path d="M5.05812 50.8888C5.15586 50.6698 5.28488 50.4235 5.14022 50.5095C5.0503 50.7363 5.00338 50.7715 4.92519 51.0256C4.81962 51.1976 4.71406 51.3071 4.71406 51.268C4.68669 51.3384 4.5303 51.5221 4.50293 51.6355C4.6906 51.444 4.87436 51.1703 5.03075 50.8536C5.08158 50.7988 5.05812 50.8692 5.05812 50.8888Z" fill="#1B1B1B"/>
<path d="M16.8345 38.874L16.9127 38.9718C16.8931 38.9444 16.8658 38.9092 16.8345 38.874Z" fill="#1B1B1B"/>
<path d="M11.7593 28.0518C11.7749 28.1417 11.7866 28.1808 11.7945 28.1847C11.7749 28.1026 11.7632 28.0322 11.7593 28.0518Z" fill="#1B1B1B"/>
<path d="M11.5757 25.9951C11.5757 26.0381 11.5757 26.0772 11.5796 26.1163C11.5796 26.0694 11.5796 26.0225 11.5757 25.9951Z" fill="#1B1B1B"/>
<path d="M16.8345 38.874L16.6351 38.6199C16.6039 38.6199 16.7329 38.7528 16.8345 38.874Z" fill="#1B1B1B"/>
<path d="M6.68858 48.7031C6.64166 48.754 6.60647 48.8009 6.5752 48.8439L6.68858 48.7188C6.68858 48.7188 6.68858 48.7109 6.68858 48.7031Z" fill="#1B1B1B"/>
<path d="M16.2129 43.7299L16.1855 43.8237C16.1855 43.855 16.1855 43.8823 16.1855 43.9097L16.2129 43.7299Z" fill="#1B1B1B"/>
<path d="M13.3116 45.5714C13.4015 45.5596 13.4289 45.5049 13.4601 45.4775C13.4132 45.5088 13.3428 45.5205 13.2646 45.5401C13.2646 45.5518 13.2803 45.5596 13.3116 45.5714Z" fill="#1B1B1B"/>
<path d="M7.51716 48.234L7.43506 48.3161C7.45852 48.2966 7.49371 48.2614 7.51716 48.234Z" fill="#1B1B1B"/>
<path d="M17.2334 40.9813C17.2334 40.9813 17.2569 40.9657 17.2647 40.954C17.2569 40.954 17.2451 40.9618 17.2334 40.9813Z" fill="#1B1B1B"/>
<path d="M26.9098 48.0776C26.9098 48.0776 26.9098 48.0858 26.9058 48.0858C26.9302 48.0939 26.9384 48.0939 26.9098 48.0776Z" fill="#1B1B1B"/>
<path d="M30.5069 51.2485L30.46 51.2015C30.46 51.2015 30.4365 51.2015 30.4287 51.2133L30.5108 51.2485H30.5069Z" fill="#1B1B1B"/>
<path d="M36.1214 8.26828C35.8243 8.00632 36.6805 8.57715 36.227 8.1979C36.2583 8.24482 35.7383 7.96723 36.1214 8.26828Z" fill="#1B1B1B"/>
<path d="M6.7666 48.6328L6.88389 48.5116C6.82916 48.5663 6.79397 48.6054 6.7666 48.6328Z" fill="#1B1B1B"/>
<path d="M36.2271 8.19791L36.1802 8.15881C36.1997 8.17445 36.2115 8.18618 36.2271 8.19791Z" fill="#1B1B1B"/>
<path d="M14.1016 13.9961C14.1016 13.9961 14.0625 14.0352 14.0391 14.0626C14.0469 14.0626 14.0625 14.0469 14.1016 13.9961Z" fill="#1B1B1B"/>
<path d="M11.8496 20.0288L11.8848 19.8724C11.8692 19.935 11.8574 19.9858 11.8496 20.0288Z" fill="#1B1B1B"/>
<path d="M15.9233 11.1889C15.982 11.1224 16.0054 11.1068 16.0758 11.009C16.068 11.0169 16.0602 11.0247 16.0485 11.0325C16.025 11.0716 15.9937 11.1185 15.9233 11.1889Z" fill="#1B1B1B"/>
<path d="M18.4098 8.74134C18.4098 8.74134 18.3707 8.76088 18.3512 8.77261C18.3238 8.79607 18.2925 8.81953 18.2651 8.84299L18.4059 8.73743L18.4098 8.74134Z" fill="#1B1B1B"/>
<path d="M28.3289 44.9576C28.2507 44.938 28.2038 44.9185 28.1647 44.8989C28.2195 44.9419 27.6916 44.9302 28.3289 44.9576Z" fill="#1B1B1B"/>
<path d="M6.71194 48.7266C6.71584 48.7032 6.73148 48.6758 6.77058 48.6328C6.74321 48.6641 6.71584 48.6915 6.68848 48.7188C6.68848 48.7306 6.68848 48.7384 6.71194 48.7227V48.7266Z" fill="#1B1B1B"/>
<path d="M15.6812 10.7979C15.8024 10.6493 15.9314 10.5125 16.0604 10.3756C15.947 10.489 15.8063 10.6415 15.6812 10.7979Z" fill="#1B1B1B"/>
<path d="M45.2622 28.908L45.2505 29.037C45.2583 28.9862 45.2622 28.9431 45.2622 28.908Z" fill="#1B1B1B"/>
<path d="M17.2451 9.16745C17.335 9.11271 17.4211 9.05016 17.511 8.98369C17.5266 8.96414 17.5423 8.94459 17.5501 8.92896L17.2451 9.16745Z" fill="#1B1B1B"/>
<path d="M24.6071 44.4063C24.6423 44.418 24.6462 44.4141 24.7205 44.4298C24.7713 44.4376 24.7909 44.4298 24.8026 44.422C24.8183 44.4024 24.787 44.3633 24.8456 44.3594C25.4751 44.5119 25.1193 44.4884 25.3265 44.5823C25.7253 44.6644 26.042 44.6565 26.3392 44.7152C26.3587 44.7308 26.4174 44.7426 26.347 44.7465C26.7771 44.7699 27.6059 44.9302 28.1064 44.8794C28.1416 44.8872 28.1611 44.895 28.1689 44.8989C28.0907 44.8599 28.079 44.8208 28.0986 44.7973C28.341 44.809 28.5443 44.7738 28.6342 44.8208C28.4856 44.8168 28.4739 44.8364 28.4035 44.8481L28.6577 44.8325C28.8844 44.9068 28.3136 44.8481 28.3097 44.895C28.8062 44.895 29.381 44.8325 29.7563 44.8325C29.8384 44.8989 28.8727 44.8833 29.381 44.9302C29.1855 44.9263 28.99 44.9185 28.7945 44.9107C29.2441 45.0202 28.4348 44.899 28.8492 45.0162C29.6273 45.0319 29.7172 44.9732 30.4914 44.9263C30.6595 44.8716 30.4288 44.8794 30.5969 44.8247C31.1365 44.7308 31.3515 44.723 31.5353 44.7347C31.719 44.7387 31.8715 44.7621 32.2547 44.6214C32.4462 44.5236 32.5127 44.4493 33.0718 44.3281L32.9037 44.4571C33.6231 44.246 33.2868 44.2499 34.0414 44.0349C33.9202 44.1092 33.4941 44.2577 33.6035 44.2265C34.1001 44.1092 33.928 44.0662 34.2956 43.9332L34.3972 43.9684C35.1362 43.6596 35.9103 43.2412 36.661 42.7759C36.6297 42.815 36.5085 42.9089 36.6962 42.8268C37.6384 42.2286 38.6667 41.4896 39.476 40.7741L39.7301 40.4457C39.7966 40.3792 39.8748 40.3402 39.8083 40.4184C40.1211 40.1368 39.7966 40.3792 39.9256 40.2189C40.0938 40.0508 40.168 40.0156 40.0781 40.1368C40.5629 39.5738 41.3762 38.4869 41.861 37.877L41.7906 38.0138C42.1464 37.5212 42.0838 37.3883 42.4123 36.9386L42.3653 37.0364C43.0808 35.9338 43.6438 34.5967 44.07 33.6935C44.0739 33.4941 44.5314 32.4776 44.4453 32.3642C44.6956 31.6605 44.6877 31.8794 44.9614 30.859C45.0357 30.5853 44.981 30.4328 45.0357 30.0887H45.0983L45.1217 29.6156L45.2273 29.3771L45.2586 29.0526C45.2351 29.1817 45.1921 29.3224 45.1765 29.2989C45.2312 28.7946 45.372 28.0713 45.4032 28.0595C45.4345 27.6568 45.4267 27.2541 45.4345 26.8514C45.458 26.8788 45.4541 27.0821 45.4619 27.2424C45.4345 26.5973 45.5401 27.129 45.501 26.5347C45.4853 26.6129 45.4658 26.4917 45.4541 26.4761C45.4971 26.1829 45.5049 25.5104 45.4619 25.0177L45.5049 25.1116C45.5049 24.662 45.4501 24.1928 45.411 23.708C45.3446 23.2271 45.2938 22.7305 45.2038 22.234C45.2429 22.5937 45.1569 22.5194 45.1061 22.234L45.1491 22.1089C45.0787 21.929 45.1765 22.4177 45.0631 22.0385C45.0083 21.6671 45.0944 21.7765 45.1491 21.9877C45.1139 21.8391 45.0905 21.6905 45.0474 21.542C45.0592 21.5107 45.0905 21.6162 45.1217 21.6397C45.0435 21.4638 45.0279 20.8538 44.8989 20.6036L44.9106 20.5762C44.6682 19.5988 44.5196 19.1648 44.2538 18.3907C44.1951 18.3907 44.1013 18.0857 43.9801 17.8707C43.8823 17.5892 43.7768 17.2881 43.6634 16.9753C43.5422 16.6665 43.4053 16.3459 43.2568 16.0135C43.0026 15.5717 43.1473 15.9002 43.0183 15.7125C43.0456 15.6577 42.7172 15.0126 42.9166 15.3332C42.4983 14.5708 42.381 14.3558 41.7554 13.4526C41.8062 13.5621 41.8688 13.6794 41.818 13.6325C41.7007 13.4722 41.5834 13.2454 41.6186 13.2571L41.6538 13.2962C40.9187 12.311 40.0508 10.9269 39.2688 10.3053L39.3118 10.3405C39.0655 10.1059 38.8035 9.88692 38.5416 9.67188C38.2014 9.34737 38.7723 9.83609 38.5416 9.57805C37.6619 8.91339 37.2201 8.43639 36.4342 7.97504C36.313 7.84211 36.1175 7.69354 35.879 7.54105C35.6444 7.38075 35.3668 7.22045 35.0736 7.07188C34.495 6.7591 33.8655 6.48932 33.4432 6.26647L33.4823 6.3212C33.2438 6.25865 33.2165 6.18045 33.0483 6.11399C33.064 6.14526 33.2868 6.2391 33.1383 6.2C31.1912 5.4806 28.99 4.99579 26.8357 5.0779C26.0498 5.10917 26.4056 5.2812 25.4204 5.30857C25.5103 5.26948 25.6002 5.24211 25.6901 5.21083C24.138 5.4806 22.5154 5.8794 21.1509 6.61053C21.2291 6.55579 21.2213 6.53624 21.3581 6.47369C21.0414 6.56752 20.2751 7.00932 20.2986 7.05624C20.0874 7.16963 20.2321 7.05624 20.0953 7.11098C19.7903 7.24 19.4267 7.59188 19.2547 7.64271C19.2273 7.65053 19.325 7.58015 19.372 7.54496C19.196 7.67008 18.5509 8.10797 18.7503 8.02978C18.504 8.18617 18.2889 8.3582 18.0895 8.53023C17.8862 8.69835 17.6986 8.85474 17.5187 8.9994C17.4288 9.12451 17.2372 9.2809 17.073 9.42947C16.9127 9.58196 16.772 9.7188 16.768 9.78526C16.7289 9.68361 16.0095 10.4656 15.8141 10.7744C15.8727 10.6611 15.5912 11.0012 15.6538 10.8683C15.384 11.1889 15.165 11.5017 15.2471 11.4743C14.9774 11.748 14.7584 12.0686 14.5864 12.3696C14.4065 12.6629 14.2541 12.9209 14.0898 13.0734C13.4838 14.1564 13.0186 15.2003 12.6315 16.2403C12.5494 16.166 13.1007 15.1065 12.999 15.1143C12.6041 16.0956 12.4556 16.686 12.1193 17.6752C12.0216 17.9293 12.131 17.5188 12.1467 17.425C11.8652 18.4376 11.5798 19.3838 11.4703 20.3143C11.4625 20.3104 11.4703 20.2087 11.482 20.1149C11.4507 20.2986 11.3882 20.5332 11.4351 20.5215L11.4586 20.3417C11.5172 20.2009 11.5055 20.3886 11.4977 20.6114C11.4938 20.8382 11.4781 21.1002 11.4898 21.1197C11.4116 20.7952 11.3413 22.0268 11.2592 21.5185C11.2553 21.6397 11.2592 21.7922 11.2865 21.7687C11.2592 21.9486 11.2396 22.0033 11.2279 21.8156C11.1888 22.4764 11.2396 22.2457 11.2083 22.84C11.1888 22.84 11.1888 22.7149 11.1692 22.6523C11.1966 22.9573 11.1966 23.2623 11.181 23.7666C11.1692 23.7353 11.1536 23.794 11.1575 23.6454C11.1575 24.0794 11.1692 24.4469 11.2083 24.8262C11.224 25.0138 11.2396 25.2054 11.2474 25.4087C11.267 25.612 11.2826 25.8271 11.2904 26.0656C11.1849 25.7919 11.2865 26.3901 11.2201 26.4487L11.3022 26.9531L11.3139 26.7459C11.3608 27.1916 11.4625 27.5747 11.5094 27.9579L11.4273 27.6334C11.4781 27.9071 11.5211 28.1847 11.5759 28.4583C11.5524 28.302 11.5407 28.1417 11.525 27.9853C11.6384 28.4232 11.6032 27.9227 11.6892 28.5092C11.658 28.3919 11.7753 28.9471 11.7792 29.1817C11.8456 29.3928 11.9316 29.6039 11.9903 29.9284C11.9903 30.0183 11.8965 29.8815 11.8926 29.9402C11.9942 30.1395 12.1858 30.945 12.3304 31.1913C12.2874 31.1092 12.2483 31.117 12.2523 31.1483L12.3578 31.3086C12.4086 31.508 12.4086 31.5392 12.3695 31.5197C12.5572 32.114 12.393 31.3047 12.5924 32.0162C12.5689 31.9615 12.5689 31.9928 12.522 31.8794C12.7566 32.5832 13.0577 33.2087 13.3274 33.8343C13.3431 34.0493 13.0616 33.2986 13.1007 33.5332C13.5151 34.4325 14.0742 35.3278 14.559 36.145L14.473 35.9925C14.6333 36.0472 14.7975 36.6259 15.1181 36.9895C15.0438 36.8956 14.9813 36.8956 15.0086 36.9152C15.3566 37.4665 15.8023 37.9904 16.4631 38.7254L16.3614 38.6511C16.596 38.9561 17.0222 39.4214 17.3076 39.7224C17.3467 39.7537 17.4014 39.7928 17.4366 39.8162C17.4679 39.8397 17.4953 39.8514 17.4757 39.8084L17.5031 39.8475L17.4092 40L17.3037 40.2033C17.2333 40.3402 17.1707 40.477 17.1121 40.6138C16.9948 40.8914 16.8892 41.1651 16.7954 41.4388C16.5999 41.9862 16.4279 42.5179 16.1894 43.0262C16.2324 42.8971 16.2754 42.7134 16.2363 42.815C16.1386 43.1239 16.0447 43.4328 15.9626 43.7417C16.0291 43.683 16.0252 43.6283 16.119 43.4445C16.1073 43.5696 16.0486 43.8355 15.9822 44.0623C16.076 43.64 15.9079 44.0427 15.8375 44.2226C15.861 44.1952 15.8571 44.2617 15.8766 44.2499C15.6694 44.7191 15.9392 44.3516 15.732 45.0084L15.7163 44.9693C15.6929 45.1218 15.6889 45.2391 15.6616 45.3799C15.5599 45.372 15.4583 45.3603 15.3488 45.3525C15.251 45.2899 15.6068 45.3525 15.5834 45.3095C15.5091 45.3017 15.4504 45.3017 15.3527 45.3017C15.255 45.3017 15.1611 45.3095 15.0673 45.3134C14.8796 45.329 14.6959 45.3368 14.5199 45.3134C14.6841 45.2938 14.9226 45.2977 15.0907 45.2899C14.7076 45.2235 14.6568 45.2313 14.3713 45.2352H14.3987C14.1759 45.2352 13.953 45.2352 13.7301 45.2547H13.9022C13.4291 45.4385 12.9091 45.3916 12.2874 45.6457C12.8856 45.4033 12.3774 45.5714 12.4126 45.5011C12.2444 45.5284 11.9903 45.5753 12.0568 45.5402C11.7635 45.6574 11.5407 45.6496 11.1458 45.8647C11.1223 45.8529 10.8291 45.9741 10.876 45.9077C10.5046 46.0797 10.9777 45.8959 10.9542 45.9389C10.6727 46.0797 10.3365 46.2283 9.95721 46.3729C9.60142 46.5567 9.19872 46.7483 8.84684 47.0337C8.233 47.5146 8.13917 47.6241 7.62308 48.1245C7.41977 48.2574 7.72864 47.9447 7.72864 47.9447C7.41977 48.1832 7.17736 48.3591 6.93887 48.6406C6.97796 48.5741 6.91541 48.6211 6.82157 48.6875C6.61827 48.9026 6.73165 48.8791 6.44233 49.1411C6.4736 49.0785 6.50879 48.9925 6.59481 48.8752C6.37195 49.145 6.13345 49.3952 5.93406 49.7002C5.85195 49.7549 6.02789 49.4929 6.09827 49.3874C5.84804 49.708 5.46097 50.228 5.42188 50.357L5.59781 50.1654C5.50789 50.2827 5.51571 50.1967 5.57436 50.1068C5.75812 49.8096 5.90278 49.7275 5.93015 49.7236L5.77766 49.9308C5.90669 49.8683 6.05135 49.6532 6.23511 49.4304C6.42278 49.2114 6.62218 48.9573 6.80594 48.7735L6.71601 48.9847L7.03661 48.5585C7.13045 48.492 7.21646 48.4725 7.04443 48.6641C7.33375 48.4334 7.26729 48.4256 7.53315 48.2496C7.56443 48.234 7.55661 48.2457 7.53315 48.2692L7.7912 48.019C7.74819 48.0776 7.8733 48.0229 7.69736 48.1597C8.20172 47.7648 8.48323 47.4794 8.7139 47.3817L8.6709 47.4168C9.39421 46.889 8.69436 47.2995 9.23391 46.8929L9.69917 46.7991L9.74609 46.7053C9.82819 46.6623 9.98849 46.5762 9.96894 46.6153C10.2583 46.4277 9.90248 46.6153 10.0667 46.4941C10.2817 46.4277 10.5593 46.2947 10.7978 46.1853C11.0402 46.0758 11.2553 46.0211 11.3139 46.0445C11.4507 45.9507 10.8995 46.154 11.3374 45.9663C11.4195 45.9937 11.5446 45.9429 11.7049 45.8764C11.8613 45.8099 12.0607 45.7513 12.2601 45.7161C12.1506 45.7982 11.7753 45.8686 12.178 45.8099C12.2835 45.7396 12.4751 45.6848 12.6823 45.6574C12.8895 45.634 13.1124 45.6183 13.2766 45.5793C13.2805 45.505 14.0077 45.4463 14.5786 45.415C14.5668 45.4229 14.7037 45.4307 14.9148 45.4424C15.1259 45.4541 15.3644 45.4698 15.7554 45.5362C15.7867 45.415 15.8101 45.286 15.8375 45.1687C15.861 45.071 15.8766 45.0006 15.8962 44.9263L15.904 44.9459C15.8532 44.8286 15.9939 44.2968 16.0995 43.9098C16.1386 43.9371 16.1268 44.0114 16.0916 44.2226C16.1229 44.1014 16.1581 43.9802 16.1933 43.8629C16.1972 43.7729 16.2168 43.6556 16.2871 43.4211L16.3106 43.5266C16.4592 43.0496 16.5726 42.5492 16.8384 41.9588C16.8032 41.908 16.5217 42.3889 16.7368 41.7359C16.772 41.7203 16.8228 41.7164 16.768 41.8884C16.7837 41.8337 16.8228 41.6851 16.8775 41.5796L16.8189 41.8493C16.944 41.5835 16.8384 41.6929 16.9323 41.474C16.9674 41.4935 17.0222 41.3215 17.0378 41.3645C17.0183 41.4232 16.9479 41.5483 16.9283 41.6382C17.0339 41.3919 17.1786 41.1065 17.245 41.0205C17.2177 41.0322 17.1981 41.0009 17.2685 40.8211C17.464 40.3597 17.378 40.6803 17.5148 40.4223C17.5265 40.3597 17.5735 40.262 17.6086 40.172C17.636 40.0977 17.6947 39.957 17.6634 39.957C17.6907 39.8944 17.7181 39.8514 17.7377 39.8162C17.6947 39.7576 17.6868 39.7263 17.6595 39.6833C17.6047 39.6286 17.5148 39.5426 17.4132 39.4448C17.3271 39.3588 17.2333 39.265 17.1473 39.1829C16.987 39.0147 16.8697 38.8974 16.944 39.0265L16.987 39.0773C16.987 39.0773 16.9674 39.0577 16.9557 39.046C16.3301 38.4595 15.8375 37.6737 15.3332 36.9973L15.3488 36.9856C15.036 36.5868 14.7193 36.055 14.4965 35.7696C14.4222 35.6406 14.3518 35.4451 14.4026 35.4881C14.1993 35.1597 14.1524 35.1362 13.9256 34.628C14.1329 34.9564 13.8904 34.495 14.1289 34.9681C13.9178 34.5146 13.8787 34.409 13.605 33.9438C13.7301 34.0884 13.4956 33.5802 13.39 33.3651C13.4213 33.4785 13.4643 33.588 13.5034 33.6974C13.3783 33.459 13.3001 33.24 13.2101 33.0211L13.3196 33.1149C12.9912 32.1531 12.5298 31.4415 12.436 30.6556C12.3187 30.4093 12.5572 31.1991 12.4399 30.9802C12.3187 30.5227 12.2679 30.0301 12.2405 29.8854C12.1232 29.252 11.9981 29.3263 11.8926 28.6577C11.8886 28.7477 11.8417 28.8415 11.7205 28.3489C11.6541 27.8797 11.7205 27.7585 11.7909 28.0517C11.8104 28.1612 11.8104 28.2159 11.8026 28.2159C11.8339 28.3645 11.8886 28.5561 11.873 28.3723L11.8378 28.3176C11.8222 28.083 11.7205 27.4457 11.7792 27.5904C11.701 27.2424 11.7166 27.4457 11.7479 27.7077C11.6892 27.1056 11.6189 26.7732 11.5876 26.1555C11.5837 26.2532 11.5602 26.3471 11.5563 26.2493C11.5211 25.3383 11.4742 25.8544 11.4351 25.2367C11.4586 24.8848 11.525 25.3579 11.4742 24.7402C11.4859 24.3609 11.5329 24.658 11.5563 24.8066C11.4859 24.2436 11.5876 23.751 11.5954 23.4304L11.611 23.7275C11.5993 23.5516 11.6032 23.403 11.611 23.2583L11.5563 23.4265C11.5759 23.2544 11.5837 23.1059 11.6032 23.1098C11.5837 22.9299 11.5172 23.2427 11.4977 22.883C11.5289 22.6523 11.5211 22.1714 11.5954 22.0971C11.5055 22.8244 11.658 22.0229 11.6189 22.6406C11.6189 22.5194 11.6306 22.3747 11.658 22.2027C11.6658 22.1753 11.6697 22.2301 11.6658 22.277C11.7948 21.5889 11.615 21.9486 11.7166 21.2292C11.7362 21.323 11.8065 21.0728 11.8144 20.9555C11.7713 21.2448 11.7362 21.0845 11.7479 20.8147C11.8417 20.3573 11.8183 20.3143 11.8613 20.0719L11.7987 20.3456C11.7831 20.2478 11.83 20.0171 11.8808 19.6965C11.9121 19.6731 11.8456 19.9898 11.8808 19.8803C11.8886 19.5128 12.1154 19.0944 12.2014 18.5979C12.2874 18.3789 12.2718 18.594 12.3422 18.4024C12.4477 17.8472 12.5572 17.8316 12.7058 17.2608C12.608 17.4054 12.608 17.4406 12.698 17.0301L12.4282 17.9645C12.4673 17.7573 12.5142 17.554 12.5572 17.3507C12.4634 17.6322 12.3891 17.9489 12.3383 18.117C12.3813 17.8199 12.3852 17.8511 12.3109 17.9762C12.4986 17.6126 12.5103 17.1982 12.7175 16.7759L12.8192 16.8307C12.9677 16.514 13.0538 16.2168 13.1789 15.9041C13.2923 15.5874 13.4213 15.2472 13.6363 14.8484L13.4916 15.1026C13.5073 14.9735 13.7223 14.5904 13.8513 14.3284C13.8709 14.3714 13.9726 14.215 14.0547 14.1173C14.039 14.1173 14.1172 13.9726 14.1993 13.8123C14.2853 13.6559 14.3753 13.4878 14.3635 13.4331L14.6177 13.1125C15.0399 12.5143 14.9813 12.3501 15.4192 11.791C15.3253 11.9865 15.5404 11.748 15.2823 12.1429C15.4231 11.9552 15.556 11.791 15.5365 11.7714C15.6303 11.6698 15.904 11.2319 16.0682 11.0872C16.119 11.0012 16.1034 10.9465 16.2871 10.751C16.3106 10.7353 16.2989 10.7627 16.2989 10.7627C16.2832 10.751 16.5608 10.4382 16.3732 10.5829C16.6586 10.3483 17.0144 9.98857 17.3662 9.6406C17.7298 9.30436 18.0895 8.97985 18.375 8.82737C18.5665 8.65534 18.7933 8.48331 19.0162 8.3191C19.2351 8.14707 19.458 7.99459 19.6574 7.86948C19.6378 7.89684 19.6652 7.88511 19.5909 7.93203C20.15 7.61534 19.8607 7.61925 20.5214 7.29083C20.8772 7.16181 20.2008 7.51369 20.412 7.41594C20.5566 7.47068 21.1783 6.97805 21.6631 6.84511L21.5575 6.89985C21.9172 6.79038 22.3786 6.49323 22.965 6.30166C22.965 6.30166 22.9416 6.3212 22.965 6.3212C23.1527 6.21955 23.442 6.12181 23.747 6.01233C24.0559 5.91068 24.396 5.83248 24.6853 5.75038C24.5133 5.8403 24.4273 5.83639 24.5485 5.85985C24.8065 5.79729 24.4507 5.78557 24.9747 5.68C25.1506 5.68 25.5298 5.63699 25.5885 5.68L25.0959 5.76602C25.2288 5.77775 25.3852 5.75038 25.5455 5.71519C25.7058 5.68782 25.8661 5.65654 25.9951 5.64872L25.9638 5.68391C26.3392 5.62917 26.5307 5.60181 26.7301 5.57053C26.9295 5.54707 27.1368 5.49624 27.5473 5.51188L27.4613 5.48842C27.9109 5.42196 27.8366 5.52361 28.2901 5.48842L28.4231 5.57444C28.7202 5.56662 29.467 5.58226 29.9948 5.66045C29.8384 5.65654 29.6077 5.64872 29.3653 5.6409C29.1229 5.62917 28.8727 5.61354 28.6811 5.62526C28.9744 5.63308 29.6703 5.73083 29.8267 5.71128C29.7094 5.69955 29.5569 5.70346 29.4435 5.67609C29.811 5.65263 30.2841 5.70737 30.8589 5.83639C30.7924 5.90286 31.1638 5.98496 31.59 6.11399C31.805 6.18045 32.0318 6.25083 32.2312 6.3212C32.4267 6.3994 32.5909 6.4776 32.6808 6.54015C33.67 6.84902 34.5614 7.35338 35.5858 7.97113C35.2847 7.64662 35.8868 8.15098 35.8868 8.01414C36.1332 8.15098 36.2114 8.22526 36.2309 8.24481C36.4498 8.42857 36.6766 8.6006 36.8838 8.79609C37.0246 8.94466 36.6571 8.65534 36.661 8.69444C37.1419 9.07369 36.8369 8.88993 37.138 9.1597C37.0989 9.0776 37.3491 9.23399 37.6032 9.47639C37.4898 9.3591 37.3804 9.23399 37.2592 9.1206C37.9629 9.61714 37.7753 9.65624 38.4477 10.1958L38.221 10.0394C38.5729 10.3092 39.3861 11.1771 39.738 11.4469C39.781 11.5134 39.824 11.6111 39.6871 11.4743C40.3792 12.2719 41.2393 13.2611 41.6303 13.9961L41.5638 13.9414C41.6733 14.1056 41.7906 14.2072 41.8962 14.434C41.8805 14.4301 41.8297 14.3792 41.8766 14.4614C41.947 14.5435 42.1855 14.8914 42.2989 15.1299L42.162 14.9501C42.6351 15.8689 42.9635 16.3224 43.3389 17.1122C43.2529 17.1474 43.5461 17.9059 43.6595 18.2968L43.6438 18.289C44.0387 19.4229 44.3359 20.2165 44.5978 21.3074C44.6643 22.0033 44.9653 23.6337 44.9575 24.7519C44.9575 24.5799 45.0279 24.7753 45.0396 24.9747C45.0318 25.2367 45.1217 25.698 45.0396 25.6589V25.5651C44.9732 25.7645 44.9771 26.3002 44.9732 26.7185L45.0748 26.7928C44.9067 27.8797 44.8676 29.6704 44.5939 30.2334C44.5783 30.4993 44.4923 30.8159 44.461 31.0779L44.4101 31.0505C44.2225 31.7582 44.1208 32.1101 43.8432 32.9702L43.8628 32.7826C43.7064 33.2674 43.7963 33.4433 43.636 33.889L43.507 33.9907C43.1668 34.8196 42.7094 35.5937 42.3419 36.3952C42.3419 36.3756 42.3301 36.3405 42.3966 36.2114C42.3028 36.3991 42.0682 36.7314 41.9001 37.0168C41.7241 37.2984 41.5834 37.5212 41.6733 37.4899C41.6381 37.4743 41.513 37.6659 41.3566 37.9083C41.1963 38.1468 41.0047 38.44 40.8718 38.6433V38.5534C40.6724 38.9092 40.6841 38.9365 40.3244 39.3823C40.2267 39.4761 40.2111 39.4409 40.344 39.3158C40.0195 39.6286 40.1485 39.6129 39.7536 39.9883C39.7927 39.9335 39.8318 39.8788 39.8709 39.8162C39.5464 40.1447 39.5816 40.129 39.4291 40.3362C39.2453 40.5669 38.7683 40.9188 38.6902 40.9305C38.6667 40.997 38.4947 41.1886 38.2718 41.3489C38.2327 41.3567 38.3031 41.2863 38.3383 41.2511C38.0294 41.4818 37.8104 41.6695 37.6071 41.8259C37.4077 41.9901 37.2279 42.1308 36.9894 42.2481C36.9698 42.2403 36.9347 42.2481 36.8956 42.2677C37.4195 41.9471 37.8026 41.6343 37.7714 41.6734C37.7401 41.6343 37.3374 41.9158 37.615 41.6304C37.3256 41.9002 36.8017 42.342 36.3756 42.5648C36.3521 42.5726 36.3286 42.5805 36.313 42.5805L36.3521 42.5492C36.2544 42.6 36.1683 42.6508 36.0901 42.7056C35.9533 42.7759 35.8673 42.819 35.7344 42.8854C35.664 42.8737 35.2183 43.1161 34.9954 43.2217C35.0384 43.2647 34.7374 43.382 35.0345 43.3038C34.9954 43.3155 35.0736 43.2803 35.2222 43.2021C35.2535 43.1826 35.2926 43.163 35.3121 43.1513L35.3004 43.163C35.445 43.0887 35.6327 42.9949 35.8477 42.8854C35.6874 43.0027 35.5154 43.1083 35.2574 43.206C35.1596 43.2959 35.0501 43.3898 34.9798 43.4328C34.8077 43.4641 34.5692 43.5344 34.3581 43.597C34.147 43.6556 33.9632 43.6908 33.9124 43.683C33.5683 43.8355 33.1422 43.9606 32.7551 44.0896C32.3641 44.203 32.0044 44.3086 31.7816 44.4063C31.5704 44.4571 31.5314 44.418 31.4492 44.418C31.5704 44.3868 31.7151 44.3633 31.7777 44.3399C31.5704 44.3868 31.2577 44.4454 30.984 44.5002C30.7103 44.5432 30.4757 44.5862 30.4288 44.6253C29.8853 44.6409 30.7259 44.5353 29.987 44.6096L30.0847 44.5823C29.3536 44.5784 28.7671 44.6214 28.1494 44.6292C27.5356 44.637 26.8904 44.6018 26.1085 44.3711C26.218 44.4024 26.2727 44.418 26.2923 44.4337C25.9756 44.3633 25.6589 44.289 25.3422 44.203L24.8652 44.074L24.2748 43.8941C23.9112 45.1648 23.7353 45.8373 23.3443 47.0689C23.4811 47.108 23.6258 47.151 23.7626 47.194C23.8604 47.2253 23.9581 47.2644 24.0559 47.3035C24.5407 47.4872 24.6032 47.4716 24.916 47.5498L24.9981 47.6475C25.1741 47.6983 25.35 47.7414 25.522 47.7961C26.2453 48.0737 26.6637 48.492 27.5317 48.9221L27.4456 48.8244C27.7428 49.012 28.384 49.4187 28.3058 49.4265C28.3371 49.4421 28.4231 49.4617 28.5208 49.5594L28.5091 49.5907C28.7554 49.7393 28.9783 49.9191 29.2129 50.0872C29.6977 50.5408 29.0604 50.1068 29.7641 50.7636C30.0261 51.006 30.5304 51.4439 30.4562 51.3305C30.3584 51.225 30.2177 51.0451 30.2294 51.0177L30.4679 51.2484C30.5774 51.2328 30.8276 51.3618 30.3037 50.7128C30.1629 50.5799 30.0065 50.4626 29.8541 50.3453L29.7485 50.185L30.1043 50.5173C29.9323 50.2983 29.7759 50.2045 29.6195 50.0911C29.5999 50.0403 29.553 49.9738 29.4709 49.8956L28.9783 49.6024C28.947 49.532 29.2207 49.708 28.9353 49.4538C28.6968 49.3287 29.0917 49.6689 28.7202 49.4265C28.5247 49.231 28.6068 49.2505 28.3292 49.0863C28.3058 49.0394 28.3683 49.0668 28.4778 49.1371C28.2315 48.9886 27.8366 48.7188 27.688 48.6758C27.473 48.4803 26.8474 48.191 26.91 48.1362C26.8201 48.1089 26.433 47.9525 26.1945 47.843C26.433 47.9056 26.2141 47.7883 25.9521 47.6632C25.6862 47.538 25.3813 47.4012 25.4595 47.3777C25.2757 47.3504 24.9747 47.237 24.6345 47.1158C24.4625 47.0571 24.2865 46.9946 24.1106 46.9438C24.0246 46.9164 23.9347 46.8929 23.8526 46.8695C23.8213 46.8656 23.7939 46.8617 23.7587 46.8577C23.7783 46.8577 23.8135 46.8499 23.8252 46.8577C23.8017 46.8499 23.7822 46.8382 23.7704 46.8343C23.7822 46.8069 23.7978 46.7874 23.8095 46.7717C23.8174 46.76 23.8174 46.7717 23.8291 46.7405C23.8408 46.7053 23.8565 46.6701 23.8721 46.631C23.8095 46.5645 23.9503 46.0367 23.9855 45.7396C24.1771 45.3447 23.9972 46.0171 24.1028 45.9077C24.0363 45.9077 24.2553 45.1726 24.1653 45.2977C24.3022 44.9928 24.267 45.0319 24.3765 44.8872C24.3374 44.8442 24.3569 44.7699 24.3843 44.6722C24.3999 44.6214 24.4156 44.5666 24.4312 44.5041C24.439 44.4767 24.4468 44.4376 24.4507 44.4102C24.4507 44.3985 24.4507 44.3829 24.4507 44.3672C24.4742 44.332 24.4859 44.3242 24.4977 44.3242C24.5876 44.3868 24.5211 44.3868 24.6932 44.4141C24.8104 44.4611 24.7518 44.4611 24.6658 44.4493C24.6423 44.4493 24.611 44.4532 24.611 44.4532L24.6071 44.4063ZM36.6453 42.7486C36.5515 42.8033 36.4733 42.8502 36.4225 42.8815C36.4694 42.8541 36.532 42.815 36.6453 42.7486ZM37.5329 42.1699C37.4273 42.2481 37.2944 42.3302 37.1497 42.4241C37.1067 42.428 37.1301 42.3889 37.2201 42.3341C37.1771 42.3732 37.396 42.2559 37.5329 42.1699ZM35.4411 42.9714C35.5858 42.8932 35.6366 42.8776 35.664 42.8776C35.5975 42.9128 35.5154 42.9558 35.4098 43.0105C35.4098 43.0105 35.3981 43.0223 35.3942 43.0262C35.402 43.0105 35.4138 42.9949 35.4411 42.9714Z" fill="#1B1B1B"/>
<path d="M35.2066 43.1669C35.187 43.1786 35.1753 43.1865 35.1479 43.2021C35.1792 43.1904 35.2105 43.1786 35.2418 43.1708C35.2574 43.1552 35.2731 43.1434 35.2848 43.1278C35.2574 43.1395 35.2301 43.1552 35.2066 43.1669Z" fill="#1B1B1B"/>
<path d="M16.9243 38.9873L16.9087 38.9717C16.9087 38.9717 16.9282 38.999 16.9322 39.0108C16.9243 38.999 16.9243 38.9951 16.9204 38.9873H16.9243Z" fill="#1B1B1B"/>
<path d="M45.1021 30.077H45.0864L45.0825 30.1709L45.1021 30.077Z" fill="#1B1B1B"/>
<path d="M15.8179 44.1952C15.8179 44.1952 15.7984 44.2226 15.7827 44.2656C15.7866 44.2656 15.8023 44.2343 15.8179 44.1952Z" fill="#1B1B1B"/>
<path d="M12.4243 45.4385C12.4009 45.4541 12.397 45.4619 12.3931 45.4698L12.4204 45.4385H12.4243Z" fill="#1B1B1B"/>
<path d="M11.4663 20.0915C11.4702 20.0641 11.4741 20.0406 11.478 20.0172C11.5015 19.8412 11.4819 19.9624 11.4663 20.0915Z" fill="#1B1B1B"/>
<path d="M11.7594 29.1582C11.732 29.0644 11.7046 28.9745 11.6772 28.8767C11.7046 29.037 11.7281 29.1621 11.7594 29.1582Z" fill="#1B1B1B"/>
<path d="M15.6421 10.8448C15.6421 10.8448 15.6695 10.8135 15.6812 10.7979L15.6421 10.8448Z" fill="#1B1B1B"/>
<path d="M11.5913 28.4623C11.6109 28.6226 11.6421 28.7555 11.6734 28.8767C11.65 28.7438 11.6265 28.5913 11.5913 28.4623Z" fill="#1B1B1B"/>
<path d="M5.53912 49.9934L5.48047 50.0638C5.48047 50.0638 5.48047 50.0716 5.48047 50.0794L5.53912 49.9934Z" fill="#1B1B1B"/>
<path d="M5.47662 50.0793L5.41797 50.1654C5.44925 50.1263 5.47271 50.095 5.47662 50.0793Z" fill="#1B1B1B"/>
<path d="M5.29297 50.3413L5.41808 50.1615C5.37116 50.2201 5.31252 50.2905 5.29297 50.3413Z" fill="#1B1B1B"/>
<path d="M7.31037 48.1441L7.31819 48.1089C7.31819 48.1089 7.30646 48.1323 7.31037 48.1441Z" fill="#1B1B1B"/>
<path d="M7.90043 47.6318C7.75577 47.7491 7.51727 47.9016 7.32569 48.0815L7.31787 48.1088C7.39216 48.0072 7.78704 47.7726 7.90043 47.6318Z" fill="#1B1B1B"/>
<path d="M10.7979 46.2126L10.2075 46.4629C10.3209 46.4355 10.4656 46.4003 10.2036 46.5254C10.9621 46.2517 10.0316 46.5528 10.8018 46.2126H10.7979Z" fill="#1B1B1B"/>
<path d="M12.698 45.6574C12.3657 45.7356 12.7097 45.6848 12.6941 45.7004C12.9052 45.6417 12.956 45.6261 12.698 45.6574Z" fill="#1B1B1B"/>
<path d="M14.3324 35.3239H14.3949C14.2581 35.1011 14.3754 35.3356 14.3324 35.3239Z" fill="#1B1B1B"/>
<path d="M12.8896 32.9468L12.9639 33.2009L13.0539 33.2987L12.8896 32.9468Z" fill="#1B1B1B"/>
<path d="M12.6588 31.2929L12.7018 31.4024L12.5454 30.9879L12.6588 31.2929Z" fill="#1B1B1B"/>
<path d="M17.9604 9.17139L17.8626 9.17921C17.7375 9.30823 17.7531 9.38251 17.9604 9.17139Z" fill="#1B1B1B"/>
<path d="M27.4414 5.4962C27.5548 5.52748 27.848 5.55094 28.0279 5.51966C27.7933 5.51184 27.5626 5.48838 27.4414 5.4962Z" fill="#1B1B1B"/>
<path d="M44.9536 27.2541L44.9458 27.0469L44.938 27.4379L44.9536 27.2541Z" fill="#1B1B1B"/>
<path d="M28.7906 27.1954C29.4557 27.1954 29.9948 26.3202 29.9948 25.2405C29.9948 24.1609 29.4557 23.2856 28.7906 23.2856C28.1256 23.2856 27.5864 24.1609 27.5864 25.2405C27.5864 26.3202 28.1256 27.1954 28.7906 27.1954Z" fill="black"/>
<path d="M37.7203 27.1954C38.3854 27.1954 38.9245 26.3202 38.9245 25.2405C38.9245 24.1609 38.3854 23.2856 37.7203 23.2856C37.0553 23.2856 36.5161 24.1609 36.5161 25.2405C36.5161 26.3202 37.0553 27.1954 37.7203 27.1954Z" fill="black"/>
<path d="M27.082 31.1052C28.5309 31.1052 29.7054 30.4051 29.7054 29.5413C29.7054 28.6776 28.5309 27.9774 27.082 27.9774C25.6331 27.9774 24.4585 28.6776 24.4585 29.5413C24.4585 30.4051 25.6331 31.1052 27.082 31.1052Z" fill="#F4BDCB"/>
<path d="M38.8114 31.1052C40.2603 31.1052 41.4349 30.4051 41.4349 29.5413C41.4349 28.6776 40.2603 27.9774 38.8114 27.9774C37.3626 27.9774 36.188 28.6776 36.188 29.5413C36.188 30.4051 37.3626 31.1052 38.8114 31.1052Z" fill="#F4BDCB"/>
<path d="M33.2555 31.4962C32.2859 31.4962 31.4961 30.7064 31.4961 29.7368C31.4961 28.7672 32.2859 27.9774 33.2555 27.9774C34.2251 27.9774 35.0149 28.7672 35.0149 29.7368C35.0149 30.7064 34.2251 31.4962 33.2555 31.4962ZM33.2555 28.3684C32.5009 28.3684 31.8871 28.9822 31.8871 29.7368C31.8871 30.4914 32.5009 31.1052 33.2555 31.1052C34.0101 31.1052 34.6239 30.4914 34.6239 29.7368C34.6239 28.9822 34.0101 28.3684 33.2555 28.3684Z" fill="black"/>
<path d="M38.9246 17.0301C39.5541 18.289 38.1427 20.1579 38.1427 20.1579C38.1427 20.1579 42.4434 20.5489 42.4434 17.812C42.4434 16.0643 40.4885 13.9022 40.4885 13.9022C42.4434 14.6842 44.7893 19.8216 44.7893 19.8216C44.7893 19.8216 44.0073 14.6842 40.4885 11.1654C40.4885 11.1654 36.9697 6.47367 30.7141 5.30073C28.4777 4.71036 26.8942 4.67517 26.8942 4.67517C23.7977 4.85893 21.3345 5.54314 19.3718 6.47758C17.2879 7.2869 10.1917 10.9113 6.9583 23.6767C3.14627 38.7293 6.66506 37.9473 3.14627 40.6842C-0.37253 43.421 -3.10937 50.8496 4.3192 52.0225C4.3192 52.0225 8.03349 44.7895 15.6575 45.3759C15.6575 45.3759 16.7679 40.477 17.5812 39.8006C18.1168 39.3549 14.7622 36.9386 12.7291 32.0905C14.1914 29.3967 16.8305 29.3498 18.0034 24.658C18.8127 21.4246 21.4127 14.5239 24.4545 14.2971C26.0771 14.1759 20.5448 19.7708 20.5448 19.7708C20.5448 19.7708 25.3147 21.6944 28.7553 18.5979C29.7796 17.6752 30.7102 16.252 30.5147 13.7107L30.9643 14.9071C31.4178 16.1113 31.2263 17.464 30.4599 18.4962L29.4708 19.8295C29.4708 19.8295 32.4852 20.8851 35.7968 19.3837C40.0975 17.4289 33.8419 12.3461 33.8419 12.3461C33.8419 12.3461 37.7517 14.692 38.9246 17.0379V17.0301Z" fill="black"/>
<path d="M39.0381 40.7898C32.2781 46.7444 24.353 44.2304 24.353 44.2304L23.2856 47.1354C30.3232 49.4812 32.4736 53.6021 32.4736 53.6021C41.6616 55.3772 37.3608 49.0902 37.1653 48.2027C36.9699 47.3152 36.1879 46.3573 37.1653 44.766C38.1428 43.1748 39.0381 40.7898 39.0381 40.7898Z" fill="black"/>
<path d="M33.0641 35.7031C29.0135 35.7031 26.8553 31.8324 26.828 31.7855C26.7771 31.6917 26.8123 31.5705 26.9062 31.5196C27 31.4688 27.1212 31.504 27.172 31.5978C27.2815 31.8011 29.9245 36.5241 34.9603 35.0228C35.0659 34.9915 35.1714 35.0502 35.2027 35.1557C35.234 35.2574 35.1753 35.3668 35.0698 35.3981C34.3543 35.6093 33.6857 35.7031 33.0602 35.7031H33.0641Z" fill="black"/>
<path d="M29.9321 22.0307C29.8618 22.0307 29.7914 21.9916 29.7562 21.9251C29.4864 21.4012 29.2088 21.1275 28.9469 21.1275H28.939C28.5598 21.1354 28.2118 21.7023 28.1102 21.9212C28.0633 22.019 27.946 22.062 27.8482 22.0151C27.7505 21.9681 27.7075 21.8548 27.7544 21.757C27.8013 21.6554 28.2431 20.7522 28.9312 20.7405H28.9469C29.3691 20.7405 29.7601 21.0806 30.1042 21.7531C30.155 21.8509 30.1159 21.9681 30.0181 22.0151C29.9908 22.0307 29.9595 22.0346 29.9282 22.0346L29.9321 22.0307Z" fill="black"/>
<path d="M38.5337 22.0307C38.4633 22.0307 38.3929 21.9916 38.3578 21.9251C38.088 21.4012 37.8104 21.1275 37.5484 21.1275H37.5406C37.1614 21.1354 36.8134 21.7023 36.7117 21.9212C36.6648 22.019 36.5475 22.062 36.4498 22.0151C36.352 21.9681 36.309 21.8548 36.356 21.757C36.4029 21.6554 36.8447 20.7522 37.5328 20.7405H37.5484C37.9707 20.7405 38.3617 21.0806 38.7057 21.7531C38.7566 21.8509 38.7175 21.9681 38.6197 22.0151C38.5923 22.0307 38.5611 22.0346 38.5298 22.0346L38.5337 22.0307Z" fill="black"/>
<path d="M0.00292969 63.2241C0.00292969 63.2241 0.784885 55.4045 4.30368 51.4948C7.82248 47.585 10.1683 44.8481 13.6871 44.8481C13.6871 44.8481 11.3882 48.6172 18.7698 49.5399C25.0255 50.3218 24.2435 46.803 24.2435 46.803C25.5689 47.4755 29.1933 49.2193 30.4992 50.7128C33.236 53.8406 35.5819 58.1414 35.5819 58.1414" fill="#FF4D57"/>
<path d="M30.9019 50.9786L30.9253 51.0256C30.9253 51.0256 30.9136 50.9943 30.9019 50.9786Z" fill="#1B1B1B"/>
<path d="M26.9257 47.9798C26.9609 47.9954 26.9804 47.9954 26.9843 47.9876C26.9491 47.9759 26.9218 47.9681 26.9257 47.9798Z" fill="#1B1B1B"/>
<path d="M26.2256 47.4833C26.2256 47.4833 26.253 47.5028 26.2686 47.5146C26.2569 47.4989 26.2412 47.4833 26.2256 47.4833Z" fill="#1B1B1B"/>
<path d="M30.9015 50.9786L30.839 50.8574C30.8077 50.8692 30.8663 50.9239 30.9015 50.9786Z" fill="#1B1B1B"/>
<path d="M32.3208 52.6598L32.3443 52.6911C32.3443 52.6911 32.3794 52.695 32.3951 52.6911L32.3208 52.6559V52.6598Z" fill="#1B1B1B"/>
<path d="M31.6055 51.6863C31.6055 51.6863 31.6172 51.6668 31.6172 51.655C31.6094 51.6628 31.6055 51.6707 31.6055 51.6863Z" fill="#1B1B1B"/>
<path d="M24.7046 46.5879C24.7046 46.5879 24.7124 46.5918 24.7163 46.5957C24.7828 46.6192 24.7476 46.6035 24.7046 46.5879Z" fill="#1B1B1B"/>
<path d="M13.7301 46.498C13.691 46.6505 13.5816 46.2869 13.5542 46.5137C13.5816 46.4902 13.7262 46.6779 13.7301 46.498Z" fill="#1B1B1B"/>
<path d="M22.6875 48.9221C22.6875 48.9221 22.7149 48.9378 22.7305 48.9378C22.7266 48.9299 22.7149 48.926 22.6875 48.9221Z" fill="#1B1B1B"/>
<path d="M21.4713 49.3521C21.4361 49.3521 21.4244 49.3404 21.3774 49.3521C21.3814 49.3521 21.3853 49.36 21.3931 49.36C21.4087 49.3482 21.4322 49.3404 21.4713 49.3482V49.3521Z" fill="#1B1B1B"/>
<path d="M20.0718 49.4069C20.0718 49.4069 20.0874 49.4186 20.0952 49.4225C20.1109 49.4225 20.1265 49.4225 20.1382 49.4186L20.0679 49.4069H20.0718Z" fill="#1B1B1B"/>
<path d="M21.4909 50.0051L21.2485 50.0129C21.315 50.0129 21.4049 50.0129 21.4909 50.0051Z" fill="#1B1B1B"/>
<path d="M7.22024 48.8126L7.19287 48.8556C7.19287 48.8556 7.22024 48.8283 7.22024 48.8126Z" fill="#1B1B1B"/>
<path d="M20.5446 50.0599C20.5016 50.0286 20.4586 50.013 20.4116 50.0012C20.3999 50.009 20.3921 50.0129 20.3843 50.0208L20.5446 50.056V50.0599Z" fill="#1B1B1B"/>
<path d="M1.35545 58.6966C1.41409 58.4894 1.28116 58.5715 1.23424 58.5128C1.27334 58.2587 1.34372 58.419 1.418 58.3486C1.43364 58.1883 1.36717 58.0397 1.40627 57.9263C1.42582 57.9263 1.43755 57.9029 1.45319 57.9342C1.42191 57.7465 1.60176 57.4533 1.55484 57.2304C1.56657 57.2187 1.5783 57.2148 1.59003 57.2148C1.52748 57.2304 1.47665 57.2148 1.44146 57.1991C1.46883 57.1053 1.42973 57.0075 1.50793 56.9919C1.48838 57.0466 1.51184 57.0623 1.52748 57.0936V56.988C1.65259 56.9333 1.51966 57.1327 1.59394 57.1561C1.6174 56.9567 1.62522 56.7143 1.69951 56.5814C1.80507 56.5814 1.61349 56.9254 1.76206 56.7651L1.64868 56.9724C1.8559 56.8551 1.59003 57.1014 1.80507 57.0036C1.93409 56.726 1.87154 56.6635 2.00447 56.3859C1.9771 56.3038 1.91845 56.3781 1.89108 56.296C1.94582 55.8463 2.24687 56.0653 2.24296 55.7212C2.21169 55.6196 2.11003 55.5414 2.2586 55.3576L2.33289 55.4749C2.458 55.2051 2.24296 55.2521 2.44236 54.9979C2.458 55.0644 2.38372 55.2247 2.41108 55.1895C2.57139 55.0409 2.41108 55.0331 2.47755 54.8924L2.58311 54.9041C2.70823 54.6187 2.7786 54.2629 2.93499 53.9501C2.95063 53.9814 2.95063 54.0478 3.0171 53.9892C3.10311 53.7859 3.22041 53.5826 3.34552 53.391C3.47454 53.1955 3.63484 53.0313 3.77169 52.871L3.79123 52.6872C3.81469 52.656 3.86161 52.6521 3.85379 52.6951C3.97109 52.5778 3.81469 52.656 3.83033 52.57C3.87725 52.4878 3.93981 52.4957 3.92808 52.5621C4.03364 52.2885 4.31515 51.8232 4.5771 51.6472L4.55364 51.7098C4.74131 51.5534 4.60447 51.3892 4.8156 51.2719L4.79605 51.3149C5.17921 50.9474 5.51154 50.4587 5.87515 50.2475C5.83605 50.1068 6.27003 49.8996 6.16447 49.7588C6.43033 49.5946 6.39514 49.6767 6.72748 49.4109C6.80958 49.3327 6.76266 49.2154 6.84477 49.0981L6.91124 49.1567L6.97379 48.9534H7.12236L7.19665 48.8478C7.15755 48.883 7.09108 48.8987 7.07545 48.8752C7.18883 48.6993 7.46642 48.5624 7.50552 48.5937C7.59936 48.4608 7.6971 48.3318 7.79484 48.2027C7.81439 48.2379 7.76357 48.3005 7.7362 48.363C7.85349 48.1167 7.83785 48.3982 7.94342 48.1754C7.90823 48.1832 7.91996 48.1245 7.90823 48.1089C8.02943 48.0659 8.22101 47.8821 8.35003 47.7336L8.36567 47.8039C8.63545 47.5733 8.90131 47.2839 9.20627 47.0337C9.08116 47.1041 9.03424 46.9985 9.12026 46.9164L9.21409 46.9594C9.23755 46.8656 9.0968 47.0063 9.17109 46.8539C9.2962 46.7718 9.31575 46.8812 9.26883 46.9555L9.39003 46.8226C9.4174 46.8382 9.39003 46.8773 9.40567 46.9125C9.42913 46.8226 9.70672 46.803 9.73018 46.6584L9.75364 46.674C10.0742 46.459 10.1994 46.3221 10.4691 46.1657C10.4339 46.0915 10.5512 46.0484 10.5982 45.9429C10.8132 45.8412 11.0791 45.806 11.3254 45.677C11.4896 45.5675 11.3527 45.591 11.4153 45.5128C11.4583 45.5793 11.7163 45.4776 11.5991 45.5754C11.9079 45.4542 11.9939 45.419 12.3888 45.2626C12.338 45.243 12.2833 45.243 12.3028 45.2118C12.3771 45.1805 12.4788 45.1961 12.4788 45.2391L12.4592 45.2509C12.5569 45.2118 12.6625 45.1922 12.7759 45.1844C12.8306 45.1805 12.8932 45.1766 12.9401 45.1766C12.9714 45.1766 12.9948 45.1844 13.0105 45.1961C13.0809 45.2391 13.0809 45.2743 13.0965 45.2821C13.0965 45.286 13.1082 45.29 13.1317 45.29H13.1239C13.1434 45.3017 13.1591 45.3408 13.1708 45.3994C13.1708 45.3877 13.163 45.4151 13.1591 45.4229C13.1551 45.4346 13.1512 45.4385 13.1473 45.4346C13.1395 45.4346 13.1356 45.4151 13.1317 45.3916C13.116 45.3799 13.0926 45.3838 13.0691 45.3682C13.0691 45.8725 12.9401 46.1618 13.073 46.5724C13.0379 46.6584 13.0339 46.7796 13.0574 46.9125C13.0809 47.0454 13.1591 47.1784 13.2255 47.3191C13.2842 47.4638 13.4015 47.5733 13.4757 47.6984C13.5579 47.8196 13.6243 47.9369 13.683 48.0307L13.7025 47.9799C13.8198 48.0229 13.7768 48.0933 13.8276 48.1597C13.8472 48.1206 13.7729 48.0424 13.8433 48.0698C14.5431 48.668 15.3524 49.1684 16.197 49.493C16.5058 49.6024 16.4511 49.2818 16.8108 49.5047L16.6739 49.5712C17.3308 49.6376 17.9759 49.8488 18.6132 49.8488C18.5741 49.8644 18.5702 49.8918 18.5076 49.8839C18.6288 49.9817 19.0003 49.9465 19.0081 49.8878C19.1058 49.9035 19.0237 49.9426 19.0824 49.9778C19.2114 50.0325 19.4264 49.9191 19.4929 49.9934C19.5046 50.0051 19.4538 50.013 19.4264 50.0169C19.5163 49.9895 19.833 50.0599 19.7548 49.9739C19.9894 50.0286 20.2123 49.9465 20.4039 49.9973C20.529 49.9074 20.8144 50.0481 20.8496 49.9113C20.8379 50.0442 21.2836 49.9817 21.4282 49.9074C21.3813 49.9504 21.5651 49.9387 21.5142 49.9973C21.6902 49.9895 21.8466 49.9152 21.8036 49.8566C21.9795 49.9035 22.1359 49.837 22.2727 49.7823C22.4096 49.7275 22.523 49.6533 22.6481 49.7197C23.1446 49.493 23.5669 49.1684 23.8836 48.7853C23.9227 48.8322 23.8406 48.9573 23.735 49.0355C23.6333 49.1215 23.5317 49.2036 23.5825 49.2545C23.6724 49.1684 23.7467 49.0863 23.8132 49.0121C23.8757 48.926 23.9227 48.84 23.9774 48.7618C24.0869 48.6054 24.1612 48.4295 24.2902 48.234C24.3527 48.1284 24.3215 48.3278 24.3097 48.3709C24.3997 48.1402 24.4818 47.9212 24.5326 47.6984C24.5482 47.6515 24.5521 47.5733 24.56 47.5459V47.4912C24.56 47.456 24.5521 47.4169 24.5326 47.3582C24.5443 47.3739 24.556 47.4012 24.5678 47.4247C24.5639 47.3934 24.5834 47.3934 24.5248 47.3191L24.5404 47.366C24.4935 47.3426 24.4466 47.2409 24.3918 47.1002C24.3762 47.0572 24.3449 46.9829 24.3449 46.9672C24.3527 46.9555 24.3566 46.9438 24.3527 46.9321C24.4309 47.1666 24.6108 47.1119 24.6303 47.3621C24.6382 47.3543 24.646 47.3269 24.6303 47.2722C24.6694 47.3035 24.6733 47.3348 24.6655 47.3817C24.7359 47.3817 24.7124 47.2996 24.8258 47.3582C24.8063 47.3817 24.7867 47.3817 24.7672 47.413C24.7828 47.3895 24.8649 47.3973 24.9353 47.413C25.0057 47.4286 25.0839 47.4599 25.1699 47.5146C25.1503 47.5263 25.1621 47.5576 25.1073 47.5263C25.424 47.6788 25.7055 47.6632 26.0222 47.89C25.8619 47.9486 26.12 47.9877 26.0848 48.0933L26.2803 48.1597L26.2333 48.0737C26.3936 48.1597 26.5696 48.1675 26.6869 48.2731L26.5461 48.2497L26.8511 48.3943L26.7025 48.2653C26.8902 48.3044 26.7533 48.1324 26.9488 48.277C26.9019 48.2614 27.1052 48.3669 27.156 48.4686C27.2499 48.4803 27.3515 48.496 27.4532 48.5859C27.4649 48.6328 27.3672 48.6758 27.375 48.7071C27.4962 48.6719 27.7542 48.8948 27.895 48.8713C27.852 48.8713 27.8207 48.9182 27.8246 48.9378L27.9263 48.9143C27.9849 48.9769 27.9888 48.9925 27.9536 49.0277C28.1609 49.1684 27.9576 48.8674 28.1804 49.0746C28.1569 49.0668 28.1609 49.0824 28.1139 49.0668C28.3485 49.2506 28.63 49.3327 28.8333 49.5203C28.8373 49.6572 28.6222 49.4069 28.6457 49.536C28.978 49.7393 29.3964 49.8878 29.67 50.1537L29.6231 50.099C29.7639 50.013 29.7951 50.3336 29.9828 50.4078C29.9398 50.3844 29.8812 50.4313 29.9007 50.4274C30.0767 50.6151 30.2995 50.748 30.5966 51.0295L30.5341 51.0178C30.6084 51.1585 30.7843 51.3423 30.8742 51.483C30.9368 51.4948 30.9915 51.5769 30.9994 51.4948C31.1479 52.0343 31.707 52.1907 31.8361 52.6716C31.8009 52.6286 31.7305 52.5895 31.7539 52.6247L32.0159 52.9179C32.0511 52.8515 32.0159 52.8515 32.0159 52.7537C32.0785 52.7693 32.1684 52.8397 32.2231 52.9179C32.0824 52.8006 32.1371 52.9844 32.1488 53.0665C32.1567 53.043 32.1918 53.0509 32.2036 53.0352C32.227 53.2698 32.3365 52.9805 32.4342 53.2581L32.3951 53.2659C32.4694 53.3402 32.5633 53.391 32.6219 53.4887C32.5867 53.5709 32.5281 53.4184 32.4694 53.4496C32.5633 53.5748 32.7705 53.6178 32.79 53.782C32.7314 53.739 32.6767 53.6608 32.6219 53.6178C32.6376 53.7976 32.6649 53.7976 32.7197 53.9032V53.8915L32.833 54.1339L32.8135 54.0635C33.0911 54.1104 33.0715 54.3724 33.3296 54.5209C33.0794 54.3763 33.2436 54.5248 33.1615 54.56C33.1771 54.6304 33.2123 54.7321 33.1771 54.7203C33.3061 54.7868 33.2436 54.9275 33.4312 55.0175C33.4117 55.0409 33.5016 55.1309 33.4273 55.1465C33.5368 55.2716 33.4469 55.0879 33.486 55.08C33.7049 55.2403 33.7088 55.6391 34.0138 55.8776C34.2249 56.1122 34.3383 56.1122 34.5338 56.3351C34.5455 56.4445 34.4048 56.3194 34.4048 56.3194C34.4517 56.4758 34.5182 56.5736 34.6237 56.683C34.5885 56.6713 34.5846 56.7065 34.5807 56.7612C34.6472 56.859 34.7097 56.7769 34.7566 56.9333C34.7136 56.9254 34.655 56.9215 34.5964 56.8903C34.6902 56.9958 34.8075 57.0897 34.9052 57.203C34.8818 57.2617 34.7957 57.1639 34.741 57.1366C34.8427 57.2656 34.9951 57.4806 35.089 57.4845L35.0616 57.379C35.0968 57.4298 35.0186 57.4415 34.9834 57.4103C34.8583 57.3203 34.9052 57.2226 34.9248 57.1991L34.9951 57.2812C35.0851 57.1053 34.7606 56.9333 34.6589 56.7495L34.8075 56.7612L34.612 56.6283C34.612 56.5736 34.6589 56.511 34.7254 56.5892C34.698 56.4289 34.6198 56.4993 34.6081 56.3546C34.6081 56.3351 34.6198 56.339 34.6276 56.3468L34.5182 56.2412C34.5533 56.253 34.5807 56.1748 34.612 56.2608C34.5338 55.9988 34.3109 55.948 34.3344 55.8151L34.3539 55.8307C34.1233 55.5414 34.2601 55.8463 34.0255 55.6704L34.1115 55.3967L34.0177 55.4163C34.0021 55.3811 33.9669 55.3146 34.0021 55.3068C33.873 55.2208 33.9825 55.3498 33.8887 55.3068C33.8613 55.1074 33.5837 54.908 33.6815 54.7946C33.5876 54.779 33.7323 54.9666 33.5876 54.8337C33.6854 54.7047 33.443 54.6617 33.4078 54.4818C33.5016 54.4818 33.5524 54.6343 33.5212 54.4584C33.357 54.4466 33.3648 54.173 33.2631 54.0713C33.1693 54.126 33.0559 53.8445 32.8917 53.6725C32.9308 53.6647 32.6845 53.2776 32.5906 53.0743H32.6102C32.4968 53.0978 32.3795 52.9023 32.2661 52.785C32.3209 52.7537 32.36 52.7615 32.4342 52.8163L32.3404 52.6912C32.2896 52.6833 32.2466 52.6521 32.1801 52.5817L32.2661 52.566C32.141 52.4018 31.9416 52.2924 31.8243 52.046C31.7579 52.0812 31.7852 52.3393 31.578 52.1477C31.6054 52.1164 31.6523 52.0656 31.7109 52.1125C31.6914 52.0969 31.6327 52.0656 31.6171 52.0148L31.7383 52.0617C31.6875 51.9483 31.6562 52.046 31.6015 51.9678C31.6484 51.9327 31.5897 51.8857 31.6367 51.8701C31.6562 51.8857 31.6679 51.9522 31.7109 51.9678C31.6523 51.874 31.5976 51.7489 31.6054 51.6903C31.5858 51.7176 31.5428 51.7372 31.4881 51.6824C31.3551 51.526 31.4998 51.5847 31.4451 51.4713C31.3825 51.4557 31.3317 51.3266 31.2613 51.3814C31.2222 51.3345 31.2496 51.2993 31.2535 51.268C31.1597 51.2054 30.9212 50.8927 30.9329 51.0412L30.9446 51.0647L30.929 51.053C30.7843 50.9474 30.6748 50.8027 30.5732 50.6503C30.4559 50.5095 30.3542 50.3453 30.2057 50.2475L30.2252 50.228C30.0493 50.1068 29.8577 49.9348 29.7013 49.8918C29.6544 49.8527 29.6192 49.7588 29.6622 49.7471C29.5215 49.6689 29.4863 49.6845 29.3299 49.5086C29.4902 49.5633 29.3103 49.4382 29.4863 49.5751C29.3338 49.4304 29.3221 49.3639 29.0914 49.3053C29.197 49.2857 29.0132 49.1411 28.9194 49.102L29.0093 49.2271C28.9115 49.1724 28.8373 49.1137 28.7551 49.0551L28.8529 49.0003C28.5597 48.668 28.0983 48.7618 27.9263 48.4295C27.7973 48.4295 28.0983 48.5898 27.9732 48.6054C27.8129 48.496 27.7073 48.2731 27.6565 48.2418C27.4532 48.062 27.3711 48.2418 27.1443 48.0737C27.16 48.1206 27.1443 48.2184 26.9449 48.148C26.7807 48.0424 26.8081 47.9056 26.9254 47.9408C26.9684 47.9603 26.984 47.9799 26.9762 47.9916C27.0388 48.0112 27.117 48.0385 27.0661 47.9681L27.027 47.9877C26.9606 47.9095 26.7221 47.7844 26.8042 47.7648C26.6595 47.7218 26.7221 47.7844 26.8081 47.8548C26.6126 47.6906 26.4679 47.6671 26.2568 47.5185C26.2842 47.5537 26.2959 47.6085 26.2607 47.5889C25.9479 47.3739 26.0848 47.5694 25.8502 47.4677C25.7446 47.3543 25.9557 47.3778 25.7055 47.2996C25.5843 47.1979 25.7173 47.2018 25.7876 47.2057C25.5491 47.1588 25.4201 46.9672 25.3067 46.8969L25.4279 46.9281C25.3536 46.9086 25.3028 46.8812 25.2481 46.8539L25.2794 46.9477C25.2207 46.9047 25.166 46.8773 25.1816 46.85C25.0956 46.8578 25.1816 46.979 25.0213 46.9672C24.9079 46.8695 24.6499 46.8226 24.5951 46.6936C24.8063 46.8148 24.7945 46.7874 24.7789 46.7444C24.7633 46.7053 24.7281 46.6466 24.9353 46.7444C24.8532 46.717 24.7633 46.6701 24.646 46.5958C24.6264 46.5763 24.6616 46.5802 24.6929 46.5958C24.1963 46.2518 24.4935 46.6115 24.0673 46.3925C24.0751 46.3651 24.0282 46.3182 23.9696 46.2674C23.9109 46.2205 23.8288 46.1657 23.821 46.1736C23.8875 46.197 23.9539 46.2635 23.9461 46.2869C23.95 46.3065 23.9344 46.3104 23.9305 46.33C23.9305 46.3534 23.9266 46.373 23.9109 46.3925C23.9031 46.3925 23.8953 46.3847 23.8914 46.3847C23.8992 46.6701 23.993 46.8226 24.0009 46.9712C24.0009 46.9125 24.0009 46.8539 24.0009 46.7952C24.0751 46.936 24.0751 47.0689 24.1025 47.2761C24.0634 47.2761 24.0595 47.0728 24.0478 47.1354C24.1103 47.2878 24.0712 47.3817 24.0282 47.4951C23.997 47.5733 23.9344 47.6475 23.9422 47.7453C23.8875 47.8157 23.8484 47.7257 23.8054 47.7844C23.7858 47.9877 23.6724 47.9525 23.6099 48.1402C23.6998 48.1284 23.692 48.105 23.6724 48.2731C23.7154 48.1597 23.778 48.0659 23.7976 47.9486C23.8054 48.0307 23.7976 48.1128 23.7819 48.1949C23.8484 48.105 23.8484 47.9721 23.8836 47.9173C23.8953 48.0385 23.8836 48.0268 23.9539 47.9994C23.8093 48.0972 23.8601 48.3005 23.7037 48.41L23.5708 48.3005C23.4535 48.363 23.4105 48.4647 23.3362 48.5624C23.2541 48.6484 23.1798 48.7736 23.0156 48.8361C23.0508 48.8244 23.0938 48.8244 23.1251 48.8048C23.1251 48.8909 22.9413 48.9143 22.8592 48.9925C22.8436 48.9378 22.7732 48.9495 22.7145 48.9378C22.7419 48.9847 22.48 49.0238 22.4917 49.1411L22.3197 49.1215C22.0499 49.188 22.046 49.3561 21.7645 49.403C21.8348 49.3248 21.7058 49.3092 21.8779 49.2271C21.7879 49.2466 21.7058 49.2506 21.7097 49.2897C21.655 49.2701 21.4673 49.4148 21.3735 49.36C21.3383 49.3874 21.3305 49.45 21.2249 49.4539C21.2132 49.4421 21.2249 49.4265 21.2249 49.4265C21.2249 49.4539 21.0607 49.4812 21.1624 49.536C20.8613 49.3991 20.3413 49.5751 20.0872 49.4187C19.88 49.446 19.6297 49.4343 19.4382 49.4187C19.4499 49.403 19.4382 49.3913 19.4773 49.3991C19.2231 49.3209 19.3013 49.5516 19.012 49.4656C18.8712 49.36 19.1762 49.4304 19.0824 49.3874C19.0628 49.1958 18.7227 49.3874 18.5389 49.2349H18.5897C18.449 49.145 18.2144 49.2427 17.9681 49.1919C17.9681 49.1919 17.9837 49.1763 17.9759 49.1645C17.7921 49.2349 17.4637 49.2193 17.2252 49.1802C17.3151 49.1254 17.3386 49.1685 17.3112 49.0824C17.2057 49.0668 17.3151 49.2075 17.1001 49.1763C17.0415 49.1215 16.9007 49.0472 16.9007 48.9651L17.0962 49.0081C17.0219 48.883 16.8421 48.9495 16.7443 48.9065L16.7678 48.8674C16.4628 48.8127 16.4315 48.9143 16.1188 48.797L16.1383 48.84C15.9272 48.8869 16.0171 48.7306 15.8177 48.7462L15.8099 48.6211C15.6848 48.6211 15.3876 48.5624 15.1804 48.4842C15.3329 48.4569 15.5636 48.5429 15.7278 48.5429C15.6144 48.5077 15.372 48.3826 15.2899 48.41C15.3368 48.4217 15.4033 48.4217 15.4345 48.4569C15.2703 48.4725 15.0709 48.4334 14.8676 48.32C14.9419 48.234 14.8285 48.1363 14.6878 48.0307C14.6174 47.9799 14.5431 47.9212 14.4845 47.8665C14.4297 47.8078 14.3985 47.7375 14.3985 47.6788C14.3163 47.628 14.2421 47.5654 14.1717 47.499C14.0974 47.4325 14.0622 47.3426 14.0114 47.2605C13.898 47.1002 13.8589 46.9047 13.7729 46.7131C13.6478 46.9125 13.7377 46.5958 13.5735 46.6662C13.5383 46.5645 13.5305 46.5215 13.5422 46.5137C13.5422 46.4042 13.593 46.2909 13.6165 46.1892C13.6634 46.1149 13.6634 46.283 13.7025 46.2713C13.7064 46.0563 13.7651 46.1814 13.8198 46.0445C13.7533 46.0719 13.7338 45.9663 13.769 45.8491L13.6712 46.0133C13.64 45.8569 13.6791 45.7904 13.7338 45.7318C13.7612 45.7044 13.7846 45.6731 13.8003 45.634C13.8042 45.6223 13.8081 45.6145 13.812 45.5988C13.8198 45.5754 13.812 45.5988 13.8276 45.5324C13.8511 45.4659 13.8745 45.3994 13.8941 45.3173L13.8667 45.5284C13.9019 45.4151 13.9723 45.243 14.0466 45.0515C14.1482 44.8481 14.2694 44.6136 14.3515 44.4376C14.2929 44.4415 14.2616 44.4415 14.2147 44.4494C14.16 44.4572 14.1052 44.4689 14.0544 44.4767C13.9527 44.4963 13.8628 44.5197 13.7846 44.551C13.7573 44.5315 13.726 44.4845 13.8824 44.465C13.6947 44.465 13.4797 44.4845 13.2724 44.508C13.0691 44.5236 12.8385 44.5706 12.7524 44.6018C12.5139 44.6644 12.295 44.7191 12.1151 44.7309L12.1386 44.68C12.0565 44.7152 12.0135 44.7973 11.9001 44.7817C11.9001 44.7621 11.9236 44.7309 11.8845 44.7387C11.8415 44.7621 11.6851 44.8677 11.5717 44.8872L11.646 44.8091C11.427 44.856 11.2706 44.9459 11.1338 45.0358C11.0009 45.1375 10.8875 45.2509 10.7272 45.3408C10.6998 45.2821 10.6021 45.2782 10.4887 45.3017C10.3792 45.3291 10.258 45.3799 10.1759 45.4151V45.3955C9.9374 45.5128 9.76537 45.6536 9.60898 45.806C9.44868 45.9507 9.30402 46.1032 9.1359 46.2713C8.81139 46.33 8.32266 46.8382 7.93169 47.0963C8.00206 47.065 7.99033 47.1784 7.93951 47.2448C7.84176 47.2996 7.77921 47.5146 7.70883 47.4169L7.74011 47.3934C7.59936 47.3621 7.46251 47.5459 7.33349 47.6632L7.41951 47.7961C6.93078 47.9525 6.64146 48.7032 6.32477 48.7423C6.27785 48.8478 6.18402 48.9456 6.1371 49.0512L6.07845 48.9886C5.8556 49.1958 5.74612 49.3014 5.50763 49.5907L5.51545 49.493C5.36687 49.6454 5.51545 49.8527 5.38642 49.9973L5.2574 49.9582C5.01109 50.2319 4.68266 50.4352 4.52236 50.7793C4.51454 50.7636 4.49499 50.7324 4.53018 50.6815C4.41289 50.8066 4.02191 51.1233 4.19003 51.1898C4.10402 51.1116 3.93199 51.4752 3.84206 51.6668L3.79905 51.5886C3.77169 51.788 3.79123 51.8115 3.66221 52.0148C3.6192 52.0539 3.58011 52.0148 3.64266 51.9678C3.49409 52.093 3.60357 52.1242 3.44327 52.2884V52.1868C3.33379 52.3432 3.36507 52.3471 3.35725 52.4722C3.31815 52.5895 3.1383 52.7654 3.06011 52.7498C3.08357 52.7967 3.07575 52.9179 2.99364 53C2.96236 53 2.97018 52.9531 2.97409 52.9336C2.75515 53.1799 2.8177 53.3988 2.63785 53.5474C2.61048 53.5396 2.59484 53.5474 2.5753 53.5552C2.70432 53.3324 2.80597 53.1525 2.80206 53.176C2.7356 53.1369 2.62221 53.3128 2.61439 53.1134C2.57921 53.2893 2.54793 53.5982 2.4189 53.7585C2.40718 53.7624 2.39545 53.7703 2.38372 53.7703V53.7468C2.35635 53.7859 2.34462 53.825 2.33289 53.8641C2.28988 53.9149 2.26642 53.9501 2.23905 54.0048C2.17259 53.997 2.10612 54.2042 2.05921 54.2981C2.1374 54.3254 2.06702 54.4427 2.18432 54.3567C2.17259 54.3684 2.18432 54.3333 2.21169 54.2707C2.2156 54.2551 2.22342 54.2394 2.22342 54.2277V54.2355C2.25469 54.173 2.28988 54.0948 2.33289 54.0009C2.33289 54.0948 2.33289 54.1847 2.23905 54.2668C2.26251 54.3372 2.28597 54.4154 2.2977 54.4545C2.13349 54.5288 1.96146 54.7516 1.87936 54.7555C1.78943 55.0605 1.62131 55.4554 1.68778 55.69C1.67214 55.7799 1.60567 55.7681 1.57048 55.7916C1.57439 55.7369 1.60176 55.6821 1.59003 55.6469C1.55484 55.8229 1.418 56.1474 1.50402 56.2217C1.38281 56.4172 1.45319 56.0692 1.36717 56.3663L1.35154 56.3155C0.976197 56.8316 1.2968 57.3321 0.886273 57.9068C0.913641 57.8677 0.92537 57.8442 0.944919 57.8403C0.639957 58.5519 0.616498 59.3808 0.311536 60.0806C0.23725 60.2839 0.299806 60.3191 0.323265 60.4599L0.225521 60.4872L0.284167 60.7257C0.299806 61.0503 -0.0364343 61.2223 0.0378515 61.6445L0.104318 61.6054C0.0691297 61.7462 0.0613101 62.059 -0.00124626 62.0277C0.00657329 62.0433 0.0534906 62.0824 0.0143928 62.1333H-0.0325245L-0.00515604 62.493C-0.075532 62.7588 -0.181096 62.4226 -0.243652 62.8214C-0.243652 62.9739 -0.161547 63.2632 -0.122449 63.2084C-0.11463 63.1459 -0.075532 63.056 -0.0286148 63.0599L-0.0207951 63.1967C0.112137 63.2358 0.23725 63.3492 0.370182 63.0403L0.315445 62.8018L0.389731 62.7393L0.366273 62.9309C0.444468 62.8292 0.397551 62.7549 0.370182 62.6728C0.40928 62.6611 0.436648 62.6298 0.456197 62.5868L0.358453 62.3444C0.4171 62.3248 0.448378 62.4578 0.499205 62.3131C0.456197 62.1997 0.366273 62.3952 0.350633 62.2154C0.428829 62.1176 0.471836 62.1567 0.440558 62.0199C0.479656 62.0082 0.495295 62.0394 0.503115 62.0903C0.475746 61.969 0.534393 61.7892 0.471836 61.7188C0.565671 61.6172 0.518754 61.3318 0.643867 61.3669C0.620408 61.3278 0.58131 61.1519 0.596949 61.0463C0.714243 61.2653 0.679054 60.6593 0.835446 60.7414C0.722062 60.5733 0.882363 60.2253 0.858904 59.9633C0.866724 59.979 0.882363 60.0103 0.870633 60.0298C0.913641 59.893 0.960558 59.8617 1.00748 59.7796C0.901912 59.7366 0.92537 59.5137 0.886273 59.3808C1.03484 59.2361 0.991836 59.5137 1.10913 59.4863C1.0153 59.4746 1.08958 59.1697 0.999656 59.2088C1.0974 59.0954 1.0583 59.1071 1.16778 59.0641C1.03484 59.0054 1.16778 58.939 1.11695 58.81C1.23815 58.6418 1.26161 58.7982 1.27334 58.5832C1.34372 58.4972 1.33981 58.6927 1.33981 58.6927L1.35545 58.6966ZM2.90372 53.9423C2.88417 53.9814 2.86853 54.0127 2.8568 54.0361C2.86462 54.0166 2.88026 53.9892 2.89981 53.9423H2.90372ZM3.10702 53.5748C3.07966 53.6178 3.04838 53.6725 3.01319 53.7312C2.98191 53.7312 2.96236 53.7038 2.98582 53.6647C2.98973 53.696 3.05229 53.6139 3.10702 53.5709V53.5748ZM2.1765 54.1065C2.19605 54.04 2.21951 54.0244 2.23905 54.0244C2.22733 54.0557 2.2156 54.0909 2.19605 54.1378V54.1495C2.19605 54.1495 2.18041 54.1221 2.1765 54.1065Z" fill="#1B1B1B"/>
<path d="M6.92288 49.1802L6.90724 49.1685L6.89551 49.2076L6.92288 49.1802Z" fill="#1B1B1B"/>
<path d="M24.5679 47.4286C24.5679 47.4286 24.5679 47.4364 24.5679 47.4403C24.5835 47.4755 24.5757 47.456 24.5679 47.4286Z" fill="#1B1B1B"/>
<path d="M27.1603 48.4724C27.1173 48.4646 27.0782 48.4607 27.0391 48.449C27.0938 48.4881 27.1368 48.5115 27.1603 48.4724Z" fill="#1B1B1B"/>
<path d="M21.5181 50.0012L21.4907 50.0051L21.5181 50.0012Z" fill="#1B1B1B"/>
<path d="M26.8901 48.363C26.941 48.41 26.9879 48.4334 27.0387 48.4491C26.9957 48.4178 26.9449 48.3787 26.8901 48.363Z" fill="#1B1B1B"/>
<path d="M29.6348 49.6845L29.6934 49.6337C29.5957 49.575 29.6739 49.6571 29.6348 49.6845Z" fill="#1B1B1B"/>
<path d="M28.4854 49.3561L28.5479 49.4538L28.63 49.4225L28.4854 49.3561Z" fill="#1B1B1B"/>
<path d="M28.2042 48.5507L28.2511 48.5664L28.0791 48.4921L28.2042 48.5507Z" fill="#1B1B1B"/>
<path d="M20.3257 49.3365L20.357 49.4304C20.4312 49.4147 20.443 49.3092 20.3257 49.3365Z" fill="#1B1B1B"/>
<path d="M16.1852 48.7579C16.1579 48.6992 16.0562 48.6327 15.9741 48.6523C16.0601 48.6875 16.1344 48.7539 16.1852 48.7579Z" fill="#1B1B1B"/>
<path d="M7.18511 47.8508L7.22812 47.7687L7.12646 47.9016L7.18511 47.8508Z" fill="#1B1B1B"/>
<path d="M50.2588 19.9819C50.2354 19.7982 50.1572 19.6222 50.0555 19.4698C49.9539 19.3212 49.817 19.2039 49.7193 19.0514C49.4534 18.6331 49.2931 18.1326 49.1563 17.6634C49.1094 17.4953 48.7536 17.6048 48.7262 17.7416C48.5112 18.8207 48.2961 19.8998 48.0772 20.9789C48.0772 20.9907 48.0772 20.9985 48.0694 21.0102C47.8934 20.9007 47.651 20.8343 47.3812 20.8343C46.8495 20.8343 46.4194 21.1001 46.4194 21.4286C46.4194 21.757 46.8495 22.0228 47.3812 22.0228C47.87 22.0228 48.2727 21.7961 48.3313 21.5068C48.3704 21.4794 48.4017 21.4481 48.4095 21.409C48.6011 20.455 48.7888 19.5049 48.9803 18.551C49.0546 18.7386 49.1367 18.9224 49.2345 19.0983C49.3987 19.3994 49.6919 19.6144 49.7897 19.9507C49.8444 20.1344 49.8444 20.3807 49.7701 20.5332C49.6724 20.7326 50.1024 20.7052 50.1728 20.5606C50.2549 20.3886 50.2745 20.1852 50.251 19.9976L50.2588 19.9819Z" fill="#212121"/>
<path d="M50.0442 26.523C50.0599 26.4448 49.9504 26.433 49.8996 26.4369C49.3326 26.476 48.7657 26.5112 48.1988 26.5503C48.1323 26.5542 48.0307 26.5972 48.0151 26.6715C47.8548 27.473 47.6944 28.2745 47.5341 29.0799C47.4364 29.0526 47.3308 29.033 47.2175 29.033C46.8108 29.033 46.4824 29.2363 46.4824 29.4866C46.4824 29.7368 46.8108 29.9401 47.2175 29.9401C47.6241 29.9401 47.9525 29.7368 47.9525 29.4866C47.9525 29.3927 47.9056 29.3028 47.8235 29.2324C47.972 28.4857 48.1206 27.7428 48.2692 26.996C48.2848 26.9139 48.3044 26.8279 48.32 26.7458C48.7775 26.7145 49.2349 26.6833 49.6923 26.6559C49.5711 27.3127 49.4539 27.9696 49.3326 28.6225C49.2388 28.5951 49.1332 28.5795 49.0238 28.5795C48.6172 28.5795 48.2887 28.7828 48.2887 29.033C48.2887 29.2833 48.6172 29.4866 49.0238 29.4866C49.4304 29.4866 49.7588 29.2833 49.7588 29.033C49.7588 28.9392 49.7119 28.8493 49.6259 28.775C49.7432 28.1299 49.8605 27.4848 49.9778 26.8396C49.9973 26.7341 50.0169 26.6285 50.0364 26.523H50.0442Z" fill="#212121"/>
</g>
</svg>
