<svg width="54" height="54" viewBox="0 0 54 54" fill="none" xmlns="http://www.w3.org/2000/svg">
<circle cx="27" cy="27" r="26.4" fill="white" stroke="#EEEEEE" stroke-width="0.8"/>
<g clip-path="url(#clip0_4971_5029)">
<mask id="mask0_4971_5029" style="mask-type:luminance" maskUnits="userSpaceOnUse" x="1" y="1" width="52" height="52">
<path d="M27 53C41.3594 53 53 41.3594 53 27C53 12.6406 41.3594 1 27 1C12.6406 1 1 12.6406 1 27C1 41.3594 12.6406 53 27 53Z" fill="white"/>
</mask>
<g mask="url(#mask0_4971_5029)">
<path d="M38.5341 59.6466C38.5341 59.6466 36.1882 55.3458 33.4514 52.218C30.5738 48.9299 26.4138 47.9172 26.4138 47.9172L27.2778 44.9732C29.4008 45.6652 31.6568 45.8959 33.9479 45.5753C43.1945 44.2772 49.4658 34.4715 47.9488 23.6727C46.4357 12.8739 37.7091 5.17168 28.4586 6.46973C19.2081 7.76777 12.9407 17.5735 14.4577 28.3723C15.1575 33.3612 17.3978 37.6932 20.5178 40.778C20.5178 40.778 18.9852 44.0075 18.5942 46.3533C18.5942 46.3533 11.9476 45.1804 7.25589 53C5.11724 56.5657 4.51904 60.0375 4.51904 60.0375" fill="#FFF7EB"/>
<path d="M19.2667 44.4375L19.208 44.5665C19.2276 44.5313 19.2471 44.4883 19.2667 44.4375Z" fill="#1B1B1B"/>
<path d="M15.6851 32.4659C15.7202 32.5636 15.7476 32.5988 15.7593 32.5988C15.7202 32.5128 15.689 32.4385 15.6851 32.4659Z" fill="#1B1B1B"/>
<path d="M15.2007 30.2216C15.2085 30.2685 15.2163 30.3115 15.2241 30.3545C15.2241 30.3037 15.2163 30.2489 15.2007 30.2216Z" fill="#1B1B1B"/>
<path d="M19.2666 44.4376L19.4152 44.1052C19.3839 44.0661 19.3292 44.2694 19.2666 44.4376Z" fill="#1B1B1B"/>
<path d="M14.7545 47.0219L14.6529 47.057C14.6294 47.0805 14.606 47.1079 14.5864 47.1352L14.7545 47.0179V47.0219Z" fill="#1B1B1B"/>
<path d="M10.8526 49.1958C10.9347 49.1332 10.8917 49.0237 10.8917 48.9612C10.8761 49.0355 10.8331 49.1019 10.7705 49.1645C10.7822 49.1801 10.8096 49.1919 10.8565 49.1958H10.8526Z" fill="#1B1B1B"/>
<path d="M17.9141 46.6074C17.9141 46.6074 17.9375 46.6387 17.9532 46.6465C17.9532 46.6309 17.9375 46.6192 17.9141 46.6074Z" fill="#1B1B1B"/>
<path d="M14.79 26.0695C14.79 26.0695 14.79 26.0812 14.79 26.089C14.8057 26.1985 14.8018 26.1359 14.79 26.0695Z" fill="#1B1B1B"/>
<path d="M39.9376 10.1645C39.6522 9.82437 40.5788 10.4929 40.1252 10.012C40.1448 10.0824 39.5466 9.78918 39.9376 10.1645Z" fill="#1B1B1B"/>
<path d="M40.1211 10.0081L40.0742 9.95728C40.0938 9.97682 40.1055 9.98855 40.1211 10.0081Z" fill="#1B1B1B"/>
<path d="M16.4361 16.7134C16.4087 16.7251 16.3814 16.7525 16.354 16.7838C16.3657 16.7838 16.3853 16.772 16.4361 16.7134Z" fill="#1B1B1B"/>
<path d="M14.6021 23.6141L14.6255 23.4381C14.6099 23.5085 14.606 23.5632 14.6021 23.6141Z" fill="#1B1B1B"/>
<path d="M18.1133 13.394C18.1719 13.3197 18.2071 13.3002 18.2736 13.1868C18.2619 13.1946 18.2501 13.2024 18.2384 13.2102C18.2228 13.2571 18.1876 13.3119 18.1133 13.394Z" fill="#1B1B1B"/>
<path d="M20.674 10.4929C20.6544 10.5007 20.627 10.5125 20.6075 10.5242C20.5801 10.5516 20.5489 10.5828 20.5215 10.6102L20.6779 10.4929H20.674Z" fill="#1B1B1B"/>
<path d="M26.9922 47.6084C26.9727 47.6475 26.9609 47.6749 26.9492 47.6944C27.0157 47.6358 27.1799 47.6514 26.9922 47.6084Z" fill="#1B1B1B"/>
<path d="M17.4956 12.7645L17.8944 12.2562C17.7771 12.3931 17.6324 12.5807 17.4956 12.7645Z" fill="#1B1B1B"/>
<path d="M47.4639 34.0101L47.4287 34.1548C47.4483 34.1001 47.4639 34.0492 47.4639 34.0101Z" fill="#1B1B1B"/>
<path d="M19.1299 10.7822C19.2354 10.7236 19.341 10.6571 19.4388 10.575C19.4505 10.5516 19.47 10.5242 19.47 10.5007C19.3567 10.5946 19.2394 10.6845 19.126 10.7783L19.1299 10.7822Z" fill="#1B1B1B"/>
<path d="M30.6988 49.1293C30.1671 48.8048 30.3782 49.1019 30.2218 49.1058C29.561 48.7852 29.9755 48.8478 29.7917 48.664C29.3656 48.4803 28.9902 48.449 28.6813 48.3043C28.6696 48.2731 28.611 48.2379 28.6931 48.2418C28.4507 48.1949 28.1183 48.0541 27.7704 47.929C27.5983 47.8625 27.4185 47.8078 27.2504 47.7609C27.2074 47.7491 27.1643 47.7413 27.1252 47.7296C27.1057 47.7296 27.0901 47.7296 27.0705 47.7296C27.0353 47.7296 26.9923 47.7296 26.9454 47.7374C26.9376 47.7218 26.9415 47.71 26.9454 47.7022C26.9141 47.7687 26.8789 47.8312 26.8203 47.8703C26.7499 47.8508 26.6717 47.8391 26.5935 47.8312C26.5779 47.7531 26.6092 47.6475 26.6834 47.5928C26.6443 47.71 26.6834 47.7061 26.7108 47.7335V47.5693C26.8828 47.4246 26.7421 47.6944 26.8007 47.7179C26.8203 47.7179 26.8398 47.71 26.8555 47.6983H26.8359C26.8242 47.6514 26.8359 47.5849 26.8359 47.5146L26.8437 47.4012C26.8555 47.3347 26.8672 47.2682 26.8789 47.2018C26.9298 46.932 26.9845 46.6779 27.0627 46.4863C27.2152 46.4394 26.8281 47.4403 27.1018 46.9359L26.9845 47.2409L26.9258 47.3934C26.9102 47.4364 26.9024 47.4442 26.8907 47.4755C26.9571 47.4285 26.9884 47.4246 27.0001 47.4246C27.008 47.4481 27.0001 47.4481 27.0001 47.4676C26.9884 47.5067 26.9845 47.5146 27.1096 47.4794L27.1174 47.4715L27.1409 47.4051C27.1565 47.3582 27.1683 47.3152 27.18 47.2761C27.2034 47.194 27.223 47.1197 27.2465 47.0493C27.2816 46.9125 27.309 46.7952 27.3325 46.6779C27.3833 46.4433 27.4341 46.2087 27.5749 45.806C27.5671 45.7004 27.5358 45.7161 27.5045 45.72C27.4693 45.7356 27.4498 45.7122 27.4263 45.6613C27.4302 45.587 27.4459 45.5128 27.4615 45.458C27.4693 45.4306 27.4771 45.4072 27.4849 45.3876C27.4849 45.3564 27.524 45.3955 27.5436 45.3994C27.6296 45.4502 27.6843 45.5088 27.7117 45.5558C27.7274 45.5792 27.7352 45.6027 27.743 45.6222C27.7625 45.6457 27.829 45.677 27.8798 45.7004C27.9932 45.7513 28.1496 45.7825 28.3803 45.7943C28.6344 45.7591 28.7556 45.6222 29.3734 45.8255L29.1271 45.935C29.9677 46.0914 29.6353 45.8099 30.5072 46.0132C30.343 46.0562 29.8386 45.9897 29.9637 46.021C30.5228 46.2048 30.3782 45.9858 30.82 46.021L30.9021 46.1618C31.8131 46.2009 32.814 46.0875 33.7953 45.9311C33.7445 45.978 33.5803 46.0406 33.8188 46.0523C34.1316 45.9937 34.4522 45.935 34.7806 45.8725C35.1051 45.806 35.4335 45.7356 35.7659 45.6691C36.4188 45.5088 37.0639 45.3407 37.6504 45.1413L38.0374 44.852C38.1391 44.809 38.2446 44.8207 38.1469 44.8872C38.6004 44.7269 38.1391 44.8129 38.3268 44.6721C38.5653 44.547 38.6747 44.5744 38.5379 44.68C38.8976 44.4571 39.398 44.1248 39.8946 43.7885C40.3911 43.4523 40.8837 43.1004 41.2708 42.8815C41.2317 42.9245 41.1965 42.9714 41.1574 43.0144C41.7243 42.6195 41.6227 42.3576 42.1583 42.0135L42.0801 42.1113C42.6588 41.646 43.1827 41.0634 43.6792 40.5161C44.1562 39.9531 44.5902 39.4174 44.9812 38.9991C44.9695 38.8622 45.2001 38.5729 45.3917 38.2797C45.5833 37.9825 45.7592 37.6971 45.6849 37.5994C46.1854 36.9112 46.1268 37.1537 46.7171 36.1097C46.8579 35.8204 46.7758 35.6132 46.9087 35.2457L47.0221 35.2809C47.0534 35.101 47.0729 34.9173 47.0964 34.7374L47.331 34.5224C47.3662 34.4051 47.4013 34.2839 47.4248 34.1627C47.374 34.2995 47.2684 34.4403 47.2449 34.4051C47.3896 33.846 47.761 33.0992 47.8197 33.0953C47.9174 32.6496 47.9917 32.1961 48.0582 31.7464C48.0973 31.7855 48.0621 32.0123 48.0504 32.1961C48.0934 31.4571 48.2107 32.0944 48.2419 31.4141C48.1989 31.4962 48.1794 31.3516 48.1598 31.332C48.2263 31.1756 48.2967 30.9097 48.3553 30.6165C48.4022 30.3194 48.4453 29.9909 48.4687 29.7094L48.5352 29.8267C48.6837 28.818 48.6955 27.6881 48.6837 26.5503C48.6486 26.9609 48.5078 26.8631 48.4883 26.5347L48.6134 26.3979C48.5274 26.1867 48.5743 26.7458 48.4648 26.3079C48.4648 25.8857 48.6016 26.0186 48.6486 26.261L48.5899 25.7449C48.6251 25.7137 48.6525 25.8309 48.6994 25.8622C48.6212 25.655 48.7659 24.9591 48.6095 24.6658L48.6446 24.6346C48.5156 23.5007 48.3983 22.9925 48.2068 22.0854C48.0934 22.0893 48.0504 21.7296 47.8979 21.4833C47.7728 20.8186 47.6594 20.064 47.3818 19.2938C47.1394 18.7699 47.2371 19.1648 47.0925 18.9458C47.1824 18.8676 46.8696 18.1131 47.0925 18.4806C46.9048 18.027 46.7875 17.7338 46.6272 17.4249C46.549 17.2685 46.4669 17.1082 46.3692 16.9167C46.2597 16.729 46.1346 16.514 45.9782 16.2442C46.0016 16.3849 46.0525 16.5257 45.9899 16.4709C45.8765 16.2794 45.7983 15.9979 45.8531 16.0018L45.8922 16.0487C45.4934 15.474 45.1571 14.7428 44.774 14.0703C44.5902 13.7302 44.3947 13.4057 44.1875 13.1203C43.9881 12.8309 43.7692 12.5885 43.5541 12.4048L43.601 12.4478C43.3352 12.1663 43.0458 11.9121 42.7604 11.6502C42.4164 11.2436 43.0302 11.834 42.8113 11.5016C41.8338 10.7118 41.4194 10.098 40.5475 9.53501C40.3246 9.1714 39.7499 8.74523 39.1087 8.36598C38.4714 7.97892 37.7677 7.63876 37.318 7.32598L37.3454 7.41591C37.0639 7.35726 37.06 7.22824 36.8762 7.1344C36.884 7.19305 37.1265 7.31425 36.9544 7.27516C35.8636 6.82553 34.7102 6.41892 33.5138 6.1335C32.3174 5.84809 31.0702 5.68779 29.8386 5.71125C28.9394 5.74252 29.3616 6.09049 28.2356 6.05922C28.3334 5.99666 28.4311 5.93801 28.5328 5.88719C27.6492 6.08658 26.7538 6.27425 25.8819 6.55185C25.014 6.83335 24.1656 7.18132 23.4188 7.64658C23.497 7.5723 23.4853 7.53711 23.6377 7.46283C23.2546 7.53711 22.4296 8.12358 22.4726 8.19786C22.238 8.33861 22.3827 8.1744 22.2185 8.23305C21.8666 8.38162 21.5147 8.85861 21.2997 8.89771C21.2645 8.90553 21.3662 8.8117 21.417 8.76478C21.2371 8.9329 20.5177 9.4529 20.768 9.39034C20.2245 9.76568 19.8531 10.2505 19.4425 10.575C19.2783 10.8917 18.6371 11.3609 18.688 11.5485C18.5824 11.3921 17.8434 12.3422 17.6792 12.7332C17.7183 12.5885 17.4212 12.9912 17.4564 12.8153C17.1944 13.2102 16.9794 13.5894 17.1006 13.5699C16.4555 14.1994 16.3616 15.1534 15.9159 15.47C15.3803 16.772 14.9971 18.0114 14.7039 19.2234C14.6257 19.1804 14.7078 18.8403 14.8056 18.5197C14.9033 18.1991 15.001 17.8902 14.9033 17.8863C14.5866 19.0475 14.571 19.7473 14.2934 20.889C14.2113 21.1861 14.2504 20.7052 14.2386 20.5958C14.0666 21.7726 13.8555 22.8712 13.8946 23.9308C13.8789 23.9308 13.8672 23.8135 13.8594 23.704C13.8555 23.9112 13.8046 24.1888 13.8868 24.1654L13.875 23.9621C13.9415 23.7979 13.9923 24.009 14.0314 24.2631C14.0744 24.5173 14.1213 24.8105 14.1526 24.83C13.9259 24.4743 14.0862 25.8622 13.7968 25.307C13.8125 25.4439 13.8594 25.6159 13.9102 25.5846C13.9024 25.7879 13.8711 25.8544 13.8046 25.6472C13.875 26.39 13.9376 26.1242 13.9845 26.7928C13.9454 26.7928 13.9219 26.6598 13.8711 26.5934C13.9767 26.9296 14.0588 27.2658 14.1018 27.8328C14.0744 27.8015 14.051 27.8719 14.0314 27.7037C14.1448 28.6773 14.4576 29.3185 14.6101 30.3741C14.3716 30.1043 14.6413 30.7377 14.5123 30.8316C14.5749 31.0153 14.6296 31.1991 14.7 31.3789L14.7078 31.1365C14.8446 31.6213 15.0597 32.024 15.1574 32.4463L14.9815 32.11L15.306 32.9976C15.263 32.8255 15.2278 32.6496 15.1887 32.4737C15.4233 32.9311 15.3412 32.3642 15.5249 33.0054C15.4624 32.8842 15.697 33.4746 15.7126 33.7482C15.8534 33.9594 15.998 34.1744 16.1075 34.5263C16.1075 34.6319 15.9277 34.5224 15.9277 34.5928C16.1388 34.7648 16.4594 35.6484 16.7292 35.8556C16.6549 35.7774 16.5845 35.8087 16.5845 35.8478L16.7683 35.9846C16.8465 36.2075 16.8543 36.2427 16.78 36.2388C17.1123 36.8565 16.8308 35.9573 17.1749 36.7158C17.1358 36.6649 17.1397 36.6962 17.0576 36.5867C17.4368 37.3335 17.9568 37.9239 18.3713 38.569C18.3869 38.8427 17.9451 38.049 17.9998 38.3305C18.3361 38.7762 18.7231 39.2063 19.1141 39.6207C19.3135 39.824 19.5129 40.0273 19.7084 40.2267C19.8022 40.3284 19.9039 40.4222 20.0016 40.5239L20.1228 40.649L20.2128 40.7506L20.1346 40.6451C20.2206 40.6255 20.3105 40.7037 20.3731 40.8015C20.3066 40.9109 20.2284 41.0048 20.1502 41.126C20.0603 41.2746 19.9782 41.4388 19.9391 41.6069C19.9782 41.4779 19.9039 41.4036 19.9078 41.4427C19.5911 42.1034 19.3722 42.8424 19.075 43.9097V43.7612C18.8834 44.1522 18.688 44.8325 18.5511 45.286C18.5668 45.4346 18.5003 45.6926 18.6098 45.5518C18.5628 45.6613 18.5159 45.7669 18.469 45.8685C18.4338 45.9428 18.4221 46.0249 18.3869 46.0758C18.297 46.0562 18.2188 46.0445 18.1367 46.0445H17.9725H17.7613C17.4798 46.0484 17.2101 46.0914 16.9403 46.1227C16.6744 46.1657 16.4086 46.2048 16.1466 46.24C15.8886 46.2869 15.6227 46.3025 15.3568 46.3143C15.5054 46.2713 15.7087 46.197 15.5875 46.2165C15.2317 46.3064 14.8798 46.4237 14.5319 46.541C14.6413 46.5958 14.6843 46.5488 14.9268 46.5606C14.8681 46.6036 14.7665 46.6544 14.6492 46.7052C14.5358 46.7639 14.4028 46.8225 14.2777 46.8655C14.7156 46.6466 14.2308 46.7287 14.008 46.7522C14.051 46.7678 13.9923 46.8186 14.0197 46.8382C13.4254 46.8812 13.9962 47.0337 13.2456 47.2409L13.2612 47.1822C13.1322 47.2526 13.0149 47.3308 12.8937 47.4051C12.7764 47.4872 12.6591 47.5693 12.5183 47.6397C12.3541 47.6123 12.7607 47.4442 12.7412 47.3582C12.5496 47.4715 12.3854 47.6201 12.2212 47.757C12.0531 47.8899 11.8889 48.0111 11.7012 48.0854C11.8341 47.9485 12.0648 47.8117 12.2134 47.6983C11.7677 47.8039 11.7481 47.8703 11.4705 48.0385L11.4979 48.0228L10.8489 48.4099L11.0248 48.3278C10.8723 48.5858 10.6846 48.797 10.4462 48.9885C10.2194 49.1879 9.9457 49.3795 9.76194 49.7197C10.1451 49.0824 9.77758 49.5633 9.73066 49.4382C9.57427 49.5516 9.34751 49.7353 9.37878 49.6532C9.28886 49.8135 9.17548 49.9073 9.04645 50.0168C8.92134 50.1263 8.7845 50.2514 8.68675 50.4977C8.64375 50.4899 8.44826 50.791 8.4248 50.6658C8.15893 51.0451 8.546 50.6228 8.55773 50.6854C8.39352 51.006 8.08465 51.2875 7.80314 51.6472C7.52555 52.0069 7.22841 52.4057 7.0251 52.8749C6.65367 53.6685 6.68886 53.8679 6.38781 54.6147C6.21578 54.8298 6.36044 54.3528 6.36044 54.3528C6.11412 54.7203 5.98119 55.0252 5.85608 55.4201C5.85608 55.3302 5.79743 55.3967 5.70751 55.4944C5.5863 55.8072 5.75051 55.7525 5.53157 56.1356C5.51984 56.0496 5.49638 55.9362 5.51593 55.772C5.39472 56.1473 5.32435 56.5344 5.21878 56.9293C5.12104 57.0075 5.20314 56.6634 5.21878 56.5149C5.08194 56.9528 4.88254 57.6526 4.94119 57.8168L5.0663 57.5509C5.01938 57.7112 4.95292 57.6057 4.97247 57.4806C5.01548 57.0818 5.19141 56.9606 5.23442 56.9528L5.16014 57.2304C5.4651 57.027 5.51984 56.1356 5.76224 55.6039L5.82089 55.8893C5.85217 55.6899 5.89126 55.4905 5.93036 55.2911C6.02029 55.1934 6.13758 55.1543 6.04375 55.4201C6.28615 55.08 6.13758 55.0604 6.37217 54.7828C6.40345 54.7555 6.39954 54.775 6.39172 54.8102L6.52465 54.427C6.52074 54.5131 6.65758 54.4192 6.52465 54.6303C6.92735 54.0282 6.95472 53.5434 7.20104 53.3675L7.18149 53.4261C7.40435 52.9765 7.40044 52.9491 7.36134 52.9335C7.32224 52.9179 7.25578 52.9257 7.40826 52.5699L7.93217 52.3079L7.88916 52.1594C7.94781 52.0773 8.06901 51.9091 8.08856 51.9678C8.23322 51.6003 8.01036 51.9913 8.06901 51.7606C8.44435 51.4204 8.88224 50.6502 9.09337 50.6815C9.13638 50.4821 8.74149 51.006 9.0269 50.5525C9.26931 50.5681 9.4257 50.0833 9.80495 49.8174C9.78149 49.9934 9.44525 50.2592 9.82841 50.0012C9.85969 49.8448 10.0161 49.6845 10.2077 49.5476C10.4031 49.4186 10.6221 49.2935 10.7511 49.1567C10.712 49.098 10.8606 48.9494 11.0756 48.7657C11.3063 48.6015 11.6074 48.4021 11.8576 48.1988C11.8576 48.2144 11.9201 48.1831 12.0218 48.1245C12.1313 48.0737 12.2837 47.9955 12.4519 47.9134C12.62 47.8273 12.8077 47.7374 12.9836 47.6475C13.1674 47.5771 13.3433 47.5107 13.484 47.4598L13.4762 47.4872C13.4997 47.3973 13.6522 47.2956 13.8477 47.19C14.0549 47.1079 14.3012 47.0102 14.5084 46.9242C14.5201 47.0102 14.4537 47.0688 14.2425 47.1861L14.6335 47.0493C14.7117 46.9672 14.829 46.9164 15.0871 46.8303L15.0128 46.9594C15.2786 46.889 15.5328 46.7756 15.826 46.7131C15.9707 46.6779 16.1192 46.6388 16.2795 46.6114C16.4398 46.5919 16.608 46.5801 16.7839 46.5762C16.8191 46.4746 16.1818 46.3612 16.9442 46.2126C16.9755 46.2673 17.0107 46.3494 16.8152 46.3925C16.8777 46.3729 17.0459 46.3299 17.1788 46.3494L16.8816 46.455C17.2101 46.4746 17.0459 46.369 17.3078 46.3651C17.3078 46.4433 17.5033 46.412 17.4681 46.4746C17.4016 46.4863 17.2413 46.455 17.1436 46.4902C17.4368 46.4824 17.7887 46.5371 17.8982 46.5958C17.8865 46.5723 17.8865 46.5488 17.9177 46.5254C17.9529 46.5058 17.9959 46.4902 18.1445 46.4941C18.8052 46.5567 18.5316 46.6114 18.8248 46.6935C18.8443 46.6896 18.8483 46.6427 18.8639 46.5958C18.8561 46.3534 19.0086 45.8451 18.8991 45.8255C18.9382 45.6691 18.9968 45.6496 19.0398 45.5988C19.0516 45.3094 19.3917 44.3046 19.1806 44.5783L19.1532 44.6487C19.1532 44.6487 19.1571 44.6174 19.161 44.6018C19.3331 43.6556 19.8687 42.7564 20.1932 41.8688L20.2284 41.8845C20.2871 41.7125 20.3574 41.5326 20.4278 41.3528C20.5138 41.1416 20.6037 40.9305 20.6819 40.7389C20.4982 40.5591 20.3105 40.3949 20.1971 40.3206C20.0798 40.1994 19.9782 39.9882 20.0603 40.0078C19.7592 39.7028 19.6771 39.7067 19.3331 39.1867C19.6576 39.4761 19.2822 39.0382 19.6537 39.4917C19.3213 39.0421 19.2862 38.917 18.8404 38.5025C19.0437 38.6042 18.684 38.0998 18.512 37.8965C18.5628 38.0177 18.6215 38.135 18.684 38.2523C18.4886 38.0255 18.3595 37.7988 18.2149 37.5798L18.4025 37.6228C17.9021 36.6102 17.0849 36.0237 16.9286 35.1284C16.7096 34.9016 17.1553 35.7031 16.9364 35.5155C16.7018 35.0463 16.6588 34.4637 16.5845 34.3191C16.3773 33.6349 16.1388 33.7834 15.9237 33.0601C15.9159 33.1657 15.8299 33.2947 15.5914 32.7825C15.4428 32.2743 15.5719 32.1061 15.7126 32.4072C15.7556 32.5245 15.7595 32.587 15.7439 32.587C15.8104 32.7434 15.912 32.9428 15.8846 32.7317L15.8182 32.6848C15.783 32.4228 15.5523 31.7425 15.6774 31.8794C15.5249 31.5158 15.5523 31.7425 15.6188 32.0279C15.4859 31.3672 15.3177 31.0231 15.2043 30.3428C15.2043 30.4562 15.177 30.5657 15.1496 30.4601C14.9776 29.4592 14.9698 30.0418 14.8056 29.3732C14.8056 28.9744 14.9893 29.4827 14.8212 28.8102C14.8016 28.3879 14.9268 28.7046 14.9932 28.861C14.7938 28.2589 14.8955 27.6959 14.8642 27.3401L14.9385 27.6607C14.8955 27.4691 14.872 27.3088 14.8642 27.1446L14.786 27.3401C14.786 27.1446 14.7743 26.9843 14.8134 26.9843C14.7391 26.7888 14.6726 27.1485 14.5592 26.7576C14.5788 26.4956 14.4615 25.9678 14.5866 25.874C14.571 26.6911 14.7 25.7801 14.7547 26.4643C14.7274 26.3353 14.7274 26.1711 14.7352 25.9756C14.7469 25.9443 14.7625 26.003 14.7704 26.0538C14.8642 25.2797 14.6022 25.7019 14.6179 24.8965C14.6843 24.9982 14.7508 24.7128 14.7391 24.5798C14.7352 24.9043 14.6218 24.7323 14.571 24.4312C14.6492 23.9152 14.5592 23.8682 14.5827 23.5946L14.5397 23.9034C14.481 23.794 14.4889 23.532 14.5084 23.1723C14.5671 23.1449 14.5123 23.5046 14.5475 23.3756C14.4693 22.9612 14.7547 22.4842 14.7625 21.9212C14.8446 21.6709 14.8955 21.9173 14.958 21.6944C14.9776 21.0649 15.1613 21.0454 15.2317 20.3924C15.0988 20.5567 15.1105 20.5958 15.1301 20.1227C15.0636 20.4785 15.0128 20.8343 14.9737 21.194C14.9737 20.9594 14.9659 20.7209 14.9737 20.4863C14.8994 20.8069 14.8994 21.1783 14.8446 21.366C14.8329 21.0258 14.8446 21.0649 14.743 21.2057C14.958 20.7873 14.8368 20.3103 15.0519 19.8255L15.2708 19.8959C15.564 19.1765 15.5132 18.5314 15.9237 17.6048L15.7713 17.8941C15.7361 17.7377 15.9746 17.3037 16.0684 16.9909C16.1271 17.0496 16.2326 16.8697 16.3343 16.7642C16.2717 16.7524 16.6353 16.0956 16.5454 15.947L16.8347 15.5873C17.2531 14.8914 17.081 14.6607 17.5189 14.0039C17.4681 14.2502 17.6988 13.9765 17.4759 14.4535C17.6128 14.2306 17.7457 14.0391 17.7027 14.0078C17.8278 13.91 18.0155 13.347 18.2188 13.1946C18.2579 13.0851 18.2149 13.0108 18.3947 12.7762C18.426 12.7606 18.426 12.7997 18.426 12.7997C18.3947 12.7762 18.6606 12.397 18.4377 12.5534C18.7857 12.3109 19.1337 11.8691 19.509 11.4586C19.6889 11.2475 19.8804 11.0559 20.0642 10.8878C20.244 10.7158 20.4239 10.5828 20.5881 10.5046C20.7914 10.3052 21.0143 10.0824 21.2528 9.88689C21.4834 9.67967 21.718 9.492 21.9292 9.34343C21.9174 9.38252 21.9487 9.3747 21.8666 9.42553C22.4843 9.06583 22.0973 8.98373 22.8284 8.60448C23.2468 8.48719 22.5 8.8938 22.7424 8.79606C22.8558 8.87425 23.0552 8.72959 23.3054 8.56929C23.5517 8.40117 23.8449 8.19786 24.1265 8.15095L24.017 8.22132C24.4236 8.11185 24.8889 7.68959 25.5379 7.47455C25.5379 7.47455 25.5144 7.50583 25.5457 7.51365C25.9328 7.22433 26.7773 6.92328 27.4185 6.75516C27.2386 6.89982 27.137 6.87245 27.2816 6.94282C27.5671 6.86463 27.1604 6.79816 27.7352 6.64959C27.9346 6.66914 28.3646 6.64959 28.435 6.74343L27.8916 6.84117C28.1926 6.92719 28.5953 6.71215 28.8886 6.71606L28.8573 6.78252C29.2756 6.71997 29.4828 6.66523 29.7057 6.61831C29.9246 6.56749 30.1553 6.51275 30.6128 6.52839L30.5189 6.48147C31.0233 6.3329 30.9373 6.56358 31.4416 6.48538L31.5824 6.64959C31.9108 6.62613 32.7475 6.62222 33.3379 6.71215C33.1619 6.73952 32.9 6.7317 32.6302 6.72388C32.3604 6.72388 32.0789 6.7317 31.8639 6.7317C32.0242 6.75125 32.2979 6.78252 32.552 6.80207C32.8062 6.82553 33.0446 6.8529 33.1346 6.82944C33.0016 6.82162 32.8335 6.82944 32.7123 6.78252C32.9195 6.75907 33.1541 6.75516 33.42 6.7747C33.6859 6.79816 33.9752 6.86072 34.2958 6.93501C34.2019 7.06012 34.6046 7.20087 35.0738 7.35335C35.3045 7.44328 35.5547 7.53711 35.7698 7.63094C35.9809 7.72869 36.1529 7.84207 36.2389 7.93591C37.3337 8.28388 38.2564 8.96809 39.3472 9.71876C39.0931 9.25741 39.6717 9.9338 39.7421 9.70313C40.0001 9.88298 40.094 9.95726 40.1057 9.98463C40.3325 10.2114 40.5319 10.4616 40.7469 10.6962C40.872 10.8917 40.4849 10.5476 40.4732 10.6063C40.9776 11.0559 40.6257 10.8643 40.9111 11.2123C40.8994 11.0872 41.1692 11.2788 41.4233 11.572C41.3216 11.4156 41.2083 11.2709 41.1027 11.1185C41.4976 11.3921 41.6031 11.5798 41.7126 11.7597C41.8221 11.9434 41.9316 12.1194 42.2952 12.4321L42.0371 12.2601C42.4125 12.5807 43.2101 13.6207 43.6362 13.9061C43.6675 13.9921 43.6831 14.1212 43.5385 13.9609C44.211 14.9109 45.1415 16.0487 45.4347 16.9323L45.3409 16.8776C45.4504 17.0652 45.6185 17.1669 45.6732 17.4484C45.6459 17.4484 45.5833 17.3937 45.6224 17.4875C45.6849 17.5852 45.9625 17.9762 46.0368 18.2616C45.986 18.1912 45.9352 18.1248 45.8804 18.0583C46.0603 18.6057 46.2675 18.9928 46.4474 19.372C46.6428 19.7473 46.8227 20.1031 46.9791 20.5645C46.8227 20.6075 46.9947 21.495 47.0651 21.9407L47.0377 21.929C47.3036 23.2309 47.5851 24.1341 47.7415 25.3696C47.7141 25.5651 47.6985 25.827 47.6868 26.1242C47.6828 26.4252 47.6828 26.7654 47.6672 27.1173C47.6672 27.4731 47.6477 27.8406 47.6164 28.1964C47.5968 28.5521 47.5421 28.8962 47.4874 29.1973C47.5382 29.0135 47.6164 29.2403 47.6125 29.4631C47.5421 29.7446 47.6164 30.2764 47.4678 30.206L47.4834 30.1043C47.3075 30.2998 47.2371 30.8863 47.1472 31.3398L47.331 31.4571C47.0495 32.0201 46.8892 32.7943 46.6819 33.4941C46.5881 33.846 46.4865 34.1783 46.3731 34.452C46.2675 34.7296 46.1502 34.9485 46.0212 35.0737C45.9547 35.363 45.8101 35.6953 45.724 35.9768L45.6302 35.9143C45.4465 36.274 45.294 36.5359 45.1298 36.8213C44.9773 37.1106 44.7935 37.4078 44.5433 37.8418L44.5824 37.6267C44.2813 38.0959 44.4651 38.397 44.168 38.8349L43.9412 38.8622C43.3586 39.6637 42.604 40.3167 42.0059 41.0908C42.0019 41.0634 41.9863 41.0087 42.0958 40.8914C41.9355 41.0595 41.5836 41.3332 41.3099 41.5795C41.0323 41.818 40.8212 42.0174 40.958 42.0565C40.8603 41.9549 40.1565 42.6703 39.7304 43.0066L39.7421 42.8697C39.441 43.2294 39.4528 43.2803 38.9171 43.6204C38.7803 43.683 38.7607 43.6087 38.9484 43.5344C38.491 43.7299 38.6552 43.812 38.0883 44.0309L38.2603 43.8667C37.7989 44.0896 37.8498 44.0974 37.623 44.2851C37.3454 44.4649 36.7042 44.6213 36.6025 44.5509C36.5595 44.6331 36.3171 44.8051 36.0161 44.8559C35.9653 44.8325 36.0669 44.7777 36.1138 44.7503C35.9027 44.7934 35.7228 44.8442 35.5665 44.8989C35.4062 44.9458 35.2615 44.9928 35.1246 45.0397C34.8549 45.1374 34.6086 45.2078 34.3075 45.2C34.288 45.1648 34.2489 45.157 34.198 45.1531C34.8705 45.0592 35.3944 44.9028 35.3514 44.9341C35.324 44.8364 34.7962 44.9419 35.1833 44.7113C34.7845 44.8911 34.0768 45.1882 33.5373 45.2039C33.5099 45.1961 33.4865 45.1922 33.463 45.1765L33.5177 45.157C33.3965 45.1648 33.2871 45.1804 33.1854 45.2078C33.0173 45.2078 32.9078 45.2 32.7436 45.2078C32.6771 45.1335 32.1219 45.1922 31.8522 45.1843C31.8756 45.2977 31.5159 45.2743 31.8522 45.3681C31.8092 45.3603 31.903 45.3564 32.0868 45.3485C32.1259 45.3485 32.1767 45.3446 32.204 45.3368C32.2001 45.3368 32.1923 45.3446 32.1845 45.3485C32.3643 45.3368 32.5989 45.3329 32.8609 45.3094C32.6498 45.3798 32.423 45.4385 32.118 45.3837C31.9773 45.4541 31.8209 45.5323 31.7349 45.5636C31.3556 45.415 30.644 45.2782 30.5541 45.1726C29.7213 45.1648 28.6227 44.9185 28.0636 44.9732C27.8446 44.938 27.7665 44.8285 27.6453 44.7582C27.743 44.7816 27.8486 44.8051 27.9463 44.8246C28.0128 44.8364 28.0714 44.8481 28.1105 44.8442C28.048 44.8325 27.9932 44.8246 27.9072 44.8051C27.8016 44.7777 27.6883 44.7503 27.5749 44.7191C27.4615 44.6878 27.3481 44.6565 27.2347 44.6252L27.0666 44.5783C27.0666 44.5783 27.051 44.5744 27.0471 44.5744V44.5979L27.0314 44.6409L27.008 44.7269C26.8907 45.1843 26.8086 45.5675 26.8711 45.6066C26.6365 46.1735 26.8398 45.2391 26.6248 46.0523L26.6131 45.9311C26.4606 46.2673 26.355 46.5879 26.2768 46.8968C26.2338 47.0845 26.1908 47.2722 26.1478 47.452C26.1009 47.6788 26.0422 47.9016 26.0188 48.0971C26.3277 48.1558 26.617 48.2027 26.875 48.2691C27.0783 48.3122 27.2621 48.3591 27.4615 48.4216C27.8564 48.5467 28.263 48.7344 28.6813 49.0198C28.5758 48.9534 28.521 48.9182 28.5093 48.8869C29.4203 49.3717 30.3547 49.8761 31.2188 50.4821C32.0868 51.0881 32.8609 51.8114 33.4395 52.6559C33.7836 53.1212 33.8853 53.1212 34.1668 53.3518L34.1511 53.5239L34.6281 53.9227C35.2302 54.5561 35.281 55.2911 36.0434 56.0887L36.0317 55.9284C36.2389 56.2607 36.755 56.941 36.6416 56.9371C36.6768 56.9645 36.7824 56.9997 36.8293 57.1521L36.7824 57.1952L37.3806 57.9576C37.7286 58.6222 37.1147 57.9849 37.6582 58.9233C37.8849 59.2595 38.3854 59.8343 38.3463 59.6818C38.272 59.5371 38.1743 59.2986 38.2251 59.2595L38.4362 59.5684C38.6278 59.541 38.9367 59.7013 38.5887 58.8334L38.1704 58.3368L38.1391 58.114L38.4206 58.5753C38.3385 58.2664 38.1743 58.1374 38.0179 57.9771C38.0335 57.9067 38.014 57.8129 37.9631 57.6956L37.4862 57.2499C37.5057 57.1482 37.7559 57.4141 37.5643 57.0349C37.3376 56.8276 37.58 57.3594 37.275 56.9723C37.1812 56.6712 37.2828 56.7103 37.0326 56.4445C37.0443 56.378 37.1108 56.4249 37.2046 56.5344C36.9857 56.292 36.7198 55.8346 36.5478 55.7525C36.454 55.4279 35.9144 54.8728 36.0747 54.8024C35.9809 54.7437 35.6407 54.4153 35.457 54.1846C35.9457 54.4974 34.808 53.2893 35.066 53.2737C34.6789 53.0664 34.1081 52.1828 33.5373 51.7215C33.5764 51.741 33.6507 51.7801 33.6898 51.8309C33.42 51.5221 33.3809 51.397 33.2245 51.1819C33.072 51.2601 32.6028 50.834 32.2744 50.701C31.989 50.271 32.6224 50.7558 32.595 50.5485C32.5325 50.658 31.8443 50.0872 31.9108 50.2788C31.6606 49.9816 31.6762 50.0481 31.5941 49.8291C31.4299 49.9425 31.2892 49.6454 30.9568 49.5711C30.5502 49.1879 30.9373 49.3404 30.3899 49.0746C30.171 48.8752 30.6714 49.0941 30.6714 49.0941L30.6988 49.1293ZM33.7953 45.892C33.6741 45.9116 33.5686 45.9272 33.5021 45.935C33.5646 45.9272 33.6468 45.9116 33.7914 45.892H33.7953ZM34.9761 45.6926C34.8353 45.7278 34.6516 45.7473 34.4639 45.7825C34.417 45.7513 34.4561 45.7043 34.5734 45.6887C34.5147 45.72 34.7962 45.7043 34.9761 45.6926ZM32.4386 45.2391C32.6185 45.2156 32.6771 45.2391 32.7045 45.2547C32.6185 45.2625 32.5207 45.2703 32.3917 45.2821C32.3878 45.2821 32.3761 45.2938 32.3722 45.2977C32.3878 45.2743 32.4074 45.2547 32.4425 45.2391H32.4386Z" fill="#1B1B1B"/>
<path d="M32.1143 45.3876C32.087 45.3876 32.0752 45.3954 32.04 45.3954C32.0791 45.4032 32.1143 45.411 32.1495 45.4189C32.173 45.4071 32.1925 45.3954 32.2121 45.3837C32.1808 45.3837 32.1456 45.3837 32.1143 45.3837V45.3876Z" fill="#1B1B1B"/>
<path d="M19.2002 44.59L19.208 44.5665C19.208 44.5665 19.1885 44.6017 19.1768 44.6095C19.1846 44.5939 19.1885 44.5978 19.1963 44.5861L19.2002 44.59Z" fill="#1B1B1B"/>
<path d="M47.0494 35.2848L47.022 35.277L47.0024 35.3825L47.0494 35.2848Z" fill="#1B1B1B"/>
<path d="M14.0079 46.756C14.0079 46.756 13.9649 46.7482 13.918 46.756C13.9258 46.7599 13.961 46.756 14.0079 46.756Z" fill="#1B1B1B"/>
<path d="M11.4744 48.0424L11.1226 48.2418C11.2789 48.1597 11.3884 48.0971 11.4744 48.0424Z" fill="#1B1B1B"/>
<path d="M9.73829 49.3756C9.73047 49.4108 9.73829 49.4264 9.73829 49.4421L9.73047 49.3756H9.73829Z" fill="#1B1B1B"/>
<path d="M13.8595 23.7118C13.8595 23.6805 13.8595 23.6531 13.8595 23.6258C13.8477 23.4264 13.8516 23.5632 13.8595 23.7118Z" fill="#1B1B1B"/>
<path d="M15.7126 33.756C15.6539 33.6622 15.5992 33.5683 15.5483 33.4667C15.607 33.6387 15.6539 33.7755 15.7126 33.756Z" fill="#1B1B1B"/>
<path d="M17.4526 12.8193C17.4526 12.8193 17.48 12.7841 17.4956 12.7645L17.4526 12.8193Z" fill="#1B1B1B"/>
<path d="M15.3804 33.0171C15.4234 33.1969 15.482 33.3377 15.5485 33.4628C15.5016 33.3181 15.4507 33.15 15.3804 33.0171Z" fill="#1B1B1B"/>
<path d="M8.75726 51.1897L8.28418 51.7292C8.39756 51.6589 8.54222 51.5611 8.35456 51.8231C9.0114 51.1936 8.15907 51.9091 8.75726 51.1897Z" fill="#1B1B1B"/>
<path d="M10.2939 49.5984C10.028 49.8721 10.3369 49.6375 10.3408 49.6727C10.4972 49.489 10.5363 49.4421 10.2939 49.5984Z" fill="#1B1B1B"/>
<path d="M19.9978 39.8709L20.0955 39.8318C19.8883 39.6207 20.0642 39.8553 19.9978 39.8709Z" fill="#1B1B1B"/>
<path d="M17.687 37.7401L17.8043 38.0216L17.9607 38.0842L17.687 37.7401Z" fill="#1B1B1B"/>
<path d="M17.3547 35.8125L17.4289 35.9181C17.3351 35.7813 17.2569 35.6405 17.167 35.5037L17.3547 35.8125Z" fill="#1B1B1B"/>
<path d="M20.2401 11.0325L20.0916 11.009C19.9665 11.1654 20.0368 11.2905 20.2401 11.0325Z" fill="#1B1B1B"/>
<path d="M30.5269 6.61835C30.652 6.68482 30.9726 6.71609 31.1759 6.67309C30.9178 6.64572 30.6598 6.60662 30.5269 6.61835Z" fill="#1B1B1B"/>
<path d="M47.0728 32.0123L47.0845 31.7777L47.022 32.2117L47.0728 32.0123Z" fill="#1B1B1B"/>
<path d="M2.67334 64.4986C2.67334 64.4986 3.45529 56.6791 6.97409 52.7693C10.4929 48.8595 12.8388 46.1227 16.3576 46.1227C16.3576 46.1227 14.0586 49.8917 21.4403 50.8144C27.6959 51.5964 26.9139 48.0776 26.9139 48.0776C28.2394 48.75 31.8637 50.4938 33.1696 51.9873C35.9064 55.1152 38.2523 59.4159 38.2523 59.4159" fill="#FF4D57"/>
<path d="M33.5723 52.2532L33.5957 52.3001C33.5957 52.3001 33.584 52.2688 33.5723 52.2532Z" fill="#1B1B1B"/>
<path d="M29.5922 49.2543C29.6274 49.27 29.6469 49.27 29.6508 49.2622C29.6156 49.2504 29.5883 49.2426 29.5922 49.2543Z" fill="#1B1B1B"/>
<path d="M28.8926 48.7578C28.8926 48.7578 28.9199 48.7774 28.9356 48.7891C28.9239 48.7735 28.9082 48.7578 28.8926 48.7578Z" fill="#1B1B1B"/>
<path d="M33.5724 52.2532L33.5099 52.132C33.4786 52.1437 33.5372 52.1984 33.5724 52.2532Z" fill="#1B1B1B"/>
<path d="M34.2725 52.9608C34.2725 52.9608 34.2842 52.9413 34.2842 52.9296C34.2764 52.9374 34.2725 52.9452 34.2725 52.9608Z" fill="#1B1B1B"/>
<path d="M27.3716 47.8625C27.3716 47.8625 27.3794 47.8665 27.3833 47.8704C27.4498 47.8938 27.4146 47.8782 27.3716 47.8625Z" fill="#1B1B1B"/>
<path d="M16.3966 47.7765C16.3575 47.929 16.2481 47.5654 16.2207 47.7921C16.2481 47.7687 16.3927 47.9563 16.3966 47.7765Z" fill="#1B1B1B"/>
<path d="M25.3579 50.1967C25.3579 50.1967 25.3853 50.2123 25.4009 50.2123C25.397 50.2045 25.3853 50.2006 25.3579 50.1967Z" fill="#1B1B1B"/>
<path d="M24.1383 50.6267C24.1031 50.6267 24.0914 50.615 24.0444 50.6267C24.0483 50.6267 24.0523 50.6345 24.0601 50.6345C24.0757 50.6228 24.0992 50.615 24.1383 50.6228V50.6267Z" fill="#1B1B1B"/>
<path d="M22.7422 50.6815C22.7422 50.6815 22.7578 50.6932 22.7656 50.6972C22.7813 50.6972 22.7969 50.6972 22.8087 50.6932L22.7383 50.6815H22.7422Z" fill="#1B1B1B"/>
<path d="M24.1618 51.2797L23.9194 51.2875C23.9859 51.2875 24.0758 51.2875 24.1618 51.2797Z" fill="#1B1B1B"/>
<path d="M9.89114 50.0872L9.86377 50.1302C9.86377 50.1302 9.89114 50.1028 9.89114 50.0872Z" fill="#1B1B1B"/>
<path d="M23.2116 51.3344C23.1686 51.3031 23.1256 51.2875 23.0786 51.2758C23.0708 51.2836 23.0591 51.2875 23.0513 51.2953L23.2116 51.3305V51.3344Z" fill="#1B1B1B"/>
<path d="M4.02243 59.9711C4.08108 59.7639 3.94815 59.846 3.90123 59.7873C3.94033 59.5332 4.0107 59.6935 4.08499 59.6231C4.10063 59.4628 4.03416 59.3143 4.07326 59.2009C4.09281 59.2009 4.10454 59.1774 4.12018 59.2087C4.0889 59.021 4.26875 58.7278 4.22183 58.5049C4.23356 58.4932 4.24529 58.4893 4.25311 58.4893C4.19055 58.5049 4.13973 58.4893 4.10454 58.4737C4.13191 58.3798 4.09281 58.2821 4.17101 58.2664C4.15146 58.3212 4.17492 58.3368 4.19055 58.3681V58.2625C4.31567 58.2078 4.18273 58.4072 4.25702 58.4307C4.28048 58.2313 4.2883 57.9888 4.36258 57.8559C4.46815 57.8559 4.27657 58.2 4.42514 58.0397L4.31176 58.2469C4.51898 58.1296 4.25311 58.3759 4.46815 58.2782C4.59717 58.0006 4.53461 57.938 4.66755 57.6604C4.64018 57.5783 4.58153 57.6526 4.55416 57.5705C4.6089 57.1209 4.90995 57.3398 4.90604 56.9958C4.87476 56.8941 4.77311 56.8159 4.92168 56.6322L4.99597 56.7494C5.12108 56.4797 4.90604 56.5266 5.10544 56.2725C5.12108 56.3389 5.0468 56.4992 5.07416 56.464C5.23446 56.3155 5.07416 56.3076 5.14063 56.1669L5.24619 56.1786C5.37131 55.8932 5.44168 55.5374 5.59807 55.2246C5.61371 55.2559 5.61371 55.3224 5.68018 55.2637C5.76619 55.0604 5.88349 54.8571 6.0086 54.6655C6.13762 54.4701 6.29792 54.3058 6.43477 54.1455L6.45431 53.9618C6.47777 53.9305 6.52469 53.9266 6.51687 53.9696C6.63416 53.8523 6.47777 53.9305 6.49341 53.8445C6.54033 53.7624 6.60289 53.7702 6.59116 53.8367C6.69672 53.563 6.97822 53.0977 7.24018 52.9218L7.21672 52.9843C7.40439 52.828 7.26755 52.6637 7.47867 52.5464L7.46304 52.5894C7.84619 52.2219 8.17853 51.7332 8.54213 51.5221C8.50304 51.3813 8.93702 51.1741 8.83146 51.0334C9.09732 50.8692 9.06213 50.9513 9.39446 50.6854C9.47657 50.6072 9.42965 50.4899 9.51176 50.3726L9.57822 50.4313L9.64078 50.2279H9.78935L9.86364 50.1224C9.82454 50.1576 9.75807 50.1732 9.74243 50.1498C9.85582 49.9738 10.1334 49.837 10.1725 49.8682C10.2663 49.7353 10.3641 49.6063 10.4618 49.4773C10.4814 49.5125 10.4306 49.575 10.4032 49.6376C10.5205 49.3913 10.5048 49.6728 10.6104 49.4499C10.5752 49.4577 10.5869 49.3991 10.5752 49.3834C10.6964 49.3404 10.888 49.1567 11.017 49.0081L11.0327 49.0785C11.3024 48.8478 11.5683 48.5585 11.8733 48.3082C11.7481 48.3786 11.7012 48.2731 11.7872 48.191L11.8811 48.234C11.9045 48.1401 11.7638 48.2809 11.8381 48.1284C11.9632 48.0463 11.9827 48.1558 11.9358 48.2301L12.057 48.0971C12.0844 48.1128 12.057 48.1519 12.0727 48.187C12.0961 48.0971 12.3737 48.0776 12.3972 47.9329L12.4206 47.9485C12.7412 47.7335 12.8663 47.5967 13.1361 47.4403C13.1009 47.366 13.2182 47.323 13.2651 47.2174C13.4802 47.1158 13.746 47.0806 13.9924 46.9516C14.1566 46.8421 14.0197 46.8655 14.0823 46.7873C14.1253 46.8538 14.3833 46.7522 14.266 46.8499C14.5749 46.7287 14.6609 46.6935 15.0558 46.5371C15.005 46.5176 14.9503 46.5176 14.9698 46.4863C15.0441 46.455 15.1457 46.4707 15.1457 46.5137L15.1262 46.5254C15.22 46.4863 15.3295 46.4667 15.4429 46.4589C15.4976 46.455 15.5602 46.4511 15.6071 46.4511C15.6384 46.4511 15.6618 46.4589 15.6775 46.4707C15.7478 46.5137 15.7478 46.5488 15.7596 46.5567C15.7596 46.5606 15.7713 46.5645 15.7948 46.5645H15.7869C15.8065 46.5762 15.8221 46.6153 15.8339 46.674C15.8339 46.6622 15.826 46.6896 15.8221 46.6974C15.8182 46.7091 15.8143 46.7131 15.8104 46.7092C15.8026 46.7092 15.7987 46.6896 15.7948 46.6661C15.7791 46.6544 15.7557 46.6583 15.7322 46.6427C15.7322 47.147 15.5993 47.4364 15.7361 47.8469C15.7009 47.9329 15.697 48.0541 15.7205 48.187C15.7439 48.32 15.8221 48.4529 15.8886 48.5937C15.9472 48.7383 16.0645 48.8478 16.1388 48.9729C16.2209 49.0941 16.2874 49.2114 16.346 49.3052L16.3656 49.2544C16.4829 49.2974 16.4399 49.3678 16.4907 49.4343C16.5103 49.3952 16.436 49.317 16.5063 49.3443C17.2062 49.9425 18.0155 50.443 18.86 50.7675C19.1689 50.877 19.1142 50.5564 19.4739 50.7792L19.337 50.8457C19.9939 50.9122 20.639 51.1233 21.2763 51.1233C21.2372 51.1389 21.2333 51.1663 21.1707 51.1585C21.2919 51.2562 21.6633 51.221 21.6712 51.1624C21.7689 51.178 21.6868 51.2171 21.7454 51.2523C21.8745 51.307 22.0895 51.1937 22.156 51.268C22.1677 51.2797 22.1169 51.2875 22.0934 51.2914C22.1833 51.264 22.5 51.3383 22.4218 51.2484C22.6564 51.3031 22.8793 51.221 23.0709 51.2719C23.196 51.1819 23.4814 51.3227 23.5166 51.1858C23.5048 51.3188 23.9506 51.2562 24.0952 51.1819C24.0483 51.2249 24.2321 51.2132 24.1812 51.2719C24.3572 51.264 24.5136 51.1898 24.4706 51.1311C24.6465 51.178 24.8029 51.1116 24.9397 51.0568C25.0766 51.0021 25.19 50.9278 25.3151 50.9943C25.8116 50.7675 26.2339 50.443 26.5506 50.0598C26.5897 50.1067 26.5075 50.2319 26.402 50.3101C26.3003 50.3961 26.1987 50.4782 26.2495 50.529C26.3394 50.443 26.4137 50.3609 26.4802 50.2866C26.5427 50.2006 26.5897 50.1146 26.6444 50.0364C26.7539 49.88 26.8281 49.704 26.9572 49.5085C27.0197 49.403 26.9885 49.6024 26.9767 49.6454C27.0666 49.4147 27.1488 49.1958 27.1996 48.9729C27.2152 48.926 27.2191 48.8478 27.2269 48.8204V48.7657C27.2269 48.7305 27.2191 48.6914 27.1996 48.6328C27.2113 48.6484 27.223 48.6758 27.2348 48.6992C27.2309 48.6679 27.2504 48.6679 27.1918 48.5937L27.2074 48.6406C27.1605 48.6171 27.1136 48.5155 27.0588 48.3747C27.0432 48.3317 27.0119 48.2574 27.0119 48.2418C27.0197 48.2301 27.0236 48.2183 27.0197 48.2066C27.0979 48.4412 27.2778 48.3864 27.2973 48.6367C27.3051 48.6288 27.313 48.6015 27.2973 48.5467C27.3364 48.578 27.3403 48.6093 27.3325 48.6562C27.4029 48.6562 27.3794 48.5741 27.4928 48.6328C27.4733 48.6562 27.4537 48.6562 27.4342 48.6875C27.4498 48.664 27.5319 48.6719 27.6023 48.6875C27.6727 48.7031 27.7509 48.7344 27.8369 48.7892C27.8173 48.8009 27.8291 48.8322 27.7743 48.8009C28.091 48.9534 28.3725 48.9377 28.6892 49.1645C28.5289 49.2231 28.783 49.2622 28.7518 49.3678L28.9472 49.4343L28.9003 49.3482C29.0606 49.4343 29.2366 49.4421 29.3539 49.5476L29.2131 49.5242L29.5181 49.6689L29.3695 49.5398C29.5572 49.5789 29.4203 49.4069 29.6158 49.5516C29.5689 49.5359 29.7722 49.6415 29.823 49.7431C29.9169 49.7549 30.0185 49.7705 30.1202 49.8604C30.1319 49.9073 30.0342 49.9504 30.042 49.9816C30.1632 49.9464 30.4212 50.1693 30.562 50.1458C30.519 50.1458 30.4877 50.1928 30.4916 50.2123L30.5933 50.1888C30.6519 50.2514 30.6558 50.267 30.6206 50.3022C30.8279 50.443 30.6245 50.1419 30.8474 50.3492C30.8239 50.3413 30.8278 50.357 30.7809 50.3413C31.0155 50.5251 31.297 50.6072 31.5003 50.7949C31.5042 50.9317 31.2892 50.6815 31.3127 50.8105C31.645 51.0138 32.0633 51.1624 32.337 51.4282L32.2901 51.3735C32.4309 51.2875 32.4621 51.6081 32.6498 51.6824C32.6068 51.6589 32.5481 51.7058 32.5677 51.7019C32.7436 51.8896 32.9665 52.0225 33.2636 52.304L33.2011 52.2923C33.2754 52.4331 33.4513 52.6168 33.5412 52.7576C33.6038 52.7693 33.6585 52.8514 33.6663 52.7693C33.8149 53.3089 34.374 53.4652 34.4991 53.9461C34.4639 53.9031 34.3936 53.864 34.417 53.8992L34.679 54.1925C34.7142 54.126 34.679 54.126 34.679 54.0282C34.7415 54.0439 34.8315 54.1143 34.8901 54.1925C34.7494 54.0752 34.8041 54.2589 34.8158 54.341C34.8236 54.3176 34.8588 54.3254 34.8706 54.3098C34.894 54.5443 35.0035 54.255 35.1012 54.5326L35.0621 54.5404C35.1364 54.6147 35.2303 54.6655 35.2889 54.7633C35.2537 54.8454 35.1951 54.6929 35.1364 54.7242C35.2303 54.8493 35.4375 54.8923 35.457 55.0565C35.4023 55.0135 35.3436 54.9353 35.2889 54.8923C35.3045 55.0722 35.3319 55.0722 35.3866 55.1777V55.166L35.5 55.4084L35.4805 55.338C35.7581 55.3849 35.7385 55.6469 35.9966 55.7955C35.7463 55.6508 35.9106 55.7994 35.8285 55.8346C35.8441 55.9049 35.8793 56.0066 35.8441 55.9949C35.9731 56.0613 35.9106 56.2021 36.0982 56.292C36.0787 56.3155 36.1686 56.4054 36.0943 56.421C36.2038 56.5461 36.1139 56.3624 36.153 56.3546C36.3719 56.5149 36.3758 56.9137 36.6808 57.1522C36.8919 57.3867 37.0053 57.3867 37.2008 57.6096C37.2125 57.7191 37.0718 57.594 37.0718 57.594C37.1187 57.7504 37.1851 57.8481 37.2907 57.9576C37.2555 57.9458 37.2516 57.981 37.2477 58.0358C37.3142 58.1335 37.3767 58.0514 37.4236 58.2078C37.3806 58.2 37.322 58.1961 37.2633 58.1648C37.3572 58.2704 37.4745 58.3642 37.5722 58.4776C37.5488 58.5362 37.4627 58.4385 37.408 58.4111C37.5097 58.5401 37.6621 58.7552 37.756 58.7591L37.7286 58.6535C37.7638 58.7043 37.6856 58.7161 37.6504 58.6848C37.5253 58.5949 37.5722 58.4971 37.5918 58.4737L37.6582 58.5558C37.7481 58.3798 37.4236 58.2078 37.322 58.024L37.4706 58.0358L37.2751 57.9028C37.2751 57.8481 37.322 57.7855 37.3885 57.8637C37.3611 57.7034 37.2829 57.7738 37.2712 57.6291C37.2712 57.6096 37.279 57.6135 37.2907 57.6213L37.1812 57.5158C37.2164 57.5275 37.2438 57.4493 37.2751 57.5353C37.1969 57.2734 36.974 57.2225 36.9975 57.0896L37.017 57.1052C36.7863 56.8159 36.9232 57.1209 36.6886 56.9449L36.7746 56.6713L36.6808 56.6908C36.6612 56.6556 36.63 56.5892 36.6651 56.5813C36.5361 56.4953 36.6456 56.6243 36.5518 56.5813C36.5244 56.3819 36.2468 56.1825 36.3445 56.0692C36.2507 56.0535 36.3954 56.2412 36.2507 56.1082C36.3485 55.9792 36.106 55.9362 36.0709 55.7564C36.1647 55.7564 36.2155 55.9089 36.1842 55.7329C36.02 55.7212 36.0279 55.4475 35.9262 55.3458C35.8324 55.4006 35.719 55.1191 35.5548 54.947C35.5939 54.9392 35.3475 54.5522 35.2537 54.3488H35.2733C35.1599 54.3723 35.0426 54.1768 34.9292 54.0595C34.9839 54.0283 35.023 54.0361 35.0973 54.0908L35.0035 53.9657C34.9527 53.9579 34.9097 53.9266 34.8432 53.8562L34.9292 53.8406C34.8041 53.6764 34.6047 53.5669 34.4874 53.3206C34.4209 53.3558 34.4483 53.6138 34.2411 53.4222C34.2684 53.391 34.3154 53.3401 34.374 53.387C34.3545 53.3714 34.2958 53.3401 34.2802 53.2893L34.4014 53.3362C34.3506 53.2228 34.3193 53.3206 34.2645 53.2424C34.3115 53.2072 34.2528 53.1603 34.2997 53.1446C34.3193 53.1603 34.331 53.2267 34.374 53.2424C34.3154 53.1485 34.2606 53.0234 34.2684 52.9648C34.2489 52.9922 34.2059 53.0117 34.1512 52.957C34.0182 52.8006 34.1629 52.8592 34.1082 52.7458C34.0456 52.7302 33.9948 52.6012 33.9244 52.6559C33.8853 52.609 33.9127 52.5738 33.9166 52.5425C33.8227 52.48 33.5842 52.1672 33.596 52.3158L33.6077 52.3392L33.5921 52.3275C33.4474 52.2219 33.3379 52.0773 33.2363 51.9248C33.119 51.784 33.0173 51.6198 32.8688 51.5221L32.8883 51.5025C32.7124 51.3813 32.5208 51.2093 32.3644 51.1663C32.3175 51.1272 32.2823 51.0334 32.3253 51.0216C32.1845 50.9434 32.1494 50.9591 31.993 50.7831C32.1533 50.8379 31.9734 50.7128 32.1494 50.8496C31.9969 50.7049 31.9851 50.6385 31.7545 50.5798C31.86 50.5603 31.6763 50.4156 31.5824 50.3765L31.6724 50.5016C31.5746 50.4469 31.5003 50.3882 31.4182 50.3296L31.516 50.2749C31.2227 49.9425 30.7614 50.0364 30.5894 49.704C30.4603 49.704 30.7614 49.8643 30.6363 49.88C30.476 49.7705 30.3704 49.5476 30.3196 49.5164C30.1163 49.3365 30.0342 49.5164 29.8074 49.3482C29.823 49.3952 29.8074 49.4929 29.608 49.4225C29.4438 49.317 29.4712 49.1801 29.5924 49.2153C29.6354 49.2349 29.651 49.2544 29.6432 49.2661C29.7057 49.2857 29.7839 49.3131 29.7331 49.2427L29.694 49.2622C29.6275 49.184 29.3891 49.0589 29.4712 49.0394C29.3265 48.9964 29.3891 49.0589 29.4751 49.1293C29.2796 48.9651 29.1349 48.9416 28.9238 48.7931C28.9512 48.8282 28.9629 48.883 28.9277 48.8634C28.6149 48.6484 28.7518 48.8439 28.5172 48.7422C28.4155 48.6288 28.6227 48.6523 28.3725 48.5741C28.2513 48.4725 28.3842 48.4764 28.4546 48.4803C28.2161 48.4334 28.0871 48.2418 27.9737 48.1714L28.0949 48.2027C28.0206 48.1831 27.9698 48.1558 27.9151 48.1284L27.9463 48.2222C27.8877 48.1792 27.833 48.1519 27.8486 48.1245C27.7626 48.1323 27.8486 48.2535 27.6883 48.2418C27.5749 48.144 27.3169 48.0971 27.2621 47.9681C27.4733 48.0893 27.4615 48.0619 27.4459 48.0189C27.4303 47.9798 27.3951 47.9212 27.6023 48.0189C27.5202 47.9916 27.4303 47.9446 27.313 47.8704C27.2934 47.8508 27.3286 47.8547 27.3599 47.8704C26.8633 47.5263 27.1605 47.886 26.7343 47.667C26.7421 47.6397 26.6952 47.5928 26.6366 47.5419C26.5779 47.495 26.4958 47.4403 26.488 47.4481C26.5545 47.4716 26.6209 47.538 26.6131 47.5615C26.617 47.581 26.6014 47.5849 26.5975 47.6045C26.5975 47.6279 26.5936 47.6475 26.5779 47.667C26.5701 47.667 26.5623 47.6592 26.5623 47.6592C26.5701 47.9446 26.6639 48.0971 26.6718 48.2457C26.6718 48.187 26.6718 48.1284 26.6718 48.0698C26.746 48.2105 26.746 48.3434 26.7734 48.5507C26.7343 48.5507 26.7304 48.3473 26.7187 48.4099C26.7812 48.5624 26.7421 48.6562 26.6991 48.7696C26.6679 48.8478 26.6053 48.9221 26.6131 49.0198C26.5584 49.0902 26.5193 49.0003 26.4763 49.0589C26.4567 49.2622 26.3433 49.227 26.2808 49.4147C26.3707 49.403 26.3629 49.3795 26.3433 49.5476C26.3863 49.4343 26.4489 49.3404 26.4685 49.2231C26.4763 49.3052 26.4685 49.3873 26.4528 49.4695C26.5193 49.3795 26.5193 49.2466 26.5545 49.1919C26.5662 49.3131 26.5545 49.3013 26.6248 49.274C26.4802 49.3717 26.531 49.575 26.3746 49.6845L26.2417 49.575C26.1244 49.6376 26.0814 49.7392 26.0071 49.837C25.925 49.923 25.8507 50.0481 25.6865 50.1107C25.7217 50.0989 25.7647 50.0989 25.796 50.0794C25.796 50.1654 25.6122 50.1889 25.5301 50.267C25.5145 50.2123 25.4441 50.224 25.3854 50.2123C25.4128 50.2592 25.1509 50.2983 25.1626 50.4156L24.9906 50.3961C24.7208 50.4625 24.7169 50.6307 24.4354 50.6776C24.5057 50.5994 24.3767 50.5837 24.5487 50.5016C24.4588 50.5212 24.3767 50.5251 24.3806 50.5642C24.3259 50.5446 24.1382 50.6893 24.0444 50.6346C24.0092 50.6619 24.0014 50.7245 23.8958 50.7284C23.8841 50.7167 23.8958 50.701 23.8958 50.701C23.8958 50.7284 23.7316 50.7558 23.8333 50.8105C23.5322 50.6737 23.0122 50.8496 22.7581 50.6932C22.5509 50.7206 22.3006 50.7088 22.1091 50.6932C22.1208 50.6776 22.1091 50.6658 22.1481 50.6737C21.894 50.5955 21.9722 50.8261 21.6829 50.7401C21.5421 50.6346 21.8471 50.7049 21.7533 50.6619C21.7337 50.4704 21.3936 50.6619 21.2098 50.5094H21.2606C21.1199 50.4195 20.8853 50.5173 20.639 50.4664C20.639 50.4664 20.6546 50.4508 20.6468 50.4391C20.463 50.5094 20.1346 50.4938 19.8961 50.4547C19.986 50.4 20.0095 50.443 19.9821 50.357C19.8766 50.3413 19.986 50.4821 19.771 50.4508C19.7124 50.3961 19.5716 50.3218 19.5716 50.2397L19.7671 50.2827C19.6928 50.1576 19.513 50.224 19.4152 50.181L19.4387 50.1419C19.1337 50.0872 19.1024 50.1889 18.7897 50.0716L18.8092 50.1146C18.5981 50.1615 18.688 50.0051 18.4886 50.0207L18.4808 49.8956C18.3557 49.8956 18.0585 49.837 17.8513 49.7588C18.0038 49.7314 18.2345 49.8174 18.3987 49.8174C18.2853 49.7822 18.0429 49.6571 17.9608 49.6845C18.0077 49.6962 18.0742 49.6962 18.1054 49.7314C17.9412 49.747 17.7418 49.7079 17.5385 49.5946C17.6128 49.5085 17.4994 49.4108 17.3587 49.3052C17.2883 49.2544 17.214 49.1958 17.1554 49.141C17.1006 49.0824 17.0694 49.012 17.0694 48.9534C16.9872 48.9025 16.913 48.84 16.8426 48.7735C16.7683 48.707 16.7331 48.6171 16.6823 48.535C16.5689 48.3747 16.5298 48.1792 16.4438 47.9876C16.3187 48.187 16.4086 47.8704 16.2444 47.9407C16.2092 47.8391 16.2014 47.7961 16.2131 47.7882C16.2131 47.6788 16.2639 47.5654 16.2874 47.4637C16.3343 47.3894 16.3343 47.5576 16.3734 47.5458C16.3773 47.3308 16.436 47.4559 16.4907 47.3191C16.4242 47.3464 16.4047 47.2409 16.4399 47.1236L16.3421 47.2878C16.3109 47.1314 16.35 47.0649 16.4047 47.0063C16.4321 46.9789 16.4555 46.9476 16.4712 46.9085C16.4751 46.8968 16.479 46.889 16.4829 46.8734C16.4907 46.8499 16.4829 46.8734 16.4985 46.8069C16.522 46.7404 16.5454 46.674 16.565 46.5919L16.5376 46.803C16.5728 46.6896 16.6432 46.5176 16.7175 46.326C16.8191 46.1227 16.9403 45.8881 17.0224 45.7122C16.9638 45.7161 16.9325 45.7161 16.8856 45.7239C16.8309 45.7317 16.7761 45.7434 16.7253 45.7513C16.6236 45.7708 16.5337 45.7943 16.4555 45.8255C16.4281 45.806 16.3969 45.7591 16.5533 45.7395C16.3656 45.7395 16.1506 45.7591 15.9433 45.7825C15.74 45.7982 15.5094 45.8451 15.4233 45.8764C15.1848 45.9389 14.9659 45.9937 14.786 46.0054L14.8095 45.9546C14.7274 45.9898 14.6844 46.0719 14.571 46.0562C14.571 46.0367 14.5945 46.0054 14.5554 46.0132C14.5124 46.0367 14.356 46.1422 14.2426 46.1618L14.3169 46.0836C14.0979 46.1305 13.9415 46.2204 13.8047 46.3104C13.6718 46.412 13.5584 46.5254 13.3981 46.6153C13.3707 46.5567 13.273 46.5528 13.1596 46.5762C13.0501 46.6036 12.9289 46.6544 12.8468 46.6896V46.6701C12.6083 46.7873 12.4363 46.9281 12.2799 47.0806C12.1196 47.2252 11.9749 47.3777 11.8068 47.5458C11.4862 47.6045 10.9936 48.1128 10.6026 48.3708C10.673 48.3395 10.6612 48.4529 10.6104 48.5194C10.5127 48.5741 10.4501 48.7892 10.3797 48.6914L10.411 48.6679C10.2703 48.6367 10.1334 48.8204 10.0044 48.9377L10.0904 49.0667C9.60168 49.2231 9.31236 49.9738 8.99567 50.0129C8.94875 50.1185 8.85492 50.2162 8.808 50.3218L8.74935 50.2592C8.52649 50.4664 8.41702 50.572 8.17852 50.8613L8.18634 50.7636C8.03777 50.9161 8.18634 51.1233 8.05732 51.268L7.9283 51.2289C7.68198 51.5025 7.35356 51.7058 7.19326 52.0499C7.18544 52.0343 7.16589 52.003 7.20108 51.9522C7.08379 52.0773 6.69281 52.394 6.86093 52.4604C6.77492 52.3822 6.60289 52.7458 6.51296 52.9374L6.46995 52.8592C6.44258 53.0586 6.46213 53.0821 6.33311 53.2854C6.2901 53.3245 6.25101 53.2854 6.31356 53.2385C6.16499 53.3636 6.27446 53.3949 6.11416 53.5591V53.4574C6.00469 53.6138 6.03597 53.6177 6.02815 53.7428C5.98905 53.8601 5.8092 54.0361 5.73101 54.0204C5.75446 54.0673 5.74665 54.1885 5.66454 54.2707C5.63326 54.2707 5.64108 54.2237 5.64499 54.2042C5.42604 54.4505 5.4886 54.6694 5.30875 54.818C5.28138 54.8102 5.26574 54.818 5.24619 54.8258C5.37522 54.603 5.47687 54.4231 5.47296 54.4466C5.40649 54.4075 5.29311 54.5834 5.28529 54.384C5.2501 54.56 5.21883 54.8689 5.0898 55.0292C5.07807 55.0331 5.06634 55.0409 5.05461 55.0409V55.0174C5.02725 55.0565 5.01552 55.0956 5.00379 55.1347C4.96078 55.1855 4.93732 55.2207 4.90995 55.2755C4.84349 55.2676 4.77702 55.4749 4.7301 55.5687C4.8083 55.5961 4.73792 55.7134 4.85522 55.6273C4.84349 55.6391 4.85522 55.6039 4.88258 55.5413C4.88649 55.5257 4.89431 55.5101 4.89431 55.4983V55.5061C4.92559 55.4436 4.96078 55.3654 5.00379 55.2716C5.00379 55.3654 5.00379 55.4553 4.90995 55.5374C4.93341 55.6078 4.95687 55.686 4.9686 55.7251C4.80439 55.7994 4.63236 56.0222 4.55025 56.0261C4.46033 56.3311 4.29221 56.726 4.35867 56.9606C4.34304 57.0505 4.27657 57.0388 4.24138 57.0622C4.24529 57.0075 4.27266 56.9528 4.26093 56.9176C4.22574 57.0935 4.0889 57.418 4.17492 57.4923C4.05371 57.6878 4.12409 57.3398 4.03807 57.637L4.02243 57.5861C3.6471 58.1022 3.9677 58.6027 3.55717 59.1774C3.58454 59.1383 3.59627 59.1149 3.61582 59.111C3.31086 59.8225 3.2874 60.6514 2.98243 61.3513C2.90815 61.5546 2.9707 61.5898 2.99416 61.7305L2.89642 61.7579L2.95507 61.9964C2.9707 62.3209 2.63446 62.4929 2.70875 62.9152L2.77522 62.8761C2.74003 63.0168 2.73221 63.3296 2.66965 63.2983C2.67747 63.314 2.72439 63.3531 2.68529 63.4039H2.63837L2.66574 63.7636C2.59537 64.0295 2.4898 63.6932 2.42725 64.092C2.42725 64.2445 2.50935 64.5338 2.54845 64.4791C2.55627 64.4165 2.59537 64.3266 2.64228 64.3305L2.6501 64.4673C2.78304 64.5064 2.90815 64.6198 3.04108 64.311L2.98634 64.0725L3.06063 64.0099L3.03717 64.2015C3.11537 64.0998 3.06845 64.0255 3.04108 63.9434C3.08018 63.9317 3.10755 63.9004 3.1271 63.8574L3.02935 63.615C3.088 63.5955 3.11928 63.7284 3.1701 63.5837C3.1271 63.4704 3.03717 63.6658 3.02153 63.486C3.09973 63.3883 3.14273 63.4273 3.11146 63.2905C3.15055 63.2788 3.16619 63.3101 3.17401 63.3609C3.14664 63.2397 3.20529 63.0598 3.14273 62.9895C3.23657 62.8878 3.18965 62.6024 3.31476 62.6376C3.29131 62.5985 3.25221 62.4225 3.26785 62.317C3.38514 62.5359 3.34995 61.9299 3.50634 62.012C3.39687 61.8439 3.55326 61.4959 3.5298 61.234C3.53762 61.2496 3.55326 61.2809 3.54153 61.3004C3.58454 61.1636 3.63146 61.1323 3.67837 61.0502C3.5689 61.0072 3.59627 60.7843 3.55717 60.6514C3.70574 60.5067 3.66273 60.7843 3.78003 60.757C3.68619 60.7452 3.76048 60.4403 3.67055 60.4794C3.7683 60.366 3.7292 60.3777 3.83867 60.3347C3.70574 60.2761 3.83867 60.2096 3.78785 60.0806C3.90905 59.9125 3.93251 60.0688 3.94424 59.8538C4.01461 59.7678 4.0107 59.9633 4.0107 59.9633L4.02243 59.9711ZM5.5707 55.2168C5.55116 55.2559 5.53552 55.2872 5.52379 55.3107C5.53161 55.2911 5.54725 55.2637 5.5668 55.2168H5.5707ZM5.77401 54.8493C5.74664 54.8923 5.71537 54.947 5.68018 55.0057C5.6489 55.0057 5.62935 54.9783 5.65281 54.9392C5.65672 54.9705 5.71928 54.8884 5.77401 54.8454V54.8493ZM4.84349 55.3771C4.86304 55.3107 4.88649 55.295 4.90604 55.295C4.89431 55.3263 4.88258 55.3615 4.86304 55.4084V55.4201C4.86304 55.4201 4.8474 55.3928 4.84349 55.3771Z" fill="#1B1B1B"/>
<path d="M9.59377 50.4586L9.57814 50.443L9.56641 50.4821L9.59377 50.4586Z" fill="#1B1B1B"/>
<path d="M27.2388 48.7031C27.2388 48.7031 27.2388 48.7109 27.2388 48.7149C27.2544 48.75 27.2466 48.7305 27.2388 48.7031Z" fill="#1B1B1B"/>
<path d="M29.8268 49.747C29.7838 49.7391 29.7447 49.7352 29.7056 49.7235C29.7603 49.7626 29.8033 49.7861 29.8268 49.747Z" fill="#1B1B1B"/>
<path d="M24.189 51.2797V51.2758L24.1616 51.2797H24.189Z" fill="#1B1B1B"/>
<path d="M29.5571 49.6376C29.608 49.6845 29.6549 49.7079 29.7057 49.7236C29.6627 49.6923 29.6119 49.6532 29.5571 49.6376Z" fill="#1B1B1B"/>
<path d="M32.3018 50.959L32.3604 50.9082C32.2627 50.8496 32.3409 50.9317 32.3018 50.959Z" fill="#1B1B1B"/>
<path d="M31.1562 50.6306L31.2188 50.7284L31.297 50.6971L31.1562 50.6306Z" fill="#1B1B1B"/>
<path d="M30.8707 49.8252L30.9176 49.8409L30.7495 49.7705L30.8707 49.8252Z" fill="#1B1B1B"/>
<path d="M22.9927 50.6111L23.024 50.7049C23.0982 50.6893 23.11 50.5837 22.9927 50.6111Z" fill="#1B1B1B"/>
<path d="M18.8522 50.0363C18.8249 49.9776 18.7232 49.9112 18.6411 49.9307C18.7271 49.9659 18.8014 50.0324 18.8522 50.0363Z" fill="#1B1B1B"/>
<path d="M9.85601 49.1253L9.89511 49.0432L9.79736 49.1761L9.85601 49.1253Z" fill="#1B1B1B"/>
<path d="M41.8572 18.0075C42.4867 19.2664 41.0753 21.1353 41.0753 21.1353C41.0753 21.1353 45.376 21.5263 45.376 18.7894C45.376 17.0418 43.4211 14.8797 43.4211 14.8797C45.376 15.6616 47.7219 20.7991 47.7219 20.7991C47.7219 20.7991 48.8948 19.9624 44.9851 13.7067C44.9851 13.7067 41.736 7.61529 33.6467 6.27815C31.4103 5.68778 29.8269 5.65259 29.8269 5.65259C26.7303 5.83635 24.2672 6.52056 22.3044 7.45499C20.2205 8.26432 13.1243 11.8887 9.89091 24.6541C6.07888 39.7067 9.59768 38.9248 6.07888 41.6616C2.56009 44.3985 -0.176755 51.827 7.25182 53C7.25182 53 10.9661 45.7669 18.5902 46.3533C18.5902 46.3533 19.7005 41.4544 20.5138 40.778C21.0494 40.3323 17.6948 37.916 15.6617 33.0679C17.124 30.3741 19.7631 30.3272 20.936 25.6354C21.7454 22.4021 24.3454 15.5013 27.3872 15.2745C29.0097 15.1533 23.4774 20.7482 23.4774 20.7482C23.4774 20.7482 28.2473 22.6718 31.6879 19.5753C32.7123 18.6526 33.6428 17.2294 33.4473 14.6881L33.8969 15.8845C34.3505 17.0887 34.1589 18.4415 33.3926 19.4736L32.4034 20.8069C32.4034 20.8069 35.4178 21.8625 38.7294 20.3612C43.0302 18.4063 36.7745 13.3236 36.7745 13.3236C36.7745 13.3236 40.6843 15.6694 41.8572 18.0153V18.0075Z" fill="black"/>
<path d="M41.9707 41.7672C35.2107 47.7218 27.2856 45.2078 27.2856 45.2078L26.2183 48.1128C33.2559 50.4586 35.4062 54.5795 35.4062 54.5795C44.5942 56.3546 40.2934 50.0677 40.098 49.1801C39.9025 48.2926 39.1205 47.3347 40.098 45.7435C41.0754 44.1522 41.9707 41.7672 41.9707 41.7672Z" fill="black"/>
<path d="M27.9777 36.3834C27.9113 36.3834 27.8487 36.3521 27.8135 36.2895C27.7549 36.1996 27.7822 36.0784 27.8761 36.0198C27.9386 35.9807 34.2959 32.0865 40.1919 35.23C40.2857 35.2808 40.3248 35.3981 40.274 35.4959C40.2232 35.5936 40.1059 35.6288 40.0081 35.578C34.3155 32.5401 28.1459 36.313 28.0833 36.3521C28.052 36.3716 28.0168 36.3834 27.9816 36.3834H27.9777Z" fill="black"/>
<path d="M35.0073 28.5639C40.0795 28.5639 44.1914 27.8637 44.1914 26.9999C44.1914 26.1362 40.0795 25.436 35.0073 25.436C29.9351 25.436 25.8232 26.1362 25.8232 26.9999C25.8232 27.8637 29.9351 28.5639 35.0073 28.5639Z" fill="#F4BDCB"/>
<path d="M36.1881 32.4736C35.2185 32.4736 34.4287 31.6839 34.4287 30.7142C34.4287 29.7446 35.2185 28.9548 36.1881 28.9548C37.1577 28.9548 37.9475 29.7446 37.9475 30.7142C37.9475 31.6839 37.1577 32.4736 36.1881 32.4736ZM36.1881 29.3458C35.4335 29.3458 34.8197 29.9596 34.8197 30.7142C34.8197 31.4688 35.4335 32.0827 36.1881 32.0827C36.9427 32.0827 37.5565 31.4688 37.5565 30.7142C37.5565 29.9596 36.9427 29.3458 36.1881 29.3458Z" fill="black"/>
<path d="M31.7233 28.1728C32.3883 28.1728 32.9275 27.2976 32.9275 26.2179C32.9275 25.1383 32.3883 24.2631 31.7233 24.2631C31.0582 24.2631 30.519 25.1383 30.519 26.2179C30.519 27.2976 31.0582 28.1728 31.7233 28.1728Z" fill="black"/>
<path d="M40.6529 28.1728C41.318 28.1728 41.8572 27.2976 41.8572 26.2179C41.8572 25.1383 41.318 24.2631 40.6529 24.2631C39.9879 24.2631 39.4487 25.1383 39.4487 26.2179C39.4487 27.2976 39.9879 28.1728 40.6529 28.1728Z" fill="black"/>
<path d="M33.8422 24.6541C33.7797 24.6541 33.7171 24.6228 33.678 24.5681C33.6663 24.5485 32.4464 22.75 31.1171 22.6797C30.5893 22.6484 30.1201 22.8986 29.69 23.4147C29.6197 23.4968 29.4985 23.5085 29.4163 23.4382C29.3342 23.3678 29.3225 23.2466 29.3929 23.1645C29.9051 22.5506 30.4994 22.2535 31.1406 22.2887C32.6693 22.3708 33.9517 24.2709 34.0064 24.353C34.0651 24.443 34.0416 24.5642 33.9517 24.6228C33.9204 24.6463 33.8813 24.6541 33.8422 24.6541Z" fill="black"/>
<path d="M40.0316 24.6776C39.4256 24.6776 38.8704 24.3844 38.3856 23.8018C38.3152 23.7197 38.3269 23.5946 38.409 23.5281C38.4911 23.4577 38.6162 23.4695 38.6827 23.5516C39.1128 24.0677 39.5898 24.314 40.1098 24.2866C41.443 24.2162 42.6589 22.4138 42.6707 22.3982C42.7293 22.3083 42.8544 22.2848 42.9405 22.3434C43.0304 22.4021 43.0538 22.5233 42.9952 22.6132C42.9405 22.6953 41.658 24.5955 40.1293 24.6776C40.0941 24.6776 40.0629 24.6776 40.0277 24.6776H40.0316Z" fill="black"/>
<path d="M23.1922 24.9981C23.1257 24.9981 23.0632 24.9629 23.0241 24.9043C22.9693 24.8105 22.9967 24.6932 23.0905 24.6345C23.4581 24.4117 23.6692 24.1419 23.72 23.833C23.806 23.2857 23.3603 22.7657 23.3564 22.7578C23.286 22.6757 23.2938 22.5545 23.3759 22.4802C23.4581 22.4099 23.5793 22.4177 23.6496 22.4998C23.6731 22.5272 24.2166 23.1566 24.1071 23.8878C24.0406 24.3139 23.7669 24.6775 23.2938 24.9629C23.2626 24.9825 23.2274 24.9903 23.1922 24.9903V24.9981Z" fill="black"/>
<path d="M25.6512 23.9504C25.2915 23.9504 24.9905 23.8487 24.7442 23.6493C24.1734 23.1802 24.1577 22.3474 24.1577 22.3122C24.1577 22.2027 24.2437 22.1167 24.3493 22.1167C24.4431 22.1167 24.5448 22.2027 24.5487 22.3083C24.5487 22.3161 24.5643 23.0003 24.9944 23.3522C25.2329 23.5477 25.5731 23.6102 25.9953 23.5281C26.1009 23.5086 26.2025 23.579 26.2221 23.6845C26.2416 23.7901 26.1712 23.8917 26.0657 23.9113C25.921 23.9387 25.7803 23.9504 25.6512 23.9504Z" fill="black"/>
<path d="M24.0677 25.8974C24.0677 25.8974 24.0403 25.8974 24.0286 25.8935C23.923 25.8701 23.8526 25.7684 23.8761 25.6628C23.8839 25.6277 24.0599 24.8105 24.7089 24.4625C25.0881 24.2553 25.5417 24.2553 26.0578 24.4625C26.1594 24.5016 26.2063 24.615 26.1672 24.7167C26.1281 24.8183 26.0148 24.8652 25.9131 24.8262C25.5104 24.6659 25.1663 24.6619 24.8926 24.8105C24.4039 25.0764 24.2593 25.741 24.2593 25.7449C24.2397 25.8388 24.1576 25.9013 24.0677 25.9013V25.8974Z" fill="black"/>
</g>
</g>
<defs>
<clipPath id="clip0_4971_5029">
<rect width="52" height="52" fill="white" transform="translate(1 1)"/>
</clipPath>
</defs>
</svg>
