<svg width="52" height="52" viewBox="0 0 52 52" fill="none" xmlns="http://www.w3.org/2000/svg">
<circle cx="26" cy="26" r="26" fill="#FF4D57"/>
<g clip-path="url(#clip0_4505_6796)">
<mask id="mask0_4505_6796" style="mask-type:luminance" maskUnits="userSpaceOnUse" x="0" y="0" width="52" height="52">
<path d="M26 52C40.3594 52 52 40.3594 52 26C52 11.6406 40.3594 0 26 0C11.6406 0 0 11.6406 0 26C0 40.3594 11.6406 52 26 52Z" fill="white"/>
</mask>
<g mask="url(#mask0_4505_6796)">
<path d="M37.5341 58.6467C37.5341 58.6467 35.1882 54.3459 32.4514 51.2181C29.5738 47.93 25.4138 46.9174 25.4138 46.9174L26.2778 43.9733C28.4008 44.6653 30.6568 44.896 32.9479 44.5754C42.1945 43.2774 48.4658 33.4717 46.9488 22.6729C45.4357 11.8741 36.7091 4.17181 27.4586 5.46985C18.2081 6.7679 11.9407 16.5736 13.4577 27.3724C14.1575 32.3613 16.3978 36.6933 19.5178 39.7781C19.5178 39.7781 17.9852 43.0076 17.5942 45.3535C17.5942 45.3535 10.9476 44.1805 6.25589 52.0001C4.11724 55.5658 3.51904 59.0377 3.51904 59.0377" fill="#FFF7EB"/>
<path d="M18.2667 43.4375L18.208 43.5665C18.2276 43.5313 18.2471 43.4883 18.2667 43.4375Z" fill="#1B1B1B"/>
<path d="M14.6851 31.4657C14.7202 31.5635 14.7476 31.5987 14.7593 31.5987C14.7202 31.5126 14.689 31.4384 14.6851 31.4657Z" fill="#1B1B1B"/>
<path d="M14.2007 29.2217C14.2085 29.2686 14.2163 29.3116 14.2241 29.3546C14.2241 29.3038 14.2163 29.249 14.2007 29.2217Z" fill="#1B1B1B"/>
<path d="M18.2666 43.4376L18.4152 43.1052C18.3839 43.0661 18.3292 43.2694 18.2666 43.4376Z" fill="#1B1B1B"/>
<path d="M13.7545 46.022L13.6529 46.0572C13.6294 46.0806 13.606 46.108 13.5864 46.1354L13.7545 46.0181V46.022Z" fill="#1B1B1B"/>
<path d="M9.85261 48.1958C9.93472 48.1332 9.89171 48.0237 9.89171 47.9612C9.87607 48.0355 9.83306 48.1019 9.77051 48.1645C9.78224 48.1801 9.80961 48.1919 9.85652 48.1958H9.85261Z" fill="#1B1B1B"/>
<path d="M16.9141 45.6074C16.9141 45.6074 16.9375 45.6387 16.9532 45.6465C16.9532 45.6309 16.9375 45.6192 16.9141 45.6074Z" fill="#1B1B1B"/>
<path d="M13.79 25.0693C13.79 25.0693 13.79 25.0811 13.79 25.0889C13.8057 25.1984 13.8018 25.1358 13.79 25.0693Z" fill="#1B1B1B"/>
<path d="M38.9376 9.1644C38.6522 8.82425 39.5788 9.49282 39.1252 9.01191C39.1448 9.08229 38.5466 8.78906 38.9376 9.1644Z" fill="#1B1B1B"/>
<path d="M39.1211 9.0081L39.0742 8.95728C39.0938 8.97682 39.1055 8.98855 39.1211 9.0081Z" fill="#1B1B1B"/>
<path d="M15.4361 15.7134C15.4087 15.7251 15.3814 15.7525 15.354 15.7838C15.3657 15.7838 15.3853 15.772 15.4361 15.7134Z" fill="#1B1B1B"/>
<path d="M13.6021 22.6142L13.6255 22.4382C13.6099 22.5086 13.606 22.5633 13.6021 22.6142Z" fill="#1B1B1B"/>
<path d="M17.1133 12.394C17.1719 12.3197 17.2071 12.3002 17.2736 12.1868C17.2619 12.1946 17.2501 12.2024 17.2384 12.2102C17.2228 12.2571 17.1876 12.3119 17.1133 12.394Z" fill="#1B1B1B"/>
<path d="M19.674 9.49292C19.6544 9.50074 19.627 9.51247 19.6075 9.5242C19.5801 9.55157 19.5489 9.58284 19.5215 9.61021L19.6779 9.49292H19.674Z" fill="#1B1B1B"/>
<path d="M25.9922 46.6084C25.9727 46.6475 25.9609 46.6749 25.9492 46.6944C26.0157 46.6358 26.1799 46.6514 25.9922 46.6084Z" fill="#1B1B1B"/>
<path d="M16.4956 11.7644L16.8944 11.2561C16.7771 11.3929 16.6324 11.5806 16.4956 11.7644Z" fill="#1B1B1B"/>
<path d="M46.4639 33.0103L46.4287 33.1549C46.4483 33.1002 46.4639 33.0494 46.4639 33.0103Z" fill="#1B1B1B"/>
<path d="M18.1299 9.78224C18.2354 9.72359 18.341 9.65712 18.4388 9.57502C18.4505 9.55156 18.47 9.52419 18.47 9.50073C18.3567 9.59457 18.2394 9.68449 18.126 9.77833L18.1299 9.78224Z" fill="#1B1B1B"/>
<path d="M29.6988 48.1293C29.1671 47.8048 29.3782 48.1019 29.2218 48.1058C28.561 47.7852 28.9755 47.8478 28.7917 47.664C28.3656 47.4803 27.9902 47.449 27.6813 47.3043C27.6696 47.2731 27.611 47.2379 27.6931 47.2418C27.4507 47.1949 27.1183 47.0541 26.7704 46.929C26.5983 46.8625 26.4185 46.8078 26.2504 46.7609C26.2074 46.7491 26.1643 46.7413 26.1252 46.7296C26.1057 46.7296 26.0901 46.7296 26.0705 46.7296C26.0353 46.7296 25.9923 46.7296 25.9454 46.7374C25.9376 46.7218 25.9415 46.71 25.9454 46.7022C25.9141 46.7687 25.8789 46.8312 25.8203 46.8703C25.7499 46.8508 25.6717 46.8391 25.5935 46.8312C25.5779 46.7531 25.6092 46.6475 25.6834 46.5928C25.6443 46.71 25.6834 46.7061 25.7108 46.7335V46.5693C25.8828 46.4246 25.7421 46.6944 25.8007 46.7179C25.8203 46.7179 25.8398 46.71 25.8555 46.6983H25.8359C25.8242 46.6514 25.8359 46.5849 25.8359 46.5146L25.8437 46.4012C25.8555 46.3347 25.8672 46.2682 25.8789 46.2018C25.9298 45.932 25.9845 45.6779 26.0627 45.4863C26.2152 45.4394 25.8281 46.4403 26.1018 45.9359L25.9845 46.2409L25.9258 46.3934C25.9102 46.4364 25.9024 46.4442 25.8907 46.4755C25.9571 46.4285 25.9884 46.4246 26.0001 46.4246C26.008 46.4481 26.0001 46.4481 26.0001 46.4676C25.9884 46.5067 25.9845 46.5146 26.1096 46.4794L26.1174 46.4715L26.1409 46.4051C26.1565 46.3582 26.1683 46.3152 26.18 46.2761C26.2034 46.194 26.223 46.1197 26.2465 46.0493C26.2816 45.9125 26.309 45.7952 26.3325 45.6779C26.3833 45.4433 26.4341 45.2087 26.5749 44.806C26.5671 44.7004 26.5358 44.7161 26.5045 44.72C26.4693 44.7356 26.4498 44.7122 26.4263 44.6613C26.4302 44.587 26.4459 44.5128 26.4615 44.458C26.4693 44.4306 26.4771 44.4072 26.4849 44.3876C26.4849 44.3564 26.524 44.3955 26.5436 44.3994C26.6296 44.4502 26.6843 44.5088 26.7117 44.5558C26.7274 44.5792 26.7352 44.6027 26.743 44.6222C26.7625 44.6457 26.829 44.677 26.8798 44.7004C26.9932 44.7513 27.1496 44.7825 27.3803 44.7943C27.6344 44.7591 27.7556 44.6222 28.3734 44.8255L28.1271 44.935C28.9677 45.0914 28.6353 44.8099 29.5072 45.0132C29.343 45.0562 28.8386 44.9897 28.9637 45.021C29.5228 45.2048 29.3782 44.9858 29.82 45.021L29.9021 45.1618C30.8131 45.2009 31.814 45.0875 32.7953 44.9311C32.7445 44.978 32.5803 45.0406 32.8188 45.0523C33.1316 44.9937 33.4522 44.935 33.7806 44.8725C34.1051 44.806 34.4335 44.7356 34.7659 44.6691C35.4188 44.5088 36.0639 44.3407 36.6504 44.1413L37.0374 43.852C37.1391 43.809 37.2446 43.8207 37.1469 43.8872C37.6004 43.7269 37.1391 43.8129 37.3268 43.6721C37.5653 43.547 37.6747 43.5744 37.5379 43.68C37.8976 43.4571 38.398 43.1248 38.8946 42.7885C39.3911 42.4523 39.8837 42.1004 40.2708 41.8815C40.2317 41.9245 40.1965 41.9714 40.1574 42.0144C40.7243 41.6195 40.6227 41.3576 41.1583 41.0135L41.0801 41.1113C41.6588 40.646 42.1827 40.0634 42.6792 39.5161C43.1562 38.9531 43.5902 38.4174 43.9812 37.9991C43.9695 37.8622 44.2001 37.5729 44.3917 37.2797C44.5833 36.9825 44.7592 36.6971 44.6849 36.5994C45.1854 35.9112 45.1268 36.1537 45.7171 35.1097C45.8579 34.8204 45.7758 34.6132 45.9087 34.2457L46.0221 34.2809C46.0534 34.101 46.0729 33.9173 46.0964 33.7374L46.331 33.5224C46.3662 33.4051 46.4013 33.2839 46.4248 33.1627C46.374 33.2995 46.2684 33.4403 46.2449 33.4051C46.3896 32.846 46.761 32.0992 46.8197 32.0953C46.9174 31.6496 46.9917 31.1961 47.0582 30.7464C47.0973 30.7855 47.0621 31.0123 47.0504 31.1961C47.0934 30.4571 47.2107 31.0944 47.2419 30.4141C47.1989 30.4962 47.1794 30.3516 47.1598 30.332C47.2263 30.1756 47.2967 29.9097 47.3553 29.6165C47.4022 29.3194 47.4453 28.9909 47.4687 28.7094L47.5352 28.8267C47.6837 27.818 47.6955 26.6881 47.6837 25.5503C47.6486 25.9609 47.5078 25.8631 47.4883 25.5347L47.6134 25.3979C47.5274 25.1867 47.5743 25.7458 47.4648 25.3079C47.4648 24.8857 47.6016 25.0186 47.6486 25.261L47.5899 24.7449C47.6251 24.7137 47.6525 24.8309 47.6994 24.8622C47.6212 24.655 47.7659 23.9591 47.6095 23.6658L47.6446 23.6346C47.5156 22.5007 47.3983 21.9925 47.2068 21.0854C47.0934 21.0893 47.0504 20.7296 46.8979 20.4833C46.7728 19.8186 46.6594 19.064 46.3818 18.2938C46.1394 17.7699 46.2371 18.1648 46.0925 17.9458C46.1824 17.8676 45.8696 17.1131 46.0925 17.4806C45.9048 17.027 45.7875 16.7338 45.6272 16.4249C45.549 16.2685 45.4669 16.1082 45.3692 15.9167C45.2597 15.729 45.1346 15.514 44.9782 15.2442C45.0016 15.3849 45.0525 15.5257 44.9899 15.4709C44.8765 15.2794 44.7983 14.9979 44.8531 15.0018L44.8922 15.0487C44.4934 14.474 44.1571 13.7428 43.774 13.0703C43.5902 12.7302 43.3947 12.4057 43.1875 12.1203C42.9881 11.8309 42.7692 11.5885 42.5541 11.4048L42.601 11.4478C42.3352 11.1663 42.0458 10.9121 41.7604 10.6502C41.4164 10.2436 42.0302 10.834 41.8113 10.5016C40.8338 9.71185 40.4194 9.09801 39.5475 8.53501C39.3246 8.1714 38.7499 7.74523 38.1087 7.36598C37.4714 6.97892 36.7677 6.63876 36.318 6.32598L36.3454 6.41591C36.0639 6.35726 36.06 6.22824 35.8762 6.1344C35.884 6.19305 36.1265 6.31425 35.9544 6.27516C34.8636 5.82553 33.7102 5.41892 32.5138 5.1335C31.3174 4.84809 30.0702 4.68779 28.8386 4.71125C27.9394 4.74252 28.3616 5.09049 27.2356 5.05922C27.3334 4.99666 27.4311 4.93801 27.5328 4.88719C26.6492 5.08658 25.7538 5.27425 24.8819 5.55185C24.014 5.83335 23.1656 6.18132 22.4188 6.64658C22.497 6.5723 22.4853 6.53711 22.6377 6.46283C22.2546 6.53711 21.4296 7.12358 21.4726 7.19786C21.238 7.33861 21.3827 7.1744 21.2185 7.23305C20.8666 7.38162 20.5147 7.85861 20.2997 7.89771C20.2645 7.90553 20.3662 7.8117 20.417 7.76478C20.2371 7.9329 19.5177 8.4529 19.768 8.39034C19.2245 8.76568 18.8531 9.25049 18.4425 9.57501C18.2783 9.8917 17.6371 10.3609 17.688 10.5485C17.5824 10.3921 16.8434 11.3422 16.6792 11.7332C16.7183 11.5885 16.4212 11.9912 16.4564 11.8153C16.1944 12.2102 15.9794 12.5894 16.1006 12.5699C15.4555 13.1994 15.3616 14.1534 14.9159 14.47C14.3803 15.772 13.9971 17.0114 13.7039 18.2234C13.6257 18.1804 13.7078 17.8403 13.8056 17.5197C13.9033 17.1991 14.001 16.8902 13.9033 16.8863C13.5866 18.0475 13.571 18.7473 13.2934 19.889C13.2113 20.1861 13.2504 19.7052 13.2386 19.5958C13.0666 20.7726 12.8555 21.8712 12.8946 22.9308C12.8789 22.9308 12.8672 22.8135 12.8594 22.704C12.8555 22.9112 12.8046 23.1888 12.8868 23.1654L12.875 22.9621C12.9415 22.7979 12.9923 23.009 13.0314 23.2631C13.0744 23.5173 13.1213 23.8105 13.1526 23.83C12.9259 23.4743 13.0862 24.8622 12.7968 24.307C12.8125 24.4439 12.8594 24.6159 12.9102 24.5846C12.9024 24.7879 12.8711 24.8544 12.8046 24.6472C12.875 25.39 12.9376 25.1242 12.9845 25.7928C12.9454 25.7928 12.9219 25.6598 12.8711 25.5934C12.9767 25.9296 13.0588 26.2658 13.1018 26.8328C13.0744 26.8015 13.051 26.8719 13.0314 26.7037C13.1448 27.6773 13.4576 28.3185 13.6101 29.3741C13.3716 29.1043 13.6413 29.7377 13.5123 29.8316C13.5749 30.0153 13.6296 30.1991 13.7 30.3789L13.7078 30.1365C13.8446 30.6213 14.0597 31.024 14.1574 31.4463L13.9815 31.11L14.306 31.9976C14.263 31.8255 14.2278 31.6496 14.1887 31.4737C14.4233 31.9311 14.3412 31.3642 14.5249 32.0054C14.4624 31.8842 14.697 32.4746 14.7126 32.7482C14.8534 32.9594 14.998 33.1744 15.1075 33.5263C15.1075 33.6319 14.9277 33.5224 14.9277 33.5928C15.1388 33.7648 15.4594 34.6484 15.7292 34.8556C15.6549 34.7774 15.5845 34.8087 15.5845 34.8478L15.7683 34.9846C15.8465 35.2075 15.8543 35.2427 15.78 35.2388C16.1123 35.8565 15.8308 34.9573 16.1749 35.7158C16.1358 35.6649 16.1397 35.6962 16.0576 35.5867C16.4368 36.3335 16.9568 36.9239 17.3713 37.569C17.3869 37.8427 16.9451 37.049 16.9998 37.3305C17.3361 37.7762 17.7231 38.2063 18.1141 38.6207C18.3135 38.824 18.5129 39.0273 18.7084 39.2267C18.8022 39.3284 18.9039 39.4222 19.0016 39.5239L19.1228 39.649L19.2128 39.7506L19.1346 39.6451C19.2206 39.6255 19.3105 39.7037 19.3731 39.8015C19.3066 39.9109 19.2284 40.0048 19.1502 40.126C19.0603 40.2746 18.9782 40.4388 18.9391 40.6069C18.9782 40.4779 18.9039 40.4036 18.9078 40.4427C18.5911 41.1034 18.3722 41.8424 18.075 42.9097V42.7612C17.8834 43.1522 17.688 43.8325 17.5511 44.286C17.5668 44.4346 17.5003 44.6926 17.6098 44.5518C17.5628 44.6613 17.5159 44.7669 17.469 44.8685C17.4338 44.9428 17.4221 45.0249 17.3869 45.0758C17.297 45.0562 17.2188 45.0445 17.1367 45.0445H16.9725H16.7613C16.4798 45.0484 16.2101 45.0914 15.9403 45.1227C15.6744 45.1657 15.4086 45.2048 15.1466 45.24C14.8886 45.2869 14.6227 45.3025 14.3568 45.3143C14.5054 45.2713 14.7087 45.197 14.5875 45.2165C14.2317 45.3064 13.8798 45.4237 13.5319 45.541C13.6413 45.5958 13.6843 45.5488 13.9268 45.5606C13.8681 45.6036 13.7665 45.6544 13.6492 45.7052C13.5358 45.7639 13.4028 45.8225 13.2777 45.8655C13.7156 45.6466 13.2308 45.7287 13.008 45.7522C13.051 45.7678 12.9923 45.8186 13.0197 45.8382C12.4254 45.8812 12.9962 46.0337 12.2456 46.2409L12.2612 46.1822C12.1322 46.2526 12.0149 46.3308 11.8937 46.4051C11.7764 46.4872 11.6591 46.5693 11.5183 46.6397C11.3541 46.6123 11.7607 46.4442 11.7412 46.3582C11.5496 46.4715 11.3854 46.6201 11.2212 46.757C11.0531 46.8899 10.8889 47.0111 10.7012 47.0854C10.8341 46.9485 11.0648 46.8117 11.2134 46.6983C10.7677 46.8039 10.7481 46.8703 10.4705 47.0385L10.4979 47.0228L9.84886 47.4099L10.0248 47.3278C9.87232 47.5858 9.68465 47.797 9.44615 47.9885C9.21938 48.1879 8.9457 48.3795 8.76194 48.7197C9.1451 48.0824 8.77758 48.5633 8.73066 48.4382C8.57427 48.5516 8.34751 48.7353 8.37878 48.6532C8.28886 48.8135 8.17548 48.9073 8.04645 49.0168C7.92134 49.1263 7.7845 49.2514 7.68675 49.4977C7.64375 49.4899 7.44826 49.791 7.4248 49.6658C7.15893 50.0451 7.546 49.6228 7.55773 49.6854C7.39352 50.006 7.08465 50.2875 6.80314 50.6472C6.52555 51.0069 6.22841 51.4057 6.0251 51.8749C5.65367 52.6685 5.68886 52.8679 5.38781 53.6147C5.21578 53.8298 5.36044 53.3528 5.36044 53.3528C5.11412 53.7203 4.98119 54.0252 4.85608 54.4201C4.85608 54.3302 4.79743 54.3967 4.70751 54.4944C4.5863 54.8072 4.75051 54.7525 4.53157 55.1356C4.51984 55.0496 4.49638 54.9362 4.51593 54.772C4.39472 55.1473 4.32435 55.5344 4.21878 55.9293C4.12104 56.0075 4.20314 55.6634 4.21878 55.5149C4.08194 55.9528 3.88254 56.6526 3.94119 56.8168L4.0663 56.5509C4.01938 56.7112 3.95292 56.6057 3.97247 56.4806C4.01548 56.0818 4.19141 55.9606 4.23442 55.9528L4.16014 56.2304C4.4651 56.027 4.51984 55.1356 4.76224 54.6039L4.82089 54.8893C4.85217 54.6899 4.89126 54.4905 4.93036 54.2911C5.02029 54.1934 5.13758 54.1543 5.04375 54.4201C5.28615 54.08 5.13758 54.0604 5.37217 53.7828C5.40345 53.7555 5.39954 53.775 5.39172 53.8102L5.52465 53.427C5.52074 53.5131 5.65758 53.4192 5.52465 53.6303C5.92735 53.0282 5.95472 52.5434 6.20104 52.3675L6.18149 52.4261C6.40435 51.9765 6.40044 51.9491 6.36134 51.9335C6.32224 51.9179 6.25578 51.9257 6.40826 51.5699L6.93217 51.3079L6.88916 51.1594C6.94781 51.0773 7.06901 50.9091 7.08856 50.9678C7.23322 50.6003 7.01036 50.9913 7.06901 50.7606C7.44435 50.4204 7.88224 49.6502 8.09337 49.6815C8.13638 49.4821 7.74149 50.006 8.0269 49.5525C8.26931 49.5681 8.4257 49.0833 8.80495 48.8174C8.78149 48.9934 8.44525 49.2592 8.82841 49.0012C8.85969 48.8448 9.01608 48.6845 9.20765 48.5476C9.40314 48.4186 9.62209 48.2935 9.75111 48.1567C9.71202 48.098 9.86059 47.9494 10.0756 47.7657C10.3063 47.6015 10.6074 47.4021 10.8576 47.1988C10.8576 47.2144 10.9201 47.1831 11.0218 47.1245C11.1313 47.0737 11.2837 46.9955 11.4519 46.9134C11.62 46.8273 11.8077 46.7374 11.9836 46.6475C12.1674 46.5771 12.3433 46.5107 12.484 46.4598L12.4762 46.4872C12.4997 46.3973 12.6522 46.2956 12.8477 46.19C13.0549 46.1079 13.3012 46.0102 13.5084 45.9242C13.5201 46.0102 13.4537 46.0688 13.2425 46.1861L13.6335 46.0493C13.7117 45.9672 13.829 45.9164 14.0871 45.8303L14.0128 45.9594C14.2786 45.889 14.5328 45.7756 14.826 45.7131C14.9707 45.6779 15.1192 45.6388 15.2795 45.6114C15.4398 45.5919 15.608 45.5801 15.7839 45.5762C15.8191 45.4746 15.1818 45.3612 15.9442 45.2126C15.9755 45.2673 16.0107 45.3494 15.8152 45.3925C15.8777 45.3729 16.0459 45.3299 16.1788 45.3494L15.8816 45.455C16.2101 45.4746 16.0459 45.369 16.3078 45.3651C16.3078 45.4433 16.5033 45.412 16.4681 45.4746C16.4016 45.4863 16.2413 45.455 16.1436 45.4902C16.4368 45.4824 16.7887 45.5371 16.8982 45.5958C16.8865 45.5723 16.8865 45.5488 16.9177 45.5254C16.9529 45.5058 16.9959 45.4902 17.1445 45.4941C17.8052 45.5567 17.5316 45.6114 17.8248 45.6935C17.8443 45.6896 17.8483 45.6427 17.8639 45.5958C17.8561 45.3534 18.0086 44.8451 17.8991 44.8255C17.9382 44.6691 17.9968 44.6496 18.0398 44.5988C18.0516 44.3094 18.3917 43.3046 18.1806 43.5783L18.1532 43.6487C18.1532 43.6487 18.1571 43.6174 18.161 43.6018C18.3331 42.6556 18.8687 41.7564 19.1932 40.8688L19.2284 40.8845C19.2871 40.7125 19.3574 40.5326 19.4278 40.3528C19.5138 40.1416 19.6037 39.9305 19.6819 39.7389C19.4982 39.5591 19.3105 39.3949 19.1971 39.3206C19.0798 39.1994 18.9782 38.9882 19.0603 39.0078C18.7592 38.7028 18.6771 38.7067 18.3331 38.1867C18.6576 38.4761 18.2822 38.0382 18.6537 38.4917C18.3213 38.0421 18.2862 37.917 17.8404 37.5025C18.0437 37.6042 17.684 37.0998 17.512 36.8965C17.5628 37.0177 17.6215 37.135 17.684 37.2523C17.4886 37.0255 17.3595 36.7988 17.2149 36.5798L17.4025 36.6228C16.9021 35.6102 16.0849 35.0237 15.9286 34.1284C15.7096 33.9016 16.1553 34.7031 15.9364 34.5155C15.7018 34.0463 15.6588 33.4637 15.5845 33.3191C15.3773 32.6349 15.1388 32.7834 14.9237 32.0601C14.9159 32.1657 14.8299 32.2947 14.5914 31.7825C14.4428 31.2743 14.5719 31.1061 14.7126 31.4072C14.7556 31.5245 14.7595 31.587 14.7439 31.587C14.8104 31.7434 14.912 31.9428 14.8846 31.7317L14.8182 31.6848C14.783 31.4228 14.5523 30.7425 14.6774 30.8794C14.5249 30.5158 14.5523 30.7425 14.6188 31.0279C14.4859 30.3672 14.3177 30.0231 14.2043 29.3428C14.2043 29.4562 14.177 29.5657 14.1496 29.4601C13.9776 28.4592 13.9698 29.0418 13.8056 28.3732C13.8056 27.9744 13.9893 28.4827 13.8212 27.8102C13.8016 27.3879 13.9268 27.7046 13.9932 27.861C13.7938 27.2589 13.8955 26.6959 13.8642 26.3401L13.9385 26.6607C13.8955 26.4691 13.872 26.3088 13.8642 26.1446L13.786 26.3401C13.786 26.1446 13.7743 25.9843 13.8134 25.9843C13.7391 25.7888 13.6726 26.1485 13.5592 25.7576C13.5788 25.4956 13.4615 24.9678 13.5866 24.874C13.571 25.6911 13.7 24.7801 13.7547 25.4643C13.7274 25.3353 13.7274 25.1711 13.7352 24.9756C13.7469 24.9443 13.7625 25.003 13.7704 25.0538C13.8642 24.2797 13.6022 24.7019 13.6179 23.8965C13.6843 23.9982 13.7508 23.7128 13.7391 23.5798C13.7352 23.9043 13.6218 23.7323 13.571 23.4312C13.6492 22.9152 13.5592 22.8682 13.5827 22.5946L13.5397 22.9034C13.481 22.794 13.4889 22.532 13.5084 22.1723C13.5671 22.1449 13.5123 22.5046 13.5475 22.3756C13.4693 21.9612 13.7547 21.4842 13.7625 20.9212C13.8446 20.6709 13.8955 20.9173 13.958 20.6944C13.9776 20.0649 14.1613 20.0454 14.2317 19.3924C14.0988 19.5567 14.1105 19.5958 14.1301 19.1227C14.0636 19.4785 14.0128 19.8343 13.9737 20.194C13.9737 19.9594 13.9659 19.7209 13.9737 19.4863C13.8994 19.8069 13.8994 20.1783 13.8446 20.366C13.8329 20.0258 13.8446 20.0649 13.743 20.2057C13.958 19.7873 13.8368 19.3103 14.0519 18.8255L14.2708 18.8959C14.564 18.1765 14.5132 17.5314 14.9237 16.6048L14.7713 16.8941C14.7361 16.7377 14.9746 16.3037 15.0684 15.9909C15.1271 16.0496 15.2326 15.8697 15.3343 15.7642C15.2717 15.7524 15.6353 15.0956 15.5454 14.947L15.8347 14.5873C16.2531 13.8914 16.081 13.6607 16.5189 13.0039C16.4681 13.2502 16.6988 12.9765 16.4759 13.4535C16.6128 13.2306 16.7457 13.0391 16.7027 13.0078C16.8278 12.91 17.0155 12.347 17.2188 12.1946C17.2579 12.0851 17.2149 12.0108 17.3947 11.7762C17.426 11.7606 17.426 11.7997 17.426 11.7997C17.3947 11.7762 17.6606 11.397 17.4377 11.5534C17.7857 11.3109 18.1337 10.8691 18.509 10.4586C18.6889 10.2475 18.8804 10.0559 19.0642 9.88779C19.244 9.71576 19.4239 9.58282 19.5881 9.50463C19.7914 9.30523 20.0143 9.08237 20.2528 8.88689C20.4834 8.67967 20.718 8.492 20.9292 8.34343C20.9174 8.38252 20.9487 8.3747 20.8666 8.42553C21.4843 8.06583 21.0973 7.98373 21.8284 7.60448C22.2468 7.48719 21.5 7.8938 21.7424 7.79606C21.8558 7.87425 22.0552 7.72959 22.3054 7.56929C22.5517 7.40117 22.8449 7.19786 23.1265 7.15095L23.017 7.22132C23.4236 7.11185 23.8889 6.68959 24.5379 6.47455C24.5379 6.47455 24.5144 6.50583 24.5457 6.51365C24.9328 6.22433 25.7773 5.92328 26.4185 5.75516C26.2386 5.89982 26.137 5.87245 26.2816 5.94282C26.5671 5.86463 26.1604 5.79816 26.7352 5.64959C26.9346 5.66914 27.3646 5.64959 27.435 5.74343L26.8916 5.84117C27.1926 5.92719 27.5953 5.71215 27.8886 5.71606L27.8573 5.78252C28.2756 5.71997 28.4828 5.66523 28.7057 5.61831C28.9246 5.56749 29.1553 5.51275 29.6128 5.52839L29.5189 5.48147C30.0233 5.3329 29.9373 5.56358 30.4416 5.48538L30.5824 5.64959C30.9108 5.62613 31.7475 5.62222 32.3379 5.71215C32.1619 5.73952 31.9 5.7317 31.6302 5.72388C31.3604 5.72388 31.0789 5.7317 30.8639 5.7317C31.0242 5.75125 31.2979 5.78252 31.552 5.80207C31.8062 5.82553 32.0446 5.8529 32.1346 5.82944C32.0016 5.82162 31.8335 5.82944 31.7123 5.78252C31.9195 5.75907 32.1541 5.75516 32.42 5.7747C32.6859 5.79816 32.9752 5.86072 33.2958 5.93501C33.2019 6.06012 33.6046 6.20087 34.0738 6.35335C34.3045 6.44328 34.5547 6.53711 34.7698 6.63094C34.9809 6.72869 35.1529 6.84207 35.2389 6.93591C36.3337 7.28388 37.2564 7.96809 38.3472 8.71876C38.0931 8.25741 38.6717 8.9338 38.7421 8.70313C39.0001 8.88298 39.094 8.95726 39.1057 8.98463C39.3325 9.2114 39.5319 9.46162 39.7469 9.69621C39.872 9.8917 39.4849 9.54764 39.4732 9.60628C39.9776 10.0559 39.6257 9.86433 39.9111 10.2123C39.8994 10.0872 40.1692 10.2788 40.4233 10.572C40.3216 10.4156 40.2083 10.2709 40.1027 10.1185C40.4976 10.3921 40.6031 10.5798 40.7126 10.7597C40.8221 10.9434 40.9316 11.1194 41.2952 11.4321L41.0371 11.2601C41.4125 11.5807 42.2101 12.6207 42.6362 12.9061C42.6675 12.9921 42.6831 13.1212 42.5385 12.9609C43.211 13.9109 44.1415 15.0487 44.4347 15.9323L44.3409 15.8776C44.4504 16.0652 44.6185 16.1669 44.6732 16.4484C44.6459 16.4484 44.5833 16.3937 44.6224 16.4875C44.6849 16.5852 44.9625 16.9762 45.0368 17.2616C44.986 17.1912 44.9352 17.1248 44.8804 17.0583C45.0603 17.6057 45.2675 17.9928 45.4474 18.372C45.6428 18.7473 45.8227 19.1031 45.9791 19.5645C45.8227 19.6075 45.9947 20.495 46.0651 20.9407L46.0377 20.929C46.3036 22.2309 46.5851 23.1341 46.7415 24.3696C46.7141 24.5651 46.6985 24.827 46.6868 25.1242C46.6828 25.4252 46.6828 25.7654 46.6672 26.1173C46.6672 26.4731 46.6477 26.8406 46.6164 27.1964C46.5968 27.5521 46.5421 27.8962 46.4874 28.1973C46.5382 28.0135 46.6164 28.2403 46.6125 28.4631C46.5421 28.7446 46.6164 29.2764 46.4678 29.206L46.4834 29.1043C46.3075 29.2998 46.2371 29.8863 46.1472 30.3398L46.331 30.4571C46.0495 31.0201 45.8892 31.7943 45.6819 32.4941C45.5881 32.846 45.4865 33.1783 45.3731 33.452C45.2675 33.7296 45.1502 33.9485 45.0212 34.0737C44.9547 34.363 44.8101 34.6953 44.724 34.9768L44.6302 34.9143C44.4465 35.274 44.294 35.5359 44.1298 35.8213C43.9773 36.1106 43.7935 36.4078 43.5433 36.8418L43.5824 36.6267C43.2813 37.0959 43.4651 37.397 43.168 37.8349L42.9412 37.8622C42.3586 38.6637 41.604 39.3167 41.0059 40.0908C41.0019 40.0634 40.9863 40.0087 41.0958 39.8914C40.9355 40.0595 40.5836 40.3332 40.3099 40.5795C40.0323 40.818 39.8212 41.0174 39.958 41.0565C39.8603 40.9549 39.1565 41.6703 38.7304 42.0066L38.7421 41.8697C38.441 42.2294 38.4528 42.2803 37.9171 42.6204C37.7803 42.683 37.7607 42.6087 37.9484 42.5344C37.491 42.7299 37.6552 42.812 37.0883 43.0309L37.2603 42.8667C36.7989 43.0896 36.8498 43.0974 36.623 43.2851C36.3454 43.4649 35.7042 43.6213 35.6025 43.5509C35.5595 43.6331 35.3171 43.8051 35.0161 43.8559C34.9653 43.8325 35.0669 43.7777 35.1138 43.7503C34.9027 43.7934 34.7228 43.8442 34.5665 43.8989C34.4062 43.9458 34.2615 43.9928 34.1246 44.0397C33.8549 44.1374 33.6086 44.2078 33.3075 44.2C33.288 44.1648 33.2489 44.157 33.198 44.1531C33.8705 44.0592 34.3944 43.9028 34.3514 43.9341C34.324 43.8364 33.7962 43.9419 34.1833 43.7113C33.7845 43.8911 33.0768 44.1882 32.5373 44.2039C32.5099 44.1961 32.4865 44.1922 32.463 44.1765L32.5177 44.157C32.3965 44.1648 32.2871 44.1804 32.1854 44.2078C32.0173 44.2078 31.9078 44.2 31.7436 44.2078C31.6771 44.1335 31.1219 44.1922 30.8522 44.1843C30.8756 44.2977 30.5159 44.2743 30.8522 44.3681C30.8092 44.3603 30.903 44.3564 31.0868 44.3485C31.1259 44.3485 31.1767 44.3446 31.204 44.3368C31.2001 44.3368 31.1923 44.3446 31.1845 44.3485C31.3643 44.3368 31.5989 44.3329 31.8609 44.3094C31.6498 44.3798 31.423 44.4385 31.118 44.3837C30.9773 44.4541 30.8209 44.5323 30.7349 44.5636C30.3556 44.415 29.644 44.2782 29.5541 44.1726C28.7213 44.1648 27.6227 43.9185 27.0636 43.9732C26.8446 43.938 26.7665 43.8285 26.6453 43.7582C26.743 43.7816 26.8486 43.8051 26.9463 43.8246C27.0128 43.8364 27.0714 43.8481 27.1105 43.8442C27.048 43.8325 26.9932 43.8246 26.9072 43.8051C26.8016 43.7777 26.6883 43.7503 26.5749 43.7191C26.4615 43.6878 26.3481 43.6565 26.2347 43.6252L26.0666 43.5783C26.0666 43.5783 26.051 43.5744 26.0471 43.5744V43.5979L26.0314 43.6409L26.008 43.7269C25.8907 44.1843 25.8086 44.5675 25.8711 44.6066C25.6365 45.1735 25.8398 44.2391 25.6248 45.0523L25.6131 44.9311C25.4606 45.2673 25.355 45.5879 25.2768 45.8968C25.2338 46.0845 25.1908 46.2722 25.1478 46.452C25.1009 46.6788 25.0422 46.9016 25.0188 47.0971C25.3277 47.1558 25.617 47.2027 25.875 47.2691C26.0783 47.3122 26.2621 47.3591 26.4615 47.4216C26.8564 47.5467 27.263 47.7344 27.6813 48.0198C27.5758 47.9534 27.521 47.9182 27.5093 47.8869C28.4203 48.3717 29.3547 48.8761 30.2188 49.4821C31.0868 50.0881 31.8609 50.8114 32.4395 51.6559C32.7836 52.1212 32.8853 52.1212 33.1668 52.3518L33.1511 52.5239L33.6281 52.9227C34.2302 53.5561 34.281 54.2911 35.0434 55.0887L35.0317 54.9284C35.2389 55.2607 35.755 55.941 35.6416 55.9371C35.6768 55.9645 35.7824 55.9997 35.8293 56.1521L35.7824 56.1952L36.3806 56.9576C36.7286 57.6222 36.1147 56.9849 36.6582 57.9233C36.8849 58.2595 37.3854 58.8343 37.3463 58.6818C37.272 58.5371 37.1743 58.2986 37.2251 58.2595L37.4362 58.5684C37.6278 58.541 37.9367 58.7013 37.5887 57.8334L37.1704 57.3368L37.1391 57.114L37.4206 57.5753C37.3385 57.2664 37.1743 57.1374 37.0179 56.9771C37.0335 56.9067 37.014 56.8129 36.9631 56.6956L36.4862 56.2499C36.5057 56.1482 36.7559 56.4141 36.5643 56.0349C36.3376 55.8276 36.58 56.3594 36.275 55.9723C36.1812 55.6712 36.2828 55.7103 36.0326 55.4445C36.0443 55.378 36.1108 55.4249 36.2046 55.5344C35.9857 55.292 35.7198 54.8346 35.5478 54.7525C35.454 54.4279 34.9144 53.8728 35.0747 53.8024C34.9809 53.7437 34.6407 53.4153 34.457 53.1846C34.9457 53.4974 33.808 52.2893 34.066 52.2737C33.6789 52.0664 33.1081 51.1828 32.5373 50.7215C32.5764 50.741 32.6507 50.7801 32.6898 50.8309C32.42 50.5221 32.3809 50.397 32.2245 50.1819C32.072 50.2601 31.6028 49.834 31.2744 49.701C30.989 49.271 31.6224 49.7558 31.595 49.5485C31.5325 49.658 30.8443 49.0872 30.9108 49.2788C30.6606 48.9816 30.6762 49.0481 30.5941 48.8291C30.4299 48.9425 30.2892 48.6454 29.9568 48.5711C29.5502 48.1879 29.9373 48.3404 29.3899 48.0746C29.171 47.8752 29.6714 48.0941 29.6714 48.0941L29.6988 48.1293ZM32.7953 44.892C32.6741 44.9116 32.5686 44.9272 32.5021 44.935C32.5646 44.9272 32.6468 44.9116 32.7914 44.892H32.7953ZM33.9761 44.6926C33.8353 44.7278 33.6516 44.7473 33.4639 44.7825C33.417 44.7513 33.4561 44.7043 33.5734 44.6887C33.5147 44.72 33.7962 44.7043 33.9761 44.6926ZM31.4386 44.2391C31.6185 44.2156 31.6771 44.2391 31.7045 44.2547C31.6185 44.2625 31.5207 44.2703 31.3917 44.2821C31.3878 44.2821 31.3761 44.2938 31.3722 44.2977C31.3878 44.2743 31.4074 44.2547 31.4425 44.2391H31.4386Z" fill="#1B1B1B"/>
<path d="M31.1143 44.3877C31.087 44.3877 31.0752 44.3955 31.04 44.3955C31.0791 44.4033 31.1143 44.4112 31.1495 44.419C31.173 44.4072 31.1925 44.3955 31.2121 44.3838C31.1808 44.3838 31.1456 44.3838 31.1143 44.3838V44.3877Z" fill="#1B1B1B"/>
<path d="M18.2002 43.5901L18.208 43.5667C18.208 43.5667 18.1885 43.6018 18.1768 43.6097C18.1846 43.594 18.1885 43.5979 18.1963 43.5862L18.2002 43.5901Z" fill="#1B1B1B"/>
<path d="M46.0494 34.2847L46.022 34.2769L46.0024 34.3824L46.0494 34.2847Z" fill="#1B1B1B"/>
<path d="M13.0079 45.7562C13.0079 45.7562 12.9649 45.7483 12.918 45.7562C12.9258 45.7601 12.961 45.7562 13.0079 45.7562Z" fill="#1B1B1B"/>
<path d="M10.4744 47.0425L10.1226 47.2419C10.2789 47.1598 10.3884 47.0972 10.4744 47.0425Z" fill="#1B1B1B"/>
<path d="M8.73829 48.3755C8.73047 48.4107 8.73829 48.4263 8.73829 48.442L8.73047 48.3755H8.73829Z" fill="#1B1B1B"/>
<path d="M12.8595 22.7119C12.8595 22.6806 12.8595 22.6533 12.8595 22.6259C12.8477 22.4265 12.8516 22.5633 12.8595 22.7119Z" fill="#1B1B1B"/>
<path d="M14.7126 32.7561C14.6539 32.6623 14.5992 32.5685 14.5483 32.4668C14.607 32.6388 14.6539 32.7757 14.7126 32.7561Z" fill="#1B1B1B"/>
<path d="M16.4526 11.8191C16.4526 11.8191 16.48 11.784 16.4956 11.7644L16.4526 11.8191Z" fill="#1B1B1B"/>
<path d="M14.3804 32.0171C14.4234 32.1969 14.482 32.3377 14.5485 32.4628C14.5016 32.3181 14.4507 32.15 14.3804 32.0171Z" fill="#1B1B1B"/>
<path d="M7.75726 50.1897L7.28418 50.7292C7.39756 50.6589 7.54222 50.5611 7.35456 50.8231C8.0114 50.1936 7.15907 50.9091 7.75726 50.1897Z" fill="#1B1B1B"/>
<path d="M9.29389 48.5986C9.02802 48.8723 9.33689 48.6377 9.3408 48.6729C9.49719 48.4891 9.53629 48.4422 9.29389 48.5986Z" fill="#1B1B1B"/>
<path d="M18.9978 38.8709L19.0955 38.8318C18.8883 38.6207 19.0642 38.8553 18.9978 38.8709Z" fill="#1B1B1B"/>
<path d="M16.687 36.74L16.8043 37.0215L16.9607 37.084L16.687 36.74Z" fill="#1B1B1B"/>
<path d="M16.3547 34.8125L16.4289 34.9181C16.3351 34.7813 16.2569 34.6405 16.167 34.5037L16.3547 34.8125Z" fill="#1B1B1B"/>
<path d="M19.2401 10.0325L19.0916 10.009C18.9665 10.1654 19.0368 10.2905 19.2401 10.0325Z" fill="#1B1B1B"/>
<path d="M29.5269 5.61835C29.652 5.68482 29.9726 5.71609 30.1759 5.67309C29.9178 5.64572 29.6598 5.60662 29.5269 5.61835Z" fill="#1B1B1B"/>
<path d="M46.0728 31.0122L46.0845 30.7776L46.022 31.2116L46.0728 31.0122Z" fill="#1B1B1B"/>
<path d="M1.67334 63.4985C1.67334 63.4985 2.45529 55.6789 5.97409 51.7692C9.49289 47.8594 11.8388 45.1226 15.3576 45.1226C15.3576 45.1226 13.0586 48.8916 20.4403 49.8143C26.6959 50.5962 25.9139 47.0774 25.9139 47.0774C27.2394 47.7499 30.8637 49.4937 32.1696 50.9872C34.9064 54.115 37.2523 58.4158 37.2523 58.4158" fill="#9B9B9B"/>
<path d="M32.5723 51.2532L32.5957 51.3001C32.5957 51.3001 32.584 51.2688 32.5723 51.2532Z" fill="#1B1B1B"/>
<path d="M28.5922 48.2543C28.6274 48.27 28.6469 48.27 28.6508 48.2622C28.6156 48.2504 28.5883 48.2426 28.5922 48.2543Z" fill="#1B1B1B"/>
<path d="M27.8926 47.7578C27.8926 47.7578 27.9199 47.7774 27.9356 47.7891C27.9239 47.7735 27.9082 47.7578 27.8926 47.7578Z" fill="#1B1B1B"/>
<path d="M32.5724 51.2533L32.5099 51.1321C32.4786 51.1438 32.5372 51.1985 32.5724 51.2533Z" fill="#1B1B1B"/>
<path d="M33.2725 51.961C33.2725 51.961 33.2842 51.9414 33.2842 51.9297C33.2764 51.9375 33.2725 51.9453 33.2725 51.961Z" fill="#1B1B1B"/>
<path d="M26.3716 46.8625C26.3716 46.8625 26.3794 46.8665 26.3833 46.8704C26.4498 46.8938 26.4146 46.8782 26.3716 46.8625Z" fill="#1B1B1B"/>
<path d="M15.3966 46.7766C15.3575 46.9291 15.2481 46.5655 15.2207 46.7922C15.2481 46.7688 15.3927 46.9565 15.3966 46.7766Z" fill="#1B1B1B"/>
<path d="M24.3579 49.1965C24.3579 49.1965 24.3853 49.2122 24.4009 49.2122C24.397 49.2044 24.3853 49.2004 24.3579 49.1965Z" fill="#1B1B1B"/>
<path d="M23.1383 49.6267C23.1031 49.6267 23.0914 49.615 23.0444 49.6267C23.0483 49.6267 23.0523 49.6345 23.0601 49.6345C23.0757 49.6228 23.0992 49.615 23.1383 49.6228V49.6267Z" fill="#1B1B1B"/>
<path d="M21.7422 49.6814C21.7422 49.6814 21.7578 49.6931 21.7656 49.697C21.7813 49.697 21.7969 49.697 21.8087 49.6931L21.7383 49.6814H21.7422Z" fill="#1B1B1B"/>
<path d="M23.1618 50.2795L22.9194 50.2874C22.9859 50.2874 23.0758 50.2874 23.1618 50.2795Z" fill="#1B1B1B"/>
<path d="M8.89114 49.0872L8.86377 49.1302C8.86377 49.1302 8.89114 49.1028 8.89114 49.0872Z" fill="#1B1B1B"/>
<path d="M22.2116 50.3343C22.1686 50.303 22.1256 50.2874 22.0786 50.2756C22.0708 50.2835 22.0591 50.2874 22.0513 50.2952L22.2116 50.3304V50.3343Z" fill="#1B1B1B"/>
<path d="M3.02243 58.9711C3.08108 58.7639 2.94815 58.846 2.90123 58.7873C2.94033 58.5332 3.0107 58.6935 3.08499 58.6231C3.10063 58.4628 3.03416 58.3143 3.07326 58.2009C3.09281 58.2009 3.10454 58.1774 3.12018 58.2087C3.0889 58.021 3.26875 57.7278 3.22183 57.5049C3.23356 57.4932 3.24529 57.4893 3.25311 57.4893C3.19055 57.5049 3.13973 57.4893 3.10454 57.4737C3.13191 57.3798 3.09281 57.2821 3.17101 57.2664C3.15146 57.3212 3.17492 57.3368 3.19055 57.3681V57.2625C3.31567 57.2078 3.18273 57.4072 3.25702 57.4307C3.28048 57.2313 3.2883 56.9888 3.36258 56.8559C3.46815 56.8559 3.27657 57.2 3.42514 57.0397L3.31176 57.2469C3.51898 57.1296 3.25311 57.3759 3.46815 57.2782C3.59717 57.0006 3.53461 56.938 3.66755 56.6604C3.64018 56.5783 3.58153 56.6526 3.55416 56.5705C3.6089 56.1209 3.90995 56.3398 3.90604 55.9958C3.87476 55.8941 3.77311 55.8159 3.92168 55.6322L3.99597 55.7494C4.12108 55.4797 3.90604 55.5266 4.10544 55.2725C4.12108 55.3389 4.0468 55.4992 4.07416 55.464C4.23446 55.3155 4.07416 55.3076 4.14063 55.1669L4.24619 55.1786C4.37131 54.8932 4.44168 54.5374 4.59807 54.2246C4.61371 54.2559 4.61371 54.3224 4.68018 54.2637C4.76619 54.0604 4.88349 53.8571 5.0086 53.6655C5.13762 53.4701 5.29792 53.3058 5.43477 53.1455L5.45431 52.9618C5.47777 52.9305 5.52469 52.9266 5.51687 52.9696C5.63416 52.8523 5.47777 52.9305 5.49341 52.8445C5.54033 52.7624 5.60289 52.7702 5.59116 52.8367C5.69672 52.563 5.97822 52.0977 6.24018 51.9218L6.21672 51.9843C6.40439 51.828 6.26755 51.6637 6.47867 51.5464L6.46304 51.5894C6.84619 51.2219 7.17853 50.7332 7.54213 50.5221C7.50304 50.3813 7.93702 50.1741 7.83146 50.0334C8.09732 49.8692 8.06213 49.9513 8.39446 49.6854C8.47657 49.6072 8.42965 49.4899 8.51176 49.3726L8.57822 49.4313L8.64078 49.2279H8.78935L8.86364 49.1224C8.82454 49.1576 8.75807 49.1732 8.74243 49.1498C8.85582 48.9738 9.13341 48.837 9.17251 48.8682C9.26634 48.7353 9.36409 48.6063 9.46183 48.4773C9.48138 48.5125 9.43055 48.575 9.40319 48.6376C9.52048 48.3913 9.50484 48.6728 9.6104 48.4499C9.57522 48.4577 9.58695 48.3991 9.57522 48.3834C9.69642 48.3404 9.888 48.1567 10.017 48.0081L10.0327 48.0785C10.3024 47.8478 10.5683 47.5585 10.8733 47.3082C10.7481 47.3786 10.7012 47.2731 10.7872 47.191L10.8811 47.234C10.9045 47.1401 10.7638 47.2809 10.8381 47.1284C10.9632 47.0463 10.9827 47.1558 10.9358 47.2301L11.057 47.0971C11.0844 47.1128 11.057 47.1519 11.0727 47.187C11.0961 47.0971 11.3737 47.0776 11.3972 46.9329L11.4206 46.9485C11.7412 46.7335 11.8663 46.5967 12.1361 46.4403C12.1009 46.366 12.2182 46.323 12.2651 46.2174C12.4802 46.1158 12.746 46.0806 12.9924 45.9516C13.1566 45.8421 13.0197 45.8655 13.0823 45.7873C13.1253 45.8538 13.3833 45.7522 13.266 45.8499C13.5749 45.7287 13.6609 45.6935 14.0558 45.5371C14.005 45.5176 13.9503 45.5176 13.9698 45.4863C14.0441 45.455 14.1457 45.4707 14.1457 45.5137L14.1262 45.5254C14.22 45.4863 14.3295 45.4667 14.4429 45.4589C14.4976 45.455 14.5602 45.4511 14.6071 45.4511C14.6384 45.4511 14.6618 45.4589 14.6775 45.4707C14.7478 45.5137 14.7478 45.5488 14.7596 45.5567C14.7596 45.5606 14.7713 45.5645 14.7948 45.5645H14.7869C14.8065 45.5762 14.8221 45.6153 14.8339 45.674C14.8339 45.6622 14.826 45.6896 14.8221 45.6974C14.8182 45.7091 14.8143 45.7131 14.8104 45.7092C14.8026 45.7092 14.7987 45.6896 14.7948 45.6661C14.7791 45.6544 14.7557 45.6583 14.7322 45.6427C14.7322 46.147 14.5993 46.4364 14.7361 46.8469C14.7009 46.9329 14.697 47.0541 14.7205 47.187C14.7439 47.32 14.8221 47.4529 14.8886 47.5937C14.9472 47.7383 15.0645 47.8478 15.1388 47.9729C15.2209 48.0941 15.2874 48.2114 15.346 48.3052L15.3656 48.2544C15.4829 48.2974 15.4399 48.3678 15.4907 48.4343C15.5103 48.3952 15.436 48.317 15.5063 48.3443C16.2062 48.9425 17.0155 49.443 17.86 49.7675C18.1689 49.877 18.1142 49.5564 18.4739 49.7792L18.337 49.8457C18.9939 49.9122 19.639 50.1233 20.2763 50.1233C20.2372 50.1389 20.2333 50.1663 20.1707 50.1585C20.2919 50.2562 20.6633 50.221 20.6712 50.1624C20.7689 50.178 20.6868 50.2171 20.7454 50.2523C20.8745 50.307 21.0895 50.1937 21.156 50.268C21.1677 50.2797 21.1169 50.2875 21.0934 50.2914C21.1833 50.264 21.5 50.3383 21.4218 50.2484C21.6564 50.3031 21.8793 50.221 22.0709 50.2719C22.196 50.1819 22.4814 50.3227 22.5166 50.1858C22.5048 50.3188 22.9506 50.2562 23.0952 50.1819C23.0483 50.2249 23.2321 50.2132 23.1812 50.2719C23.3572 50.264 23.5136 50.1898 23.4706 50.1311C23.6465 50.178 23.8029 50.1116 23.9397 50.0568C24.0766 50.0021 24.19 49.9278 24.3151 49.9943C24.8116 49.7675 25.2339 49.443 25.5506 49.0598C25.5897 49.1067 25.5075 49.2319 25.402 49.3101C25.3003 49.3961 25.1987 49.4782 25.2495 49.529C25.3394 49.443 25.4137 49.3609 25.4802 49.2866C25.5427 49.2006 25.5897 49.1146 25.6444 49.0364C25.7539 48.88 25.8281 48.704 25.9572 48.5085C26.0197 48.403 25.9885 48.6024 25.9767 48.6454C26.0666 48.4147 26.1488 48.1958 26.1996 47.9729C26.2152 47.926 26.2191 47.8478 26.2269 47.8204V47.7657C26.2269 47.7305 26.2191 47.6914 26.1996 47.6328C26.2113 47.6484 26.223 47.6758 26.2348 47.6992C26.2309 47.6679 26.2504 47.6679 26.1918 47.5937L26.2074 47.6406C26.1605 47.6171 26.1136 47.5155 26.0588 47.3747C26.0432 47.3317 26.0119 47.2574 26.0119 47.2418C26.0197 47.2301 26.0236 47.2183 26.0197 47.2066C26.0979 47.4412 26.2778 47.3864 26.2973 47.6367C26.3051 47.6288 26.313 47.6015 26.2973 47.5467C26.3364 47.578 26.3403 47.6093 26.3325 47.6562C26.4029 47.6562 26.3794 47.5741 26.4928 47.6328C26.4733 47.6562 26.4537 47.6562 26.4342 47.6875C26.4498 47.664 26.5319 47.6719 26.6023 47.6875C26.6727 47.7031 26.7509 47.7344 26.8369 47.7892C26.8173 47.8009 26.8291 47.8322 26.7743 47.8009C27.091 47.9534 27.3725 47.9377 27.6892 48.1645C27.5289 48.2231 27.783 48.2622 27.7518 48.3678L27.9472 48.4343L27.9003 48.3482C28.0606 48.4343 28.2366 48.4421 28.3539 48.5476L28.2131 48.5242L28.5181 48.6689L28.3695 48.5398C28.5572 48.5789 28.4203 48.4069 28.6158 48.5516C28.5689 48.5359 28.7722 48.6415 28.823 48.7431C28.9169 48.7549 29.0185 48.7705 29.1202 48.8604C29.1319 48.9073 29.0342 48.9504 29.042 48.9816C29.1632 48.9464 29.4212 49.1693 29.562 49.1458C29.519 49.1458 29.4877 49.1928 29.4916 49.2123L29.5933 49.1888C29.6519 49.2514 29.6558 49.267 29.6206 49.3022C29.8279 49.443 29.6245 49.1419 29.8474 49.3492C29.8239 49.3413 29.8278 49.357 29.7809 49.3413C30.0155 49.5251 30.297 49.6072 30.5003 49.7949C30.5042 49.9317 30.2892 49.6815 30.3127 49.8105C30.645 50.0138 31.0633 50.1624 31.337 50.4282L31.2901 50.3735C31.4309 50.2875 31.4621 50.6081 31.6498 50.6824C31.6068 50.6589 31.5481 50.7058 31.5677 50.7019C31.7436 50.8896 31.9665 51.0225 32.2636 51.304L32.2011 51.2923C32.2754 51.4331 32.4513 51.6168 32.5412 51.7576C32.6038 51.7693 32.6585 51.8514 32.6663 51.7693C32.8149 52.3089 33.374 52.4652 33.4991 52.9461C33.4639 52.9031 33.3936 52.864 33.417 52.8992L33.679 53.1925C33.7142 53.126 33.679 53.126 33.679 53.0282C33.7415 53.0439 33.8315 53.1143 33.8901 53.1925C33.7494 53.0752 33.8041 53.2589 33.8158 53.341C33.8236 53.3176 33.8588 53.3254 33.8706 53.3098C33.894 53.5443 34.0035 53.255 34.1012 53.5326L34.0621 53.5404C34.1364 53.6147 34.2303 53.6655 34.2889 53.7633C34.2537 53.8454 34.1951 53.6929 34.1364 53.7242C34.2303 53.8493 34.4375 53.8923 34.457 54.0565C34.4023 54.0135 34.3436 53.9353 34.2889 53.8923C34.3045 54.0722 34.3319 54.0722 34.3866 54.1777V54.166L34.5 54.4084L34.4805 54.338C34.7581 54.3849 34.7385 54.6469 34.9966 54.7955C34.7463 54.6508 34.9106 54.7994 34.8285 54.8346C34.8441 54.9049 34.8793 55.0066 34.8441 54.9949C34.9731 55.0613 34.9106 55.2021 35.0982 55.292C35.0787 55.3155 35.1686 55.4054 35.0943 55.421C35.2038 55.5461 35.1139 55.3624 35.153 55.3546C35.3719 55.5149 35.3758 55.9137 35.6808 56.1522C35.8919 56.3867 36.0053 56.3867 36.2008 56.6096C36.2125 56.7191 36.0718 56.594 36.0718 56.594C36.1187 56.7504 36.1851 56.8481 36.2907 56.9576C36.2555 56.9458 36.2516 56.981 36.2477 57.0358C36.3142 57.1335 36.3767 57.0514 36.4236 57.2078C36.3806 57.2 36.322 57.1961 36.2633 57.1648C36.3572 57.2704 36.4745 57.3642 36.5722 57.4776C36.5488 57.5362 36.4627 57.4385 36.408 57.4111C36.5097 57.5401 36.6621 57.7552 36.756 57.7591L36.7286 57.6535C36.7638 57.7043 36.6856 57.7161 36.6504 57.6848C36.5253 57.5949 36.5722 57.4971 36.5918 57.4737L36.6582 57.5558C36.7481 57.3798 36.4236 57.2078 36.322 57.024L36.4706 57.0358L36.2751 56.9028C36.2751 56.8481 36.322 56.7855 36.3885 56.8637C36.3611 56.7034 36.2829 56.7738 36.2712 56.6291C36.2712 56.6096 36.279 56.6135 36.2907 56.6213L36.1812 56.5158C36.2164 56.5275 36.2438 56.4493 36.2751 56.5353C36.1969 56.2734 35.974 56.2225 35.9975 56.0896L36.017 56.1052C35.7863 55.8159 35.9232 56.1209 35.6886 55.9449L35.7746 55.6713L35.6808 55.6908C35.6612 55.6556 35.63 55.5892 35.6651 55.5813C35.5361 55.4953 35.6456 55.6243 35.5518 55.5813C35.5244 55.3819 35.2468 55.1825 35.3445 55.0692C35.2507 55.0535 35.3954 55.2412 35.2507 55.1082C35.3485 54.9792 35.106 54.9362 35.0709 54.7564C35.1647 54.7564 35.2155 54.9089 35.1842 54.7329C35.02 54.7212 35.0279 54.4475 34.9262 54.3458C34.8324 54.4006 34.719 54.1191 34.5548 53.947C34.5939 53.9392 34.3475 53.5522 34.2537 53.3488H34.2733C34.1599 53.3723 34.0426 53.1768 33.9292 53.0595C33.9839 53.0283 34.023 53.0361 34.0973 53.0908L34.0035 52.9657C33.9527 52.9579 33.9097 52.9266 33.8432 52.8562L33.9292 52.8406C33.8041 52.6764 33.6047 52.5669 33.4874 52.3206C33.4209 52.3558 33.4483 52.6138 33.2411 52.4222C33.2684 52.391 33.3154 52.3401 33.374 52.387C33.3545 52.3714 33.2958 52.3401 33.2802 52.2893L33.4014 52.3362C33.3506 52.2228 33.3193 52.3206 33.2645 52.2424C33.3115 52.2072 33.2528 52.1603 33.2997 52.1446C33.3193 52.1603 33.331 52.2267 33.374 52.2424C33.3154 52.1485 33.2606 52.0234 33.2684 51.9648C33.2489 51.9922 33.2059 52.0117 33.1512 51.957C33.0182 51.8006 33.1629 51.8592 33.1082 51.7458C33.0456 51.7302 32.9948 51.6012 32.9244 51.6559C32.8853 51.609 32.9127 51.5738 32.9166 51.5425C32.8227 51.48 32.5842 51.1672 32.596 51.3158L32.6077 51.3392L32.5921 51.3275C32.4474 51.2219 32.3379 51.0773 32.2363 50.9248C32.119 50.784 32.0173 50.6198 31.8688 50.5221L31.8883 50.5025C31.7124 50.3813 31.5208 50.2093 31.3644 50.1663C31.3175 50.1272 31.2823 50.0334 31.3253 50.0216C31.1845 49.9434 31.1494 49.9591 30.993 49.7831C31.1533 49.8379 30.9734 49.7128 31.1494 49.8496C30.9969 49.7049 30.9851 49.6385 30.7545 49.5798C30.86 49.5603 30.6763 49.4156 30.5824 49.3765L30.6724 49.5016C30.5746 49.4469 30.5003 49.3882 30.4182 49.3296L30.516 49.2749C30.2227 48.9425 29.7614 49.0364 29.5894 48.704C29.4603 48.704 29.7614 48.8643 29.6363 48.88C29.476 48.7705 29.3704 48.5476 29.3196 48.5164C29.1163 48.3365 29.0342 48.5164 28.8074 48.3482C28.823 48.3952 28.8074 48.4929 28.608 48.4225C28.4438 48.317 28.4712 48.1801 28.5924 48.2153C28.6354 48.2349 28.651 48.2544 28.6432 48.2661C28.7057 48.2857 28.7839 48.3131 28.7331 48.2427L28.694 48.2622C28.6275 48.184 28.3891 48.0589 28.4712 48.0394C28.3265 47.9964 28.3891 48.0589 28.4751 48.1293C28.2796 47.9651 28.1349 47.9416 27.9238 47.7931C27.9512 47.8282 27.9629 47.883 27.9277 47.8634C27.6149 47.6484 27.7518 47.8439 27.5172 47.7422C27.4155 47.6288 27.6227 47.6523 27.3725 47.5741C27.2513 47.4725 27.3842 47.4764 27.4546 47.4803C27.2161 47.4334 27.0871 47.2418 26.9737 47.1714L27.0949 47.2027C27.0206 47.1831 26.9698 47.1558 26.9151 47.1284L26.9463 47.2222C26.8877 47.1792 26.833 47.1519 26.8486 47.1245C26.7626 47.1323 26.8486 47.2535 26.6883 47.2418C26.5749 47.144 26.3169 47.0971 26.2621 46.9681C26.4733 47.0893 26.4615 47.0619 26.4459 47.0189C26.4303 46.9798 26.3951 46.9212 26.6023 47.0189C26.5202 46.9916 26.4303 46.9446 26.313 46.8704C26.2934 46.8508 26.3286 46.8547 26.3599 46.8704C25.8633 46.5263 26.1605 46.886 25.7343 46.667C25.7421 46.6397 25.6952 46.5928 25.6366 46.5419C25.5779 46.495 25.4958 46.4403 25.488 46.4481C25.5545 46.4716 25.6209 46.538 25.6131 46.5615C25.617 46.581 25.6014 46.5849 25.5975 46.6045C25.5975 46.6279 25.5936 46.6475 25.5779 46.667C25.5701 46.667 25.5623 46.6592 25.5623 46.6592C25.5701 46.9446 25.6639 47.0971 25.6718 47.2457C25.6718 47.187 25.6718 47.1284 25.6718 47.0698C25.746 47.2105 25.746 47.3434 25.7734 47.5507C25.7343 47.5507 25.7304 47.3473 25.7187 47.4099C25.7812 47.5624 25.7421 47.6562 25.6991 47.7696C25.6679 47.8478 25.6053 47.9221 25.6131 48.0198C25.5584 48.0902 25.5193 48.0003 25.4763 48.0589C25.4567 48.2622 25.3433 48.227 25.2808 48.4147C25.3707 48.403 25.3629 48.3795 25.3433 48.5476C25.3863 48.4343 25.4489 48.3404 25.4685 48.2231C25.4763 48.3052 25.4685 48.3873 25.4528 48.4695C25.5193 48.3795 25.5193 48.2466 25.5545 48.1919C25.5662 48.3131 25.5545 48.3013 25.6248 48.274C25.4802 48.3717 25.531 48.575 25.3746 48.6845L25.2417 48.575C25.1244 48.6376 25.0814 48.7392 25.0071 48.837C24.925 48.923 24.8507 49.0481 24.6865 49.1107C24.7217 49.0989 24.7647 49.0989 24.796 49.0794C24.796 49.1654 24.6122 49.1889 24.5301 49.267C24.5145 49.2123 24.4441 49.224 24.3854 49.2123C24.4128 49.2592 24.1509 49.2983 24.1626 49.4156L23.9906 49.3961C23.7208 49.4625 23.7169 49.6307 23.4354 49.6776C23.5057 49.5994 23.3767 49.5837 23.5487 49.5016C23.4588 49.5212 23.3767 49.5251 23.3806 49.5642C23.3259 49.5446 23.1382 49.6893 23.0444 49.6346C23.0092 49.6619 23.0014 49.7245 22.8958 49.7284C22.8841 49.7167 22.8958 49.701 22.8958 49.701C22.8958 49.7284 22.7316 49.7558 22.8333 49.8105C22.5322 49.6737 22.0122 49.8496 21.7581 49.6932C21.5509 49.7206 21.3006 49.7088 21.1091 49.6932C21.1208 49.6776 21.1091 49.6658 21.1481 49.6737C20.894 49.5955 20.9722 49.8261 20.6829 49.7401C20.5421 49.6346 20.8471 49.7049 20.7533 49.6619C20.7337 49.4704 20.3936 49.6619 20.2098 49.5094H20.2606C20.1199 49.4195 19.8853 49.5173 19.639 49.4664C19.639 49.4664 19.6546 49.4508 19.6468 49.4391C19.463 49.5094 19.1346 49.4938 18.8961 49.4547C18.986 49.4 19.0095 49.443 18.9821 49.357C18.8766 49.3413 18.986 49.4821 18.771 49.4508C18.7124 49.3961 18.5716 49.3218 18.5716 49.2397L18.7671 49.2827C18.6928 49.1576 18.513 49.224 18.4152 49.181L18.4387 49.1419C18.1337 49.0872 18.1024 49.1889 17.7897 49.0716L17.8092 49.1146C17.5981 49.1615 17.688 49.0051 17.4886 49.0207L17.4808 48.8956C17.3557 48.8956 17.0585 48.837 16.8513 48.7588C17.0038 48.7314 17.2345 48.8174 17.3987 48.8174C17.2853 48.7822 17.0429 48.6571 16.9608 48.6845C17.0077 48.6962 17.0742 48.6962 17.1054 48.7314C16.9412 48.747 16.7418 48.7079 16.5385 48.5946C16.6128 48.5085 16.4994 48.4108 16.3587 48.3052C16.2883 48.2544 16.214 48.1958 16.1554 48.141C16.1006 48.0824 16.0694 48.012 16.0694 47.9534C15.9872 47.9025 15.913 47.84 15.8426 47.7735C15.7683 47.707 15.7331 47.6171 15.6823 47.535C15.5689 47.3747 15.5298 47.1792 15.4438 46.9876C15.3187 47.187 15.4086 46.8704 15.2444 46.9407C15.2092 46.8391 15.2014 46.7961 15.2131 46.7882C15.2131 46.6788 15.2639 46.5654 15.2874 46.4637C15.3343 46.3894 15.3343 46.5576 15.3734 46.5458C15.3773 46.3308 15.436 46.4559 15.4907 46.3191C15.4242 46.3464 15.4047 46.2409 15.4399 46.1236L15.3421 46.2878C15.3109 46.1314 15.35 46.0649 15.4047 46.0063C15.4321 45.9789 15.4555 45.9476 15.4712 45.9085C15.4751 45.8968 15.479 45.889 15.4829 45.8734C15.4907 45.8499 15.4829 45.8734 15.4985 45.8069C15.522 45.7404 15.5454 45.674 15.565 45.5919L15.5376 45.803C15.5728 45.6896 15.6432 45.5176 15.7175 45.326C15.8191 45.1227 15.9403 44.8881 16.0224 44.7122C15.9638 44.7161 15.9325 44.7161 15.8856 44.7239C15.8309 44.7317 15.7761 44.7434 15.7253 44.7513C15.6236 44.7708 15.5337 44.7943 15.4555 44.8255C15.4281 44.806 15.3969 44.7591 15.5533 44.7395C15.3656 44.7395 15.1506 44.7591 14.9433 44.7825C14.74 44.7982 14.5094 44.8451 14.4233 44.8764C14.1848 44.9389 13.9659 44.9937 13.786 45.0054L13.8095 44.9546C13.7274 44.9898 13.6844 45.0719 13.571 45.0562C13.571 45.0367 13.5945 45.0054 13.5554 45.0132C13.5124 45.0367 13.356 45.1422 13.2426 45.1618L13.3169 45.0836C13.0979 45.1305 12.9415 45.2204 12.8047 45.3104C12.6718 45.412 12.5584 45.5254 12.3981 45.6153C12.3707 45.5567 12.273 45.5528 12.1596 45.5762C12.0501 45.6036 11.9289 45.6544 11.8468 45.6896V45.6701C11.6083 45.7873 11.4363 45.9281 11.2799 46.0806C11.1196 46.2252 10.9749 46.3777 10.8068 46.5458C10.4862 46.6045 9.99356 47.1128 9.60258 47.3708C9.67296 47.3395 9.66123 47.4529 9.6104 47.5194C9.51266 47.5741 9.4501 47.7892 9.37973 47.6914L9.41101 47.6679C9.27025 47.6367 9.13341 47.8204 9.00439 47.9377L9.0904 48.0667C8.60168 48.2231 8.31236 48.9738 7.99567 49.0129C7.94875 49.1185 7.85492 49.2162 7.808 49.3218L7.74935 49.2592C7.52649 49.4664 7.41702 49.572 7.17852 49.8613L7.18634 49.7636C7.03777 49.9161 7.18634 50.1233 7.05732 50.268L6.9283 50.2289C6.68198 50.5025 6.35356 50.7058 6.19326 51.0499C6.18544 51.0343 6.16589 51.003 6.20108 50.9522C6.08379 51.0773 5.69281 51.394 5.86093 51.4604C5.77492 51.3822 5.60289 51.7458 5.51296 51.9374L5.46995 51.8592C5.44258 52.0586 5.46213 52.0821 5.33311 52.2854C5.2901 52.3245 5.25101 52.2854 5.31356 52.2385C5.16499 52.3636 5.27446 52.3949 5.11416 52.5591V52.4574C5.00469 52.6138 5.03597 52.6177 5.02815 52.7428C4.98905 52.8601 4.8092 53.0361 4.73101 53.0204C4.75446 53.0673 4.74665 53.1885 4.66454 53.2707C4.63326 53.2707 4.64108 53.2237 4.64499 53.2042C4.42604 53.4505 4.4886 53.6694 4.30875 53.818C4.28138 53.8102 4.26574 53.818 4.24619 53.8258C4.37522 53.603 4.47687 53.4231 4.47296 53.4466C4.40649 53.4075 4.29311 53.5834 4.28529 53.384C4.2501 53.56 4.21883 53.8689 4.0898 54.0292C4.07807 54.0331 4.06634 54.0409 4.05461 54.0409V54.0174C4.02725 54.0565 4.01552 54.0956 4.00379 54.1347C3.96078 54.1855 3.93732 54.2207 3.90995 54.2755C3.84349 54.2676 3.77702 54.4749 3.7301 54.5687C3.8083 54.5961 3.73792 54.7134 3.85522 54.6273C3.84349 54.6391 3.85522 54.6039 3.88258 54.5413C3.88649 54.5257 3.89431 54.5101 3.89431 54.4983V54.5061C3.92559 54.4436 3.96078 54.3654 4.00379 54.2716C4.00379 54.3654 4.00379 54.4553 3.90995 54.5374C3.93341 54.6078 3.95687 54.686 3.9686 54.7251C3.80439 54.7994 3.63236 55.0222 3.55025 55.0261C3.46033 55.3311 3.29221 55.726 3.35867 55.9606C3.34304 56.0505 3.27657 56.0388 3.24138 56.0622C3.24529 56.0075 3.27266 55.9528 3.26093 55.9176C3.22574 56.0935 3.0889 56.418 3.17492 56.4923C3.05371 56.6878 3.12409 56.3398 3.03807 56.637L3.02243 56.5861C2.6471 57.1022 2.9677 57.6027 2.55717 58.1774C2.58454 58.1383 2.59627 58.1149 2.61582 58.111C2.31086 58.8225 2.2874 59.6514 1.98243 60.3513C1.90815 60.5546 1.9707 60.5898 1.99416 60.7305L1.89642 60.7579L1.95507 60.9964C1.9707 61.3209 1.63446 61.4929 1.70875 61.9152L1.77522 61.8761C1.74003 62.0168 1.73221 62.3296 1.66965 62.2983C1.67747 62.314 1.72439 62.3531 1.68529 62.4039H1.63837L1.66574 62.7636C1.59537 63.0295 1.4898 62.6932 1.42725 63.092C1.42725 63.2445 1.50935 63.5338 1.54845 63.4791C1.55627 63.4165 1.59537 63.3266 1.64228 63.3305L1.6501 63.4673C1.78304 63.5064 1.90815 63.6198 2.04108 63.311L1.98634 63.0725L2.06063 63.0099L2.03717 63.2015C2.11537 63.0998 2.06845 63.0255 2.04108 62.9434C2.08018 62.9317 2.10755 62.9004 2.1271 62.8574L2.02935 62.615C2.088 62.5955 2.11928 62.7284 2.1701 62.5837C2.1271 62.4704 2.03717 62.6658 2.02153 62.486C2.09973 62.3883 2.14273 62.4273 2.11146 62.2905C2.15055 62.2788 2.16619 62.3101 2.17401 62.3609C2.14664 62.2397 2.20529 62.0598 2.14273 61.9895C2.23657 61.8878 2.18965 61.6024 2.31476 61.6376C2.29131 61.5985 2.25221 61.4225 2.26785 61.317C2.38514 61.5359 2.34995 60.9299 2.50634 61.012C2.39687 60.8439 2.55326 60.4959 2.5298 60.234C2.53762 60.2496 2.55326 60.2809 2.54153 60.3004C2.58454 60.1636 2.63146 60.1323 2.67837 60.0502C2.5689 60.0072 2.59627 59.7843 2.55717 59.6514C2.70574 59.5067 2.66273 59.7843 2.78003 59.757C2.68619 59.7452 2.76048 59.4403 2.67055 59.4794C2.7683 59.366 2.7292 59.3777 2.83867 59.3347C2.70574 59.2761 2.83867 59.2096 2.78785 59.0806C2.90905 58.9125 2.93251 59.0688 2.94424 58.8538C3.01461 58.7678 3.0107 58.9633 3.0107 58.9633L3.02243 58.9711ZM4.5707 54.2168C4.55116 54.2559 4.53552 54.2872 4.52379 54.3107C4.53161 54.2911 4.54725 54.2637 4.5668 54.2168H4.5707ZM4.77401 53.8493C4.74664 53.8923 4.71537 53.947 4.68018 54.0057C4.6489 54.0057 4.62935 53.9783 4.65281 53.9392C4.65672 53.9705 4.71928 53.8884 4.77401 53.8454V53.8493ZM3.84349 54.3771C3.86304 54.3107 3.88649 54.295 3.90604 54.295C3.89431 54.3263 3.88258 54.3615 3.86304 54.4084V54.4201C3.86304 54.4201 3.8474 54.3928 3.84349 54.3771Z" fill="#1B1B1B"/>
<path d="M8.59377 49.4585L8.57814 49.4429L8.56641 49.482L8.59377 49.4585Z" fill="#1B1B1B"/>
<path d="M26.2388 47.7031C26.2388 47.7031 26.2388 47.7109 26.2388 47.7149C26.2544 47.75 26.2466 47.7305 26.2388 47.7031Z" fill="#1B1B1B"/>
<path d="M28.8268 48.7471C28.7838 48.7393 28.7447 48.7354 28.7056 48.7236C28.7603 48.7627 28.8033 48.7862 28.8268 48.7471Z" fill="#1B1B1B"/>
<path d="M23.189 50.2795V50.2756L23.1616 50.2795H23.189Z" fill="#1B1B1B"/>
<path d="M28.5571 48.6375C28.608 48.6844 28.6549 48.7078 28.7057 48.7235C28.6627 48.6922 28.6119 48.6531 28.5571 48.6375Z" fill="#1B1B1B"/>
<path d="M31.3018 49.9592L31.3604 49.9083C31.2627 49.8497 31.3409 49.9318 31.3018 49.9592Z" fill="#1B1B1B"/>
<path d="M30.1562 49.6306L30.2188 49.7284L30.297 49.6971L30.1562 49.6306Z" fill="#1B1B1B"/>
<path d="M29.8707 48.8252L29.9176 48.8409L29.7495 48.7705L29.8707 48.8252Z" fill="#1B1B1B"/>
<path d="M21.9927 49.6112L22.024 49.705C22.0982 49.6894 22.11 49.5838 21.9927 49.6112Z" fill="#1B1B1B"/>
<path d="M17.8522 49.0363C17.8249 48.9776 17.7232 48.9112 17.6411 48.9307C17.7271 48.9659 17.8014 49.0324 17.8522 49.0363Z" fill="#1B1B1B"/>
<path d="M8.85601 48.1253L8.89511 48.0432L8.79736 48.1761L8.85601 48.1253Z" fill="#1B1B1B"/>
<path d="M40.8572 17.0075C41.4867 18.2664 40.0753 20.1353 40.0753 20.1353C40.0753 20.1353 44.376 20.5263 44.376 17.7894C44.376 16.0418 42.4211 13.8797 42.4211 13.8797C44.376 14.6616 46.7219 19.7991 46.7219 19.7991C46.7219 19.7991 47.8948 18.9624 43.9851 12.7067C43.9851 12.7067 40.736 6.61529 32.6467 5.27815C30.4103 4.68778 28.8269 4.65259 28.8269 4.65259C25.7303 4.83635 23.2672 5.52056 21.3044 6.45499C19.2205 7.26432 12.1243 10.8887 8.89091 23.6541C5.07888 38.7067 8.59768 37.9248 5.07888 40.6616C1.56009 43.3985 -1.17675 50.827 6.25182 52C6.25182 52 9.9661 44.7669 17.5902 45.3533C17.5902 45.3533 18.7005 40.4544 19.5138 39.778C20.0494 39.3323 16.6948 36.916 14.6617 32.0679C16.124 29.3741 18.7631 29.3272 19.936 24.6354C20.7454 21.4021 23.3454 14.5013 26.3872 14.2745C28.0097 14.1533 22.4774 19.7482 22.4774 19.7482C22.4774 19.7482 27.2473 21.6718 30.6879 18.5753C31.7123 17.6526 32.6428 16.2294 32.4473 13.6881L32.8969 14.8845C33.3505 16.0887 33.1589 17.4415 32.3926 18.4736L31.4034 19.8069C31.4034 19.8069 34.4178 20.8625 37.7294 19.3612C42.0302 17.4063 35.7745 12.3236 35.7745 12.3236C35.7745 12.3236 39.6843 14.6694 40.8572 17.0153V17.0075Z" fill="black"/>
<path d="M40.9707 40.7671C34.2107 46.7217 26.2856 44.2077 26.2856 44.2077L25.2183 47.1127C32.2559 49.4585 34.4062 53.5794 34.4062 53.5794C43.5942 55.3545 39.2934 49.0675 39.098 48.18C38.9025 47.2925 38.1205 46.3346 39.098 44.7433C40.0754 43.1521 40.9707 40.7671 40.9707 40.7671Z" fill="black"/>
<path d="M26.9777 35.3835C26.9113 35.3835 26.8487 35.3522 26.8135 35.2897C26.7549 35.1997 26.7822 35.0785 26.8761 35.0199C26.9386 34.9808 33.2959 31.0866 39.1919 34.2301C39.2857 34.2809 39.3248 34.3982 39.274 34.496C39.2232 34.5937 39.1059 34.6289 39.0081 34.5781C33.3155 31.5402 27.1459 35.3131 27.0833 35.3522C27.052 35.3718 27.0168 35.3835 26.9816 35.3835H26.9777Z" fill="black"/>
<path d="M34.0073 27.5639C39.0795 27.5639 43.1914 26.8637 43.1914 25.9999C43.1914 25.1362 39.0795 24.436 34.0073 24.436C28.9351 24.436 24.8232 25.1362 24.8232 25.9999C24.8232 26.8637 28.9351 27.5639 34.0073 27.5639Z" fill="#F4BDCB"/>
<path d="M35.1881 31.4736C34.2185 31.4736 33.4287 30.6839 33.4287 29.7142C33.4287 28.7446 34.2185 27.9548 35.1881 27.9548C36.1577 27.9548 36.9475 28.7446 36.9475 29.7142C36.9475 30.6839 36.1577 31.4736 35.1881 31.4736ZM35.1881 28.3458C34.4335 28.3458 33.8197 28.9596 33.8197 29.7142C33.8197 30.4688 34.4335 31.0827 35.1881 31.0827C35.9427 31.0827 36.5565 30.4688 36.5565 29.7142C36.5565 28.9596 35.9427 28.3458 35.1881 28.3458Z" fill="black"/>
<path d="M30.7233 27.173C31.3883 27.173 31.9275 26.2977 31.9275 25.2181C31.9275 24.1384 31.3883 23.2632 30.7233 23.2632C30.0582 23.2632 29.519 24.1384 29.519 25.2181C29.519 26.2977 30.0582 27.173 30.7233 27.173Z" fill="black"/>
<path d="M39.6529 27.173C40.318 27.173 40.8572 26.2977 40.8572 25.2181C40.8572 24.1384 40.318 23.2632 39.6529 23.2632C38.9879 23.2632 38.4487 24.1384 38.4487 25.2181C38.4487 26.2977 38.9879 27.173 39.6529 27.173Z" fill="black"/>
<path d="M32.8422 23.6541C32.7797 23.6541 32.7171 23.6228 32.678 23.5681C32.6663 23.5485 31.4464 21.75 30.1171 21.6797C29.5893 21.6484 29.1201 21.8986 28.69 22.4147C28.6197 22.4968 28.4985 22.5085 28.4163 22.4382C28.3342 22.3678 28.3225 22.2466 28.3929 22.1645C28.9051 21.5506 29.4994 21.2535 30.1406 21.2887C31.6693 21.3708 32.9517 23.2709 33.0064 23.353C33.0651 23.443 33.0416 23.5642 32.9517 23.6228C32.9204 23.6463 32.8813 23.6541 32.8422 23.6541Z" fill="black"/>
<path d="M39.0316 23.6776C38.4256 23.6776 37.8704 23.3844 37.3856 22.8018C37.3152 22.7197 37.3269 22.5946 37.409 22.5281C37.4911 22.4577 37.6162 22.4695 37.6827 22.5516C38.1128 23.0677 38.5898 23.314 39.1098 23.2866C40.443 23.2162 41.6589 21.4138 41.6707 21.3982C41.7293 21.3083 41.8544 21.2848 41.9405 21.3434C42.0304 21.4021 42.0538 21.5233 41.9952 21.6132C41.9405 21.6953 40.658 23.5955 39.1293 23.6776C39.0941 23.6776 39.0629 23.6776 39.0277 23.6776H39.0316Z" fill="black"/>
<path d="M22.1922 23.9981C22.1257 23.9981 22.0632 23.9629 22.0241 23.9043C21.9693 23.8105 21.9967 23.6932 22.0905 23.6345C22.4581 23.4117 22.6692 23.1419 22.72 22.833C22.806 22.2857 22.3603 21.7657 22.3564 21.7578C22.286 21.6757 22.2938 21.5545 22.3759 21.4802C22.4581 21.4099 22.5793 21.4177 22.6496 21.4998C22.6731 21.5272 23.2166 22.1566 23.1071 22.8878C23.0406 23.3139 22.7669 23.6775 22.2938 23.9629C22.2626 23.9825 22.2274 23.9903 22.1922 23.9903V23.9981Z" fill="black"/>
<path d="M24.6512 22.9504C24.2915 22.9504 23.9905 22.8487 23.7442 22.6493C23.1734 22.1802 23.1577 21.3474 23.1577 21.3122C23.1577 21.2027 23.2437 21.1167 23.3493 21.1167C23.4431 21.1167 23.5448 21.2027 23.5487 21.3083C23.5487 21.3161 23.5643 22.0003 23.9944 22.3522C24.2329 22.5477 24.5731 22.6102 24.9953 22.5281C25.1009 22.5086 25.2025 22.579 25.2221 22.6845C25.2416 22.7901 25.1712 22.8917 25.0657 22.9113C24.921 22.9387 24.7803 22.9504 24.6512 22.9504Z" fill="black"/>
<path d="M23.0677 24.8974C23.0677 24.8974 23.0403 24.8974 23.0286 24.8935C22.923 24.8701 22.8526 24.7684 22.8761 24.6628C22.8839 24.6277 23.0599 23.8105 23.7089 23.4625C24.0881 23.2553 24.5417 23.2553 25.0578 23.4625C25.1594 23.5016 25.2063 23.615 25.1672 23.7167C25.1281 23.8183 25.0148 23.8652 24.9131 23.8262C24.5104 23.6659 24.1663 23.6619 23.8926 23.8105C23.4039 24.0764 23.2593 24.741 23.2593 24.7449C23.2397 24.8388 23.1576 24.9013 23.0677 24.9013V24.8974Z" fill="black"/>
</g>
</g>
<defs>
<clipPath id="clip0_4505_6796">
<rect width="52" height="52" fill="white"/>
</clipPath>
</defs>
</svg>
