<svg width="54" height="54" viewBox="0 0 54 54" fill="none" xmlns="http://www.w3.org/2000/svg">
<circle cx="27" cy="27" r="26.4" fill="white" stroke="#EEEEEE" stroke-width="0.8"/>
<g clip-path="url(#clip0_4971_5026)">
<mask id="mask0_4971_5026" style="mask-type:luminance" maskUnits="userSpaceOnUse" x="1" y="1" width="52" height="52">
<path d="M27 53C41.3594 53 53 41.3594 53 27C53 12.6406 41.3594 1 27 1C12.6406 1 1 12.6406 1 27C1 41.3594 12.6406 53 27 53Z" fill="white"/>
</mask>
<g mask="url(#mask0_4971_5026)">
<path d="M37.1654 59.4511C37.1654 59.4511 34.8196 55.1504 32.0827 52.0226C29.2051 48.7344 25.0451 47.7218 25.0451 47.7218L25.9092 44.7777C28.0322 45.4698 30.2881 45.7005 32.5793 45.3799C41.8259 44.0818 48.0972 34.2761 46.5802 23.4773C45.0671 12.6785 36.3405 4.97625 27.0899 6.27429C17.8394 7.57234 11.572 17.3781 13.089 28.1768C13.7889 33.1657 16.0292 37.4977 19.1492 40.5826C19.1492 40.5826 17.6166 43.812 17.2256 46.1579C17.2256 46.1579 10.579 44.985 5.88723 52.8045C3.74859 56.3702 3.15039 59.8421 3.15039 59.8421" fill="#FFF7EB"/>
<path d="M17.898 44.2421L17.8394 44.3711C17.8589 44.3359 17.8785 44.2929 17.898 44.2421Z" fill="#1B1B1B"/>
<path d="M14.3164 32.2704C14.3516 32.3682 14.379 32.4033 14.3907 32.4033C14.3516 32.3173 14.3203 32.243 14.3164 32.2704Z" fill="#1B1B1B"/>
<path d="M13.8315 30.0261C13.8394 30.073 13.8472 30.116 13.855 30.1591C13.855 30.1082 13.8472 30.0535 13.8315 30.0261Z" fill="#1B1B1B"/>
<path d="M17.8979 44.2421L18.0465 43.9098C18.0152 43.8707 17.9605 44.074 17.8979 44.2421Z" fill="#1B1B1B"/>
<path d="M13.3859 46.8264L13.2842 46.8616C13.2608 46.8851 13.2373 46.9124 13.2178 46.9398L13.3859 46.8225V46.8264Z" fill="#1B1B1B"/>
<path d="M9.48396 49.0003C9.56607 48.9378 9.52306 48.8283 9.52306 48.7657C9.50742 48.84 9.46441 48.9065 9.40186 48.9691C9.41358 48.9847 9.44095 48.9964 9.48787 49.0003H9.48396Z" fill="#1B1B1B"/>
<path d="M16.5449 46.412C16.5449 46.412 16.5688 46.4439 16.5848 46.4518C16.5848 46.4359 16.5688 46.4239 16.5449 46.412Z" fill="#1B1B1B"/>
<path d="M13.4214 25.874C13.4214 25.874 13.4214 25.8858 13.4214 25.8936C13.437 26.003 13.4331 25.9405 13.4214 25.874Z" fill="#1B1B1B"/>
<path d="M38.5689 9.96908C38.2835 9.62893 39.2101 10.2975 38.7566 9.8166C38.7761 9.88698 38.1779 9.59375 38.5689 9.96908Z" fill="#1B1B1B"/>
<path d="M38.7534 9.81365L38.7056 9.76184C38.7255 9.78177 38.7374 9.79372 38.7534 9.81365Z" fill="#1B1B1B"/>
<path d="M15.0675 16.5179C15.0401 16.5297 15.0127 16.557 14.9854 16.5883C14.9971 16.5883 15.0166 16.5766 15.0675 16.5179Z" fill="#1B1B1B"/>
<path d="M13.2334 23.4186L13.2569 23.2427C13.2412 23.3131 13.2373 23.3678 13.2334 23.4186Z" fill="#1B1B1B"/>
<path d="M16.7446 13.1986C16.8033 13.1243 16.8385 13.1047 16.9049 12.9913C16.8932 12.9992 16.8815 13.007 16.8697 13.0148C16.8541 13.0617 16.8189 13.1164 16.7446 13.1986Z" fill="#1B1B1B"/>
<path d="M19.3053 10.2975C19.2858 10.3053 19.2584 10.317 19.2388 10.3288C19.2115 10.3561 19.1802 10.3874 19.1528 10.4148L19.3092 10.2975H19.3053Z" fill="#1B1B1B"/>
<path d="M25.6236 47.413C25.604 47.4521 25.5923 47.4794 25.5806 47.499C25.647 47.4403 25.8112 47.456 25.6236 47.413Z" fill="#1B1B1B"/>
<path d="M16.127 12.5691L16.5258 12.0608C16.4085 12.1976 16.2638 12.3853 16.127 12.5691Z" fill="#1B1B1B"/>
<path d="M46.0952 33.8147L46.0601 33.9594C46.0796 33.9046 46.0952 33.8538 46.0952 33.8147Z" fill="#1B1B1B"/>
<path d="M17.7612 10.5868C17.8668 10.5282 17.9724 10.4617 18.0701 10.3796C18.0818 10.3561 18.1014 10.3288 18.1014 10.3053C17.988 10.3991 17.8707 10.4891 17.7573 10.5829L17.7612 10.5868Z" fill="#1B1B1B"/>
<path d="M29.3301 48.9339C28.7984 48.6093 29.0095 48.9065 28.8531 48.9104C28.1924 48.5898 28.6068 48.6524 28.4231 48.4686C27.9969 48.2848 27.6216 48.2536 27.3127 48.1089C27.301 48.0776 27.2423 48.0424 27.3244 48.0463C27.082 47.9994 26.7497 47.8587 26.4017 47.7336C26.2297 47.6671 26.0498 47.6124 25.8817 47.5654C25.8387 47.5537 25.7957 47.5459 25.7566 47.5342C25.737 47.5342 25.7214 47.5342 25.7019 47.5342C25.6667 47.5342 25.6237 47.5342 25.5767 47.542C25.5689 47.5263 25.5728 47.5146 25.5767 47.5068C25.5455 47.5733 25.5103 47.6358 25.4516 47.6749C25.3813 47.6554 25.3031 47.6436 25.2249 47.6358C25.2092 47.5576 25.2405 47.4521 25.3148 47.3973C25.2757 47.5146 25.3148 47.5107 25.3422 47.5381V47.3739C25.5142 47.2292 25.3734 47.499 25.4321 47.5224C25.4516 47.5224 25.4712 47.5146 25.4868 47.5029H25.4673C25.4555 47.456 25.4673 47.3895 25.4673 47.3191L25.4751 47.2057C25.4868 47.1393 25.4986 47.0728 25.5103 47.0063C25.5611 46.7366 25.6158 46.4824 25.694 46.2908C25.8465 46.2439 25.4595 47.2448 25.7331 46.7405L25.6158 47.0454L25.5572 47.1979C25.5416 47.2409 25.5337 47.2487 25.522 47.28C25.5885 47.2331 25.6198 47.2292 25.6315 47.2292C25.6393 47.2527 25.6315 47.2527 25.6315 47.2722C25.6198 47.3113 25.6158 47.3191 25.741 47.2839L25.7488 47.2761L25.7722 47.2096C25.7879 47.1627 25.7996 47.1197 25.8113 47.0806C25.8348 46.9985 25.8543 46.9242 25.8778 46.8539C25.913 46.717 25.9404 46.5997 25.9638 46.4824C26.0146 46.2478 26.0655 46.0133 26.2062 45.6105C26.1984 45.505 26.1671 45.5206 26.1358 45.5245C26.1007 45.5402 26.0811 45.5167 26.0576 45.4659C26.0616 45.3916 26.0772 45.3173 26.0928 45.2626C26.1007 45.2352 26.1085 45.2118 26.1163 45.1922C26.1163 45.1609 26.1554 45.2 26.1749 45.2039C26.261 45.2548 26.3157 45.3134 26.3431 45.3603C26.3587 45.3838 26.3665 45.4072 26.3743 45.4268C26.3939 45.4502 26.4604 45.4815 26.5112 45.505C26.6246 45.5558 26.781 45.5871 27.0116 45.5988C27.2658 45.5636 27.387 45.4268 28.0047 45.6301L27.7584 45.7396C28.599 45.896 28.2667 45.6145 29.1386 45.8178C28.9743 45.8608 28.47 45.7943 28.5951 45.8256C29.1542 46.0093 29.0095 45.7904 29.4513 45.8256L29.5334 45.9663C30.4444 46.0054 31.4453 45.8921 32.4267 45.7357C32.3758 45.7826 32.2116 45.8451 32.4501 45.8569C32.7629 45.7982 33.0835 45.7396 33.4119 45.677C33.7364 45.6105 34.0649 45.5402 34.3972 45.4737C35.0501 45.3134 35.6952 45.1453 36.2817 44.9459L36.6688 44.6566C36.7704 44.6136 36.876 44.6253 36.7783 44.6918C37.2318 44.5315 36.7704 44.6175 36.9581 44.4767C37.1966 44.3516 37.3061 44.379 37.1692 44.4845C37.5289 44.2617 38.0294 43.9293 38.5259 43.5931C39.0225 43.2569 39.5151 42.905 39.9022 42.686C39.8631 42.729 39.8279 42.776 39.7888 42.819C40.3557 42.4241 40.254 42.1621 40.7897 41.8181L40.7115 41.9158C41.2901 41.4506 41.814 40.868 42.3106 40.3206C42.7876 39.7576 43.2216 39.222 43.6125 38.8036C43.6008 38.6668 43.8315 38.3775 44.0231 38.0842C44.2146 37.7871 44.3906 37.5017 44.3163 37.4039C44.8167 36.7158 44.7581 36.9582 45.3485 35.9143C45.4892 35.625 45.4071 35.4178 45.5401 35.0502L45.6534 35.0854C45.6847 34.9056 45.7043 34.7218 45.7277 34.542L45.9623 34.3269C45.9975 34.2096 46.0327 34.0884 46.0561 33.9672C46.0053 34.1041 45.8998 34.2448 45.8763 34.2096C46.021 33.6506 46.3924 32.9038 46.451 32.8999C46.5488 32.4542 46.6231 32.0006 46.6895 31.551C46.7286 31.5901 46.6934 31.8169 46.6817 32.0006C46.7247 31.2617 46.842 31.899 46.8733 31.2187C46.8303 31.3008 46.8107 31.1561 46.7912 31.1366C46.8577 30.9802 46.928 30.7143 46.9867 30.4211C47.0336 30.1239 47.0766 29.7955 47.1001 29.514L47.1665 29.6313C47.3151 28.6226 47.3268 27.4927 47.3151 26.3549C47.2799 26.7654 47.1392 26.6677 47.1196 26.3393L47.2447 26.2024C47.1587 25.9913 47.2056 26.5504 47.0961 26.1125C47.0961 25.6902 47.233 25.8232 47.2799 26.0656L47.2213 25.5495C47.2564 25.5182 47.2838 25.6355 47.3307 25.6668C47.2525 25.4596 47.3972 24.7636 47.2408 24.4704L47.276 24.4391C47.147 23.3053 47.0297 22.797 46.8381 21.8899C46.7247 21.8939 46.6817 21.5342 46.5292 21.2878C46.4041 20.6232 46.2907 19.8686 46.0131 19.0984C45.7707 18.5745 45.8685 18.9693 45.7238 18.7504C45.8137 18.6722 45.501 17.9176 45.7238 18.2851C45.5361 17.8316 45.4189 17.5384 45.2586 17.2295C45.1804 17.0731 45.0983 16.9128 45.0005 16.7212C44.891 16.5336 44.7659 16.3185 44.6095 16.0487C44.633 16.1895 44.6838 16.3302 44.6213 16.2755C44.5079 16.0839 44.4297 15.8024 44.4844 15.8063L44.5235 15.8533C44.1247 15.2785 43.7885 14.5474 43.4053 13.8749C43.2216 13.5348 43.0261 13.2102 42.8189 12.9248C42.6195 12.6355 42.4005 12.3931 42.1855 12.2093L42.2324 12.2524C41.9665 11.9708 41.6772 11.7167 41.3918 11.4548C41.0477 11.0481 41.6616 11.6385 41.4426 11.3062C40.4652 10.5164 40.0507 9.90258 39.1789 9.33957C38.956 8.97596 38.3813 8.5498 37.7401 8.17055C37.1028 7.78348 36.399 7.44333 35.9494 7.13055L35.9767 7.22047C35.6952 7.16183 35.6913 7.0328 35.5076 6.93897C35.5154 6.99762 35.7578 7.11882 35.5858 7.07972C34.4949 6.6301 33.3416 6.22348 32.1452 5.93807C30.9488 5.65265 29.7016 5.49235 28.47 5.51581C27.5707 5.54709 27.993 5.89506 26.867 5.86378C26.9647 5.80122 27.0625 5.74258 27.1641 5.69175C26.2805 5.89115 25.3852 6.07882 24.5133 6.35641C23.6453 6.63792 22.7969 6.98589 22.0501 7.45115C22.1283 7.37686 22.1166 7.34168 22.2691 7.26739C21.8859 7.34168 21.061 7.92814 21.104 8.00243C20.8694 8.14318 21.014 7.97897 20.8498 8.03762C20.498 8.18619 20.1461 8.66318 19.931 8.70228C19.8958 8.7101 19.9975 8.61626 20.0483 8.56935C19.8685 8.73747 19.1491 9.25746 19.3993 9.19491C18.8558 9.57025 18.4844 10.0551 18.0739 10.3796C17.9097 10.6963 17.2685 11.1654 17.3193 11.3531C17.2137 11.1967 16.4748 12.1468 16.3106 12.5378C16.3497 12.3931 16.0525 12.7958 16.0877 12.6199C15.8258 13.0148 15.6107 13.394 15.7319 13.3745C15.0868 14.0039 14.993 14.9579 14.5473 15.2746C14.0116 16.5766 13.6285 17.816 13.3352 19.028C13.257 18.985 13.3392 18.6448 13.4369 18.3242C13.5346 18.0036 13.6324 17.6948 13.5346 17.6908C13.218 18.8521 13.2023 19.5519 12.9247 20.6936C12.8426 20.9907 12.8817 20.5098 12.87 20.4003C12.698 21.5772 12.4868 22.6758 12.5259 23.7354C12.5103 23.7354 12.4986 23.6181 12.4907 23.5086C12.4868 23.7158 12.436 23.9934 12.5181 23.9699L12.5064 23.7666C12.5728 23.6024 12.6237 23.8136 12.6628 24.0677C12.7058 24.3218 12.7527 24.6151 12.784 24.6346C12.5572 24.2788 12.7175 25.6668 12.4282 25.1116C12.4438 25.2484 12.4907 25.4205 12.5416 25.3892C12.5337 25.5925 12.5025 25.659 12.436 25.4518C12.5064 26.1946 12.5689 25.9287 12.6158 26.5973C12.5767 26.5973 12.5533 26.4644 12.5025 26.3979C12.608 26.7342 12.6901 27.0704 12.7331 27.6373C12.7058 27.606 12.6823 27.6764 12.6628 27.5083C12.7761 28.4818 13.0889 29.123 13.2414 30.1787C13.0029 29.9089 13.2727 30.5423 13.1437 30.6361C13.2062 30.8199 13.261 31.0036 13.3313 31.1835L13.3392 30.9411C13.476 31.4259 13.691 31.8286 13.7888 32.2509L13.6128 31.9146L13.9373 32.8021C13.8943 32.6301 13.8592 32.4542 13.8201 32.2782C14.0546 32.7357 13.9725 32.1687 14.1563 32.8099C14.0937 32.6887 14.3283 33.2791 14.344 33.5528C14.4847 33.7639 14.6294 33.979 14.7389 34.3309C14.7389 34.4364 14.559 34.3269 14.559 34.3973C14.7701 34.5693 15.0907 35.453 15.3605 35.6602C15.2862 35.582 15.2158 35.6133 15.2158 35.6524L15.3996 35.7892C15.4778 36.0121 15.4856 36.0472 15.4113 36.0433C15.7437 36.6611 15.4622 35.7618 15.8062 36.5203C15.7671 36.4695 15.771 36.5008 15.6889 36.3913C16.0682 37.1381 16.5882 37.7284 17.0026 38.3736C17.0183 38.6472 16.5764 37.8536 16.6312 38.1351C16.9674 38.5808 17.3545 39.0108 17.7455 39.4253C17.9449 39.6286 18.1443 39.8319 18.3398 40.0313C18.4336 40.133 18.5352 40.2268 18.633 40.3284L18.7542 40.4536L18.8441 40.5552L18.7659 40.4496C18.8519 40.4301 18.9419 40.5083 19.0044 40.606C18.938 40.7155 18.8598 40.8093 18.7816 40.9305C18.6916 41.0791 18.6095 41.2433 18.5704 41.4115C18.6095 41.2824 18.5352 41.2081 18.5392 41.2472C18.2225 41.908 18.0035 42.6469 17.7064 43.7143V43.5657C17.5148 43.9567 17.3193 44.637 17.1825 45.0905C17.1981 45.2391 17.1316 45.4972 17.2411 45.3564C17.1942 45.4659 17.1473 45.5715 17.1004 45.6731C17.0652 45.7474 17.0534 45.8295 17.0183 45.8803C16.9283 45.8608 16.8501 45.849 16.768 45.849H16.6038H16.3927C16.1112 45.853 15.8414 45.896 15.5716 45.9272C15.3058 45.9702 15.0399 46.0093 14.778 46.0445C14.5199 46.0914 14.254 46.1071 13.9882 46.1188C14.1367 46.0758 14.3401 46.0015 14.2189 46.0211C13.8631 46.111 13.5112 46.2283 13.1632 46.3456C13.2727 46.4003 13.3157 46.3534 13.5581 46.3651C13.4995 46.4081 13.3978 46.459 13.2805 46.5098C13.1671 46.5684 13.0342 46.6271 12.9091 46.6701C13.347 46.4511 12.8622 46.5333 12.6393 46.5567C12.6823 46.5724 12.6237 46.6232 12.651 46.6427C12.0567 46.6857 12.6276 46.8382 11.8769 47.0454L11.8925 46.9868C11.7635 47.0572 11.6462 47.1354 11.525 47.2096C11.4077 47.2918 11.2904 47.3739 11.1497 47.4442C10.9855 47.4169 11.3921 47.2487 11.3725 47.1627C11.181 47.2761 11.0167 47.4247 10.8525 47.5615C10.6844 47.6945 10.5202 47.8157 10.3325 47.8899C10.4655 47.7531 10.6961 47.6163 10.8447 47.5029C10.399 47.6084 10.3795 47.6749 10.1019 47.843L10.1292 47.8274L9.48021 48.2145L9.65615 48.1324C9.50366 48.3904 9.316 48.6015 9.0775 48.7931C8.85073 48.9925 8.57705 49.1841 8.39329 49.5242C8.77645 48.8869 8.40893 49.3678 8.36201 49.2427C8.20562 49.3561 7.97885 49.5399 8.01013 49.4578C7.92021 49.6181 7.80682 49.7119 7.6778 49.8214C7.55269 49.9309 7.41585 50.056 7.3181 50.3023C7.27509 50.2945 7.0796 50.5955 7.05615 50.4704C6.79028 50.8496 7.17735 50.4274 7.18908 50.4899C7.02487 50.8106 6.716 51.092 6.43449 51.4517C6.1569 51.8114 5.85976 52.2102 5.65645 52.6794C5.28502 53.4731 5.32021 53.6725 5.01915 54.4193C4.84712 54.6343 4.99179 54.1573 4.99179 54.1573C4.74547 54.5248 4.61254 54.8298 4.48742 55.2247C4.48742 55.1348 4.42878 55.2012 4.33885 55.299C4.21765 55.6118 4.38186 55.557 4.16291 55.9402C4.15118 55.8542 4.12773 55.7408 4.14727 55.5766C4.02607 55.9519 3.95569 56.339 3.85013 56.7339C3.75239 56.812 3.83449 56.468 3.85013 56.3194C3.71329 56.7573 3.51389 57.4572 3.57254 57.6214L3.69765 57.3555C3.65073 57.5158 3.58427 57.4102 3.60382 57.2851C3.64682 56.8863 3.82276 56.7651 3.86577 56.7573L3.79148 57.0349C4.09645 56.8316 4.15118 55.9402 4.39359 55.4084L4.45224 55.6939C4.48351 55.4945 4.52261 55.2951 4.56171 55.0957C4.65163 54.9979 4.76893 54.9588 4.67509 55.2247C4.9175 54.8845 4.76893 54.865 5.00351 54.5874C5.03479 54.56 5.03088 54.5796 5.02306 54.6148L5.156 54.2316C5.15209 54.3176 5.28893 54.2238 5.156 54.4349C5.5587 53.8328 5.58607 53.348 5.83239 53.1721L5.81284 53.2307C6.0357 52.7811 6.03179 52.7537 5.99269 52.7381C5.95359 52.7224 5.88712 52.7302 6.0396 52.3745L6.56351 52.1125L6.52051 51.9639C6.57915 51.8818 6.70036 51.7137 6.71991 51.7724C6.86457 51.4048 6.64171 51.7958 6.70036 51.5651C7.07569 51.225 7.51359 50.4548 7.72472 50.486C7.76773 50.2866 7.37284 50.8105 7.65825 50.357C7.90066 50.3727 8.05705 49.8878 8.4363 49.622C8.41284 49.7979 8.0766 50.0638 8.45975 49.8057C8.49103 49.6493 8.64742 49.489 8.839 49.3522C9.03449 49.2232 9.25344 49.0981 9.38246 48.9612C9.34336 48.9026 9.49194 48.754 9.70697 48.5702C9.93765 48.406 10.2387 48.2066 10.4889 48.0033C10.4889 48.019 10.5515 47.9877 10.6531 47.929C10.7626 47.8782 10.9151 47.8 11.0832 47.7179C11.2513 47.6319 11.439 47.542 11.6149 47.4521C11.7987 47.3817 11.9746 47.3152 12.1154 47.2644L12.1076 47.2918C12.131 47.2018 12.2835 47.1002 12.479 46.9946C12.6862 46.9125 12.9325 46.8148 13.1398 46.7287C13.1515 46.8148 13.085 46.8734 12.8739 46.9907L13.2649 46.8539C13.3431 46.7718 13.4604 46.7209 13.7184 46.6349L13.6441 46.7639C13.91 46.6936 14.1641 46.5802 14.4573 46.5176C14.602 46.4824 14.7506 46.4433 14.9109 46.416C15.0712 46.3964 15.2393 46.3847 15.4152 46.3808C15.4504 46.2791 14.8131 46.1657 15.5755 46.0172C15.6068 46.0719 15.642 46.154 15.4465 46.197C15.5091 46.1775 15.6772 46.1345 15.8101 46.154L15.513 46.2596C15.8414 46.2791 15.6772 46.1736 15.9392 46.1696C15.9392 46.2478 16.1346 46.2166 16.0995 46.2791C16.033 46.2908 15.8727 46.2596 15.7749 46.2948C16.0682 46.2869 16.4201 46.3417 16.5295 46.4003C16.5178 46.3769 16.5178 46.3534 16.5491 46.3299C16.5843 46.3104 16.6273 46.2948 16.7758 46.2987C17.4366 46.3612 17.1629 46.416 17.4561 46.4981C17.4757 46.4942 17.4796 46.4472 17.4952 46.4003C17.4874 46.1579 17.6399 45.6496 17.5304 45.6301C17.5695 45.4737 17.6282 45.4542 17.6712 45.4033C17.6829 45.114 18.0231 44.1092 17.8119 44.3829L17.7846 44.4533C17.7846 44.4533 17.7885 44.422 17.7924 44.4063C17.9644 43.4602 18.5001 42.5609 18.8246 41.6734L18.8598 41.689C18.9184 41.517 18.9888 41.3372 19.0592 41.1573C19.1452 40.9462 19.2351 40.7351 19.3133 40.5435C19.1295 40.3636 18.9419 40.1994 18.8285 40.1251C18.7112 40.0039 18.6095 39.7928 18.6916 39.8124C18.3906 39.5074 18.3085 39.5113 17.9644 38.9913C18.2889 39.2806 17.9136 38.8427 18.285 39.2963C17.9527 38.8466 17.9175 38.7215 17.4718 38.3071C17.6751 38.4087 17.3154 37.9044 17.1434 37.7011C17.1942 37.8223 17.2528 37.9396 17.3154 38.0569C17.1199 37.8301 16.9909 37.6033 16.8462 37.3844L17.0339 37.4274C16.5334 36.4148 15.7163 35.8283 15.5599 34.933C15.341 34.7062 15.7867 35.5077 15.5677 35.32C15.3331 34.8508 15.2901 34.2683 15.2158 34.1236C15.0086 33.4394 14.7701 33.588 14.5551 32.8647C14.5473 32.9702 14.4613 33.0993 14.2228 32.5871C14.0742 32.0788 14.2032 31.9107 14.344 32.2118C14.387 32.329 14.3909 32.3916 14.3752 32.3916C14.4417 32.548 14.5434 32.7474 14.516 32.5363L14.4495 32.4893C14.4143 32.2274 14.1837 31.5471 14.3088 31.6839C14.1563 31.3203 14.1837 31.5471 14.2501 31.8325C14.1172 31.1718 13.9491 30.8277 13.8357 30.1474C13.8357 30.2608 13.8083 30.3702 13.781 30.2647C13.6089 29.2638 13.6011 29.8463 13.4369 29.1778C13.4369 28.779 13.6207 29.2872 13.4525 28.6148C13.433 28.1925 13.5581 28.5092 13.6246 28.6656C13.4252 28.0635 13.5268 27.5005 13.4955 27.1447L13.5698 27.4653C13.5268 27.2737 13.5034 27.1134 13.4955 26.9492L13.4173 27.1447C13.4173 26.9492 13.4056 26.7889 13.4447 26.7889C13.3704 26.5934 13.304 26.9531 13.1906 26.5621C13.2101 26.3002 13.0928 25.7724 13.218 25.6785C13.2023 26.4957 13.3313 25.5847 13.3861 26.2689C13.3587 26.1399 13.3587 25.9757 13.3665 25.7802C13.3783 25.7489 13.3939 25.8075 13.4017 25.8584C13.4955 25.0842 13.2336 25.5065 13.2492 24.7011C13.3157 24.8027 13.3822 24.5173 13.3704 24.3844C13.3665 24.7089 13.2531 24.5369 13.2023 24.2358C13.2805 23.7197 13.1906 23.6728 13.214 23.3991L13.171 23.708C13.1124 23.5985 13.1202 23.3366 13.1398 22.9769C13.1984 22.9495 13.1437 23.3092 13.1789 23.1802C13.1007 22.7657 13.3861 22.2887 13.3939 21.7257C13.476 21.4755 13.5268 21.7218 13.5894 21.499C13.6089 20.8695 13.7927 20.8499 13.8631 20.197C13.7301 20.3612 13.7419 20.4003 13.7614 19.9272C13.6949 20.283 13.6441 20.6388 13.605 20.9985C13.605 20.7639 13.5972 20.5254 13.605 20.2908C13.5307 20.6115 13.5307 20.9829 13.476 21.1705C13.4643 20.8304 13.476 20.8695 13.3743 21.0102C13.5894 20.5919 13.4682 20.1149 13.6832 19.6301L13.9022 19.7005C14.1954 18.9811 14.1446 18.336 14.5551 17.4093L14.4026 17.6987C14.3674 17.5423 14.6059 17.1083 14.6998 16.7955C14.7584 16.8542 14.864 16.6743 14.9656 16.5687C14.9031 16.557 15.2667 15.9002 15.1767 15.7516L15.4661 15.3919C15.8844 14.696 15.7124 14.4653 16.1503 13.8084C16.0995 14.0548 16.3301 13.7811 16.1073 14.2581C16.2441 14.0352 16.377 13.8436 16.334 13.8124C16.4592 13.7146 16.6468 13.1516 16.8501 12.9991C16.8892 12.8896 16.8462 12.8154 17.0261 12.5808C17.0574 12.5651 17.0573 12.6042 17.0573 12.6042C17.0261 12.5808 17.2919 12.2015 17.0691 12.3579C17.417 12.1155 17.765 11.6737 18.1404 11.2632C18.3202 11.0521 18.5118 10.8605 18.6955 10.6924C18.8754 10.5203 19.0552 10.3874 19.2195 10.3092C19.4228 10.1098 19.6456 9.88694 19.8841 9.69145C20.1148 9.48423 20.3494 9.29656 20.5605 9.14799C20.5488 9.18709 20.5801 9.17927 20.498 9.2301C21.1157 8.8704 20.7286 8.78829 21.4598 8.40904C21.8781 8.29175 21.1313 8.69837 21.3737 8.60062C21.4871 8.67882 21.6865 8.53416 21.9367 8.37386C22.1831 8.20574 22.4763 8.00243 22.7578 7.95551L22.6483 8.02589C23.0549 7.91641 23.5202 7.49416 24.1692 7.27912C24.1692 7.27912 24.1458 7.3104 24.177 7.31822C24.5641 7.02889 25.4086 6.72784 26.0498 6.55972C25.87 6.70438 25.7683 6.67701 25.913 6.74739C26.1984 6.66919 25.7918 6.60273 26.3665 6.45416C26.5659 6.47371 26.996 6.45416 27.0664 6.54799L26.5229 6.64574C26.824 6.73175 27.2267 6.51671 27.5199 6.52062L27.4886 6.58709C27.907 6.52453 28.1142 6.4698 28.337 6.42288C28.556 6.37205 28.7867 6.31732 29.2441 6.33295L29.1503 6.28604C29.6546 6.13747 29.5686 6.36814 30.073 6.28995L30.2137 6.45416C30.5422 6.4307 31.3789 6.42679 31.9692 6.51671C31.7933 6.54408 31.5313 6.53626 31.2616 6.52844C30.9918 6.52844 30.7103 6.53626 30.4952 6.53626C30.6555 6.55581 30.9292 6.58709 31.1834 6.60664C31.4375 6.6301 31.676 6.65747 31.7659 6.63401C31.633 6.62619 31.4649 6.63401 31.3437 6.58709C31.5509 6.56363 31.7855 6.55972 32.0513 6.57927C32.3172 6.60273 32.6065 6.66529 32.9271 6.73957C32.8333 6.86468 33.236 7.00544 33.7052 7.15792C33.9358 7.24784 34.1861 7.34168 34.4011 7.43551C34.6122 7.53325 34.7843 7.64664 34.8703 7.74047C35.965 8.08844 36.8877 8.77265 37.9786 9.52333C37.7244 9.06198 38.3031 9.73837 38.3734 9.50769C38.6315 9.68754 38.7253 9.76183 38.737 9.78919C38.9638 10.016 39.1632 10.2662 39.3783 10.5008C39.5034 10.6963 39.1163 10.3522 39.1046 10.4108C39.6089 10.8605 39.257 10.6689 39.5425 11.0169C39.5307 10.8918 39.8005 11.0833 40.0546 11.3766C39.953 11.2202 39.8396 11.0755 39.734 10.923C40.1289 11.1967 40.2345 11.3844 40.344 11.5642C40.4534 11.748 40.5629 11.9239 40.9265 12.2367L40.6685 12.0647C41.0438 12.3853 41.8414 13.4253 42.2676 13.7107C42.2989 13.7967 42.3145 13.9257 42.1698 13.7654C42.8423 14.7155 43.7728 15.8533 44.0661 16.7369L43.9722 16.6821C44.0817 16.8698 44.2498 16.9714 44.3046 17.253C44.2772 17.253 44.2146 17.1982 44.2537 17.2921C44.3163 17.3898 44.5939 17.7808 44.6682 18.0662C44.6174 17.9958 44.5665 17.9293 44.5118 17.8629C44.6916 18.4102 44.8989 18.7973 45.0787 19.1766C45.2742 19.5519 45.454 19.9077 45.6104 20.369C45.454 20.4121 45.6261 21.2996 45.6964 21.7453L45.6691 21.7336C45.9349 23.0355 46.2164 23.9387 46.3728 25.1742C46.3455 25.3696 46.3298 25.6316 46.3181 25.9287C46.3142 26.2298 46.3142 26.5699 46.2986 26.9218C46.2986 27.2776 46.279 27.6451 46.2477 28.0009C46.2282 28.3567 46.1734 28.7008 46.1187 29.0018C46.1695 28.8181 46.2477 29.0448 46.2438 29.2677C46.1734 29.5492 46.2477 30.0809 46.0992 30.0105L46.1148 29.9089C45.9389 30.1044 45.8685 30.6908 45.7786 31.1444L45.9623 31.2617C45.6808 31.8247 45.5205 32.5988 45.3133 33.2987C45.2195 33.6505 45.1178 33.9829 45.0044 34.2566C44.8989 34.5342 44.7816 34.7531 44.6525 34.8782C44.5861 35.1675 44.4414 35.4999 44.3554 35.7814L44.2616 35.7188C44.0778 36.0785 43.9253 36.3405 43.7611 36.6259C43.6086 36.9152 43.4249 37.2124 43.1746 37.6463L43.2137 37.4313C42.9127 37.9005 43.0964 38.2015 42.7993 38.6394L42.5725 38.6668C41.99 39.4683 41.2354 40.1212 40.6372 40.8954C40.6333 40.868 40.6176 40.8133 40.7271 40.696C40.5668 40.8641 40.2149 41.1378 39.9413 41.3841C39.6637 41.6226 39.4525 41.822 39.5894 41.8611C39.4916 41.7594 38.7879 42.4749 38.3617 42.8112L38.3734 42.6743C38.0724 43.034 38.0841 43.0848 37.5485 43.425C37.4116 43.4875 37.3921 43.4133 37.5798 43.339C37.1223 43.5345 37.2865 43.6166 36.7196 43.8355L36.8916 43.6713C36.4303 43.8942 36.4811 43.902 36.2543 44.0896C35.9767 44.2695 35.3355 44.4259 35.2339 44.3555C35.1909 44.4376 34.9485 44.6096 34.6474 44.6605C34.5966 44.637 34.6983 44.5823 34.7452 44.5549C34.534 44.5979 34.3542 44.6487 34.1978 44.7035C34.0375 44.7504 33.8928 44.7973 33.756 44.8442C33.4862 44.942 33.2399 45.0124 32.9389 45.0045C32.9193 44.9693 32.8802 44.9615 32.8294 44.9576C33.5019 44.8638 34.0258 44.7074 33.9828 44.7387C33.9554 44.6409 33.4276 44.7465 33.8146 44.5158C33.4158 44.6957 32.7082 44.9928 32.1686 45.0084C32.1413 45.0006 32.1178 44.9967 32.0943 44.9811L32.1491 44.9615C32.0279 44.9693 31.9184 44.985 31.8167 45.0124C31.6486 45.0124 31.5392 45.0045 31.3749 45.0124C31.3085 44.9381 30.7533 44.9967 30.4835 44.9889C30.507 45.1023 30.1473 45.0788 30.4835 45.1727C30.4405 45.1648 30.5343 45.1609 30.7181 45.1531C30.7572 45.1531 30.808 45.1492 30.8354 45.1414C30.8315 45.1414 30.8237 45.1492 30.8158 45.1531C30.9957 45.1414 31.2303 45.1375 31.4922 45.114C31.2811 45.1844 31.0543 45.243 30.7494 45.1883C30.6086 45.2587 30.4522 45.3369 30.3662 45.3681C29.987 45.2196 29.2754 45.0827 29.1855 44.9772C28.3527 44.9693 27.254 44.723 26.6949 44.7778C26.476 44.7426 26.3978 44.6331 26.2766 44.5627C26.3743 44.5862 26.4799 44.6096 26.5777 44.6292C26.6441 44.6409 26.7028 44.6527 26.7419 44.6487C26.6793 44.637 26.6246 44.6292 26.5386 44.6096C26.433 44.5823 26.3196 44.5549 26.2062 44.5236C26.0928 44.4924 25.9795 44.4611 25.8661 44.4298L25.698 44.3829C25.698 44.3829 25.6823 44.379 25.6784 44.379V44.4024L25.6628 44.4454L25.6393 44.5314C25.522 44.9889 25.4399 45.3721 25.5025 45.4111C25.2679 45.9781 25.4712 45.0436 25.2561 45.8569L25.2444 45.7357C25.0919 46.0719 24.9864 46.3925 24.9082 46.7014C24.8652 46.889 24.8222 47.0767 24.7792 47.2566C24.7322 47.4833 24.6736 47.7062 24.6501 47.9017C24.959 47.9603 25.2483 48.0072 25.5064 48.0737C25.7097 48.1167 25.8934 48.1636 26.0928 48.2262C26.4877 48.3513 26.8943 48.539 27.3127 48.8244C27.2071 48.7579 27.1524 48.7227 27.1407 48.6915C28.0516 49.1763 28.9861 49.6806 29.8501 50.2866C30.7181 50.8927 31.4922 51.616 32.0709 52.4605C32.4149 52.9257 32.5166 52.9257 32.7981 53.1564L32.7825 53.3284L33.2595 53.7272C33.8616 54.3606 33.9124 55.0957 34.6748 55.8932L34.6631 55.733C34.8703 56.0653 35.3864 56.7456 35.273 56.7417C35.3082 56.769 35.4137 56.8042 35.4607 56.9567L35.4137 56.9997L36.0119 57.7621C36.3599 58.4268 35.7461 57.7895 36.2895 58.7278C36.5163 59.0641 37.0167 59.6388 36.9776 59.4863C36.9034 59.3417 36.8056 59.1032 36.8564 59.0641L37.0676 59.373C37.2592 59.3456 37.568 59.5059 37.2201 58.6379L36.8017 58.1414L36.7704 57.9185L37.0519 58.3799C36.9698 58.071 36.8056 57.942 36.6492 57.7817C36.6649 57.7113 36.6453 57.6175 36.5945 57.5002L36.1175 57.0545C36.1371 56.9528 36.3873 57.2187 36.1957 56.8394C35.9689 56.6322 36.2113 57.1639 35.9064 56.7769C35.8125 56.4758 35.9142 56.5149 35.664 56.249C35.6757 56.1826 35.7422 56.2295 35.836 56.339C35.6171 56.0966 35.3512 55.6391 35.1792 55.557C35.0853 55.2325 34.5458 54.6773 34.7061 54.6069C34.6122 54.5483 34.2721 54.2199 34.0883 53.9892C34.577 54.302 33.4393 53.0939 33.6973 53.0782C33.3103 52.871 32.7395 51.9874 32.1686 51.526C32.2077 51.5456 32.282 51.5847 32.3211 51.6355C32.0513 51.3266 32.0122 51.2015 31.8558 50.9865C31.7034 51.0647 31.2342 50.6385 30.9058 50.5056C30.6204 50.0755 31.2537 50.5603 31.2264 50.3531C31.1638 50.4626 30.4757 49.8918 30.5422 50.0833C30.2919 49.7862 30.3076 49.8527 30.2255 49.6337C30.0613 49.7471 29.9205 49.4499 29.5882 49.3757C29.1816 48.9925 29.5686 49.145 29.0213 48.8791C28.8023 48.6797 29.3028 48.8987 29.3028 48.8987L29.3301 48.9339ZM32.4267 45.6966C32.3055 45.7161 32.1999 45.7318 32.1334 45.7396C32.196 45.7318 32.2781 45.7161 32.4228 45.6966H32.4267ZM33.6074 45.4972C33.4667 45.5324 33.2829 45.5519 33.0952 45.5871C33.0483 45.5558 33.0874 45.5089 33.2047 45.4933C33.1461 45.5245 33.4276 45.5089 33.6074 45.4972ZM31.07 45.0436C31.2498 45.0202 31.3085 45.0436 31.3358 45.0593C31.2498 45.0671 31.1521 45.0749 31.0231 45.0866C31.0192 45.0866 31.0074 45.0984 31.0035 45.1023C31.0192 45.0788 31.0387 45.0593 31.0739 45.0436H31.07Z" fill="#1B1B1B"/>
<path d="M30.7452 45.1921C30.7178 45.1921 30.7061 45.2 30.6709 45.2C30.71 45.2078 30.7452 45.2156 30.7804 45.2234C30.8038 45.2117 30.8234 45.2 30.8429 45.1882C30.8117 45.1882 30.7765 45.1882 30.7452 45.1882V45.1921Z" fill="#1B1B1B"/>
<path d="M17.832 44.395L17.84 44.3711C17.84 44.3711 17.8201 44.407 17.8081 44.4149C17.8161 44.399 17.8201 44.403 17.828 44.391L17.832 44.395Z" fill="#1B1B1B"/>
<path d="M45.6807 35.0894L45.6533 35.0815L45.6338 35.1871L45.6807 35.0894Z" fill="#1B1B1B"/>
<path d="M12.6392 46.5606C12.6392 46.5606 12.5962 46.5528 12.5493 46.5606C12.5571 46.5645 12.5923 46.5606 12.6392 46.5606Z" fill="#1B1B1B"/>
<path d="M10.1058 47.8469L9.75391 48.0463C9.9103 47.9642 10.0198 47.9017 10.1058 47.8469Z" fill="#1B1B1B"/>
<path d="M8.36964 49.1802C8.36182 49.2154 8.36964 49.231 8.36964 49.2466L8.36182 49.1802H8.36964Z" fill="#1B1B1B"/>
<path d="M12.4908 23.5163C12.4908 23.4851 12.4908 23.4577 12.4908 23.4303C12.4791 23.2309 12.483 23.3678 12.4908 23.5163Z" fill="#1B1B1B"/>
<path d="M14.3439 33.5606C14.2853 33.4667 14.2305 33.3729 14.1797 33.2712C14.2383 33.4433 14.2853 33.5801 14.3439 33.5606Z" fill="#1B1B1B"/>
<path d="M16.084 12.6238C16.084 12.6238 16.1114 12.5886 16.127 12.5691L16.084 12.6238Z" fill="#1B1B1B"/>
<path d="M14.0117 32.8217C14.0547 33.0015 14.1134 33.1423 14.1798 33.2674C14.1329 33.1227 14.0821 32.9546 14.0117 32.8217Z" fill="#1B1B1B"/>
<path d="M7.38861 50.9943L6.91553 51.5338C7.02891 51.4634 7.17357 51.3657 6.9859 51.6276C7.64275 50.9982 6.79041 51.7137 7.38861 50.9943Z" fill="#1B1B1B"/>
<path d="M8.92475 49.403C8.65888 49.6767 8.96775 49.4421 8.97166 49.4773C9.12805 49.2935 9.16715 49.2466 8.92475 49.403Z" fill="#1B1B1B"/>
<path d="M18.6291 39.6755L18.7269 39.6364C18.5196 39.4252 18.6956 39.6598 18.6291 39.6755Z" fill="#1B1B1B"/>
<path d="M16.3184 37.5447L16.4357 37.8262L16.592 37.8887L16.3184 37.5447Z" fill="#1B1B1B"/>
<path d="M15.986 35.6171L16.0603 35.7227C15.9665 35.5858 15.8883 35.4451 15.7983 35.3082L15.986 35.6171Z" fill="#1B1B1B"/>
<path d="M18.8715 10.8371L18.7229 10.8136C18.5978 10.97 18.6682 11.0951 18.8715 10.8371Z" fill="#1B1B1B"/>
<path d="M29.1582 6.42291C29.2833 6.48938 29.6039 6.52066 29.8072 6.47765C29.5492 6.45028 29.2911 6.41119 29.1582 6.42291Z" fill="#1B1B1B"/>
<path d="M45.7041 31.8169L45.7159 31.5823L45.6533 32.0163L45.7041 31.8169Z" fill="#1B1B1B"/>
<path d="M30.3546 27.9774C31.0197 27.9774 31.5588 27.1022 31.5588 26.0225C31.5588 24.9429 31.0197 24.0676 30.3546 24.0676C29.6895 24.0676 29.1504 24.9429 29.1504 26.0225C29.1504 27.1022 29.6895 27.9774 30.3546 27.9774Z" fill="black"/>
<path d="M39.2843 27.9774C39.9494 27.9774 40.4885 27.1022 40.4885 26.0225C40.4885 24.9429 39.9494 24.0676 39.2843 24.0676C38.6192 24.0676 38.0801 24.9429 38.0801 26.0225C38.0801 27.1022 38.6192 27.9774 39.2843 27.9774Z" fill="black"/>
<path d="M28.6459 31.8872C30.0948 31.8872 31.2694 31.187 31.2694 30.3233C31.2694 29.4596 30.0948 28.7594 28.6459 28.7594C27.197 28.7594 26.0225 29.4596 26.0225 30.3233C26.0225 31.187 27.197 31.8872 28.6459 31.8872Z" fill="#F4BDCB"/>
<path d="M40.3754 31.8872C41.8243 31.8872 42.9989 31.187 42.9989 30.3233C42.9989 29.4596 41.8243 28.7594 40.3754 28.7594C38.9265 28.7594 37.752 29.4596 37.752 30.3233C37.752 31.187 38.9265 31.8872 40.3754 31.8872Z" fill="#F4BDCB"/>
<path d="M34.8195 32.2782C33.8498 32.2782 33.0601 31.4884 33.0601 30.5188C33.0601 29.5492 33.8498 28.7594 34.8195 28.7594C35.7891 28.7594 36.5789 29.5492 36.5789 30.5188C36.5789 31.4884 35.7891 32.2782 34.8195 32.2782ZM34.8195 29.1504C34.0649 29.1504 33.451 29.7642 33.451 30.5188C33.451 31.2734 34.0649 31.8872 34.8195 31.8872C35.574 31.8872 36.1879 31.2734 36.1879 30.5188C36.1879 29.7642 35.574 29.1504 34.8195 29.1504Z" fill="black"/>
<path d="M1.58643 64.1429C1.58643 64.1429 2.36838 56.3234 5.88718 52.4136C9.40598 48.5038 11.7518 45.767 15.2706 45.767C15.2706 45.767 12.9717 49.536 20.3533 50.4587C26.609 51.2407 25.827 47.7219 25.827 47.7219C27.1524 48.3943 30.7768 50.1381 32.0827 51.6316C34.8195 54.7594 37.1654 59.0602 37.1654 59.0602" fill="#FF4D57"/>
<path d="M32.4854 51.8975L32.5093 51.9453C32.5093 51.9453 32.4973 51.9134 32.4854 51.8975Z" fill="#1B1B1B"/>
<path d="M28.5092 48.8986C28.5443 48.9143 28.5639 48.9143 28.5678 48.9064C28.5326 48.8947 28.5053 48.8869 28.5092 48.8986Z" fill="#1B1B1B"/>
<path d="M27.8091 48.4021C27.8091 48.4021 27.837 48.422 27.8529 48.434C27.841 48.418 27.825 48.4021 27.8091 48.4021Z" fill="#1B1B1B"/>
<path d="M32.4855 51.8974L32.4229 51.7762C32.3917 51.788 32.4503 51.8427 32.4855 51.8974Z" fill="#1B1B1B"/>
<path d="M33.189 52.6057C33.189 52.6057 33.2009 52.5858 33.2009 52.5739C33.1929 52.5818 33.189 52.5898 33.189 52.6057Z" fill="#1B1B1B"/>
<path d="M26.2881 47.5029C26.2881 47.5029 26.2961 47.5069 26.3 47.5109C26.3678 47.5348 26.3319 47.5189 26.2881 47.5029Z" fill="#1B1B1B"/>
<path d="M15.3136 47.4169C15.2745 47.5693 15.1651 47.2057 15.1377 47.4325C15.1651 47.409 15.3097 47.5967 15.3136 47.4169Z" fill="#1B1B1B"/>
<path d="M24.271 49.837C24.271 49.837 24.2989 49.853 24.3148 49.853C24.3108 49.845 24.2989 49.841 24.271 49.837Z" fill="#1B1B1B"/>
<path d="M23.0548 50.271C23.0196 50.271 23.0079 50.2592 22.9609 50.271C22.9648 50.271 22.9688 50.2788 22.9766 50.2788C22.9922 50.2671 23.0157 50.2592 23.0548 50.2671V50.271Z" fill="#1B1B1B"/>
<path d="M21.6553 50.3218C21.6553 50.3218 21.6709 50.3335 21.6787 50.3374C21.6944 50.3374 21.71 50.3374 21.7217 50.3335L21.6514 50.3218H21.6553Z" fill="#1B1B1B"/>
<path d="M23.0744 50.92L22.832 50.9279C22.8985 50.9279 22.9884 50.9279 23.0744 50.92Z" fill="#1B1B1B"/>
<path d="M8.80426 49.7314L8.77637 49.7753C8.77637 49.7753 8.80426 49.7474 8.80426 49.7314Z" fill="#1B1B1B"/>
<path d="M22.1281 50.9787C22.0851 50.9474 22.0421 50.9318 21.9951 50.92C21.9834 50.9279 21.9756 50.9318 21.9678 50.9396L22.1281 50.9748V50.9787Z" fill="#1B1B1B"/>
<path d="M2.93893 59.6154C2.99758 59.4082 2.86465 59.4903 2.81382 59.4316C2.85292 59.1775 2.9233 59.3378 2.99758 59.2674C3.01322 59.1071 2.94675 58.9585 2.98585 58.8452C3.0054 58.8452 3.01713 58.8217 3.03277 58.853C3.00149 58.6653 3.18134 58.3721 3.13442 58.1492C3.14615 58.1375 3.15788 58.1336 3.16961 58.1336C3.10705 58.1492 3.05623 58.1336 3.02104 58.1179C3.04841 58.0241 3.00931 57.9264 3.08751 57.9107C3.06796 57.9655 3.09142 57.9811 3.10705 58.0124V57.9068C3.23217 57.8521 3.09924 58.0515 3.17352 58.0749C3.19698 57.8755 3.2048 57.6331 3.27909 57.5002C3.38465 57.5002 3.18916 57.8443 3.34164 57.684L3.22826 57.8912C3.43548 57.7739 3.16961 58.0202 3.38465 57.9225C3.51367 57.6449 3.45112 57.5823 3.58405 57.3047C3.55668 57.2226 3.49803 57.2969 3.47066 57.2148C3.5254 56.7652 3.82645 56.9841 3.82254 56.64C3.79127 56.5384 3.68961 56.4602 3.83818 56.2764L3.91247 56.3937C4.03758 56.124 3.82254 56.1709 4.02194 55.9167C4.03758 55.9832 3.9633 56.1435 3.99066 56.1083C4.15096 55.9597 3.99066 55.9519 4.05713 55.8112L4.16269 55.8229C4.28781 55.5375 4.35818 55.1817 4.51457 54.8689C4.53021 54.9002 4.53021 54.9667 4.59668 54.908C4.68269 54.7047 4.79999 54.5014 4.9251 54.3098C5.05412 54.1143 5.21442 53.9501 5.35127 53.7898L5.3669 53.61C5.39036 53.5787 5.43728 53.5748 5.42946 53.6178C5.54675 53.5005 5.39036 53.5787 5.406 53.4927C5.45292 53.4106 5.51548 53.4184 5.50375 53.4849C5.60931 53.2112 5.89081 52.7459 6.15277 52.57L6.12931 52.6325C6.31698 52.4761 6.18014 52.3119 6.39127 52.1946L6.37172 52.2376C6.75487 51.8701 7.08721 51.3814 7.45081 51.1742C7.41172 51.0334 7.8457 50.8262 7.74014 50.6855C8.006 50.5213 7.97082 50.6034 8.30315 50.3375C8.38525 50.2593 8.33833 50.142 8.42044 50.0247L8.48691 50.0834L8.54946 49.88H8.69803L8.77232 49.7745C8.73322 49.8097 8.66675 49.8253 8.65112 49.8019C8.7645 49.6259 9.04209 49.4891 9.08119 49.5203C9.17503 49.3874 9.27277 49.2584 9.37051 49.1294C9.39006 49.1646 9.33924 49.2271 9.31187 49.2897C9.42916 49.0434 9.41352 49.3249 9.51909 49.102C9.4839 49.1098 9.49563 49.0512 9.4839 49.0355C9.6051 48.9925 9.79668 48.8088 9.9257 48.6602L9.94134 48.7306C10.2111 48.4999 10.477 48.2106 10.7819 47.9603C10.6568 48.0307 10.6099 47.9252 10.6959 47.8431L10.7898 47.8861C10.8132 47.7922 10.6725 47.933 10.7468 47.7805C10.8719 47.6984 10.8914 47.8079 10.8445 47.8822L10.9657 47.7492C10.9931 47.7649 10.9657 47.804 10.9813 47.8391C11.0048 47.7492 11.2824 47.7297 11.3059 47.585L11.3293 47.6006C11.6499 47.3856 11.775 47.2488 12.0448 47.0924C12.0096 47.0181 12.1269 46.9751 12.1738 46.8695C12.3889 46.7679 12.6547 46.7327 12.901 46.6037C13.0653 46.4942 12.9284 46.5176 12.991 46.4394C13.034 46.5059 13.292 46.4043 13.1747 46.502C13.4836 46.3808 13.5696 46.3456 13.9645 46.1892C13.9137 46.1697 13.8589 46.1697 13.8785 46.1384C13.9528 46.1071 14.0544 46.1228 14.0544 46.1658L14.0349 46.1775C14.1287 46.1384 14.2382 46.1188 14.3516 46.111C14.4063 46.1071 14.4689 46.1032 14.5158 46.1032C14.5471 46.1032 14.5705 46.111 14.5862 46.1228C14.6565 46.1658 14.6565 46.2009 14.6722 46.2088C14.6722 46.2166 14.6839 46.2166 14.7074 46.2166H14.6995C14.7191 46.2283 14.7347 46.2674 14.7465 46.3261C14.7465 46.3143 14.7386 46.3417 14.7347 46.3495C14.7308 46.3612 14.7269 46.3652 14.723 46.3612C14.7152 46.3612 14.7113 46.3417 14.7074 46.3182C14.6917 46.3065 14.6683 46.3104 14.6487 46.2948C14.6487 46.7991 14.5158 47.0885 14.6526 47.499C14.6174 47.585 14.6135 47.7062 14.637 47.8391C14.6604 47.9721 14.7386 48.105 14.8051 48.2458C14.8637 48.3904 14.981 48.4999 15.0553 48.625C15.1374 48.7462 15.2039 48.8635 15.2625 48.9573L15.2821 48.9026C15.3994 48.9456 15.3564 49.016 15.4072 49.0825C15.4268 49.0434 15.3525 48.9652 15.4228 48.9925C16.1227 49.5907 16.932 50.0912 17.7765 50.4157C18.0854 50.5252 18.0307 50.2046 18.3904 50.4274L18.2535 50.4939C18.9104 50.5603 19.5555 50.7715 20.1928 50.7715C20.1537 50.7871 20.1498 50.8145 20.0872 50.8067C20.2084 50.9044 20.5798 50.8692 20.5877 50.8106C20.6854 50.8262 20.6033 50.8653 20.6619 50.9005C20.791 50.9552 21.006 50.8419 21.0725 50.9161C21.0842 50.9279 21.0334 50.9357 21.0099 50.9396C21.0998 50.9122 21.4165 50.9865 21.3383 50.8966C21.5729 50.9513 21.7958 50.8692 21.9874 50.92C22.1125 50.8301 22.3979 50.9709 22.4331 50.834C22.4213 50.967 22.8671 50.9044 23.0117 50.8301C22.9648 50.8731 23.1486 50.8614 23.0977 50.92C23.2737 50.9122 23.4301 50.8379 23.3871 50.7793C23.563 50.8262 23.7194 50.7597 23.8562 50.705C23.9931 50.6503 24.1065 50.576 24.2316 50.6425C24.7281 50.4157 25.1504 50.0912 25.4671 49.708C25.5062 49.7549 25.428 49.88 25.3185 49.9582C25.2168 50.0443 25.1152 50.1264 25.166 50.1772C25.2559 50.0912 25.3302 50.0091 25.3967 49.9348C25.4592 49.8488 25.5062 49.7628 25.5609 49.6846C25.6704 49.5282 25.7446 49.3522 25.8737 49.1567C25.9362 49.0512 25.905 49.2506 25.8932 49.2936C25.9831 49.0629 26.0653 48.844 26.1161 48.6211C26.1317 48.5742 26.1356 48.496 26.1434 48.4686V48.4139C26.1434 48.3787 26.1356 48.3396 26.1161 48.2809C26.1278 48.2966 26.1395 48.324 26.1513 48.3474C26.1474 48.3161 26.1669 48.3161 26.1083 48.2419L26.1239 48.2888C26.077 48.2653 26.0301 48.1637 25.9753 48.0229C25.9597 47.9799 25.9284 47.9056 25.9284 47.89C25.9362 47.8782 25.9401 47.8665 25.9362 47.8548C26.0144 48.0894 26.1943 48.0346 26.2138 48.2849C26.2216 48.277 26.2295 48.2497 26.2138 48.1949C26.2529 48.2262 26.2568 48.2575 26.249 48.3044C26.3194 48.3044 26.2959 48.2223 26.4093 48.2809C26.3898 48.3044 26.3702 48.3044 26.3507 48.3357C26.3663 48.3122 26.4484 48.32 26.5188 48.3357C26.5892 48.3513 26.6674 48.3826 26.7534 48.4373C26.7338 48.4491 26.7456 48.4803 26.6908 48.4491C27.0075 48.6016 27.289 48.5859 27.6057 48.8127C27.4454 48.8713 27.6995 48.9104 27.6683 49.016L27.8637 49.0825L27.8168 48.9964C27.9771 49.0825 28.1531 49.0903 28.2704 49.1958L28.1296 49.1724L28.4346 49.317L28.286 49.188C28.4737 49.2271 28.3368 49.0551 28.5323 49.1997C28.4854 49.1841 28.6887 49.2897 28.7395 49.3913C28.8334 49.4031 28.935 49.4187 29.0367 49.5086C29.0484 49.5555 28.9507 49.5985 28.9585 49.6298C29.0797 49.5946 29.3377 49.8175 29.4785 49.794C29.4355 49.794 29.4042 49.841 29.4081 49.8605L29.5098 49.837C29.5684 49.8996 29.5723 49.9152 29.5371 49.9504C29.7443 50.0912 29.541 49.7901 29.7639 49.9973C29.7404 49.9895 29.7444 50.0052 29.6974 49.9895C29.932 50.1733 30.2135 50.2554 30.4168 50.4431C30.4207 50.5799 30.2057 50.3297 30.2292 50.4587C30.5615 50.662 30.9798 50.8106 31.2535 51.0764L31.2066 51.0217C31.3474 50.9357 31.3786 51.2563 31.5663 51.3306C31.5233 51.3071 31.4647 51.354 31.4842 51.3501C31.6601 51.5378 31.883 51.6707 32.1801 51.9522L32.1176 51.9405C32.1919 52.0812 32.3678 52.265 32.4577 52.4058C32.5203 52.4175 32.575 52.4996 32.5828 52.4175C32.7314 52.957 33.2905 53.1134 33.4195 53.5943C33.3843 53.5513 33.314 53.5122 33.3374 53.5474L33.5994 53.8406C33.6346 53.7742 33.5994 53.7742 33.5994 53.6764C33.6619 53.6921 33.7519 53.7625 33.8105 53.8406C33.6698 53.7234 33.7245 53.9071 33.7362 53.9892C33.7441 53.9658 33.7792 53.9736 33.791 53.9579C33.8144 54.1925 33.9239 53.9032 34.0216 54.1808L33.9825 54.1886C34.0568 54.2629 34.1507 54.3137 34.2093 54.4115C34.1741 54.4936 34.1155 54.3411 34.0568 54.3724C34.1507 54.4975 34.3579 54.5405 34.3774 54.7047C34.3188 54.6617 34.264 54.5835 34.2093 54.5405C34.225 54.7203 34.2523 54.7203 34.3071 54.8259V54.8142L34.4204 55.0566L34.4009 54.9862C34.6785 55.0331 34.6589 55.2951 34.917 55.4437C34.6668 55.299 34.831 55.4476 34.7489 55.4828C34.7645 55.5531 34.7997 55.6548 34.7645 55.6431C34.8935 55.7095 34.831 55.8503 35.0186 55.9402C34.9991 55.9637 35.089 56.0536 35.0147 56.0692C35.1242 56.1943 35.0343 56.0106 35.0734 56.0028C35.2923 56.1631 35.2962 56.5619 35.6012 56.8003C35.8123 57.0349 35.9257 57.0349 36.1212 57.2578C36.1329 57.3673 35.9922 57.2422 35.9922 57.2422C36.0391 57.3985 36.1056 57.4963 36.2111 57.6058C36.1759 57.594 36.172 57.6292 36.1681 57.6879C36.2346 57.7856 36.2971 57.7035 36.3441 57.8599C36.301 57.8521 36.2424 57.8482 36.1838 57.8169C36.2776 57.9225 36.3949 58.0163 36.4926 58.1297C36.4692 58.1883 36.3831 58.0906 36.3284 58.0632C36.4301 58.1922 36.5825 58.4073 36.6764 58.4112L36.649 58.3056C36.6842 58.3564 36.606 58.3682 36.5708 58.3369C36.4457 58.247 36.4926 58.1492 36.5122 58.1258L36.5825 58.2079C36.6725 58.0319 36.348 57.8599 36.2463 57.6761L36.3949 57.6879L36.1994 57.5549C36.1994 57.5002 36.2463 57.4376 36.3128 57.5158C36.2854 57.3555 36.2072 57.4259 36.1955 57.2812C36.1955 57.2617 36.2072 57.2656 36.215 57.2734L36.1056 57.1679C36.1407 57.1796 36.1681 57.1014 36.1994 57.1874C36.1212 56.9255 35.8983 56.8746 35.9218 56.7417L35.9413 56.7573C35.7107 56.468 35.8475 56.773 35.6129 56.597L35.6989 56.3234L35.6051 56.3429C35.5895 56.3077 35.5543 56.2413 35.5895 56.2334C35.4604 56.1474 35.5699 56.2764 35.4761 56.2334C35.4487 56.034 35.1711 55.8346 35.2689 55.7213C35.175 55.7056 35.3197 55.8933 35.175 55.7603C35.2728 55.6313 35.0304 55.5883 34.9952 55.4085C35.089 55.4085 35.1398 55.561 35.1086 55.385C34.9444 55.3733 34.9522 55.0996 34.8505 54.9979C34.7567 55.0527 34.6433 54.7712 34.4791 54.5991C34.5182 54.5913 34.2719 54.2043 34.178 54.0009H34.1976C34.0842 54.0244 33.9669 53.8289 33.8535 53.7116C33.9083 53.6804 33.9474 53.6882 34.0216 53.7429L33.9278 53.6178C33.877 53.61 33.834 53.5787 33.7675 53.5083L33.8535 53.4927C33.7284 53.3285 33.529 53.219 33.4117 52.9727C33.3453 53.0079 33.3726 53.2659 33.1654 53.0743C33.1928 53.0431 33.2397 52.9922 33.2983 53.0391C33.2788 53.0235 33.2201 52.9922 33.2045 52.9414L33.3257 52.9883C33.2749 52.8749 33.2436 52.9727 33.1889 52.8945C33.2358 52.8593 33.1771 52.8124 33.224 52.7967C33.2436 52.8124 33.2553 52.8788 33.2983 52.8945C33.2397 52.8006 33.1849 52.6755 33.1928 52.6169C33.1732 52.6443 33.1302 52.6638 33.0755 52.6091C32.9425 52.4527 33.0872 52.5113 33.0325 52.3979C32.9699 52.3823 32.9191 52.2533 32.8487 52.308C32.8096 52.2611 32.837 52.2259 32.8409 52.1946C32.7471 52.1321 32.5086 51.8193 32.5203 51.9679L32.532 51.9913L32.5164 51.9796C32.3717 51.874 32.2622 51.7294 32.1606 51.5769C32.0433 51.4361 31.9416 51.2719 31.7931 51.1742L31.8126 51.1546C31.6367 51.0334 31.4451 50.8614 31.2887 50.8184C31.2418 50.7793 31.2066 50.6855 31.2496 50.6737C31.1089 50.5955 31.0737 50.6112 30.9173 50.4352C31.0776 50.49 30.8977 50.3649 31.0737 50.5017C30.9212 50.357 30.9095 50.2906 30.6788 50.2319C30.7844 50.2124 30.6006 50.0677 30.5068 50.0286L30.5967 50.1537C30.4989 50.099 30.4247 50.0403 30.3425 49.9817L30.4403 49.927C30.1471 49.5946 29.6857 49.6885 29.5137 49.3561C29.3847 49.3561 29.6857 49.5164 29.5606 49.5321C29.4003 49.4226 29.2947 49.1997 29.2439 49.1685C29.0406 48.9886 28.9585 49.1685 28.7317 49.0003C28.7474 49.0473 28.7317 49.145 28.5323 49.0746C28.3681 48.9691 28.3955 48.8322 28.5167 48.8674C28.5597 48.887 28.5714 48.9065 28.5675 48.9182C28.6301 48.9378 28.7083 48.9652 28.6574 48.8948L28.6183 48.9143C28.5519 48.8361 28.3134 48.711 28.3955 48.6915C28.2508 48.6485 28.3134 48.711 28.3994 48.7814C28.2039 48.6172 28.0592 48.5937 27.8481 48.4452C27.8755 48.4803 27.8872 48.5351 27.852 48.5155C27.5392 48.3005 27.6761 48.496 27.4415 48.3943C27.3359 48.2809 27.5471 48.3044 27.2968 48.2262C27.1756 48.1246 27.3086 48.1285 27.3789 48.1324C27.1404 48.0855 27.0114 47.8939 26.898 47.8235L27.0192 47.8548C26.945 47.8352 26.8941 47.8079 26.8394 47.7805L26.8707 47.8743C26.812 47.8313 26.7573 47.804 26.7729 47.7766C26.6869 47.7844 26.7729 47.9056 26.6126 47.8939C26.4992 47.7961 26.2412 47.7492 26.1865 47.6202C26.3976 47.7414 26.3859 47.714 26.3702 47.671C26.3546 47.6319 26.3194 47.5733 26.5266 47.671C26.4445 47.6437 26.3546 47.5967 26.2373 47.5225C26.2177 47.5029 26.2529 47.5068 26.2842 47.5225C25.7877 47.1784 26.0848 47.5381 25.6586 47.3191C25.6665 47.2918 25.6195 47.2449 25.5609 47.194C25.5022 47.1471 25.4201 47.0924 25.4123 47.1002C25.4788 47.1237 25.5453 47.1901 25.5374 47.2136C25.5413 47.2331 25.5257 47.237 25.5218 47.2566C25.5218 47.28 25.5179 47.2996 25.5022 47.3191C25.4944 47.3191 25.4866 47.3113 25.4827 47.3113C25.4905 47.5967 25.5844 47.7492 25.5922 47.8978C25.5922 47.8391 25.5922 47.7805 25.5922 47.7219C25.6665 47.8626 25.6665 47.9955 25.6938 48.2028C25.6547 48.2028 25.6508 47.9994 25.6391 48.062C25.7016 48.2145 25.6625 48.3083 25.6195 48.4217C25.5883 48.4999 25.5257 48.5742 25.5335 48.6719C25.4788 48.7423 25.4397 48.6524 25.3967 48.711C25.3771 48.9143 25.2637 48.8791 25.2012 49.0668C25.2911 49.0551 25.2833 49.0316 25.2637 49.1997C25.3068 49.0864 25.3693 48.9925 25.3889 48.8752C25.3967 48.9573 25.3889 49.0394 25.3732 49.1216C25.4397 49.0316 25.4397 48.8987 25.4749 48.844C25.4866 48.9652 25.4749 48.9534 25.5453 48.9261C25.4006 49.0238 25.4514 49.2271 25.295 49.3366L25.1621 49.2271C25.0448 49.2897 25.0018 49.3913 24.9275 49.4891C24.8454 49.5751 24.7711 49.7002 24.6069 49.7628C24.6421 49.751 24.6851 49.751 24.7164 49.7315C24.7164 49.8175 24.5326 49.841 24.4505 49.9191C24.4349 49.8644 24.3645 49.8761 24.3059 49.8644C24.3332 49.9113 24.0713 49.9504 24.083 50.0677L23.911 50.0482C23.6412 50.1146 23.6373 50.2828 23.3558 50.3297C23.4262 50.2515 23.2971 50.2358 23.4692 50.1537C23.3792 50.1733 23.2971 50.1772 23.301 50.2163C23.2463 50.1967 23.0586 50.3414 22.9648 50.2867C22.9296 50.314 22.9218 50.3766 22.8162 50.3805C22.8045 50.3688 22.8162 50.3531 22.8162 50.3531C22.8162 50.3805 22.652 50.4079 22.7537 50.4626C22.4526 50.3258 21.9326 50.5017 21.6785 50.3453C21.4713 50.3727 21.221 50.3609 21.0295 50.3453C21.0412 50.3297 21.0295 50.3179 21.0686 50.3258C20.8144 50.2476 20.8926 50.4782 20.6033 50.3922C20.4625 50.2867 20.7675 50.357 20.6737 50.314C20.6541 50.1225 20.314 50.314 20.1302 50.1616H20.181C20.0403 50.0716 19.8057 50.1694 19.5594 50.1185C19.5594 50.1185 19.575 50.1029 19.5672 50.0912C19.3834 50.1616 19.055 50.1459 18.8165 50.1068C18.9065 50.0521 18.9299 50.0951 18.9025 50.0091C18.797 49.9934 18.9065 50.1342 18.6914 50.1029C18.6328 50.0482 18.492 49.9739 18.492 49.8918L18.6875 49.9348C18.6132 49.8097 18.4334 49.8761 18.3356 49.8331L18.3591 49.794C18.0541 49.7393 18.0228 49.841 17.7101 49.7237L17.7296 49.7667C17.5185 49.8136 17.6084 49.6572 17.409 49.6728L17.4012 49.5477C17.2761 49.5477 16.9789 49.4891 16.7717 49.4109C16.9242 49.3835 17.1549 49.4695 17.3191 49.4695C17.2057 49.4343 16.9633 49.3092 16.8812 49.3366C16.9281 49.3483 16.9946 49.3483 17.0259 49.3835C16.8616 49.3991 16.6622 49.36 16.4589 49.2467C16.5332 49.1606 16.4198 49.0629 16.2791 48.9573C16.2087 48.9065 16.1344 48.8479 16.0758 48.7931C16.021 48.7345 15.9898 48.6641 15.9898 48.6055C15.9077 48.5546 15.8334 48.4921 15.763 48.4256C15.6887 48.3591 15.6535 48.2692 15.6027 48.1871C15.4893 48.0268 15.4502 47.8313 15.3642 47.6397C15.2391 47.8391 15.329 47.5225 15.1648 47.5928C15.1296 47.4912 15.1218 47.4482 15.1335 47.4403C15.1335 47.3309 15.1843 47.2175 15.2078 47.1158C15.2547 47.0415 15.2547 47.2097 15.2938 47.1979C15.2977 46.9829 15.3564 47.108 15.4111 46.9712C15.3447 46.9985 15.329 46.893 15.3603 46.7757L15.2625 46.9399C15.2313 46.7835 15.2704 46.717 15.3251 46.6584C15.3525 46.631 15.3759 46.5997 15.3916 46.5606C15.3955 46.5489 15.3994 46.5411 15.4033 46.5255C15.4111 46.502 15.4033 46.5255 15.4189 46.459C15.4424 46.3925 15.4659 46.3261 15.4854 46.244L15.458 46.4551C15.4932 46.3417 15.5636 46.1697 15.6379 45.9781C15.7395 45.7748 15.8607 45.5402 15.9428 45.3643C15.8842 45.3682 15.8529 45.3682 15.806 45.376C15.7513 45.3838 15.6965 45.3955 15.6457 45.4034C15.544 45.4229 15.4541 45.4464 15.3759 45.4776C15.3486 45.4581 15.3173 45.4112 15.4737 45.3916C15.286 45.3916 15.071 45.4112 14.8637 45.4346C14.6604 45.4503 14.4298 45.4972 14.3437 45.5285C14.1053 45.591 13.8863 45.6458 13.7065 45.6575L13.7299 45.6067C13.6478 45.6418 13.6048 45.724 13.4914 45.7083C13.4914 45.6888 13.5149 45.6575 13.4758 45.6653C13.4328 45.6888 13.2764 45.7943 13.163 45.8139L13.2373 45.7357C13.0183 45.7826 12.8619 45.8725 12.7251 45.9625C12.5922 46.0641 12.4788 46.1775 12.3185 46.2674C12.2911 46.2088 12.1934 46.2049 12.08 46.2283C11.9705 46.2557 11.8493 46.3065 11.7672 46.3417V46.3222C11.5287 46.4394 11.3567 46.5802 11.2003 46.7327C11.04 46.8773 10.8953 47.0298 10.7272 47.1979C10.4027 47.2566 9.91397 47.7649 9.52299 48.0229C9.59337 47.9916 9.58164 48.105 9.53082 48.1715C9.43307 48.2262 9.37051 48.4412 9.30014 48.3435L9.33142 48.32C9.19066 48.2888 9.05382 48.4725 8.9248 48.5898L9.01081 48.7188C8.52209 48.8752 8.23277 49.6259 7.91608 49.665C7.86916 49.7706 7.77533 49.8683 7.72841 49.9739L7.66976 49.9113C7.4469 50.1185 7.33743 50.2241 7.09893 50.5134L7.10675 50.4157C6.95818 50.5682 7.10675 50.7754 6.97773 50.92L6.84871 50.8809C6.60239 51.1546 6.27397 51.3579 6.11367 51.702C6.10585 51.6864 6.0863 51.6551 6.12149 51.6043C6.0042 51.7294 5.61322 52.0461 5.78134 52.1125C5.69533 52.0343 5.5233 52.3979 5.43337 52.5895L5.39036 52.5113C5.36299 52.7107 5.38254 52.7342 5.25352 52.9375C5.21051 52.9766 5.17142 52.9375 5.23397 52.8906C5.0854 53.0157 5.19487 53.047 5.03457 53.2112V53.1095C4.9251 53.2659 4.95638 53.2698 4.94856 53.3949C4.90946 53.5122 4.72961 53.6882 4.65142 53.6725C4.67487 53.7194 4.66705 53.8406 4.58495 53.9228C4.55367 53.9228 4.56149 53.8758 4.5654 53.8563C4.34645 54.1026 4.40901 54.3215 4.22916 54.4701C4.20179 54.4623 4.18615 54.4701 4.1666 54.4779C4.29172 54.2551 4.39728 54.0752 4.39337 54.0987C4.3269 54.0596 4.21352 54.2355 4.2057 54.0361C4.17051 54.2121 4.13924 54.521 4.01021 54.6813C3.99848 54.6852 3.98675 54.693 3.97502 54.693V54.6695C3.94766 54.7086 3.93593 54.7477 3.9242 54.7868C3.88119 54.8376 3.85773 54.8728 3.83036 54.9276C3.7639 54.9197 3.69743 55.127 3.65051 55.2208C3.72871 55.2482 3.65833 55.3655 3.77563 55.2794C3.7639 55.2912 3.77563 55.256 3.80299 55.1934C3.8069 55.1778 3.81472 55.1622 3.81472 55.1504V55.1582C3.846 55.0957 3.88119 55.0175 3.9242 54.9237C3.9242 55.0175 3.9242 55.1074 3.83036 55.1895C3.85382 55.2599 3.87728 55.3381 3.88901 55.3772C3.7248 55.4515 3.55277 55.6743 3.47066 55.6782C3.38074 55.9832 3.21262 56.3781 3.27909 56.6127C3.26345 56.7026 3.19698 56.6909 3.16179 56.7143C3.1657 56.6596 3.19307 56.6049 3.18134 56.5697C3.14615 56.7456 3.00931 57.0701 3.09533 57.1444C2.97412 57.3399 3.0445 56.9919 2.95848 57.2891L2.94284 57.2382C2.56751 57.7543 2.88811 58.2548 2.47758 58.8295C2.50495 58.7904 2.51668 58.767 2.53623 58.7631C2.23127 59.4746 2.20781 60.3035 1.90284 61.0034C1.82856 61.2067 1.89111 61.2419 1.91457 61.3826L1.81683 61.41L1.87548 61.6485C1.89111 61.973 1.55487 62.145 1.62916 62.5673L1.69563 62.5282C1.66044 62.6689 1.65262 62.9817 1.59006 62.9504C1.59788 62.9661 1.6448 63.0052 1.6057 63.056H1.55878L1.58615 63.4157C1.51578 63.6816 1.41021 63.3453 1.34766 63.7441C1.34766 63.8966 1.42976 64.1859 1.46886 64.1312C1.47668 64.0686 1.51578 63.9826 1.56269 63.9826L1.57051 64.1194C1.70345 64.1585 1.82856 64.2719 1.96149 63.9631L1.90675 63.7246L1.98104 63.662L1.95758 63.8536C2.03578 63.7519 1.98886 63.6776 1.96149 63.5955C2.00059 63.5838 2.02796 63.5525 2.04751 63.5095L1.94976 63.2671C2.00841 63.2476 2.03969 63.3805 2.09051 63.2358C2.04751 63.1225 1.95758 63.3179 1.94194 63.1381C2.02014 63.0403 2.06315 63.0794 2.03187 62.9426C2.07096 62.9309 2.0866 62.9622 2.09442 63.013C2.06705 62.8918 2.1257 62.7119 2.06315 62.6416C2.15698 62.5399 2.11006 62.2545 2.23518 62.2897C2.21172 62.2506 2.17262 62.0746 2.18826 61.9691C2.30555 62.188 2.27036 61.582 2.42675 61.6641C2.31337 61.496 2.47367 61.148 2.45021 60.8861C2.45803 60.9017 2.47367 60.933 2.46194 60.9525C2.50495 60.8157 2.55187 60.7844 2.59878 60.7023C2.49322 60.6593 2.51668 60.4364 2.47758 60.3035C2.62615 60.1588 2.58315 60.4364 2.70044 60.4091C2.6066 60.3973 2.68089 60.0924 2.59096 60.1315C2.68871 60.0181 2.64961 60.0298 2.75908 59.9868C2.62615 59.9282 2.75908 59.8617 2.70826 59.7327C2.82946 59.5646 2.85292 59.721 2.86465 59.5059C2.93502 59.4199 2.93502 59.6154 2.93502 59.6154H2.93893ZM4.48721 54.8611C4.46766 54.9002 4.45202 54.9315 4.44029 54.9549C4.44811 54.9354 4.46375 54.908 4.48721 54.8611ZM4.69051 54.4936C4.66314 54.5366 4.63187 54.5913 4.59668 54.65C4.5654 54.65 4.54585 54.6226 4.56931 54.5835C4.57322 54.6148 4.63578 54.5327 4.69051 54.4897V54.4936ZM3.75999 55.0214C3.77954 54.9549 3.80299 54.9393 3.82254 54.9393C3.81081 54.9706 3.79909 55.0058 3.77954 55.0527V55.0644C3.77954 55.0644 3.7639 55.037 3.75999 55.0214Z" fill="#1B1B1B"/>
<path d="M8.50739 50.0992L8.49145 50.0873L8.47949 50.1271L8.50739 50.0992Z" fill="#1B1B1B"/>
<path d="M26.1514 48.3474C26.1514 48.3474 26.1514 48.3554 26.1514 48.3594C26.1673 48.3952 26.1593 48.3753 26.1514 48.3474Z" fill="#1B1B1B"/>
<path d="M28.7438 49.3874C28.7008 49.3795 28.6617 49.3756 28.6226 49.3639C28.6773 49.403 28.7203 49.4265 28.7438 49.3874Z" fill="#1B1B1B"/>
<path d="M28.4736 49.278C28.5245 49.3249 28.5714 49.3483 28.6222 49.364C28.5792 49.3327 28.5284 49.2936 28.4736 49.278Z" fill="#1B1B1B"/>
<path d="M31.2183 50.6033L31.2769 50.5525C31.1792 50.4939 31.2574 50.576 31.2183 50.6033Z" fill="#1B1B1B"/>
<path d="M30.0688 50.2749L30.1314 50.3726L30.2135 50.3414L30.0688 50.2749Z" fill="#1B1B1B"/>
<path d="M29.7877 49.4695L29.8346 49.4852L29.6626 49.4109L29.7877 49.4695Z" fill="#1B1B1B"/>
<path d="M21.9092 50.2515L21.9405 50.3453C22.0147 50.3297 22.0265 50.2241 21.9092 50.2515Z" fill="#1B1B1B"/>
<path d="M17.7687 49.6767C17.7414 49.618 17.6397 49.5516 17.5576 49.5711C17.6436 49.6063 17.7179 49.6728 17.7687 49.6767Z" fill="#1B1B1B"/>
<path d="M8.76861 48.7696L8.81162 48.6875L8.70996 48.8204L8.76861 48.7696Z" fill="#1B1B1B"/>
<path d="M27.6057 33.6505C27.7113 34.4246 28.3095 35.3786 28.6965 35.8712C29.7639 37.2279 32.7666 40.9266 37.7555 37.3648C40.4923 35.4099 38.9284 33.064 35.8006 34.2369C33.4156 35.1323 32.6962 33.3572 30.9368 32.0162C29.1852 30.683 27.3359 31.6369 27.6096 33.6505H27.6057Z" fill="white"/>
<path d="M29.2989 31.7856C29.7485 31.7856 30.2333 31.9733 30.6947 32.3213C31.1208 32.6458 31.4845 32.9977 31.8363 33.3378C32.6457 34.1237 33.412 34.8626 34.6084 34.8626C35.0189 34.8626 35.4529 34.7766 35.9338 34.5968C36.446 34.4052 36.9269 34.3074 37.3608 34.3074C38.0763 34.3074 38.5885 34.5733 38.7332 35.019C38.8778 35.4765 38.6393 36.2467 37.5251 37.0404C36.1957 37.9904 34.9094 38.4713 33.7091 38.4713C31.246 38.4713 29.6742 36.4735 29.0017 35.6211C28.5756 35.0777 28.0751 34.2097 27.993 33.5919C27.9148 33.025 28.0321 32.5324 28.3175 32.204C28.556 31.9303 28.904 31.7817 29.2989 31.7817M29.2989 31.3907C28.2159 31.3907 27.4144 32.2704 27.602 33.6428C27.7076 34.4169 28.3058 35.3709 28.6929 35.8635C29.4318 36.8019 31.0974 38.8623 33.7052 38.8623C34.8664 38.8623 36.2153 38.4557 37.7479 37.3571C39.9765 35.7658 39.3548 33.9165 37.3569 33.9165C36.8995 33.9165 36.3756 34.0142 35.793 34.2292C35.3434 34.3974 34.9524 34.4716 34.6045 34.4716C33.0992 34.4716 32.3563 33.0954 30.9293 32.0085C30.3702 31.5823 29.8033 31.3907 29.295 31.3907H29.2989Z" fill="black"/>
<path d="M31.1376 32.3644L28.8555 35.8612L29.1829 36.0749L31.465 32.5781L31.1376 32.3644Z" fill="black"/>
<path d="M33.0811 33.9548L31.126 37.8643L31.4757 38.0391L33.4308 34.1297L33.0811 33.9548Z" fill="black"/>
<path d="M35.8084 34.359L34.2446 38.6578L34.6121 38.7915L36.1758 34.4927L35.8084 34.359Z" fill="black"/>
<path d="M31.6918 24.0677C31.6293 24.0677 31.5667 24.0364 31.5276 23.9817C31.5159 23.9621 30.296 22.1636 28.9667 22.0932C28.4389 22.062 27.9697 22.3122 27.5396 22.8283C27.4693 22.9104 27.3481 22.9221 27.266 22.8517C27.1839 22.7814 27.1721 22.6602 27.2425 22.578C27.7547 21.9642 28.3529 21.6671 28.9902 21.7023C30.5189 21.7844 31.8013 23.6845 31.856 23.7666C31.9147 23.8565 31.8912 23.9777 31.8013 24.0364C31.77 24.0599 31.7309 24.0677 31.6918 24.0677Z" fill="black"/>
<path d="M38.3381 24.0677C38.3029 24.0677 38.2717 24.0599 38.2404 24.0403C38.1465 23.9856 38.1153 23.8644 38.17 23.7745C38.1856 23.751 39.5658 21.4873 42.7327 23.2076C42.8265 23.2584 42.8617 23.3796 42.8109 23.4734C42.7601 23.5673 42.6389 23.6024 42.545 23.5516C39.7183 22.0151 38.5532 23.8918 38.5062 23.9739C38.4711 24.0364 38.4046 24.0677 38.3381 24.0677Z" fill="black"/>
<path d="M40.4886 17.812C41.118 19.071 39.7066 20.9399 39.7066 20.9399C39.7066 20.9399 44.0074 21.3308 44.0074 18.594C44.0074 16.8463 42.0525 14.6842 42.0525 14.6842C44.0074 15.4662 46.3532 20.6036 46.3532 20.6036C46.3532 20.6036 45.5713 15.4662 42.0525 11.9474C42.0525 11.9474 38.5337 7.25565 32.278 6.08272C30.0417 5.49234 28.4582 5.45715 28.4582 5.45715C25.3617 5.64091 22.8985 6.32512 20.9358 7.25956C18.8519 8.06888 11.7556 11.6932 8.52226 24.4587C4.71023 39.5113 8.22903 38.7293 4.71023 41.4662C1.19143 44.203 -1.54541 51.6316 5.88316 52.8045C5.88316 52.8045 9.59745 45.5714 17.2215 46.1579C17.2215 46.1579 18.3319 41.259 19.1451 40.5826C19.6808 40.1369 16.3262 37.7206 14.2931 32.8725C15.7553 30.1787 18.3944 30.1317 19.5674 25.44C20.3767 22.2066 22.9767 15.3059 26.0185 15.0791C27.6411 14.9579 22.1087 20.5528 22.1087 20.5528C22.1087 20.5528 26.8787 22.4764 30.3193 19.3799C31.3436 18.4572 32.2741 17.034 32.0787 14.4926L32.5283 15.689C32.9818 16.8932 32.7902 18.246 32.0239 19.2782L31.0347 20.6114C31.0347 20.6114 34.0492 21.6671 37.3608 20.1657C41.6615 18.2108 35.4059 13.1281 35.4059 13.1281C35.4059 13.1281 39.3156 15.474 40.4886 17.8199V17.812Z" fill="black"/>
<path d="M40.6021 41.5718C33.8421 47.5264 25.917 45.0124 25.917 45.0124L24.8496 47.9173C31.8872 50.2632 34.0376 54.3841 34.0376 54.3841C43.2255 56.1591 38.9248 49.8722 38.7293 48.9847C38.5338 48.0972 37.7519 47.1393 38.7293 45.548C39.7068 43.9567 40.6021 41.5718 40.6021 41.5718Z" fill="black"/>
</g>
</g>
<defs>
<clipPath id="clip0_4971_5026">
<rect width="52" height="52" fill="white" transform="translate(1 1)"/>
</clipPath>
</defs>
</svg>
