<svg width="52" height="52" viewBox="0 0 52 52" fill="none" xmlns="http://www.w3.org/2000/svg">
<circle cx="26" cy="26" r="26" fill="#FF4D57"/>
<mask id="mask0_4505_6693" style="mask-type:luminance" maskUnits="userSpaceOnUse" x="0" y="0" width="52" height="52">
<path d="M26 52C40.3594 52 52 40.3594 52 26C52 11.6406 40.3594 0 26 0C11.6406 0 0 11.6406 0 26C0 40.3594 11.6406 52 26 52Z" fill="white"/>
</mask>
<g mask="url(#mask0_4505_6693)">
<path d="M29.5187 50.2408C26.6411 46.9527 22.4811 45.9401 22.4811 45.9401L23.3452 42.996C25.4682 43.688 27.7241 43.9187 30.0153 43.5981C39.2619 42.3001 45.5332 32.4944 44.0162 21.6956C42.5031 10.8968 33.7765 3.19451 24.5259 4.49256C15.2754 5.7906 9.00805 15.5963 10.525 26.3951C11.2249 31.384 13.4652 35.716 16.5852 38.8008C16.5852 38.8008 15.0526 42.0303 14.6616 44.3762C14.6616 44.3762 8.01497 43.2032 3.32324 51.0228" fill="#FFF7EB"/>
<path d="M3.20974 50.9563C3.18628 51.0267 3.23711 51.011 3.34267 50.839L3.36613 50.6865L3.20974 50.9563Z" fill="#1B1B1B"/>
<path d="M4.05812 49.8888C4.15586 49.6698 4.28488 49.4235 4.14022 49.5095C4.0503 49.7363 4.00338 49.7715 3.92519 50.0256C3.81962 50.1976 3.71406 50.3071 3.71406 50.268C3.68669 50.3384 3.5303 50.5221 3.50293 50.6355C3.6906 50.444 3.87436 50.1703 4.03075 49.8536C4.08158 49.7988 4.05812 49.8692 4.05812 49.8888Z" fill="#1B1B1B"/>
<path d="M15.8345 37.874L15.9127 37.9718C15.8931 37.9444 15.8658 37.9092 15.8345 37.874Z" fill="#1B1B1B"/>
<path d="M10.7593 27.0519C10.7749 27.1418 10.7866 27.1809 10.7945 27.1848C10.7749 27.1027 10.7632 27.0323 10.7593 27.0519Z" fill="#1B1B1B"/>
<path d="M10.5757 24.9954C10.5757 25.0384 10.5757 25.0775 10.5796 25.1166C10.5796 25.0696 10.5796 25.0227 10.5757 24.9954Z" fill="#1B1B1B"/>
<path d="M15.8345 37.874L15.6351 37.6199C15.6039 37.6199 15.7329 37.7528 15.8345 37.874Z" fill="#1B1B1B"/>
<path d="M5.68858 47.7034C5.64166 47.7542 5.60647 47.8011 5.5752 47.8441L5.68858 47.719C5.68858 47.719 5.68858 47.7112 5.68858 47.7034Z" fill="#1B1B1B"/>
<path d="M15.2129 42.73L15.1855 42.8238C15.1855 42.8551 15.1855 42.8825 15.1855 42.9098L15.2129 42.73Z" fill="#1B1B1B"/>
<path d="M12.3116 44.5716C12.4015 44.5599 12.4289 44.5052 12.4601 44.4778C12.4132 44.5091 12.3428 44.5208 12.2646 44.5403C12.2646 44.5521 12.2803 44.5599 12.3116 44.5716Z" fill="#1B1B1B"/>
<path d="M6.51716 47.2341L6.43506 47.3162C6.45852 47.2967 6.49371 47.2615 6.51716 47.2341Z" fill="#1B1B1B"/>
<path d="M16.2334 39.9815C16.2334 39.9815 16.2569 39.9658 16.2647 39.9541C16.2569 39.9541 16.2451 39.9619 16.2334 39.9815Z" fill="#1B1B1B"/>
<path d="M25.9098 47.0776C25.9098 47.0776 25.9098 47.0858 25.9058 47.0858C25.9302 47.0939 25.9384 47.0939 25.9098 47.0776Z" fill="#1B1B1B"/>
<path d="M29.5069 50.2486L29.46 50.2017C29.46 50.2017 29.4365 50.2017 29.4287 50.2134L29.5108 50.2486H29.5069Z" fill="#1B1B1B"/>
<path d="M35.1214 7.26828C34.8243 7.00632 35.6805 7.57715 35.227 7.1979C35.2583 7.24482 34.7383 6.96723 35.1214 7.26828Z" fill="#1B1B1B"/>
<path d="M5.7666 47.6329L5.88389 47.5117C5.82916 47.5665 5.79397 47.6056 5.7666 47.6329Z" fill="#1B1B1B"/>
<path d="M35.2271 7.19803L35.1802 7.15894C35.1997 7.17457 35.2115 7.1863 35.2271 7.19803Z" fill="#1B1B1B"/>
<path d="M13.1016 12.9961C13.1016 12.9961 13.0625 13.0352 13.0391 13.0626C13.0469 13.0626 13.0625 13.0469 13.1016 12.9961Z" fill="#1B1B1B"/>
<path d="M10.8496 19.0289L10.8848 18.8726C10.8692 18.9351 10.8574 18.9859 10.8496 19.0289Z" fill="#1B1B1B"/>
<path d="M14.9233 10.1889C14.982 10.1224 15.0054 10.1068 15.0758 10.009C15.068 10.0169 15.0602 10.0247 15.0485 10.0325C15.025 10.0716 14.9937 10.1185 14.9233 10.1889Z" fill="#1B1B1B"/>
<path d="M17.4098 7.74146C17.4098 7.74146 17.3707 7.76101 17.3512 7.77274C17.3238 7.79619 17.2925 7.81965 17.2651 7.84311L17.4059 7.73755L17.4098 7.74146Z" fill="#1B1B1B"/>
<path d="M27.3289 43.9578C27.2507 43.9383 27.2038 43.9187 27.1647 43.8992C27.2195 43.9422 26.6916 43.9304 27.3289 43.9578Z" fill="#1B1B1B"/>
<path d="M5.71194 47.7266C5.71584 47.7032 5.73148 47.6758 5.77058 47.6328C5.74321 47.6641 5.71584 47.6915 5.68848 47.7188C5.68848 47.7306 5.68848 47.7384 5.71194 47.7227V47.7266Z" fill="#1B1B1B"/>
<path d="M14.6812 9.79799C14.8024 9.64942 14.9314 9.51257 15.0604 9.37573C14.947 9.48912 14.8063 9.6416 14.6812 9.79799Z" fill="#1B1B1B"/>
<path d="M44.2622 27.908L44.2505 28.037C44.2583 27.9862 44.2622 27.9431 44.2622 27.908Z" fill="#1B1B1B"/>
<path d="M16.2451 8.16769C16.335 8.11296 16.4211 8.0504 16.511 7.98394C16.5266 7.96439 16.5423 7.94484 16.5501 7.9292L16.2451 8.16769Z" fill="#1B1B1B"/>
<path d="M23.6071 43.4063C23.6423 43.418 23.6462 43.4141 23.7205 43.4298C23.7713 43.4376 23.7909 43.4298 23.8026 43.422C23.8183 43.4024 23.787 43.3633 23.8456 43.3594C24.4751 43.5119 24.1193 43.4884 24.3265 43.5823C24.7253 43.6644 25.042 43.6565 25.3392 43.7152C25.3587 43.7308 25.4174 43.7426 25.347 43.7465C25.7771 43.7699 26.6059 43.9302 27.1064 43.8794C27.1416 43.8872 27.1611 43.895 27.1689 43.8989C27.0907 43.8599 27.079 43.8208 27.0986 43.7973C27.341 43.809 27.5443 43.7738 27.6342 43.8208C27.4856 43.8168 27.4739 43.8364 27.4035 43.8481L27.6577 43.8325C27.8844 43.9068 27.3136 43.8481 27.3097 43.895C27.8062 43.895 28.381 43.8325 28.7563 43.8325C28.8384 43.8989 27.8727 43.8833 28.381 43.9302C28.1855 43.9263 27.99 43.9185 27.7945 43.9107C28.2441 44.0202 27.4348 43.899 27.8492 44.0162C28.6273 44.0319 28.7172 43.9732 29.4914 43.9263C29.6595 43.8716 29.4288 43.8794 29.5969 43.8247C30.1365 43.7308 30.3515 43.723 30.5353 43.7347C30.719 43.7387 30.8715 43.7621 31.2547 43.6214C31.4462 43.5236 31.5127 43.4493 32.0718 43.3281L31.9037 43.4571C32.6231 43.246 32.2868 43.2499 33.0414 43.0349C32.9202 43.1092 32.4941 43.2577 32.6035 43.2265C33.1001 43.1092 32.928 43.0662 33.2956 42.9332L33.3972 42.9684C34.1362 42.6596 34.9103 42.2412 35.661 41.7759C35.6297 41.815 35.5085 41.9089 35.6962 41.8268C36.6384 41.2286 37.6667 40.4896 38.476 39.7741L38.7301 39.4457C38.7966 39.3792 38.8748 39.3402 38.8083 39.4184C39.1211 39.1368 38.7966 39.3792 38.9256 39.2189C39.0938 39.0508 39.168 39.0156 39.0781 39.1368C39.5629 38.5738 40.3762 37.4869 40.861 36.877L40.7906 37.0138C41.1464 36.5212 41.0838 36.3883 41.4123 35.9386L41.3653 36.0364C42.0808 34.9338 42.6438 33.5967 43.07 32.6935C43.0739 32.4941 43.5314 31.4776 43.4453 31.3642C43.6956 30.6605 43.6877 30.8794 43.9614 29.859C44.0357 29.5853 43.981 29.4328 44.0357 29.0887H44.0983L44.1217 28.6156L44.2273 28.3771L44.2586 28.0526C44.2351 28.1817 44.1921 28.3224 44.1765 28.2989C44.2312 27.7946 44.372 27.0713 44.4032 27.0595C44.4345 26.6568 44.4267 26.2541 44.4345 25.8514C44.458 25.8788 44.4541 26.0821 44.4619 26.2424C44.4345 25.5973 44.5401 26.129 44.501 25.5347C44.4853 25.6129 44.4658 25.4917 44.4541 25.4761C44.4971 25.1829 44.5049 24.5104 44.4619 24.0177L44.5049 24.1116C44.5049 23.662 44.4501 23.1928 44.411 22.708C44.3446 22.2271 44.2938 21.7305 44.2038 21.234C44.2429 21.5937 44.1569 21.5194 44.1061 21.234L44.1491 21.1089C44.0787 20.929 44.1765 21.4177 44.0631 21.0385C44.0083 20.6671 44.0944 20.7765 44.1491 20.9877C44.1139 20.8391 44.0905 20.6905 44.0474 20.542C44.0592 20.5107 44.0905 20.6162 44.1217 20.6397C44.0435 20.4638 44.0279 19.8538 43.8989 19.6036L43.9106 19.5762C43.6682 18.5988 43.5196 18.1648 43.2538 17.3907C43.1951 17.3907 43.1013 17.0857 42.9801 16.8707C42.8823 16.5892 42.7768 16.2881 42.6634 15.9753C42.5422 15.6665 42.4053 15.3459 42.2568 15.0135C42.0026 14.5717 42.1473 14.9002 42.0183 14.7125C42.0456 14.6577 41.7172 14.0126 41.9166 14.3332C41.4983 13.5708 41.381 13.3558 40.7554 12.4526C40.8062 12.5621 40.8688 12.6794 40.818 12.6325C40.7007 12.4722 40.5834 12.2454 40.6186 12.2571L40.6538 12.2962C39.9187 11.311 39.0508 9.92692 38.2688 9.30526L38.3118 9.34045C38.0655 9.10587 37.8035 8.88692 37.5416 8.67188C37.2014 8.34737 37.7723 8.83609 37.5416 8.57805C36.6619 7.91339 36.2201 7.43639 35.4342 6.97504C35.313 6.84211 35.1175 6.69354 34.879 6.54105C34.6444 6.38075 34.3668 6.22045 34.0736 6.07188C33.495 5.7591 32.8655 5.48932 32.4432 5.26647L32.4823 5.3212C32.2438 5.25865 32.2165 5.18045 32.0483 5.11399C32.064 5.14526 32.2868 5.2391 32.1383 5.2C30.1912 4.4806 27.99 3.99579 25.8357 4.0779C25.0498 4.10917 25.4056 4.2812 24.4204 4.30857C24.5103 4.26948 24.6002 4.24211 24.6901 4.21083C23.138 4.4806 21.5154 4.8794 20.1509 5.61053C20.2291 5.55579 20.2213 5.53624 20.3581 5.47369C20.0414 5.56752 19.2751 6.00932 19.2986 6.05624C19.0874 6.16963 19.2321 6.05624 19.0953 6.11098C18.7903 6.24 18.4267 6.59188 18.2547 6.64271C18.2273 6.65053 18.325 6.58015 18.372 6.54496C18.196 6.67008 17.5509 7.10797 17.7503 7.02978C17.504 7.18617 17.2889 7.3582 17.0895 7.53023C16.8862 7.69835 16.6986 7.85474 16.5187 7.9994C16.4288 8.12451 16.2372 8.2809 16.073 8.42947C15.9127 8.58196 15.772 8.7188 15.768 8.78526C15.7289 8.68361 15.0095 9.46557 14.8141 9.77444C14.8727 9.66105 14.5912 10.0012 14.6538 9.86827C14.384 10.1889 14.165 10.5017 14.2471 10.4743C13.9774 10.748 13.7584 11.0686 13.5864 11.3696C13.4065 11.6629 13.2541 11.9209 13.0898 12.0734C12.4838 13.1564 12.0186 14.2003 11.6315 15.2403C11.5494 15.166 12.1007 14.1065 11.999 14.1143C11.6041 15.0956 11.4556 15.686 11.1193 16.6752C11.0216 16.9293 11.131 16.5188 11.1467 16.425C10.8652 17.4376 10.5798 18.3838 10.4703 19.3143C10.4625 19.3104 10.4703 19.2087 10.482 19.1149C10.4507 19.2986 10.3882 19.5332 10.4351 19.5215L10.4586 19.3417C10.5172 19.2009 10.5055 19.3886 10.4977 19.6114C10.4938 19.8382 10.4781 20.1002 10.4898 20.1197C10.4116 19.7952 10.3413 21.0268 10.2592 20.5185C10.2553 20.6397 10.2592 20.7922 10.2865 20.7687C10.2592 20.9486 10.2396 21.0033 10.2279 20.8156C10.1888 21.4764 10.2396 21.2457 10.2083 21.84C10.1888 21.84 10.1888 21.7149 10.1692 21.6523C10.1966 21.9573 10.1966 22.2623 10.181 22.7666C10.1692 22.7353 10.1536 22.794 10.1575 22.6454C10.1575 23.0794 10.1692 23.4469 10.2083 23.8262C10.224 24.0138 10.2396 24.2054 10.2474 24.4087C10.267 24.612 10.2826 24.8271 10.2904 25.0656C10.1849 24.7919 10.2865 25.3901 10.2201 25.4487L10.3022 25.9531L10.3139 25.7459C10.3608 26.1916 10.4625 26.5747 10.5094 26.9579L10.4273 26.6334C10.4781 26.9071 10.5211 27.1847 10.5759 27.4583C10.5524 27.302 10.5407 27.1417 10.525 26.9853C10.6384 27.4232 10.6032 26.9227 10.6892 27.5092C10.658 27.3919 10.7753 27.9471 10.7792 28.1817C10.8456 28.3928 10.9316 28.6039 10.9903 28.9284C10.9903 29.0183 10.8965 28.8815 10.8926 28.9402C10.9942 29.1395 11.1858 29.945 11.3304 30.1913C11.2874 30.1092 11.2483 30.117 11.2523 30.1483L11.3578 30.3086C11.4086 30.508 11.4086 30.5392 11.3695 30.5197C11.5572 31.114 11.393 30.3047 11.5924 31.0162C11.5689 30.9615 11.5689 30.9928 11.522 30.8794C11.7566 31.5832 12.0577 32.2087 12.3274 32.8343C12.3431 33.0493 12.0616 32.2986 12.1007 32.5332C12.5151 33.4325 13.0742 34.3278 13.559 35.145L13.473 34.9925C13.6333 35.0472 13.7975 35.6259 14.1181 35.9895C14.0438 35.8956 13.9813 35.8956 14.0086 35.9152C14.3566 36.4665 14.8023 36.9904 15.4631 37.7254L15.3614 37.6511C15.596 37.9561 16.0222 38.4214 16.3076 38.7224C16.3467 38.7537 16.4014 38.7928 16.4366 38.8162C16.4679 38.8397 16.4953 38.8514 16.4757 38.8084L16.5031 38.8475L16.4092 39L16.3037 39.2033C16.2333 39.3402 16.1707 39.477 16.1121 39.6138C15.9948 39.8914 15.8892 40.1651 15.7954 40.4388C15.5999 40.9862 15.4279 41.5179 15.1894 42.0262C15.2324 41.8971 15.2754 41.7134 15.2363 41.815C15.1386 42.1239 15.0447 42.4328 14.9626 42.7417C15.0291 42.683 15.0252 42.6283 15.119 42.4445C15.1073 42.5696 15.0486 42.8355 14.9822 43.0623C15.076 42.64 14.9079 43.0427 14.8375 43.2226C14.861 43.1952 14.8571 43.2617 14.8766 43.2499C14.6694 43.7191 14.9392 43.3516 14.732 44.0084L14.7163 43.9693C14.6929 44.1218 14.6889 44.2391 14.6616 44.3799C14.5599 44.372 14.4583 44.3603 14.3488 44.3525C14.251 44.2899 14.6068 44.3525 14.5834 44.3095C14.5091 44.3017 14.4504 44.3017 14.3527 44.3017C14.255 44.3017 14.1611 44.3095 14.0673 44.3134C13.8796 44.329 13.6959 44.3368 13.5199 44.3134C13.6841 44.2938 13.9226 44.2977 14.0907 44.2899C13.7076 44.2235 13.6568 44.2313 13.3713 44.2352H13.3987C13.1759 44.2352 12.953 44.2352 12.7301 44.2547H12.9022C12.4291 44.4385 11.9091 44.3916 11.2874 44.6457C11.8856 44.4033 11.3774 44.5714 11.4126 44.5011C11.2444 44.5284 10.9903 44.5753 11.0568 44.5402C10.7635 44.6574 10.5407 44.6496 10.1458 44.8647C10.1223 44.8529 9.82909 44.9741 9.87601 44.9077C9.50458 45.0797 9.97766 44.8959 9.95421 44.9389C9.6727 45.0797 9.33646 45.2283 8.95721 45.3729C8.60142 45.5567 8.19872 45.7483 7.84684 46.0337C7.233 46.5146 7.13917 46.6241 6.62308 47.1245C6.41977 47.2574 6.72864 46.9447 6.72864 46.9447C6.41977 47.1832 6.17736 47.3591 5.93887 47.6406C5.97796 47.5741 5.91541 47.6211 5.82157 47.6875C5.61827 47.9026 5.73165 47.8791 5.44233 48.1411C5.4736 48.0785 5.50879 47.9925 5.59481 47.8752C5.37195 48.145 5.13345 48.3952 4.93406 48.7002C4.85195 48.7549 5.02789 48.4929 5.09827 48.3874C4.84804 48.708 4.46097 49.228 4.42188 49.357L4.59781 49.1654C4.50789 49.2827 4.51571 49.1967 4.57436 49.1068C4.75812 48.8096 4.90278 48.7275 4.93015 48.7236L4.77766 48.9308C4.90669 48.8683 5.05135 48.6532 5.23511 48.4304C5.42278 48.2114 5.62218 47.9573 5.80594 47.7735L5.71601 47.9847L6.03661 47.5585C6.13045 47.492 6.21646 47.4725 6.04443 47.6641C6.33375 47.4334 6.26729 47.4256 6.53315 47.2496C6.56443 47.234 6.55661 47.2457 6.53315 47.2692L6.7912 47.019C6.74819 47.0776 6.8733 47.0229 6.69736 47.1597C7.20172 46.7648 7.48323 46.4794 7.7139 46.3817L7.6709 46.4168C8.39421 45.889 7.69436 46.2995 8.23391 45.8929L8.69917 45.7991L8.74609 45.7053C8.82819 45.6623 8.98849 45.5762 8.96894 45.6153C9.25827 45.4277 8.90248 45.6153 9.06669 45.4941C9.28172 45.4277 9.55932 45.2947 9.79781 45.1853C10.0402 45.0758 10.2553 45.0211 10.3139 45.0445C10.4507 44.9507 9.89947 45.154 10.3374 44.9663C10.4195 44.9937 10.5446 44.9429 10.7049 44.8764C10.8613 44.8099 11.0607 44.7513 11.2601 44.7161C11.1506 44.7982 10.7753 44.8686 11.178 44.8099C11.2835 44.7396 11.4751 44.6848 11.6823 44.6574C11.8895 44.634 12.1124 44.6183 12.2766 44.5793C12.2805 44.505 13.0077 44.4463 13.5786 44.415C13.5668 44.4229 13.7037 44.4307 13.9148 44.4424C14.1259 44.4541 14.3644 44.4698 14.7554 44.5362C14.7867 44.415 14.8101 44.286 14.8375 44.1687C14.861 44.071 14.8766 44.0006 14.8962 43.9263L14.904 43.9459C14.8532 43.8286 14.9939 43.2968 15.0995 42.9098C15.1386 42.9371 15.1268 43.0114 15.0916 43.2226C15.1229 43.1014 15.1581 42.9802 15.1933 42.8629C15.1972 42.7729 15.2168 42.6556 15.2871 42.4211L15.3106 42.5266C15.4592 42.0496 15.5726 41.5492 15.8384 40.9588C15.8032 40.908 15.5217 41.3889 15.7368 40.7359C15.772 40.7203 15.8228 40.7164 15.768 40.8884C15.7837 40.8337 15.8228 40.6851 15.8775 40.5796L15.8189 40.8493C15.944 40.5835 15.8384 40.6929 15.9323 40.474C15.9674 40.4935 16.0222 40.3215 16.0378 40.3645C16.0183 40.4232 15.9479 40.5483 15.9283 40.6382C16.0339 40.3919 16.1786 40.1065 16.245 40.0205C16.2177 40.0322 16.1981 40.0009 16.2685 39.8211C16.464 39.3597 16.378 39.6803 16.5148 39.4223C16.5265 39.3597 16.5735 39.262 16.6086 39.172C16.636 39.0977 16.6947 38.957 16.6634 38.957C16.6907 38.8944 16.7181 38.8514 16.7377 38.8162C16.6947 38.7576 16.6868 38.7263 16.6595 38.6833C16.6047 38.6286 16.5148 38.5426 16.4132 38.4448C16.3271 38.3588 16.2333 38.265 16.1473 38.1829C15.987 38.0147 15.8697 37.8974 15.944 38.0265L15.987 38.0773C15.987 38.0773 15.9674 38.0577 15.9557 38.046C15.3301 37.4595 14.8375 36.6737 14.3332 35.9973L14.3488 35.9856C14.036 35.5868 13.7193 35.055 13.4965 34.7696C13.4222 34.6406 13.3518 34.4451 13.4026 34.4881C13.1993 34.1597 13.1524 34.1362 12.9256 33.628C13.1329 33.9564 12.8904 33.495 13.1289 33.9681C12.9178 33.5146 12.8787 33.409 12.605 32.9438C12.7301 33.0884 12.4956 32.5802 12.39 32.3651C12.4213 32.4785 12.4643 32.588 12.5034 32.6974C12.3783 32.459 12.3001 32.24 12.2101 32.0211L12.3196 32.1149C11.9912 31.1531 11.5298 30.4415 11.436 29.6556C11.3187 29.4093 11.5572 30.1991 11.4399 29.9802C11.3187 29.5227 11.2679 29.0301 11.2405 28.8854C11.1232 28.252 10.9981 28.3263 10.8926 27.6577C10.8886 27.7477 10.8417 27.8415 10.7205 27.3489C10.6541 26.8797 10.7205 26.7585 10.7909 27.0517C10.8104 27.1612 10.8104 27.2159 10.8026 27.2159C10.8339 27.3645 10.8886 27.5561 10.873 27.3723L10.8378 27.3176C10.8222 27.083 10.7205 26.4457 10.7792 26.5904C10.701 26.2424 10.7166 26.4457 10.7479 26.7077C10.6892 26.1056 10.6189 25.7732 10.5876 25.1555C10.5837 25.2532 10.5602 25.3471 10.5563 25.2493C10.5211 24.3383 10.4742 24.8544 10.4351 24.2367C10.4586 23.8848 10.525 24.3579 10.4742 23.7402C10.4859 23.3609 10.5329 23.658 10.5563 23.8066C10.4859 23.2436 10.5876 22.751 10.5954 22.4304L10.611 22.7275C10.5993 22.5516 10.6032 22.403 10.611 22.2583L10.5563 22.4265C10.5759 22.2544 10.5837 22.1059 10.6032 22.1098C10.5837 21.9299 10.5172 22.2427 10.4977 21.883C10.5289 21.6523 10.5211 21.1714 10.5954 21.0971C10.5055 21.8244 10.658 21.0229 10.6189 21.6406C10.6189 21.5194 10.6306 21.3747 10.658 21.2027C10.6658 21.1753 10.6697 21.2301 10.6658 21.277C10.7948 20.5889 10.615 20.9486 10.7166 20.2292C10.7362 20.323 10.8065 20.0728 10.8144 19.9555C10.7713 20.2448 10.7362 20.0845 10.7479 19.8147C10.8417 19.3573 10.8183 19.3143 10.8613 19.0719L10.7987 19.3456C10.7831 19.2478 10.83 19.0171 10.8808 18.6965C10.9121 18.6731 10.8456 18.9898 10.8808 18.8803C10.8886 18.5128 11.1154 18.0944 11.2014 17.5979C11.2874 17.3789 11.2718 17.594 11.3422 17.4024C11.4477 16.8472 11.5572 16.8316 11.7058 16.2608C11.608 16.4054 11.608 16.4406 11.698 16.0301L11.4282 16.9645C11.4673 16.7573 11.5142 16.554 11.5572 16.3507C11.4634 16.6322 11.3891 16.9489 11.3383 17.117C11.3813 16.8199 11.3852 16.8511 11.3109 16.9762C11.4986 16.6126 11.5103 16.1982 11.7175 15.7759L11.8192 15.8307C11.9677 15.514 12.0538 15.2168 12.1789 14.9041C12.2923 14.5874 12.4213 14.2472 12.6363 13.8484L12.4916 14.1026C12.5073 13.9735 12.7223 13.5904 12.8513 13.3284C12.8709 13.3714 12.9726 13.215 13.0547 13.1173C13.039 13.1173 13.1172 12.9726 13.1993 12.8123C13.2853 12.6559 13.3753 12.4878 13.3635 12.4331L13.6177 12.1125C14.0399 11.5143 13.9813 11.3501 14.4192 10.791C14.3253 10.9865 14.5404 10.748 14.2823 11.1429C14.4231 10.9552 14.556 10.791 14.5365 10.7714C14.6303 10.6698 14.904 10.2319 15.0682 10.0872C15.119 10.0012 15.1034 9.94647 15.2871 9.75098C15.3106 9.73534 15.2989 9.76271 15.2989 9.76271C15.2832 9.75098 15.5608 9.4382 15.3732 9.58286C15.6586 9.34827 16.0144 8.98857 16.3662 8.6406C16.7298 8.30436 17.0895 7.97985 17.375 7.82737C17.5665 7.65534 17.7933 7.48331 18.0162 7.3191C18.2351 7.14707 18.458 6.99459 18.6574 6.86948C18.6378 6.89684 18.6652 6.88511 18.5909 6.93203C19.15 6.61534 18.8607 6.61925 19.5214 6.29083C19.8772 6.16181 19.2008 6.51369 19.412 6.41594C19.5566 6.47068 20.1783 5.97805 20.6631 5.84511L20.5575 5.89985C20.9172 5.79038 21.3786 5.49323 21.965 5.30166C21.965 5.30166 21.9416 5.3212 21.965 5.3212C22.1527 5.21955 22.442 5.12181 22.747 5.01233C23.0559 4.91068 23.396 4.83248 23.6853 4.75038C23.5133 4.8403 23.4273 4.83639 23.5485 4.85985C23.8065 4.79729 23.4507 4.78557 23.9747 4.68C24.1506 4.68 24.5298 4.63699 24.5885 4.68L24.0959 4.76602C24.2288 4.77775 24.3852 4.75038 24.5455 4.71519C24.7058 4.68782 24.8661 4.65654 24.9951 4.64872L24.9638 4.68391C25.3392 4.62917 25.5307 4.60181 25.7301 4.57053C25.9295 4.54707 26.1368 4.49624 26.5473 4.51188L26.4613 4.48842C26.9109 4.42196 26.8366 4.52361 27.2901 4.48842L27.4231 4.57444C27.7202 4.56662 28.467 4.58226 28.9948 4.66045C28.8384 4.65654 28.6077 4.64872 28.3653 4.6409C28.1229 4.62917 27.8727 4.61354 27.6811 4.62526C27.9744 4.63308 28.6703 4.73083 28.8267 4.71128C28.7094 4.69955 28.5569 4.70346 28.4435 4.67609C28.811 4.65263 29.2841 4.70737 29.8589 4.83639C29.7924 4.90286 30.1638 4.98496 30.59 5.11399C30.805 5.18045 31.0318 5.25083 31.2312 5.3212C31.4267 5.3994 31.5909 5.4776 31.6808 5.54015C32.67 5.84902 33.5614 6.35338 34.5858 6.97113C34.2847 6.64662 34.8868 7.15098 34.8868 7.01414C35.1332 7.15098 35.2114 7.22526 35.2309 7.24481C35.4498 7.42857 35.6766 7.6006 35.8838 7.79609C36.0246 7.94466 35.6571 7.65534 35.661 7.69444C36.1419 8.07369 35.8369 7.88993 36.138 8.1597C36.0989 8.0776 36.3491 8.23399 36.6032 8.47639C36.4898 8.3591 36.3804 8.23399 36.2592 8.1206C36.9629 8.61714 36.7753 8.65624 37.4477 9.19579L37.221 9.0394C37.5729 9.30917 38.3861 10.1771 38.738 10.4469C38.781 10.5134 38.824 10.6111 38.6871 10.4743C39.3792 11.2719 40.2393 12.2611 40.6303 12.9961L40.5638 12.9414C40.6733 13.1056 40.7906 13.2072 40.8962 13.434C40.8805 13.4301 40.8297 13.3792 40.8766 13.4614C40.947 13.5435 41.1855 13.8914 41.2989 14.1299L41.162 13.9501C41.6351 14.8689 41.9635 15.3224 42.3389 16.1122C42.2529 16.1474 42.5461 16.9059 42.6595 17.2968L42.6438 17.289C43.0387 18.4229 43.3359 19.2165 43.5978 20.3074C43.6643 21.0033 43.9653 22.6337 43.9575 23.7519C43.9575 23.5799 44.0279 23.7753 44.0396 23.9747C44.0318 24.2367 44.1217 24.698 44.0396 24.6589V24.5651C43.9732 24.7645 43.9771 25.3002 43.9732 25.7185L44.0748 25.7928C43.9067 26.8797 43.8676 28.6704 43.5939 29.2334C43.5783 29.4993 43.4923 29.8159 43.461 30.0779L43.4101 30.0505C43.2225 30.7582 43.1208 31.1101 42.8432 31.9702L42.8628 31.7826C42.7064 32.2674 42.7963 32.4433 42.636 32.889L42.507 32.9907C42.1668 33.8196 41.7094 34.5937 41.3419 35.3952C41.3419 35.3756 41.3301 35.3405 41.3966 35.2114C41.3028 35.3991 41.0682 35.7314 40.9001 36.0168C40.7241 36.2984 40.5834 36.5212 40.6733 36.4899C40.6381 36.4743 40.513 36.6659 40.3566 36.9083C40.1963 37.1468 40.0047 37.44 39.8718 37.6433V37.5534C39.6724 37.9092 39.6841 37.9365 39.3244 38.3823C39.2267 38.4761 39.2111 38.4409 39.344 38.3158C39.0195 38.6286 39.1485 38.6129 38.7536 38.9883C38.7927 38.9335 38.8318 38.8788 38.8709 38.8162C38.5464 39.1447 38.5816 39.129 38.4291 39.3362C38.2453 39.5669 37.7683 39.9188 37.6902 39.9305C37.6667 39.997 37.4947 40.1886 37.2718 40.3489C37.2327 40.3567 37.3031 40.2863 37.3383 40.2511C37.0294 40.4818 36.8104 40.6695 36.6071 40.8259C36.4077 40.9901 36.2279 41.1308 35.9894 41.2481C35.9698 41.2403 35.9347 41.2481 35.8956 41.2677C36.4195 40.9471 36.8026 40.6343 36.7714 40.6734C36.7401 40.6343 36.3374 40.9158 36.615 40.6304C36.3256 40.9002 35.8017 41.342 35.3756 41.5648C35.3521 41.5726 35.3286 41.5805 35.313 41.5805L35.3521 41.5492C35.2544 41.6 35.1683 41.6508 35.0901 41.7056C34.9533 41.7759 34.8673 41.819 34.7344 41.8854C34.664 41.8737 34.2183 42.1161 33.9954 42.2217C34.0384 42.2647 33.7374 42.382 34.0345 42.3038C33.9954 42.3155 34.0736 42.2803 34.2222 42.2021C34.2535 42.1826 34.2926 42.163 34.3121 42.1513L34.3004 42.163C34.445 42.0887 34.6327 41.9949 34.8477 41.8854C34.6874 42.0027 34.5154 42.1083 34.2574 42.206C34.1596 42.2959 34.0501 42.3898 33.9798 42.4328C33.8077 42.4641 33.5692 42.5344 33.3581 42.597C33.147 42.6556 32.9632 42.6908 32.9124 42.683C32.5683 42.8355 32.1422 42.9606 31.7551 43.0896C31.3641 43.203 31.0044 43.3086 30.7816 43.4063C30.5704 43.4571 30.5314 43.418 30.4492 43.418C30.5704 43.3868 30.7151 43.3633 30.7777 43.3399C30.5704 43.3868 30.2577 43.4454 29.984 43.5002C29.7103 43.5432 29.4757 43.5862 29.4288 43.6253C28.8853 43.6409 29.7259 43.5353 28.987 43.6096L29.0847 43.5823C28.3536 43.5784 27.7671 43.6214 27.1494 43.6292C26.5356 43.637 25.8904 43.6018 25.1085 43.3711C25.218 43.4024 25.2727 43.418 25.2923 43.4337C24.9756 43.3633 24.6589 43.289 24.3422 43.203L23.8652 43.074L23.2748 42.8941C22.9112 44.1648 22.7353 44.8373 22.3443 46.0689C22.4811 46.108 22.6258 46.151 22.7626 46.194C22.8604 46.2253 22.9581 46.2644 23.0559 46.3035C23.5407 46.4872 23.6032 46.4716 23.916 46.5498L23.9981 46.6475C24.1741 46.6983 24.35 46.7414 24.522 46.7961C25.2453 47.0737 25.6637 47.492 26.5317 47.9221L26.4456 47.8244C26.7428 48.012 27.384 48.4187 27.3058 48.4265C27.3371 48.4421 27.4231 48.4617 27.5208 48.5594L27.5091 48.5907C27.7554 48.7393 27.9783 48.9191 28.2129 49.0872C28.6977 49.5408 28.0604 49.1068 28.7641 49.7636C29.0261 50.006 29.5304 50.4439 29.4562 50.3305C29.3584 50.225 29.2177 50.0451 29.2294 50.0177L29.4679 50.2484C29.5774 50.2328 29.8276 50.3618 29.3037 49.7128C29.1629 49.5799 29.0065 49.4626 28.8541 49.3453L28.7485 49.185L29.1043 49.5173C28.9323 49.2983 28.7759 49.2045 28.6195 49.0911C28.5999 49.0403 28.553 48.9738 28.4709 48.8956L27.9783 48.6024C27.947 48.532 28.2207 48.708 27.9353 48.4538C27.6968 48.3287 28.0917 48.6689 27.7202 48.4265C27.5247 48.231 27.6068 48.2505 27.3292 48.0863C27.3058 48.0394 27.3683 48.0668 27.4778 48.1371C27.2315 47.9886 26.8366 47.7188 26.688 47.6758C26.473 47.4803 25.8474 47.191 25.91 47.1362C25.8201 47.1089 25.433 46.9525 25.1945 46.843C25.433 46.9056 25.2141 46.7883 24.9521 46.6632C24.6862 46.538 24.3813 46.4012 24.4595 46.3777C24.2757 46.3504 23.9747 46.237 23.6345 46.1158C23.4625 46.0571 23.2865 45.9946 23.1106 45.9438C23.0246 45.9164 22.9347 45.8929 22.8526 45.8695C22.8213 45.8656 22.7939 45.8617 22.7587 45.8577C22.7783 45.8577 22.8135 45.8499 22.8252 45.8577C22.8017 45.8499 22.7822 45.8382 22.7704 45.8343C22.7822 45.8069 22.7978 45.7874 22.8095 45.7717C22.8174 45.76 22.8174 45.7717 22.8291 45.7405C22.8408 45.7053 22.8565 45.6701 22.8721 45.631C22.8095 45.5645 22.9503 45.0367 22.9855 44.7396C23.1771 44.3447 22.9972 45.0171 23.1028 44.9077C23.0363 44.9077 23.2553 44.1726 23.1653 44.2977C23.3022 43.9928 23.267 44.0319 23.3765 43.8872C23.3374 43.8442 23.3569 43.7699 23.3843 43.6722C23.3999 43.6214 23.4156 43.5666 23.4312 43.5041C23.439 43.4767 23.4468 43.4376 23.4507 43.4102C23.4507 43.3985 23.4507 43.3829 23.4507 43.3672C23.4742 43.332 23.4859 43.3242 23.4977 43.3242C23.5876 43.3868 23.5211 43.3868 23.6932 43.4141C23.8104 43.4611 23.7518 43.4611 23.6658 43.4493C23.6423 43.4493 23.611 43.4532 23.611 43.4532L23.6071 43.4063ZM35.6453 41.7486C35.5515 41.8033 35.4733 41.8502 35.4225 41.8815C35.4694 41.8541 35.532 41.815 35.6453 41.7486ZM36.5329 41.1699C36.4273 41.2481 36.2944 41.3302 36.1497 41.4241C36.1067 41.428 36.1301 41.3889 36.2201 41.3341C36.1771 41.3732 36.396 41.2559 36.5329 41.1699ZM34.4411 41.9714C34.5858 41.8932 34.6366 41.8776 34.664 41.8776C34.5975 41.9128 34.5154 41.9558 34.4098 42.0105C34.4098 42.0105 34.3981 42.0223 34.3942 42.0262C34.402 42.0105 34.4138 41.9949 34.4411 41.9714Z" fill="#1B1B1B"/>
<path d="M34.2066 42.167C34.187 42.1788 34.1753 42.1866 34.1479 42.2022C34.1792 42.1905 34.2105 42.1788 34.2418 42.1709C34.2574 42.1553 34.2731 42.1436 34.2848 42.1279C34.2574 42.1397 34.2301 42.1553 34.2066 42.167Z" fill="#1B1B1B"/>
<path d="M15.9243 37.9876L15.9087 37.9719C15.9087 37.9719 15.9282 37.9993 15.9322 38.011C15.9243 37.9993 15.9243 37.9954 15.9204 37.9876H15.9243Z" fill="#1B1B1B"/>
<path d="M44.1021 29.0771H44.0864L44.0825 29.171L44.1021 29.0771Z" fill="#1B1B1B"/>
<path d="M14.8179 43.1953C14.8179 43.1953 14.7984 43.2227 14.7827 43.2657C14.7866 43.2657 14.8023 43.2344 14.8179 43.1953Z" fill="#1B1B1B"/>
<path d="M11.4243 44.4387C11.4009 44.4544 11.397 44.4622 11.3931 44.47L11.4204 44.4387H11.4243Z" fill="#1B1B1B"/>
<path d="M10.4663 19.0915C10.4702 19.0641 10.4741 19.0406 10.478 19.0172C10.5015 18.8412 10.4819 18.9624 10.4663 19.0915Z" fill="#1B1B1B"/>
<path d="M10.7594 28.1582C10.732 28.0644 10.7046 27.9745 10.6772 27.8767C10.7046 28.037 10.7281 28.1621 10.7594 28.1582Z" fill="#1B1B1B"/>
<path d="M14.6421 9.84501C14.6421 9.84501 14.6695 9.81373 14.6812 9.7981L14.6421 9.84501Z" fill="#1B1B1B"/>
<path d="M10.5913 27.4624C10.6109 27.6227 10.6421 27.7556 10.6734 27.8768C10.65 27.7439 10.6265 27.5914 10.5913 27.4624Z" fill="#1B1B1B"/>
<path d="M4.53912 48.9934L4.48047 49.0638C4.48047 49.0638 4.48047 49.0716 4.48047 49.0794L4.53912 48.9934Z" fill="#1B1B1B"/>
<path d="M4.47662 49.0796L4.41797 49.1656C4.44925 49.1265 4.47271 49.0952 4.47662 49.0796Z" fill="#1B1B1B"/>
<path d="M4.29297 49.3415L4.41808 49.1616C4.37116 49.2203 4.31252 49.2906 4.29297 49.3415Z" fill="#1B1B1B"/>
<path d="M6.31037 47.1441L6.31819 47.1089C6.31819 47.1089 6.30646 47.1323 6.31037 47.1441Z" fill="#1B1B1B"/>
<path d="M6.90043 46.6321C6.75577 46.7494 6.51727 46.9019 6.32569 47.0817L6.31787 47.1091C6.39216 47.0074 6.78704 46.7728 6.90043 46.6321Z" fill="#1B1B1B"/>
<path d="M9.7979 45.2126L9.20752 45.4629C9.32091 45.4355 9.46557 45.4003 9.20361 45.5254C9.96211 45.2517 9.03158 45.5528 9.80181 45.2126H9.7979Z" fill="#1B1B1B"/>
<path d="M11.698 44.6576C11.3657 44.7358 11.7097 44.685 11.6941 44.7006C11.9052 44.642 11.956 44.6264 11.698 44.6576Z" fill="#1B1B1B"/>
<path d="M13.3324 34.324H13.3949C13.2581 34.1012 13.3754 34.3358 13.3324 34.324Z" fill="#1B1B1B"/>
<path d="M11.8896 31.9468L11.9639 32.2009L12.0539 32.2987L11.8896 31.9468Z" fill="#1B1B1B"/>
<path d="M11.6588 30.293L11.7018 30.4025L11.5454 29.988L11.6588 30.293Z" fill="#1B1B1B"/>
<path d="M16.9604 8.17163L16.8626 8.17945C16.7375 8.30847 16.7531 8.38276 16.9604 8.17163Z" fill="#1B1B1B"/>
<path d="M26.4414 4.49645C26.5548 4.52773 26.848 4.55118 27.0279 4.51991C26.7933 4.51209 26.5626 4.48863 26.4414 4.49645Z" fill="#1B1B1B"/>
<path d="M43.9536 26.2543L43.9458 26.0471L43.938 26.4381L43.9536 26.2543Z" fill="#1B1B1B"/>
<path d="M27.7906 26.1957C28.4557 26.1957 28.9948 25.3204 28.9948 24.2408C28.9948 23.1611 28.4557 22.2859 27.7906 22.2859C27.1256 22.2859 26.5864 23.1611 26.5864 24.2408C26.5864 25.3204 27.1256 26.1957 27.7906 26.1957Z" fill="black"/>
<path d="M36.7203 26.1957C37.3854 26.1957 37.9245 25.3204 37.9245 24.2408C37.9245 23.1611 37.3854 22.2859 36.7203 22.2859C36.0553 22.2859 35.5161 23.1611 35.5161 24.2408C35.5161 25.3204 36.0553 26.1957 36.7203 26.1957Z" fill="black"/>
<path d="M26.082 30.1054C27.5309 30.1054 28.7054 29.4052 28.7054 28.5414C28.7054 27.6777 27.5309 26.9775 26.082 26.9775C24.6331 26.9775 23.4585 27.6777 23.4585 28.5414C23.4585 29.4052 24.6331 30.1054 26.082 30.1054Z" fill="#F4BDCB"/>
<path d="M37.8114 30.1054C39.2603 30.1054 40.4349 29.4052 40.4349 28.5414C40.4349 27.6777 39.2603 26.9775 37.8114 26.9775C36.3626 26.9775 35.188 27.6777 35.188 28.5414C35.188 29.4052 36.3626 30.1054 37.8114 30.1054Z" fill="#F4BDCB"/>
<path d="M32.2555 30.4963C31.2859 30.4963 30.4961 29.7066 30.4961 28.7369C30.4961 27.7673 31.2859 26.9775 32.2555 26.9775C33.2251 26.9775 34.0149 27.7673 34.0149 28.7369C34.0149 29.7066 33.2251 30.4963 32.2555 30.4963ZM32.2555 27.3685C31.5009 27.3685 30.8871 27.9824 30.8871 28.7369C30.8871 29.4915 31.5009 30.1054 32.2555 30.1054C33.0101 30.1054 33.6239 29.4915 33.6239 28.7369C33.6239 27.9824 33.0101 27.3685 32.2555 27.3685Z" fill="black"/>
<path d="M37.9246 16.0302C38.5541 17.2891 37.1427 19.158 37.1427 19.158C37.1427 19.158 41.4434 19.549 41.4434 16.8121C41.4434 15.0645 39.4885 12.9024 39.4885 12.9024C41.4434 13.6843 43.7893 18.8218 43.7893 18.8218C43.7893 18.8218 43.0073 13.6843 39.4885 10.1655C39.4885 10.1655 35.9697 5.47379 29.7141 4.30086C27.4777 3.71048 25.8942 3.67529 25.8942 3.67529C22.7977 3.85905 20.3345 4.54326 18.3718 5.4777C16.2879 6.28702 9.19168 9.91138 5.9583 22.6768C2.14627 37.7294 5.66506 36.9475 2.14627 39.6843C-1.37253 42.4212 -4.10937 49.8497 3.3192 51.0227C3.3192 51.0227 7.03349 43.7896 14.6575 44.376C14.6575 44.376 15.7679 39.4771 16.5812 38.8007C17.1168 38.355 13.7622 35.9388 11.7291 31.0906C13.1914 28.3968 15.8305 28.3499 17.0034 23.6581C17.8127 20.4248 20.4127 13.524 23.4545 13.2972C25.0771 13.176 19.5448 18.7709 19.5448 18.7709C19.5448 18.7709 24.3147 20.6945 27.7553 17.598C28.7796 16.6753 29.7102 15.2521 29.5147 12.7108L29.9643 13.9072C30.4178 15.1114 30.2263 16.4642 29.4599 17.4963L28.4708 18.8296C28.4708 18.8296 31.4852 19.8852 34.7968 18.3839C39.0975 16.429 32.8419 11.3463 32.8419 11.3463C32.8419 11.3463 36.7517 13.6921 37.9246 16.038V16.0302Z" fill="black"/>
<path d="M38.0381 39.7898C31.2781 45.7444 23.353 43.2304 23.353 43.2304L22.2856 46.1354C29.3232 48.4812 31.4736 52.6021 31.4736 52.6021C40.6616 54.3772 36.3608 48.0902 36.1653 47.2027C35.9699 46.3152 35.1879 45.3573 36.1653 43.766C37.1428 42.1748 38.0381 39.7898 38.0381 39.7898Z" fill="black"/>
<path d="M32.0641 34.7033C28.0135 34.7033 25.8553 30.8327 25.828 30.7857C25.7771 30.6919 25.8123 30.5707 25.9062 30.5199C26 30.469 26.1212 30.5042 26.172 30.5981C26.2815 30.8014 28.9245 35.5244 33.9603 34.023C34.0659 33.9917 34.1714 34.0504 34.2027 34.156C34.234 34.2576 34.1753 34.3671 34.0698 34.3984C33.3543 34.6095 32.6857 34.7033 32.0602 34.7033H32.0641Z" fill="black"/>
<path d="M28.9321 21.0307C28.8618 21.0307 28.7914 20.9916 28.7562 20.9251C28.4864 20.4012 28.2088 20.1275 27.9469 20.1275H27.939C27.5598 20.1354 27.2118 20.7023 27.1102 20.9212C27.0633 21.019 26.946 21.062 26.8482 21.0151C26.7505 20.9681 26.7075 20.8548 26.7544 20.757C26.8013 20.6554 27.2431 19.7522 27.9312 19.7405H27.9469C28.3691 19.7405 28.7601 20.0806 29.1042 20.7531C29.155 20.8509 29.1159 20.9681 29.0181 21.0151C28.9908 21.0307 28.9595 21.0346 28.9282 21.0346L28.9321 21.0307Z" fill="black"/>
<path d="M37.5337 21.0307C37.4633 21.0307 37.3929 20.9916 37.3578 20.9251C37.088 20.4012 36.8104 20.1275 36.5484 20.1275H36.5406C36.1614 20.1354 35.8134 20.7023 35.7117 20.9212C35.6648 21.019 35.5475 21.062 35.4498 21.0151C35.352 20.9681 35.309 20.8548 35.356 20.757C35.4029 20.6554 35.8447 19.7522 36.5328 19.7405H36.5484C36.9707 19.7405 37.3617 20.0806 37.7057 20.7531C37.7566 20.8509 37.7175 20.9681 37.6197 21.0151C37.5923 21.0307 37.5611 21.0346 37.5298 21.0346L37.5337 21.0307Z" fill="black"/>
<path d="M-0.99707 62.2241C-0.99707 62.2241 -0.215115 54.4045 3.30368 50.4948C6.82248 46.585 9.16834 43.8481 12.6871 43.8481C12.6871 43.8481 10.3882 47.6172 17.7698 48.5399C24.0255 49.3218 23.2435 45.803 23.2435 45.803C24.5689 46.4755 28.1933 48.2193 29.4992 49.7128C32.236 52.8406 34.5819 57.1414 34.5819 57.1414" fill="#9B9B9B"/>
<path d="M29.9019 49.9788L29.9253 50.0257C29.9253 50.0257 29.9136 49.9944 29.9019 49.9788Z" fill="#1B1B1B"/>
<path d="M25.9257 46.9799C25.9609 46.9956 25.9804 46.9956 25.9843 46.9877C25.9491 46.976 25.9218 46.9682 25.9257 46.9799Z" fill="#1B1B1B"/>
<path d="M25.2256 46.4834C25.2256 46.4834 25.253 46.5029 25.2686 46.5147C25.2569 46.499 25.2412 46.4834 25.2256 46.4834Z" fill="#1B1B1B"/>
<path d="M29.9015 49.9789L29.839 49.8577C29.8077 49.8694 29.8663 49.9241 29.9015 49.9789Z" fill="#1B1B1B"/>
<path d="M31.3208 51.6599L31.3443 51.6912C31.3443 51.6912 31.3794 51.6951 31.3951 51.6912L31.3208 51.656V51.6599Z" fill="#1B1B1B"/>
<path d="M30.6055 50.6863C30.6055 50.6863 30.6172 50.6668 30.6172 50.655C30.6094 50.6628 30.6055 50.6707 30.6055 50.6863Z" fill="#1B1B1B"/>
<path d="M23.7046 45.5881C23.7046 45.5881 23.7124 45.592 23.7163 45.596C23.7828 45.6194 23.7476 45.6038 23.7046 45.5881Z" fill="#1B1B1B"/>
<path d="M12.7301 45.498C12.691 45.6505 12.5816 45.2869 12.5542 45.5137C12.5816 45.4902 12.7262 45.6779 12.7301 45.498Z" fill="#1B1B1B"/>
<path d="M21.6875 47.9221C21.6875 47.9221 21.7149 47.9378 21.7305 47.9378C21.7266 47.9299 21.7149 47.926 21.6875 47.9221Z" fill="#1B1B1B"/>
<path d="M20.4713 48.3523C20.4361 48.3523 20.4244 48.3405 20.3774 48.3523C20.3814 48.3523 20.3853 48.3601 20.3931 48.3601C20.4087 48.3484 20.4322 48.3405 20.4713 48.3484V48.3523Z" fill="#1B1B1B"/>
<path d="M19.0718 48.407C19.0718 48.407 19.0874 48.4187 19.0952 48.4226C19.1109 48.4226 19.1265 48.4226 19.1382 48.4187L19.0679 48.407H19.0718Z" fill="#1B1B1B"/>
<path d="M20.4909 49.0051L20.2485 49.0129C20.315 49.0129 20.4049 49.0129 20.4909 49.0051Z" fill="#1B1B1B"/>
<path d="M6.22024 47.8127L6.19287 47.8558C6.19287 47.8558 6.22024 47.8284 6.22024 47.8127Z" fill="#1B1B1B"/>
<path d="M19.5446 49.0599C19.5016 49.0286 19.4586 49.013 19.4116 49.0012C19.3999 49.009 19.3921 49.0129 19.3843 49.0208L19.5446 49.056V49.0599Z" fill="#1B1B1B"/>
<path d="M0.355446 57.6967C0.414092 57.4895 0.28116 57.5716 0.234243 57.5129C0.27334 57.2588 0.343716 57.4191 0.418002 57.3487C0.433641 57.1884 0.367175 57.0399 0.406273 56.9265C0.425822 56.9265 0.437551 56.903 0.45319 56.9343C0.421912 56.7466 0.601761 56.4534 0.554844 56.2305C0.566573 56.2188 0.578303 56.2149 0.590032 56.2149C0.527476 56.2305 0.476649 56.2149 0.44146 56.1992C0.468829 56.1054 0.429731 56.0077 0.507927 55.992C0.488378 56.0468 0.511837 56.0624 0.527476 56.0937V55.9881C0.652588 55.9334 0.519656 56.1328 0.593942 56.1562C0.6174 55.9568 0.62522 55.7144 0.699506 55.5815C0.80507 55.5815 0.613491 55.9256 0.762062 55.7653L0.648679 55.9725C0.855897 55.8552 0.590032 56.1015 0.805069 56.0038C0.934092 55.7262 0.871536 55.6636 1.00447 55.386C0.9771 55.3039 0.918453 55.3782 0.891085 55.2961C0.945822 54.8465 1.24687 55.0654 1.24296 54.7214C1.21169 54.6197 1.11003 54.5415 1.2586 54.3577L1.33289 54.475C1.458 54.2053 1.24296 54.2522 1.44236 53.998C1.458 54.0645 1.38372 54.2248 1.41108 54.1896C1.57139 54.0411 1.41108 54.0332 1.47755 53.8925L1.58311 53.9042C1.70823 53.6188 1.7786 53.263 1.93499 52.9502C1.95063 52.9815 1.95063 53.048 2.0171 52.9893C2.10311 52.786 2.22041 52.5827 2.34552 52.3911C2.47454 52.1956 2.63484 52.0314 2.77169 51.8711L2.79123 51.6874C2.81469 51.6561 2.86161 51.6522 2.85379 51.6952C2.97109 51.5779 2.81469 51.6561 2.83033 51.5701C2.87725 51.488 2.93981 51.4958 2.92808 51.5623C3.03364 51.2886 3.31515 50.8233 3.5771 50.6474L3.55364 50.7099C3.74131 50.5535 3.60447 50.3893 3.8156 50.272L3.79605 50.315C4.17921 49.9475 4.51154 49.4588 4.87515 49.2477C4.83605 49.1069 5.27003 48.8997 5.16447 48.7589C5.43033 48.5947 5.39514 48.6768 5.72748 48.411C5.80958 48.3328 5.76266 48.2155 5.84477 48.0982L5.91124 48.1568L5.97379 47.9535H6.12236L6.19665 47.848C6.15755 47.8832 6.09108 47.8988 6.07545 47.8753C6.18883 47.6994 6.46642 47.5626 6.50552 47.5938C6.59936 47.4609 6.6971 47.3319 6.79484 47.2029C6.81439 47.238 6.76357 47.3006 6.7362 47.3632C6.85349 47.1168 6.83785 47.3983 6.94342 47.1755C6.90823 47.1833 6.91996 47.1247 6.90823 47.109C7.02943 47.066 7.22101 46.8823 7.35003 46.7337L7.36567 46.8041C7.63545 46.5734 7.90131 46.2841 8.20627 46.0338C8.08116 46.1042 8.03424 45.9986 8.12026 45.9165L8.21409 45.9596C8.23755 45.8657 8.0968 46.0065 8.17109 45.854C8.2962 45.7719 8.31575 45.8814 8.26883 45.9556L8.39003 45.8227C8.4174 45.8383 8.39003 45.8774 8.40567 45.9126C8.42913 45.8227 8.70672 45.8032 8.73018 45.6585L8.75364 45.6741C9.07424 45.4591 9.19936 45.3223 9.46913 45.1659C9.43394 45.0916 9.55124 45.0486 9.59815 44.943C9.81319 44.8414 10.0791 44.8062 10.3254 44.6771C10.4896 44.5677 10.3527 44.5911 10.4153 44.5129C10.4583 44.5794 10.7163 44.4777 10.5991 44.5755C10.9079 44.4543 10.9939 44.4191 11.3888 44.2627C11.338 44.2432 11.2833 44.2432 11.3028 44.2119C11.3771 44.1806 11.4788 44.1962 11.4788 44.2392L11.4592 44.251C11.5569 44.2119 11.6625 44.1923 11.7759 44.1845C11.8306 44.1806 11.8932 44.1767 11.9401 44.1767C11.9714 44.1767 11.9948 44.1845 12.0105 44.1962C12.0809 44.2392 12.0809 44.2744 12.0965 44.2823C12.0965 44.2862 12.1082 44.2901 12.1317 44.2901H12.1239C12.1434 44.3018 12.1591 44.3409 12.1708 44.3995C12.1708 44.3878 12.163 44.4152 12.1591 44.423C12.1551 44.4347 12.1512 44.4386 12.1473 44.4347C12.1395 44.4347 12.1356 44.4152 12.1317 44.3917C12.116 44.38 12.0926 44.3839 12.0691 44.3683C12.0691 44.8726 11.9401 45.162 12.073 45.5725C12.0379 45.6585 12.0339 45.7797 12.0574 45.9126C12.0809 46.0456 12.1591 46.1785 12.2255 46.3192C12.2842 46.4639 12.4015 46.5734 12.4757 46.6985C12.5579 46.8197 12.6243 46.937 12.683 47.0308L12.7025 46.98C12.8198 47.023 12.7768 47.0934 12.8276 47.1599C12.8472 47.1208 12.7729 47.0426 12.8433 47.0699C13.5431 47.6681 14.3524 48.1686 15.197 48.4931C15.5058 48.6026 15.4511 48.282 15.8108 48.5048L15.6739 48.5713C16.3308 48.6377 16.9759 48.8489 17.6132 48.8489C17.5741 48.8645 17.5702 48.8919 17.5076 48.8841C17.6288 48.9818 18.0003 48.9466 18.0081 48.888C18.1058 48.9036 18.0237 48.9427 18.0824 48.9779C18.2114 49.0326 18.4264 48.9192 18.4929 48.9935C18.5046 49.0053 18.4538 49.0131 18.4264 49.017C18.5163 48.9896 18.833 49.06 18.7548 48.974C18.9894 49.0287 19.2123 48.9466 19.4039 48.9974C19.529 48.9075 19.8144 49.0483 19.8496 48.9114C19.8379 49.0444 20.2836 48.9818 20.4282 48.9075C20.3813 48.9505 20.5651 48.9388 20.5142 48.9974C20.6902 48.9896 20.8466 48.9153 20.8036 48.8567C20.9795 48.9036 21.1359 48.8371 21.2727 48.7824C21.4096 48.7277 21.523 48.6534 21.6481 48.7198C22.1446 48.4931 22.5669 48.1686 22.8836 47.7854C22.9227 47.8323 22.8406 47.9574 22.735 48.0356C22.6333 48.1217 22.5317 48.2038 22.5825 48.2546C22.6724 48.1686 22.7467 48.0865 22.8132 48.0122C22.8757 47.9262 22.9227 47.8402 22.9774 47.762C23.0869 47.6056 23.1612 47.4296 23.2902 47.2341C23.3527 47.1286 23.3215 47.328 23.3097 47.371C23.3997 47.1403 23.4818 46.9214 23.5326 46.6985C23.5482 46.6516 23.5521 46.5734 23.56 46.546V46.4913C23.56 46.4561 23.5521 46.417 23.5326 46.3583C23.5443 46.374 23.556 46.4014 23.5678 46.4248C23.5639 46.3935 23.5834 46.3935 23.5248 46.3192L23.5404 46.3662C23.4935 46.3427 23.4466 46.2411 23.3918 46.1003C23.3762 46.0573 23.3449 45.983 23.3449 45.9674C23.3527 45.9556 23.3566 45.9439 23.3527 45.9322C23.4309 46.1668 23.6108 46.112 23.6303 46.3623C23.6382 46.3544 23.646 46.3271 23.6303 46.2723C23.6694 46.3036 23.6733 46.3349 23.6655 46.3818C23.7359 46.3818 23.7124 46.2997 23.8258 46.3583C23.8063 46.3818 23.7867 46.3818 23.7672 46.4131C23.7828 46.3896 23.8649 46.3974 23.9353 46.4131C24.0057 46.4287 24.0839 46.46 24.1699 46.5147C24.1503 46.5265 24.1621 46.5577 24.1073 46.5265C24.424 46.6789 24.7055 46.6633 25.0222 46.8901C24.8619 46.9487 25.12 46.9878 25.0848 47.0934L25.2803 47.1599L25.2333 47.0738C25.3936 47.1599 25.5696 47.1677 25.6869 47.2732L25.5461 47.2498L25.8511 47.3944L25.7025 47.2654C25.8902 47.3045 25.7533 47.1325 25.9488 47.2771C25.9019 47.2615 26.1052 47.3671 26.156 47.4687C26.2499 47.4805 26.3515 47.4961 26.4532 47.586C26.4649 47.6329 26.3672 47.6759 26.375 47.7072C26.4962 47.672 26.7542 47.8949 26.895 47.8714C26.852 47.8714 26.8207 47.9183 26.8246 47.9379L26.9263 47.9144C26.9849 47.977 26.9888 47.9926 26.9536 48.0278C27.1609 48.1686 26.9576 47.8675 27.1804 48.0747C27.1569 48.0669 27.1609 48.0826 27.1139 48.0669C27.3485 48.2507 27.63 48.3328 27.8333 48.5205C27.8373 48.6573 27.6222 48.4071 27.6457 48.5361C27.978 48.7394 28.3964 48.888 28.67 49.1538L28.6231 49.0991C28.7639 49.0131 28.7951 49.3337 28.9828 49.408C28.9398 49.3845 28.8812 49.4314 28.9007 49.4275C29.0767 49.6152 29.2995 49.7481 29.5966 50.0296L29.5341 50.0179C29.6084 50.1586 29.7843 50.3424 29.8742 50.4832C29.9368 50.4949 29.9915 50.577 29.9994 50.4949C30.1479 51.0344 30.707 51.1908 30.8361 51.6717C30.8009 51.6287 30.7305 51.5896 30.7539 51.6248L31.0159 51.918C31.0511 51.8516 31.0159 51.8516 31.0159 51.7538C31.0785 51.7695 31.1684 51.8398 31.2231 51.918C31.0824 51.8007 31.1371 51.9845 31.1488 52.0666C31.1567 52.0432 31.1918 52.051 31.2036 52.0353C31.227 52.2699 31.3365 51.9806 31.4342 52.2582L31.3951 52.266C31.4694 52.3403 31.5633 52.3911 31.6219 52.4889C31.5867 52.571 31.5281 52.4185 31.4694 52.4498C31.5633 52.5749 31.7705 52.6179 31.79 52.7821C31.7314 52.7391 31.6767 52.6609 31.6219 52.6179C31.6376 52.7977 31.6649 52.7977 31.7197 52.9033V52.8916L31.833 53.134L31.8135 53.0636C32.0911 53.1105 32.0715 53.3725 32.3296 53.5211C32.0794 53.3764 32.2436 53.525 32.1615 53.5602C32.1771 53.6305 32.2123 53.7322 32.1771 53.7204C32.3061 53.7869 32.2436 53.9277 32.4312 54.0176C32.4117 54.0411 32.5016 54.131 32.4273 54.1466C32.5368 54.2717 32.4469 54.088 32.486 54.0802C32.7049 54.2405 32.7088 54.6392 33.0138 54.8777C33.2249 55.1123 33.3383 55.1123 33.5338 55.3352C33.5455 55.4447 33.4048 55.3196 33.4048 55.3196C33.4517 55.4759 33.5182 55.5737 33.6237 55.6832C33.5885 55.6714 33.5846 55.7066 33.5807 55.7614C33.6472 55.8591 33.7097 55.777 33.7566 55.9334C33.7136 55.9256 33.655 55.9217 33.5964 55.8904C33.6902 55.9959 33.8075 56.0898 33.9052 56.2032C33.8818 56.2618 33.7957 56.1641 33.741 56.1367C33.8427 56.2657 33.9951 56.4808 34.089 56.4847L34.0616 56.3791C34.0968 56.4299 34.0186 56.4417 33.9834 56.4104C33.8583 56.3204 33.9052 56.2227 33.9248 56.1992L33.9951 56.2814C34.0851 56.1054 33.7606 55.9334 33.6589 55.7496L33.8075 55.7614L33.612 55.6284C33.612 55.5737 33.6589 55.5111 33.7254 55.5893C33.698 55.429 33.6198 55.4994 33.6081 55.3547C33.6081 55.3352 33.6198 55.3391 33.6276 55.3469L33.5182 55.2414C33.5533 55.2531 33.5807 55.1749 33.612 55.2609C33.5338 54.9989 33.3109 54.9481 33.3344 54.8152L33.3539 54.8308C33.1233 54.5415 33.2601 54.8465 33.0255 54.6705L33.1115 54.3968L33.0177 54.4164C33.0021 54.3812 32.9669 54.3147 33.0021 54.3069C32.873 54.2209 32.9825 54.3499 32.8887 54.3069C32.8613 54.1075 32.5837 53.9081 32.6815 53.7947C32.5876 53.7791 32.7323 53.9668 32.5876 53.8338C32.6854 53.7048 32.443 53.6618 32.4078 53.482C32.5016 53.482 32.5524 53.6344 32.5212 53.4585C32.357 53.4468 32.3648 53.1731 32.2631 53.0714C32.1693 53.1262 32.0559 52.8447 31.8917 52.6726C31.9308 52.6648 31.6845 52.2777 31.5906 52.0744H31.6102C31.4968 52.0979 31.3795 51.9024 31.2661 51.7851C31.3209 51.7538 31.36 51.7617 31.4342 51.8164L31.3404 51.6913C31.2896 51.6835 31.2466 51.6522 31.1801 51.5818L31.2661 51.5662C31.141 51.402 30.9416 51.2925 30.8243 51.0462C30.7579 51.0814 30.7852 51.3394 30.578 51.1478C30.6054 51.1165 30.6523 51.0657 30.7109 51.1126C30.6914 51.097 30.6327 51.0657 30.6171 51.0149L30.7383 51.0618C30.6875 50.9484 30.6562 51.0462 30.6015 50.968C30.6484 50.9328 30.5897 50.8859 30.6367 50.8702C30.6562 50.8859 30.6679 50.9523 30.7109 50.968C30.6523 50.8741 30.5976 50.749 30.6054 50.6904C30.5858 50.7177 30.5428 50.7373 30.4881 50.6826C30.3551 50.5262 30.4998 50.5848 30.4451 50.4714C30.3825 50.4558 30.3317 50.3268 30.2613 50.3815C30.2222 50.3346 30.2496 50.2994 30.2535 50.2681C30.1597 50.2056 29.9212 49.8928 29.9329 50.0414L29.9446 50.0648L29.929 50.0531C29.7843 49.9475 29.6748 49.8029 29.5732 49.6504C29.4559 49.5096 29.3542 49.3454 29.2057 49.2477L29.2252 49.2281C29.0493 49.1069 28.8577 48.9349 28.7013 48.8919C28.6544 48.8528 28.6192 48.7589 28.6622 48.7472C28.5215 48.669 28.4863 48.6847 28.3299 48.5087C28.4902 48.5635 28.3103 48.4383 28.4863 48.5752C28.3338 48.4305 28.3221 48.3641 28.0914 48.3054C28.197 48.2859 28.0132 48.1412 27.9194 48.1021L28.0093 48.2272C27.9115 48.1725 27.8373 48.1138 27.7551 48.0552L27.8529 48.0004C27.5597 47.6681 27.0983 47.762 26.9263 47.4296C26.7973 47.4296 27.0983 47.5899 26.9732 47.6056C26.8129 47.4961 26.7073 47.2732 26.6565 47.242C26.4532 47.0621 26.3711 47.242 26.1443 47.0738C26.16 47.1208 26.1443 47.2185 25.9449 47.1481C25.7807 47.0426 25.8081 46.9057 25.9254 46.9409C25.9684 46.9605 25.984 46.98 25.9762 46.9917C26.0388 47.0113 26.117 47.0386 26.0661 46.9683L26.027 46.9878C25.9606 46.9096 25.7221 46.7845 25.8042 46.765C25.6595 46.722 25.7221 46.7845 25.8081 46.8549C25.6126 46.6907 25.4679 46.6672 25.2568 46.5186C25.2842 46.5538 25.2959 46.6086 25.2607 46.589C24.9479 46.374 25.0848 46.5695 24.8502 46.4678C24.7446 46.3544 24.9557 46.3779 24.7055 46.2997C24.5843 46.198 24.7173 46.202 24.7876 46.2059C24.5491 46.1589 24.4201 45.9674 24.3067 45.897L24.4279 45.9283C24.3536 45.9087 24.3028 45.8814 24.2481 45.854L24.2794 45.9478C24.2207 45.9048 24.166 45.8774 24.1816 45.8501C24.0956 45.8579 24.1816 45.9791 24.0213 45.9674C23.9079 45.8696 23.6499 45.8227 23.5951 45.6937C23.8063 45.8149 23.7945 45.7875 23.7789 45.7445C23.7633 45.7054 23.7281 45.6468 23.9353 45.7445C23.8532 45.7171 23.7633 45.6702 23.646 45.5959C23.6264 45.5764 23.6616 45.5803 23.6929 45.5959C23.1963 45.2519 23.4935 45.6116 23.0673 45.3926C23.0751 45.3653 23.0282 45.3183 22.9696 45.2675C22.9109 45.2206 22.8288 45.1659 22.821 45.1737C22.8875 45.1971 22.9539 45.2636 22.9461 45.2871C22.95 45.3066 22.9344 45.3105 22.9305 45.3301C22.9305 45.3535 22.9266 45.3731 22.9109 45.3926C22.9031 45.3926 22.8953 45.3848 22.8914 45.3848C22.8992 45.6702 22.993 45.8227 23.0009 45.9713C23.0009 45.9126 23.0009 45.854 23.0009 45.7953C23.0751 45.9361 23.0751 46.069 23.1025 46.2762C23.0634 46.2762 23.0595 46.0729 23.0478 46.1355C23.1103 46.288 23.0712 46.3818 23.0282 46.4952C22.997 46.5734 22.9344 46.6477 22.9422 46.7454C22.8875 46.8158 22.8484 46.7259 22.8054 46.7845C22.7858 46.9878 22.6724 46.9526 22.6099 47.1403C22.6998 47.1286 22.692 47.1051 22.6724 47.2732C22.7154 47.1599 22.778 47.066 22.7976 46.9487C22.8054 47.0308 22.7976 47.1129 22.7819 47.195C22.8484 47.1051 22.8484 46.9722 22.8836 46.9174C22.8953 47.0386 22.8836 47.0269 22.9539 46.9995C22.8093 47.0973 22.8601 47.3006 22.7037 47.4101L22.5708 47.3006C22.4535 47.3632 22.4105 47.4648 22.3362 47.5626C22.2541 47.6486 22.1798 47.7737 22.0156 47.8362C22.0508 47.8245 22.0938 47.8245 22.1251 47.805C22.1251 47.891 21.9413 47.9144 21.8592 47.9926C21.8436 47.9379 21.7732 47.9496 21.7145 47.9379C21.7419 47.9848 21.48 48.0239 21.4917 48.1412L21.3197 48.1217C21.0499 48.1881 21.046 48.3562 20.7645 48.4032C20.8348 48.325 20.7058 48.3093 20.8779 48.2272C20.7879 48.2468 20.7058 48.2507 20.7097 48.2898C20.655 48.2702 20.4673 48.4149 20.3735 48.3602C20.3383 48.3875 20.3305 48.4501 20.2249 48.454C20.2132 48.4423 20.2249 48.4266 20.2249 48.4266C20.2249 48.454 20.0607 48.4814 20.1624 48.5361C19.8613 48.3992 19.3413 48.5752 19.0872 48.4188C18.88 48.4462 18.6297 48.4344 18.4382 48.4188C18.4499 48.4032 18.4382 48.3914 18.4773 48.3992C18.2231 48.3211 18.3013 48.5517 18.012 48.4657C17.8712 48.3601 18.1762 48.4305 18.0824 48.3875C18.0628 48.1959 17.7227 48.3875 17.5389 48.235H17.5897C17.449 48.1451 17.2144 48.2429 16.9681 48.192C16.9681 48.192 16.9837 48.1764 16.9759 48.1647C16.7921 48.235 16.4637 48.2194 16.2252 48.1803C16.3151 48.1256 16.3386 48.1686 16.3112 48.0826C16.2057 48.0669 16.3151 48.2077 16.1001 48.1764C16.0415 48.1217 15.9007 48.0474 15.9007 47.9653L16.0962 48.0083C16.0219 47.8832 15.8421 47.9496 15.7443 47.9066L15.7678 47.8675C15.4628 47.8128 15.4315 47.9144 15.1188 47.7971L15.1383 47.8402C14.9272 47.8871 15.0171 47.7307 14.8177 47.7463L14.8099 47.6212C14.6848 47.6212 14.3876 47.5626 14.1804 47.4844C14.3329 47.457 14.5636 47.543 14.7278 47.543C14.6144 47.5078 14.372 47.3827 14.2899 47.4101C14.3368 47.4218 14.4033 47.4218 14.4345 47.457C14.2703 47.4726 14.0709 47.4335 13.8676 47.3201C13.9419 47.2341 13.8285 47.1364 13.6878 47.0308C13.6174 46.98 13.5431 46.9214 13.4845 46.8666C13.4297 46.808 13.3985 46.7376 13.3985 46.6789C13.3163 46.6281 13.2421 46.5656 13.1717 46.4991C13.0974 46.4326 13.0622 46.3427 13.0114 46.2606C12.898 46.1003 12.8589 45.9048 12.7729 45.7132C12.6478 45.9126 12.7377 45.5959 12.5735 45.6663C12.5383 45.5647 12.5305 45.5217 12.5422 45.5138C12.5422 45.4044 12.593 45.291 12.6165 45.1893C12.6634 45.115 12.6634 45.2832 12.7025 45.2714C12.7064 45.0564 12.7651 45.1815 12.8198 45.0447C12.7533 45.072 12.7338 44.9665 12.769 44.8492L12.6712 45.0134C12.64 44.857 12.6791 44.7905 12.7338 44.7319C12.7612 44.7045 12.7846 44.6732 12.8003 44.6341C12.8042 44.6224 12.8081 44.6146 12.812 44.5989C12.8198 44.5755 12.812 44.5989 12.8276 44.5325C12.8511 44.466 12.8745 44.3995 12.8941 44.3174L12.8667 44.5286C12.9019 44.4152 12.9723 44.2432 13.0466 44.0516C13.1482 43.8483 13.2694 43.6137 13.3515 43.4377C13.2929 43.4417 13.2616 43.4417 13.2147 43.4495C13.16 43.4573 13.1052 43.469 13.0544 43.4768C12.9527 43.4964 12.8628 43.5198 12.7846 43.5511C12.7573 43.5316 12.726 43.4847 12.8824 43.4651C12.6947 43.4651 12.4797 43.4847 12.2724 43.5081C12.0691 43.5238 11.8385 43.5707 11.7524 43.602C11.5139 43.6645 11.295 43.7192 11.1151 43.731L11.1386 43.6802C11.0565 43.7153 11.0135 43.7974 10.9001 43.7818C10.9001 43.7623 10.9236 43.731 10.8845 43.7388C10.8415 43.7623 10.6851 43.8678 10.5717 43.8874L10.646 43.8092C10.427 43.8561 10.2706 43.946 10.1338 44.0359C10.0009 44.1376 9.88748 44.251 9.72718 44.3409C9.69981 44.2823 9.60206 44.2783 9.48868 44.3018C9.37921 44.3292 9.258 44.38 9.1759 44.4152V44.3956C8.9374 44.5129 8.76537 44.6537 8.60898 44.8062C8.44868 44.9508 8.30402 45.1033 8.1359 45.2714C7.81139 45.3301 7.32266 45.8383 6.93169 46.0964C7.00206 46.0651 6.99033 46.1785 6.93951 46.245C6.84176 46.2997 6.77921 46.5147 6.70883 46.417L6.74011 46.3935C6.59936 46.3623 6.46251 46.546 6.33349 46.6633L6.41951 46.7962C5.93078 46.9526 5.64146 47.7033 5.32477 47.7424C5.27785 47.848 5.18402 47.9457 5.1371 48.0513L5.07845 47.9887C4.8556 48.1959 4.74612 48.3015 4.50763 48.5908L4.51545 48.4931C4.36687 48.6456 4.51545 48.8528 4.38642 48.9974L4.2574 48.9583C4.01109 49.232 3.68266 49.4353 3.52236 49.7794C3.51454 49.7638 3.49499 49.7325 3.53018 49.6817C3.41289 49.8068 3.02191 50.1235 3.19003 50.1899C3.10402 50.1117 2.93199 50.4753 2.84206 50.6669L2.79905 50.5887C2.77169 50.7881 2.79123 50.8116 2.66221 51.0149C2.6192 51.054 2.58011 51.0149 2.64266 50.968C2.49409 51.0931 2.60357 51.1244 2.44327 51.2886V51.1869C2.33379 51.3433 2.36507 51.3472 2.35725 51.4723C2.31815 51.5896 2.1383 51.7656 2.06011 51.7499C2.08357 51.7968 2.07575 51.918 1.99364 52.0001C1.96236 52.0001 1.97018 51.9532 1.97409 51.9337C1.75515 52.18 1.8177 52.3989 1.63785 52.5475C1.61048 52.5397 1.59484 52.5475 1.5753 52.5553C1.70432 52.3325 1.80597 52.1526 1.80206 52.1761C1.7356 52.137 1.62221 52.3129 1.61439 52.1135C1.57921 52.2895 1.54793 52.5983 1.4189 52.7586C1.40718 52.7626 1.39545 52.7704 1.38372 52.7704V52.7469C1.35635 52.786 1.34462 52.8251 1.33289 52.8642C1.28988 52.915 1.26642 52.9502 1.23905 53.005C1.17259 52.9971 1.10612 53.2044 1.05921 53.2982C1.1374 53.3256 1.06702 53.4429 1.18432 53.3568C1.17259 53.3686 1.18432 53.3334 1.21169 53.2708C1.2156 53.2552 1.22342 53.2395 1.22342 53.2278V53.2356C1.25469 53.1731 1.28988 53.0949 1.33289 53.0011C1.33289 53.0949 1.33289 53.1848 1.23905 53.2669C1.26251 53.3373 1.28597 53.4155 1.2977 53.4546C1.13349 53.5289 0.961461 53.7517 0.879355 53.7556C0.789431 54.0606 0.62131 54.4555 0.687776 54.6901C0.672137 54.78 0.605671 54.7683 0.570483 54.7917C0.574393 54.737 0.601761 54.6823 0.590032 54.6471C0.554844 54.823 0.418002 55.1475 0.504017 55.2218C0.382814 55.4173 0.45319 55.0693 0.367175 55.3665L0.351536 55.3156C-0.0238026 55.8317 0.296799 56.3322 -0.113727 56.9069C-0.086359 56.8678 -0.0746297 56.8444 -0.0550809 56.8405C-0.360043 57.552 -0.383502 58.3809 -0.688464 59.0808C-0.76275 59.2841 -0.700194 59.3192 -0.676735 59.46L-0.774479 59.4874L-0.715833 59.7259C-0.700194 60.0504 -1.03643 60.2224 -0.962149 60.6447L-0.895682 60.6056C-0.93087 60.7463 -0.93869 61.0591 -1.00125 61.0278C-0.993427 61.0435 -0.946509 61.0826 -0.985607 61.1334H-1.03252L-1.00516 61.4931C-1.07553 61.7589 -1.1811 61.4227 -1.24365 61.8215C-1.24365 61.974 -1.16155 62.2633 -1.12245 62.2086C-1.11463 62.146 -1.07553 62.0561 -1.02861 62.06L-1.0208 62.1968C-0.887863 62.2359 -0.76275 62.3493 -0.629818 62.0404L-0.684555 61.802L-0.610269 61.7394L-0.633727 61.931C-0.555532 61.8293 -0.602449 61.755 -0.629818 61.6729C-0.59072 61.6612 -0.563352 61.6299 -0.543803 61.5869L-0.641547 61.3445C-0.5829 61.325 -0.551622 61.4579 -0.500795 61.3132C-0.543803 61.1999 -0.633727 61.3953 -0.649367 61.2155C-0.571171 61.1177 -0.528164 61.1568 -0.559442 61.02C-0.520344 61.0083 -0.504705 61.0395 -0.496885 61.0904C-0.524254 60.9692 -0.465607 60.7893 -0.528164 60.7189C-0.434329 60.6173 -0.481246 60.3319 -0.356133 60.3671C-0.379592 60.328 -0.41869 60.152 -0.403051 60.0465C-0.285757 60.2654 -0.320946 59.6594 -0.164554 59.7415C-0.277938 59.5734 -0.117637 59.2254 -0.141096 58.9635C-0.133276 58.9791 -0.117637 59.0104 -0.129367 59.0299C-0.086359 58.8931 -0.0394417 58.8618 0.00747561 58.7797C-0.0980884 58.7367 -0.0746297 58.5138 -0.113727 58.3809C0.034844 58.2362 -0.00816357 58.5138 0.10913 58.4865C0.0152951 58.4747 0.0895809 58.1698 -0.000343919 58.2089C0.0974004 58.0955 0.0583026 58.1072 0.167776 58.0642C0.034844 58.0056 0.167776 57.9391 0.116949 57.8101C0.238152 57.642 0.261611 57.7983 0.27334 57.5833C0.343716 57.4973 0.339806 57.6928 0.339806 57.6928L0.355446 57.6967ZM1.90372 52.9424C1.88417 52.9815 1.86853 53.0128 1.8568 53.0362C1.86462 53.0167 1.88026 52.9893 1.89981 52.9424H1.90372ZM2.10702 52.5749C2.07966 52.6179 2.04838 52.6726 2.01319 52.7313C1.98191 52.7313 1.96236 52.7039 1.98582 52.6648C1.98973 52.6961 2.05229 52.614 2.10702 52.571V52.5749ZM1.1765 53.1066C1.19605 53.0402 1.21951 53.0245 1.23905 53.0245C1.22733 53.0558 1.2156 53.091 1.19605 53.1379V53.1496C1.19605 53.1496 1.18041 53.1223 1.1765 53.1066Z" fill="#1B1B1B"/>
<path d="M5.92288 48.1802L5.90724 48.1685L5.89551 48.2076L5.92288 48.1802Z" fill="#1B1B1B"/>
<path d="M23.5679 46.4287C23.5679 46.4287 23.5679 46.4365 23.5679 46.4404C23.5835 46.4756 23.5757 46.4561 23.5679 46.4287Z" fill="#1B1B1B"/>
<path d="M26.1603 47.4727C26.1173 47.4649 26.0782 47.4609 26.0391 47.4492C26.0938 47.4883 26.1368 47.5118 26.1603 47.4727Z" fill="#1B1B1B"/>
<path d="M20.5181 49.0012L20.4907 49.0051L20.5181 49.0012Z" fill="#1B1B1B"/>
<path d="M25.8901 47.363C25.941 47.41 25.9879 47.4334 26.0387 47.4491C25.9957 47.4178 25.9449 47.3787 25.8901 47.363Z" fill="#1B1B1B"/>
<path d="M28.6348 48.6845L28.6934 48.6337C28.5957 48.575 28.6739 48.6571 28.6348 48.6845Z" fill="#1B1B1B"/>
<path d="M27.4854 48.3562L27.5479 48.4539L27.63 48.4227L27.4854 48.3562Z" fill="#1B1B1B"/>
<path d="M27.2042 47.5508L27.2511 47.5665L27.0791 47.4922L27.2042 47.5508Z" fill="#1B1B1B"/>
<path d="M19.3257 48.3365L19.357 48.4304C19.4312 48.4147 19.443 48.3092 19.3257 48.3365Z" fill="#1B1B1B"/>
<path d="M15.1852 47.758C15.1579 47.6993 15.0562 47.6329 14.9741 47.6524C15.0601 47.6876 15.1344 47.7541 15.1852 47.758Z" fill="#1B1B1B"/>
<path d="M6.18511 46.8509L6.22812 46.7688L6.12646 46.9017L6.18511 46.8509Z" fill="#1B1B1B"/>
<path d="M49.2588 18.9819C49.2354 18.7982 49.1572 18.6222 49.0555 18.4698C48.9539 18.3212 48.817 18.2039 48.7193 18.0514C48.4534 17.6331 48.2931 17.1326 48.1563 16.6634C48.1094 16.4953 47.7536 16.6048 47.7262 16.7416C47.5112 17.8207 47.2961 18.8998 47.0772 19.9789C47.0772 19.9907 47.0772 19.9985 47.0694 20.0102C46.8934 19.9007 46.651 19.8343 46.3812 19.8343C45.8495 19.8343 45.4194 20.1001 45.4194 20.4286C45.4194 20.757 45.8495 21.0228 46.3812 21.0228C46.87 21.0228 47.2727 20.7961 47.3313 20.5068C47.3704 20.4794 47.4017 20.4481 47.4095 20.409C47.6011 19.455 47.7888 18.5049 47.9803 17.551C48.0546 17.7386 48.1367 17.9224 48.2345 18.0983C48.3987 18.3994 48.6919 18.6144 48.7897 18.9507C48.8444 19.1344 48.8444 19.3807 48.7701 19.5332C48.6724 19.7326 49.1024 19.7052 49.1728 19.5606C49.2549 19.3886 49.2745 19.1852 49.251 18.9976L49.2588 18.9819Z" fill="#FFF7EB"/>
<path d="M49.0442 25.5232C49.0599 25.445 48.9504 25.4333 48.8996 25.4372C48.3326 25.4763 47.7657 25.5115 47.1988 25.5506C47.1323 25.5545 47.0307 25.5975 47.0151 25.6718C46.8548 26.4733 46.6944 27.2748 46.5341 28.0802C46.4364 28.0528 46.3308 28.0333 46.2175 28.0333C45.8108 28.0333 45.4824 28.2366 45.4824 28.4868C45.4824 28.737 45.8108 28.9403 46.2175 28.9403C46.6241 28.9403 46.9525 28.737 46.9525 28.4868C46.9525 28.393 46.9056 28.303 46.8235 28.2327C46.972 27.4859 47.1206 26.743 47.2692 25.9963C47.2848 25.9142 47.3044 25.8282 47.32 25.7461C47.7775 25.7148 48.2349 25.6835 48.6923 25.6561C48.5711 26.313 48.4539 26.9698 48.3326 27.6227C48.2388 27.5954 48.1332 27.5797 48.0238 27.5797C47.6172 27.5797 47.2887 27.783 47.2887 28.0333C47.2887 28.2835 47.6172 28.4868 48.0238 28.4868C48.4304 28.4868 48.7588 28.2835 48.7588 28.0333C48.7588 27.9394 48.7119 27.8495 48.6259 27.7752C48.7432 27.1301 48.8605 26.485 48.9778 25.8399C48.9973 25.7343 49.0169 25.6288 49.0364 25.5232H49.0442Z" fill="#FFF7EB"/>
</g>
</svg>
