<svg width="52" height="52" viewBox="0 0 52 52" fill="none" xmlns="http://www.w3.org/2000/svg">
<circle cx="26" cy="26" r="26" fill="#FF4D57"/>
<g clip-path="url(#clip0_4505_6601)">
<mask id="mask0_4505_6601" style="mask-type:luminance" maskUnits="userSpaceOnUse" x="0" y="0" width="52" height="52">
<path d="M26 52C40.3594 52 52 40.3594 52 26C52 11.6406 40.3594 0 26 0C11.6406 0 0 11.6406 0 26C0 40.3594 11.6406 52 26 52Z" fill="white"/>
</mask>
<g mask="url(#mask0_4505_6601)">
<path d="M36.1654 58.4511C36.1654 58.4511 33.8196 54.1504 31.0827 51.0226C28.2051 47.7344 24.0451 46.7218 24.0451 46.7218L24.9092 43.7777C27.0322 44.4698 29.2881 44.7005 31.5793 44.3799C40.8259 43.0818 47.0972 33.2761 45.5802 22.4773C44.0671 11.6785 35.3405 3.97625 26.0899 5.27429C16.8394 6.57234 10.572 16.3781 12.089 27.1768C12.7889 32.1657 15.0292 36.4977 18.1492 39.5826C18.1492 39.5826 16.6166 42.812 16.2256 45.1579C16.2256 45.1579 9.57896 43.985 4.88723 51.8045C2.74859 55.3702 2.15039 58.8421 2.15039 58.8421" fill="#FFF7EB"/>
<path d="M16.898 43.2419L16.8394 43.371C16.8589 43.3358 16.8785 43.2928 16.898 43.2419Z" fill="#1B1B1B"/>
<path d="M13.3164 31.2702C13.3516 31.3679 13.379 31.4031 13.3907 31.4031C13.3516 31.3171 13.3203 31.2428 13.3164 31.2702Z" fill="#1B1B1B"/>
<path d="M12.8315 29.0261C12.8394 29.073 12.8472 29.116 12.855 29.1591C12.855 29.1082 12.8472 29.0535 12.8315 29.0261Z" fill="#1B1B1B"/>
<path d="M16.8979 43.242L17.0465 42.9097C17.0152 42.8706 16.9605 43.0739 16.8979 43.242Z" fill="#1B1B1B"/>
<path d="M12.3859 45.8264L12.2842 45.8616C12.2608 45.8851 12.2373 45.9124 12.2178 45.9398L12.3859 45.8225V45.8264Z" fill="#1B1B1B"/>
<path d="M8.48396 48.0002C8.56607 47.9377 8.52306 47.8282 8.52306 47.7656C8.50742 47.8399 8.46441 47.9064 8.40186 47.9689C8.41358 47.9846 8.44095 47.9963 8.48787 48.0002H8.48396Z" fill="#1B1B1B"/>
<path d="M15.5449 45.4119C15.5449 45.4119 15.5688 45.4437 15.5848 45.4517C15.5848 45.4358 15.5688 45.4238 15.5449 45.4119Z" fill="#1B1B1B"/>
<path d="M12.4214 24.8738C12.4214 24.8738 12.4214 24.8855 12.4214 24.8933C12.437 25.0028 12.4331 24.9402 12.4214 24.8738Z" fill="#1B1B1B"/>
<path d="M37.5689 8.96884C37.2835 8.62869 38.2101 9.29726 37.7566 8.81636C37.7761 8.88673 37.1779 8.5935 37.5689 8.96884Z" fill="#1B1B1B"/>
<path d="M37.7534 8.81352L37.7056 8.76172C37.7255 8.78164 37.7374 8.7936 37.7534 8.81352Z" fill="#1B1B1B"/>
<path d="M14.0675 15.5178C14.0401 15.5296 14.0127 15.5569 13.9854 15.5882C13.9971 15.5882 14.0166 15.5765 14.0675 15.5178Z" fill="#1B1B1B"/>
<path d="M12.2334 22.4186L12.2569 22.2427C12.2412 22.3131 12.2373 22.3678 12.2334 22.4186Z" fill="#1B1B1B"/>
<path d="M15.7446 12.1984C15.8033 12.1241 15.8385 12.1046 15.9049 11.9912C15.8932 11.999 15.8815 12.0068 15.8697 12.0147C15.8541 12.0616 15.8189 12.1163 15.7446 12.1984Z" fill="#1B1B1B"/>
<path d="M18.3053 9.29736C18.2858 9.30518 18.2584 9.31691 18.2388 9.32864C18.2115 9.35601 18.1802 9.38729 18.1528 9.41466L18.3092 9.29736H18.3053Z" fill="#1B1B1B"/>
<path d="M24.6236 46.4128C24.604 46.4519 24.5923 46.4793 24.5806 46.4989C24.647 46.4402 24.8112 46.4558 24.6236 46.4128Z" fill="#1B1B1B"/>
<path d="M15.127 11.5688L15.5258 11.0605C15.4085 11.1974 15.2638 11.3851 15.127 11.5688Z" fill="#1B1B1B"/>
<path d="M45.0952 32.8147L45.0601 32.9594C45.0796 32.9046 45.0952 32.8538 45.0952 32.8147Z" fill="#1B1B1B"/>
<path d="M16.7612 9.58668C16.8668 9.52803 16.9724 9.46157 17.0701 9.37946C17.0818 9.356 17.1014 9.32863 17.1014 9.30518C16.988 9.39901 16.8707 9.48894 16.7573 9.58277L16.7612 9.58668Z" fill="#1B1B1B"/>
<path d="M28.3301 47.9337C27.7984 47.6092 28.0095 47.9064 27.8531 47.9103C27.1924 47.5897 27.6068 47.6522 27.4231 47.4685C26.9969 47.2847 26.6216 47.2534 26.3127 47.1088C26.301 47.0775 26.2423 47.0423 26.3244 47.0462C26.082 46.9993 25.7497 46.8585 25.4017 46.7334C25.2297 46.667 25.0498 46.6122 24.8817 46.5653C24.8387 46.5536 24.7957 46.5458 24.7566 46.534C24.737 46.534 24.7214 46.534 24.7019 46.534C24.6667 46.534 24.6237 46.534 24.5767 46.5419C24.5689 46.5262 24.5728 46.5145 24.5767 46.5067C24.5455 46.5731 24.5103 46.6357 24.4516 46.6748C24.3813 46.6552 24.3031 46.6435 24.2249 46.6357C24.2092 46.5575 24.2405 46.4519 24.3148 46.3972C24.2757 46.5145 24.3148 46.5106 24.3422 46.5379V46.3737C24.5142 46.2291 24.3734 46.4988 24.4321 46.5223C24.4516 46.5223 24.4712 46.5145 24.4868 46.5028H24.4673C24.4555 46.4558 24.4673 46.3894 24.4673 46.319L24.4751 46.2056C24.4868 46.1391 24.4986 46.0727 24.5103 46.0062C24.5611 45.7364 24.6158 45.4823 24.694 45.2907C24.8465 45.2438 24.4595 46.2447 24.7331 45.7404L24.6158 46.0453L24.5572 46.1978C24.5416 46.2408 24.5337 46.2486 24.522 46.2799C24.5885 46.233 24.6198 46.2291 24.6315 46.2291C24.6393 46.2525 24.6315 46.2525 24.6315 46.2721C24.6198 46.3112 24.6158 46.319 24.741 46.2838L24.7488 46.276L24.7722 46.2095C24.7879 46.1626 24.7996 46.1196 24.8113 46.0805C24.8348 45.9984 24.8543 45.9241 24.8778 45.8537C24.913 45.7169 24.9404 45.5996 24.9638 45.4823C25.0146 45.2477 25.0655 45.0131 25.2062 44.6104C25.1984 44.5049 25.1671 44.5205 25.1358 44.5244C25.1007 44.5401 25.0811 44.5166 25.0576 44.4658C25.0616 44.3915 25.0772 44.3172 25.0928 44.2625C25.1007 44.2351 25.1085 44.2116 25.1163 44.1921C25.1163 44.1608 25.1554 44.1999 25.1749 44.2038C25.261 44.2546 25.3157 44.3133 25.3431 44.3602C25.3587 44.3837 25.3665 44.4071 25.3743 44.4267C25.3939 44.4501 25.4604 44.4814 25.5112 44.5049C25.6246 44.5557 25.781 44.587 26.0116 44.5987C26.2658 44.5635 26.387 44.4267 27.0047 44.63L26.7584 44.7394C27.599 44.8958 27.2667 44.6143 28.1386 44.8176C27.9743 44.8607 27.47 44.7942 27.5951 44.8255C28.1542 45.0092 28.0095 44.7903 28.4513 44.8255L28.5334 44.9662C29.4444 45.0053 30.4453 44.8919 31.4267 44.7355C31.3758 44.7825 31.2116 44.845 31.4501 44.8567C31.7629 44.7981 32.0835 44.7394 32.4119 44.6769C32.7364 44.6104 33.0649 44.5401 33.3972 44.4736C34.0501 44.3133 34.6952 44.1452 35.2817 43.9458L35.6688 43.6564C35.7704 43.6134 35.876 43.6252 35.7783 43.6916C36.2318 43.5313 35.7704 43.6173 35.9581 43.4766C36.1966 43.3515 36.3061 43.3788 36.1692 43.4844C36.5289 43.2616 37.0294 42.9292 37.5259 42.593C38.0225 42.2567 38.5151 41.9049 38.9022 41.6859C38.8631 41.7289 38.8279 41.7758 38.7888 41.8188C39.3557 41.424 39.254 41.162 39.7897 40.8179L39.7115 40.9157C40.2901 40.4504 40.814 39.8679 41.3106 39.3205C41.7876 38.7575 42.2216 38.2219 42.6125 37.8035C42.6008 37.6667 42.8315 37.3773 43.0231 37.0841C43.2146 36.787 43.3906 36.5016 43.3163 36.4038C43.8167 35.7157 43.7581 35.9581 44.3485 34.9142C44.4892 34.6249 44.4071 34.4176 44.5401 34.0501L44.6534 34.0853C44.6847 33.9055 44.7043 33.7217 44.7277 33.5419L44.9623 33.3268C44.9975 33.2095 45.0327 33.0883 45.0561 32.9671C45.0053 33.104 44.8998 33.2447 44.8763 33.2095C45.021 32.6504 45.3924 31.9037 45.451 31.8997C45.5488 31.454 45.6231 31.0005 45.6895 30.5509C45.7286 30.59 45.6934 30.8167 45.6817 31.0005C45.7247 30.2616 45.842 30.8988 45.8733 30.2185C45.8303 30.3007 45.8107 30.156 45.7912 30.1364C45.8577 29.9801 45.928 29.7142 45.9867 29.421C46.0336 29.1238 46.0766 28.7954 46.1001 28.5139L46.1665 28.6312C46.3151 27.6225 46.3268 26.4925 46.3151 25.3548C46.2799 25.7653 46.1392 25.6676 46.1196 25.3391L46.2447 25.2023C46.1587 24.9912 46.2056 25.5503 46.0961 25.1124C46.0961 24.6901 46.233 24.8231 46.2799 25.0655L46.2213 24.5494C46.2564 24.5181 46.2838 24.6354 46.3307 24.6667C46.2525 24.4594 46.3972 23.7635 46.2408 23.4703L46.276 23.439C46.147 22.3052 46.0297 21.7969 45.8381 20.8898C45.7247 20.8937 45.6817 20.534 45.5292 20.2877C45.4041 19.6231 45.2907 18.8685 45.0131 18.0982C44.7707 17.5743 44.8685 17.9692 44.7238 17.7503C44.8137 17.6721 44.501 16.9175 44.7238 17.285C44.5361 16.8315 44.4189 16.5382 44.2586 16.2294C44.1804 16.073 44.0983 15.9127 44.0005 15.7211C43.891 15.5334 43.7659 15.3184 43.6095 15.0486C43.633 15.1894 43.6838 15.3301 43.6213 15.2754C43.5079 15.0838 43.4297 14.8023 43.4844 14.8062L43.5235 14.8531C43.1247 14.2784 42.7885 13.5473 42.4053 12.8748C42.2216 12.5346 42.0261 12.2101 41.8189 11.9247C41.6195 11.6354 41.4005 11.393 41.1855 11.2092L41.2324 11.2522C40.9665 10.9707 40.6772 10.7166 40.3918 10.4546C40.0477 10.048 40.6616 10.6384 40.4426 10.3061C39.4652 9.51629 39.0507 8.90246 38.1789 8.33945C37.956 7.97584 37.3813 7.54967 36.7401 7.17043C36.1028 6.78336 35.399 6.44321 34.9494 6.13043L34.9767 6.22035C34.6952 6.1617 34.6913 6.03268 34.5076 5.93885C34.5154 5.99749 34.7578 6.1187 34.5858 6.0796C33.4949 5.62998 32.3416 5.22336 31.1452 4.93794C29.9488 4.65253 28.7016 4.49223 27.47 4.51569C26.5707 4.54697 26.993 4.89494 25.867 4.86366C25.9647 4.8011 26.0625 4.74246 26.1641 4.69163C25.2805 4.89103 24.3852 5.0787 23.5133 5.35629C22.6453 5.63779 21.7969 5.98576 21.0501 6.45103C21.1283 6.37674 21.1166 6.34155 21.2691 6.26727C20.8859 6.34155 20.061 6.92802 20.104 7.00231C19.8694 7.14306 20.014 6.97885 19.8498 7.03749C19.498 7.18607 19.1461 7.66306 18.931 7.70216C18.8958 7.70998 18.9975 7.61614 19.0483 7.56922C18.8685 7.73734 18.1491 8.25734 18.3993 8.19479C17.8558 8.57012 17.4844 9.05494 17.0739 9.37945C16.9097 9.69614 16.2685 10.1653 16.3193 10.353C16.2137 10.1966 15.4748 11.1467 15.3106 11.5376C15.3497 11.393 15.0525 11.7957 15.0877 11.6197C14.8258 12.0146 14.6107 12.3939 14.7319 12.3743C14.0868 13.0038 13.993 13.9578 13.5473 14.2745C13.0116 15.5764 12.6285 16.8158 12.3352 18.0279C12.257 17.9849 12.3392 17.6447 12.4369 17.3241C12.5346 17.0035 12.6324 16.6946 12.5346 16.6907C12.218 17.8519 12.2023 18.5518 11.9247 19.6934C11.8426 19.9906 11.8817 19.5097 11.87 19.4002C11.698 20.577 11.4868 21.6757 11.5259 22.7352C11.5103 22.7352 11.4986 22.6179 11.4907 22.5085C11.4868 22.7157 11.436 22.9933 11.5181 22.9698L11.5064 22.7665C11.5728 22.6023 11.6237 22.8134 11.6628 23.0676C11.7058 23.3217 11.7527 23.6149 11.784 23.6345C11.5572 23.2787 11.7175 24.6667 11.4282 24.1115C11.4438 24.2483 11.4907 24.4204 11.5416 24.3891C11.5337 24.5924 11.5025 24.6588 11.436 24.4516C11.5064 25.1945 11.5689 24.9286 11.6158 25.5972C11.5767 25.5972 11.5533 25.4643 11.5025 25.3978C11.608 25.734 11.6901 26.0703 11.7331 26.6372C11.7058 26.6059 11.6823 26.6763 11.6628 26.5082C11.7761 27.4817 12.0889 28.1229 12.2414 29.1785C12.0029 28.9088 12.2727 29.5422 12.1437 29.636C12.2062 29.8198 12.261 30.0035 12.3313 30.1834L12.3392 29.941C12.476 30.4258 12.691 30.8285 12.7888 31.2507L12.6128 30.9145L12.9373 31.802C12.8943 31.63 12.8592 31.454 12.8201 31.2781C13.0546 31.7355 12.9725 31.1686 13.1563 31.8098C13.0937 31.6886 13.3283 32.279 13.344 32.5527C13.4847 32.7638 13.6294 32.9788 13.7389 33.3307C13.7389 33.4363 13.559 33.3268 13.559 33.3972C13.7701 33.5692 14.0907 34.4528 14.3605 34.6601C14.2862 34.5819 14.2158 34.6131 14.2158 34.6522L14.3996 34.7891C14.4778 35.0119 14.4856 35.0471 14.4113 35.0432C14.7437 35.661 14.4622 34.7617 14.8062 35.5202C14.7671 35.4694 14.771 35.5007 14.6889 35.3912C15.0682 36.1379 15.5882 36.7283 16.0026 37.3734C16.0183 37.6471 15.5764 36.8534 15.6312 37.1349C15.9674 37.5807 16.3545 38.0107 16.7455 38.4252C16.9449 38.6285 17.1443 38.8318 17.3398 39.0312C17.4336 39.1328 17.5352 39.2267 17.633 39.3283L17.7542 39.4534L17.8441 39.5551L17.7659 39.4495C17.8519 39.43 17.9419 39.5082 18.0044 39.6059C17.938 39.7154 17.8598 39.8092 17.7816 39.9304C17.6916 40.079 17.6095 40.2432 17.5704 40.4113C17.6095 40.2823 17.5352 40.208 17.5392 40.2471C17.2225 40.9079 17.0035 41.6468 16.7064 42.7142V42.5656C16.5148 42.9566 16.3193 43.6369 16.1825 44.0904C16.1981 44.239 16.1316 44.497 16.2411 44.3563C16.1942 44.4658 16.1473 44.5713 16.1004 44.673C16.0652 44.7473 16.0534 44.8294 16.0183 44.8802C15.9283 44.8607 15.8501 44.8489 15.768 44.8489H15.6038H15.3927C15.1112 44.8528 14.8414 44.8958 14.5716 44.9271C14.3058 44.9701 14.0399 45.0092 13.778 45.0444C13.5199 45.0913 13.254 45.107 12.9882 45.1187C13.1367 45.0757 13.3401 45.0014 13.2189 45.021C12.8631 45.1109 12.5112 45.2282 12.1632 45.3455C12.2727 45.4002 12.3157 45.3533 12.5581 45.365C12.4995 45.408 12.3978 45.4588 12.2805 45.5097C12.1671 45.5683 12.0342 45.627 11.9091 45.67C12.347 45.451 11.8622 45.5331 11.6393 45.5566C11.6823 45.5722 11.6237 45.6231 11.651 45.6426C11.0567 45.6856 11.6276 45.8381 10.8769 46.0453L10.8925 45.9867C10.7635 46.057 10.6462 46.1352 10.525 46.2095C10.4077 46.2916 10.2904 46.3737 10.1497 46.4441C9.98547 46.4167 10.3921 46.2486 10.3725 46.1626C10.181 46.276 10.0167 46.4246 9.85254 46.5614C9.68442 46.6943 9.52021 46.8155 9.33254 46.8898C9.46547 46.753 9.69615 46.6161 9.84472 46.5028C9.399 46.6083 9.37945 46.6748 9.10186 46.8429L9.12923 46.8273L8.48021 47.2143L8.65615 47.1322C8.50366 47.3903 8.316 47.6014 8.0775 47.793C7.85073 47.9924 7.57705 48.184 7.39329 48.5241C7.77645 47.8868 7.40893 48.3677 7.36201 48.2426C7.20562 48.356 6.97885 48.5398 7.01013 48.4576C6.92021 48.6179 6.80682 48.7118 6.6778 48.8213C6.55269 48.9307 6.41585 49.0558 6.3181 49.3022C6.27509 49.2943 6.0796 49.5954 6.05615 49.4703C5.79028 49.8495 6.17735 49.4273 6.18908 49.4898C6.02487 49.8104 5.716 50.0919 5.43449 50.4516C5.1569 50.8113 4.85976 51.2101 4.65645 51.6793C4.28502 52.473 4.32021 52.6724 4.01915 53.4192C3.84712 53.6342 3.99179 53.1572 3.99179 53.1572C3.74547 53.5247 3.61254 53.8297 3.48742 54.2246C3.48742 54.1346 3.42878 54.2011 3.33885 54.2989C3.21765 54.6116 3.38186 54.5569 3.16291 54.94C3.15118 54.854 3.12773 54.7407 3.14727 54.5764C3.02607 54.9518 2.95569 55.3388 2.85013 55.7337C2.75239 55.8119 2.83449 55.4679 2.85013 55.3193C2.71329 55.7572 2.51389 56.457 2.57254 56.6213L2.69765 56.3554C2.65073 56.5157 2.58427 56.4101 2.60382 56.285C2.64682 55.8862 2.82276 55.765 2.86577 55.7572L2.79148 56.0348C3.09645 55.8315 3.15118 54.9401 3.39359 54.4083L3.45224 54.6937C3.48351 54.4943 3.52261 54.2949 3.56171 54.0955C3.65163 53.9978 3.76893 53.9587 3.67509 54.2246C3.9175 53.8844 3.76893 53.8649 4.00351 53.5873C4.03479 53.5599 4.03088 53.5795 4.02306 53.6146L4.156 53.2315C4.15209 53.3175 4.28893 53.2237 4.156 53.4348C4.5587 52.8327 4.58607 52.3479 4.83239 52.1719L4.81284 52.2306C5.0357 51.781 5.03179 51.7536 4.99269 51.7379C4.95359 51.7223 4.88712 51.7301 5.0396 51.3743L5.56351 51.1124L5.52051 50.9638C5.57915 50.8817 5.70036 50.7136 5.71991 50.7722C5.86457 50.4047 5.64171 50.7957 5.70036 50.565C6.07569 50.2249 6.51359 49.4546 6.72472 49.4859C6.76773 49.2865 6.37284 49.8104 6.65825 49.3569C6.90066 49.3725 7.05705 48.8877 7.4363 48.6219C7.41284 48.7978 7.0766 49.0637 7.45975 48.8056C7.49103 48.6492 7.64742 48.4889 7.839 48.3521C8.03449 48.2231 8.25344 48.0979 8.38246 47.9611C8.34336 47.9025 8.49194 47.7539 8.70697 47.5701C8.93765 47.4059 9.2387 47.2065 9.48893 47.0032C9.48893 47.0188 9.55148 46.9876 9.65314 46.9289C9.76261 46.8781 9.91509 46.7999 10.0832 46.7178C10.2513 46.6318 10.439 46.5419 10.6149 46.4519C10.7987 46.3816 10.9746 46.3151 11.1154 46.2643L11.1076 46.2916C11.131 46.2017 11.2835 46.1001 11.479 45.9945C11.6862 45.9124 11.9325 45.8146 12.1398 45.7286C12.1515 45.8146 12.085 45.8733 11.8739 45.9906L12.2649 45.8537C12.3431 45.7716 12.4604 45.7208 12.7184 45.6348L12.6441 45.7638C12.91 45.6934 13.1641 45.5801 13.4573 45.5175C13.602 45.4823 13.7506 45.4432 13.9109 45.4158C14.0712 45.3963 14.2393 45.3846 14.4152 45.3807C14.4504 45.279 13.8131 45.1656 14.5755 45.017C14.6068 45.0718 14.642 45.1539 14.4465 45.1969C14.5091 45.1773 14.6772 45.1343 14.8101 45.1539L14.513 45.2594C14.8414 45.279 14.6772 45.1734 14.9392 45.1695C14.9392 45.2477 15.1346 45.2164 15.0995 45.279C15.033 45.2907 14.8727 45.2594 14.7749 45.2946C15.0682 45.2868 15.4201 45.3416 15.5295 45.4002C15.5178 45.3767 15.5178 45.3533 15.5491 45.3298C15.5843 45.3103 15.6273 45.2946 15.7758 45.2985C16.4366 45.3611 16.1629 45.4158 16.4561 45.4979C16.4757 45.494 16.4796 45.4471 16.4952 45.4002C16.4874 45.1578 16.6399 44.6495 16.5304 44.63C16.5695 44.4736 16.6282 44.454 16.6712 44.4032C16.6829 44.1139 17.0231 43.1091 16.8119 43.3828L16.7846 43.4531C16.7846 43.4531 16.7885 43.4219 16.7924 43.4062C16.9644 42.46 17.5001 41.5608 17.8246 40.6733L17.8598 40.6889C17.9184 40.5169 17.9888 40.337 18.0592 40.1572C18.1452 39.9461 18.2351 39.7349 18.3133 39.5434C18.1295 39.3635 17.9419 39.1993 17.8285 39.125C17.7112 39.0038 17.6095 38.7927 17.6916 38.8122C17.3906 38.5073 17.3085 38.5112 16.9644 37.9912C17.2889 38.2805 16.9136 37.8426 17.285 38.2961C16.9527 37.8465 16.9175 37.7214 16.4718 37.307C16.6751 37.4086 16.3154 36.9043 16.1434 36.701C16.1942 36.8222 16.2528 36.9394 16.3154 37.0567C16.1199 36.83 15.9909 36.6032 15.8462 36.3843L16.0339 36.4273C15.5334 35.4146 14.7163 34.8282 14.5599 33.9328C14.341 33.7061 14.7867 34.5076 14.5677 34.3199C14.3331 33.8507 14.2901 33.2682 14.2158 33.1235C14.0086 32.4393 13.7701 32.5879 13.5551 31.8646C13.5473 31.9701 13.4613 32.0991 13.2228 31.587C13.0742 31.0787 13.2032 30.9106 13.344 31.2116C13.387 31.3289 13.3909 31.3915 13.3752 31.3915C13.4417 31.5479 13.5434 31.7473 13.516 31.5361L13.4495 31.4892C13.4143 31.2273 13.1837 30.547 13.3088 30.6838C13.1563 30.3202 13.1837 30.547 13.2501 30.8324C13.1172 30.1716 12.9491 29.8276 12.8357 29.1473C12.8357 29.2607 12.8083 29.3701 12.781 29.2646C12.6089 28.2637 12.6011 28.8462 12.4369 28.1776C12.4369 27.7788 12.6207 28.2871 12.4525 27.6146C12.433 27.1924 12.5581 27.5091 12.6246 27.6655C12.4252 27.0634 12.5268 26.5004 12.4955 26.1446L12.5698 26.4652C12.5268 26.2736 12.5034 26.1133 12.4955 25.9491L12.4173 26.1446C12.4173 25.9491 12.4056 25.7888 12.4447 25.7888C12.3704 25.5933 12.304 25.953 12.1906 25.562C12.2101 25.3 12.0928 24.7722 12.218 24.6784C12.2023 25.4955 12.3313 24.5846 12.3861 25.2688C12.3587 25.1397 12.3587 24.9755 12.3665 24.7801C12.3783 24.7488 12.3939 24.8074 12.4017 24.8582C12.4955 24.0841 12.2336 24.5064 12.2492 23.701C12.3157 23.8026 12.3822 23.5172 12.3704 23.3843C12.3665 23.7088 12.2531 23.5367 12.2023 23.2357C12.2805 22.7196 12.1906 22.6727 12.214 22.399L12.171 22.7079C12.1124 22.5984 12.1202 22.3364 12.1398 21.9767C12.1984 21.9494 12.1437 22.3091 12.1789 22.18C12.1007 21.7656 12.3861 21.2886 12.3939 20.7256C12.476 20.4754 12.5268 20.7217 12.5894 20.4988C12.6089 19.8694 12.7927 19.8498 12.8631 19.1969C12.7301 19.3611 12.7419 19.4002 12.7614 18.9271C12.6949 19.2829 12.6441 19.6387 12.605 19.9984C12.605 19.7638 12.5972 19.5253 12.605 19.2907C12.5307 19.6113 12.5307 19.9828 12.476 20.1704C12.4643 19.8303 12.476 19.8694 12.3743 20.0101C12.5894 19.5918 12.4682 19.1148 12.6832 18.63L12.9022 18.7004C13.1954 17.981 13.1446 17.3358 13.5551 16.4092L13.4026 16.6985C13.3674 16.5422 13.6059 16.1082 13.6998 15.7954C13.7584 15.854 13.864 15.6742 13.9656 15.5686C13.9031 15.5569 14.2667 14.9001 14.1767 14.7515L14.4661 14.3918C14.8844 13.6958 14.7124 13.4652 15.1503 12.8083C15.0995 13.0546 15.3301 12.781 15.1073 13.2579C15.2441 13.0351 15.377 12.8435 15.334 12.8122C15.4592 12.7145 15.6468 12.1515 15.8501 11.999C15.8892 11.8895 15.8462 11.8152 16.0261 11.5807C16.0574 11.565 16.0573 11.6041 16.0573 11.6041C16.0261 11.5807 16.2919 11.2014 16.0691 11.3578C16.417 11.1154 16.765 10.6736 17.1404 10.2631C17.3202 10.0519 17.5118 9.86035 17.6955 9.69223C17.8754 9.5202 18.0552 9.38727 18.2195 9.30907C18.4228 9.10967 18.6456 8.88682 18.8841 8.69133C19.1148 8.48411 19.3494 8.29644 19.5605 8.14787C19.5488 8.18697 19.5801 8.17915 19.498 8.22997C20.1157 7.87028 19.7286 7.78817 20.4598 7.40892C20.8781 7.29163 20.1313 7.69825 20.3737 7.6005C20.4871 7.6787 20.6865 7.53404 20.9367 7.37373C21.1831 7.20561 21.4763 7.00231 21.7578 6.95539L21.6483 7.02576C22.0549 6.91629 22.5202 6.49403 23.1692 6.279C23.1692 6.279 23.1458 6.31028 23.177 6.3181C23.5641 6.02877 24.4086 5.72772 25.0498 5.5596C24.87 5.70426 24.7683 5.67689 24.913 5.74727C25.1984 5.66907 24.7918 5.60261 25.3665 5.45403C25.5659 5.47358 25.996 5.45403 26.0664 5.54787L25.5229 5.64561C25.824 5.73163 26.2267 5.51659 26.5199 5.5205L26.4886 5.58697C26.907 5.52441 27.1142 5.46967 27.337 5.42276C27.556 5.37193 27.7867 5.31719 28.2441 5.33283L28.1503 5.28591C28.6546 5.13734 28.5686 5.36802 29.073 5.28982L29.2137 5.45403C29.5422 5.43058 30.3789 5.42667 30.9692 5.51659C30.7933 5.54396 30.5313 5.53614 30.2616 5.52832C29.9918 5.52832 29.7103 5.53614 29.4952 5.53614C29.6555 5.55569 29.9292 5.58697 30.1834 5.60652C30.4375 5.62997 30.676 5.65734 30.7659 5.63388C30.633 5.62607 30.4649 5.63388 30.3437 5.58697C30.5509 5.56351 30.7855 5.5596 31.0513 5.57915C31.3172 5.60261 31.6065 5.66516 31.9271 5.73945C31.8333 5.86456 32.236 6.00531 32.7052 6.15779C32.9358 6.24772 33.1861 6.34155 33.4011 6.43539C33.6122 6.53313 33.7843 6.64652 33.8703 6.74035C34.965 7.08832 35.8877 7.77253 36.9786 8.52321C36.7244 8.06185 37.3031 8.73825 37.3734 8.50757C37.6315 8.68742 37.7253 8.7617 37.737 8.78907C37.9638 9.01584 38.1632 9.26606 38.3783 9.50065C38.5034 9.69614 38.1163 9.35208 38.1046 9.41073C38.6089 9.86035 38.257 9.66877 38.5425 10.0167C38.5307 9.89163 38.8005 10.0832 39.0546 10.3764C38.953 10.2201 38.8396 10.0754 38.734 9.92291C39.1289 10.1966 39.2345 10.3843 39.344 10.5641C39.4534 10.7479 39.5629 10.9238 39.9265 11.2366L39.6685 11.0646C40.0438 11.3852 40.8414 12.4252 41.2676 12.7106C41.2989 12.7966 41.3145 12.9256 41.1698 12.7653C41.8423 13.7154 42.7728 14.8531 43.0661 15.7367L42.9722 15.682C43.0817 15.8697 43.2498 15.9713 43.3046 16.2528C43.2772 16.2528 43.2146 16.1981 43.2537 16.2919C43.3163 16.3897 43.5939 16.7807 43.6682 17.0661C43.6174 16.9957 43.5665 16.9292 43.5118 16.8628C43.6916 17.4101 43.8989 17.7972 44.0787 18.1764C44.2742 18.5518 44.454 18.9076 44.6104 19.3689C44.454 19.4119 44.6261 20.2994 44.6964 20.7452L44.6691 20.7334C44.9349 22.0354 45.2164 22.9385 45.3728 24.174C45.3455 24.3695 45.3298 24.6315 45.3181 24.9286C45.3142 25.2297 45.3142 25.5698 45.2986 25.9217C45.2986 26.2775 45.279 26.645 45.2477 27.0008C45.2282 27.3566 45.1734 27.7007 45.1187 28.0017C45.1695 27.8179 45.2477 28.0447 45.2438 28.2676C45.1734 28.5491 45.2477 29.0808 45.0992 29.0104L45.1148 28.9088C44.9389 29.1043 44.8685 29.6907 44.7786 30.1443L44.9623 30.2616C44.6808 30.8246 44.5205 31.5987 44.3133 32.2985C44.2195 32.6504 44.1178 32.9828 44.0044 33.2564C43.8989 33.534 43.7816 33.753 43.6525 33.8781C43.5861 34.1674 43.4414 34.4998 43.3554 34.7813L43.2616 34.7187C43.0778 35.0784 42.9253 35.3404 42.7611 35.6258C42.6086 35.9151 42.4249 36.2122 42.1746 36.6462L42.2137 36.4312C41.9127 36.9004 42.0964 37.2014 41.7993 37.6393L41.5725 37.6667C40.99 38.4682 40.2354 39.1211 39.6372 39.8952C39.6333 39.8679 39.6176 39.8131 39.7271 39.6958C39.5668 39.864 39.2149 40.1376 38.9413 40.384C38.6637 40.6225 38.4525 40.8219 38.5894 40.861C38.4916 40.7593 37.7879 41.4748 37.3617 41.811L37.3734 41.6742C37.0724 42.0339 37.0841 42.0847 36.5485 42.4249C36.4116 42.4874 36.3921 42.4131 36.5798 42.3388C36.1223 42.5343 36.2865 42.6164 35.7196 42.8354L35.8916 42.6712C35.4303 42.894 35.4811 42.9019 35.2543 43.0895C34.9767 43.2694 34.3355 43.4258 34.2339 43.3554C34.1909 43.4375 33.9485 43.6095 33.6474 43.6604C33.5966 43.6369 33.6983 43.5822 33.7452 43.5548C33.534 43.5978 33.3542 43.6486 33.1978 43.7034C33.0375 43.7503 32.8928 43.7972 32.756 43.8441C32.4862 43.9419 32.2399 44.0122 31.9389 44.0044C31.9193 43.9692 31.8802 43.9614 31.8294 43.9575C32.5019 43.8637 33.0258 43.7073 32.9828 43.7385C32.9554 43.6408 32.4276 43.7464 32.8146 43.5157C32.4158 43.6955 31.7082 43.9927 31.1686 44.0083C31.1413 44.0005 31.1178 43.9966 31.0943 43.981L31.1491 43.9614C31.0279 43.9692 30.9184 43.9849 30.8167 44.0122C30.6486 44.0122 30.5392 44.0044 30.3749 44.0122C30.3085 43.9379 29.7533 43.9966 29.4835 43.9888C29.507 44.1022 29.1473 44.0787 29.4835 44.1725C29.4405 44.1647 29.5343 44.1608 29.7181 44.153C29.7572 44.153 29.808 44.1491 29.8354 44.1413C29.8315 44.1413 29.8237 44.1491 29.8158 44.153C29.9957 44.1413 30.2303 44.1373 30.4922 44.1139C30.2811 44.1843 30.0543 44.2429 29.7494 44.1882C29.6086 44.2585 29.4522 44.3367 29.3662 44.368C28.987 44.2195 28.2754 44.0826 28.1855 43.977C27.3527 43.9692 26.254 43.7229 25.6949 43.7776C25.476 43.7425 25.3978 43.633 25.2766 43.5626C25.3743 43.5861 25.4799 43.6095 25.5777 43.6291C25.6441 43.6408 25.7028 43.6525 25.7419 43.6486C25.6793 43.6369 25.6246 43.6291 25.5386 43.6095C25.433 43.5822 25.3196 43.5548 25.2062 43.5235C25.0928 43.4922 24.9795 43.461 24.8661 43.4297L24.698 43.3828C24.698 43.3828 24.6823 43.3788 24.6784 43.3788V43.4023L24.6628 43.4453L24.6393 43.5313C24.522 43.9888 24.4399 44.3719 24.5025 44.411C24.2679 44.9779 24.4712 44.0435 24.2561 44.8567L24.2444 44.7355C24.0919 45.0718 23.9864 45.3924 23.9082 45.7013C23.8652 45.8889 23.8222 46.0766 23.7792 46.2564C23.7322 46.4832 23.6736 46.7061 23.6501 46.9016C23.959 46.9602 24.2483 47.0071 24.5064 47.0736C24.7097 47.1166 24.8934 47.1635 25.0928 47.2261C25.4877 47.3512 25.8943 47.5388 26.3127 47.8243C26.2071 47.7578 26.1524 47.7226 26.1407 47.6913C27.0516 48.1761 27.9861 48.6805 28.8501 49.2865C29.7181 49.8925 30.4922 50.6158 31.0709 51.4604C31.4149 51.9256 31.5166 51.9256 31.7981 52.1563L31.7825 52.3283L32.2595 52.7271C32.8616 53.3605 32.9124 54.0955 33.6748 54.8931L33.6631 54.7328C33.8703 55.0652 34.3864 55.7455 34.273 55.7416C34.3082 55.7689 34.4137 55.8041 34.4607 55.9566L34.4137 55.9996L35.0119 56.762C35.3599 57.4267 34.7461 56.7894 35.2895 57.7277C35.5163 58.064 36.0167 58.6387 35.9776 58.4862C35.9034 58.3415 35.8056 58.1031 35.8564 58.064L36.0676 58.3728C36.2592 58.3455 36.568 58.5058 36.2201 57.6378L35.8017 57.1413L35.7704 56.9184L36.0519 57.3797C35.9698 57.0709 35.8056 56.9419 35.6492 56.7816C35.6649 56.7112 35.6453 56.6173 35.5945 56.5L35.1175 56.0543C35.1371 55.9527 35.3873 56.2185 35.1957 55.8393C34.9689 55.6321 35.2113 56.1638 34.9064 55.7767C34.8125 55.4757 34.9142 55.5148 34.664 55.2489C34.6757 55.1825 34.7422 55.2294 34.836 55.3388C34.6171 55.0964 34.3512 54.639 34.1792 54.5569C34.0853 54.2324 33.5458 53.6772 33.7061 53.6068C33.6122 53.5482 33.2721 53.2197 33.0883 52.9891C33.577 53.3019 32.4393 52.0937 32.6973 52.0781C32.3103 51.8709 31.7395 50.9873 31.1686 50.5259C31.2077 50.5455 31.282 50.5846 31.3211 50.6354C31.0513 50.3265 31.0122 50.2014 30.8558 49.9864C30.7034 50.0646 30.2342 49.6384 29.9058 49.5055C29.6204 49.0754 30.2537 49.5602 30.2264 49.353C30.1638 49.4625 29.4757 48.8916 29.5422 49.0832C29.2919 48.7861 29.3076 48.8525 29.2255 48.6336C29.0613 48.747 28.9205 48.4498 28.5882 48.3755C28.1816 47.9924 28.5686 48.1449 28.0213 47.879C27.8023 47.6796 28.3028 47.8985 28.3028 47.8985L28.3301 47.9337ZM31.4267 44.6964C31.3055 44.716 31.1999 44.7316 31.1334 44.7394C31.196 44.7316 31.2781 44.716 31.4228 44.6964H31.4267ZM32.6074 44.497C32.4667 44.5322 32.2829 44.5518 32.0952 44.587C32.0483 44.5557 32.0874 44.5088 32.2047 44.4931C32.1461 44.5244 32.4276 44.5088 32.6074 44.497ZM30.07 44.0435C30.2498 44.0201 30.3085 44.0435 30.3358 44.0592C30.2498 44.067 30.1521 44.0748 30.0231 44.0865C30.0192 44.0865 30.0074 44.0982 30.0035 44.1022C30.0192 44.0787 30.0387 44.0592 30.0739 44.0435H30.07Z" fill="#1B1B1B"/>
<path d="M29.7452 44.1921C29.7178 44.1921 29.7061 44.2 29.6709 44.2C29.71 44.2078 29.7452 44.2156 29.7804 44.2234C29.8038 44.2117 29.8234 44.2 29.8429 44.1882C29.8117 44.1882 29.7765 44.1882 29.7452 44.1882V44.1921Z" fill="#1B1B1B"/>
<path d="M16.832 43.395L16.84 43.3711C16.84 43.3711 16.8201 43.407 16.8081 43.4149C16.8161 43.399 16.8201 43.403 16.828 43.391L16.832 43.395Z" fill="#1B1B1B"/>
<path d="M44.6807 34.0891L44.6533 34.0813L44.6338 34.1869L44.6807 34.0891Z" fill="#1B1B1B"/>
<path d="M11.6392 45.5606C11.6392 45.5606 11.5962 45.5528 11.5493 45.5606C11.5571 45.5645 11.5923 45.5606 11.6392 45.5606Z" fill="#1B1B1B"/>
<path d="M9.10579 46.8469L8.75391 47.0463C8.9103 46.9642 9.01977 46.9017 9.10579 46.8469Z" fill="#1B1B1B"/>
<path d="M7.36964 48.1799C7.36182 48.2151 7.36964 48.2308 7.36964 48.2464L7.36182 48.1799H7.36964Z" fill="#1B1B1B"/>
<path d="M11.4908 22.5163C11.4908 22.4851 11.4908 22.4577 11.4908 22.4303C11.4791 22.2309 11.483 22.3678 11.4908 22.5163Z" fill="#1B1B1B"/>
<path d="M13.3439 32.5606C13.2853 32.4667 13.2305 32.3729 13.1797 32.2712C13.2383 32.4433 13.2853 32.5801 13.3439 32.5606Z" fill="#1B1B1B"/>
<path d="M15.084 11.6236C15.084 11.6236 15.1114 11.5884 15.127 11.5688L15.084 11.6236Z" fill="#1B1B1B"/>
<path d="M13.0117 31.8215C13.0547 32.0014 13.1134 32.1421 13.1798 32.2672C13.1329 32.1226 13.0821 31.9545 13.0117 31.8215Z" fill="#1B1B1B"/>
<path d="M6.38861 49.9941L5.91553 50.5337C6.02891 50.4633 6.17357 50.3656 5.9859 50.6275C6.64275 49.9981 5.79041 50.7135 6.38861 49.9941Z" fill="#1B1B1B"/>
<path d="M7.92475 48.403C7.65888 48.6767 7.96775 48.4421 7.97166 48.4773C8.12805 48.2935 8.16715 48.2466 7.92475 48.403Z" fill="#1B1B1B"/>
<path d="M17.6291 38.6753L17.7269 38.6362C17.5196 38.4251 17.6956 38.6597 17.6291 38.6753Z" fill="#1B1B1B"/>
<path d="M15.3184 36.5444L15.4357 36.8259L15.592 36.8885L15.3184 36.5444Z" fill="#1B1B1B"/>
<path d="M14.986 34.617L15.0603 34.7225C14.9665 34.5857 14.8883 34.4449 14.7983 34.3081L14.986 34.617Z" fill="#1B1B1B"/>
<path d="M17.8715 9.83694L17.7229 9.81348C17.5978 9.96987 17.6682 10.095 17.8715 9.83694Z" fill="#1B1B1B"/>
<path d="M28.1582 5.42279C28.2833 5.48926 28.6039 5.52054 28.8072 5.47753C28.5492 5.45016 28.2911 5.41106 28.1582 5.42279Z" fill="#1B1B1B"/>
<path d="M44.7041 30.8166L44.7159 30.582L44.6533 31.016L44.7041 30.8166Z" fill="#1B1B1B"/>
<path d="M29.3546 26.9774C30.0197 26.9774 30.5588 26.1022 30.5588 25.0225C30.5588 23.9429 30.0197 23.0676 29.3546 23.0676C28.6895 23.0676 28.1504 23.9429 28.1504 25.0225C28.1504 26.1022 28.6895 26.9774 29.3546 26.9774Z" fill="black"/>
<path d="M38.2843 26.9774C38.9494 26.9774 39.4885 26.1022 39.4885 25.0225C39.4885 23.9429 38.9494 23.0676 38.2843 23.0676C37.6192 23.0676 37.0801 23.9429 37.0801 25.0225C37.0801 26.1022 37.6192 26.9774 38.2843 26.9774Z" fill="black"/>
<path d="M27.6459 30.8871C29.0948 30.8871 30.2694 30.1869 30.2694 29.3232C30.2694 28.4595 29.0948 27.7593 27.6459 27.7593C26.197 27.7593 25.0225 28.4595 25.0225 29.3232C25.0225 30.1869 26.197 30.8871 27.6459 30.8871Z" fill="#F4BDCB"/>
<path d="M39.3754 30.8871C40.8243 30.8871 41.9989 30.1869 41.9989 29.3232C41.9989 28.4595 40.8243 27.7593 39.3754 27.7593C37.9265 27.7593 36.752 28.4595 36.752 29.3232C36.752 30.1869 37.9265 30.8871 39.3754 30.8871Z" fill="#F4BDCB"/>
<path d="M33.8195 31.2781C32.8498 31.2781 32.0601 30.4883 32.0601 29.5187C32.0601 28.5491 32.8498 27.7593 33.8195 27.7593C34.7891 27.7593 35.5789 28.5491 35.5789 29.5187C35.5789 30.4883 34.7891 31.2781 33.8195 31.2781ZM33.8195 28.1503C33.0649 28.1503 32.451 28.7641 32.451 29.5187C32.451 30.2733 33.0649 30.8871 33.8195 30.8871C34.574 30.8871 35.1879 30.2733 35.1879 29.5187C35.1879 28.7641 34.574 28.1503 33.8195 28.1503Z" fill="black"/>
<path d="M0.586426 63.1428C0.586426 63.1428 1.36838 55.3232 4.88718 51.4135C8.40598 47.5037 10.7518 44.7668 14.2706 44.7668C14.2706 44.7668 11.9717 48.5359 19.3533 49.4586C25.609 50.2405 24.827 46.7217 24.827 46.7217C26.1524 47.3942 29.7768 49.138 31.0827 50.6315C33.8195 53.7593 36.1654 58.0601 36.1654 58.0601" fill="#9B9B9B"/>
<path d="M31.4854 50.8972L31.5093 50.945C31.5093 50.945 31.4973 50.9132 31.4854 50.8972Z" fill="#1B1B1B"/>
<path d="M27.5092 47.8986C27.5443 47.9143 27.5639 47.9143 27.5678 47.9064C27.5326 47.8947 27.5053 47.8869 27.5092 47.8986Z" fill="#1B1B1B"/>
<path d="M26.8091 47.4021C26.8091 47.4021 26.837 47.422 26.8529 47.434C26.841 47.418 26.825 47.4021 26.8091 47.4021Z" fill="#1B1B1B"/>
<path d="M31.4855 50.8973L31.4229 50.7761C31.3917 50.7879 31.4503 50.8426 31.4855 50.8973Z" fill="#1B1B1B"/>
<path d="M32.189 51.6056C32.189 51.6056 32.2009 51.5857 32.2009 51.5737C32.1929 51.5817 32.189 51.5897 32.189 51.6056Z" fill="#1B1B1B"/>
<path d="M25.2881 46.5027C25.2881 46.5027 25.2961 46.5067 25.3 46.5107C25.3678 46.5346 25.3319 46.5186 25.2881 46.5027Z" fill="#1B1B1B"/>
<path d="M14.3136 46.4167C14.2745 46.5692 14.1651 46.2056 14.1377 46.4324C14.1651 46.4089 14.3097 46.5966 14.3136 46.4167Z" fill="#1B1B1B"/>
<path d="M23.271 48.8369C23.271 48.8369 23.2989 48.8529 23.3148 48.8529C23.3108 48.8449 23.2989 48.8409 23.271 48.8369Z" fill="#1B1B1B"/>
<path d="M22.0548 49.271C22.0196 49.271 22.0079 49.2592 21.9609 49.271C21.9648 49.271 21.9688 49.2788 21.9766 49.2788C21.9922 49.2671 22.0157 49.2592 22.0548 49.2671V49.271Z" fill="#1B1B1B"/>
<path d="M20.6553 49.3218C20.6553 49.3218 20.6709 49.3335 20.6787 49.3374C20.6944 49.3374 20.71 49.3374 20.7217 49.3335L20.6514 49.3218H20.6553Z" fill="#1B1B1B"/>
<path d="M22.0744 49.9199L21.832 49.9277C21.8985 49.9277 21.9884 49.9277 22.0744 49.9199Z" fill="#1B1B1B"/>
<path d="M7.80426 48.7312L7.77637 48.775C7.77637 48.775 7.80426 48.7471 7.80426 48.7312Z" fill="#1B1B1B"/>
<path d="M21.1281 49.9786C21.0851 49.9473 21.0421 49.9317 20.9951 49.9199C20.9834 49.9277 20.9756 49.9317 20.9678 49.9395L21.1281 49.9747V49.9786Z" fill="#1B1B1B"/>
<path d="M1.93893 58.6151C1.99758 58.4079 1.86465 58.49 1.81382 58.4314C1.85292 58.1772 1.9233 58.3375 1.99758 58.2672C2.01322 58.1069 1.94675 57.9583 1.98585 57.8449C2.0054 57.8449 2.01713 57.8215 2.03277 57.8527C2.00149 57.6651 2.18134 57.3718 2.13442 57.149C2.14615 57.1372 2.15788 57.1333 2.16961 57.1333C2.10705 57.149 2.05623 57.1333 2.02104 57.1177C2.04841 57.0239 2.00931 56.9261 2.08751 56.9105C2.06796 56.9652 2.09142 56.9809 2.10705 57.0121V56.9066C2.23217 56.8518 2.09924 57.0512 2.17352 57.0747C2.19698 56.8753 2.2048 56.6329 2.27909 56.5C2.38465 56.5 2.18916 56.844 2.34164 56.6837L2.22826 56.8909C2.43548 56.7736 2.16961 57.02 2.38465 56.9222C2.51367 56.6446 2.45112 56.5821 2.58405 56.3045C2.55668 56.2224 2.49803 56.2966 2.47066 56.2145C2.5254 55.7649 2.82645 55.9839 2.82254 55.6398C2.79127 55.5381 2.68961 55.46 2.83818 55.2762L2.91247 55.3935C3.03758 55.1237 2.82254 55.1706 3.02194 54.9165C3.03758 54.983 2.9633 55.1433 2.99066 55.1081C3.15096 54.9595 2.99066 54.9517 3.05713 54.8109L3.16269 54.8227C3.28781 54.5372 3.35818 54.1815 3.51457 53.8687C3.53021 53.9 3.53021 53.9664 3.59668 53.9078C3.68269 53.7045 3.79999 53.5012 3.9251 53.3096C4.05412 53.1141 4.21442 52.9499 4.35127 52.7896L4.3669 52.6097C4.39036 52.5784 4.43728 52.5745 4.42946 52.6175C4.54675 52.5003 4.39036 52.5784 4.406 52.4924C4.45292 52.4103 4.51548 52.4182 4.50375 52.4846C4.60931 52.2109 4.89081 51.7457 5.15277 51.5697L5.12931 51.6323C5.31698 51.4759 5.18014 51.3117 5.39127 51.1944L5.37172 51.2374C5.75487 50.8699 6.08721 50.3812 6.45081 50.1739C6.41172 50.0332 6.8457 49.826 6.74014 49.6852C7.006 49.521 6.97082 49.6031 7.30315 49.3372C7.38525 49.2591 7.33833 49.1418 7.42044 49.0245L7.48691 49.0831L7.54946 48.8798H7.69803L7.77232 48.7742C7.73322 48.8094 7.66675 48.8251 7.65112 48.8016C7.7645 48.6257 8.04209 48.4888 8.08119 48.5201C8.17503 48.3872 8.27277 48.2581 8.37051 48.1291C8.39006 48.1643 8.33924 48.2269 8.31187 48.2894C8.42916 48.0431 8.41352 48.3246 8.51909 48.1018C8.4839 48.1096 8.49563 48.0509 8.4839 48.0353C8.6051 47.9923 8.79668 47.8085 8.9257 47.66L8.94134 47.7303C9.21112 47.4997 9.47698 47.2103 9.78194 46.9601C9.65683 47.0305 9.60991 46.9249 9.69593 46.8428L9.78976 46.8858C9.81322 46.792 9.67247 46.9327 9.74675 46.7803C9.87187 46.6981 9.89142 46.8076 9.8445 46.8819L9.9657 46.749C9.99307 46.7646 9.9657 46.8037 9.98134 46.8389C10.0048 46.749 10.2824 46.7294 10.3059 46.5848L10.3293 46.6004C10.6499 46.3854 10.775 46.2485 11.0448 46.0921C11.0096 46.0178 11.1269 45.9748 11.1738 45.8693C11.3889 45.7676 11.6547 45.7324 11.901 45.6034C12.0653 45.4939 11.9284 45.5174 11.991 45.4392C12.034 45.5057 12.292 45.404 12.1747 45.5018C12.4836 45.3806 12.5696 45.3454 12.9645 45.189C12.9137 45.1694 12.8589 45.1694 12.8785 45.1381C12.9528 45.1069 13.0544 45.1225 13.0544 45.1655L13.0349 45.1772C13.1287 45.1381 13.2382 45.1186 13.3516 45.1108C13.4063 45.1069 13.4689 45.103 13.5158 45.103C13.5471 45.103 13.5705 45.1108 13.5862 45.1225C13.6565 45.1655 13.6565 45.2007 13.6722 45.2085C13.6722 45.2163 13.6839 45.2163 13.7074 45.2163H13.6995C13.7191 45.2281 13.7347 45.2672 13.7465 45.3258C13.7465 45.3141 13.7386 45.3415 13.7347 45.3493C13.7308 45.361 13.7269 45.3649 13.723 45.361C13.7152 45.361 13.7113 45.3415 13.7074 45.318C13.6917 45.3063 13.6683 45.3102 13.6487 45.2945C13.6487 45.7989 13.5158 46.0882 13.6526 46.4988C13.6174 46.5848 13.6135 46.706 13.637 46.8389C13.6604 46.9718 13.7386 47.1048 13.8051 47.2455C13.8637 47.3902 13.981 47.4997 14.0553 47.6248C14.1374 47.746 14.2039 47.8633 14.2625 47.9571L14.2821 47.9024C14.3994 47.9454 14.3564 48.0157 14.4072 48.0822C14.4268 48.0431 14.3525 47.9649 14.4228 47.9923C15.1227 48.5905 15.932 49.0909 16.7765 49.4154C17.0854 49.5249 17.0307 49.2043 17.3904 49.4272L17.2535 49.4936C17.9104 49.5601 18.5555 49.7712 19.1928 49.7712C19.1537 49.7869 19.1498 49.8142 19.0872 49.8064C19.2084 49.9042 19.5798 49.869 19.5877 49.8103C19.6854 49.826 19.6033 49.8651 19.6619 49.9003C19.791 49.955 20.006 49.8416 20.0725 49.9159C20.0842 49.9276 20.0334 49.9354 20.0099 49.9394C20.0998 49.912 20.4165 49.9863 20.3383 49.8963C20.5729 49.9511 20.7958 49.869 20.9874 49.9198C21.1125 49.8299 21.3979 49.9706 21.4331 49.8338C21.4213 49.9667 21.8671 49.9042 22.0117 49.8299C21.9648 49.8729 22.1486 49.8612 22.0977 49.9198C22.2737 49.912 22.4301 49.8377 22.3871 49.7791C22.563 49.826 22.7194 49.7595 22.8562 49.7048C22.9931 49.65 23.1065 49.5757 23.2316 49.6422C23.7281 49.4154 24.1504 49.0909 24.4671 48.7078C24.5062 48.7547 24.428 48.8798 24.3185 48.958C24.2168 49.044 24.1152 49.1261 24.166 49.1769C24.2559 49.0909 24.3302 49.0088 24.3967 48.9345C24.4592 48.8485 24.5062 48.7625 24.5609 48.6843C24.6704 48.5279 24.7446 48.352 24.8737 48.1565C24.9362 48.0509 24.905 48.2503 24.8932 48.2933C24.9831 48.0627 25.0653 47.8437 25.1161 47.6209C25.1317 47.5739 25.1356 47.4957 25.1434 47.4684V47.4136C25.1434 47.3784 25.1356 47.3394 25.1161 47.2807C25.1278 47.2963 25.1395 47.3237 25.1513 47.3472C25.1474 47.3159 25.1669 47.3159 25.1083 47.2416L25.1239 47.2885C25.077 47.2651 25.0301 47.1634 24.9753 47.0227C24.9597 46.9797 24.9284 46.9054 24.9284 46.8897C24.9362 46.878 24.9401 46.8663 24.9362 46.8545C25.0144 47.0891 25.1943 47.0344 25.2138 47.2846C25.2216 47.2768 25.2295 47.2494 25.2138 47.1947C25.2529 47.226 25.2568 47.2572 25.249 47.3042C25.3194 47.3042 25.2959 47.2221 25.4093 47.2807C25.3898 47.3042 25.3702 47.3042 25.3507 47.3354C25.3663 47.312 25.4484 47.3198 25.5188 47.3354C25.5892 47.3511 25.6674 47.3824 25.7534 47.4371C25.7338 47.4488 25.7456 47.4801 25.6908 47.4488C26.0075 47.6013 26.289 47.5857 26.6057 47.8124C26.4454 47.8711 26.6995 47.9102 26.6683 48.0157L26.8637 48.0822L26.8168 47.9962C26.9771 48.0822 27.1531 48.09 27.2704 48.1956L27.1296 48.1721L27.4346 48.3168L27.286 48.1878C27.4737 48.2269 27.3368 48.0548 27.5323 48.1995C27.4854 48.1839 27.6887 48.2894 27.7395 48.3911C27.8334 48.4028 27.935 48.4184 28.0367 48.5084C28.0484 48.5553 27.9507 48.5983 27.9585 48.6296C28.0797 48.5944 28.3377 48.8172 28.4785 48.7938C28.4355 48.7938 28.4042 48.8407 28.4081 48.8603L28.5098 48.8368C28.5684 48.8994 28.5723 48.915 28.5371 48.9502C28.7443 49.0909 28.541 48.7899 28.7639 48.9971C28.7404 48.9893 28.7444 49.0049 28.6974 48.9893C28.932 49.173 29.2135 49.2551 29.4168 49.4428C29.4207 49.5797 29.2057 49.3294 29.2292 49.4584C29.5615 49.6618 29.9798 49.8103 30.2535 50.0762L30.2066 50.0215C30.3474 49.9354 30.3786 50.256 30.5663 50.3303C30.5233 50.3069 30.4647 50.3538 30.4842 50.3499C30.6601 50.5375 30.883 50.6705 31.1801 50.952L31.1176 50.9403C31.1919 51.081 31.3678 51.2648 31.4577 51.4055C31.5203 51.4172 31.575 51.4994 31.5828 51.4172C31.7314 51.9568 32.2905 52.1132 32.4195 52.5941C32.3843 52.5511 32.314 52.512 32.3374 52.5472L32.5994 52.8404C32.6346 52.7739 32.5994 52.7739 32.5994 52.6762C32.6619 52.6918 32.7519 52.7622 32.8105 52.8404C32.6698 52.7231 32.7245 52.9069 32.7362 52.989C32.7441 52.9655 32.7792 52.9733 32.791 52.9577C32.8144 53.1923 32.9239 52.903 33.0216 53.1806L32.9825 53.1884C33.0568 53.2627 33.1507 53.3135 33.2093 53.4112C33.1741 53.4933 33.1155 53.3409 33.0568 53.3721C33.1507 53.4972 33.3579 53.5403 33.3774 53.7045C33.3188 53.6615 33.264 53.5833 33.2093 53.5403C33.225 53.7201 33.2523 53.7201 33.3071 53.8257V53.8139L33.4204 54.0563L33.4009 53.986C33.6785 54.0329 33.6589 54.2948 33.917 54.4434C33.6668 54.2988 33.831 54.4473 33.7489 54.4825C33.7645 54.5529 33.7997 54.6545 33.7645 54.6428C33.8935 54.7093 33.831 54.85 34.0186 54.94C33.9991 54.9634 34.089 55.0533 34.0147 55.069C34.1242 55.1941 34.0343 55.0103 34.0734 55.0025C34.2923 55.1628 34.2962 55.5616 34.6012 55.8001C34.8123 56.0347 34.9257 56.0347 35.1212 56.2575C35.1329 56.367 34.9922 56.2419 34.9922 56.2419C35.0391 56.3983 35.1056 56.496 35.2111 56.6055C35.1759 56.5938 35.172 56.629 35.1681 56.6876C35.2346 56.7854 35.2971 56.7033 35.3441 56.8597C35.301 56.8518 35.2424 56.8479 35.1838 56.8166C35.2776 56.9222 35.3949 57.016 35.4926 57.1294C35.4692 57.1881 35.3831 57.0903 35.3284 57.063C35.4301 57.192 35.5825 57.407 35.6764 57.4109L35.649 57.3054C35.6842 57.3562 35.606 57.3679 35.5708 57.3366C35.4457 57.2467 35.4926 57.149 35.5122 57.1255L35.5825 57.2076C35.6725 57.0317 35.348 56.8597 35.2463 56.6759L35.3949 56.6876L35.1994 56.5547C35.1994 56.5 35.2463 56.4374 35.3128 56.5156C35.2854 56.3553 35.2072 56.4257 35.1955 56.281C35.1955 56.2615 35.2072 56.2654 35.215 56.2732L35.1056 56.1676C35.1407 56.1794 35.1681 56.1012 35.1994 56.1872C35.1212 55.9252 34.8983 55.8744 34.9218 55.7415L34.9413 55.7571C34.7107 55.4678 34.8475 55.7727 34.6129 55.5968L34.6989 55.3231L34.6051 55.3427C34.5895 55.3075 34.5543 55.241 34.5895 55.2332C34.4604 55.1472 34.5699 55.2762 34.4761 55.2332C34.4487 55.0338 34.1711 54.8344 34.2689 54.721C34.175 54.7054 34.3197 54.893 34.175 54.7601C34.2728 54.6311 34.0304 54.5881 33.9952 54.4082C34.089 54.4082 34.1398 54.5607 34.1086 54.3848C33.9444 54.373 33.9522 54.0994 33.8505 53.9977C33.7567 54.0524 33.6433 53.7709 33.4791 53.5989C33.5182 53.5911 33.2719 53.204 33.178 53.0007H33.1976C33.0842 53.0242 32.9669 52.8287 32.8535 52.7114C32.9083 52.6801 32.9474 52.6879 33.0216 52.7427L32.9278 52.6175C32.877 52.6097 32.834 52.5785 32.7675 52.5081L32.8535 52.4924C32.7284 52.3282 32.529 52.2187 32.4117 51.9724C32.3453 52.0076 32.3726 52.2657 32.1654 52.0741C32.1928 52.0428 32.2397 51.992 32.2983 52.0389C32.2788 52.0233 32.2201 51.992 32.2045 51.9412L32.3257 51.9881C32.2749 51.8747 32.2436 51.9724 32.1889 51.8942C32.2358 51.859 32.1771 51.8121 32.224 51.7965C32.2436 51.8121 32.2553 51.8786 32.2983 51.8942C32.2397 51.8004 32.1849 51.6753 32.1928 51.6166C32.1732 51.644 32.1302 51.6636 32.0755 51.6088C31.9425 51.4524 32.0872 51.5111 32.0325 51.3977C31.9699 51.3821 31.9191 51.253 31.8487 51.3078C31.8096 51.2609 31.837 51.2257 31.8409 51.1944C31.7471 51.1318 31.5086 50.8191 31.5203 50.9676L31.532 50.9911L31.5164 50.9794C31.3717 50.8738 31.2622 50.7291 31.1606 50.5766C31.0433 50.4359 30.9416 50.2717 30.7931 50.1739L30.8126 50.1544C30.6367 50.0332 30.4451 49.8612 30.2887 49.8181C30.2418 49.7791 30.2066 49.6852 30.2496 49.6735C30.1089 49.5953 30.0737 49.6109 29.9173 49.435C30.0776 49.4897 29.8977 49.3646 30.0737 49.5015C29.9212 49.3568 29.9095 49.2903 29.6788 49.2317C29.7844 49.2121 29.6006 49.0675 29.5068 49.0284L29.5967 49.1535C29.4989 49.0988 29.4247 49.0401 29.3425 48.9815L29.4403 48.9267C29.1471 48.5944 28.6857 48.6882 28.5137 48.3559C28.3847 48.3559 28.6857 48.5162 28.5606 48.5318C28.4003 48.4224 28.2947 48.1995 28.2439 48.1682C28.0406 47.9884 27.9585 48.1682 27.7317 48.0001C27.7474 48.047 27.7317 48.1448 27.5323 48.0744C27.3681 47.9688 27.3955 47.832 27.5167 47.8672C27.5597 47.8867 27.5714 47.9063 27.5675 47.918C27.6301 47.9375 27.7083 47.9649 27.6574 47.8945L27.6183 47.9141C27.5519 47.8359 27.3134 47.7108 27.3955 47.6912C27.2508 47.6482 27.3134 47.7108 27.3994 47.7812C27.2039 47.6169 27.0592 47.5935 26.8481 47.4449C26.8755 47.4801 26.8872 47.5348 26.852 47.5153C26.5392 47.3003 26.6761 47.4957 26.4415 47.3941C26.3359 47.2807 26.5471 47.3042 26.2968 47.226C26.1756 47.1243 26.3086 47.1282 26.3789 47.1321C26.1404 47.0852 26.0114 46.8936 25.898 46.8233L26.0192 46.8545C25.945 46.835 25.8941 46.8076 25.8394 46.7803L25.8707 46.8741C25.812 46.8311 25.7573 46.8037 25.7729 46.7763C25.6869 46.7842 25.7729 46.9054 25.6126 46.8936C25.4992 46.7959 25.2412 46.749 25.1865 46.62C25.3976 46.7412 25.3859 46.7138 25.3702 46.6708C25.3546 46.6317 25.3194 46.573 25.5266 46.6708C25.4445 46.6434 25.3546 46.5965 25.2373 46.5222C25.2177 46.5027 25.2529 46.5066 25.2842 46.5222C24.7877 46.1781 25.0848 46.5378 24.6586 46.3189C24.6665 46.2915 24.6195 46.2446 24.5609 46.1938C24.5022 46.1469 24.4201 46.0921 24.4123 46.1C24.4788 46.1234 24.5453 46.1899 24.5374 46.2133C24.5413 46.2329 24.5257 46.2368 24.5218 46.2563C24.5218 46.2798 24.5179 46.2994 24.5022 46.3189C24.4944 46.3189 24.4866 46.3111 24.4827 46.3111C24.4905 46.5965 24.5844 46.749 24.5922 46.8975C24.5922 46.8389 24.5922 46.7803 24.5922 46.7216C24.6665 46.8624 24.6665 46.9953 24.6938 47.2025C24.6547 47.2025 24.6508 46.9992 24.6391 47.0618C24.7016 47.2142 24.6625 47.3081 24.6195 47.4215C24.5883 47.4997 24.5257 47.5739 24.5335 47.6717C24.4788 47.7421 24.4397 47.6521 24.3967 47.7108C24.3771 47.9141 24.2637 47.8789 24.2012 48.0666C24.2911 48.0548 24.2833 48.0314 24.2637 48.1995C24.3068 48.0861 24.3693 47.9923 24.3889 47.875C24.3967 47.9571 24.3889 48.0392 24.3732 48.1213C24.4397 48.0314 24.4397 47.8985 24.4749 47.8437C24.4866 47.9649 24.4749 47.9532 24.5453 47.9258C24.4006 48.0236 24.4514 48.2269 24.295 48.3363L24.1621 48.2269C24.0448 48.2894 24.0018 48.3911 23.9275 48.4888C23.8454 48.5748 23.7711 48.7 23.6069 48.7625C23.6421 48.7508 23.6851 48.7508 23.7164 48.7312C23.7164 48.8172 23.5326 48.8407 23.4505 48.9189C23.4349 48.8642 23.3645 48.8759 23.3059 48.8642C23.3332 48.9111 23.0713 48.9502 23.083 49.0675L22.911 49.0479C22.6412 49.1144 22.6373 49.2825 22.3558 49.3294C22.4262 49.2512 22.2971 49.2356 22.4692 49.1535C22.3792 49.173 22.2971 49.1769 22.301 49.216C22.2463 49.1965 22.0586 49.3412 21.9648 49.2864C21.9296 49.3138 21.9218 49.3763 21.8162 49.3803C21.8045 49.3685 21.8162 49.3529 21.8162 49.3529C21.8162 49.3803 21.652 49.4076 21.7537 49.4624C21.4526 49.3255 20.9326 49.5015 20.6785 49.3451C20.4713 49.3724 20.221 49.3607 20.0295 49.3451C20.0412 49.3294 20.0295 49.3177 20.0686 49.3255C19.8144 49.2473 19.8926 49.478 19.6033 49.392C19.4625 49.2864 19.7675 49.3568 19.6737 49.3138C19.6541 49.1222 19.314 49.3138 19.1302 49.1613H19.181C19.0403 49.0714 18.8057 49.1691 18.5594 49.1183C18.5594 49.1183 18.575 49.1027 18.5672 49.0909C18.3834 49.1613 18.055 49.1457 17.8165 49.1066C17.9065 49.0518 17.9299 49.0948 17.9025 49.0088C17.797 48.9932 17.9065 49.1339 17.6914 49.1027C17.6328 49.0479 17.492 48.9736 17.492 48.8915L17.6875 48.9345C17.6132 48.8094 17.4334 48.8759 17.3356 48.8329L17.3591 48.7938C17.0541 48.7391 17.0228 48.8407 16.7101 48.7234L16.7296 48.7664C16.5185 48.8133 16.6084 48.6569 16.409 48.6726L16.4012 48.5475C16.2761 48.5475 15.9789 48.4888 15.7717 48.4106C15.9242 48.3833 16.1549 48.4693 16.3191 48.4693C16.2057 48.4341 15.9633 48.309 15.8812 48.3363C15.9281 48.3481 15.9946 48.3481 16.0259 48.3833C15.8616 48.3989 15.6622 48.3598 15.4589 48.2464C15.5332 48.1604 15.4198 48.0627 15.2791 47.9571C15.2087 47.9063 15.1344 47.8476 15.0758 47.7929C15.021 47.7342 14.9898 47.6639 14.9898 47.6052C14.9077 47.5544 14.8334 47.4918 14.763 47.4254C14.6887 47.3589 14.6535 47.269 14.6027 47.1869C14.4893 47.0266 14.4502 46.8311 14.3642 46.6395C14.2391 46.8389 14.329 46.5222 14.1648 46.5926C14.1296 46.4909 14.1218 46.4479 14.1335 46.4401C14.1335 46.3306 14.1843 46.2172 14.2078 46.1156C14.2547 46.0413 14.2547 46.2094 14.2938 46.1977C14.2977 45.9827 14.3564 46.1078 14.4111 45.9709C14.3447 45.9983 14.329 45.8927 14.3603 45.7754L14.2625 45.9397C14.2313 45.7833 14.2704 45.7168 14.3251 45.6581C14.3525 45.6308 14.3759 45.5995 14.3916 45.5604C14.3955 45.5487 14.3994 45.5409 14.4033 45.5252C14.4111 45.5018 14.4033 45.5252 14.4189 45.4587C14.4424 45.3923 14.4659 45.3258 14.4854 45.2437L14.458 45.4548C14.4932 45.3415 14.5636 45.1694 14.6379 44.9778C14.7395 44.7745 14.8607 44.54 14.9428 44.364C14.8842 44.3679 14.8529 44.3679 14.806 44.3757C14.7513 44.3836 14.6965 44.3953 14.6457 44.4031C14.544 44.4227 14.4541 44.4461 14.3759 44.4774C14.3486 44.4578 14.3173 44.4109 14.4737 44.3914C14.286 44.3914 14.071 44.4109 13.8637 44.4344C13.6604 44.45 13.4298 44.4969 13.3437 44.5282C13.1053 44.5908 12.8863 44.6455 12.7065 44.6572L12.7299 44.6064C12.6478 44.6416 12.6048 44.7237 12.4914 44.7081C12.4914 44.6885 12.5149 44.6572 12.4758 44.6651C12.4328 44.6885 12.2764 44.7941 12.163 44.8136L12.2373 44.7354C12.0183 44.7824 11.8619 44.8723 11.7251 44.9622C11.5922 45.0639 11.4788 45.1772 11.3185 45.2672C11.2911 45.2085 11.1934 45.2046 11.08 45.2281C10.9705 45.2554 10.8493 45.3063 10.7672 45.3415V45.3219C10.5287 45.4392 10.3567 45.58 10.2003 45.7324C10.04 45.8771 9.89533 46.0296 9.72721 46.1977C9.40269 46.2563 8.91397 46.7646 8.52299 47.0227C8.59337 46.9914 8.58164 47.1048 8.53082 47.1712C8.43307 47.226 8.37051 47.441 8.30014 47.3433L8.33142 47.3198C8.19066 47.2885 8.05382 47.4723 7.9248 47.5896L8.01081 47.7186C7.52209 47.875 7.23277 48.6257 6.91608 48.6648C6.86916 48.7703 6.77533 48.8681 6.72841 48.9736L6.66976 48.9111C6.4469 49.1183 6.33743 49.2239 6.09893 49.5132L6.10675 49.4154C5.95818 49.5679 6.10675 49.7751 5.97773 49.9198L5.84871 49.8807C5.60239 50.1544 5.27397 50.3577 5.11367 50.7018C5.10585 50.6861 5.0863 50.6548 5.12149 50.604C5.0042 50.7291 4.61322 51.0458 4.78134 51.1123C4.69533 51.0341 4.5233 51.3977 4.43337 51.5893L4.39036 51.5111C4.36299 51.7105 4.38254 51.7339 4.25352 51.9372C4.21051 51.9763 4.17142 51.9372 4.23397 51.8903C4.0854 52.0154 4.19487 52.0467 4.03457 52.2109V52.1093C3.9251 52.2657 3.95638 52.2696 3.94856 52.3947C3.90946 52.512 3.72961 52.6879 3.65142 52.6723C3.67487 52.7192 3.66705 52.8404 3.58495 52.9225C3.55367 52.9225 3.56149 52.8756 3.5654 52.856C3.34645 53.1024 3.40901 53.3213 3.22916 53.4699C3.20179 53.4621 3.18615 53.4699 3.1666 53.4777C3.29172 53.2548 3.39728 53.075 3.39337 53.0984C3.3269 53.0594 3.21352 53.2353 3.2057 53.0359C3.17051 53.2118 3.13924 53.5207 3.01021 53.681C2.99848 53.6849 2.98675 53.6927 2.97502 53.6927V53.6693C2.94766 53.7084 2.93593 53.7475 2.9242 53.7866C2.88119 53.8374 2.85773 53.8726 2.83036 53.9273C2.7639 53.9195 2.69743 54.1267 2.65051 54.2206C2.72871 54.2479 2.65833 54.3652 2.77563 54.2792C2.7639 54.2909 2.77563 54.2557 2.80299 54.1932C2.8069 54.1775 2.81472 54.1619 2.81472 54.1502V54.158C2.846 54.0954 2.88119 54.0172 2.9242 53.9234C2.9242 54.0172 2.9242 54.1072 2.83036 54.1893C2.85382 54.2597 2.87728 54.3378 2.88901 54.3769C2.7248 54.4512 2.55277 54.6741 2.47066 54.678C2.38074 54.983 2.21262 55.3779 2.27909 55.6124C2.26345 55.7024 2.19698 55.6906 2.16179 55.7141C2.1657 55.6594 2.19307 55.6046 2.18134 55.5694C2.14615 55.7454 2.00931 56.0699 2.09533 56.1442C1.97412 56.3397 2.0445 55.9917 1.95848 56.2888L1.94284 56.238C1.56751 56.7541 1.88811 57.2545 1.47758 57.8293C1.50495 57.7902 1.51668 57.7667 1.53623 57.7628C1.23127 58.4744 1.20781 59.3033 0.902844 60.0031C0.828559 60.2064 0.891115 60.2416 0.914574 60.3824L0.816829 60.4097L0.875476 60.6482C0.891115 60.9727 0.554874 61.1448 0.62916 61.567L0.695626 61.5279C0.660438 61.6687 0.652619 61.9815 0.590062 61.9502C0.597882 61.9658 0.644799 62.0049 0.605701 62.0557H0.558784L0.586153 62.4154C0.515777 62.6813 0.410213 62.3451 0.347656 62.7439C0.347656 62.8963 0.429762 63.1857 0.468859 63.1309C0.476679 63.0684 0.515777 62.9824 0.562694 62.9824L0.570513 63.1192C0.703446 63.1583 0.828559 63.2717 0.961491 62.9628L0.906754 62.7243L0.98104 62.6618L0.957581 62.8533C1.03578 62.7517 0.988859 62.6774 0.961491 62.5953C1.00059 62.5836 1.02796 62.5523 1.04751 62.5093L0.949762 62.2669C1.00841 62.2473 1.03969 62.3803 1.09051 62.2356C1.04751 62.1222 0.957581 62.3177 0.941942 62.1378C1.02014 62.0401 1.06315 62.0792 1.03187 61.9424C1.07096 61.9306 1.0866 61.9619 1.09442 62.0127C1.06705 61.8915 1.1257 61.7117 1.06315 61.6413C1.15698 61.5397 1.11006 61.2542 1.23518 61.2894C1.21172 61.2503 1.17262 61.0744 1.18826 60.9688C1.30555 61.1878 1.27036 60.5818 1.42675 60.6639C1.31337 60.4957 1.47367 60.1478 1.45021 59.8858C1.45803 59.9015 1.47367 59.9327 1.46194 59.9523C1.50495 59.8154 1.55187 59.7842 1.59878 59.7021C1.49322 59.6591 1.51668 59.4362 1.47758 59.3033C1.62615 59.1586 1.58315 59.4362 1.70044 59.4088C1.6066 59.3971 1.68089 59.0921 1.59096 59.1312C1.68871 59.0179 1.64961 59.0296 1.75908 58.9866C1.62615 58.9279 1.75908 58.8615 1.70826 58.7324C1.82946 58.5643 1.85292 58.7207 1.86465 58.5057C1.93502 58.4197 1.93502 58.6151 1.93502 58.6151H1.93893ZM3.48721 53.8609C3.46766 53.9 3.45202 53.9312 3.44029 53.9547C3.44811 53.9351 3.46375 53.9078 3.48721 53.8609ZM3.69051 53.4933C3.66314 53.5363 3.63187 53.5911 3.59668 53.6497C3.5654 53.6497 3.54585 53.6224 3.56931 53.5833C3.57322 53.6145 3.63578 53.5324 3.69051 53.4894V53.4933ZM2.75999 54.0212C2.77954 53.9547 2.80299 53.9391 2.82254 53.9391C2.81081 53.9703 2.79909 54.0055 2.77954 54.0524V54.0642C2.77954 54.0642 2.7639 54.0368 2.75999 54.0212Z" fill="#1B1B1B"/>
<path d="M7.50739 49.0991L7.49145 49.0872L7.47949 49.127L7.50739 49.0991Z" fill="#1B1B1B"/>
<path d="M25.1514 47.3472C25.1514 47.3472 25.1514 47.3551 25.1514 47.3591C25.1673 47.395 25.1593 47.3751 25.1514 47.3472Z" fill="#1B1B1B"/>
<path d="M27.7438 48.3872C27.7008 48.3794 27.6617 48.3755 27.6226 48.3638C27.6773 48.4029 27.7203 48.4263 27.7438 48.3872Z" fill="#1B1B1B"/>
<path d="M27.4736 48.2778C27.5245 48.3247 27.5714 48.3482 27.6222 48.3638C27.5792 48.3326 27.5284 48.2935 27.4736 48.2778Z" fill="#1B1B1B"/>
<path d="M30.2183 49.6032L30.2769 49.5524C30.1792 49.4937 30.2574 49.5758 30.2183 49.6032Z" fill="#1B1B1B"/>
<path d="M29.0688 49.2747L29.1314 49.3724L29.2135 49.3411L29.0688 49.2747Z" fill="#1B1B1B"/>
<path d="M28.7877 48.4693L28.8346 48.4849L28.6626 48.4106L28.7877 48.4693Z" fill="#1B1B1B"/>
<path d="M20.9092 49.2513L20.9405 49.3452C21.0147 49.3295 21.0265 49.224 20.9092 49.2513Z" fill="#1B1B1B"/>
<path d="M16.7687 48.6767C16.7414 48.618 16.6397 48.5516 16.5576 48.5711C16.6436 48.6063 16.7179 48.6728 16.7687 48.6767Z" fill="#1B1B1B"/>
<path d="M7.76861 47.7696L7.81162 47.6875L7.70996 47.8204L7.76861 47.7696Z" fill="#1B1B1B"/>
<path d="M26.6057 32.6505C26.7113 33.4246 27.3095 34.3786 27.6965 34.8712C28.7639 36.2279 31.7666 39.9266 36.7555 36.3648C39.4923 34.4099 37.9284 32.064 34.8006 33.2369C32.4156 34.1323 31.6962 32.3572 29.9368 31.0162C28.1852 29.683 26.3359 30.6369 26.6096 32.6505H26.6057Z" fill="white"/>
<path d="M28.2989 30.7855C28.7485 30.7855 29.2333 30.9732 29.6947 31.3212C30.1208 31.6457 30.4845 31.9975 30.8363 32.3377C31.6457 33.1236 32.412 33.8625 33.6084 33.8625C34.0189 33.8625 34.4529 33.7765 34.9338 33.5966C35.446 33.4051 35.9269 33.3073 36.3608 33.3073C37.0763 33.3073 37.5885 33.5732 37.7332 34.0189C37.8778 34.4763 37.6393 35.2466 36.5251 36.0402C35.1957 36.9903 33.9094 37.4712 32.7091 37.4712C30.246 37.4712 28.6742 35.4733 28.0017 34.621C27.5756 34.0775 27.0751 33.2096 26.993 32.5918C26.9148 32.0249 27.0321 31.5323 27.3175 31.2039C27.556 30.9302 27.904 30.7816 28.2989 30.7816M28.2989 30.3906C27.2159 30.3906 26.4144 31.2703 26.602 32.6427C26.7076 33.4168 27.3058 34.3708 27.6929 34.8634C28.4318 35.8018 30.0974 37.8622 32.7052 37.8622C33.8664 37.8622 35.2153 37.4556 36.7479 36.3569C38.9765 34.7657 38.3548 32.9163 36.3569 32.9163C35.8995 32.9163 35.3756 33.0141 34.793 33.2291C34.3434 33.3972 33.9524 33.4715 33.6045 33.4715C32.0992 33.4715 31.3563 32.0953 29.9293 31.0084C29.3702 30.5822 28.8033 30.3906 28.295 30.3906H28.2989Z" fill="black"/>
<path d="M30.1376 31.3643L27.8555 34.8611L28.1829 35.0748L30.465 31.578L30.1376 31.3643Z" fill="black"/>
<path d="M32.0811 32.9548L30.126 36.8643L30.4757 37.0391L32.4308 33.1297L32.0811 32.9548Z" fill="black"/>
<path d="M34.8084 33.3589L33.2446 37.6577L33.6121 37.7914L35.1758 33.4925L34.8084 33.3589Z" fill="black"/>
<path d="M30.6918 23.0677C30.6293 23.0677 30.5667 23.0364 30.5276 22.9817C30.5159 22.9621 29.296 21.1636 27.9667 21.0932C27.4389 21.062 26.9697 21.3122 26.5396 21.8283C26.4693 21.9104 26.3481 21.9221 26.266 21.8517C26.1839 21.7814 26.1721 21.6602 26.2425 21.578C26.7547 20.9642 27.3529 20.6671 27.9902 20.7023C29.5189 20.7844 30.8013 22.6845 30.856 22.7666C30.9147 22.8565 30.8912 22.9777 30.8013 23.0364C30.77 23.0599 30.7309 23.0677 30.6918 23.0677Z" fill="black"/>
<path d="M37.3381 23.0675C37.3029 23.0675 37.2717 23.0596 37.2404 23.0401C37.1465 22.9854 37.1153 22.8642 37.17 22.7742C37.1856 22.7508 38.5658 20.487 41.7327 22.2073C41.8265 22.2581 41.8617 22.3793 41.8109 22.4732C41.7601 22.567 41.6389 22.6022 41.545 22.5514C38.7183 21.0148 37.5532 22.8915 37.5062 22.9736C37.4711 23.0362 37.4046 23.0675 37.3381 23.0675Z" fill="black"/>
<path d="M39.4886 16.8119C40.118 18.0709 38.7066 19.9397 38.7066 19.9397C38.7066 19.9397 43.0074 20.3307 43.0074 17.5939C43.0074 15.8462 41.0525 13.6841 41.0525 13.6841C43.0074 14.4661 45.3532 19.6035 45.3532 19.6035C45.3532 19.6035 44.5713 14.4661 41.0525 10.9473C41.0525 10.9473 37.5337 6.25553 31.278 5.0826C29.0417 4.49222 27.4582 4.45703 27.4582 4.45703C24.3617 4.64079 21.8985 5.325 19.9358 6.25944C17.8519 7.06876 10.7556 10.6931 7.52226 23.4585C3.71023 38.5112 7.22903 37.7292 3.71023 40.4661C0.191435 43.2029 -2.54541 50.6315 4.88316 51.8044C4.88316 51.8044 8.59745 44.5713 16.2215 45.1578C16.2215 45.1578 17.3319 40.2588 18.1451 39.5824C18.6808 39.1367 15.3262 36.7205 13.2931 31.8724C14.7553 29.1785 17.3944 29.1316 18.5674 24.4399C19.3767 21.2065 21.9767 14.3058 25.0185 14.079C26.6411 13.9578 21.1087 19.5527 21.1087 19.5527C21.1087 19.5527 25.8787 21.4763 29.3193 18.3797C30.3436 17.457 31.2741 16.0339 31.0787 13.4925L31.5283 14.6889C31.9818 15.8931 31.7902 17.2459 31.0239 18.2781L30.0347 19.6113C30.0347 19.6113 33.0492 20.667 36.3608 19.1656C40.6615 17.2107 34.4059 12.128 34.4059 12.128C34.4059 12.128 38.3156 14.4739 39.4886 16.8197V16.8119Z" fill="black"/>
<path d="M39.6021 40.5715C32.8421 46.5261 24.917 44.0121 24.917 44.0121L23.8496 46.9171C30.8872 49.263 33.0376 53.3839 33.0376 53.3839C42.2255 55.1589 37.9248 48.872 37.7293 47.9845C37.5338 47.0969 36.7519 46.1391 37.7293 44.5478C38.7068 42.9565 39.6021 40.5715 39.6021 40.5715Z" fill="black"/>
</g>
</g>
<defs>
<clipPath id="clip0_4505_6601">
<rect width="52" height="52" fill="white"/>
</clipPath>
</defs>
</svg>
