<svg width="24" height="24" viewBox="0 0 24 24" fill="none" xmlns="http://www.w3.org/2000/svg">
<path fill-rule="evenodd" clip-rule="evenodd" d="M7.5 11.6475C7.99246 11.6475 8.48009 11.5505 8.93506 11.362C9.39003 11.1736 9.80343 10.8973 10.1517 10.5491C10.4999 10.2009 10.7761 9.78749 10.9645 9.33252C11.153 8.87755 11.25 8.38992 11.25 7.89746C11.25 7.405 11.153 6.91737 10.9645 6.4624C10.7761 6.00743 10.4999 5.59403 10.1517 5.24581C9.80343 4.89759 9.39003 4.62137 8.93506 4.43291C8.48009 4.24446 7.99246 4.14746 7.5 4.14746C6.50544 4.14746 5.55161 4.54255 4.84835 5.24581C4.14509 5.94907 3.75 6.9029 3.75 7.89746C3.75 8.89202 4.14509 9.84585 4.84835 10.5491C5.55161 11.2524 6.50544 11.6475 7.5 11.6475ZM8 17.8285C8 16.5645 8.771 14.6935 10.48 13.2765C9.637 12.9795 8.652 12.7935 7.5 12.7935C2.46 12.7935 0.5 16.2315 0.5 17.8285C0.5 19.4285 4.673 19.8525 7.5 19.8525C7.971 19.8525 8.48 19.8395 9.001 19.8125C8.34 19.2855 8 18.6255 8 17.8285Z" fill="#E0E0E0"/>
<path fill-rule="evenodd" clip-rule="evenodd" d="M16.5 12.7945C11.46 12.7945 9.5 16.2315 9.5 17.8295C9.5 19.4275 13.673 19.8535 16.5 19.8535C19.327 19.8535 23.5 19.4275 23.5 17.8295C23.5 16.2315 21.54 12.7945 16.5 12.7945ZM16.5 11.6475C16.9925 11.6475 17.4801 11.5505 17.9351 11.362C18.39 11.1736 18.8034 10.8973 19.1517 10.5491C19.4999 10.2009 19.7761 9.78749 19.9645 9.33252C20.153 8.87755 20.25 8.38992 20.25 7.89746C20.25 7.405 20.153 6.91737 19.9645 6.4624C19.7761 6.00743 19.4999 5.59403 19.1517 5.24581C18.8034 4.89759 18.39 4.62137 17.9351 4.43291C17.4801 4.24446 16.9925 4.14746 16.5 4.14746C15.5054 4.14746 14.5516 4.54255 13.8483 5.24581C13.1451 5.94907 12.75 6.9029 12.75 7.89746C12.75 8.89202 13.1451 9.84585 13.8483 10.5491C14.5516 11.2524 15.5054 11.6475 16.5 11.6475Z" fill="#9E9E9E"/>
</svg>
