<svg width="10" height="9" viewBox="0 0 10 9" fill="none" xmlns="http://www.w3.org/2000/svg">
<path fill-rule="evenodd" clip-rule="evenodd" d="M2.85029 0.317334C2.96491 0.120831 3.17529 0 3.40278 0H6.0636C6.29109 0 6.50146 0.120831 6.61609 0.317334L7.14735 1.22807H7.80336C8.72182 1.22807 9.46637 1.97263 9.46637 2.89108V7.08699C9.46637 8.00545 8.72182 8.75 7.80336 8.75H1.66301C0.744556 8.75 0 8.00544 0 7.08699V2.89108C0 1.97262 0.744556 1.22807 1.66301 1.22807H2.31902L2.85029 0.317334ZM3.51791 4.90375C3.51791 4.13837 4.13837 3.51791 4.90375 3.51791C5.66913 3.51791 6.2896 4.13837 6.2896 4.90375C6.2896 5.66913 5.66913 6.2896 4.90375 6.2896C4.13837 6.2896 3.51791 5.66913 3.51791 4.90375ZM4.90375 2.87829C3.78512 2.87829 2.87829 3.78512 2.87829 4.90375C2.87829 6.02238 3.78512 6.92921 4.90375 6.92921C6.02238 6.92921 6.92921 6.02238 6.92921 4.90375C6.92921 3.78512 6.02238 2.87829 4.90375 2.87829Z" fill="white"/>
</svg>
