<svg width="34" height="34" viewBox="0 0 34 34" fill="none" xmlns="http://www.w3.org/2000/svg">
<g id="Icons/person_outline_24px">
<path id="icon" fill-rule="evenodd" clip-rule="evenodd" d="M16.9997 5.66699C13.8688 5.66699 11.333 8.20283 11.333 11.3337C11.333 14.4645 13.8688 17.0003 16.9997 17.0003C20.1305 17.0003 22.6663 14.4645 22.6663 11.3337C22.6663 8.20283 20.1305 5.66699 16.9997 5.66699ZM19.8327 11.3333C19.8327 9.775 18.5577 8.5 16.9993 8.5C15.441 8.5 14.166 9.775 14.166 11.3333C14.166 12.8917 15.441 14.1667 16.9993 14.1667C18.5577 14.1667 19.8327 12.8917 19.8327 11.3333ZM25.5 24.0833C25.2167 23.0775 20.825 21.25 17 21.25C13.175 21.25 8.78333 23.0775 8.5 24.0975V25.5H25.5V24.0833ZM5.66602 24.0837C5.66602 20.3153 13.2168 18.417 16.9993 18.417C20.7818 18.417 28.3327 20.3153 28.3327 24.0837V28.3337H5.66602V24.0837Z" fill="white"/>
</g>
</svg>
