<svg width="16" height="16" viewBox="0 0 16 16" fill="none" xmlns="http://www.w3.org/2000/svg">
<g id="icon-exclamation-circle-mono" clip-path="url(#clip0_5664_6640)">
<path id="Vector" fill-rule="evenodd" clip-rule="evenodd" d="M8.00008 11.4123C7.78791 11.4123 7.58442 11.328 7.4344 11.178C7.28437 11.028 7.20008 10.8245 7.20008 10.6123C7.20008 10.4002 7.28437 10.1967 7.4344 10.0466C7.58442 9.89661 7.78791 9.81233 8.00008 9.81233C8.21225 9.81233 8.41574 9.89661 8.56577 10.0466C8.7158 10.1967 8.80008 10.4002 8.80008 10.6123C8.80008 10.8245 8.7158 11.028 8.56577 11.178C8.41574 11.328 8.21225 11.4123 8.00008 11.4123ZM7.33341 4.85566C7.33341 4.67885 7.40365 4.50928 7.52868 4.38425C7.6537 4.25923 7.82327 4.18899 8.00008 4.18899C8.17689 4.18899 8.34646 4.25923 8.47149 4.38425C8.59651 4.50928 8.66675 4.67885 8.66675 4.85566V8.18899C8.66675 8.3658 8.59651 8.53537 8.47149 8.6604C8.34646 8.78542 8.17689 8.85566 8.00008 8.85566C7.82327 8.85566 7.6537 8.78542 7.52868 8.6604C7.40365 8.53537 7.33341 8.3658 7.33341 8.18899V4.85566ZM8.00008 0.666992C3.95008 0.666992 0.666748 3.95033 0.666748 8.00033C0.666748 12.051 3.95008 15.3337 8.00008 15.3337C12.0501 15.3337 15.3334 12.051 15.3334 8.00033C15.3334 3.95033 12.0501 0.666992 8.00008 0.666992Z" fill="#E0E0E0"/>
</g>
<defs>
<clipPath id="clip0_5664_6640">
<rect width="16" height="16" fill="white"/>
</clipPath>
</defs>
</svg>
