<svg width="74" height="70" viewBox="0 0 74 70" fill="none" xmlns="http://www.w3.org/2000/svg">
<g id="correct O">
<g id="correct O_2">
<path d="M61.4064 63.0507C61.4412 63.2239 61.7195 63.3547 61.8625 63.07L61.5881 62.5851L61.4064 63.0507Z" fill="#FF2768"/>
<path d="M63.4242 61.9002C63.4435 61.4538 63.3082 60.8536 62.7902 60.792C62.9951 61.3731 62.7709 61.323 63.0222 61.981C62.8869 62.2735 62.5699 62.335 62.4462 62.1811C62.4887 62.3504 62.0635 62.5043 62.222 62.8314C62.7902 62.7429 63.1111 62.3158 63.1574 61.6847C63.3198 61.6539 63.3623 61.8232 63.4242 61.8964V61.9002Z" fill="#FF2768"/>
<path d="M73.3699 32.614L73.3158 32.8218C73.3467 32.764 73.3661 32.6948 73.3699 32.614Z" fill="#FF2768"/>
<path d="M67.0113 14.1287C67.1118 14.2442 67.193 14.2634 67.2355 14.2403C67.1234 14.148 67.0267 14.0749 67.0113 14.1287Z" fill="#FF2768"/>
<path d="M65.1713 11.1659C65.2139 11.2313 65.2525 11.2775 65.2912 11.3352C65.2718 11.2467 65.2332 11.1736 65.1713 11.1659Z" fill="#FF2768"/>
<path d="M73.3699 32.614C73.4202 32.437 73.4666 32.2561 73.5052 32.0791C73.3351 32.0522 73.4047 32.3562 73.3699 32.614Z" fill="#FF2768"/>
<path d="M64.6534 57.6598C64.6224 57.7637 64.6186 57.8638 64.6302 57.9638C64.6534 57.8792 64.6843 57.7984 64.7152 57.7137C64.692 57.6945 64.6727 57.6791 64.6534 57.6598Z" fill="#FF2768"/>
<path d="M73.1999 41.3179L73.1728 41.4756C73.223 41.5334 73.2849 41.5872 73.3545 41.645L73.1999 41.3179Z" fill="#FF2768"/>
<path d="M71.6962 47.84C71.7619 47.7015 71.3638 47.5245 71.1976 47.4129C71.3444 47.5438 71.3908 47.6784 71.3831 47.8131C71.4604 47.84 71.5609 47.8516 71.6962 47.84Z" fill="#FF2768"/>
<path d="M66.9031 57.2366L66.8683 57.429C66.876 57.3789 66.8992 57.2981 66.9031 57.2366Z" fill="#FF2768"/>
<path d="M73.8415 36.5542C73.9072 36.5465 73.9652 36.5273 74 36.5003C73.9459 36.5003 73.8918 36.5196 73.8415 36.5542Z" fill="#FF2768"/>
<path d="M52.8715 59.2683C52.8831 59.299 52.8986 59.3106 52.914 59.3337C52.9218 59.276 52.914 59.2452 52.8715 59.2683Z" fill="#FF2768"/>
<path d="M60.2506 56.7556L60.1849 56.8402C60.2274 56.9095 60.27 56.9788 60.3202 57.0442L60.2506 56.7556Z" fill="#FF2768"/>
<path d="M60.6913 6.59844C60.6913 6.59844 60.7029 6.61383 60.7106 6.62152C60.8768 6.67924 60.7957 6.62922 60.6913 6.59844Z" fill="#FF2768"/>
<path d="M9.34664 16.5183C10.0386 16.2028 9.1611 17.6573 10.0733 17.0993C9.8762 17.0839 10.0192 15.995 9.34664 16.5183Z" fill="#FF2768"/>
<path d="M64.7848 57.5444C64.8234 57.4674 64.8621 57.3866 64.9085 57.3135C64.8389 57.4097 64.8002 57.4828 64.7848 57.5444Z" fill="#FF2768"/>
<path d="M10.0772 17.0993L10.1661 17.0416C10.1275 17.0647 10.1043 17.0801 10.0733 17.0993H10.0772Z" fill="#FF2768"/>
<path d="M47.2589 0.765045C47.2705 0.84585 47.313 0.91896 47.3594 0.984374C47.3633 0.938199 47.3439 0.880481 47.2589 0.765045Z" fill="#FF2768"/>
<path d="M57.0848 5.31709C57.0191 5.25552 56.9534 5.19011 56.8838 5.13239C56.9573 5.21705 57.023 5.27476 57.0848 5.31709Z" fill="#FF2768"/>
<path d="M41.5921 0.468758C41.4491 0.426431 41.4027 0.364865 41.2017 0.411039C41.2172 0.434127 41.2365 0.449518 41.2597 0.468758C41.337 0.414887 41.4337 0.3918 41.5921 0.468758Z" fill="#FF2768"/>
<path d="M35.7592 0.499541C35.794 0.530324 35.8365 0.553411 35.8752 0.576498C35.9331 0.564955 35.9989 0.549563 36.0568 0.538019L35.7592 0.495693V0.499541Z" fill="#FF2768"/>
<path d="M37.8427 65.7442C37.9818 65.8443 38.0823 65.9559 38.1674 66.0713C38.0205 65.7866 38.7626 65.498 37.8427 65.7442Z" fill="#FF2768"/>
<path d="M64.8698 57.7791C64.7887 57.6983 64.7655 57.6291 64.7848 57.5444C64.7577 57.6021 64.7384 57.6598 64.7152 57.7137C64.7655 57.7599 64.8157 57.7945 64.866 57.7791H64.8698Z" fill="#FF2768"/>
<path d="M41.1012 3.85874L40.2702 3.74715C40.5021 3.80487 40.8036 3.84335 41.1012 3.85874Z" fill="#FF2768"/>
<path d="M5.34977 52.546L5.46573 52.6999C5.45027 52.6268 5.41548 52.5729 5.34977 52.546Z" fill="#FF2768"/>
<path d="M37.7886 3.78179C37.6339 3.63172 37.4716 3.53552 37.3054 3.49704C37.2706 3.53552 37.2358 3.5663 37.2126 3.61633C37.4059 3.65865 37.5953 3.71637 37.7886 3.78179Z" fill="#FF2768"/>
<path d="M38.1712 66.0752V66.0713C38.1712 66.0713 38.1712 66.0713 38.1712 66.0752Z" fill="#FF2768"/>
<path d="M43.2582 63.4894C42.4967 63.7664 43.0919 64.1474 43.0417 64.5168C42.1681 64.9977 42.4735 64.2667 42.0676 64.0974C41.5458 64.4206 41.2559 65.0593 40.8113 65.1786C40.7533 65.0978 40.6567 65.0939 40.7224 64.9477C40.4828 65.2748 40.0189 65.3902 39.5473 65.5249C39.0757 65.6634 38.5964 65.8174 38.2911 66.1867C38.2253 66.1521 38.1867 66.1098 38.1635 66.0713C38.3452 66.3214 38.4263 66.5985 38.4457 66.8063C38.0862 66.9178 37.8349 67.2872 37.6223 66.9563C37.8504 66.9255 37.8388 66.7755 37.92 66.6446L37.5682 66.8717C37.1198 66.4099 38.0553 66.5985 37.9741 66.2137C37.2745 66.5138 36.4743 67.1025 35.8752 67.0564C35.6819 66.56 37.1778 66.6485 36.3467 66.3214L37.2551 66.3638C36.4395 65.6711 37.7924 66.3291 37.0193 65.5672C36.4434 65.5903 36.1419 65.7135 35.8365 65.8327C35.5311 65.9674 35.2219 66.0559 34.6498 66.0328C34.4256 66.3445 34.7812 66.4522 34.5532 66.7639C33.753 67.1025 33.3974 66.8063 33.1152 66.5254C32.8292 66.2406 32.605 65.952 32.0136 66.3214C31.7121 66.6716 31.5923 67.3642 30.7109 66.9948L31.0086 66.4061C29.8876 66.3253 30.3476 67.2642 29.1648 66.8178C29.3851 66.6062 30.0615 66.6523 29.8953 66.5792C29.1454 66.0983 29.3426 66.8909 28.7434 66.864L28.6507 66.333C28.3491 66.333 28.0399 66.3638 27.7229 66.383C27.406 66.3984 27.0851 66.4253 26.7527 66.4523C26.0917 66.5177 25.4153 66.5215 24.7427 66.4753C24.8432 66.333 25.0906 66.2021 24.8084 66.0021C23.1115 65.9905 21.3024 65.2517 19.9032 64.4629C19.6635 64.5514 19.4238 64.6284 19.1842 64.7015C19.0528 64.6476 19.0025 64.4206 19.1765 64.3898C18.6508 64.0204 19.0528 64.6476 18.7087 64.7169C18.3608 64.6245 18.357 64.3167 18.616 64.2628C18.0284 64.2744 17.236 64.1474 16.459 63.928C16.0764 63.8126 15.713 63.6433 15.3845 63.4624C15.0559 63.2816 14.7776 63.07 14.592 62.816L14.851 62.8083C14.507 62.5082 14.1784 62.5851 13.8576 62.6352C13.5406 62.689 13.2314 62.7198 12.9995 62.3004L13.1773 62.3235C12.7985 62.0079 12.3733 61.7347 11.9674 61.4423C11.5731 61.1383 11.1634 60.8497 10.7846 60.5458C10.4251 60.2225 10.0849 59.8993 9.79503 59.5645C9.51672 59.2221 9.31571 58.845 9.18042 58.4717C9.01421 58.5333 8.85959 58.4679 8.70884 58.3409C8.56195 58.2101 8.44212 58.01 8.3107 57.8215C8.05171 57.4444 7.78113 57.1096 7.37526 57.3366C7.23224 56.7479 7.2477 56.5016 7.21291 56.2207C7.18199 55.9398 7.08535 55.6397 6.8457 54.9086C6.68721 54.5431 6.02622 54.6854 5.71699 54.266L6.13445 54.0351L5.38842 53.6388L5.74791 53.0732C5.64354 52.95 5.53145 52.8269 5.44641 52.6961C5.4812 52.8846 5.41162 53.1463 5.27246 53.1771C5.00961 52.8846 4.9439 52.4113 4.93617 52.0265C4.93617 51.6379 5.02507 51.3262 5.14104 51.2801L4.26358 49.7178C4.45299 49.7101 4.60761 49.9756 4.78928 50.1603C4.06258 49.3907 5.21061 49.8833 4.59601 49.1637C4.51484 49.2984 4.3061 49.1637 4.20947 49.1637C4.3061 48.9213 4.3061 48.5673 4.24812 48.1864C4.18627 47.8054 4.12829 47.386 4.01619 47.0358L4.36022 47.132C4.34089 46.8088 4.29837 46.4817 4.24425 46.1508C4.2172 45.8122 4.17854 45.4659 4.13602 45.1157C4.10123 44.7656 4.03165 44.4116 4.02392 44.046C4.01233 43.6805 4.0046 43.3149 4.01233 42.9455C3.84998 43.4688 3.28176 43.3457 3.23537 42.8955L3.74175 42.7378C3.43638 42.4415 3.54461 43.1918 3.17353 42.5915C3.24311 42.0259 3.75334 42.2452 3.91183 42.5684L3.83065 42.226L3.77267 41.8835C3.92729 41.8527 3.993 42.0182 4.17854 42.0682C3.8925 41.7681 4.78542 40.96 4.27904 40.5137L4.4298 40.4906C4.45299 40.125 4.5071 39.8057 4.53416 39.5171C4.56122 39.2285 4.58055 38.9668 4.59601 38.7129C4.61147 38.4589 4.62693 38.2126 4.64626 37.9548C4.67718 37.697 4.72357 37.4277 4.78155 37.1275C4.36022 37.0159 4.55736 36.5658 4.29064 36.1271C4.37181 35.9116 4.46845 35.6923 4.56895 35.4691C4.68105 35.2498 4.79701 35.0227 4.91298 34.7919C5.14104 34.3301 5.3575 33.8414 5.48506 33.3104C5.49279 32.5062 5.19515 32.9872 5.05213 32.5793C5.45027 32.6409 5.76337 31.5827 5.85228 32.2138C6.21176 30.9401 6.28521 30.5861 6.61377 28.9008C6.39731 29.0124 6.25428 29.1817 6.16924 29.0316C6.21949 28.7199 6.57898 28.439 6.73746 28.5506L6.74519 28.6391C6.79158 27.6348 7.52601 26.746 8.187 25.9033C8.51943 25.4838 8.83253 25.0683 9.06446 24.6604C9.31571 24.2602 9.4742 23.86 9.4626 23.4368V23.5291L9.79889 21.9476C10.1893 21.3435 9.86074 22.471 10.3207 22.1208C10.4251 21.2281 10.8194 20.6855 11.175 20.1738C11.5499 19.6697 11.8862 19.1964 12.1143 18.523C12.9067 18.4114 13.4092 17.6342 13.9233 16.7953C14.4761 15.995 15.0211 15.1023 15.7517 14.8021L15.4888 14.6828C15.5313 14.2365 15.9102 14.4597 16.1382 14.3057C15.9527 14.1903 15.6821 14.4327 15.7246 14.1672C16.1962 13.5477 16.7064 12.9359 17.2901 12.3933C17.8931 11.87 18.5232 11.366 19.1726 10.8927C19.8529 10.4579 20.541 10.0384 21.2174 9.62287C21.9286 9.25732 22.6283 8.88793 23.3009 8.50699C24.3098 8.01061 23.1347 6.96783 24.7272 6.80237L24.6151 7.45651C25.0287 7.01401 25.5351 6.71772 26.0492 6.42913C26.5633 6.14054 27.0967 5.87888 27.6572 5.69418C28.2061 5.4864 28.7589 5.27476 29.3 5.07083C29.8489 4.88228 30.3824 4.6591 30.8965 4.36666C30.796 4.52058 30.8346 4.6668 30.622 4.73221C31.1671 4.91306 32.3344 4.33203 32.2842 4.0242C32.6398 3.97803 32.4233 4.27047 32.6668 4.37436C32.922 4.43593 33.1848 4.23199 33.4399 4.10116C33.6912 3.96264 33.9231 3.8472 34.0777 4.00881C34.128 4.06268 33.9618 4.14733 33.8806 4.18966C34.1589 3.96648 35.3224 4.02035 34.9706 3.63941C35.4036 3.6625 35.8094 3.61248 36.1921 3.53167C36.5748 3.46241 36.942 3.397 37.2899 3.49704C37.719 2.99682 38.7588 3.70868 38.9018 3.0276C38.8709 3.38161 39.2458 3.50089 39.6942 3.53167C40.1426 3.57015 40.6722 3.4855 40.9582 3.33928C40.7611 3.53937 41.4143 3.58554 41.1785 3.86259C41.3332 3.87029 41.4839 3.86644 41.6231 3.85489C41.7622 3.85489 41.8898 3.8395 41.9942 3.81257C42.2068 3.7587 42.3343 3.6548 42.2995 3.47011C42.8214 3.96264 43.405 3.84335 43.9346 3.79718C44.4603 3.75485 44.9358 3.73561 45.1445 4.31664C45.3803 4.31664 45.6122 4.3051 45.8441 4.31664C46.0722 4.33203 46.3003 4.34742 46.5244 4.36282C46.9767 4.39745 47.4212 4.43593 47.8619 4.47825C48.2948 4.54751 48.7239 4.62447 49.1491 4.70528C49.5743 4.78608 49.9956 4.86304 50.4015 4.98617C50.1193 5.58644 48.6157 4.45901 48.461 5.17472C49.2496 5.27476 49.9183 5.24783 50.5561 5.33633C51.1939 5.41714 51.8394 5.51333 52.5197 5.9366C52.8522 6.19441 52.1835 6.1136 52.0134 6.16747C53.5827 6.54841 54.7462 7.52193 56.1417 7.92211C56.1069 7.97598 55.9368 7.95674 55.7899 7.9298C56.0412 8.05294 56.2886 8.34922 56.4277 8.06448L56.1494 7.99522C55.9948 7.36416 57.6067 7.75665 57.7922 7.58734C57.3361 7.84515 57.6221 8.06833 57.8309 8.32613C58.0473 8.5801 58.2097 8.83405 57.5796 9.09571C57.7613 9.14958 58.0357 9.15728 58.1208 8.96104C58.3102 9.16882 58.3102 9.31504 57.9468 9.35737C58.4029 9.569 58.6117 9.55746 58.7972 9.55746C58.9828 9.55746 59.149 9.569 59.5007 9.85374C59.4041 9.97303 59.2263 9.90761 59.0446 9.99227C59.5819 10.0346 60.1347 10.0885 60.6642 10.6656C60.5676 10.708 60.5637 10.8542 60.3821 10.7118C61.4064 11.516 62.6356 11.5891 63.4551 12.8512C62.6743 13.009 63.6484 13.3553 63.2773 13.7978L63.9073 14.2596V13.8402C64.1315 14.098 64.4214 14.275 64.6843 14.4558C64.9549 14.6367 65.1945 14.8291 65.2912 15.1253C65.1249 15.0407 64.9703 14.9483 64.7925 14.8752C65.0902 15.1792 65.3646 15.5024 65.6545 15.818L65.3878 15.11C66.0449 15.4832 65.9174 14.602 66.3542 15.4409C66.1879 15.3293 66.791 15.995 66.6905 16.499C67.0306 16.6799 67.3901 16.8723 67.5563 17.3802C67.4751 17.588 66.9572 17.6303 66.8992 17.765C67.5022 17.7842 67.8192 19.0733 68.4917 19.1926C68.3139 19.1271 68.0434 19.2657 68.0124 19.3349C68.1748 19.3542 68.3333 19.3734 68.4917 19.4003C68.5227 19.7467 68.4917 19.8121 68.2521 19.8775C68.6154 20.7625 68.7701 19.2734 68.9981 20.4354C68.9285 20.37 68.8938 20.4354 68.7585 20.2931C68.8474 20.5701 68.9788 20.8164 69.0986 21.0665C69.2185 21.3166 69.3537 21.5552 69.4852 21.7937C69.6166 22.0323 69.7519 22.267 69.864 22.5094C69.9606 22.7557 70.0418 23.0097 70.0843 23.2752C69.6398 23.76 69.6436 22.4633 69.3035 22.9673C69.6011 23.6484 70.0418 24.3102 70.382 25.0182C70.7569 25.7147 71.0313 26.4458 71.1318 27.1731V26.8922C71.5493 26.9037 71.53 27.1923 71.4372 27.5617C71.3444 27.9311 71.2092 28.3659 71.4681 28.6968C71.3754 28.5275 70.9772 28.5391 71.0777 28.5698C71.1125 29.0701 71.2169 29.5626 71.387 30.1244C71.5725 30.6823 71.7542 31.3095 71.9436 32.0637L71.7194 31.8867C71.6846 32.0368 71.6691 32.2099 71.6614 32.3946C71.646 32.5793 71.6421 32.7756 71.6382 32.9718C71.6344 33.3682 71.6421 33.7683 71.5996 34.0839C71.8083 34.2724 71.7658 34.6418 72.075 34.4186C71.7619 34.915 71.6575 35.3883 71.6228 35.8616C71.5841 36.331 71.6421 36.7966 71.7078 37.2622C71.8044 38.1857 71.9281 39.1169 71.2981 39.9134C71.3251 39.7056 71.186 39.3939 71.1628 39.5594C71.155 40.0596 71.1628 40.5637 71.1241 41.0639C71.4952 41.0062 71.3715 40.9062 71.7039 40.6407C71.8817 40.8638 71.9629 41.314 71.8972 41.6873C71.7851 40.9716 71.3328 41.5949 71.0855 41.8412C71.2014 41.8143 71.3019 41.9335 71.4179 41.9297C70.6487 42.58 72.1021 42.1991 71.4565 43.1764L71.2865 43.0802C71.2903 43.4958 71.4643 43.9191 71.2981 44.3308C70.8497 44.4077 71.2207 43.869 70.8883 43.7613C70.7646 44.3539 71.3522 45.1234 70.8149 45.5583C70.7724 45.2774 70.8574 44.9118 70.8149 44.6309C70.1925 45.0927 70.3085 45.1927 70.1075 45.5967L70.1307 45.5583L69.6359 46.4817L69.8331 46.2701C70.2467 46.7857 70.1809 47.1782 70.0495 47.5784C69.9181 47.9824 69.7519 48.4057 69.9026 49.006C69.605 47.84 69.5934 48.7251 69.1759 48.5019C68.9633 48.7058 68.6927 49.029 68.6077 48.879C68.801 49.46 68.0666 49.5331 68.3294 50.3566C68.1786 50.3296 68.1284 50.8298 67.8153 50.5913C67.6993 51.2146 68.1129 50.549 68.2714 50.6682C68.341 51.2146 67.9699 51.6841 67.6066 52.2035C67.2509 52.7269 66.8567 53.2848 66.8915 54.0698C66.6247 55.2742 66.9842 55.7051 66.6789 56.8287C66.2885 57.0557 66.3387 56.2977 66.3387 56.2977C65.8633 56.7402 65.6738 57.1558 65.5424 57.7445C65.4844 57.579 65.3298 57.6291 65.0979 57.6983C64.9085 58.1177 65.4187 58.237 64.9162 58.6526C64.8234 58.4756 64.6611 58.2255 64.6263 57.9523C64.4678 58.4833 64.4485 59.0951 64.2552 59.6377C63.9537 59.6261 64.0967 59.1413 64.0542 58.8873C63.8262 59.4799 63.3894 60.388 63.6213 60.7766L63.973 60.5188C63.861 60.7228 63.6097 60.4226 63.6368 60.2418C63.6522 59.6107 64.174 59.6607 64.3209 59.7108L64.1895 60.1032C64.6727 60.1648 64.866 59.7993 64.9819 59.3375C65.094 58.8719 65.1443 58.3178 65.3685 57.9792L65.755 58.591C65.7473 58.264 65.7202 57.9292 65.7048 57.6021C65.9367 57.529 66.3116 57.5944 66.1995 57.9946C66.7639 57.6329 66.2537 57.4328 66.8064 57.1558C66.8799 57.1327 66.8953 57.1673 66.8953 57.2289L66.992 56.6286C67.0577 56.7902 67.4404 56.7517 67.193 57.0249C68.0124 56.2708 67.5254 55.3165 68.1323 55.1818V55.278C68.5613 53.8889 67.7689 54.9471 67.7187 53.7465L69.0793 53.5657L68.7082 53.2463C68.7855 53.1193 68.9285 52.8615 69.0832 52.9847C69.002 52.3498 68.859 52.9885 68.7005 52.5768C69.3847 52.092 69.2532 50.6952 70.0109 50.8106C69.7673 50.4451 69.5045 51.3455 69.547 50.549C70.3897 50.6336 69.721 49.6793 70.2892 49.1945C70.6177 49.5177 70.1964 50.0333 70.7685 49.537C70.2428 48.9367 71.329 48.3787 71.3715 47.8016C70.8535 47.613 71.4991 46.5818 71.5686 45.6391C71.731 45.743 72.3147 44.0306 72.678 43.2187L72.7631 43.2649C72.5041 43.1225 72.4461 42.8416 72.4577 42.5107C72.4577 42.1798 72.5234 41.8027 72.5234 41.4718C72.852 41.5565 72.9641 41.695 73.053 42.0721L73.1612 41.4641C73.0066 41.291 72.9525 41.087 72.9486 40.683L73.3467 40.9023C73.4356 40.0789 73.1032 39.2054 73.4743 38.1857C73.0839 38.0972 72.2953 38.8899 72.1407 37.7855C72.3572 37.7663 72.7283 37.7586 72.7862 38.051C72.7669 37.9548 72.6432 37.7009 72.7515 37.52L73.0646 37.9895C73.2694 37.5316 72.794 37.7163 72.8597 37.343C73.1651 37.3738 73.0955 37.0814 73.3313 37.1506C73.3545 37.2507 73.1883 37.4739 73.2888 37.6278C73.3854 37.2045 73.5864 36.6927 73.8299 36.535C73.656 36.5619 73.4202 36.5119 73.4009 36.1925C73.424 35.3768 73.7874 35.9308 73.9575 35.4537C73.7487 35.2459 73.9768 34.7265 73.5207 34.7072C73.5284 34.4687 73.741 34.4263 73.8647 34.334C73.6792 33.9069 73.7603 32.3408 73.2926 32.841L73.2656 32.9487C73.254 32.9295 73.254 32.9064 73.2424 32.8795C73.0105 32.1984 72.995 31.4904 73.0452 30.767C73.0684 30.0474 73.1032 29.3163 72.9061 28.6507L73.0568 28.6276C72.8984 28.2351 72.7901 27.7887 72.6703 27.377C72.5582 26.9653 72.3804 26.5959 72.1639 26.3458C72.1098 26.1111 72.3031 25.7263 72.5041 25.784C72.2528 25.1953 72.048 25.1837 72.0402 24.2371C72.477 24.772 72.2026 23.9601 72.4113 24.8066C72.3572 24.3949 72.3765 24.1217 72.3263 23.8639C72.2799 23.6022 72.1523 23.3598 71.8006 23.0097C72.2722 23.1713 72.0518 22.2555 71.8083 21.9246L71.7426 22.571C71.5377 22.1747 71.4488 21.7976 71.3174 21.4282H71.8779C71.8238 20.5239 71.2942 19.8929 70.7608 19.3542C70.5018 19.0771 70.266 18.8116 70.1152 18.5115C69.9606 18.2113 69.8678 17.892 69.9336 17.4764C69.3963 17.2648 70.1771 18.4037 69.605 18.2575C69.2764 17.5649 69.5161 16.4644 69.3653 16.2566C69.1837 15.7256 68.886 15.614 68.5768 15.5101C68.2598 15.4101 67.9699 15.2985 67.6993 14.7983C67.6375 15.0215 67.3167 15.4062 66.6866 14.8598C66.2807 14.2172 66.7175 13.6324 67.135 13.9363C67.2625 14.0749 67.2703 14.1826 67.2162 14.2172C67.421 14.3789 67.6877 14.5982 67.6568 14.2288L67.4481 14.2557C67.3669 13.8286 66.6789 12.9821 67.0654 12.9975C66.5358 12.655 66.6711 12.9975 66.8799 13.3899C66.6557 12.9205 66.3928 12.6242 66.1261 12.3279C65.8517 12.0355 65.5888 11.7315 65.2757 11.3082C65.3182 11.4968 65.268 11.7508 65.1559 11.6315C64.2475 10.4001 64.4369 11.4006 63.6638 10.7388C63.4358 10.1423 64.2823 10.3924 63.3507 9.87298C63.0028 9.31504 63.5749 9.42278 63.8687 9.48435C63.3894 9.2958 63.0995 8.96104 62.8714 8.61473C62.6511 8.26072 62.4694 7.94135 62.2761 7.74126L62.7709 7.94135C62.4733 7.82206 62.28 7.6643 62.0828 7.51038V7.97598C61.8896 7.7451 61.6924 7.58734 61.7891 7.4719C61.4025 7.4719 61.5958 8.09141 60.9271 7.98752C60.7415 7.58734 59.8602 7.45651 60.0303 6.98322C60.9425 7.81437 60.2042 6.50224 61.1049 7.04864C60.9116 6.96783 60.7029 6.83316 60.498 6.60998C60.4942 6.54072 60.5908 6.55226 60.6758 6.57535C59.9414 5.54412 59.9105 6.71002 58.9093 6.01741C59.1915 5.87119 58.948 5.43253 58.7431 5.37866C59.1644 5.64031 58.6967 5.88273 58.2019 5.82886C57.6453 5.24398 57.3979 5.52488 57.0655 5.29785L57.4095 5.62492C57.1312 5.78653 56.8336 5.53257 56.3156 5.36711C56.3775 5.15933 56.8181 5.46716 56.6944 5.294C55.9368 5.44022 55.7397 4.22044 54.8429 4.12425C54.5723 3.79718 55.0361 3.64711 54.7772 3.39315C53.7606 3.32773 53.9963 2.61203 52.9527 2.4889C53.0802 2.9314 53.1575 2.86599 52.3729 2.94679C52.914 3.05069 53.4397 3.2046 53.9693 3.35082L52.8058 3.40854C53.2465 3.61248 53.834 3.62402 54.0775 3.80102C53.5016 3.86644 53.5905 3.80872 53.6716 4.18196C53.4861 3.79333 53.1498 3.73176 52.8019 3.68559C52.4463 3.64711 52.0714 3.64326 51.7853 3.33158L52.1409 2.49274C51.6616 2.10026 51.1398 1.99252 50.5522 1.96174C49.9686 1.92326 49.3462 1.88863 48.6543 1.55386C48.7973 1.65006 48.9365 1.75395 49.0756 1.85015C48.7857 2.12335 48.1673 1.63851 47.6532 1.66545C47.773 1.38071 47.5063 1.19986 47.3439 0.965135C47.3169 1.18831 46.2616 0.668848 45.9987 1.25757L45.4151 0.738109C44.8237 0.545715 44.4448 0.684239 44.0699 0.857394C43.6949 1.03824 43.3355 1.22679 42.7711 1.10366C43.1576 0.818915 42.6551 0.538019 43.4707 0.403344C43.0803 0.353321 42.7325 0.253276 42.7015 0.461062C42.5972 0.353321 42.315 0.422583 42.0212 0.476453C41.7236 0.53802 41.4182 0.607281 41.2481 0.449518C41.0742 0.57265 41.0007 0.888177 40.5678 0.838154C40.5253 0.77274 40.5755 0.688087 40.5755 0.688087C40.5639 0.838154 39.8875 0.853546 40.2508 1.2114C39.6826 0.680391 38.8361 0.730414 38.0205 0.765045C37.6107 0.780436 37.2126 0.807371 36.8454 0.815067C36.4782 0.811219 36.1419 0.745805 35.8636 0.564955C35.017 0.703479 34.0197 0.988222 33.2583 1.11905C33.293 1.02285 33.2351 0.968982 33.3858 0.980526C32.2726 0.857394 32.8988 1.9425 31.6696 1.88478C30.9583 1.54232 32.2378 1.4846 31.8203 1.3884C31.6309 0.91896 31.2753 1.0344 30.854 1.21525C30.4288 1.38455 29.961 1.67699 29.4856 1.51923L29.6595 1.40379C29.3078 1.33453 28.9599 1.53847 28.5849 1.78473C28.3955 1.91171 28.1984 2.04254 27.9897 2.16567C27.7848 2.30035 27.5645 2.41963 27.3171 2.49659C27.3171 2.49659 27.3325 2.39655 27.2707 2.35422C27.031 2.71977 26.6252 3.06223 26.1729 3.37006C25.7245 3.68174 25.2529 4.02035 24.8471 4.28586C24.9476 3.80487 25.1563 3.90877 24.8161 3.62787C24.4451 3.86644 25.2065 4.15118 24.4798 4.62062C24.3059 4.58599 24.0546 4.59369 23.815 4.5706C23.5753 4.55136 23.3511 4.51288 23.212 4.34358C23.4439 4.19351 23.6913 4.06268 23.9387 3.93955C23.2893 3.62017 22.9955 4.47056 22.5703 4.59754L22.5007 4.36282C21.4261 5.08237 21.7122 5.5672 20.5796 6.30984L20.7961 6.38295C20.5332 7.29105 20.0926 6.45606 19.7447 7.23334L19.1996 6.87164C18.8943 7.2949 18.2217 8.40694 17.6225 9.03415C17.7076 8.3877 18.3647 7.56041 18.7049 6.94474C18.3183 7.24873 17.4293 8.026 17.4254 8.41464C17.5414 8.24918 17.638 7.97598 17.8506 7.92596C17.7694 8.2992 17.6148 8.64936 17.3906 8.98028C17.1858 9.33428 16.9074 9.66905 16.5557 9.98842C16.2155 9.49974 15.7014 9.87683 15.1293 10.354C14.5766 10.8542 14.0084 11.4776 13.4247 11.4314C13.2159 11.8277 12.9415 12.1586 12.6709 12.4972C12.4042 12.8359 12.1027 13.1552 11.7857 13.4746C11.4688 13.794 11.1402 14.1134 10.8116 14.4558C10.4947 14.806 10.2086 15.1946 9.93032 15.614C11.09 15.5602 9.61722 16.1104 10.4637 16.5414C10.2511 16.9531 10.1391 17.0878 10.0656 17.0878L9.43168 17.5072L8.83253 17.9574C8.42666 18.0998 8.88665 17.4687 8.68565 17.3917C8.09423 18.2306 8.12516 17.5457 7.55694 18.0036C7.91642 18.0613 7.785 18.5577 7.3714 18.9963L8.17154 18.5115C8.02079 19.2503 7.69223 19.4119 7.35593 19.5812C7.01578 19.7467 6.69108 19.9275 6.57898 20.6855L6.52873 20.1391C6.43209 20.5085 6.11513 21.1165 5.86387 21.7514C5.61649 22.3901 5.41935 23.0481 5.62808 23.5445C5.47733 23.6138 5.17196 23.6638 5.24154 23.3406C4.82794 24.1178 4.61147 25.0991 4.37954 26.0033C4.14762 26.9114 3.96981 27.7733 3.49436 28.3197L3.32815 28.1158C3.27016 28.4467 3.52915 28.7969 3.16193 29.097C3.08076 29.0431 2.99185 28.8969 2.92614 29.0316C2.93387 29.2201 3.02664 29.9897 2.75993 30.3553L2.63237 29.9205C2.21876 30.6862 2.15692 31.3673 2.16851 32.0176C2.20717 32.6832 2.3154 33.322 2.2033 34.0261C1.87474 33.9376 1.5655 34.2031 1.30652 34.5764C1.063 34.9535 0.87359 35.4383 0.749896 35.7615L0.66099 35.7192C0.533431 36.2117 0.456122 36.6773 0.417468 37.1237C0.402006 37.5777 0.417468 38.0164 0.44066 38.4474C0.467718 38.8783 0.502507 39.3016 0.545027 39.7364C0.603009 40.1751 0.65326 40.6214 0.680318 41.0909C0.475449 41.3641 0.313101 41.745 0.228061 42.199C0.146887 42.6531 0.108232 43.1764 0.0811743 43.719C0.034789 44.2615 0.0695779 44.831 0.0695779 45.3851C0.0773088 45.9392 0.0270581 46.4779 0 46.9666C0.0850397 46.6626 0.533431 46.9627 0.645529 47.2859C0.564354 47.7477 1.26786 48.4288 0.645529 48.4596L0.637798 48.2979C0.061847 48.7289 0.44066 49.6293 0.56822 50.345L1.38769 50.2719C1.0514 51.3108 1.49206 52.5152 2.04868 53.5118C2.18011 53.7658 2.30767 54.012 2.4275 54.2468C2.56279 54.4738 2.68262 54.697 2.77539 54.9048C2.96479 55.328 3.0421 55.7167 2.92614 56.0784C3.33974 56.3823 3.62965 56.8749 4.03552 57.1558L3.65284 57.3636C3.78813 57.6598 3.93115 57.9023 4.07031 58.1293C4.20947 58.3602 4.34089 58.5718 4.48778 58.7911C4.76609 59.2375 5.1449 59.653 5.69766 60.2341L5.24927 60.1841C5.53531 60.5419 5.94891 60.565 6.37411 60.5419C6.80318 60.5227 7.22064 60.4765 7.50669 60.7535L7.21291 61.3846C7.47576 61.6655 7.74248 61.9502 8.00919 62.235C8.27204 62.5236 8.52716 62.8237 8.80161 63.1007C9.08765 63.3624 9.38916 63.6125 9.71385 63.8241C9.8762 63.928 10.0463 64.0242 10.2241 64.1089C10.4058 64.1859 10.599 64.2436 10.7962 64.2859C10.7227 64.3513 10.5758 64.4821 10.3517 64.3629C10.6493 64.5706 11.175 65.0555 11.6698 65.3671C12.1761 65.6519 12.6323 65.7789 12.7366 65.3248C12.5975 65.5788 12.9376 65.7904 13.4131 65.9559C13.9001 66.0944 14.5186 66.1829 14.9361 66.2445L14.6384 66.5754C15.0675 66.483 15.2994 66.3984 15.5468 66.3599C15.7903 66.3253 16.0454 66.3522 16.5054 66.4638C16.691 66.6023 16.5557 66.8601 16.3238 66.6408C16.9306 67.1449 17.0079 66.4946 17.7772 67.0102L17.3636 67.1526C18.0787 67.445 18.0748 67.2872 18.5734 67.1256C19.0798 67.1179 19.9186 67.6489 19.9263 68.0568C20.0926 67.8606 20.5757 67.6759 20.9855 67.8837C21.0087 68.0414 20.827 68.0876 20.7342 68.1107C21.3218 68.4031 21.8165 68.4031 22.2572 68.3877C22.6979 68.3646 23.0805 68.3416 23.4748 68.634C23.4671 68.7764 23.5096 68.8572 23.5753 68.9149C22.5703 68.7148 21.7702 68.5224 21.8552 68.4993C21.7624 68.8918 22.5703 69.1381 21.7972 69.5267C22.1606 69.4575 22.6631 69.3074 23.1579 69.2266C23.4052 69.1842 23.6526 69.1573 23.8884 69.165C24.1242 69.165 24.3445 69.1881 24.5378 69.2612C24.5726 69.3035 24.6035 69.3459 24.6229 69.4113L24.534 69.4421C24.7118 69.5075 24.8857 69.4959 25.0519 69.4536C25.2993 69.5536 25.4539 69.6268 25.7013 69.6691C25.7554 70.0038 26.6368 69.9423 27.0465 70C27.0542 69.5652 27.5838 69.6883 27.1122 69.2804C27.1741 69.3189 27.031 69.3228 26.7566 69.3151C26.6947 69.3228 26.6213 69.3189 26.5788 69.342C26.5865 69.3305 26.5981 69.3189 26.6097 69.3074C26.3391 69.2881 25.9874 69.2766 25.5892 69.2266C25.941 69.0573 26.2927 68.8957 26.7179 69.1842C26.9537 68.9303 27.2088 68.6648 27.348 68.5455C27.8428 69.2073 28.9096 69.5729 29.0449 69.9577C29.6827 69.8807 30.4288 69.823 31.1091 69.7307C31.7933 69.6191 32.4079 69.4036 32.7828 68.9919C33.1307 68.8764 33.2003 69.215 33.3394 69.3266C33.1384 69.4344 32.8949 69.4151 32.7867 69.5383C33.1384 69.4382 33.668 69.3574 34.1203 69.2497C34.5764 69.1419 34.9552 68.9957 35.0093 68.7033C35.9293 68.8726 34.5648 69.2689 35.7863 69.0611L35.6432 69.2497C36.281 69.4151 36.8338 69.3074 37.344 69.1535C37.8543 68.9803 38.322 68.7456 38.7781 68.4647C39.2342 68.1799 39.6942 67.9029 40.216 67.7298C40.4789 67.6413 40.7572 67.5797 41.0626 67.5527C41.3602 67.5104 41.6849 67.5027 42.0483 67.5412C41.8511 67.5297 41.7545 67.5258 41.6888 67.445C42.4464 67.3334 43.204 67.1526 43.9269 66.8794C44.6497 66.5946 45.361 66.2791 46.0683 65.9559C46.7641 65.6096 47.4599 65.271 48.175 64.9901C48.8785 64.6861 49.5975 64.4321 50.3628 64.2859C51.1939 64.0435 51.105 63.6664 51.4258 63.1854L51.8085 63.5086C51.9825 63.2123 52.1564 62.9199 52.3226 62.6198C52.7633 62.1349 53.3701 62.1157 54.0002 62.0272C54.6264 61.9387 55.2642 61.7655 55.7397 61.0344L55.3956 60.8767C55.9136 60.6304 56.7911 59.7377 56.9186 60.0917C56.9341 60.0109 56.8916 59.7185 57.166 59.73L57.3168 59.9224L58.2213 58.7834C59.1992 58.287 58.6503 59.6723 59.9685 58.7603C60.3898 58.3294 60.8768 57.1481 60.5947 57.1673C60.3937 57.3174 60.0187 57.429 59.8525 57.252L60.1888 56.821C59.9994 56.5132 59.8564 56.1592 59.6051 55.9321C59.3538 55.7051 59.006 55.5897 58.3604 55.7782C58.2174 56.0668 58.0783 56.3631 57.9275 56.6555L57.4907 56.544C57.684 56.3939 57.8811 56.2438 58.0705 56.0861C57.5448 56.0784 57.4984 56.4593 57.3786 56.7979C57.2124 56.6902 57.0346 56.6594 56.8568 56.7056L56.5437 57.7599C56.2963 57.5906 56.5437 57.0827 55.9793 57.2866C55.8286 57.7791 56.6596 57.579 56.2267 58.137C55.6933 58.11 55.643 57.8138 55.3879 58.3217C55.2256 58.2062 55.2487 58.0523 55.3686 57.8753C55.1251 58.2986 54.4525 58.5987 54.4641 59.0374C53.8727 58.9296 53.2503 59.9147 52.9295 59.3144C52.9024 59.5299 52.5391 60.1648 52.1989 60.3957C52.427 59.3183 50.8615 61.1229 50.5986 60.2533C50.4711 61.1422 49.0331 61.4846 48.3373 62.2465C48.3605 62.1696 48.4031 62.0195 48.4958 62.0156C47.9779 62.2003 47.7421 62.0695 47.371 62.1003C47.4676 62.385 47.3439 62.6621 47.1584 62.916C46.969 63.17 46.7216 63.4163 46.5863 63.6779C45.7359 63.4124 46.6713 62.866 46.25 62.4428C46.4819 62.8737 45.3919 63.3509 45.7591 63.6318C45.1484 63.5048 45.2875 63.6471 44.8546 63.2893C45.0556 64.0204 44.4642 63.574 44.24 64.1551C43.4166 64.0704 43.8109 63.5625 43.1422 64.0627C42.7093 63.9819 43.2775 63.4778 43.2775 63.4778L43.2582 63.4894ZM24.7311 66.6139C24.8973 66.6293 25.0403 66.6408 25.1292 66.6485C25.0442 66.6447 24.9321 66.6369 24.7311 66.6254V66.6139ZM23.1347 66.3368C23.3241 66.3907 23.5676 66.4407 23.8227 66.4869C23.8498 66.6446 23.7609 66.7832 23.6024 66.7447C23.7067 66.6639 23.3473 66.5061 23.1347 66.3368ZM26.1884 69.8499C25.9062 69.8846 25.825 69.7884 25.798 69.696C25.9294 69.6999 26.084 69.7037 26.285 69.696C26.2966 69.6806 26.3121 69.6652 26.3237 69.646C26.2889 69.7268 26.2502 69.7999 26.1922 69.8499H26.1884Z" fill="#FF2768"/>
<path d="M26.7411 69.3343C26.7798 69.3305 26.803 69.3112 26.8571 69.3151C26.8068 69.2728 26.7566 69.2343 26.7063 69.2035C26.6677 69.2458 26.629 69.292 26.5981 69.3305C26.6484 69.3305 26.6986 69.3343 26.745 69.3382L26.7411 69.3343Z" fill="#FF2768"/>
<path d="M73.3081 32.8564L73.3158 32.8218C73.3004 32.8525 73.2849 32.8795 73.2578 32.8987C73.2772 32.8756 73.2926 32.8718 73.3081 32.8564Z" fill="#FF2768"/>
<path d="M6.25428 53.989L6.15765 54.0428L6.2968 54.1198L6.25428 53.989Z" fill="#FF2768"/>
<path d="M71.0971 41.845C71.0584 41.8566 71.012 41.8797 70.9656 41.9412C70.9966 41.9412 71.0429 41.8989 71.0971 41.845Z" fill="#FF2768"/>
<path d="M70.1152 45.6044L69.8137 46.0893C69.9645 45.8853 70.0534 45.7314 70.1152 45.6044Z" fill="#FF2768"/>
<path d="M69.0252 48.3941C69.0832 48.4557 69.1334 48.4826 69.1798 48.5096H69.1837L69.0213 48.3941H69.0252Z" fill="#FF2768"/>
<path d="M55.8054 7.9298C55.7706 7.91056 55.7358 7.89517 55.701 7.88748C55.4343 7.82206 55.6044 7.88748 55.8054 7.9298Z" fill="#FF2768"/>
<path d="M66.7098 16.499C66.559 16.4182 66.4199 16.3374 66.2884 16.2412C66.4044 16.4644 66.5011 16.6337 66.7098 16.499Z" fill="#FF2768"/>
<path d="M41.194 3.87029C41.194 3.87029 41.194 3.87029 41.194 3.86259C41.1631 3.86259 41.1322 3.86259 41.1012 3.85874L41.194 3.87029Z" fill="#FF2768"/>
<path d="M65.9019 15.7179C65.9831 15.968 66.1222 16.1219 66.2923 16.2412C66.1918 16.0604 66.0797 15.8449 65.9019 15.7179Z" fill="#FF2768"/>
<path d="M63.2425 59.8993L63.1497 60.007C63.1768 60.0224 63.1884 60.0417 63.2 60.0609L63.2425 59.8993Z" fill="#FF2768"/>
<path d="M63.1961 60.0609L63.1497 60.2225C63.1922 60.161 63.2232 60.1071 63.1961 60.0609Z" fill="#FF2768"/>
<path d="M63.0569 60.5573L63.1536 60.2187C63.0879 60.3149 62.999 60.4265 63.0569 60.5573Z" fill="#FF2768"/>
<path d="M65.4226 56.6132L65.3066 56.4978C65.3221 56.5363 65.3607 56.5709 65.4226 56.6132Z" fill="#FF2768"/>
<path d="M65.9406 55.5281C65.7743 55.7667 65.3105 56.0091 65.2139 56.4054L65.3066 56.4978C65.1868 56.2246 66.0488 55.8898 65.9406 55.5281Z" fill="#FF2768"/>
<path d="M69.8292 51.6956C69.6668 52.0035 69.4852 52.3036 69.3151 52.6076C69.5393 52.5075 69.8447 52.369 69.6939 52.8231C70.668 51.7995 69.2494 52.9308 69.8292 51.6956Z" fill="#FF2768"/>
<path d="M71.1744 48.7443C71.0739 49.3061 71.4063 48.8174 71.4875 48.8713C71.4527 48.4826 71.4411 48.3903 71.1744 48.7443Z" fill="#FF2768"/>
<path d="M72.6123 25.5377L73.0104 25.4954C72.852 25.076 72.8597 25.53 72.6123 25.5377Z" fill="#FF2768"/>
<path d="M69.2764 22.0208L69.203 22.4786L69.6166 22.521L69.2764 22.0208Z" fill="#FF2768"/>
<path d="M70.7105 18.4499L70.8497 18.6C70.6912 18.3999 70.5482 18.1921 70.3742 17.9997C70.494 18.1421 70.6023 18.296 70.7105 18.4499Z" fill="#FF2768"/>
<path d="M36.7719 0.0377947L36.9343 0.511084C37.2281 0.399496 37.2667 -0.146904 36.7719 0.0377947Z" fill="#FF2768"/>
<path d="M20.5641 6.00586C20.2742 5.90966 19.7756 6.06358 19.6674 6.42528C20.0114 6.22904 20.4366 6.16747 20.5641 6.00586Z" fill="#FF2768"/>
<path d="M1.02821 51.3031L0.765357 50.9953L1.09005 51.6187L1.02821 51.3031Z" fill="#FF2768"/>
</g>
</g>
</svg>
