<svg width="310" height="192" viewBox="0 0 310 192" fill="none" xmlns="http://www.w3.org/2000/svg">
<g clip-path="url(#clip0_309_69)">
<rect width="310" height="192" rx="8" fill="#EEE6FF"/>
<path d="M232.885 110.404C225.108 117.065 214.793 120.03 204.657 118.838C204.17 118.78 203.676 118.71 203.194 118.629C202.619 118.53 202.532 118.53 201.817 118.402C199.151 117.925 196.619 116.78 194.441 115.182C189.992 111.921 187.012 106.916 185.804 101.574C184.596 96.2317 185.223 89.9886 187.918 84.9023C190.439 80.159 194.662 76.3748 199.651 74.3926C204.954 72.2825 210.907 72.1663 216.082 74.7007C218.8 76.0318 221.321 77.9908 223.092 80.4613C224.864 82.9317 225.573 86.1346 225.666 89.2445C225.764 92.5172 225.271 95.7492 224.806 98.9753C224.696 99.731 224.661 100.493 224.69 101.254C224.806 104.771 226.38 108.084 229.598 109.747C230.678 110.305 231.828 110.636 233.019 110.857C233.448 110.938 234.97 110.247 234.087 110.084C231.764 109.648 229.586 108.555 228.175 106.613C227.152 105.207 226.624 103.48 226.444 101.771C226.339 100.795 226.333 99.795 226.467 98.8184C226.845 96.0456 227.286 93.2903 227.356 90.4827C227.437 87.2333 227.088 83.8153 225.404 80.9612C223.853 78.3337 221.472 76.2353 218.841 74.7181C216.192 73.1893 213.195 72.1663 210.129 72.0267C207.277 71.8989 204.402 72.2302 201.655 73.0091C196.282 74.5321 191.38 77.7408 188.075 82.2749C184.77 86.8089 183.109 92.7846 183.597 98.5568C184.073 104.248 186.513 109.834 190.602 113.856C192.547 115.775 194.876 117.303 197.432 118.274C199.035 118.885 200.708 119.181 202.398 119.454C211.825 120.954 222.012 118.809 230.033 113.67C231.503 112.729 232.897 111.682 234.221 110.549C234.9 109.962 233.245 110.124 232.908 110.409L232.885 110.404Z" fill="#B099FE"/>
<path d="M233.541 110.468C219.869 122.263 203.507 119.205 202.038 118.903C201.916 118.885 201.794 118.874 201.666 118.856C190.34 117.089 182.708 104.713 184.625 92.4366C186.536 80.1598 197.473 71.8996 209.583 72.4112C215.31 72.6553 221.687 76.3465 224.55 81.1828C227.373 85.9494 226.595 92.6924 225.636 98.8308C225.636 98.8308 223.906 108.736 233.541 110.468Z" fill="#EEE6FF"/>
<path d="M244.507 108.25C244.489 109.331 243.868 110.581 242.782 110.941C241.765 111.278 240.54 110.586 239.953 109.761C239.25 108.784 239.175 107.447 239.767 106.401C240.034 105.924 240.453 105.488 240.964 105.262C241.37 105.082 241.858 105.116 242.288 105.238C243.624 105.611 244.495 106.878 244.513 108.244C244.513 108.482 245.779 108.284 245.773 107.907C245.755 106.442 244.762 105.157 243.357 104.744C241.852 104.303 239.947 104.832 238.925 106.029C237.973 107.145 237.816 108.796 238.64 110.028C239.523 111.342 241.109 111.772 242.607 111.441C244.332 111.057 245.75 109.749 245.773 107.907C245.773 107.68 244.518 107.86 244.513 108.244L244.507 108.25Z" fill="#B099FE"/>
<path d="M254.718 100.975C254.701 102.289 253.922 103.789 252.656 104.231C251.39 104.672 249.944 103.864 249.177 102.83C248.288 101.632 248.207 99.9581 248.939 98.6677C249.595 97.5109 250.705 96.9122 251.971 97.2726C253.626 97.7434 254.695 99.278 254.718 100.975C254.718 101.359 256.408 101.08 256.402 100.522C256.379 98.6967 255.136 97.0807 253.388 96.5634C251.46 95.9937 249.096 96.6506 247.783 98.1852C246.587 99.5803 246.412 101.644 247.429 103.19C248.521 104.853 250.542 105.399 252.424 104.992C254.608 104.521 256.373 102.836 256.402 100.522C256.402 100.15 254.73 100.412 254.718 100.975Z" fill="#B099FE"/>
<path d="M241.934 111.286C243.705 111.286 245.14 109.849 245.14 108.077C245.14 106.305 243.705 104.868 241.934 104.868C240.163 104.868 238.728 106.305 238.728 108.077C238.728 109.849 240.163 111.286 241.934 111.286Z" fill="#EEE6FF"/>
<path d="M251.581 104.734C253.782 104.734 255.566 102.949 255.566 100.746C255.566 98.5441 253.782 96.7588 251.581 96.7588C249.381 96.7588 247.597 98.5441 247.597 100.746C247.597 102.949 249.381 104.734 251.581 104.734Z" fill="#EEE6FF"/>
<path d="M207.219 94.7551C208.791 94.7551 210.065 93.532 210.065 92.0231C210.065 90.5142 208.791 89.291 207.219 89.291C205.647 89.291 204.373 90.5142 204.373 92.0231C204.373 93.532 205.647 94.7551 207.219 94.7551Z" fill="#D1C2FE"/>
<path d="M195.365 93.8157C196.936 93.8157 198.211 92.5925 198.211 91.0836C198.211 89.5747 196.936 88.3516 195.365 88.3516C193.793 88.3516 192.519 89.5747 192.519 91.0836C192.519 92.5925 193.793 93.8157 195.365 93.8157Z" fill="#D1C2FE"/>
<path d="M197.995 85.5866C197.263 86.6562 196.526 87.7199 195.794 88.7895C195.689 88.9406 195.585 89.0976 195.48 89.2487C195.411 89.3533 195.562 89.4347 195.626 89.4522C195.782 89.5045 196.009 89.4812 196.166 89.4522C196.514 89.3882 196.932 89.272 197.147 88.9697C197.879 87.9001 198.617 86.8364 199.349 85.7668C199.453 85.6157 199.558 85.4587 199.662 85.3076C199.732 85.2029 199.581 85.1216 199.517 85.1041C199.36 85.0518 199.134 85.0751 198.977 85.1041C198.628 85.1681 198.21 85.2843 197.995 85.5866Z" fill="#B099FE"/>
<path d="M208.462 86.7558C207.73 87.8254 206.992 88.8891 206.26 89.9587C206.156 90.1099 206.051 90.2668 205.947 90.4179C205.726 90.7435 206.138 90.9237 206.406 90.9237C206.783 90.9237 207.288 90.7958 207.515 90.4586C208.247 89.3891 208.984 88.3253 209.716 87.2557C209.821 87.1046 209.925 86.9476 210.03 86.7965C210.251 86.471 209.838 86.2908 209.571 86.2908C209.193 86.2908 208.688 86.4187 208.462 86.7558Z" fill="#B099FE"/>
<path d="M194.185 92.676C194.511 93.3212 195.033 93.9316 195.696 94.2396C197.316 94.9837 198.995 93.7223 199.866 92.4434L198.245 92.676C198.437 93.4258 198.861 94.2745 199.5 94.7279C201.242 95.9603 203.38 94.321 204.507 93.0247C204.768 92.7225 204.28 92.5946 204.071 92.5946C203.688 92.5946 203.217 92.7341 202.956 93.0364C202.63 93.4142 202.282 93.7862 201.87 94.0711C201.823 94.1059 201.777 94.135 201.724 94.1641C201.73 94.1641 201.492 94.2861 201.591 94.2338C201.422 94.3152 201.695 94.2106 201.509 94.2687C201.353 94.3152 201.579 94.2803 201.486 94.2687C201.388 94.2629 201.608 94.2978 201.463 94.2687C201.608 94.3036 201.428 94.2629 201.399 94.2513C201.457 94.2687 201.213 94.1815 201.161 94.1524C201.022 94.0769 200.847 93.9257 200.72 93.7862C200.33 93.3561 200.069 92.7864 199.924 92.2284C199.86 91.9784 199.384 92.0133 199.209 92.0365C198.913 92.0772 198.483 92.1993 198.303 92.4609C198.089 92.7748 197.868 93.0887 197.583 93.3444C197.496 93.4258 197.392 93.484 197.304 93.5595C197.211 93.6118 197.194 93.6235 197.246 93.5886C197.333 93.5653 197.322 93.5653 197.223 93.5886C197.264 93.5712 197.31 93.5653 197.357 93.5653C197.27 93.5653 197.258 93.5653 197.322 93.5653C197.258 93.5421 197.223 93.5479 197.13 93.513C196.985 93.4607 196.851 93.3793 196.729 93.2805C196.358 92.9899 196.038 92.583 195.852 92.2226C195.585 91.6936 193.953 92.2516 194.168 92.676H194.185Z" fill="#B099FE"/>
<path d="M186.18 90.8553C181.074 79.3206 165.867 72.9888 150.042 77.5874C134.219 82.1897 124.215 95.7524 127.696 107.881C131.18 120.009 142.31 126.268 158.226 121.997C165.712 119.987 173.201 109.439 172.203 112.956C172.203 112.956 163.096 119.925 167.21 121.997C170.206 123.504 179.689 120.489 184.179 113.961C186.342 110.815 191.35 102.547 186.176 90.8553H186.18Z" fill="#EEE6FF"/>
<path d="M186.771 90.9932C183.801 84.3354 177.655 79.7278 170.837 77.59C162.855 75.0874 154.08 75.8134 146.352 78.8705C139.393 81.6212 132.956 86.4294 129.246 93.0654C127.636 95.9437 126.603 99.1504 126.436 102.456C126.269 105.761 127.053 108.927 128.416 111.879C129.78 114.83 131.593 117.238 133.99 119.201C136.43 121.2 139.349 122.557 142.414 123.265C145.968 124.085 149.663 124.089 153.264 123.582C155.276 123.297 157.343 122.911 159.265 122.239C160.915 121.663 162.453 120.78 163.893 119.795C166.467 118.033 168.708 115.873 171.004 113.776C171.334 113.473 171.667 113.167 172.03 112.9C172.128 112.827 172.24 112.714 172.288 112.732C172.302 112.74 171.736 112.86 171.776 112.783C171.765 112.802 171.798 112.984 171.794 113.024C171.783 113.141 171.671 113.422 171.816 113.243C171.7 113.389 171.482 113.506 171.341 113.623C169.644 115.005 167.947 116.53 166.688 118.336C166.148 119.113 165.557 120.08 165.648 121.072C165.731 121.999 166.565 122.56 167.392 122.783C168.513 123.082 169.727 122.995 170.862 122.816C172.393 122.575 173.89 122.108 175.323 121.517C178.655 120.134 181.796 118.015 184.062 115.169C187.942 110.299 189.73 103.886 188.784 97.7131C188.428 95.3892 187.718 93.142 186.775 90.9932C186.641 90.6904 185.614 91.0297 185.723 91.2778C187.478 95.2725 188.381 99.6575 187.83 104.021C187.46 106.957 186.463 109.785 185.001 112.349C183.54 114.914 181.556 117.194 179.08 118.923C176.603 120.652 173.539 122.086 170.467 122.418C169.557 122.517 168.505 122.542 167.668 122.112C166.83 121.681 166.547 120.882 166.797 119.996C167.084 118.967 167.78 118.066 168.458 117.267C169.223 116.362 170.075 115.531 170.957 114.746C171.482 114.279 172.023 113.838 172.567 113.396C172.824 113.188 173.064 112.517 172.643 112.346C171.979 112.072 171.123 112.864 170.674 113.25C169.742 114.057 168.857 114.921 167.947 115.753C165.51 117.978 162.877 120.226 159.827 121.55C158.094 122.301 156.179 122.67 154.323 122.976C152.466 123.283 150.555 123.454 148.658 123.432C145.369 123.4 142.069 122.772 139.07 121.386C136.347 120.124 133.943 118.223 132.075 115.863C130.207 113.502 128.746 110.463 127.992 107.421C127.237 104.378 127.332 101.12 128.159 98.0743C130.015 91.234 135.157 85.6414 141.076 82.0225C148.074 77.7432 156.549 75.7951 164.69 76.8786C171.812 77.8272 178.804 81.198 183.217 87.0314C184.215 88.3447 185.052 89.7748 185.723 91.2814C185.857 91.5842 186.884 91.245 186.775 90.9969L186.771 90.9932Z" fill="#B099FE"/>
<path d="M157.132 99.7089C159.416 99.7089 161.268 97.8575 161.268 95.5737C161.268 93.2899 159.416 91.4385 157.132 91.4385C154.849 91.4385 152.997 93.2899 152.997 95.5737C152.997 97.8575 154.849 99.7089 157.132 99.7089Z" fill="#D1C2FE"/>
<path d="M143.545 99.1182C145.829 99.1182 147.68 97.399 147.68 95.2783C147.68 93.1576 145.829 91.4385 143.545 91.4385C141.261 91.4385 139.41 93.1576 139.41 95.2783C139.41 97.399 141.261 99.1182 143.545 99.1182Z" fill="#D1C2FE"/>
<path d="M148.638 97.2139C147.284 97.2139 147.157 97.105 145.666 96.1663C144.174 95.2275 142.874 95.7419 142.423 97.6194C141.971 99.4969 144.239 101.592 145.142 102.061C146.045 102.531 148.638 104.082 151.848 102.681C154.575 101.491 155.633 100.041 155.911 98.0437C156.106 96.6506 155.633 95.1937 153.625 95.0097C153.625 95.0097 152.523 94.792 151.747 95.603C150.971 96.4141 149.418 97.2176 148.638 97.2176V97.2139Z" fill="#EEE6FF"/>
<path d="M148.66 97.1569C148.098 97.1569 147.598 97.1168 147.091 96.8575C146.412 96.5143 145.814 96.0104 145.074 95.8023C143.775 95.4371 142.545 96.0761 142.024 97.3066C141.01 99.691 143.275 101.911 145.249 102.882C146.398 103.448 147.631 103.81 148.919 103.843C150.666 103.883 152.359 103.251 153.818 102.327C154.876 101.655 155.781 100.728 156.208 99.5303C156.58 98.497 156.744 97.2409 156.149 96.2587C155.514 95.2108 154.041 94.8456 152.888 95.0282C152.468 95.0939 152.074 95.24 151.72 95.4773C151.367 95.7146 151.108 96.0177 150.772 96.255C150.185 96.6713 149.4 97.135 148.66 97.1606C148.043 97.1825 147.861 98.0004 148.576 97.9785C149.747 97.9383 151.024 97.208 151.892 96.4632C152.322 96.0944 152.673 95.7877 153.271 95.8059C153.676 95.8169 154.11 95.8972 154.471 96.0798C156.415 97.0547 155.215 100.056 154.019 101.126C152.979 102.057 151.531 102.754 150.155 102.963C148.933 103.149 147.707 102.933 146.569 102.47C145.821 102.163 145.117 101.801 144.508 101.268C143.713 100.571 142.823 99.534 142.812 98.413C142.808 97.8251 143.078 97.0729 143.556 96.7078C143.997 96.3719 144.57 96.5362 145.026 96.7662C145.635 97.0766 146.179 97.5148 146.821 97.7594C147.383 97.9712 147.977 97.9748 148.572 97.9785C149.167 97.9821 149.371 97.1642 148.656 97.1606L148.66 97.1569Z" fill="#B099FE"/>
<path d="M147.795 89.9438C147.254 90.8082 146.713 91.6691 146.172 92.5335C146.096 92.655 146.02 92.7765 145.944 92.898C145.818 93.0993 146.054 93.2069 146.249 93.2104C146.485 93.2139 146.847 93.1375 146.976 92.9327C147.517 92.0683 148.058 91.2074 148.599 90.343C148.675 90.2215 148.751 90.1 148.827 89.9785C148.953 89.7772 148.717 89.6696 148.522 89.6661C148.286 89.6627 147.924 89.739 147.795 89.9438Z" fill="#B099FE"/>
<path d="M154.293 89.9438C153.752 90.8082 153.211 91.6691 152.671 92.5335C152.594 92.655 152.518 92.7765 152.442 92.898C152.316 93.0993 152.553 93.2104 152.747 93.2104C152.983 93.2139 153.345 93.1375 153.474 92.9327C154.015 92.0683 154.556 91.2074 155.097 90.343C155.173 90.2215 155.249 90.1 155.325 89.9785C155.451 89.7772 155.215 89.6661 155.021 89.6661C154.784 89.6627 154.423 89.739 154.293 89.9438Z" fill="#B099FE"/>
<g clip-path="url(#clip1_309_69)">
<path d="M116.867 121.529L113.64 116.48C97.5187 119.656 82.9172 114.673 80.0567 109.343C76.2849 102.312 83.0861 90.797 92.8005 83.563C98.4652 79.3449 107.43 77.4682 112.62 78.8731C118.608 80.4947 115.924 86.3727 115.924 86.3727C118.285 83.0912 126.307 81.2181 131.496 84.9679C137.221 89.1021 136.742 96.1894 128.192 100.435C132.439 99.4988 135.743 100.435 136.686 103.249C137.157 104.654 137.854 108.536 133.854 111.685C132.214 112.978 126.602 113.425 124.889 112.621C124.889 112.621 120.17 121.994 116.867 121.526V121.529Z" fill="#EEE6FF"/>
<path d="M117.342 121.33C116.265 119.646 115.192 117.961 114.115 116.28C114.048 116.175 113.809 116.179 113.711 116.2C105.794 117.748 97.2442 117.633 89.5459 115.061C86.9774 114.201 84.3527 113.055 82.2979 111.258C81.5379 110.594 80.8659 109.829 80.419 108.92C79.849 107.75 79.5641 106.464 79.5148 105.167C79.3987 102.165 80.4648 99.1702 81.844 96.5422C83.5223 93.341 85.7847 90.4404 88.332 87.8753C90.9673 85.2264 93.9052 82.808 97.3322 81.2494C100.513 79.8026 104.017 78.8835 107.515 78.7227C110.097 78.6039 113.735 78.7332 115.325 81.1271C116.3 82.5913 116.114 84.5484 115.537 86.128C115.498 86.2328 115.459 86.3377 115.41 86.4425C115.322 86.6347 115.695 86.6662 115.786 86.6627C116.001 86.6522 116.265 86.5683 116.395 86.3901C117.623 84.7126 119.815 83.8494 121.796 83.451C124.287 82.9478 126.982 83.14 129.308 84.1919C131.359 85.118 133.234 86.7745 134.16 88.8399C134.962 90.6292 134.951 92.6211 134.184 94.4174C133.044 97.0839 130.522 98.964 127.988 100.233C127.45 100.502 127.777 100.795 128.256 100.69C130.24 100.261 132.559 100.103 134.378 101.169C135.676 101.931 136.281 103.269 136.471 104.702C136.704 106.432 136.292 108.194 135.307 109.64C134.747 110.465 133.97 111.377 133.062 111.832C132.372 112.177 131.581 112.349 130.828 112.478C129.779 112.66 128.713 112.751 127.651 112.733C126.877 112.723 126.011 112.698 125.293 112.377C125.057 112.272 124.54 112.359 124.414 112.611C123.907 113.617 123.337 114.596 122.746 115.553C121.701 117.245 120.55 118.982 119.044 120.306C118.721 120.589 118.376 120.862 117.989 121.058C117.693 121.208 117.461 121.288 117.176 121.253C116.937 121.222 116.638 121.271 116.455 121.445C116.314 121.582 116.321 121.774 116.55 121.802C118.492 122.047 120.107 120.373 121.24 119.031C122.577 117.447 123.689 115.669 124.699 113.865C124.927 113.46 125.152 113.051 125.36 112.632L124.48 112.866C125.195 113.187 126.025 113.257 126.799 113.292C127.862 113.341 128.935 113.278 129.987 113.142C131.039 113.006 131.989 112.81 132.939 112.464C133.889 112.118 134.702 111.475 135.412 110.71C136.855 109.158 137.657 107.177 137.551 105.055C137.474 103.511 136.957 101.942 135.662 100.987C133.537 99.4253 130.557 99.6525 128.122 100.18L128.389 100.638C130.909 99.3764 133.382 97.643 134.779 95.1443C135.82 93.2816 136.119 91.0905 135.384 89.0635C134.575 86.8304 132.714 85.0167 130.62 83.9333C128.129 82.6473 125.174 82.3537 122.426 82.794C119.896 83.1994 117.014 84.2199 115.445 86.3586L116.43 86.3062C116.997 85.0621 117.208 83.507 116.902 82.1755C116.237 79.2993 113.13 78.4257 110.523 78.195C107.004 77.884 103.363 78.534 100.031 79.6313C98.2329 80.2254 96.4842 80.9663 94.8341 81.8924C93.1839 82.8185 91.6429 83.9962 90.1897 85.2333C87.2272 87.7565 84.5602 90.6676 82.4316 93.9177C80.6301 96.6645 79.1207 99.7538 78.6352 103.021C78.2657 105.513 78.5402 108.302 80.12 110.364C81.6997 112.426 84.0923 113.68 86.3793 114.655C89.7148 116.081 93.3036 116.916 96.8994 117.364C101.276 117.909 105.724 117.884 110.097 117.322C111.262 117.171 112.419 116.983 113.573 116.756L113.169 116.675C114.245 118.36 115.318 120.044 116.395 121.725C116.575 122.005 117.567 121.68 117.342 121.33Z" fill="#B099FE"/>
<path d="M102.807 92.4601C102.311 93.3862 101.815 94.3123 101.318 95.2384C101.248 95.3712 101.178 95.5005 101.107 95.6333C101.002 95.8325 101.202 95.9198 101.382 95.9198C101.582 95.9198 101.948 95.8465 102.054 95.6473C102.55 94.7212 103.046 93.7951 103.542 92.869C103.613 92.7362 103.683 92.6069 103.753 92.4741C103.859 92.2749 103.658 92.1875 103.479 92.1875C103.278 92.1875 102.912 92.2609 102.807 92.4601Z" fill="#B099FE"/>
<path d="M112.866 101.749C115.149 101.749 117 100.38 117 98.6914C117 97.0026 115.149 95.6335 112.866 95.6335C110.583 95.6335 108.732 97.0026 108.732 98.6914C108.732 100.38 110.583 101.749 112.866 101.749Z" fill="#D1C2FE"/>
<path d="M96.6813 100.002C98.9645 100.002 100.815 98.6334 100.815 96.9446C100.815 95.2558 98.9645 93.8867 96.6813 93.8867C94.398 93.8867 92.5471 95.2558 92.5471 96.9446C92.5471 98.6334 94.398 100.002 96.6813 100.002Z" fill="#D1C2FE"/>
<path d="M98.3541 97.7057C97.7183 99.2466 97.5216 101.472 98.8795 102.662C99.4561 103.165 100.208 103.405 100.943 103.516C102.018 103.677 103.153 103.619 104.219 103.419C105.723 103.14 107.267 102.492 108.231 101.219C108.657 100.657 109.018 99.9447 109.08 99.2215C109.091 99.0992 108.32 99.1882 108.299 99.4385C108.299 99.4496 108.299 99.4663 108.285 99.5331C108.266 99.6415 108.242 99.75 108.212 99.8557C108.113 100.223 107.959 100.573 107.768 100.899C107.105 102.022 105.979 102.712 104.761 103.018C103.772 103.266 102.7 103.324 101.692 103.207C100.986 103.124 100.267 102.912 99.6986 102.453C98.8499 101.766 98.5993 100.654 98.6694 99.5859C98.7152 98.9045 98.866 98.198 99.1274 97.5694C99.1894 97.422 98.4457 97.4916 98.3568 97.7057H98.3541Z" fill="#B099FE"/>
<path d="M110.801 93.023C110.305 93.9491 109.809 94.8752 109.312 95.8013C109.242 95.9341 109.172 96.0634 109.101 96.1962C108.996 96.3919 109.193 96.4723 109.372 96.4723C109.569 96.4723 109.939 96.4024 110.048 96.2032C110.544 95.2771 111.04 94.351 111.536 93.4249C111.607 93.2921 111.677 93.1628 111.747 93.03C111.853 92.8343 111.656 92.7539 111.476 92.7539C111.279 92.7539 110.91 92.8238 110.801 93.023Z" fill="#B099FE"/>
</g>
<path d="M80.7395 118.396C80.7395 118.396 79.3642 115.182 79.3642 111.509C80.9029 109.322 83.2747 106.024 83.4925 102.328C83.951 94.5235 78.4881 89.624 70.6489 88.5564C63.2501 87.5479 55.9715 93.147 53.8336 102.019C51.8999 110.047 55.7015 118.396 63.3114 118.392C66.5274 118.392 70.4992 118.051 72.485 115.182C73.7946 115.968 75.0088 118.855 80.7418 118.396H80.7395Z" fill="#EEE6FF"/>
<path d="M81.0684 118.309C80.6803 117.398 80.408 116.428 80.1833 115.467C79.9586 114.506 79.8066 113.546 79.7339 112.571C79.7158 112.312 79.7021 112.053 79.6953 111.794C79.6908 111.644 79.6749 111.508 79.7453 111.37C79.7929 111.279 79.8701 111.192 79.9291 111.108C80.147 110.797 80.3649 110.486 80.5782 110.173C81.6086 108.657 82.555 107.065 83.1678 105.332C83.7806 103.599 83.9463 101.893 83.7942 100.124C83.5514 97.2798 82.3462 94.6154 80.299 92.6188C78.2519 90.6222 75.3105 89.2912 72.41 88.6893C70.9007 88.3758 69.371 88.2236 67.8322 88.3712C66.2934 88.5189 64.8659 88.9073 63.4814 89.5002C60.6036 90.7358 58.1751 92.8755 56.4139 95.4491C54.4825 98.2747 53.2751 101.671 53.0413 105.089C52.8302 108.167 53.4158 111.399 55.0817 114.032C56.6046 116.439 59.0239 118.113 61.8745 118.456C63.4292 118.643 65.0769 118.534 66.6225 118.32C68.1681 118.107 69.8567 117.648 71.198 116.719C71.8244 116.285 72.3646 115.751 72.8026 115.127L72.1694 115.297C72.848 115.71 73.3587 116.385 73.9737 116.885C74.9633 117.689 76.1344 118.195 77.3872 118.418C78.4448 118.606 79.5251 118.611 80.5941 118.529C80.7098 118.52 80.9686 118.484 81.0344 118.372C81.1002 118.261 80.9777 118.259 80.8801 118.266C79.2482 118.391 77.5438 118.286 76.0413 117.58C75.1357 117.153 74.3936 116.519 73.6809 115.828C73.4018 115.558 73.1249 115.276 72.7913 115.074C72.6369 114.981 72.2534 115.106 72.158 115.245C70.2652 117.943 66.6929 118.252 63.6698 118.263C62.2399 118.268 60.8305 118 59.5414 117.364C58.3294 116.764 57.2718 115.881 56.4298 114.827C54.5982 112.537 53.763 109.557 53.67 106.661C53.561 103.313 54.4553 99.942 56.0462 97.0073C57.5283 94.2747 59.6889 91.8852 62.392 90.3247C64.9181 88.8664 67.8118 88.3008 70.6964 88.737C73.606 89.1753 76.4884 90.1998 78.7966 92.0623C80.9277 93.7818 82.3939 96.1714 82.9318 98.8608C83.2404 100.403 83.3017 102.059 83.018 103.608C82.6867 105.414 81.9036 107.106 80.9686 108.671C80.5464 109.378 80.0902 110.064 79.6204 110.74C79.5206 110.883 79.4207 111.027 79.3209 111.167C79.2301 111.299 79.078 111.451 79.0326 111.601C78.9713 111.799 79.0394 112.128 79.0508 112.335C79.0644 112.608 79.0848 112.88 79.1098 113.153C79.2641 114.731 79.6227 116.299 80.147 117.798C80.2287 118.029 80.3127 118.261 80.408 118.488C80.4761 118.645 81.1161 118.431 81.0662 118.311L81.0684 118.309Z" fill="#B099FE"/>
<path d="M69.3325 106.811C70.8054 106.811 71.9993 105.664 71.9993 104.249C71.9993 102.834 70.8054 101.687 69.3325 101.687C67.8597 101.687 66.6658 102.834 66.6658 104.249C66.6658 105.664 67.8597 106.811 69.3325 106.811Z" fill="#D1C2FE"/>
<path d="M60.935 106.481C62.4078 106.481 63.6017 105.334 63.6017 103.919C63.6017 102.504 62.4078 101.357 60.935 101.357C59.4621 101.357 58.2682 102.504 58.2682 103.919C58.2682 105.334 59.4621 106.481 60.935 106.481Z" fill="#D1C2FE"/>
<path d="M68.1252 105.313C66.0372 109.908 62.3922 109.674 61.9338 107.839C61.5752 106.401 61.9338 104.625 61.9338 104.625C61.9338 104.625 69.2736 102.79 68.1252 105.313Z" fill="#EEE6FF"/>
<path d="M67.8118 105.281C67.1377 106.748 66.0097 108.424 64.3121 108.781C63.8514 108.879 63.3384 108.849 62.9231 108.611C62.4329 108.329 62.2627 107.877 62.1787 107.339C62.038 106.446 62.0879 105.485 62.2649 104.599L61.9903 104.845C62.7166 104.663 63.4565 104.52 64.1986 104.406C64.8296 104.311 65.465 104.236 66.1051 104.218C66.5771 104.204 67.0946 104.209 67.5258 104.386C67.9026 104.54 67.9979 104.861 67.8118 105.279C67.662 105.617 68.3247 105.606 68.4382 105.347C69.5412 102.85 63.8151 103.991 62.8323 104.193C62.5123 104.259 62.1923 104.327 61.8746 104.406C61.7543 104.436 61.6272 104.522 61.5999 104.652C61.4297 105.508 61.3889 106.417 61.4887 107.282C61.5659 107.957 61.7543 108.565 62.3512 108.945C63.5813 109.728 65.2222 109.138 66.2594 108.306C67.2285 107.53 67.923 106.467 68.4382 105.347C68.5925 105.013 67.9298 105.02 67.8118 105.279V105.281Z" fill="#B099FE"/>
<path d="M63.7789 99.9819C63.4747 100.554 63.1706 101.124 62.8665 101.697C62.8234 101.779 62.7802 101.86 62.7371 101.94C62.7144 101.985 62.7666 102.024 62.7984 102.035C62.8597 102.06 62.9505 102.056 63.0117 102.044C63.1479 102.022 63.3204 101.972 63.3908 101.84C63.6949 101.268 63.999 100.697 64.3031 100.125C64.3463 100.043 64.3894 99.9614 64.4325 99.8819C64.4552 99.8365 64.403 99.7979 64.3712 99.7865C64.3099 99.7616 64.2192 99.7661 64.1579 99.7774C64.0217 99.8002 63.8492 99.8501 63.7789 99.9819Z" fill="#B099FE"/>
<path d="M68.6901 100.232C68.386 100.804 68.0819 101.374 67.7778 101.947C67.7346 102.028 67.6915 102.11 67.6484 102.19C67.5712 102.335 67.7188 102.476 67.8549 102.492C68.0274 102.512 68.1999 102.439 68.2816 102.283C68.5857 101.71 68.8899 101.14 69.194 100.568C69.2371 100.486 69.2802 100.404 69.3234 100.325C69.4005 100.179 69.253 100.039 69.1168 100.023C68.9443 100.002 68.7719 100.075 68.6901 100.232Z" fill="#B099FE"/>
</g>
<defs>
<clipPath id="clip0_309_69">
<rect width="310" height="192" fill="white"/>
</clipPath>
<clipPath id="clip1_309_69">
<rect width="59.0746" height="43.7152" fill="white" transform="translate(78.491 78.1182)"/>
</clipPath>
</defs>
</svg>
