<svg width="110" height="145" viewBox="0 0 110 145" fill="none" xmlns="http://www.w3.org/2000/svg">
<g filter="url(#filter0_d_6346_20818)">
<path d="M104 137H6L6.00001 17C6.00001 12.5817 9.58173 8.99999 14 9L96 9.00001C100.418 9.00001 104 12.5817 104 17V137Z" fill="#8C6EFF"/>
</g>
<g filter="url(#filter1_d_6346_20818)">
<path d="M55.0212 89.6752C65.9772 89.6752 74.8588 80.7936 74.8588 69.8376C74.8588 58.8816 65.9772 50 55.0212 50C44.0652 50 35.1836 58.8816 35.1836 69.8376C35.1836 80.7936 44.0652 89.6752 55.0212 89.6752Z" fill="#FFEA79"/>
<path d="M55.0202 87.138C45.4818 87.138 37.7207 79.3769 37.7207 69.8385C37.7207 60.3002 45.48 52.5391 55.0202 52.5391C64.5603 52.5391 72.3197 60.3002 72.3197 69.8385C72.3197 79.3769 64.5585 87.138 55.0202 87.138ZM55.0202 54.3507C46.48 54.3507 39.5324 61.2984 39.5324 69.8385C39.5324 78.3787 46.48 85.3264 55.0202 85.3264C63.5603 85.3264 70.508 78.3787 70.508 69.8385C70.508 61.2984 63.5603 54.3507 55.0202 54.3507Z" fill="#FFD15B"/>
<path d="M55.0208 58.0801L58.6078 65.3521L66.6335 66.5169L60.8271 72.1766L62.1967 80.1696L55.0208 76.3959L47.843 80.1696L49.2126 72.1766L43.4062 66.5169L51.4319 65.3521L55.0208 58.0801Z" fill="#FFD15B"/>
<path d="M67.5 56C67.5 58.5257 69.4743 60.5 72 60.5C69.4743 60.5 67.5 62.4743 67.5 65C67.5 62.4743 65.5257 60.5 63 60.5C65.5257 60.5 67.5 58.5257 67.5 56Z" fill="white"/>
<path d="M42 74C42 76.2451 43.7549 78 46 78C43.7549 78 42 79.7549 42 82C42 79.7549 40.2451 78 38 78C40.2451 78 42 76.2451 42 74Z" fill="white"/>
<path d="M45.5449 43.186H64.454L78.9995 9H60.0904L45.5449 43.186Z" fill="#8C6EFF"/>
<path d="M45.5449 43.186H55.454L69.9995 9H60.0904L45.5449 43.186Z" fill="#B099FE"/>
<path d="M64.454 43.186H45.5449L31 9H49.9091L64.454 43.186Z" fill="#3B27FF"/>
<path d="M64.454 43.186H55.5455L41 9H49.9091L64.454 43.186Z" fill="#8C6EFF"/>
<path d="M64.454 43.186H45.5449V44.6507H64.454V43.186Z" fill="#D7D7D7"/>
<path d="M60.3327 51.0002H58.8781C58.8781 48.3068 57.1375 46.1165 54.9993 46.1165C52.8612 46.1165 51.1206 48.3068 51.1206 51.0002H49.666C49.666 47.4986 52.0587 44.6514 54.9993 44.6514C57.94 44.6514 60.3327 47.4986 60.3327 51.0002Z" fill="#FFEA79"/>
</g>
<defs>
<filter id="filter0_d_6346_20818" x="0" y="5" width="110" height="140" filterUnits="userSpaceOnUse" color-interpolation-filters="sRGB">
<feFlood flood-opacity="0" result="BackgroundImageFix"/>
<feColorMatrix in="SourceAlpha" type="matrix" values="0 0 0 0 0 0 0 0 0 0 0 0 0 0 0 0 0 0 127 0" result="hardAlpha"/>
<feOffset dy="2"/>
<feGaussianBlur stdDeviation="3"/>
<feComposite in2="hardAlpha" operator="out"/>
<feColorMatrix type="matrix" values="0 0 0 0 0.231373 0 0 0 0 0.152941 0 0 0 0 1 0 0 0 0.2 0"/>
<feBlend mode="normal" in2="BackgroundImageFix" result="effect1_dropShadow_6346_20818"/>
<feBlend mode="normal" in="SourceGraphic" in2="effect1_dropShadow_6346_20818" result="shape"/>
</filter>
<filter id="filter1_d_6346_20818" x="29" y="8" width="51.999" height="84.6748" filterUnits="userSpaceOnUse" color-interpolation-filters="sRGB">
<feFlood flood-opacity="0" result="BackgroundImageFix"/>
<feColorMatrix in="SourceAlpha" type="matrix" values="0 0 0 0 0 0 0 0 0 0 0 0 0 0 0 0 0 0 127 0" result="hardAlpha"/>
<feOffset dy="1"/>
<feGaussianBlur stdDeviation="1"/>
<feComposite in2="hardAlpha" operator="out"/>
<feColorMatrix type="matrix" values="0 0 0 0 0.231373 0 0 0 0 0.152941 0 0 0 0 1 0 0 0 0.34 0"/>
<feBlend mode="normal" in2="BackgroundImageFix" result="effect1_dropShadow_6346_20818"/>
<feBlend mode="normal" in="SourceGraphic" in2="effect1_dropShadow_6346_20818" result="shape"/>
</filter>
</defs>
</svg>
