<svg width="302" height="148" viewBox="0 0 302 148" fill="none" xmlns="http://www.w3.org/2000/svg">
<g filter="url(#filter0_d_324_14)">
<path d="M298 137H200V59C200 54.5817 203.582 51 208 51L290 51C294.418 51 298 54.5817 298 59V137Z" fill="#B099FE"/>
</g>
<g filter="url(#filter1_d_324_14)">
<path d="M240 81H258.652L273 51H254.348L240 81Z" fill="#8C6EFF"/>
<path d="M240 81H249.652L264 51H254.348L240 81Z" fill="#B099FE"/>
<path d="M258 81H239.348L225 51H243.652L258 81Z" fill="#3B27FF"/>
<path d="M258 81H249.348L235 51H243.652L258 81Z" fill="#8C6EFF"/>
<path d="M258.454 81.1855H239.545V82.6507H258.454V81.1855Z" fill="#D7D7D7"/>
<path d="M254.333 89.0002H252.878C252.878 86.3068 251.137 84.1165 248.999 84.1165C246.861 84.1165 245.121 86.3068 245.121 89.0002H243.666C243.666 85.4986 246.059 82.6514 248.999 82.6514C251.94 82.6514 254.333 85.4986 254.333 89.0002Z" fill="#C7AA7E"/>
<path d="M249.021 127.675C259.977 127.675 268.859 118.794 268.859 107.838C268.859 96.8816 259.977 88 249.021 88C238.065 88 229.184 96.8816 229.184 107.838C229.184 118.794 238.065 127.675 249.021 127.675Z" fill="#C7AA7E"/>
<path d="M249.02 125.138C239.482 125.138 231.721 117.377 231.721 107.839C231.721 98.3002 239.48 90.5391 249.02 90.5391C258.56 90.5391 266.32 98.3002 266.32 107.839C266.32 117.377 258.558 125.138 249.02 125.138ZM249.02 92.3507C240.48 92.3507 233.532 99.2984 233.532 107.839C233.532 116.379 240.48 123.326 249.02 123.326C257.56 123.326 264.508 116.379 264.508 107.839C264.508 99.2984 257.56 92.3507 249.02 92.3507Z" fill="#A4885E"/>
<path d="M249.021 96.0801L252.608 103.352L260.633 104.517L254.827 110.177L256.197 118.17L249.021 114.396L241.843 118.17L243.213 110.177L237.406 104.517L245.432 103.352L249.021 96.0801Z" fill="#A4885E"/>
<path d="M261.5 94C261.5 96.5257 263.474 98.5 266 98.5C263.474 98.5 261.5 100.474 261.5 103C261.5 100.474 259.526 98.5 257 98.5C259.526 98.5 261.5 96.5257 261.5 94Z" fill="white"/>
<path d="M236 112C236 114.245 237.755 116 240 116C237.755 116 236 117.755 236 120C236 117.755 234.245 116 232 116C234.245 116 236 114.245 236 112Z" fill="white"/>
</g>
<g filter="url(#filter2_d_324_14)">
<path d="M102 137H4.00001L4 52C4 47.5817 7.58172 44 12 44H94C98.4183 44 102 47.5817 102 52V137Z" fill="#B099FE"/>
</g>
<g filter="url(#filter3_d_324_14)">
<path d="M44 74H62.6522L77 44H58.3478L44 74Z" fill="#8C6EFF"/>
<path d="M44 74H53.6522L68 44H58.3478L44 74Z" fill="#B099FE"/>
<path d="M62 74H43.3478L29 44H47.6522L62 74Z" fill="#3B27FF"/>
<path d="M62 74H53.2636L39 44H47.7364L62 74Z" fill="#8C6EFF"/>
<path d="M62.454 74.1855H43.5449V75.6507H62.454V74.1855Z" fill="#D7D7D7"/>
<path d="M58.3327 82.0002H56.8781C56.8781 79.3068 55.1375 77.1165 52.9993 77.1165C50.8612 77.1165 49.1206 79.3068 49.1206 82.0002H47.666C47.666 78.4986 50.0587 75.6514 52.9993 75.6514C55.94 75.6514 58.3327 78.4986 58.3327 82.0002Z" fill="#EDEDED"/>
<path d="M53.0212 120.675C63.9772 120.675 72.8588 111.794 72.8588 100.838C72.8588 89.8816 63.9772 81 53.0212 81C42.0652 81 33.1836 89.8816 33.1836 100.838C33.1836 111.794 42.0652 120.675 53.0212 120.675Z" fill="#EDEDED"/>
<path d="M53.0202 118.138C43.4818 118.138 35.7207 110.377 35.7207 100.839C35.7207 91.3002 43.48 83.5391 53.0202 83.5391C62.5603 83.5391 70.3197 91.3002 70.3197 100.839C70.3197 110.377 62.5585 118.138 53.0202 118.138ZM53.0202 85.3507C44.48 85.3507 37.5324 92.2984 37.5324 100.839C37.5324 109.379 44.48 116.326 53.0202 116.326C61.5603 116.326 68.508 109.379 68.508 100.839C68.508 92.2984 61.5603 85.3507 53.0202 85.3507Z" fill="#D6D6D6"/>
<path d="M53.0208 89.0801L56.6078 96.3521L64.6335 97.5169L58.8271 103.177L60.1967 111.17L53.0208 107.396L45.843 111.17L47.2126 103.177L41.4062 97.5169L49.4319 96.3521L53.0208 89.0801Z" fill="#D6D6D6"/>
<path d="M65.5 87C65.5 89.5257 67.4743 91.5 70 91.5C67.4743 91.5 65.5 93.4743 65.5 96C65.5 93.4743 63.5257 91.5 61 91.5C63.5257 91.5 65.5 89.5257 65.5 87Z" fill="white"/>
<path d="M40 105C40 107.245 41.7549 109 44 109C41.7549 109 40 110.755 40 113C40 110.755 38.2451 109 36 109C38.2451 109 40 107.245 40 105Z" fill="white"/>
</g>
<g filter="url(#filter4_d_324_14)">
<path d="M200 137H102L102 17C102 12.5817 105.582 8.99999 110 9L192 9.00001C196.418 9.00001 200 12.5817 200 17V137Z" fill="#8C6EFF"/>
</g>
<g filter="url(#filter5_d_324_14)">
<path d="M151.021 89.6752C161.977 89.6752 170.859 80.7936 170.859 69.8376C170.859 58.8816 161.977 50 151.021 50C140.065 50 131.184 58.8816 131.184 69.8376C131.184 80.7936 140.065 89.6752 151.021 89.6752Z" fill="#FFEA79"/>
<path d="M151.02 87.138C141.482 87.138 133.721 79.3769 133.721 69.8385C133.721 60.3002 141.48 52.5391 151.02 52.5391C160.56 52.5391 168.32 60.3002 168.32 69.8385C168.32 79.3769 160.558 87.138 151.02 87.138ZM151.02 54.3507C142.48 54.3507 135.532 61.2984 135.532 69.8385C135.532 78.3787 142.48 85.3264 151.02 85.3264C159.56 85.3264 166.508 78.3787 166.508 69.8385C166.508 61.2984 159.56 54.3507 151.02 54.3507Z" fill="#FFD15B"/>
<path d="M151.021 58.0801L154.608 65.3521L162.633 66.5169L156.827 72.1766L158.197 80.1696L151.021 76.3959L143.843 80.1696L145.213 72.1766L139.406 66.5169L147.432 65.3521L151.021 58.0801Z" fill="#FFD15B"/>
<path d="M163.5 56C163.5 58.5257 165.474 60.5 168 60.5C165.474 60.5 163.5 62.4743 163.5 65C163.5 62.4743 161.526 60.5 159 60.5C161.526 60.5 163.5 58.5257 163.5 56Z" fill="white"/>
<path d="M138 74C138 76.2451 139.755 78 142 78C139.755 78 138 79.7549 138 82C138 79.7549 136.245 78 134 78C136.245 78 138 76.2451 138 74Z" fill="white"/>
<path d="M141.545 43.186H160.454L174.999 9H156.09L141.545 43.186Z" fill="#8C6EFF"/>
<path d="M141.545 43.186H151.454L165.999 9H156.09L141.545 43.186Z" fill="#B099FE"/>
<path d="M160.454 43.186H141.545L127 9H145.909L160.454 43.186Z" fill="#3B27FF"/>
<path d="M160.454 43.186H151.546L137 9H145.909L160.454 43.186Z" fill="#8C6EFF"/>
<path d="M160.454 43.186H141.545V44.6507H160.454V43.186Z" fill="#D7D7D7"/>
<path d="M156.333 51.0002H154.878C154.878 48.3068 153.137 46.1165 150.999 46.1165C148.861 46.1165 147.121 48.3068 147.121 51.0002H145.666C145.666 47.4986 148.059 44.6514 150.999 44.6514C153.94 44.6514 156.333 47.4986 156.333 51.0002Z" fill="#FFEA79"/>
</g>
<defs>
<filter id="filter0_d_324_14" x="196" y="49" width="106" height="94" filterUnits="userSpaceOnUse" color-interpolation-filters="sRGB">
<feFlood flood-opacity="0" result="BackgroundImageFix"/>
<feColorMatrix in="SourceAlpha" type="matrix" values="0 0 0 0 0 0 0 0 0 0 0 0 0 0 0 0 0 0 127 0" result="hardAlpha"/>
<feOffset dy="2"/>
<feGaussianBlur stdDeviation="2"/>
<feComposite in2="hardAlpha" operator="out"/>
<feColorMatrix type="matrix" values="0 0 0 0 0.854902 0 0 0 0 0.807843 0 0 0 0 0.996078 0 0 0 1 0"/>
<feBlend mode="normal" in2="BackgroundImageFix" result="effect1_dropShadow_324_14"/>
<feBlend mode="normal" in="SourceGraphic" in2="effect1_dropShadow_324_14" result="shape"/>
</filter>
<filter id="filter1_d_324_14" x="223" y="50" width="52" height="80.6753" filterUnits="userSpaceOnUse" color-interpolation-filters="sRGB">
<feFlood flood-opacity="0" result="BackgroundImageFix"/>
<feColorMatrix in="SourceAlpha" type="matrix" values="0 0 0 0 0 0 0 0 0 0 0 0 0 0 0 0 0 0 127 0" result="hardAlpha"/>
<feOffset dy="1"/>
<feGaussianBlur stdDeviation="1"/>
<feComposite in2="hardAlpha" operator="out"/>
<feColorMatrix type="matrix" values="0 0 0 0 0.231373 0 0 0 0 0.152941 0 0 0 0 1 0 0 0 0.34 0"/>
<feBlend mode="normal" in2="BackgroundImageFix" result="effect1_dropShadow_324_14"/>
<feBlend mode="normal" in="SourceGraphic" in2="effect1_dropShadow_324_14" result="shape"/>
</filter>
<filter id="filter2_d_324_14" x="0" y="42" width="106" height="101" filterUnits="userSpaceOnUse" color-interpolation-filters="sRGB">
<feFlood flood-opacity="0" result="BackgroundImageFix"/>
<feColorMatrix in="SourceAlpha" type="matrix" values="0 0 0 0 0 0 0 0 0 0 0 0 0 0 0 0 0 0 127 0" result="hardAlpha"/>
<feOffset dy="2"/>
<feGaussianBlur stdDeviation="2"/>
<feComposite in2="hardAlpha" operator="out"/>
<feColorMatrix type="matrix" values="0 0 0 0 0.854902 0 0 0 0 0.807843 0 0 0 0 0.996078 0 0 0 1 0"/>
<feBlend mode="normal" in2="BackgroundImageFix" result="effect1_dropShadow_324_14"/>
<feBlend mode="normal" in="SourceGraphic" in2="effect1_dropShadow_324_14" result="shape"/>
</filter>
<filter id="filter3_d_324_14" x="27" y="43" width="52" height="80.6753" filterUnits="userSpaceOnUse" color-interpolation-filters="sRGB">
<feFlood flood-opacity="0" result="BackgroundImageFix"/>
<feColorMatrix in="SourceAlpha" type="matrix" values="0 0 0 0 0 0 0 0 0 0 0 0 0 0 0 0 0 0 127 0" result="hardAlpha"/>
<feOffset dy="1"/>
<feGaussianBlur stdDeviation="1"/>
<feComposite in2="hardAlpha" operator="out"/>
<feColorMatrix type="matrix" values="0 0 0 0 0.231373 0 0 0 0 0.152941 0 0 0 0 1 0 0 0 0.34 0"/>
<feBlend mode="normal" in2="BackgroundImageFix" result="effect1_dropShadow_324_14"/>
<feBlend mode="normal" in="SourceGraphic" in2="effect1_dropShadow_324_14" result="shape"/>
</filter>
<filter id="filter4_d_324_14" x="98" y="9" width="106" height="136" filterUnits="userSpaceOnUse" color-interpolation-filters="sRGB">
<feFlood flood-opacity="0" result="BackgroundImageFix"/>
<feColorMatrix in="SourceAlpha" type="matrix" values="0 0 0 0 0 0 0 0 0 0 0 0 0 0 0 0 0 0 127 0" result="hardAlpha"/>
<feOffset dy="4"/>
<feGaussianBlur stdDeviation="2"/>
<feComposite in2="hardAlpha" operator="out"/>
<feColorMatrix type="matrix" values="0 0 0 0 0.231373 0 0 0 0 0.152941 0 0 0 0 1 0 0 0 0.2 0"/>
<feBlend mode="normal" in2="BackgroundImageFix" result="effect1_dropShadow_324_14"/>
<feBlend mode="normal" in="SourceGraphic" in2="effect1_dropShadow_324_14" result="shape"/>
</filter>
<filter id="filter5_d_324_14" x="125" y="8" width="51.9995" height="84.6753" filterUnits="userSpaceOnUse" color-interpolation-filters="sRGB">
<feFlood flood-opacity="0" result="BackgroundImageFix"/>
<feColorMatrix in="SourceAlpha" type="matrix" values="0 0 0 0 0 0 0 0 0 0 0 0 0 0 0 0 0 0 127 0" result="hardAlpha"/>
<feOffset dy="1"/>
<feGaussianBlur stdDeviation="1"/>
<feComposite in2="hardAlpha" operator="out"/>
<feColorMatrix type="matrix" values="0 0 0 0 0.231373 0 0 0 0 0.152941 0 0 0 0 1 0 0 0 0.34 0"/>
<feBlend mode="normal" in2="BackgroundImageFix" result="effect1_dropShadow_324_14"/>
<feBlend mode="normal" in="SourceGraphic" in2="effect1_dropShadow_324_14" result="shape"/>
</filter>
</defs>
</svg>
