<svg width="48" height="77" viewBox="0 0 48 77" fill="none" xmlns="http://www.w3.org/2000/svg">
<path d="M15 30H33.6522L48 0H29.3478L15 30Z" fill="#8C6EFF"/>
<path opacity="0.5" d="M15 30H24.6522L39 0H29.3478L15 30Z" fill="#B099FE"/>
<path d="M33 30H14.3478L0 0H18.6522L33 30Z" fill="#3B27FF"/>
<path opacity="0.5" d="M33 30H24.2636L10 0H18.7364L33 30Z" fill="#8C6EFF"/>
<path d="M33.4546 30.1855H14.5455V31.6507H33.4546V30.1855Z" fill="#D7D7D7"/>
<path d="M29.3334 38.0002H27.8788C27.8788 35.3068 26.1382 33.1165 24 33.1165C21.8618 33.1165 20.1212 35.3068 20.1212 38.0002H18.6667C18.6667 34.4986 21.0594 31.6514 24 31.6514C26.9406 31.6514 29.3334 34.4986 29.3334 38.0002Z" fill="#EDEDED"/>
<path d="M24.0208 76.6752C34.9768 76.6752 43.8584 67.7936 43.8584 56.8376C43.8584 45.8816 34.9768 37 24.0208 37C13.0648 37 4.18323 45.8816 4.18323 56.8376C4.18323 67.7936 13.0648 76.6752 24.0208 76.6752Z" fill="#EDEDED"/>
<g filter="url(#filter0_i_318_18)">
<path d="M24.0208 74.1375C14.4825 74.1375 6.72134 66.3764 6.72134 56.838C6.72134 47.2997 14.4807 39.5386 24.0208 39.5386C33.561 39.5386 41.3203 47.2997 41.3203 56.838C41.3203 66.3764 33.5592 74.1375 24.0208 74.1375ZM24.0208 41.3502C15.4807 41.3502 8.533 48.2979 8.533 56.838C8.533 65.3782 15.4807 72.3259 24.0208 72.3259C32.561 72.3259 39.5086 65.3782 39.5086 56.838C39.5086 48.2979 32.561 41.3502 24.0208 41.3502Z" fill="#D6D6D6"/>
</g>
<g filter="url(#filter1_i_318_18)">
<path d="M24.0208 45.0801L27.6079 52.3521L35.6335 53.5169L29.8272 59.1766L31.1968 67.1696L24.0208 63.3959L16.8431 67.1696L18.2127 59.1766L12.4063 53.5169L20.4319 52.3521L24.0208 45.0801Z" fill="#D6D6D6"/>
</g>
<g filter="url(#filter2_d_318_18)">
<path d="M36.5 43C36.5 45.5257 38.4743 47.5 41 47.5C38.4743 47.5 36.5 49.4743 36.5 52C36.5 49.4743 34.5257 47.5 32 47.5C34.5257 47.5 36.5 45.5257 36.5 43Z" fill="white"/>
</g>
<g filter="url(#filter3_d_318_18)">
<path d="M11 61C11 63.2451 12.7549 65 15 65C12.7549 65 11 66.7549 11 69C11 66.7549 9.24503 65 6.99997 65C9.24503 65 11 63.2451 11 61Z" fill="white"/>
</g>
<defs>
<filter id="filter0_i_318_18" x="6.72134" y="39.5386" width="34.5989" height="34.5989" filterUnits="userSpaceOnUse" color-interpolation-filters="sRGB">
<feFlood flood-opacity="0" result="BackgroundImageFix"/>
<feBlend mode="normal" in="SourceGraphic" in2="BackgroundImageFix" result="shape"/>
<feColorMatrix in="SourceAlpha" type="matrix" values="0 0 0 0 0 0 0 0 0 0 0 0 0 0 0 0 0 0 127 0" result="hardAlpha"/>
<feOffset/>
<feGaussianBlur stdDeviation="0.5"/>
<feComposite in2="hardAlpha" operator="arithmetic" k2="-1" k3="1"/>
<feColorMatrix type="matrix" values="0 0 0 0 0 0 0 0 0 0 0 0 0 0 0 0 0 0 0.1 0"/>
<feBlend mode="normal" in2="shape" result="effect1_innerShadow_318_18"/>
</filter>
<filter id="filter1_i_318_18" x="12.4063" y="45.0801" width="23.2272" height="22.0896" filterUnits="userSpaceOnUse" color-interpolation-filters="sRGB">
<feFlood flood-opacity="0" result="BackgroundImageFix"/>
<feBlend mode="normal" in="SourceGraphic" in2="BackgroundImageFix" result="shape"/>
<feColorMatrix in="SourceAlpha" type="matrix" values="0 0 0 0 0 0 0 0 0 0 0 0 0 0 0 0 0 0 127 0" result="hardAlpha"/>
<feOffset/>
<feGaussianBlur stdDeviation="0.5"/>
<feComposite in2="hardAlpha" operator="arithmetic" k2="-1" k3="1"/>
<feColorMatrix type="matrix" values="0 0 0 0 0 0 0 0 0 0 0 0 0 0 0 0 0 0 0.1 0"/>
<feBlend mode="normal" in2="shape" result="effect1_innerShadow_318_18"/>
</filter>
<filter id="filter2_d_318_18" x="31" y="42" width="11" height="11" filterUnits="userSpaceOnUse" color-interpolation-filters="sRGB">
<feFlood flood-opacity="0" result="BackgroundImageFix"/>
<feColorMatrix in="SourceAlpha" type="matrix" values="0 0 0 0 0 0 0 0 0 0 0 0 0 0 0 0 0 0 127 0" result="hardAlpha"/>
<feOffset/>
<feGaussianBlur stdDeviation="0.5"/>
<feComposite in2="hardAlpha" operator="out"/>
<feColorMatrix type="matrix" values="0 0 0 0 0.764583 0 0 0 0 0.753562 0 0 0 0 0.725293 0 0 0 1 0"/>
<feBlend mode="normal" in2="BackgroundImageFix" result="effect1_dropShadow_318_18"/>
<feBlend mode="normal" in="SourceGraphic" in2="effect1_dropShadow_318_18" result="shape"/>
</filter>
<filter id="filter3_d_318_18" x="5.99997" y="60" width="10" height="10" filterUnits="userSpaceOnUse" color-interpolation-filters="sRGB">
<feFlood flood-opacity="0" result="BackgroundImageFix"/>
<feColorMatrix in="SourceAlpha" type="matrix" values="0 0 0 0 0 0 0 0 0 0 0 0 0 0 0 0 0 0 127 0" result="hardAlpha"/>
<feOffset/>
<feGaussianBlur stdDeviation="0.5"/>
<feComposite in2="hardAlpha" operator="out"/>
<feColorMatrix type="matrix" values="0 0 0 0 0.764583 0 0 0 0 0.753562 0 0 0 0 0.725293 0 0 0 1 0"/>
<feBlend mode="normal" in2="BackgroundImageFix" result="effect1_dropShadow_318_18"/>
<feBlend mode="normal" in="SourceGraphic" in2="effect1_dropShadow_318_18" result="shape"/>
</filter>
</defs>
</svg>
