<svg width="32" height="54" viewBox="0 0 32 54" fill="none" xmlns="http://www.w3.org/2000/svg">
<path fill-rule="evenodd" clip-rule="evenodd" d="M5.09094 29C5.04684 29.1606 5.00259 29.3393 5.01587 29.5427C5.26916 29.4797 5.27298 29.5163 5.27826 29.5669C5.28352 29.6174 5.29024 29.6817 5.54692 29.6751C5.58064 29.7678 5.57221 29.7744 5.53849 29.7877L5.2266 29.9929C5.1419 30.0188 5.11762 29.9951 5.09216 29.9704C5.07202 29.9507 5.05114 29.9304 4.99901 29.9333C4.97516 30.0157 4.90814 30.024 4.83001 30.0336C4.77005 30.0409 4.70354 30.0491 4.64497 30.0922C4.83042 30.0724 4.90629 30.1452 4.83885 30.2313L5.07487 30.1121C5.21363 30.2145 5.107 30.2592 4.99873 30.3046C4.88995 30.3502 4.77952 30.3965 4.91472 30.5027L4.75456 30.4365C4.78186 30.4677 4.79308 30.515 4.80588 30.5689C4.83653 30.698 4.87618 30.865 5.1676 30.9397C5.10859 30.9596 4.96529 30.9861 4.93157 30.9397C4.90589 31.0521 4.98563 31.1746 5.06302 31.2934C5.1634 31.4475 5.25982 31.5956 5.11702 31.7078L4.99058 31.6879C5.00172 31.7032 5.03125 31.7178 5.06125 31.7326C5.12208 31.7626 5.18484 31.7936 5.10016 31.8336C5.08263 31.8336 5.06206 31.8312 5.04231 31.8289C5.00509 31.8246 4.9708 31.8206 4.96529 31.8336L4.97663 31.8405C5.03211 31.8745 5.17888 31.9642 5.10859 32.0256L4.96529 31.9726C4.8623 32.1263 5.01414 32.2355 5.1671 32.3456C5.26452 32.4156 5.3624 32.486 5.39519 32.5685C5.03218 32.5685 4.91142 32.7588 4.85113 32.8538L4.84728 32.8598H4.7967C4.76954 33.0433 4.90347 33.1938 5.04275 33.3503C5.11954 33.4366 5.19796 33.5247 5.25189 33.6212C5.01644 33.7175 4.99793 33.8946 4.97875 34.078C4.96498 34.2097 4.95086 34.3447 4.85571 34.4555C4.92314 34.4157 5.14231 34.4621 5.18446 34.5084C5.15431 34.5347 5.18938 34.5673 5.22091 34.5966C5.26874 34.6411 5.30845 34.6779 5.10016 34.674V34.6541C4.83437 34.6916 4.84408 34.7853 4.85309 34.8723C4.85523 34.8929 4.85732 34.9132 4.85571 34.9322L5.30247 34.952C4.96424 35.09 5.0426 35.273 5.11293 35.4372C5.17756 35.5881 5.23541 35.7231 4.95686 35.7929C5.01051 35.8253 5.0379 35.8609 5.06473 35.8958C5.09271 35.9321 5.1201 35.9677 5.17603 35.9982H4.94L4.93751 36.0054C4.88006 36.173 4.84812 36.2661 4.90629 36.4815L4.7377 36.4351C4.72894 36.5005 4.91582 36.5408 5.09862 36.5803C5.2677 36.6168 5.43329 36.6525 5.43734 36.7066L5.0833 36.7397C5.0833 36.8115 5.05058 36.8825 5.01796 36.9533C4.95126 37.0981 4.88504 37.2418 5.10016 37.3886C5.04959 37.3886 4.94843 37.3819 4.93157 37.3422C4.92987 37.3623 4.9188 37.3904 4.90632 37.422C4.85952 37.5406 4.7928 37.7096 5.12466 37.7021C4.88966 37.7264 5.15093 37.9316 5.28561 38.0374L5.04959 38.0176C5.10207 38.0347 5.14774 38.0489 5.18783 38.0614L5.18784 38.0614C5.37954 38.121 5.44349 38.1409 5.51321 38.2559C5.48275 38.2858 5.35602 38.2833 5.37526 38.2533C5.37855 38.2499 5.38237 38.2463 5.38676 38.2427C5.38105 38.2465 5.37732 38.25 5.37526 38.2533C5.33272 38.297 5.37873 38.3174 5.42868 38.3395C5.48616 38.365 5.54886 38.3928 5.48792 38.4612L5.33619 38.4148C5.32333 38.5006 5.36437 38.5133 5.46303 38.5438C5.49379 38.5534 5.53014 38.5646 5.57221 38.5803C5.62092 38.6186 5.60217 38.6751 5.54285 38.7221C5.51703 38.7172 5.48914 38.7083 5.46053 38.6993C5.36752 38.6699 5.26698 38.6381 5.20577 38.7297C5.15264 38.7069 5.13126 38.6563 5.11136 38.6091C5.09172 38.5626 5.07351 38.5195 5.02763 38.5098C4.95809 38.6137 4.89021 38.5986 4.82066 38.5832C4.75163 38.5679 4.68095 38.5522 4.60536 38.6521L4.63134 38.6747C4.67132 38.7092 4.69215 38.7272 4.69855 38.7493C4.70552 38.7734 4.69545 38.8024 4.67441 38.863C4.6678 38.882 4.66012 38.9041 4.65155 38.9302L4.92206 38.6844L4.8099 38.9819C4.85254 38.964 4.88956 38.9227 4.9242 38.884C4.96459 38.8389 5.00175 38.7974 5.04082 38.8009L5.02757 38.8392C5.0096 38.8907 5.00177 38.9131 5.00755 38.9312C5.012 38.9452 5.02456 38.9566 5.04681 38.9767L5.04682 38.9767C5.05779 38.9866 5.07113 38.9987 5.08701 39.0143C4.96829 38.9321 4.92164 39.004 4.87274 39.0792C4.86187 39.096 4.85089 39.1129 4.83898 39.1283C4.81802 39.1234 4.79557 39.1174 4.77142 39.11C4.78836 39.1198 4.80747 39.1304 4.82798 39.1417C4.79409 39.1806 4.75165 39.205 4.68454 39.1824L4.51959 38.8397C4.35024 38.8154 4.27333 38.9244 4.18899 39.0439C4.11561 39.1478 4.0366 39.2597 3.88619 39.2989H4.01155C4.03916 39.3917 3.97713 39.4174 3.91009 39.4453C3.86502 39.464 3.81769 39.4836 3.79381 39.5252C3.74421 39.4426 3.68715 39.4184 3.62544 39.3922L3.62543 39.3922L3.62542 39.3922L3.62541 39.3922L3.62541 39.3922L3.6254 39.3922L3.62539 39.3922L3.62539 39.3922L3.62538 39.3922L3.62537 39.3922L3.62536 39.3922L3.62535 39.3922L3.62526 39.3922C3.60494 39.3836 3.58412 39.3747 3.56289 39.3635C3.58561 39.3932 3.56098 39.4201 3.52931 39.4546C3.47824 39.5103 3.40886 39.586 3.49031 39.7257L3.27258 39.674C3.13677 39.7286 3.14064 39.8535 3.14451 39.9782C3.14797 40.0899 3.15143 40.2014 3.05485 40.2625C3.03907 40.2007 3.00655 40.1645 2.97688 40.1315C2.93207 40.0816 2.89376 40.039 2.92948 39.9262C2.91729 39.937 2.90488 39.9468 2.89311 39.9562L2.8931 39.9562C2.84119 39.9975 2.8019 40.0287 2.85031 40.0814C2.80915 40.0699 2.79419 40.1238 2.77741 40.1844C2.75654 40.2597 2.73285 40.3451 2.65237 40.3272C2.65619 40.3459 2.66611 40.3679 2.6765 40.391C2.70198 40.4475 2.73031 40.5103 2.67876 40.5471C2.66066 40.5382 2.64566 40.5202 2.63802 40.5098C2.63652 40.5069 2.63472 40.5043 2.63258 40.5018C2.63258 40.5018 2.63453 40.505 2.63802 40.5098C2.64577 40.5244 2.64577 40.5441 2.64577 40.5655C2.64577 40.6168 2.64577 40.6786 2.75134 40.7088C2.51014 40.6608 2.39488 40.8071 2.28192 40.9504C2.18167 41.0776 2.08324 41.2026 1.90021 41.1874C1.82763 41.3555 1.72866 41.5495 1.64289 41.6918C1.63439 41.6814 1.62589 41.6737 1.61916 41.6676C1.60772 41.6572 1.60137 41.6514 1.6087 41.6449L1.61649 41.6401C1.61302 41.6418 1.61046 41.6434 1.6087 41.6449C1.51305 41.7071 1.56729 41.7822 1.62227 41.8583C1.68143 41.9402 1.74146 42.0233 1.61649 42.0928C1.4628 42.0928 1.48762 42.0272 1.50401 41.9839C1.51436 41.9565 1.52135 41.938 1.47794 41.9505C1.2695 41.8519 1.25289 41.9451 1.233 42.0567C1.21638 42.1501 1.19746 42.2562 1.06227 42.2739V42.2222C0.958521 42.2537 0.96728 42.3594 0.977058 42.4775C0.985314 42.5771 0.994296 42.6855 0.936907 42.7654C0.936907 42.7654 0.903917 42.7396 0.877526 42.7396C1.00109 42.9563 0.983629 43.2296 0.970467 43.4356L0.969897 43.4445C0.920802 43.4033 0.899872 43.3766 0.885679 43.3586C0.859818 43.3257 0.856329 43.3212 0.745567 43.3087C0.74278 43.3497 0.789433 43.3676 0.843263 43.3882C0.916876 43.4165 1.00391 43.4499 0.996289 43.5545C0.965338 43.562 0.932687 43.5757 0.897502 43.5905C0.812678 43.6261 0.713132 43.6679 0.587216 43.645C0.593814 43.6159 0.602062 43.5884 0.610309 43.5609C0.618557 43.5334 0.626804 43.506 0.633402 43.4769C0.467015 43.4852 0.488218 43.5747 0.507928 43.6579C0.5187 43.7034 0.529026 43.7469 0.508041 43.7744L0.409072 43.7356C0.390342 43.8641 0.4366 43.9463 0.481458 44.026C0.531409 44.1147 0.579623 44.2004 0.534433 44.3435L0.620206 44.3306C0.732694 44.4341 0.684925 44.4566 0.63521 44.48C0.588695 44.5018 0.540476 44.5245 0.620206 44.6151H0.356289C0.368098 44.6449 0.386379 44.6852 0.40749 44.7318C0.468941 44.8674 0.554377 45.056 0.574021 45.1907C0.439801 45.1062 0.371752 44.9636 0.309147 44.8324C0.285581 44.783 0.262787 44.7352 0.237526 44.6927C0.217732 44.7962 0.204536 45.0485 0.323299 45.1131C0.318682 45.1026 0.31227 45.0913 0.305738 45.0798C0.284266 45.0421 0.261494 45.0021 0.296907 44.9773C0.475052 45.1261 0.574021 45.2942 0.560825 45.4882C0.286371 45.4564 0.264913 45.6144 0.241143 45.7894C0.221485 45.9342 0.200245 46.0906 0.0329897 46.1609C0.138557 46.342 0.125361 46.523 0.0989691 46.7235C0.0972157 46.7493 0.0952294 46.7753 0.0932267 46.8016C0.0801576 46.9727 0.0663949 47.1529 0.112165 47.338C0.293967 47.2278 0.301888 47.2589 0.313471 47.3043C0.325008 47.3495 0.340178 47.409 0.534433 47.3574C0.568563 47.4354 0.583076 47.4702 0.569518 47.4908C0.544947 47.4967 0.505308 47.488 0.460501 47.4781L0.460427 47.4781L0.460414 47.4781C0.358757 47.4556 0.230544 47.4274 0.191366 47.5511C0.249913 47.4726 0.311338 47.5055 0.372953 47.5385C0.429203 47.5686 0.485611 47.5988 0.540131 47.5444L0.402474 47.8424C0.350832 47.8967 0.321875 47.868 0.291391 47.8379C0.267349 47.8141 0.242356 47.7894 0.204536 47.8036C0.219562 47.9325 0.172565 47.9586 0.117123 47.9895H0.11712C0.0751832 48.0128 0.0284141 48.0389 0 48.1141C0.131959 48.0494 0.217732 48.1335 0.197938 48.2757L0.329897 48.0494C0.469683 48.1673 0.412459 48.2554 0.355518 48.343C0.296891 48.4332 0.238563 48.523 0.395876 48.6444L0.244124 48.5926C0.279578 48.6292 0.311865 48.6917 0.348449 48.7624C0.441221 48.9419 0.561619 49.1747 0.83134 49.1747C0.798351 49.22 0.719175 49.2976 0.659794 49.2459C0.715495 49.4279 0.874242 49.57 1.02576 49.7057C1.1973 49.8593 1.35958 50.0047 1.35258 50.1901L1.25361 50.216C1.27551 50.231 1.30687 50.2368 1.33802 50.2425C1.40071 50.254 1.46258 50.2654 1.44495 50.3518C1.43589 50.3563 1.42579 50.3604 1.41577 50.3644C1.38198 50.3781 1.349 50.3915 1.35918 50.4165L1.37338 50.4198C1.44142 50.4356 1.61748 50.4764 1.62969 50.5782H1.49113C1.5722 50.8291 1.78571 50.8799 1.99606 50.93C2.11098 50.9573 2.22496 50.9844 2.31588 51.0438C2.10474 51.2314 2.2301 51.5224 2.31588 51.6582L2.28289 51.6841C2.50573 51.9211 2.7865 51.9912 3.07132 52.0622L3.07134 52.0622L3.07136 52.0622L3.07138 52.0622L3.0714 52.0623L3.07142 52.0623L3.07144 52.0623L3.07145 52.0623L3.07147 52.0623L3.07149 52.0623L3.0715 52.0623L3.07152 52.0623L3.07153 52.0623L3.07154 52.0623L3.07156 52.0623C3.18301 52.0901 3.29508 52.118 3.40454 52.1562C3.41279 52.4111 3.66121 52.5749 3.91553 52.7426C4.06773 52.8429 4.22203 52.9447 4.32825 53.0682C4.29526 52.997 4.44041 52.8741 4.51959 52.8806C4.54297 52.9163 4.59809 52.9138 4.64865 52.9115C4.72647 52.9081 4.79351 52.9051 4.71753 53.0423L4.69113 53.0229C4.64937 53.2568 4.81805 53.311 4.96294 53.3574L4.96302 53.3575C4.97831 53.3624 4.99334 53.3672 5.00783 53.3721L5.15959 53.0617C5.25196 53.3592 5.52247 53.4174 5.7732 53.4303C5.79431 53.4314 5.81519 53.4323 5.83576 53.4332H5.83578H5.8358C6.05949 53.4429 6.24665 53.451 6.30103 53.6761C6.35286 53.6492 6.40611 53.6389 6.45946 53.6285C6.52155 53.6165 6.58379 53.6044 6.64412 53.5662L6.60454 53.7472C6.6321 53.756 6.65822 53.7645 6.68329 53.7727C6.89831 53.8426 7.03624 53.8875 7.3435 53.8701L7.26433 53.9995C7.3695 54.0098 7.443 53.8649 7.51355 53.7259C7.57577 53.6032 7.63568 53.4851 7.71299 53.4821L7.75258 53.7602C7.8407 53.7672 7.93078 53.7873 8.02148 53.8074C8.26356 53.8612 8.51009 53.916 8.73567 53.7278C8.73567 53.7666 8.73567 53.8443 8.67629 53.8637C8.69387 53.8651 8.71527 53.8676 8.73928 53.8703C8.92414 53.8917 9.2638 53.9309 9.20641 53.653C9.27011 53.8283 9.54862 53.5845 9.68577 53.4562L9.69897 53.6373C9.71906 53.5848 9.73454 53.5402 9.74792 53.5017L9.74793 53.5017C9.80047 53.3505 9.82092 53.2916 9.96289 53.204C10.0135 53.2164 10.0398 53.3238 9.97227 53.31L9.96289 53.3075C9.9662 53.3085 9.96932 53.3094 9.97227 53.31C10.0498 53.329 10.0693 53.2869 10.0903 53.2416C10.1141 53.1905 10.1398 53.1351 10.2532 53.1587L10.2136 53.2881C10.348 53.267 10.3554 53.2287 10.3749 53.1279C10.3793 53.1049 10.3844 53.0787 10.3918 53.0488C10.4643 52.9453 10.6953 52.9905 10.7744 53.1328C10.7612 53.0294 10.7942 52.8806 10.8998 52.8871C10.9328 52.9388 10.9196 52.9841 10.9064 53.01C11.0625 53.023 11.1333 52.9328 11.1971 52.8515C11.2601 52.7713 11.3163 52.6998 11.4408 52.7448C11.4738 52.7965 11.4936 52.8159 11.52 52.8289C11.331 52.9125 11.1814 52.9741 11.165 52.9677L11.1637 52.9647C11.1632 52.9662 11.1637 52.9671 11.165 52.9677C11.1898 53.0238 11.2296 53.0524 11.2678 53.0799C11.3326 53.1265 11.393 53.1699 11.3682 53.3398C11.3838 53.3069 11.4001 53.2684 11.4174 53.2274C11.4952 53.0431 11.5944 52.8083 11.7509 52.803C11.756 52.808 11.7621 52.812 11.7684 52.8162C11.7784 52.8228 11.789 52.8299 11.7971 52.8418V52.8677C11.8367 52.8677 11.8631 52.8353 11.8763 52.7965C11.9357 52.7965 11.9819 52.7965 12.028 52.7642C12.0911 52.845 12.1792 52.7825 12.2555 52.7283C12.2829 52.7088 12.3089 52.6904 12.3315 52.6801C12.2872 52.6177 12.2824 52.5746 12.2786 52.5404C12.2735 52.4942 12.2701 52.4641 12.1738 52.4243C12.1729 52.4224 12.1705 52.4214 12.1666 52.4214L12.1738 52.4243C12.1765 52.43 12.1668 52.4434 12.1472 52.4622C12.148 52.4561 12.1507 52.4451 12.1601 52.4405C12.1502 52.4373 12.1419 52.4341 12.1337 52.4308L12.1336 52.4308C12.1254 52.4276 12.1171 52.4244 12.1073 52.4211L12.1205 52.4793L12.1469 52.4599V52.4625C12.1394 52.4697 12.1305 52.4776 12.1204 52.4861C12.1187 52.4894 12.1166 52.4923 12.1143 52.495L12.1107 52.4992C12.1055 52.5051 12.1006 52.5106 12.1006 52.5184V52.499C12.0753 52.5145 12.0484 52.533 12.0193 52.5531C11.9878 52.5748 11.9536 52.5984 11.9159 52.6219C11.9291 52.5055 11.9489 52.402 12.0874 52.4408L12.0769 52.3749L12.0769 52.3749L12.0768 52.3748L12.0768 52.3747L12.0768 52.3746C12.0608 52.2739 12.0455 52.1782 12.0346 52.1304C12.1607 52.2127 12.2978 52.2496 12.4166 52.2815C12.5216 52.3097 12.6123 52.334 12.668 52.3826C12.7111 52.3158 12.7673 52.2533 12.8241 52.1901C12.9762 52.021 13.1324 51.8473 13.0507 51.5742C13.07 51.5128 13.1315 51.5514 13.1838 51.5842C13.2031 51.5964 13.2212 51.6077 13.2355 51.613C13.2327 51.6346 13.2231 51.6528 13.2137 51.6704C13.2007 51.6951 13.1882 51.7186 13.1959 51.7488C13.2134 51.6928 13.2544 51.6376 13.2958 51.5817C13.379 51.4695 13.4643 51.3544 13.3674 51.2249C13.4771 51.1989 13.4964 51.2581 13.5087 51.2961C13.5209 51.3335 13.5264 51.3503 13.6049 51.2443L13.6313 51.3219C13.948 51.2637 13.9876 50.9986 14.0206 50.7528L14.0216 50.7433C14.0466 50.4978 14.0696 50.2714 14.4025 50.1807C14.4146 50.1785 14.4277 50.175 14.4429 50.1707C14.4289 50.1738 14.4155 50.1772 14.4025 50.1807C14.3779 50.1851 14.3573 50.1837 14.3307 50.1707C14.6154 49.9515 14.7417 49.64 14.8687 49.3268C14.989 49.0302 15.1099 48.7319 15.3666 48.5086C15.4656 48.3969 15.4123 48.329 15.346 48.2446L15.346 48.2446C15.324 48.2166 15.3006 48.1867 15.2808 48.1529L15.4854 48.1723L15.3138 47.9265C15.2676 47.8019 15.3795 47.7232 15.4972 47.6404C15.6483 47.5341 15.809 47.4211 15.6569 47.1957L15.5184 47.2151C15.534 47.1756 15.5368 47.119 15.5395 47.0629C15.5448 46.9537 15.55 46.8467 15.6503 46.8723L15.6445 46.8689L15.6354 46.864C15.6002 46.8455 15.5307 46.809 15.5975 46.7817H15.7031C15.6635 46.6847 15.6107 46.5813 15.5513 46.4842C15.5896 46.3861 15.6752 46.3897 15.7617 46.3934C15.8691 46.3979 15.9781 46.4025 16 46.2126C15.967 46.0768 15.7163 45.844 15.6437 45.8957C15.6371 45.9474 15.5711 46.0186 15.4656 46.0251L15.4194 45.9151L15.3928 45.9128L15.3929 45.8762C15.3929 45.4387 15.3529 45.0104 15.2763 44.5945L15.294 44.5957L15.2747 44.5858C15.2632 44.5239 15.251 44.4623 15.2379 44.401C15.2663 44.4026 15.2911 44.4123 15.3072 44.434C15.3638 44.3589 15.333 44.3382 15.3039 44.3187C15.2753 44.2995 15.2484 44.2814 15.3072 44.2142C15.3233 44.1984 15.335 44.1997 15.3459 44.2076L15.3534 44.2142C15.3509 44.2117 15.3484 44.2095 15.3459 44.2076L15.2412 44.1171C15.2614 44.1193 15.2891 44.1126 15.3162 44.106C15.369 44.0932 15.4193 44.081 15.4062 44.1365C15.4571 44.0067 15.3787 43.9351 15.3158 43.8777C15.2565 43.8236 15.211 43.7821 15.3006 43.7162L15.3204 43.7291C15.2245 43.5898 15.1745 43.608 15.1024 43.6343L15.1023 43.6343C15.0821 43.6417 15.0602 43.6497 15.035 43.655C15.019 43.6069 15.0024 43.5589 14.9854 43.5112L15.2412 43.3281L15.0433 43.3669C15.0433 43.3669 15.0301 43.2764 15.1093 43.257C15.017 43.2256 15.003 43.243 14.9871 43.2627C14.9743 43.2787 14.9603 43.2961 14.9026 43.2906L14.8978 43.2784C14.9442 43.1911 14.9062 43.1176 14.871 43.0493C14.8252 42.9607 14.784 42.881 14.9377 42.7913C14.86 42.7974 14.8453 42.8365 14.8342 42.8661C14.8217 42.8992 14.8138 42.9202 14.7266 42.8689C14.886 42.7695 14.8306 42.7383 14.7612 42.6993C14.7043 42.6673 14.6381 42.6301 14.6738 42.5455C14.7502 42.5261 14.789 42.5448 14.8146 42.5571C14.8487 42.5735 14.8595 42.5787 14.9047 42.4679C14.7221 42.5029 14.7378 42.3975 14.7533 42.2925C14.7636 42.2229 14.7739 42.1535 14.7266 42.1251C14.5936 42.1944 14.5418 42.1097 14.4788 42.0069C14.4417 41.9464 14.4008 41.8796 14.3373 41.8341C14.3916 41.8096 14.335 41.6687 14.2744 41.5177C14.2392 41.4299 14.2026 41.3387 14.1856 41.265L14.2186 41.2456C14.065 41.3277 13.9869 41.2618 13.9056 41.1931C13.8716 41.1644 13.8371 41.1353 13.7963 41.1162C13.9085 41.0257 13.9744 41.0063 14.0734 41.0257L13.981 40.9287C13.9019 40.9545 13.8425 40.9545 13.7633 40.9093L13.9216 40.8187C13.8736 40.774 13.809 40.7456 13.7424 40.7162C13.626 40.665 13.5036 40.6111 13.4532 40.463C13.4145 40.4969 13.3802 40.5518 13.3442 40.6095C13.3069 40.6692 13.2677 40.7319 13.2197 40.7778C13.1927 40.7518 13.1656 40.7259 13.1382 40.7002C13.1628 40.6814 13.1874 40.6678 13.2104 40.6637C13.2166 40.6638 13.2224 40.6637 13.2273 40.6636L13.2355 40.6635C13.2274 40.6621 13.219 40.6622 13.2104 40.6637C13.1768 40.6634 13.1299 40.658 13.1299 40.6182L13.308 40.5729C13.2938 40.5102 13.2585 40.532 13.2208 40.5553C13.1884 40.5752 13.1542 40.5963 13.1299 40.5665C13.1777 40.5196 13.1813 40.4935 13.1847 40.4694C13.1878 40.4469 13.1907 40.4262 13.2289 40.3919C13.2392 40.3919 13.2435 40.4048 13.2484 40.4197C13.2561 40.4428 13.2653 40.4709 13.3014 40.463C13.2487 40.3854 13.2157 40.256 13.2553 40.159C13.2091 40.2172 13.1365 40.2884 13.0771 40.256C12.9974 40.1928 13.029 40.151 13.064 40.1047C13.0899 40.0705 13.1175 40.0339 13.1035 39.9844C13.0708 39.9992 13.0458 39.9877 13.0204 39.976C12.9792 39.957 12.937 39.9376 12.8594 40.0297C12.829 40.0048 12.8492 39.9571 12.8692 39.9099C12.8752 39.8957 12.8812 39.8815 12.8858 39.868C12.8414 39.8726 12.7839 39.8448 12.7263 39.817C12.6349 39.7728 12.5433 39.7286 12.504 39.8136C12.5018 39.8096 12.4993 39.8059 12.4965 39.8032L12.4437 39.6803C12.4083 39.72 12.4348 39.7444 12.467 39.774C12.4768 39.783 12.4872 39.7926 12.4965 39.8032L12.5025 39.8169C12.4972 39.8292 12.493 39.8439 12.4899 39.8615L12.5031 39.8874H12.4833C12.2997 39.8733 12.1829 39.7514 12.0665 39.6299C11.9694 39.5286 11.8727 39.4276 11.7377 39.3894L11.7707 39.3312C11.7115 39.3229 11.6523 39.3066 11.5935 39.2905L11.5935 39.2905C11.4689 39.2563 11.3463 39.2226 11.2297 39.2665C11.1835 39.2471 11.1703 39.1113 11.2231 39.0466C11.1887 39.0436 11.1606 39.0441 11.1359 39.0446C11.0839 39.0457 11.0464 39.0464 10.9961 39.0127C11.0101 38.9894 11.0437 38.9646 11.0769 38.94C11.1297 38.9009 11.1817 38.8625 11.1525 38.8319C10.9604 38.8319 10.9608 38.7603 10.9614 38.6725C10.9617 38.6215 10.962 38.5652 10.9249 38.5141C10.9866 38.5182 11.0358 38.421 11.0897 38.3146C11.1241 38.2467 11.1604 38.1751 11.2031 38.1235H11.2536C11.0167 38.1084 10.9938 38.0283 10.9706 37.9472C10.9633 37.9215 10.9559 37.8958 10.9418 37.8719C11.1272 37.8719 11.2031 37.8918 11.2874 37.9447V37.852C11.1862 37.8322 11.1356 37.8057 11.1019 37.7461L11.3295 37.766C11.3236 37.7241 11.2886 37.6815 11.2522 37.6372C11.185 37.5552 11.113 37.4675 11.2115 37.3687C11.1444 37.3667 11.0622 37.3777 10.9764 37.3892H10.9764C10.8391 37.4076 10.6924 37.4273 10.5831 37.3967V37.3275C10.6723 37.3264 10.7674 37.328 10.8128 37.3489L10.82 37.3537L10.82 37.3537C10.8251 37.3571 10.8294 37.3599 10.8322 37.3621C10.8275 37.357 10.821 37.3526 10.8128 37.3489C10.7861 37.3309 10.7494 37.3029 10.7816 37.2826L10.9755 37.3488C11.0221 37.3085 10.9681 37.3007 10.9134 37.2927C10.8692 37.2863 10.8246 37.2798 10.8322 37.2561C10.9185 37.2561 10.9473 37.2457 10.9731 37.2365C10.9976 37.2276 11.0192 37.2198 11.0851 37.223C11.0911 37.2278 11.0841 37.2352 11.0757 37.2439C11.0608 37.2593 11.0419 37.2789 11.0851 37.2959C11.1188 37.2297 11.2115 37.1568 11.3379 37.1303C11.2452 37.1303 11.1103 37.1303 11.0935 37.084C11.0887 37.0161 11.1549 37.0127 11.2284 37.0088C11.284 37.0059 11.3438 37.0028 11.3801 36.9714C11.3335 36.961 11.3237 36.9423 11.3138 36.9234C11.2987 36.8946 11.2835 36.8655 11.1356 36.8655C11.1356 36.8404 11.2033 36.8305 11.2655 36.8215C11.2854 36.8186 11.3047 36.8157 11.3211 36.8125C11.282 36.7913 11.2665 36.7482 11.2509 36.7048C11.2227 36.6265 11.1942 36.5472 11.026 36.594L11.0092 36.6073V36.594H11.0008C10.8638 36.479 10.9253 36.3598 10.9866 36.2411C11.0347 36.148 11.0826 36.0553 11.0345 35.965H11.1188C11.0844 35.9208 11.0674 35.872 11.0505 35.8238L11.0505 35.8238C11.022 35.742 10.9941 35.6616 10.8827 35.6075C10.8827 35.5744 11.0345 35.5214 11.1356 35.5413C11.121 35.5184 11.1038 35.5003 11.0884 35.4841C11.0415 35.4348 11.0109 35.4026 11.1188 35.3029C11.194 35.3516 11.2251 35.3401 11.2352 35.3363L11.2378 35.3354C11.2383 35.3353 11.2387 35.3353 11.2389 35.3355C11.2397 35.3361 11.2392 35.3384 11.2378 35.344C11.2358 35.3523 11.2321 35.3678 11.2284 35.3956C11.2457 35.3683 11.2658 35.3459 11.2836 35.3259C11.3436 35.2588 11.3785 35.2196 11.2031 35.1176C11.4138 35.1639 11.4728 35.0249 11.4054 34.9719L11.2536 35.058C11.2276 35.0069 11.2367 34.9636 11.2461 34.9192C11.2489 34.906 11.2517 34.8928 11.2536 34.8792L11.5318 34.9123C11.6902 34.7972 11.5714 34.6924 11.4604 34.5943C11.335 34.4836 11.2194 34.3816 11.5234 34.2833C11.4294 34.2512 11.3948 34.2814 11.3573 34.3142C11.3174 34.349 11.2741 34.3868 11.1525 34.3561C11.1738 34.285 11.3434 34.2112 11.4652 34.1581C11.5361 34.1273 11.5908 34.1035 11.5908 34.0913C11.6674 34.0144 11.5614 33.978 11.4517 33.9404C11.3442 33.9035 11.2331 33.8654 11.2874 33.7867C11.1862 33.8066 10.9165 33.8265 10.8237 33.7073C10.8575 33.5947 11.2452 33.5683 11.3211 33.6411C11.3295 33.6676 11.2958 33.6808 11.2621 33.6808C11.2958 33.7205 11.3379 33.7669 11.4475 33.7205L11.3464 33.7073C11.3843 33.6874 11.4068 33.6527 11.4286 33.6191C11.4649 33.5631 11.4991 33.5103 11.5992 33.5351C11.5141 33.4561 11.4503 33.4887 11.3947 33.5459C11.4564 33.4752 11.4509 33.4198 11.4452 33.3623C11.4399 33.3094 11.4345 33.2546 11.4812 33.1842C11.4222 33.2107 11.3126 33.2306 11.3126 33.2041C11.3849 33.0793 11.3113 33.0647 11.2271 33.0479C11.1639 33.0353 11.0947 33.0216 11.0766 32.9591C11.1426 32.9217 11.2197 32.9231 11.2754 32.9241C11.3479 32.9254 11.3841 32.926 11.3126 32.8399C11.4138 32.7472 11.574 32.8201 11.6583 32.8598C11.5236 32.7632 11.637 32.6794 11.7302 32.6106C11.7711 32.5804 11.8081 32.553 11.8184 32.5288L11.8898 32.5904C11.8937 32.5941 11.898 32.5979 11.9027 32.6016L11.8898 32.5904C11.8522 32.5545 11.8529 32.519 11.8606 32.489L11.6583 32.5288C11.6662 32.5194 11.6722 32.5101 11.6779 32.5013L11.6779 32.5013C11.6966 32.4726 11.7117 32.4493 11.7763 32.4493C11.7187 32.4295 11.6503 32.4327 11.5764 32.4361C11.4773 32.4406 11.3683 32.4457 11.2621 32.3963C11.3018 32.3755 11.2934 32.3444 11.2849 32.3132C11.2718 32.265 11.2586 32.2164 11.4222 32.2043C11.3749 32.2955 11.4461 32.2885 11.5327 32.28C11.5973 32.2736 11.6704 32.2664 11.7096 32.2983C11.7121 32.3127 11.7203 32.3259 11.7341 32.3367C11.7295 32.32 11.721 32.3075 11.7096 32.2983C11.7061 32.2776 11.7143 32.2542 11.7341 32.2308C11.7678 32.2308 11.7931 32.2308 11.8016 32.2507C11.926 32.1599 11.8348 32.1428 11.722 32.1216C11.6209 32.1026 11.5025 32.0804 11.5065 31.9991C11.6583 32.0189 11.7931 31.9594 11.7594 31.9329C11.7594 32.0057 11.5065 31.966 11.3969 31.8998C11.4707 31.8294 11.4193 31.8004 11.3724 31.774C11.3444 31.7582 11.3179 31.7433 11.3211 31.721L11.2621 31.7872C11.1496 31.7725 11.1344 31.7359 11.1135 31.6857C11.1062 31.6681 11.0981 31.6489 11.0851 31.6283C11.1186 31.6264 11.1399 31.6315 11.1543 31.6391C11.1589 31.6446 11.1657 31.6501 11.1748 31.6554C11.1778 31.6588 11.1803 31.6621 11.1826 31.6652L11.1826 31.6653C11.192 31.6778 11.1981 31.6861 11.2199 31.6746C11.2009 31.6684 11.186 31.662 11.1748 31.6554C11.1698 31.6497 11.1634 31.6439 11.1543 31.6391C11.1248 31.6039 11.1809 31.5652 11.2405 31.5242C11.3169 31.4715 11.399 31.415 11.3126 31.3568C11.3632 31.3304 11.4328 31.3304 11.4981 31.3304C11.5634 31.3304 11.6245 31.3304 11.6583 31.3039C11.5598 31.2333 11.6135 31.1968 11.6692 31.159C11.7233 31.1223 11.7792 31.0843 11.7004 31.0125C11.6783 31.0169 11.6593 31.0208 11.6426 31.0243C11.5843 31.0363 11.5549 31.0424 11.5268 31.0385C11.4979 31.0346 11.4705 31.0202 11.415 30.991C11.3979 30.9819 11.3781 30.9715 11.3548 30.9596L11.4981 31.1913L11.2031 31.039C11.2031 31.0744 11.2329 31.1114 11.2598 31.1446C11.2881 31.1797 11.3131 31.2106 11.2958 31.231L11.2506 31.2102C11.2016 31.1875 11.1785 31.1767 11.1546 31.1746C11.1334 31.1726 11.1115 31.1775 11.0702 31.1866L11.0701 31.1866L11.07 31.1866L11.07 31.1866L11.0699 31.1867C11.0552 31.1899 11.0381 31.1937 11.0176 31.1979C11.178 31.1454 11.1194 31.0948 11.0583 31.0421C11.0039 30.9951 10.9475 30.9464 11.0429 30.8934H11.5402C11.6533 30.808 11.5825 30.7315 11.5047 30.6474C11.4317 30.5684 11.3526 30.4828 11.4138 30.3769L11.3295 30.4498C11.2164 30.4343 11.2267 30.3918 11.2381 30.3446C11.2463 30.3109 11.255 30.2748 11.2199 30.2445C11.3441 30.2445 11.4088 30.223 11.4747 30.201C11.4983 30.1932 11.522 30.1853 11.5487 30.1783C11.4999 30.1783 11.49 30.1547 11.4774 30.1245C11.4573 30.0764 11.4303 30.0117 11.2284 29.9995L11.4475 29.9002C11.4932 29.8186 11.3791 29.7611 11.2576 29.7C11.1328 29.6372 11.0004 29.5705 11.026 29.4699C11.0948 29.4879 11.1547 29.4779 11.2101 29.4687C11.2973 29.4541 11.3735 29.4415 11.4559 29.5427C11.4559 29.525 11.4572 29.5075 11.4584 29.491V29.4909V29.4909V29.4909V29.4909V29.4909V29.4909V29.4909V29.4908V29.4908C11.4633 29.4209 11.4671 29.3677 11.3717 29.3838C11.417 29.3481 11.3759 29.3072 11.3312 29.2626C11.2762 29.2079 11.2159 29.1479 11.3042 29.0858C11.2799 29.0816 11.2461 29.0842 11.2117 29.0867C11.1385 29.0923 11.0625 29.098 11.0682 29.0395C11.0948 29.0238 11.1318 29.0123 11.1463 29.0081C11.1212 29.0142 11.1011 29.0081 11.0797 29.0015C11.0781 29.001 11.0765 29.0005 11.0749 29H10.9747C10.9441 29.0107 10.9063 29.0325 10.8575 29.0726C10.8866 29.0477 10.9124 29.0235 10.9351 29H5.09094ZM10.6214 37.9315C10.6214 37.9073 10.6075 37.882 10.5831 37.8587V37.9064C10.5964 37.9129 10.6092 37.9212 10.6214 37.9315ZM10.5831 38.1278V38.0918C10.5921 38.1012 10.5932 38.1129 10.5831 38.1278ZM10.5831 38.3376V38.2705C10.6028 38.2909 10.6134 38.3123 10.6046 38.3354L10.5831 38.3376ZM10.5831 38.4905V38.4571C10.59 38.4684 10.5907 38.4796 10.5831 38.4905ZM12.0874 52.7254C12.1138 52.7577 12.1468 52.7771 12.1864 52.7254V52.7189C12.1864 52.7025 12.1811 52.6836 12.1755 52.6636C12.1723 52.6521 12.169 52.6402 12.1666 52.6284V52.6542C12.148 52.6725 12.1315 52.6866 12.1171 52.6989L12.1171 52.6989L12.1169 52.6991L12.1169 52.6991C12.1058 52.7086 12.096 52.717 12.0874 52.7254ZM13.9942 40.9093L14.0001 40.915L13.9942 40.9157V40.9093ZM14.0001 40.915L14.1064 40.9028C14.0734 40.9157 14.0206 40.9351 14.0206 40.9351L14.0001 40.915ZM14.6145 42.1315C14.6871 42.1056 14.8653 42.0539 14.8653 42.0539C14.8257 42.0927 14.7927 42.1121 14.7597 42.1315C14.7333 42.1121 14.6871 42.1056 14.6145 42.1315ZM13.2949 40.1526C13.2949 40.1526 13.3213 40.1073 13.3279 40.0944C13.3147 40.1138 13.3015 40.1332 13.2949 40.1526ZM15.4525 45.9021L15.4393 45.8763L15.5514 45.9086L15.4525 45.9021ZM3.52336 39.3181C3.52336 39.3181 3.56954 39.3505 3.59593 39.3634C3.58274 39.3505 3.56294 39.3311 3.52336 39.3181ZM2.73817 40.269C2.73817 40.269 2.7271 40.269 2.71345 40.2726C2.7197 40.2703 2.72776 40.269 2.73817 40.269ZM2.71345 40.2726C2.69198 40.2806 2.69198 40.3007 2.69198 40.3207C2.68539 40.3143 2.67219 40.3143 2.66559 40.3143C2.67309 40.2885 2.6955 40.2774 2.71345 40.2726ZM1.93987 41.1743H1.89369V41.1679L1.95307 41.1355L1.93987 41.1743ZM15.1028 42.9463C15.116 43.0174 15.1226 43.0951 15.1292 43.1727L15.1334 43.168C15.1858 43.1101 15.2559 43.0326 15.3073 43.1145C15.3546 42.9508 15.3281 42.9685 15.2789 43.0014C15.2251 43.0374 15.1441 43.0916 15.1028 42.9463ZM14.9908 42.2646C14.9708 42.3039 14.9488 42.347 14.8916 42.2866C14.9048 42.1767 14.9312 42.1832 15.0235 42.222C15.0104 42.2263 15.0008 42.245 14.9908 42.2646ZM11.2363 38.9624L11.2421 38.9515C11.2404 38.9551 11.2384 38.9587 11.2363 38.9624ZM11.2421 38.9515C11.2586 38.9174 11.2585 38.8856 11.2585 38.8609C11.2584 38.8236 11.2583 38.8024 11.3155 38.8136L11.2421 38.9515ZM1.90029 40.9028L2.07843 41.0127C2.09163 40.9416 1.92008 40.7863 1.90029 40.9028ZM0.468479 44.2786C0.356314 44.2916 0.270541 44.3886 0.362912 44.4662C0.374994 44.4307 0.400901 44.3979 0.424178 44.3684C0.451751 44.3335 0.475635 44.3032 0.468479 44.2786ZM5.17284 53.3849L5.27181 53.3461L5.33779 53.3849H5.17284Z" fill="#D9FFF0"/>
<g clip-path="url(#clip0_308_14)">
<path d="M19.2614 8.79194C18.8069 6.59105 18.2614 4.28962 17.1705 2.301C16.5682 1.19498 15.7387 0.122462 14.3751 0.0107422C14.3523 0.0107422 14.3296 0.0107422 14.3069 0.0107422C14.3069 0.0107422 14.2841 0.0107422 14.2728 0.0107422C14.2046 0.0107422 14.1251 0.0107422 14.0341 0.0107422C14.0114 0.0107422 13.9887 0.0107422 13.9546 0.0107422C13.7614 0.0107422 13.5682 0.0442582 13.3751 0.0777742C11.5569 0.401762 10.3637 1.72006 9.5796 3.38469C8.15915 6.37879 7.60233 9.81976 7.12506 13.0596C5.79551 22.0978 5.71597 31.3594 6.52279 40.4311C6.93188 44.52 7.50006 48.5643 8.62506 52.5192C8.62506 52.5192 8.62506 52.5192 8.62506 52.5303C8.64779 52.5974 8.67051 52.6756 8.69324 52.7538C8.81824 53.156 9.81824 52.9437 10.0455 52.8655C10.2273 52.8096 10.4205 52.7538 10.6023 52.6979C10.841 52.6309 11.841 52.3404 11.716 51.9271C9.87506 45.7601 9.34097 39.2245 9.13642 32.8341C8.92051 25.8628 9.13642 18.8132 10.2387 11.9201C10.6137 9.6075 11.0682 7.29489 11.8182 5.07166C12.0569 4.35665 12.3182 3.65282 12.6591 2.9825C12.7728 2.75906 13.0796 2.41272 13.3182 2.07756C13.6137 2.4239 13.9091 2.74788 14.1478 3.16125C15.0341 4.75885 15.5228 6.57988 15.9432 8.33389C17.5682 15.1488 17.9319 21.8052 17.9319 28.7766C18 29 18.5228 29 18.6478 29H19.2387C19.5391 29 20.5 29 21 29C21.1214 29 20.9925 28.7504 20.9887 28.6223C20.9887 22.0084 20.6023 15.2829 19.2501 8.79194H19.2614ZM12.7841 1.68654C12.7955 1.68654 12.8523 1.70889 12.9205 1.75358C12.8296 1.76475 12.7728 1.75358 12.7728 1.69772L12.7841 1.68654Z" fill="#00FBA5"/>
</g>
<defs>
<clipPath id="clip0_308_14">
<rect width="15" height="53" fill="white" transform="translate(6)"/>
</clipPath>
</defs>
</svg>
