<svg width="457" height="400" viewBox="0 0 457 400" fill="none" xmlns="http://www.w3.org/2000/svg">
<rect width="456.41" height="400" fill="#EEE6FF"/>
<path d="M372.302 223.014C357.935 235.32 338.88 240.797 320.157 238.595C319.256 238.488 318.344 238.359 317.453 238.209C316.391 238.026 316.23 238.026 314.91 237.79C309.985 236.909 305.307 234.794 301.284 231.841C293.065 225.817 287.561 216.571 285.329 206.703C283.098 196.834 284.256 185.302 289.235 175.906C293.891 167.143 301.692 160.153 310.908 156.491C320.704 152.593 331.702 152.378 341.262 157.06C346.283 159.519 350.94 163.138 354.212 167.702C357.485 172.266 358.794 178.182 358.965 183.927C359.148 189.973 358.236 195.943 357.377 201.903C357.173 203.299 357.109 204.706 357.163 206.112C357.377 212.609 360.285 218.73 366.229 221.801C368.225 222.832 370.349 223.444 372.549 223.852C373.343 224.002 376.154 222.724 374.523 222.424C370.231 221.618 366.208 219.599 363.6 216.013C361.712 213.414 360.736 210.225 360.403 207.068C360.21 205.264 360.199 203.417 360.446 201.613C361.143 196.491 361.959 191.401 362.087 186.214C362.238 180.212 361.594 173.898 358.482 168.625C355.618 163.772 351.219 159.895 346.358 157.092C341.466 154.268 335.929 152.378 330.264 152.121C324.996 151.884 319.685 152.497 314.61 153.935C304.685 156.749 295.629 162.676 289.524 171.052C283.419 179.428 280.351 190.467 281.252 201.13C282.132 211.642 286.638 221.962 294.192 229.393C297.786 232.936 302.089 235.76 306.81 237.554C309.771 238.681 312.861 239.229 315.983 239.734C333.397 242.504 352.216 238.542 367.034 229.049C369.748 227.309 372.323 225.377 374.77 223.283C376.025 222.198 372.967 222.499 372.345 223.025L372.302 223.014Z" fill="#B099FE"/>
<path d="M373.514 223.134C348.257 244.921 318.032 239.273 315.318 238.715C315.092 238.682 314.867 238.661 314.631 238.629C293.709 235.364 279.61 212.503 283.151 189.824C286.681 167.145 306.884 151.886 329.255 152.831C339.834 153.282 351.615 160.1 356.905 169.035C362.119 177.84 360.682 190.296 358.911 201.636C358.911 201.636 355.714 219.934 373.514 223.134Z" fill="#EEE6FF"/>
<path d="M393.771 219.035C393.739 221.032 392.59 223.341 390.584 224.007C388.706 224.63 386.443 223.352 385.359 221.827C384.061 220.023 383.921 217.553 385.016 215.62C385.509 214.74 386.282 213.934 387.226 213.516C387.977 213.183 388.878 213.247 389.672 213.473C392.14 214.16 393.749 216.501 393.781 219.024C393.781 219.465 396.12 219.099 396.11 218.401C396.078 215.695 394.243 213.322 391.646 212.56C388.867 211.744 385.348 212.721 383.46 214.933C381.7 216.995 381.41 220.044 382.934 222.321C384.565 224.748 387.494 225.542 390.262 224.93C393.449 224.222 396.067 221.805 396.11 218.401C396.11 217.983 393.792 218.316 393.781 219.024L393.771 219.035Z" fill="#B099FE"/>
<path d="M412.634 205.598C412.602 208.024 411.164 210.795 408.825 211.611C406.486 212.427 403.814 210.934 402.398 209.023C400.756 206.811 400.606 203.718 401.958 201.335C403.171 199.198 405.22 198.092 407.559 198.757C410.617 199.627 412.591 202.462 412.634 205.598C412.634 206.306 415.756 205.791 415.745 204.76C415.702 201.388 413.406 198.403 410.177 197.447C406.615 196.395 402.248 197.608 399.823 200.443C397.613 203.02 397.291 206.833 399.168 209.689C401.186 212.76 404.919 213.769 408.396 213.018C412.43 212.148 415.692 209.034 415.745 204.76C415.745 204.073 412.655 204.556 412.634 205.598Z" fill="#B099FE"/>
<path d="M389.018 224.643C392.289 224.643 394.941 221.989 394.941 218.716C394.941 215.442 392.289 212.788 389.018 212.788C385.747 212.788 383.096 215.442 383.096 218.716C383.096 221.989 385.747 224.643 389.018 224.643Z" fill="#EEE6FF"/>
<path d="M406.839 212.541C410.904 212.541 414.2 209.243 414.2 205.175C414.2 201.107 410.904 197.809 406.839 197.809C402.774 197.809 399.479 201.107 399.479 205.175C399.479 209.243 402.774 212.541 406.839 212.541Z" fill="#EEE6FF"/>
<path d="M324.889 194.107C327.793 194.107 330.147 191.847 330.147 189.06C330.147 186.272 327.793 184.013 324.889 184.013C321.986 184.013 319.632 186.272 319.632 189.06C319.632 191.847 321.986 194.107 324.889 194.107Z" fill="#D1C2FE"/>
<path d="M302.99 192.371C305.894 192.371 308.248 190.112 308.248 187.324C308.248 184.537 305.894 182.277 302.99 182.277C300.087 182.277 297.733 184.537 297.733 187.324C297.733 190.112 300.087 192.371 302.99 192.371Z" fill="#D1C2FE"/>
<path d="M307.85 177.169C306.498 179.145 305.135 181.11 303.783 183.086C303.59 183.365 303.397 183.655 303.204 183.935C303.075 184.128 303.354 184.278 303.472 184.31C303.762 184.407 304.18 184.364 304.47 184.31C305.114 184.192 305.886 183.977 306.283 183.419C307.635 181.443 308.998 179.478 310.35 177.502C310.543 177.223 310.736 176.933 310.929 176.654C311.058 176.461 310.779 176.31 310.661 176.278C310.371 176.182 309.953 176.224 309.663 176.278C309.019 176.396 308.247 176.611 307.85 177.169Z" fill="#B099FE"/>
<path d="M327.185 179.33C325.834 181.306 324.471 183.271 323.119 185.247C322.926 185.526 322.733 185.816 322.54 186.095C322.132 186.696 322.894 187.029 323.387 187.029C324.085 187.029 325.018 186.793 325.437 186.17C326.788 184.194 328.151 182.229 329.503 180.253C329.696 179.974 329.889 179.684 330.082 179.405C330.49 178.804 329.728 178.471 329.235 178.471C328.537 178.471 327.604 178.707 327.185 179.33Z" fill="#B099FE"/>
<path d="M300.812 190.265C301.413 191.457 302.378 192.585 303.601 193.154C306.595 194.528 309.696 192.198 311.305 189.836L308.312 190.265C308.666 191.651 309.449 193.218 310.629 194.056C313.848 196.332 317.796 193.304 319.878 190.91C320.361 190.351 319.459 190.115 319.073 190.115C318.365 190.115 317.496 190.373 317.013 190.931C316.412 191.629 315.769 192.316 315.007 192.843C314.921 192.907 314.835 192.961 314.739 193.014C314.749 193.014 314.309 193.24 314.492 193.143C314.181 193.294 314.685 193.1 314.342 193.208C314.052 193.294 314.47 193.229 314.299 193.208C314.116 193.197 314.524 193.261 314.256 193.208C314.524 193.272 314.191 193.197 314.138 193.175C314.245 193.208 313.794 193.047 313.698 192.993C313.44 192.853 313.118 192.574 312.882 192.316C312.163 191.522 311.681 190.469 311.412 189.439C311.294 188.977 310.415 189.041 310.093 189.084C309.545 189.159 308.752 189.385 308.419 189.868C308.022 190.448 307.614 191.028 307.088 191.5C306.928 191.651 306.734 191.758 306.573 191.898C306.402 191.994 306.37 192.016 306.466 191.951C306.627 191.908 306.606 191.908 306.423 191.951C306.498 191.919 306.584 191.908 306.67 191.908C306.509 191.908 306.488 191.908 306.606 191.908C306.488 191.865 306.423 191.876 306.252 191.812C305.983 191.715 305.737 191.565 305.511 191.382C304.825 190.845 304.234 190.094 303.891 189.428C303.398 188.451 300.383 189.482 300.78 190.265H300.812Z" fill="#B099FE"/>
<path d="M286.023 186.904C276.592 165.596 248.5 153.9 219.265 162.395C190.037 170.896 171.556 195.951 177.986 218.355C184.423 240.76 204.982 252.322 234.384 244.432C248.213 240.719 262.048 221.234 260.204 227.731C260.204 227.731 243.381 240.605 250.98 244.432C256.514 247.217 274.033 241.648 282.327 229.588C286.324 223.777 295.575 208.502 286.017 186.904H286.023Z" fill="#EEE6FF"/>
<path d="M287.116 187.159C281.629 174.86 270.275 166.349 257.681 162.399C242.936 157.776 226.725 159.117 212.449 164.765C199.594 169.846 187.703 178.728 180.85 190.987C177.876 196.304 175.967 202.228 175.659 208.334C175.351 214.439 176.798 220.289 179.316 225.741C181.835 231.193 185.185 235.641 189.613 239.267C194.121 242.96 199.514 245.467 205.174 246.774C211.739 248.29 218.566 248.297 225.218 247.36C228.935 246.835 232.754 246.12 236.304 244.88C239.352 243.816 242.193 242.185 244.852 240.365C249.608 237.11 253.748 233.12 257.989 229.245C258.598 228.686 259.215 228.12 259.885 227.628C260.066 227.493 260.273 227.284 260.36 227.318C260.387 227.331 259.342 227.554 259.416 227.412C259.396 227.446 259.456 227.783 259.449 227.857C259.429 228.073 259.221 228.592 259.489 228.261C259.275 228.531 258.873 228.747 258.612 228.962C255.477 231.517 252.342 234.333 250.017 237.669C249.019 239.105 247.927 240.891 248.094 242.724C248.249 244.436 249.789 245.473 251.317 245.884C253.387 246.437 255.631 246.275 257.728 245.945C260.555 245.5 263.321 244.638 265.967 243.546C272.124 240.992 277.925 237.076 282.112 231.82C289.28 222.823 292.582 210.975 290.834 199.573C290.177 195.28 288.864 191.129 287.123 187.159C286.875 186.6 284.979 187.227 285.18 187.685C288.422 195.064 290.09 203.165 289.072 211.225C288.389 216.65 286.546 221.873 283.847 226.61C281.147 231.348 277.483 235.56 272.907 238.754C268.332 241.949 262.671 244.597 256.997 245.211C255.316 245.393 253.373 245.44 251.826 244.644C250.278 243.849 249.756 242.373 250.218 240.736C250.747 238.835 252.033 237.171 253.286 235.695C254.7 234.024 256.274 232.487 257.902 231.038C258.873 230.175 259.871 229.36 260.876 228.545C261.352 228.16 261.794 226.92 261.017 226.604C259.791 226.098 258.21 227.561 257.379 228.275C255.658 229.764 254.023 231.362 252.342 232.898C247.84 237.009 242.976 241.16 237.343 243.607C234.141 244.995 230.604 245.676 227.174 246.242C223.744 246.808 220.213 247.124 216.71 247.084C210.634 247.023 204.538 245.864 198.998 243.303C193.967 240.972 189.526 237.46 186.076 233.1C182.626 228.74 179.926 223.126 178.533 217.506C177.139 211.885 177.313 205.867 178.841 200.24C182.271 187.604 191.77 177.273 202.702 170.587C215.631 162.682 231.287 159.084 246.326 161.085C259.483 162.837 272.398 169.064 280.551 179.84C282.393 182.267 283.941 184.908 285.18 187.692C285.428 188.251 287.324 187.624 287.123 187.166L287.116 187.159Z" fill="#B099FE"/>
<path d="M232.365 203.26C236.584 203.26 240.004 199.84 240.004 195.621C240.004 191.403 236.584 187.982 232.365 187.982C228.146 187.982 224.726 191.403 224.726 195.621C224.726 199.84 228.146 203.26 232.365 203.26Z" fill="#D1C2FE"/>
<path d="M207.264 202.169C211.483 202.169 214.904 198.993 214.904 195.076C214.904 191.158 211.483 187.982 207.264 187.982C203.046 187.982 199.625 191.158 199.625 195.076C199.625 198.993 203.046 202.169 207.264 202.169Z" fill="#D1C2FE"/>
<path d="M216.672 198.651C214.17 198.651 213.937 198.45 211.182 196.716C208.427 194.982 206.025 195.932 205.191 199.4C204.357 202.868 208.547 206.739 210.214 207.606C211.882 208.473 216.672 211.338 222.603 208.751C227.639 206.552 229.594 203.874 230.108 200.184C230.468 197.611 229.594 194.919 225.885 194.579C225.885 194.579 223.85 194.177 222.416 195.675C220.982 197.174 218.113 198.658 216.672 198.658V198.651Z" fill="#EEE6FF"/>
<path d="M216.712 198.546C215.675 198.546 214.751 198.472 213.815 197.993C212.561 197.359 211.456 196.428 210.088 196.043C207.689 195.369 205.418 196.549 204.454 198.822C202.58 203.227 206.765 207.328 210.411 209.122C212.534 210.168 214.812 210.836 217.191 210.896C220.419 210.97 223.546 209.804 226.241 208.097C228.196 206.856 229.867 205.143 230.656 202.93C231.343 201.021 231.646 198.701 230.548 196.887C229.375 194.951 226.653 194.276 224.523 194.613C223.748 194.735 223.02 195.005 222.366 195.443C221.713 195.882 221.234 196.441 220.614 196.88C219.529 197.649 218.08 198.505 216.712 198.553C215.573 198.593 215.236 200.104 216.557 200.064C218.721 199.989 221.079 198.64 222.683 197.264C223.478 196.583 224.125 196.016 225.231 196.05C225.979 196.07 226.781 196.219 227.448 196.556C231.04 198.357 228.823 203.902 226.612 205.878C224.691 207.598 222.016 208.886 219.475 209.271C217.218 209.615 214.953 209.217 212.851 208.36C211.469 207.793 210.169 207.126 209.043 206.141C207.574 204.853 205.93 202.937 205.909 200.866C205.903 199.78 206.401 198.391 207.284 197.716C208.1 197.096 209.158 197.399 210 197.824C211.126 198.397 212.13 199.207 213.316 199.659C214.354 200.05 215.452 200.057 216.551 200.064C217.649 200.07 218.026 198.559 216.706 198.553L216.712 198.546Z" fill="#B099FE"/>
<path d="M215.114 185.22C214.115 186.817 213.116 188.407 212.117 190.004C211.976 190.229 211.836 190.453 211.695 190.677C211.463 191.049 211.899 191.248 212.258 191.255C212.694 191.261 213.363 191.12 213.602 190.742C214.601 189.145 215.6 187.554 216.599 185.958C216.74 185.733 216.88 185.509 217.021 185.284C217.253 184.912 216.817 184.714 216.458 184.707C216.022 184.701 215.354 184.842 215.114 185.22Z" fill="#B099FE"/>
<path d="M227.119 185.22C226.12 186.817 225.121 188.407 224.122 190.004C223.981 190.229 223.841 190.453 223.7 190.677C223.468 191.049 223.904 191.255 224.263 191.255C224.699 191.261 225.367 191.12 225.607 190.742C226.606 189.145 227.605 187.554 228.604 185.958C228.745 185.733 228.885 185.509 229.026 185.284C229.258 184.912 228.822 184.707 228.463 184.707C228.027 184.701 227.359 184.842 227.119 185.22Z" fill="#B099FE"/>
<g clip-path="url(#clip0_6659_9652)">
<path d="M157.981 243.568L152.021 234.24C122.24 240.108 95.2665 230.902 89.9823 221.057C83.0147 208.068 95.5785 186.796 113.524 173.433C123.988 165.641 140.549 162.174 150.136 164.769C161.199 167.765 156.239 178.623 156.239 178.623C160.601 172.561 175.42 169.101 185.007 176.028C195.582 183.665 194.698 196.757 178.904 204.601C186.749 202.871 192.852 204.601 194.594 209.798C195.465 212.393 196.752 219.566 189.362 225.382C186.333 227.771 175.966 228.597 172.8 227.113C172.8 227.113 164.084 244.427 157.981 243.562V243.568Z" fill="#EEE6FF"/>
<path d="M158.858 243.2C156.869 240.089 154.887 236.977 152.898 233.872C152.774 233.678 152.332 233.685 152.15 233.723C137.526 236.583 121.732 236.37 107.511 231.619C102.766 230.031 97.9176 227.913 94.1218 224.595C92.7179 223.368 91.4765 221.954 90.651 220.276C89.5981 218.113 89.0716 215.738 88.9806 213.342C88.7662 207.797 90.7355 202.264 93.2834 197.41C96.3837 191.496 100.563 186.138 105.269 181.399C110.137 176.506 115.564 172.038 121.895 169.159C127.77 166.486 134.244 164.789 140.705 164.492C145.475 164.272 152.196 164.511 155.134 168.933C156.934 171.638 156.59 175.253 155.524 178.171C155.452 178.365 155.381 178.559 155.29 178.752C155.127 179.107 155.816 179.166 155.985 179.159C156.382 179.14 156.869 178.985 157.11 178.656C159.378 175.557 163.427 173.962 167.087 173.226C171.688 172.297 176.667 172.652 180.963 174.595C184.753 176.306 188.217 179.366 189.926 183.181C191.408 186.486 191.389 190.166 189.972 193.484C187.866 198.41 183.206 201.883 178.526 204.227C177.532 204.724 178.136 205.266 179.02 205.073C182.686 204.279 186.969 203.988 190.329 205.957C192.728 207.364 193.846 209.837 194.197 212.484C194.626 215.679 193.865 218.933 192.045 221.606C191.012 223.129 189.575 224.814 187.898 225.654C186.624 226.293 185.162 226.609 183.771 226.848C181.834 227.184 179.865 227.351 177.902 227.319C176.472 227.3 174.873 227.255 173.547 226.661C173.112 226.467 172.156 226.628 171.922 227.093C170.986 228.952 169.933 230.76 168.842 232.529C166.911 235.654 164.786 238.862 162.004 241.309C161.406 241.832 160.769 242.335 160.054 242.697C159.508 242.974 159.079 243.123 158.553 243.058C158.111 243 157.558 243.091 157.22 243.413C156.96 243.665 156.973 244.02 157.396 244.072C160.983 244.524 163.967 241.431 166.06 238.952C168.53 236.028 170.583 232.742 172.449 229.411C172.871 228.662 173.287 227.907 173.671 227.132L172.046 227.564C173.365 228.158 174.899 228.288 176.329 228.352C178.292 228.442 180.274 228.326 182.218 228.075C184.161 227.823 185.916 227.461 187.671 226.822C189.426 226.183 190.927 224.995 192.24 223.581C194.905 220.715 196.387 217.055 196.192 213.136C196.049 210.282 195.093 207.384 192.702 205.621C188.776 202.736 183.271 203.155 178.773 204.13L179.267 204.976C183.921 202.645 188.49 199.443 191.07 194.827C192.994 191.386 193.547 187.339 192.188 183.594C190.693 179.469 187.255 176.118 183.388 174.117C178.786 171.741 173.326 171.199 168.25 172.013C163.577 172.761 158.254 174.647 155.355 178.597L157.175 178.501C158.221 176.202 158.611 173.33 158.046 170.87C156.817 165.557 151.078 163.943 146.262 163.517C139.762 162.942 133.035 164.143 126.88 166.17C123.559 167.268 120.328 168.636 117.28 170.347C114.232 172.058 111.385 174.233 108.7 176.519C103.228 181.18 98.3011 186.557 94.3688 192.561C91.041 197.636 88.2527 203.342 87.3557 209.379C86.6733 213.982 87.1802 219.133 90.0986 222.942C93.0169 226.751 97.4367 229.069 101.661 230.87C107.823 233.504 114.453 235.047 121.095 235.873C129.181 236.88 137.396 236.835 145.475 235.796C147.627 235.518 149.765 235.169 151.897 234.75L151.15 234.601C153.138 237.713 155.121 240.825 157.11 243.93C157.441 244.446 159.274 243.846 158.858 243.2Z" fill="#B099FE"/>
<path d="M132.008 189.869C131.092 191.58 130.175 193.29 129.259 195.001C129.129 195.246 128.999 195.485 128.869 195.731C128.674 196.099 129.044 196.26 129.376 196.26C129.746 196.26 130.422 196.124 130.617 195.756C131.534 194.046 132.45 192.335 133.367 190.624C133.497 190.379 133.627 190.14 133.757 189.895C133.952 189.527 133.581 189.365 133.25 189.365C132.879 189.365 132.203 189.501 132.008 189.869Z" fill="#B099FE"/>
<path d="M150.591 207.029C154.809 207.029 158.228 204.5 158.228 201.38C158.228 198.26 154.809 195.731 150.591 195.731C146.373 195.731 142.954 198.26 142.954 201.38C142.954 204.5 146.373 207.029 150.591 207.029Z" fill="#D1C2FE"/>
<path d="M120.693 203.802C124.911 203.802 128.33 201.272 128.33 198.153C128.33 195.033 124.911 192.504 120.693 192.504C116.475 192.504 113.056 195.033 113.056 198.153C113.056 201.272 116.475 203.802 120.693 203.802Z" fill="#D1C2FE"/>
<path d="M123.783 199.559C122.609 202.406 122.245 206.516 124.754 208.715C125.819 209.645 127.208 210.087 128.566 210.293C130.552 210.591 132.647 210.483 134.618 210.113C137.396 209.599 140.247 208.402 142.029 206.049C142.816 205.011 143.483 203.695 143.597 202.36C143.617 202.133 142.194 202.298 142.154 202.76C142.154 202.781 142.154 202.812 142.129 202.935C142.094 203.135 142.049 203.336 141.994 203.531C141.81 204.209 141.527 204.857 141.173 205.458C139.949 207.533 137.868 208.808 135.619 209.373C133.792 209.83 131.811 209.938 129.95 209.722C128.646 209.568 127.317 209.178 126.267 208.33C124.699 207.061 124.236 205.006 124.366 203.033C124.45 201.774 124.729 200.469 125.212 199.308C125.326 199.035 123.953 199.164 123.788 199.559H123.783Z" fill="#B099FE"/>
<path d="M146.776 190.909C145.86 192.62 144.943 194.331 144.027 196.042C143.897 196.287 143.767 196.526 143.637 196.771C143.442 197.133 143.806 197.281 144.137 197.281C144.501 197.281 145.184 197.152 145.385 196.784C146.302 195.073 147.218 193.362 148.134 191.652C148.264 191.406 148.394 191.167 148.524 190.922C148.719 190.561 148.355 190.412 148.024 190.412C147.66 190.412 146.978 190.541 146.776 190.909Z" fill="#B099FE"/>
</g>
<path d="M91.2432 237.78C91.2432 237.78 88.7025 231.842 88.7025 225.057C91.5451 221.017 95.9263 214.924 96.3288 208.097C97.1757 193.68 87.0841 184.629 72.6028 182.657C58.9349 180.793 45.4892 191.137 41.5397 207.526C37.9676 222.355 44.9903 237.78 59.0481 237.771C64.989 237.771 72.3261 237.142 75.9947 231.842C78.4138 233.294 80.6568 238.627 91.2474 237.78H91.2432Z" fill="#EEE6FF"/>
<path d="M91.8509 237.619C91.134 235.936 90.6308 234.144 90.2158 232.369C89.8007 230.594 89.5198 228.82 89.3856 227.019C89.3521 226.541 89.3269 226.063 89.3144 225.584C89.306 225.307 89.2766 225.056 89.4066 224.8C89.4946 224.632 89.6372 224.472 89.7462 224.317C90.1487 223.742 90.5512 223.168 90.9453 222.588C92.8487 219.79 94.5971 216.848 95.7291 213.647C96.8611 210.445 97.1671 207.294 96.8862 204.025C96.4376 198.772 94.2113 193.85 90.4296 190.161C86.6479 186.473 81.2142 184.014 75.8561 182.902C73.068 182.323 70.2422 182.042 67.3996 182.315C64.557 182.588 61.9198 183.305 59.3623 184.4C54.0461 186.683 49.56 190.636 46.3065 195.39C42.7386 200.61 40.5081 206.883 40.0763 213.198C39.6864 218.883 40.7681 224.854 43.8455 229.718C46.6587 234.165 51.128 237.258 56.394 237.891C59.2659 238.235 62.3097 238.034 65.1649 237.64C68.0201 237.245 71.1394 236.398 73.6172 234.681C74.7744 233.88 75.7722 232.894 76.5814 231.74L75.4117 232.055C76.6652 232.818 77.6086 234.065 78.7448 234.988C80.5728 236.473 82.7361 237.409 85.0505 237.82C87.0042 238.168 88.9999 238.177 90.9746 238.026C91.1885 238.009 91.6664 237.942 91.788 237.736C91.9096 237.531 91.6832 237.526 91.5029 237.539C88.4884 237.77 85.3398 237.577 82.5643 236.272C80.8914 235.483 79.5204 234.312 78.2039 233.037C77.6882 232.537 77.1767 232.017 76.5604 231.643C76.2753 231.471 75.5668 231.702 75.3907 231.958C71.8941 236.943 65.2949 237.514 59.7103 237.535C57.069 237.543 54.4654 237.048 52.084 235.873C49.8451 234.765 47.8913 233.133 46.3359 231.186C42.9524 226.957 41.4096 221.451 41.2377 216.101C41.0364 209.916 42.6883 203.689 45.6273 198.268C48.3651 193.22 52.3565 188.806 57.3499 185.923C62.0163 183.23 67.3618 182.185 72.6906 182.99C78.0656 183.8 83.3902 185.693 87.6541 189.133C91.591 192.31 94.2994 196.724 95.293 201.692C95.8632 204.541 95.9764 207.6 95.4523 210.462C94.8402 213.798 93.3938 216.924 91.6664 219.815C90.8866 221.12 90.0439 222.387 89.176 223.637C88.9915 223.902 88.8071 224.166 88.6226 224.426C88.4549 224.67 88.174 224.951 88.0901 225.228C87.9769 225.593 88.1027 226.201 88.1237 226.583C88.1488 227.087 88.1866 227.59 88.2327 228.094C88.5178 231.01 89.1802 233.905 90.1487 236.675C90.2996 237.103 90.4547 237.531 90.6308 237.95C90.7566 238.24 91.9389 237.845 91.8467 237.623L91.8509 237.619Z" fill="#B099FE"/>
<path d="M70.1719 216.378C72.8927 216.378 75.0982 214.259 75.0982 211.645C75.0982 209.031 72.8927 206.912 70.1719 206.912C67.4512 206.912 65.2456 209.031 65.2456 211.645C65.2456 214.259 67.4512 216.378 70.1719 216.378Z" fill="#D1C2FE"/>
<path d="M54.6583 215.769C57.379 215.769 59.5846 213.65 59.5846 211.036C59.5846 208.422 57.379 206.303 54.6583 206.303C51.9375 206.303 49.7319 208.422 49.7319 211.036C49.7319 213.65 51.9375 215.769 54.6583 215.769Z" fill="#D1C2FE"/>
<path d="M67.9408 213.611C64.0836 222.1 57.3503 221.668 56.5034 218.277C55.841 215.621 56.5034 212.34 56.5034 212.34C56.5034 212.34 70.0623 208.95 67.9408 213.611Z" fill="#EEE6FF"/>
<path d="M67.3623 213.553C66.1171 216.263 64.0333 219.36 60.8973 220.019C60.0462 220.199 59.0986 220.145 58.3314 219.704C57.4258 219.184 57.1113 218.349 56.9562 217.354C56.6963 215.705 56.7885 213.93 57.1155 212.294L56.6082 212.747C57.9499 212.411 59.3167 212.147 60.6876 211.937C61.8532 211.761 63.0271 211.623 64.2094 211.589C65.0815 211.564 66.0374 211.572 66.834 211.899C67.53 212.185 67.7061 212.776 67.3623 213.549C67.0856 214.174 68.3098 214.153 68.5194 213.674C70.5571 209.063 59.9791 211.169 58.1637 211.543C57.5725 211.664 56.9814 211.79 56.3944 211.937C56.1722 211.992 55.9374 212.151 55.8871 212.39C55.5727 213.972 55.4972 215.651 55.6817 217.249C55.8242 218.496 56.1722 219.62 57.2749 220.321C59.5473 221.769 62.5785 220.678 64.4945 219.142C66.2848 217.707 67.5677 215.743 68.5194 213.674C68.8045 213.058 67.5803 213.07 67.3623 213.549V213.553Z" fill="#B099FE"/>
<path d="M59.9122 203.765C59.3504 204.822 58.7886 205.875 58.2268 206.933C58.1471 207.084 58.0675 207.235 57.9878 207.382C57.9459 207.466 58.0423 207.537 58.101 207.558C58.2142 207.604 58.3819 207.596 58.4951 207.575C58.7467 207.533 59.0653 207.44 59.1953 207.197C59.7571 206.14 60.3189 205.086 60.8807 204.029C60.9604 203.878 61.04 203.727 61.1197 203.58C61.1616 203.496 61.0652 203.425 61.0065 203.404C60.8933 203.358 60.7256 203.366 60.6124 203.387C60.3608 203.429 60.0422 203.521 59.9122 203.765Z" fill="#B099FE"/>
<path d="M68.9847 204.224C68.4229 205.282 67.8611 206.335 67.2993 207.392C67.2196 207.543 67.1399 207.694 67.0603 207.841C66.9177 208.11 67.1903 208.37 67.4418 208.399C67.7605 208.437 68.0791 208.303 68.23 208.013C68.7918 206.956 69.3536 205.903 69.9155 204.845C69.9951 204.694 70.0748 204.543 70.1544 204.396C70.297 204.128 70.0245 203.868 69.7729 203.838C69.4543 203.801 69.1356 203.935 68.9847 204.224Z" fill="#B099FE"/>
<defs>
<clipPath id="clip0_6659_9652">
<rect width="109.129" height="80.7552" fill="white" transform="translate(87.0898 163.375)"/>
</clipPath>
</defs>
</svg>
