<svg width="190" height="45" viewBox="0 0 190 45" fill="none" xmlns="http://www.w3.org/2000/svg">
<g clip-path="url(#clip0_332_18)">
<path fill-rule="evenodd" clip-rule="evenodd" d="M6.2603 0H184.679C188.137 0 190 2.686 190 5.1V39C190 42.314 188.137 45 184.679 45H6.2603C2.80253 45 0 42.314 0 39V5.1C0 2.686 2.80253 0 6.2603 0Z" fill="#FEE500"/>
<path fill-rule="evenodd" clip-rule="evenodd" d="M25.088 13.9761C19.8916 13.9761 15.68 17.1061 15.68 20.9651C15.68 23.3651 17.3086 25.4821 19.7902 26.7401L18.746 30.4071C18.654 30.7311 19.0386 30.9891 19.3345 30.8011L23.9099 27.8971C24.2967 27.9331 24.6887 27.9541 25.088 27.9541C30.2833 27.9541 33.5552 24.8251 33.5552 20.9651C33.5552 17.1061 30.2833 13.9761 25.088 13.9761Z" fill="black" fill-opacity="0.902"/>
<path d="M71.1603 17.1049C71.0703 21.8449 68.7753 24.6649 65.1753 26.4049L64.4703 25.5499C66.6303 24.6199 68.2953 23.1499 69.2103 21.1999L64.7853 21.5899L64.5453 20.5549L69.5703 20.2549C69.7803 19.5649 69.9153 18.8299 69.9603 18.0499H65.1003V17.1049H71.1603ZM74.4153 15.7549V21.1249H76.5603V22.0999H74.4153V28.8649H73.2753V15.7549H74.4153ZM84.1389 17.1049C84.0489 21.8449 81.7539 24.6649 78.1539 26.4049L77.4489 25.5499C79.6089 24.6199 81.2739 23.1499 82.1889 21.1999L77.7639 21.5899L77.5239 20.5549L82.5489 20.2549C82.7589 19.5649 82.8939 18.8299 82.9389 18.0499H78.0789V17.1049H84.1389ZM87.3939 15.7549V21.1249H89.5389V22.0999H87.3939V28.8649H86.2539V15.7549H87.3939ZM100.927 20.1499C100.927 22.1599 99.2774 23.5249 96.7574 23.6899V26.1799H102.127V27.1399H90.2924V26.1799H95.6174V23.6899C93.1124 23.5099 91.4774 22.1599 91.4774 20.1499C91.4774 17.9899 93.3674 16.5799 96.1874 16.5799C99.0524 16.5799 100.927 17.9899 100.927 20.1499ZM99.8324 20.1649C99.8324 18.5899 98.4074 17.5399 96.1874 17.5399C94.0124 17.5399 92.5874 18.5899 92.5874 20.1649C92.5874 21.7399 94.0124 22.7749 96.1874 22.7749C98.3924 22.7749 99.8324 21.7399 99.8324 20.1649ZM119.046 27.1999H107.211V26.2399H112.536V24.0049H108.666V19.9099H116.436V17.8099H108.651V16.8499H117.576V20.8549H109.806V23.0449H117.951V24.0049H113.676V26.2399H119.046V27.1999ZM132.025 26.9299H120.19V25.9699H132.025V26.9299ZM130.33 17.2249C130.33 20.2399 130.15 22.9699 129.745 24.9799L128.605 24.8299C128.965 23.1649 129.16 20.3149 129.16 18.1699H121.42V17.2249H130.33ZM143.878 25.3249H142.738V15.7549H143.878V25.3249ZM144.208 28.4299H135.328V24.3799H136.468V27.4849H144.208V28.4299ZM136.978 16.6249C138.973 16.6249 140.518 17.9449 140.518 19.8949C140.518 21.8449 138.988 23.1499 136.993 23.1499C134.998 23.1499 133.453 21.8599 133.453 19.9099C133.453 17.9599 134.998 16.6249 136.978 16.6249ZM136.978 17.6149C135.598 17.6149 134.548 18.5599 134.548 19.8949C134.548 21.2149 135.613 22.1449 136.993 22.1449C138.433 22.1449 139.438 21.2149 139.438 19.9099C139.438 18.5599 138.433 17.6149 136.978 17.6149Z" fill="#191919"/>
</g>
<defs>
<clipPath id="clip0_332_18">
<rect width="190" height="45" fill="white"/>
</clipPath>
</defs>
</svg>
