<svg width="308" height="95" viewBox="0 0 308 95" fill="none" xmlns="http://www.w3.org/2000/svg">
<g clip-path="url(#clip0_333_30)">
<path d="M64.6238 12.68V5.924H61.5998V4.88H64.6238V1.616H65.8118V12.68H64.6238ZM58.6718 8.624H59.2718C60.0558 8.624 60.7958 8.6 61.4918 8.552C62.1958 8.504 62.8758 8.424 63.5318 8.312L63.6638 9.332C62.9518 9.46 62.2278 9.548 61.4918 9.596C60.7638 9.644 59.9518 9.668 59.0558 9.668H57.4838V2.54H58.6718V8.624ZM74.1417 10.148C73.6377 10.196 73.1297 10.24 72.6177 10.28C72.1137 10.312 71.5777 10.34 71.0097 10.364C70.4497 10.388 69.8457 10.408 69.1977 10.424C68.5497 10.432 67.8337 10.436 67.0497 10.436V9.404C67.5777 9.412 68.0697 9.416 68.5257 9.416C68.9897 9.408 69.4257 9.4 69.8337 9.392V7.496C69.4737 7.44 69.1497 7.336 68.8617 7.184C68.5737 7.032 68.3297 6.852 68.1297 6.644C67.9377 6.428 67.7857 6.196 67.6737 5.948C67.5697 5.692 67.5177 5.432 67.5177 5.168V4.616C67.5177 4.32 67.5817 4.032 67.7097 3.752C67.8457 3.464 68.0377 3.208 68.2857 2.984C68.5417 2.76 68.8497 2.58 69.2097 2.444C69.5697 2.308 69.9777 2.24 70.4337 2.24C70.8897 2.24 71.2977 2.308 71.6577 2.444C72.0177 2.58 72.3217 2.76 72.5697 2.984C72.8257 3.208 73.0177 3.464 73.1457 3.752C73.2817 4.032 73.3497 4.32 73.3497 4.616V5.168C73.3497 5.424 73.2937 5.68 73.1817 5.936C73.0777 6.184 72.9257 6.416 72.7257 6.632C72.5337 6.84 72.2937 7.024 72.0057 7.184C71.7257 7.336 71.4057 7.44 71.0457 7.496V9.356C71.5817 9.34 72.0897 9.316 72.5697 9.284C73.0497 9.244 73.5377 9.2 74.0337 9.152L74.1417 10.148ZM77.5257 6.872H75.8697V12.68H74.6937V1.616H75.8697V5.84H77.5257V6.872ZM70.4337 6.512C70.6817 6.512 70.9137 6.472 71.1297 6.392C71.3537 6.312 71.5417 6.208 71.6937 6.08C71.8537 5.944 71.9777 5.792 72.0657 5.624C72.1617 5.456 72.2097 5.28 72.2097 5.096V4.688C72.2097 4.496 72.1617 4.316 72.0657 4.148C71.9777 3.972 71.8537 3.82 71.6937 3.692C71.5417 3.564 71.3537 3.464 71.1297 3.392C70.9137 3.312 70.6817 3.272 70.4337 3.272C70.1777 3.272 69.9417 3.312 69.7257 3.392C69.5097 3.464 69.3217 3.564 69.1617 3.692C69.0097 3.82 68.8857 3.972 68.7897 4.148C68.7017 4.316 68.6577 4.496 68.6577 4.688V5.096C68.6577 5.28 68.7017 5.456 68.7897 5.624C68.8857 5.792 69.0097 5.944 69.1617 6.08C69.3217 6.208 69.5097 6.312 69.7257 6.392C69.9417 6.472 70.1777 6.512 70.4337 6.512ZM90.1036 6.584H88.3996V12.68H87.2116V1.616H88.3996V5.552H90.1036V6.584ZM81.5956 8.624H82.1956C82.9796 8.624 83.6996 8.6 84.3556 8.552C85.0196 8.504 85.6796 8.424 86.3356 8.312L86.4676 9.332C86.1076 9.396 85.7556 9.452 85.4116 9.5C85.0756 9.54 84.7276 9.572 84.3676 9.596C84.0076 9.62 83.6316 9.64 83.2396 9.656C82.8476 9.664 82.4276 9.668 81.9796 9.668H80.4076V2.54H81.5956V8.624ZM91.5214 6.14V3.536H97.5214V2.852H91.4614V1.892H98.6854V4.46H92.6854V5.18H98.9014V6.14H91.5214ZM100.209 6.824V7.808H90.0574V6.824H100.209ZM91.5094 12.764V10.148H97.5814V9.464H91.4494V8.504H98.7454V11.084H92.6734V11.804H99.0694V12.764H91.5094ZM105.767 2.012C106.223 2.012 106.623 2.088 106.967 2.24C107.311 2.392 107.599 2.592 107.831 2.84C108.071 3.08 108.247 3.352 108.359 3.656C108.479 3.96 108.539 4.26 108.539 4.556V5.168C108.539 5.464 108.479 5.764 108.359 6.068C108.247 6.372 108.071 6.648 107.831 6.896C107.599 7.136 107.311 7.332 106.967 7.484C106.623 7.636 106.223 7.712 105.767 7.712C105.311 7.712 104.911 7.636 104.567 7.484C104.223 7.332 103.931 7.136 103.691 6.896C103.459 6.648 103.283 6.372 103.163 6.068C103.051 5.764 102.995 5.464 102.995 5.168V4.556C102.995 4.26 103.051 3.96 103.163 3.656C103.283 3.352 103.459 3.08 103.691 2.84C103.931 2.592 104.223 2.392 104.567 2.24C104.911 2.088 105.311 2.012 105.767 2.012ZM110.855 9.512V6.776H109.115V5.756H110.855V4.112H109.115V3.092H110.855V1.616H112.019V9.512H110.855ZM106.295 11.528H112.283V12.56H105.107V8.888H106.295V11.528ZM105.767 6.668C106.031 6.668 106.263 6.62 106.463 6.524C106.671 6.428 106.843 6.308 106.979 6.164C107.123 6.012 107.231 5.84 107.303 5.648C107.375 5.456 107.411 5.264 107.411 5.072V4.652C107.411 4.46 107.375 4.268 107.303 4.076C107.231 3.884 107.123 3.716 106.979 3.572C106.843 3.42 106.671 3.296 106.463 3.2C106.263 3.104 106.031 3.056 105.767 3.056C105.503 3.056 105.267 3.104 105.059 3.2C104.859 3.296 104.687 3.42 104.543 3.572C104.407 3.716 104.303 3.884 104.231 4.076C104.159 4.268 104.123 4.46 104.123 4.652V5.072C104.123 5.264 104.159 5.456 104.231 5.648C104.303 5.84 104.407 6.012 104.543 6.164C104.687 6.308 104.859 6.428 105.059 6.524C105.267 6.62 105.503 6.668 105.767 6.668ZM115.489 12.752V9.764H121.177V8.732H115.429V7.748H122.341V10.724H116.653V11.768H122.653V12.752H115.489ZM117.445 3.092H113.917V2.096H118.609V3.56C118.609 4.032 118.537 4.44 118.393 4.784C118.257 5.12 118.009 5.432 117.649 5.72C117.289 6.008 116.801 6.292 116.185 6.572C115.577 6.844 114.805 7.156 113.869 7.508L113.461 6.548C114.029 6.332 114.521 6.136 114.937 5.96C115.353 5.784 115.709 5.62 116.005 5.468C116.301 5.308 116.541 5.156 116.725 5.012C116.917 4.868 117.065 4.72 117.169 4.568C117.273 4.408 117.345 4.244 117.385 4.076C117.425 3.9 117.445 3.708 117.445 3.5V3.092ZM121.177 7.196V5.972H119.041V4.976H121.177V3.884H119.221V2.888H121.177V1.616H122.341V7.196H121.177ZM126.699 10.208C126.275 10.208 125.899 10.144 125.571 10.016C125.243 9.88 124.963 9.704 124.731 9.488C124.499 9.272 124.323 9.024 124.203 8.744C124.083 8.464 124.023 8.18 124.023 7.892V7.196C124.023 6.908 124.083 6.624 124.203 6.344C124.323 6.064 124.499 5.816 124.731 5.6C124.963 5.376 125.243 5.2 125.571 5.072C125.899 4.936 126.275 4.868 126.699 4.868C127.115 4.868 127.487 4.936 127.815 5.072C128.151 5.2 128.435 5.376 128.667 5.6C128.899 5.816 129.075 6.064 129.195 6.344C129.315 6.624 129.375 6.908 129.375 7.196V7.892C129.375 8.18 129.315 8.464 129.195 8.744C129.075 9.024 128.899 9.272 128.667 9.488C128.435 9.704 128.151 9.88 127.815 10.016C127.487 10.144 127.115 10.208 126.699 10.208ZM133.791 7.04H132.087V12.68H130.899V1.616H132.087V6.008H133.791V7.04ZM126.699 5.864C126.219 5.864 125.839 6 125.559 6.272C125.279 6.536 125.139 6.888 125.139 7.328V7.76C125.139 8.2 125.279 8.552 125.559 8.816C125.839 9.08 126.219 9.212 126.699 9.212C127.179 9.212 127.559 9.08 127.839 8.816C128.119 8.552 128.259 8.2 128.259 7.76V7.328C128.259 6.888 128.119 6.536 127.839 6.272C127.559 6 127.179 5.864 126.699 5.864ZM126.111 3.248V1.688H127.299V3.248H129.867V4.256H123.471V3.248H126.111ZM143.897 7.208V8.216H133.745V7.208H143.897ZM136.397 11.528H142.649V12.56H135.209V9.224H136.397V11.528ZM136.457 2.048V4.928H142.445V5.936H135.281V2.048H136.457ZM153.991 7.808C153.487 7.864 152.979 7.912 152.467 7.952C151.963 7.984 151.423 8.012 150.847 8.036V12.344H149.635V8.072C149.195 8.088 148.731 8.096 148.243 8.096C147.763 8.096 147.251 8.096 146.707 8.096V7.064C147.651 7.072 148.503 7.072 149.263 7.064C150.023 7.048 150.731 7.024 151.387 6.992C151.507 6.512 151.591 5.976 151.639 5.384L147.283 5.54L147.259 4.532L151.687 4.436C151.695 4.348 151.699 4.256 151.699 4.16C151.699 4.064 151.699 3.968 151.699 3.872V3.188H147.415V2.168H152.875V3.788C152.875 4.348 152.851 4.896 152.803 5.432C152.763 5.968 152.695 6.464 152.599 6.92C153.023 6.896 153.455 6.86 153.895 6.812L153.991 7.808ZM154.591 12.68V1.616H155.767V12.68H154.591ZM158.049 3.632V2.6H165.681V3.632H162.513V4.364C162.513 4.532 162.525 4.688 162.549 4.832C162.581 4.968 162.637 5.104 162.717 5.24C162.805 5.376 162.929 5.516 163.089 5.66C163.249 5.796 163.457 5.94 163.713 6.092C163.945 6.236 164.157 6.364 164.349 6.476C164.549 6.588 164.745 6.7 164.937 6.812C165.129 6.916 165.325 7.024 165.525 7.136C165.733 7.248 165.965 7.372 166.221 7.508L165.669 8.444C165.413 8.308 165.177 8.184 164.961 8.072C164.745 7.952 164.537 7.84 164.337 7.736C164.145 7.624 163.953 7.516 163.761 7.412C163.577 7.3 163.385 7.18 163.185 7.052C162.785 6.796 162.481 6.58 162.273 6.404C162.065 6.228 161.929 6.088 161.865 5.984C161.801 6.096 161.661 6.244 161.445 6.428C161.237 6.604 160.933 6.82 160.533 7.076C160.125 7.332 159.725 7.572 159.333 7.796C158.941 8.012 158.517 8.24 158.061 8.48L157.485 7.544C157.749 7.4 157.993 7.268 158.217 7.148C158.449 7.028 158.665 6.912 158.865 6.8C159.065 6.68 159.257 6.568 159.441 6.464C159.625 6.352 159.813 6.236 160.005 6.116C160.253 5.964 160.453 5.82 160.605 5.684C160.765 5.54 160.889 5.4 160.977 5.264C161.065 5.12 161.125 4.976 161.157 4.832C161.189 4.688 161.205 4.532 161.205 4.364V3.632H158.049ZM166.941 10.196V11.204H156.789V10.196H166.941ZM170.663 4.7H172.151V2.912H170.723V1.952H178.451V2.912H177.023V4.7H178.511V5.66H170.663V4.7ZM170.963 12.752V10.004H177.035V9.188H170.903V8.216H178.199V10.952H172.127V11.78H178.523V12.752H170.963ZM179.663 6.404V7.388H169.511V6.404H179.663ZM173.303 4.7H175.871V2.912H173.303V4.7ZM188.1 1.616H189.24V8.876H188.1V5.396H186.984V7.868H185.856V1.76H186.984V4.388H188.1V1.616ZM180.324 7.76V4.52H183.324V3.224H180.288V2.252H184.452V5.468H181.452V6.788H182.028C182.524 6.788 183.028 6.772 183.54 6.74C184.052 6.708 184.564 6.656 185.076 6.584L185.196 7.532C184.756 7.596 184.244 7.652 183.66 7.7C183.084 7.74 182.42 7.76 181.668 7.76H180.324ZM184.848 8.36H186.024V9.284C186.024 9.452 186.036 9.6 186.06 9.728C186.084 9.848 186.132 9.964 186.204 10.076C186.284 10.18 186.388 10.28 186.516 10.376C186.652 10.472 186.828 10.58 187.044 10.7C187.308 10.844 187.64 11.008 188.04 11.192C188.44 11.376 188.94 11.592 189.54 11.84L189.06 12.788C188.532 12.564 188.072 12.352 187.68 12.152C187.296 11.96 186.968 11.796 186.696 11.66C186.312 11.46 186.024 11.292 185.832 11.156C185.648 11.02 185.52 10.896 185.448 10.784C185.376 10.912 185.248 11.044 185.064 11.18C184.888 11.324 184.592 11.5 184.176 11.708C183.912 11.844 183.588 12.004 183.204 12.188C182.82 12.372 182.364 12.576 181.836 12.8L181.332 11.84C181.924 11.6 182.424 11.388 182.832 11.204C183.24 11.02 183.576 10.852 183.84 10.7C184.048 10.58 184.216 10.468 184.344 10.364C184.48 10.26 184.584 10.156 184.656 10.052C184.728 9.94 184.776 9.824 184.8 9.704C184.832 9.584 184.848 9.444 184.848 9.284V8.36ZM200.306 6.968V7.976H190.154V6.968H194.63V5.948H191.306V4.976H192.794V2.984H191.366V2.012H199.094V2.984H197.666V4.976H199.154V5.948H195.83V6.968H200.306ZM198.854 12.668H191.606V8.912H198.854V12.668ZM197.678 9.908H192.782V11.672H197.678V9.908ZM193.958 4.976H196.502V2.984H193.958V4.976Z" fill="#424242"/>
<path d="M76.7252 39.1054L80.8335 44.4191C81.116 44.8018 81.5666 44.9049 82.0706 44.6325C95.9761 35.9555 99.8553 47.7825 81.7346 57.7033C81.2306 57.9756 81.1695 58.4099 81.5131 58.8441L85.6214 63.672C85.9574 64.0547 86.3545 64.1063 86.805 63.8855C90.2413 62.0971 94.4565 59.3298 97.7248 55.6426C98.0608 55.2599 98.4579 55.1569 98.9084 55.4807C101.551 57.1587 103.803 59.3298 105.437 61.9352C105.72 62.4209 106.17 62.5313 106.621 62.2075L111.852 58.6822C112.302 58.3583 112.417 58.0345 112.134 57.5414C109.767 53.3611 106.506 50.5424 102.734 48.8055C102.23 48.5921 102.116 48.2093 102.284 47.7236C104.926 39.4219 99.9775 32.6951 90.6308 32.6951C86.0185 32.6951 82.6356 34.1597 76.9543 37.9573C76.4503 38.2811 76.3892 38.6638 76.7329 39.0981L76.7252 39.1054ZM83.8727 25.7034L86.2934 29.7145C86.5148 30.1487 86.9119 30.2591 87.4159 30.0972C89.6075 29.3906 93.2729 29.2287 96.1365 30.8552C96.6405 31.1275 97.0375 31.0686 97.3201 30.5829L99.9622 26.4615C100.245 26.0273 100.184 25.6446 99.7942 25.3207C95.4034 22.3401 88.821 22.1193 84.1476 24.5627C83.6436 24.835 83.5825 25.2103 83.8651 25.7034H83.8727ZM114.547 25.9169L121.809 23.9077C122.313 23.7458 122.71 23.9592 122.878 24.5038C124.398 30.3621 125.131 37.7954 125.131 43.5433C125.131 51.7346 124.398 60.3602 122.313 69.8027C122.199 70.2884 121.863 70.5092 121.412 70.5607L114.15 70.9949C113.585 71.0464 113.249 70.7226 113.364 70.1265C114.486 63.0759 115.838 53.42 115.838 44.9049C115.838 40.9453 115.334 32.9159 113.921 26.8957C113.807 26.41 114.036 26.0788 114.54 25.9169H114.547Z" fill="#212121"/>
<path d="M67.6462 22.649C67.4782 22.1044 67.0811 21.8909 66.5771 22.0528L60.6132 23.7897C60.1093 23.9516 59.8802 24.2755 59.9947 24.7686C60.8423 28.3822 61.3616 32.6361 61.6365 36.3159C60.7736 36.544 59.9031 36.8164 59.0326 37.1623C58.6813 33.1954 58.0475 29.0887 57.1235 25.5266C56.9555 24.982 56.5584 24.8201 56.0544 24.982L50.8236 26.557C50.3196 26.7189 50.0906 27.0427 50.2051 27.5358C51.6102 33.556 52.1218 41.8577 52.1218 45.8172C52.1218 54.3324 50.7702 61.4419 49.6477 68.3305C49.5331 68.9266 49.8691 69.2505 50.4342 69.199L55.665 68.7647C56.1155 68.7132 56.4515 68.4924 56.5661 68.0067C58.582 58.9837 59.3304 53.0592 59.3762 45.2726C60.2238 44.8605 61.0714 44.5219 61.8961 44.257C61.7358 52.3379 60.4911 61.199 59.4373 67.7859C59.3227 68.382 59.6587 68.7059 60.2238 68.6543L65.6302 68.2201C66.0808 68.1686 66.4168 67.9478 66.5313 67.5136C69.1734 58.0196 69.9065 49.3941 69.9065 41.2027C69.9065 35.4548 69.1734 28.4558 67.6538 22.649H67.6462Z" fill="#212121"/>
<path d="M35.2761 31.0615C29.6482 31.0615 24.9748 33.0707 20.3625 36.4856C19.912 36.8094 19.912 37.2437 20.1946 37.6264L24.1348 42.9401C24.4174 43.3228 24.8679 43.4258 25.3184 43.1535C28.1897 41.4166 31.1143 40.0035 34.2146 40.0035C36.0702 40.0035 37.712 40.9824 38.7505 42.3954C35.3066 43.3301 31.374 44.8536 27.9148 46.6788C27.4108 46.9511 27.2962 47.3264 27.6322 47.8195L30.5569 51.6171C30.8394 51.9998 31.2289 52.1029 31.6794 51.8894C34.1001 50.572 37.1546 49.5417 39.1934 49.0559C37.1469 53.9428 31.0685 58.3144 27.2275 60.6769C26.777 60.9492 26.7235 61.3245 27.0595 61.7588L31.1143 66.5352C31.4503 66.9179 31.8474 67.0209 32.2979 66.8075C40.2319 62.5757 48.1736 54.0017 48.1736 44.0808C48.1736 36.6475 42.0417 31.0615 35.2837 31.0615H35.2761Z" fill="#212121"/>
<path d="M189.024 39.1054L193.132 44.4191C193.414 44.8018 193.865 44.9049 194.369 44.6325C208.275 35.9555 212.154 47.7825 194.033 57.7033C193.529 57.9756 193.468 58.4099 193.812 58.8441L197.92 63.672C198.256 64.0547 198.653 64.1063 199.103 63.8855C202.54 62.0971 206.755 59.3298 210.023 55.6426C210.359 55.2599 210.756 55.1569 211.207 55.4807C213.849 57.1587 216.102 59.3298 217.736 61.9352C218.018 62.4209 218.469 62.5313 218.919 62.2075L224.15 58.6822C224.601 58.3583 224.715 58.0345 224.433 57.5414C222.066 53.3611 218.805 50.5424 215.033 48.8055C214.529 48.5921 214.414 48.2093 214.582 47.7236C217.224 39.4219 212.276 32.6951 202.929 32.6951C198.317 32.6951 194.934 34.1597 189.253 37.9573C188.749 38.2811 188.688 38.6638 189.031 39.0981L189.024 39.1054ZM196.171 25.7034L198.592 29.7145C198.813 30.1487 199.21 30.2591 199.714 30.0972C201.906 29.3906 205.571 29.2287 208.435 30.8552C208.939 31.1275 209.336 31.0686 209.618 30.5829L212.261 26.4615C212.543 26.0273 212.482 25.6446 212.093 25.3207C207.702 22.3401 201.119 22.1193 196.446 24.5627C195.942 24.835 195.881 25.2103 196.164 25.7034H196.171ZM226.846 25.9169L234.108 23.9077C234.612 23.7458 235.009 23.9592 235.177 24.5038C236.696 30.3621 237.43 37.7954 237.43 43.5433C237.43 51.7346 236.696 60.3602 234.612 69.8027C234.497 70.2884 234.161 70.5092 233.711 70.5607L226.449 70.9949C225.884 71.0464 225.548 70.7226 225.662 70.1265C226.785 63.0759 228.136 53.42 228.136 44.9049C228.136 40.9453 227.632 32.9159 226.22 26.8957C226.105 26.41 226.334 26.0788 226.838 25.9169H226.846Z" fill="#212121"/>
<path d="M179.394 22.649C179.226 22.1044 178.829 21.8909 178.325 22.0528L172.361 23.7897C171.857 23.9516 171.628 24.2755 171.743 24.7686C172.59 28.3822 173.11 32.6361 173.384 36.3159C172.522 36.544 171.651 36.8164 170.781 37.1623C170.429 33.1954 169.795 29.0887 168.871 25.5266C168.703 24.982 168.306 24.8201 167.802 24.982L162.572 26.557C162.068 26.7189 161.839 27.0427 161.953 27.5358C163.358 33.556 163.87 41.8577 163.87 45.8172C163.87 54.3324 162.518 61.4419 161.396 68.3305C161.281 68.9266 161.617 69.2505 162.182 69.199L167.413 68.7647C167.863 68.7132 168.199 68.4924 168.314 68.0067C170.33 58.9837 171.078 53.0592 171.124 45.2726C171.972 44.8605 172.819 44.5219 173.644 44.257C173.484 52.3379 172.239 61.199 171.185 67.7859C171.071 68.382 171.407 68.7059 171.972 68.6543L177.378 68.2201C177.829 68.1686 178.165 67.9478 178.279 67.5136C180.921 58.0196 181.654 49.3941 181.654 41.2027C181.654 35.4548 180.921 28.4558 179.402 22.649H179.394Z" fill="#212121"/>
<path d="M147.032 31.0615C141.404 31.0615 136.73 33.0707 132.118 36.4856C131.668 36.8094 131.668 37.2437 131.95 37.6264L135.89 42.9401C136.173 43.3228 136.623 43.4258 137.074 43.1535C139.945 41.4166 142.87 40.0035 145.97 40.0035C147.826 40.0035 149.468 40.9824 150.506 42.3954C147.062 43.3301 143.13 44.8536 139.67 46.6788C139.166 46.9511 139.052 47.3264 139.388 47.8195L142.312 51.6171C142.595 51.9998 142.984 52.1029 143.435 51.8894C145.856 50.572 148.91 49.5417 150.949 49.0559C148.902 53.9428 142.824 58.3144 138.983 60.6769C138.533 60.9492 138.479 61.3245 138.815 61.7588L142.87 66.5352C143.206 66.9179 143.603 67.0209 144.053 66.8075C151.988 62.5757 159.929 54.0017 159.929 44.0808C159.929 36.6475 153.797 31.0615 147.039 31.0615H147.032Z" fill="#212121"/>
<path d="M273.865 66.9928L279.163 57.3239L283.54 61.1845L273.865 66.9928Z" fill="#8C6EFF"/>
<path d="M283.54 61.1845L280.321 60.0965L279.163 57.3239L300.196 35.5645L304.582 39.4251L283.54 61.1845Z" fill="#212121"/>
<path d="M303.613 32L300.782 34.9279L305.169 38.7888L308 35.8609L303.613 32Z" fill="#212121"/>
<path d="M282.308 76.8723C282.427 76.7231 282.253 76.6178 281.82 76.8723L281.646 77.2847L282.308 76.8635V76.8723Z" fill="#212121"/>
<path d="M279.015 77.8637C278.546 78.241 278.022 78.7236 278.491 78.8201C278.914 78.3375 279.089 78.3726 279.512 77.8111C279.953 77.5742 280.349 77.5303 280.321 77.6619C280.441 77.5216 281.048 77.3724 281.204 77.0916C280.514 77.1881 279.779 77.5303 279.071 78.0568C278.877 78.0743 279.006 77.9339 279.015 77.8637Z" fill="#212121"/>
<path d="M249.006 64.6238C248.914 64.6677 248.822 64.7204 248.749 64.773C248.822 64.7291 248.914 64.6853 249.006 64.6238Z" fill="#212121"/>
<path d="M260.695 75.679C260.861 75.5299 260.916 75.4509 260.907 75.4246C260.76 75.565 260.64 75.6878 260.695 75.679Z" fill="#212121"/>
<path d="M256.299 78.0392C256.401 77.9953 256.483 77.9602 256.566 77.9164C256.456 77.9427 256.345 77.9866 256.299 78.0392Z" fill="#212121"/>
<path d="M249.006 64.6238C249.236 64.5098 249.457 64.3782 249.696 64.2817C249.687 64.1676 249.319 64.422 249.006 64.6238Z" fill="#212121"/>
<path d="M272.909 80.8644C273.074 80.803 273.203 80.7416 273.313 80.6714C273.175 80.724 273.047 80.7679 272.918 80.8118C272.918 80.8293 272.918 80.8469 272.909 80.8644Z" fill="#212121"/>
<path d="M246.588 75.4158L246.707 75.6001C246.772 75.6352 246.836 75.6703 246.91 75.6966L246.588 75.4158Z" fill="#212121"/>
<path d="M254.387 80.4608C254.175 80.3906 254.037 80.61 253.927 80.689C254.074 80.6188 254.239 80.6363 254.442 80.6451C254.46 80.6012 254.442 80.5398 254.377 80.4608H254.387Z" fill="#212121"/>
<path d="M270.398 80.4608L270.674 80.3643C270.6 80.3906 270.481 80.4345 270.398 80.4608Z" fill="#212121"/>
<path d="M245.999 69.1337C245.999 69.1337 246.082 69.1073 246.109 69.081C246.082 69.0722 246.036 69.0898 245.999 69.1337Z" fill="#212121"/>
<path d="M12.0062 92.7795C12.0062 92.7795 12.0062 92.7531 12.0062 92.7356C11.9418 92.7619 11.9234 92.7707 12.0062 92.7795Z" fill="#212121"/>
<path d="M0.133206 90.9983H0.298748C0.317141 90.9457 0.335535 90.9018 0.344731 90.858L0.133206 90.9983Z" fill="#212121"/>
<path d="M247.563 81.1715C247.563 81.1715 247.59 81.1715 247.599 81.1715C247.829 81.075 247.691 81.1189 247.563 81.1715Z" fill="#212121"/>
<path d="M161.509 91.7441C162.502 91.9284 159.917 92.0863 161.407 92.2793C161.269 92.1916 162.741 91.8406 161.509 91.7441Z" fill="#212121"/>
<path d="M272.633 80.8995C272.495 80.9346 272.357 80.9785 272.219 81.0224C272.412 80.9785 272.532 80.9434 272.633 80.8995Z" fill="#212121"/>
<path d="M161.417 92.2793L161.573 92.2969C161.509 92.2969 161.472 92.2881 161.417 92.2793Z" fill="#212121"/>
<path d="M226.465 86.0674C226.52 86.1025 226.612 86.12 226.704 86.1376C226.695 86.1113 226.64 86.0937 226.465 86.0674Z" fill="#212121"/>
<path d="M242.412 83.1544L242.017 83.2246C242.173 83.2071 242.302 83.1808 242.412 83.1544Z" fill="#212121"/>
<path d="M218.17 87.6467C217.949 87.6555 217.875 87.6291 217.581 87.7081C217.609 87.7081 217.636 87.7257 217.673 87.7257C217.774 87.6818 217.912 87.6467 218.17 87.6467Z" fill="#212121"/>
<path d="M209.433 88.7171C209.479 88.7347 209.543 88.7347 209.598 88.7522C209.681 88.7347 209.782 88.7259 209.874 88.7083H209.433V88.7171Z" fill="#212121"/>
<path d="M38.8239 93.6481C38.6308 93.5691 38.5112 93.4901 38.4285 93.4112C38.5572 93.5867 37.2605 93.613 38.8239 93.6481Z" fill="#212121"/>
<path d="M272.863 80.7328C272.835 80.803 272.762 80.8557 272.642 80.9083C272.743 80.8732 272.835 80.8469 272.927 80.8118C272.946 80.7679 272.936 80.7328 272.872 80.7328H272.863Z" fill="#212121"/>
<path d="M218.096 89.6208L216.698 89.77C217.094 89.7437 217.599 89.6823 218.096 89.6208Z" fill="#212121"/>
<path d="M102.144 94.7273L101.822 94.7536C101.941 94.7536 102.061 94.7536 102.144 94.7273Z" fill="#212121"/>
<path d="M212.56 90.3227C212.302 90.2701 212.026 90.2438 211.75 90.2438C211.695 90.2701 211.631 90.2964 211.594 90.3227H212.56Z" fill="#212121"/>
<path d="M29.1581 93.6919C30.4917 93.7446 29.8019 93.3936 30.087 93.2182C31.6872 93.1831 30.8136 93.4814 31.3562 93.6656C32.3586 93.613 33.1311 93.341 33.8669 93.3761C33.9221 93.4287 34.06 93.455 33.8945 93.5165C34.9521 93.2971 37.0214 93.6042 38.2537 93.3234C38.3457 93.3585 38.3917 93.3849 38.4101 93.4112C38.2169 93.2445 38.1893 93.0778 38.2353 92.9637C38.8331 92.9813 39.3573 92.797 39.5689 93.0163C39.201 92.9988 39.1642 93.0865 38.9987 93.148L39.6332 93.0778C40.185 93.4024 38.7687 93.1567 38.7687 93.3849C39.9919 93.3234 41.4266 93.1129 42.3647 93.2269C42.5486 93.534 40.1666 93.262 41.4082 93.5603L39.9643 93.4024C41.0587 93.9025 39.0814 93.341 40.0839 93.8762C41.9876 94.0166 42.2267 93.7885 44.1304 93.9288C44.5627 93.7797 43.9925 93.6832 44.4339 93.5252C47.147 93.3059 46.54 94.3324 48.5449 93.9903C49.0691 93.806 49.2806 93.4375 50.6877 93.6744L50.1911 93.999C52.0397 94.078 51.2579 93.5428 53.1892 93.8236C52.8398 93.9464 51.7362 93.8937 52.0121 93.9464C53.2628 94.2447 52.9041 93.7797 53.8698 93.806L54.0629 94.1131C56.031 94.1131 58.2107 93.9552 60.3903 93.9464C60.2707 94.0341 59.8937 94.1131 60.3903 94.2184C63.1401 94.1306 66.2578 94.3763 68.9065 94.6044L69.9273 94.3675C70.1664 94.3675 70.3596 94.4904 70.1021 94.5342C71.1321 94.6483 70.1572 94.3763 70.6539 94.2798C71.2425 94.2798 71.4264 94.4377 71.0493 94.5079C72.8795 94.3237 76.2547 94.1219 78.1676 94.429L77.7905 94.4991C79.2896 94.6308 79.4919 93.999 80.8715 94.2535L80.6048 94.2973C83.8512 94.4553 87.4471 94.2535 89.9211 94.6659C90.3993 94.2973 93.1307 94.8589 93.3514 94.3412C95.2 94.6132 94.6758 94.701 97.2877 94.8852C97.9866 94.9115 98.3269 94.5693 99.1914 94.5167L99.2098 94.7887L100.378 94.5079L101.003 94.8326L101.812 94.7624C101.491 94.7448 101.132 94.6395 101.178 94.5606C102.438 94.4465 104.259 94.7536 104.286 94.894L107.275 94.6659C107.211 94.7711 106.705 94.815 106.31 94.8764C107.91 94.6044 106.604 95.166 108.066 94.9115C107.873 94.8501 108.177 94.7536 108.204 94.6922C108.931 94.8501 110.595 94.8501 111.819 94.7799L111.579 94.9642C113.796 95.008 116.251 94.8589 118.744 94.8501C117.852 94.7711 118.054 94.4465 118.78 94.4114L119.075 94.6922C119.544 94.5167 118.311 94.5869 119.277 94.3675C120.206 94.3939 119.902 94.6922 119.369 94.7887L120.5 94.6834C120.565 94.7711 120.307 94.815 120.234 94.9291C120.693 94.7448 122.192 95.2011 122.855 94.8852L122.919 94.9729C125.411 94.9554 126.533 94.8413 128.566 94.7975C128.603 94.5518 129.393 94.5957 130 94.3851C131.49 94.4465 133.146 94.6132 134.939 94.5606C136.199 94.4202 135.307 94.3412 135.868 94.1921C135.969 94.4114 137.753 94.3675 136.834 94.543C138.986 94.464 139.583 94.4377 142.306 94.2008C142.011 94.1131 141.671 94.078 141.846 93.999C142.343 93.9552 142.977 94.0692 142.904 94.1745L142.775 94.2008C145.819 93.7885 149.856 94.6834 152.275 94.1306L152.137 94.157L154.657 93.8323C155.816 93.8323 153.967 94.0254 154.832 94.1394C157.545 93.6744 159.136 94.0429 161.371 93.7095C163.136 94.2973 167.523 93.4112 169.887 93.7095L169.74 93.5603C170.337 93.3761 170.475 93.613 170.926 93.6305C170.852 93.5165 170.264 93.5252 170.632 93.42C175.745 92.99 181.226 93.0865 186.496 92.8672C188.418 92.7795 187.526 91.9898 189.972 92.1916L189.31 92.525C193.155 91.9021 197.238 91.9196 200.999 91.2791C200.779 91.3668 200.779 91.4546 200.411 91.4897C201.229 91.6301 203.372 91.2177 203.363 91.0422C203.952 91.0071 203.519 91.1826 203.887 91.2352C204.706 91.2791 205.874 90.779 206.324 90.9369C206.398 90.9632 206.104 91.0334 205.966 91.0598C206.481 90.9018 208.403 90.8229 207.879 90.6386C209.313 90.5947 210.582 90.2438 211.732 90.2526C212.431 89.8928 214.178 90.0859 214.362 89.6823C214.316 90.0946 216.891 89.6998 217.765 89.3839C217.48 89.5419 218.565 89.4015 218.234 89.6121C219.255 89.4717 220.184 89.2699 219.972 89.0944C221.931 89.305 223.688 88.1556 224.847 88.6031C227.835 87.9187 230.604 87.287 233.289 86.6728C233.271 87.0764 230.3 87.2694 230.503 87.6555C231.772 87.3396 232.765 87.0237 233.758 86.743C234.742 86.4447 235.735 86.1727 237.014 85.9533C237.685 85.8656 236.683 86.199 236.471 86.3131C238.991 85.6111 241.419 85.2514 243.617 84.4354C243.617 84.4705 243.387 84.5758 243.166 84.6635C243.608 84.5319 244.215 84.4442 244.114 84.2863L243.691 84.4442C242.909 84.374 245.3 83.4703 245.328 83.286C244.739 84.0055 247.563 82.7508 246.588 83.7335C246.864 83.6107 247.204 83.4264 247.103 83.3299C247.544 83.2334 247.7 83.2597 247.314 83.5229C248.859 82.9614 248.234 82.9439 249.65 82.4701C249.678 82.5578 249.402 82.6806 249.292 82.8298C249.944 82.4174 250.607 82.0401 251.811 81.6629C251.765 81.7418 251.922 81.7506 251.572 81.8822C252.575 81.4698 253.393 81.0311 254.23 80.6012C255.049 80.1099 255.913 79.6887 257.008 79.2149C256.575 79.8817 257.78 78.9429 258.065 79.1623L259.141 78.4604L258.599 78.5744C259.104 78.3288 259.5 77.9515 259.895 77.6444C260.291 77.3198 260.695 77.0478 261.1 76.7933C260.925 77.0127 260.705 77.1794 260.502 77.3812C261.1 77.0039 261.597 76.495 262.139 76.0475L261.128 76.7056C261.891 75.8633 260.76 76.4599 261.965 75.6001C261.863 75.7053 262.075 75.5386 262.388 75.3017C262.664 75.0385 263.041 74.7051 263.317 74.556C263.464 74.3278 263.62 74.0909 263.786 73.8365C263.933 73.5645 264.117 73.275 264.383 72.9591C264.595 72.8363 264.613 73.2925 264.751 73.2135C264.917 72.6696 265.947 70.8446 265.763 70.0725C265.772 70.3094 265.947 70.3708 266.002 70.3006L265.892 69.8005C266.048 69.3091 266.094 69.2214 266.223 69.3267C266.361 68.5283 266.177 68.6423 266.103 68.7301C266.002 68.809 265.965 68.8617 266.02 67.9316C266.048 68.0808 266.103 68.0018 266.131 68.3089C266.168 67.3613 265.873 66.4225 265.386 65.6504C264.898 64.8695 264.255 64.2553 263.583 63.685C263.473 63.4043 263.813 63.5973 264.117 63.8517C264.429 64.0799 264.687 64.3694 264.576 64.0448C263.574 63.1323 262.287 62.5795 261.017 62.2286C259.739 61.8776 258.451 61.746 257.237 61.6407C257.385 61.6582 257.541 61.6758 257.688 61.7109C257.329 62.1408 255.876 61.3687 254.644 61.7372C254.938 61.6582 255.012 61.4477 254.938 61.5003C253.255 61.6056 251.462 62.0969 249.337 63.4481L249.549 63.1937C249.089 63.3867 248.51 63.7114 247.986 64.1237C247.434 64.5098 247.02 65.0362 246.615 65.396C246.468 65.6855 246.137 66.1856 246.486 65.9838C245.181 67.0367 244.647 68.6248 244.482 70.0812C244.463 70.4497 244.445 70.8183 244.436 71.178C244.445 71.5377 244.5 71.8974 244.518 72.2572C244.518 72.6169 244.583 72.9679 244.638 73.3188C244.702 73.6698 244.693 74.0383 244.758 74.3893C244.62 74.0734 244.454 73.6171 244.5 73.8979C244.583 74.3015 244.813 74.6612 244.969 75.0385L245.236 75.6001C245.346 75.7755 245.466 75.9422 245.585 76.1089C245.686 75.837 245.493 75.7931 245.447 75.2579C245.65 75.5035 246.137 75.9861 246.431 76.4862C245.769 75.6527 246.109 76.688 246.349 77.118C246.349 77.0214 246.514 77.1004 246.542 77.0302C246.808 77.6181 246.937 77.6005 247.093 77.6005C247.277 77.6005 247.415 77.6795 248.004 78.2849L247.857 78.3024C248.39 78.6797 248.914 78.9517 249.503 79.3027C249.613 79.6449 248.859 79.0394 248.694 79.1711C249.126 79.4255 249.604 79.5834 250.046 79.7501C250.478 79.9432 250.947 80.0221 251.287 80.3204C250.883 80.2064 250.303 80.0134 249.935 79.8291C250.643 80.5486 250.827 80.4696 251.471 80.8118L251.407 80.7767C251.903 81.0662 252.437 81.2417 252.979 81.4347L252.584 81.2417C253.292 81.1013 253.881 81.3119 254.552 81.3996C255.223 81.4874 255.95 81.6804 256.787 81.54C255.15 81.7331 256.493 81.7331 256.345 81.9963C256.759 82.1103 257.412 82.2156 257.219 82.277C258.019 82.0928 258.571 82.549 259.665 82.2244C259.711 82.3121 260.493 82.2244 260.318 82.4437C261.33 82.3735 260.079 82.2946 260.162 82.1893C261.707 81.891 263.859 82.5227 266.094 81.9085C268.016 81.5312 268.329 81.1978 270.049 80.7153C270.674 80.7328 269.625 81.1189 269.625 81.1189C270.619 81.0662 271.336 80.8557 272.201 80.5398C272.044 80.6626 272.247 80.6714 272.541 80.689C273.249 80.4608 272.927 80.2678 273.902 80.1011C273.773 80.2415 273.617 80.4608 273.304 80.6451C274.123 80.3204 274.895 79.9081 275.705 79.522C275.98 79.5747 275.281 79.9344 275.006 80.1186C275.953 79.7326 277.434 79.0833 277.617 78.7324L276.983 78.8991C277.314 78.7499 277.24 79.0131 277.001 79.1535C276.266 79.6361 275.797 79.5132 275.723 79.4518L276.302 79.1798C275.502 78.9429 273.93 80.1362 272.651 80.4345L273.056 79.9432C272.66 80.1537 272.274 80.3819 271.869 80.5837C271.566 80.5573 271.336 80.4082 271.934 80.2064C270.996 80.2415 271.18 80.5222 270.361 80.5047C270.269 80.4871 270.306 80.4696 270.38 80.4345L269.524 80.7153C269.681 80.61 269.322 80.4871 269.874 80.4345C268.274 80.5486 267.372 81.1276 266.729 80.9258L266.857 80.8907C264.659 81.2417 266.683 81.1891 265.027 81.6541L263.859 81.0662L263.657 81.3382C263.427 81.3382 262.967 81.3382 263.05 81.2242C262.195 81.4435 263.197 81.3382 262.71 81.5312C261.588 81.3207 259.638 81.6804 259.38 81.2505C258.976 81.4523 260.447 81.4084 259.261 81.5488C258.93 81.1013 257.89 81.5663 256.888 81.3119C257.219 81.0926 258.157 81.268 257.173 81.0048C256.52 81.426 255.26 80.6626 254.432 80.6275C254.368 80.803 253.927 80.6977 253.32 80.531C253.016 80.4433 252.676 80.3468 252.317 80.2503C251.977 80.1186 251.637 79.9695 251.296 79.8642C251.398 79.8467 248.988 78.6007 248.225 77.583L248.289 77.5654C248.188 77.583 248.041 77.5479 247.884 77.4601C247.746 77.3636 247.581 77.2145 247.415 77.0478C247.25 76.8723 247.066 76.688 246.891 76.5038C246.716 76.3107 246.597 76.0826 246.45 75.8984C246.643 75.8282 246.79 75.9422 247.139 76.2932C246.974 76.0651 246.836 75.8106 246.68 75.5737C246.496 75.4509 246.238 75.2754 246.017 74.7578L246.33 74.8543C246.128 74.3366 245.788 73.8628 245.64 73.2662C245.41 72.6959 245.374 72.0291 245.42 71.3096C245.3 71.2657 245.153 71.5553 245.006 71.6693C244.932 71.722 244.859 71.7395 244.785 71.6342C244.721 71.5289 244.62 71.3008 244.647 70.8797C244.785 70.827 245.006 70.7919 245.006 71.2043C245.006 71.0727 244.96 70.7042 245.043 70.4322L245.181 71.0815C245.355 70.4147 245.043 70.713 245.125 70.169C245.3 70.2041 245.309 69.7917 245.447 69.897C245.429 70.0286 245.309 70.3532 245.355 70.5638C245.41 69.9584 245.788 69.2916 245.962 69.1073C245.852 69.1249 245.714 69.0371 245.843 68.6072C246.33 67.5631 246.22 68.3352 246.588 67.7825C246.569 67.4666 247.139 66.9665 246.919 66.7998C247.112 66.519 247.25 66.5453 247.379 66.4839C247.517 66.2207 248.013 65.7294 248.363 65.3082C248.758 64.9485 249.025 64.6677 248.675 64.773L248.537 64.8607C248.537 64.8607 248.583 64.8169 248.611 64.7906C249.319 64.0623 250.312 63.571 251.333 63.2463C252.363 62.9217 253.421 62.7462 254.432 62.562V62.6497C255.646 62.3777 257.164 62.4391 258.065 62.3777C258.433 62.4128 258.893 62.6673 258.718 62.7374C259.638 62.8427 259.803 62.7462 261.008 63.3253C260.079 63.1674 261.266 63.5271 260.07 63.1323C260.631 63.3253 260.944 63.5183 261.275 63.6675C261.606 63.8254 261.955 63.957 262.544 64.1764C262.084 64.1325 263.096 64.852 263.482 65.1854C263.353 64.9573 263.169 64.773 263.013 64.5624C263.5 64.9134 263.878 65.2907 264.153 65.7206L263.74 65.6767C264.236 66.5892 264.659 67.3525 264.806 68.2563C264.954 69.1424 264.825 70.09 264.199 70.7744C264.199 71.4149 264.76 69.6689 264.816 70.2392C264.448 71.2657 263.5 72.0554 263.298 72.2923C262.397 73.3802 262.848 73.6171 261.689 74.7051C261.891 74.6261 262.296 74.7227 261.404 75.5737C260.484 76.2757 260.033 76.1177 260.53 75.6088C260.732 75.4334 260.852 75.3719 260.87 75.407C261.128 75.1438 261.459 74.8192 261.036 75.0122L260.999 75.1789C260.751 75.3105 260.337 75.6264 259.997 75.8545C259.629 76.0563 259.362 76.1879 259.463 76.0124C258.819 76.5564 259.261 76.3546 259.822 76.0475C259.169 76.3809 258.7 76.688 258.222 77.0127C257.725 77.3022 257.21 77.583 256.529 77.8988C256.768 77.8374 257.026 77.8374 256.814 77.9515C255.812 78.434 255.591 78.5481 255.49 78.6885C255.38 78.8201 255.361 78.9254 254.681 79.2676C253.825 79.4781 254.8 78.8026 253.458 79.5483C252.538 79.794 253.163 79.3641 253.458 79.1535C252.244 79.8379 250.993 80.0046 250.23 80.2152C250.45 80.1099 250.671 80.0046 250.883 79.8905C250.496 80.1011 250.147 80.1976 249.807 80.3204L250.276 80.3819C249.853 80.4872 249.503 80.6012 249.485 80.5222C249.108 80.7942 249.935 80.7328 249.163 81.1978C248.583 81.2856 247.526 81.8734 247.241 81.6541C249.006 81.1978 246.965 81.4698 248.409 80.9346C248.142 81.0575 247.802 81.1891 247.369 81.268C247.296 81.2593 247.406 81.1978 247.517 81.1452C245.769 81.4084 246.854 81.6716 245.116 82.1805C245.291 81.9612 244.629 82.0226 244.353 82.1279C245.052 81.9261 244.767 82.2946 244.151 82.5754C242.992 82.7508 242.955 82.9877 242.357 83.1281L243.047 83.0053C242.863 83.2158 242.293 83.3475 241.52 83.6019C241.419 83.5054 242.21 83.3299 241.916 83.3562C241.116 83.8651 239.856 83.5668 238.678 84.0318C238.081 84.0582 238.55 83.7598 238.035 83.8037C236.71 84.3214 236.49 83.9178 235.083 84.3916C235.552 84.5056 235.607 84.4442 234.632 84.8566L236.986 84.2161L235.524 84.8303C236.251 84.6811 237.014 84.3916 237.455 84.3301C236.766 84.6548 236.83 84.5846 237.216 84.6811C236.159 84.5758 235.294 85.269 234.108 85.2953L234.034 84.7776C232.268 84.9004 231.027 85.6199 228.764 85.9007L229.5 85.8656C229.243 86.1288 228.121 86.1288 227.403 86.3306C227.44 86.1464 226.971 86.1639 226.64 86.1113C226.704 86.2341 224.994 86.3745 224.847 86.7517L223.798 86.6728C221.959 86.8483 221.802 87.48 220.037 87.6642C220.533 87.401 219.724 87.401 220.874 87.0939C220.285 87.1817 219.761 87.2168 219.77 87.3396C219.411 87.2782 218.179 87.7871 217.618 87.6993C217.379 87.8046 217.324 87.9977 216.661 88.0766C216.588 88.0503 216.652 87.9889 216.652 87.9889C216.661 88.0766 215.641 88.2433 216.238 88.3574C214.353 88.0503 211.18 89.0242 209.543 88.7259C208.265 88.9189 206.72 89.147 205.561 89.2786C205.635 89.2172 205.561 89.1909 205.782 89.1909C204.154 89.1909 204.844 89.7788 202.995 89.7788C202.029 89.5945 203.952 89.5331 203.354 89.4804C203.041 88.9365 201.147 89.7788 199.877 89.5506L200.172 89.4892C199.206 89.3752 197.891 89.9016 196.346 89.9981C196.346 89.9981 196.419 89.9455 196.346 89.9104C195.316 90.2964 193.329 90.5421 191.849 90.7439C192.29 90.4895 192.511 90.5772 192.216 90.3666C191.554 90.4544 192.446 90.7176 191.122 90.8843C190.681 90.7965 189.715 90.7614 189.568 90.5333L190.819 90.428C190.147 90.1648 189.2 90.5596 188.529 90.5509L188.602 90.4105C186.68 90.586 186.68 90.9369 184.611 91.051L184.831 91.1387C183.728 91.5599 183.866 91.0071 182.762 91.3318L182.394 91.0071C181.659 91.1387 179.801 91.5072 178.467 91.6476C179.212 91.3493 180.767 91.1212 181.723 90.9106C180.987 90.9545 179.212 91.0949 178.835 91.2879C179.129 91.2352 179.497 91.13 179.801 91.165C178.909 91.4985 177.722 91.6915 176.251 91.7705C176.472 91.0861 172.397 91.8143 171.303 91.3405C168.71 91.7178 166.125 91.4809 163.09 91.6476C164.194 92.1214 162.207 91.7003 162.41 92.2267C161.702 92.2881 161.435 92.2969 161.371 92.2618L159.209 92.0161C158.694 91.8757 159.881 91.8757 159.807 91.7529C158.253 91.7704 159.145 91.5511 158.115 91.4458C158.336 91.6301 157.591 91.7441 156.699 91.7003L157.949 91.9021C155.797 92.2618 156.064 91.5248 153.884 91.8757L154.565 91.6827C153.452 91.8143 150.436 91.8055 149.341 92.2706C149.139 92.2179 148.872 92.0775 149.369 92.0249C146.693 92.0249 143.419 92.6478 141.331 92.4197L141.533 92.2881C141.037 92.3408 140.669 92.5513 140.043 92.4373C140.071 92.3846 140.246 92.3057 140.007 92.2969C139.74 92.3495 138.682 92.5513 138.02 92.4899L138.581 92.332C135.96 92.2091 134.58 92.7619 132.382 92.8935C132.382 92.5075 130.322 92.4109 129.292 92.3583L129.329 92.3057C126.285 92.3057 124.161 92.6917 121.346 92.8672C119.59 92.4636 115.414 92.7356 112.6 92.5075C113.032 92.5776 112.527 92.8058 112.03 92.8496C111.368 92.7707 110.209 93.1216 110.31 92.7707H110.549C110.053 92.4285 108.692 92.525 107.634 92.5162L107.459 92.9813C104.691 92.3057 100.194 93.2181 98.6856 92.604C98.0142 92.718 97.1865 92.7093 96.5243 92.8233L96.5611 92.5777C94.7126 92.5075 93.7837 92.4636 91.4937 92.5075L91.9627 92.332C90.6752 92.3057 90.3257 93.0339 89.1301 93.0427L88.7715 92.6654C86.5183 92.6478 84.2375 92.2969 82.0119 92.604C82.0486 92.5513 82.113 92.446 82.4809 92.4373C81.4233 92.4109 78.3791 92.1302 78.7562 92.6478C78.7378 92.3144 76.4294 92.5777 75.2155 92.7093L75.4086 92.4636C74.3786 92.7619 74.3418 92.8496 72.9071 92.9111C72.5668 92.876 72.6128 92.7093 73.0634 92.7795C71.9322 92.6303 72.1805 92.9988 70.801 92.8409L71.316 92.6917C70.148 92.6478 70.24 92.7356 69.5962 92.9111C68.8605 92.9988 67.389 92.8058 67.2143 92.5864C67.0579 92.718 66.4142 92.8847 65.7244 92.8058C65.6324 92.718 65.8808 92.6742 66.0095 92.6478C64.0598 92.446 63.1033 92.876 61.7698 92.604C61.7422 92.525 61.6594 92.4811 61.5491 92.4548C63.0941 92.4987 64.3449 92.5338 64.2253 92.5513C64.2253 92.3232 62.9838 92.2618 63.9862 91.9722C62.9746 92.1214 61.2548 92.4548 60.0408 92.3232C59.9856 92.2969 59.9213 92.2793 59.8845 92.2442L60.0132 92.2179C59.7281 92.1916 59.4798 92.2004 59.2407 92.2355C58.8544 92.1916 58.6061 92.1565 58.2291 92.1477C58.0911 91.9547 56.7944 92.0161 56.1782 91.9898C56.2242 92.2355 55.4057 92.1741 56.169 92.4022C56.0678 92.3846 56.2885 92.3759 56.7024 92.3759C56.7944 92.3759 56.9047 92.3759 56.9691 92.3583C56.9599 92.3583 56.9415 92.3671 56.9231 92.3759C57.337 92.3759 57.8704 92.3846 58.4774 92.3934C57.9807 92.5075 57.4657 92.604 56.776 92.446C56.4541 92.5952 56.0954 92.7531 55.8931 92.8233C55.047 92.4548 53.41 92.2355 53.1892 92.0161C51.2855 92.1039 48.7012 91.9898 47.4873 92.4197C46.9447 92.4636 46.8711 92.2706 46.6687 92.1916C46.9814 92.1565 47.3585 92.174 47.524 92.1126C46.4388 92.2004 44.3144 92.0688 44.0477 92.3846C42.6866 92.2004 44.8202 92.1126 42.9441 92.1039L43.2016 92.0161C39.5321 91.3844 37.1777 92.6566 33.1127 91.8582C33.3978 91.9108 33.5358 91.9284 33.591 91.9898C28.9374 91.5423 23.9712 91.9284 19.4004 91.2879C18.0945 91.1387 17.9473 91.3405 17.138 91.4721L16.8713 91.2001L15.4918 91.4458C13.5513 91.5862 12.1717 90.6562 9.70702 90.972L10.0105 91.165C9.13682 91.0949 7.2239 91.1475 7.38024 90.9457C7.28828 90.972 7.08595 91.1212 6.74567 91.0071L6.72727 90.8667L4.55684 91.0071C2.89223 90.8229 4.85114 90.4719 2.4048 90.3227C1.49432 90.3315 -0.197877 90.5947 0.133206 90.7088C0.501076 90.7351 1.06208 90.8404 1.08047 90.9808L0.243567 91.0071C0.068829 91.4107 -0.593337 91.7968 1.42995 92.1828L2.86464 92.0073L3.31528 92.2267L2.1197 92.1828C2.79107 92.4022 3.23251 92.2618 3.71994 92.1653C3.8303 92.2793 4.02343 92.3583 4.30853 92.4109L5.72483 92.0863C5.89037 92.253 5.08106 92.3758 6.01912 92.5075C6.68129 92.3583 5.41214 92.1214 6.49736 92.0512C7.16872 92.2706 6.96639 92.4109 7.76651 92.2881C7.87687 92.4022 7.70213 92.4548 7.38024 92.4899C8.09759 92.3934 9.26558 92.525 9.64264 92.3232C10.3416 92.5864 12.043 92.3671 11.9602 92.7531C12.1901 92.6742 13.2294 92.5075 13.8823 92.5162C12.6684 92.9286 16.3287 92.6478 15.9884 93.1304C16.8897 92.7531 19.1889 93.0778 20.7615 92.9023C20.6695 92.9286 20.4948 92.99 20.3569 92.9637C21.2397 93.0339 21.4881 93.1655 22.0491 93.2708C22.1778 92.9286 23.5481 92.9023 24.3023 92.718C25.3691 93.0865 23.6309 93.0953 23.9528 93.4287C23.9068 93.148 25.8381 93.2182 25.4794 92.9725C26.298 93.2094 26.1876 93.0953 26.6014 93.4024C26.767 92.9813 27.374 93.3585 28.0637 93.1216C29.2501 93.3761 28.358 93.534 29.6732 93.455C30.2893 93.613 29.1214 93.7183 29.1214 93.7183L29.1581 93.6919ZM60.3811 93.8499C60.1144 93.8499 59.8845 93.8499 59.7373 93.8499C59.8753 93.8499 60.0592 93.8499 60.3811 93.8499ZM63.0022 93.9025C62.6803 93.8937 62.2848 93.8762 61.8618 93.8674C61.7698 93.7797 61.871 93.6919 62.1377 93.7095C61.9905 93.7621 62.6067 93.8236 63.0022 93.9025ZM57.5025 92.0688C57.9164 92.0424 58.0543 92.0951 58.1095 92.1477C57.9164 92.1477 57.6865 92.1477 57.383 92.1565C57.3738 92.1565 57.3462 92.1741 57.337 92.1828C57.3738 92.139 57.4197 92.0951 57.5025 92.06V92.0688Z" fill="#212121"/>
<path d="M56.7576 92.3671C56.6932 92.3671 56.6656 92.3846 56.5828 92.3846C56.6656 92.4022 56.7484 92.4285 56.8312 92.446C56.8863 92.4197 56.9323 92.3934 56.9783 92.3759C56.9047 92.3759 56.822 92.3759 56.7576 92.3759V92.3671Z" fill="#212121"/>
<path d="M248.703 64.7993L248.749 64.773C248.749 64.773 248.675 64.8081 248.639 64.8169C248.675 64.8081 248.675 64.8169 248.703 64.7993Z" fill="#212121"/>
<path d="M99.219 94.8413V94.7799L98.989 94.8326L99.219 94.8413Z" fill="#212121"/>
<path d="M246.339 77.1267C246.339 77.1267 246.358 77.2145 246.413 77.311C246.413 77.2934 246.385 77.2145 246.339 77.1267Z" fill="#212121"/>
<path d="M251.471 80.8381C251.738 80.9873 252.005 81.1364 252.29 81.2329C251.922 81.0926 251.673 80.9346 251.471 80.8381Z" fill="#212121"/>
<path d="M256.244 82.1191C256.309 82.084 256.336 82.0577 256.355 82.0314H256.345L256.244 82.1191Z" fill="#212121"/>
<path d="M243.194 84.6635C243.13 84.6811 243.074 84.6986 243.019 84.725C242.615 84.8829 242.891 84.7864 243.194 84.6635Z" fill="#212121"/>
<path d="M263.326 74.556C263.197 74.7578 263.068 74.9683 262.912 75.1701C263.206 74.8894 263.427 74.6612 263.326 74.556Z" fill="#212121"/>
<path d="M218.252 89.6033C218.197 89.6033 218.151 89.6121 218.096 89.6208L218.252 89.6033Z" fill="#212121"/>
<path d="M262.13 75.8896C262.305 75.7755 262.461 75.6702 262.59 75.5562C262.719 75.4334 262.82 75.3017 262.912 75.1789C262.682 75.4246 262.369 75.6615 262.13 75.8984V75.8896Z" fill="#212121"/>
<path d="M277.02 79.5045L277.24 79.4255C277.24 79.4255 277.24 79.3904 277.25 79.3816L277.02 79.5045Z" fill="#212121"/>
<path d="M277.25 79.3729L277.48 79.25C277.369 79.2939 277.277 79.3378 277.25 79.3729Z" fill="#212121"/>
<path d="M277.958 78.9868L277.48 79.25C277.654 79.1798 277.875 79.1009 277.958 78.9868Z" fill="#212121"/>
<path d="M270.839 81.2944L270.784 81.3996C270.784 81.3996 270.839 81.3382 270.839 81.2944Z" fill="#212121"/>
<path d="M268.917 81.6892C269.386 81.6453 270.113 81.6541 270.747 81.4786L270.794 81.3909C270.518 81.5839 269.331 81.4786 268.927 81.6892H268.917Z" fill="#212121"/>
<path d="M260.769 81.1891L262.378 81.2417C262.093 81.154 261.725 81.0311 262.452 80.996C260.429 80.7504 262.875 81.2066 260.769 81.1978V81.1891Z" fill="#212121"/>
<path d="M255.858 80.8206C256.695 80.9083 255.867 80.6802 255.922 80.6363C255.389 80.6363 255.251 80.6363 255.858 80.8206Z" fill="#212121"/>
<path d="M259.077 62.8954L258.948 63.0972C259.564 63.1937 258.976 63.0094 259.077 62.8954Z" fill="#212121"/>
<path d="M265.459 65.4047C265.395 65.1678 265.266 64.9748 265.174 64.7467C265.046 64.7028 264.926 64.6502 264.797 64.6151C265.027 64.8607 265.275 65.1152 265.469 65.396L265.459 65.4047Z" fill="#212121"/>
<path d="M264.549 69.0722C264.549 69.3706 264.503 69.6776 264.439 69.9935C264.475 69.7654 264.549 69.5373 264.549 69.3179V69.0722Z" fill="#212121"/>
<path d="M210.969 88.3311L211.208 88.5855C211.649 88.4802 211.704 88.1644 210.969 88.3311Z" fill="#212121"/>
<path d="M184.877 90.9106C184.583 90.7965 183.838 90.7527 183.397 90.9106C183.985 90.8931 184.583 90.9632 184.877 90.9106Z" fill="#212121"/>
<path d="M106.199 92.6391L106.724 92.5513L105.73 92.6215L106.199 92.6391Z" fill="#212121"/>
</g>
<defs>
<clipPath id="clip0_333_30">
<rect width="308" height="95" fill="white"/>
</clipPath>
</defs>
</svg>
