<svg width="18" height="18" viewBox="0 0 18 18" fill="none" xmlns="http://www.w3.org/2000/svg">
<g filter="url(#filter0_b_6792_6005)">
<rect width="18" height="18" rx="2" fill="black" fill-opacity="0.5"/>
</g>
<path fill-rule="evenodd" clip-rule="evenodd" d="M5.3099 3.60039C5.3099 3.35186 5.51137 3.15039 5.7599 3.15039H14.3999C14.6484 3.15039 14.8499 3.35186 14.8499 3.60039V12.2404C14.8499 12.4889 14.6484 12.6904 14.3999 12.6904H12.6899V14.4004C12.6899 14.6489 12.4884 14.8504 12.2399 14.8504H3.5999C3.35137 14.8504 3.1499 14.6489 3.1499 14.4004V5.76039C3.1499 5.51186 3.35137 5.31039 3.5999 5.31039H5.3099V3.60039ZM4.0499 6.21039V10.2395C4.06582 10.2467 4.08199 10.2541 4.09823 10.2615C4.12334 10.273 4.1486 10.2845 4.17326 10.2957C4.42106 10.4077 4.78832 10.5661 5.20812 10.6849C6.082 10.9321 6.99353 10.9581 7.58988 10.3148C8.08903 9.77721 8.68751 9.57238 9.28468 9.57932C9.86321 9.58604 10.424 9.78971 10.8944 10.032C11.2306 10.2051 11.5363 10.4062 11.7899 10.5924V6.21039H4.0499ZM11.7899 11.7498C11.7202 11.6873 11.6256 11.6054 11.5108 11.513C11.2467 11.3003 10.8848 11.0394 10.4823 10.8321C10.0756 10.6226 9.65779 10.4837 9.27422 10.4793C8.90928 10.475 8.56184 10.5907 8.24966 10.9269C7.28275 11.9697 5.89814 11.8154 4.96313 11.5509C4.61129 11.4514 4.29596 11.3291 4.0499 11.2245V13.9504H11.7899V11.7498ZM12.6899 11.7904V5.76039C12.6899 5.51186 12.4884 5.31039 12.2399 5.31039H6.2099V4.05039H13.9499V11.7904H12.6899Z" fill="white"/>
<defs>
<filter id="filter0_b_6792_6005" x="-4" y="-4" width="26" height="26" filterUnits="userSpaceOnUse" color-interpolation-filters="sRGB">
<feFlood flood-opacity="0" result="BackgroundImageFix"/>
<feGaussianBlur in="BackgroundImageFix" stdDeviation="2"/>
<feComposite in2="SourceAlpha" operator="in" result="effect1_backgroundBlur_6792_6005"/>
<feBlend mode="normal" in="SourceGraphic" in2="effect1_backgroundBlur_6792_6005" result="shape"/>
</filter>
</defs>
</svg>
