<svg width="14" height="14" viewBox="0 0 14 14" fill="none" xmlns="http://www.w3.org/2000/svg">
<path id="Vector" d="M8.15411 7L13.9578 0.281288C14.0551 0.169632 13.9733 0 13.8229 0H12.0586C11.9547 0 11.8552 0.045092 11.7867 0.122393L7 5.66442L2.21332 0.122393C2.147 0.045092 2.0475 0 1.94138 0H0.177052C0.0267085 0 -0.0550963 0.169632 0.0421849 0.281288L5.84589 7L0.0421849 13.7187C0.020393 13.7436 0.00641268 13.774 0.00190318 13.8064C-0.00260632 13.8388 0.00254441 13.8717 0.0167444 13.9014C0.0309444 13.931 0.0535972 13.956 0.0820128 13.9735C0.110428 13.991 0.143414 14.0002 0.177052 14H1.94138C2.04529 14 2.14479 13.9549 2.21332 13.8776L7 8.33558L11.7867 13.8776C11.853 13.9549 11.9525 14 12.0586 14H13.8229C13.9733 14 14.0551 13.8304 13.9578 13.7187L8.15411 7Z" fill="#3B27FF"/>
</svg>
