<svg width="69" height="70" viewBox="0 0 69 70" fill="none" xmlns="http://www.w3.org/2000/svg">
<g id="Vector">
<path d="M67.4835 1.38565L67.4628 1.43499C67.5124 1.50489 67.562 1.5789 67.6158 1.64469L67.4835 1.38976V1.38565Z" fill="#FF2768" style="mix-blend-mode:multiply"/>
<path d="M0 69.7841C0.0785942 69.9116 0.347469 70.0925 0.388834 69.9445L0.0248192 69.5251L0 69.7841Z" fill="#FF2768" style="mix-blend-mode:multiply"/>
<path d="M1.38574 69.6896C1.28233 69.3977 1.04241 68.9618 0.583252 68.7274C0.889355 69.1797 0.694938 69.0728 1.07136 69.5991C1.03413 69.7471 0.781805 69.6772 0.637027 69.5333C0.715621 69.6608 0.405381 69.6238 0.624617 69.8993C1.07136 70.0226 1.22855 69.8582 1.10859 69.4511C1.23682 69.4881 1.31542 69.6156 1.38574 69.6855V69.6896Z" fill="#FF2768" style="mix-blend-mode:multiply"/>
<path d="M10.7467 59.7515L10.6392 59.7762C10.6805 59.7803 10.7178 59.7721 10.7467 59.7515Z" fill="#FF2768" style="mix-blend-mode:multiply"/>
<path d="M16.4676 53.547C16.4345 53.6045 16.4593 53.658 16.4924 53.695C16.5048 53.6251 16.5131 53.5675 16.4676 53.547Z" fill="#FF2768" style="mix-blend-mode:multiply"/>
<path d="M17.874 52.8603C17.8409 52.8726 17.8161 52.885 17.7912 52.9014C17.8492 52.9096 17.8947 52.9014 17.874 52.8603Z" fill="#FF2768" style="mix-blend-mode:multiply"/>
<path d="M10.7467 59.7515L11.0239 59.6899C10.8956 59.5624 10.846 59.6899 10.7467 59.7515Z" fill="#FF2768" style="mix-blend-mode:multiply"/>
<path d="M1.55534 67.4117C1.54706 67.4651 1.55947 67.5268 1.58843 67.5967C1.5967 67.5515 1.60498 67.5104 1.61739 67.4734C1.5967 67.4528 1.58016 67.4364 1.55534 67.4158V67.4117Z" fill="#FF2768" style="mix-blend-mode:multiply"/>
<path d="M8.67845 62.8641L8.63709 62.9176C8.67018 62.971 8.71982 63.0368 8.77359 63.1026L8.68259 62.8641H8.67845Z" fill="#FF2768" style="mix-blend-mode:multiply"/>
<path d="M6.93283 65.1173C6.99075 65.0803 6.64328 64.7678 6.50264 64.6198C6.62673 64.7678 6.6681 64.8624 6.65982 64.9282C6.72601 64.9858 6.81288 65.0433 6.93283 65.1132V65.1173Z" fill="#FF2768" style="mix-blend-mode:multiply"/>
<path d="M3.42505 68.0983V68.2011C3.42505 68.1724 3.42919 68.1354 3.42505 68.0983Z" fill="#FF2768" style="mix-blend-mode:multiply"/>
<path d="M10.0766 61.3757C10.1345 61.4168 10.1842 61.4456 10.2214 61.462C10.1759 61.425 10.1262 61.3962 10.0766 61.3757Z" fill="#FF2768" style="mix-blend-mode:multiply"/>
<path d="M63.4379 1.74337C63.4586 1.76804 63.4751 1.78449 63.4917 1.80505C63.4751 1.75982 63.4586 1.73104 63.4379 1.74337Z" fill="#FF2768" style="mix-blend-mode:multiply"/>
<path d="M20.0581 51.2773C20.0581 51.2773 20.0498 51.2773 20.0457 51.2773C20.0415 51.3636 20.0581 51.3266 20.0581 51.2773Z" fill="#FF2768" style="mix-blend-mode:multiply"/>
<path d="M36.1575 33.2926C35.6652 33.2022 36.083 32.606 35.4625 32.5854C35.6197 32.6841 35.7273 33.3543 36.1575 33.2926Z" fill="#FF2768" style="mix-blend-mode:multiply"/>
<path d="M1.65048 67.3911C1.67116 67.3582 1.69184 67.3253 1.7208 67.2966C1.6753 67.3295 1.65461 67.3582 1.65048 67.3911Z" fill="#FF2768" style="mix-blend-mode:multiply"/>
<path d="M35.4625 32.5854H35.4005C35.4253 32.5854 35.4418 32.5854 35.4625 32.5854Z" fill="#FF2768" style="mix-blend-mode:multiply"/>
<path d="M23.8802 46.5694C23.8099 46.5241 23.7479 46.4995 23.6858 46.4789C23.723 46.5077 23.7768 46.5365 23.8802 46.5694Z" fill="#FF2768" style="mix-blend-mode:multiply"/>
<path d="M20.3724 49.4969L20.4924 49.4558C20.4304 49.4599 20.3973 49.4805 20.3724 49.4969Z" fill="#FF2768" style="mix-blend-mode:multiply"/>
<path d="M24.9681 44.3984C25.0343 44.3778 25.0964 44.4066 25.1046 44.2997C25.0798 44.2915 25.0633 44.2832 25.0467 44.2791C25.0715 44.3449 25.0674 44.3943 24.9681 44.3943V44.3984Z" fill="#FF2768" style="mix-blend-mode:multiply"/>
<path d="M26.6103 42.5892C26.5772 42.5769 26.5442 42.5687 26.5111 42.5604C26.4986 42.5851 26.4862 42.6098 26.478 42.6344L26.6103 42.5892Z" fill="#FF2768" style="mix-blend-mode:multiply"/>
<path d="M57.9198 6.82957C58.048 6.89125 58.168 6.97348 58.2838 7.06394C58.0356 6.84602 58.2259 6.51708 57.9198 6.82957Z" fill="#FF2768" style="mix-blend-mode:multiply"/>
<path d="M1.75803 67.572C1.6753 67.4857 1.6422 67.4364 1.65048 67.3911C1.63807 67.4158 1.62566 67.4446 1.61739 67.4693C1.66702 67.5186 1.71666 67.5597 1.75803 67.572Z" fill="#FF2768" style="mix-blend-mode:multiply"/>
<path d="M22.3166 41.8779L22.631 41.6353C22.5234 41.6846 22.4118 41.7751 22.3166 41.8779Z" fill="#FF2768" style="mix-blend-mode:multiply"/>
<path d="M45.0634 18.9304L45.0882 18.8276C45.0552 18.844 45.0427 18.8769 45.0634 18.9304Z" fill="#FF2768" style="mix-blend-mode:multiply"/>
<path d="M23.359 40.7307C23.5286 40.7883 23.6486 40.7965 23.7437 40.7842C23.7272 40.7472 23.7189 40.7143 23.6858 40.669L23.359 40.7307Z" fill="#FF2768" style="mix-blend-mode:multiply"/>
<path d="M59.4917 4.53934C59.2021 4.77782 59.7564 5.10265 59.926 5.41514C59.7068 5.83865 59.4751 5.21778 59.1525 5.08209C59.0491 5.38636 59.2642 5.94555 59.0904 6.06479C59.0118 5.999 58.958 5.999 58.9084 5.87565C59.0118 6.43073 58.2672 6.46774 58.4203 7.15028C58.3665 7.12561 58.321 7.09683 58.2838 7.06805C58.5278 7.25719 58.743 7.48333 58.8836 7.65603C58.7678 7.77527 58.9125 8.14943 58.5982 7.89451C58.6809 7.83283 58.5816 7.70948 58.532 7.58613L58.5196 7.83283C58.0191 7.51212 58.5651 7.52445 58.2797 7.21196C58.1514 7.5779 58.1721 8.19466 57.8701 8.25223C57.4523 7.87395 58.1969 7.70537 57.6054 7.56968L58.048 7.45866C57.2248 7.01049 58.2714 7.33942 57.4275 6.82957C56.9229 7.06805 57.1752 7.44222 56.6705 7.67659C56.7905 7.98496 57.0097 7.98908 57.1297 8.30157C56.9477 9.21848 55.7398 7.66014 55.8308 8.58116C55.9756 8.95122 56.4141 9.51041 55.8681 9.50219L55.5413 8.94711C55.1152 9.24726 55.9384 9.81468 55.2476 9.86402C55.1483 9.61732 55.4048 9.44051 55.2972 9.4364C54.6974 9.30483 55.3551 9.86402 55.1566 10.0449L54.7346 9.67077C54.3913 10.1066 54.2217 10.8138 53.8453 11.3031C53.7543 11.1592 53.7129 10.9577 53.4937 10.929C53.1214 11.6526 52.2445 11.9898 51.4751 12.2488L51.5992 12.7916C51.5454 12.8327 51.3592 12.7134 51.3468 12.5983C51.0076 12.66 51.5454 12.8327 51.5743 13.0629C51.4792 13.1986 51.2227 13.0095 51.202 12.8327C51.1069 13.4741 50.7594 14.4691 50.0107 14.4609L49.9859 14.2841C49.5474 14.428 50.3292 15.3244 49.7377 15.2668V15.1558C48.9311 15.6287 48.5133 16.636 47.504 16.5867C47.8928 17.1788 46.6394 16.9814 47.2723 17.7174C46.565 17.7339 46.5526 17.5036 45.8039 17.7832C45.6343 17.886 46.0231 18.4205 45.9197 18.659L45.5598 18.3013L45.7005 18.9098L45.1503 18.5973L45.08 18.8481C45.1668 18.807 45.3778 18.8769 45.4688 18.992C45.3778 19.4032 44.6084 19.3374 44.4181 19.1606L44.1244 20.0488C43.9921 19.8925 44.0458 19.7445 44.0293 19.5718C44.0748 20.2502 43.595 19.247 43.6363 19.872C43.7563 19.9172 43.8266 20.1063 43.8928 20.1886C43.5329 20.1104 43.1978 20.4353 43.0448 20.7642L42.8462 20.4682C42.3416 20.8382 42.0272 21.492 41.535 21.9813C41.8245 21.9196 42.2175 22.3883 42.1141 22.5734L41.6756 22.2526C41.8162 22.5775 41.9693 22.2444 42.0686 22.7214C41.8411 22.8612 41.5143 22.413 41.4936 22.1827L41.4026 22.5364C41.2744 22.4377 41.2661 22.3225 41.1379 22.1663C41.2826 22.4911 40.3726 22.1704 40.6497 22.7132L40.5256 22.6145C40.0334 23.1038 39.9424 23.4574 39.5618 23.8768C39.8845 24.2098 39.657 24.2962 39.8059 24.6786C39.4088 24.8677 38.8214 24.9376 38.4987 25.32C38.416 25.7312 38.7056 25.6654 38.7924 25.9737C38.4739 25.6983 38.1471 26.0765 38.114 25.6818C37.7418 26.1547 37.6342 26.2821 37.3446 27.0592C37.5267 27.1209 37.6466 27.1086 37.7169 27.2443C37.6714 27.3882 37.3695 27.343 37.2371 27.1867V27.1291C37.0923 28.1776 34.9785 27.6842 35.1399 28.7821V28.7245L34.9785 29.5468C34.7014 29.7278 34.8834 29.1891 34.5277 29.1768C34.5111 30.2088 33.6218 29.9662 33.5266 30.7392C32.2857 30.2294 32.3974 32.0344 31.3674 31.9563L31.6073 32.129C31.6983 32.4456 31.3425 32.1619 31.206 32.203C31.3839 32.3469 31.5245 32.2523 31.57 32.4374C30.842 33.712 29.237 34.2918 28.0416 35.1799C27.6155 35.5171 28.9475 36.434 27.9713 36.4504L27.7024 35.9406C27.4459 37.1741 26.1719 37.54 25.8575 38.6831C25.8078 38.5515 25.6879 38.4405 25.7623 38.3665C25.3156 38.2596 25.1832 38.9586 25.4232 39.1806C25.2866 39.2793 25.1832 39.012 24.993 38.975C24.6703 38.9832 24.9888 39.7316 24.6165 39.5548C24.5545 39.526 24.5628 39.4232 24.5669 39.3697C24.6124 39.6082 24.0746 39.8426 24.5048 40.0441C24.0746 40.1921 24.145 40.7431 23.7313 40.7965C23.9712 41.2899 23.0901 41.1337 23.5824 41.6682C23.0488 41.146 22.6682 41.7792 22.7592 42.1986C22.6475 41.9848 22.4366 42.2027 22.2711 41.9231C22.085 42.141 22.0146 42.4289 22.3332 42.6468C21.3114 42.4412 22.1553 43.9091 21.1046 43.3663C20.8316 44.2627 20.5048 45.0275 20.1201 45.7059C19.5824 45.1919 20.633 45.0316 20.025 44.5382C19.7685 45.2824 19.9588 46.0061 19.3507 46.4296C19.1522 46.5036 19.177 46.1376 19.1232 46.0061C18.875 46.7544 18.147 47.0134 18.0229 47.7659C17.9732 47.7206 17.9608 47.6179 17.9608 47.5315C17.8947 47.6425 17.6837 47.6836 17.9484 47.8933L17.9608 47.7412C18.4655 47.9139 18.3993 48.7979 18.5813 48.9829C17.9939 48.1812 17.9774 49.2995 17.2824 48.2346C17.2742 48.3415 17.328 48.5224 17.51 48.6581C17.3776 48.7075 17.2535 48.6499 17.1418 48.3867C16.9805 48.8514 17.3569 48.9665 17.0798 49.2708C16.9557 49.1639 16.9639 49.057 16.8481 48.9007C16.9515 49.2667 17.0549 49.6367 16.7199 49.8053C16.6578 49.7231 16.5337 49.6696 16.6041 49.5956C16.2442 50.0767 16.571 50.9196 15.905 51.2074C15.4955 50.5947 15.5823 51.2197 15.0901 50.8456L14.9949 51.2321L15.3135 51.3225C15.1025 51.5487 15.2597 52.0462 14.9329 52.112L14.8915 51.7748L14.5978 52.2847L14.9908 52.1901C15.0239 52.63 15.603 52.6753 15.2018 52.8685C15.21 52.7657 14.9908 53.0947 14.6102 52.9795C14.6599 53.2221 14.7095 53.4729 14.4448 53.5428C14.2545 53.4606 13.9608 53.0618 13.8326 53.0083C14.1221 53.4565 13.4603 53.6456 13.7581 54.1473C13.7002 54.0157 13.4562 53.8019 13.3941 53.7772L13.6299 54.1473C13.4355 54.1678 13.3734 54.1432 13.1914 53.9581C12.8522 54.2377 13.8739 54.3611 13.2866 54.5338C13.2866 54.4803 13.2245 54.4557 13.2328 54.3487C12.7654 54.6242 12.7943 55.2739 12.331 55.5C11.7684 55.204 12.4841 55.0889 11.9794 54.8709C11.6237 55.463 11.6319 56.4252 11.0942 56.8322L11.2266 56.7829C11.8346 57.4161 10.5771 56.8775 10.6764 57.3955C10.6764 57.2927 10.3744 57.0008 10.4365 57.0789C10.0352 57.3297 10.0021 57.9177 9.7705 58.6167L9.65468 58.407C9.32789 58.481 9.11279 58.8634 8.84805 59.0197C8.96387 59.2294 8.8315 59.328 9.14588 59.4637C7.59054 59.3157 8.57918 61.1865 7.25135 61.1002C7.30926 61.0262 7.24307 60.8041 7.19757 60.8617L6.92456 61.5031C7.25135 61.7046 7.16034 61.5854 7.47886 61.6676C7.59882 61.8773 7.61123 62.1322 7.50781 62.2597C7.50781 61.865 7.03211 61.8732 6.78806 61.8362C6.89147 61.8938 6.96179 62.0089 7.06107 62.0788C6.31649 61.9143 7.61536 62.6133 6.96179 62.6873L6.82528 62.5393C6.79219 62.7408 6.89147 63.0368 6.72601 63.1478C6.33304 62.9299 6.68878 62.8723 6.41577 62.6298C6.26272 62.8559 6.72187 63.5713 6.22962 63.4809C6.20894 63.3123 6.31235 63.1848 6.28754 63.0204C5.71669 62.897 5.79942 63.0039 5.60914 63.1067L5.62983 63.0985L5.15826 63.3041H5.34027C6.01452 64.295 5.06726 63.9661 5.36095 64.7966C5.08794 64.0031 5.08794 64.48 4.72392 64.1346C4.54192 64.1346 4.31027 64.1758 4.23168 64.0483C4.40541 64.4718 3.75598 64.1264 4.02071 64.7308C3.88834 64.6404 3.86352 64.8994 3.5781 64.6075C3.49951 64.9035 3.83871 64.735 3.97935 64.8789C4.1324 65.5573 2.81698 65.2407 3.00726 66.1946C2.90798 66.8032 3.26786 67.2225 3.16445 67.7735C2.85835 67.7406 2.7963 67.3007 2.7963 67.3007C2.44056 67.3623 2.34542 67.5433 2.32473 67.8558C2.25028 67.7283 2.12204 67.6954 1.93176 67.6419C1.83249 67.827 2.29991 68.1148 1.94417 68.1765C1.83249 68.0285 1.64634 67.8023 1.57188 67.6132C1.53465 67.8928 1.61739 68.2628 1.57188 68.5465C1.31128 68.4232 1.3361 68.1641 1.24923 67.9791C1.17064 68.2751 0.984496 68.6987 1.27819 69.044L1.51397 69.0029C1.46433 69.0934 1.18305 68.8056 1.1665 68.6945C1.04654 68.2916 1.5057 68.5219 1.6422 68.6123L1.60911 68.8138C2.46124 69.2661 1.94417 68.1682 2.21305 67.9257L2.65152 68.4725L2.44056 67.8311C2.63084 67.8845 2.96176 68.0819 2.92867 68.2834C3.35473 68.2998 2.88317 67.9544 3.3175 68.0243C3.37955 68.0408 3.3961 68.0737 3.40437 68.1066V67.7859C3.4871 67.9133 3.80561 68.0572 3.63188 68.1148C4.2234 68.0161 3.68979 67.2308 4.20272 67.4281L4.21099 67.4857C4.42609 66.8607 3.85525 67.1198 3.69393 66.3879L4.86043 66.9306L4.50882 66.5647C4.5626 66.5277 4.67429 66.4537 4.81493 66.5976C4.69911 66.1946 4.62051 66.4907 4.45505 66.1782C5.00935 66.2275 4.83147 65.3846 5.49746 65.8369C5.26995 65.508 5.07967 65.878 5.0838 65.4545C5.81183 65.9274 5.21204 65.068 5.69601 65.0968C5.98557 65.4463 5.63396 65.5039 6.12207 65.5367C5.64637 64.9282 6.59777 65.216 6.63914 64.9405C6.18412 64.5499 6.77565 64.3813 6.87492 63.9455C7.01557 64.0935 7.60709 63.5755 8.00833 63.4274L8.07866 63.5014C7.65673 63.0615 7.98765 62.8353 8.07038 62.5393C8.34339 62.7778 8.42199 62.9094 8.45094 63.1273L8.6164 62.9217C8.50472 62.749 8.4799 62.6215 8.53781 62.4488L8.84391 62.786C9.05074 62.5064 8.88942 61.9102 9.41476 61.7622C9.10452 61.4744 8.27721 61.2811 8.36821 60.7384C8.55436 60.8699 8.86873 61.1084 8.86046 61.2606C8.86046 61.2112 8.80669 61.0303 8.93492 61.0303L9.10865 61.4209C9.36925 61.3716 8.93078 61.1331 9.06315 61.0303C9.31134 61.24 9.31962 61.0879 9.50576 61.2688C9.50576 61.3222 9.31134 61.2893 9.36925 61.4209C9.53472 61.3181 9.82841 61.2729 10.0642 61.3716C9.91114 61.2647 9.725 61.092 9.78291 60.9604C9.98973 60.6808 10.1635 61.1208 10.4199 61.0714C10.3 60.8617 10.6268 60.8412 10.2545 60.5246C10.3207 60.4464 10.5109 60.578 10.635 60.6356C10.5854 60.3601 11.1356 59.953 10.6061 59.7762L10.5482 59.7886C10.5482 59.7886 10.5523 59.768 10.5482 59.7515C10.5606 58.9909 11.5575 58.9909 11.7767 58.4111L11.9008 58.518C11.9877 58.1315 12.3227 57.8519 12.2193 57.4366C12.2855 57.3585 12.604 57.4408 12.724 57.6011C12.8026 57.3174 12.6826 57.1776 13.1418 57.0543C13.1831 57.4449 13.3941 57.1447 13.1211 57.3996C13.4562 57.227 13.7043 57.3339 13.6051 56.7623C13.8408 57.1283 14.1759 56.9021 14.1883 56.6965L13.8036 56.6883C13.8781 56.5074 14.0104 56.4087 14.147 56.3059L14.5068 56.7294C15.4748 56.6225 14.4737 55.0148 15.6775 55.3273C15.5079 54.9367 15.2183 55.4466 14.9867 55.0272C15.2555 54.8257 16.0829 55.0847 16.149 55.0066C16.6744 54.8668 15.8181 54.1678 16.2855 53.954C16.0994 53.8718 15.6651 53.5716 15.7561 53.1892C16.0291 52.9878 16.6454 53.4236 16.6289 53.6785C16.5875 53.7484 16.5172 53.7361 16.4676 53.6909C16.451 53.8183 16.422 53.9746 16.6702 54.0157L16.5503 53.8553C16.8109 53.8636 17.0922 53.51 17.2659 53.8019C17.2866 53.4935 17.0922 53.5141 16.8936 53.584C17.3859 53.4524 17.3362 53.0947 17.7664 52.8973C17.6382 52.8768 17.4231 52.774 17.4686 52.7246C18.0725 52.408 17.3735 52.2723 17.5927 51.894C17.9815 51.9064 18.0725 52.4286 18.1718 51.9393C18.4986 51.8735 18.602 52.2394 18.6516 52.4203C18.6268 51.8776 19.3259 52.0297 19.5286 51.9064L19.512 52.1654C19.5245 52.0092 19.5906 51.9352 19.661 51.857L19.2887 51.6885C19.421 51.6432 19.4914 51.5651 19.6113 51.6761C19.4996 51.413 19.057 51.3184 18.9577 50.9031C19.2142 50.9113 19.1232 50.3892 19.5534 50.6893C19.0818 50.9566 19.9836 50.9895 19.7602 51.3719C19.7685 51.2691 19.8388 51.1951 19.9712 51.1457C20.0291 51.1704 20.0415 51.2279 20.0415 51.2732C20.7158 51.2115 19.7478 50.7181 20.0912 50.3439C20.269 50.5865 20.5875 50.6235 20.5958 50.5166C20.4552 50.6646 20.1656 50.2699 20.1201 49.978C20.5048 49.8834 20.2277 49.5997 20.36 49.4887L20.1491 49.5627C19.9712 49.3201 20.1077 49.2214 20.1904 48.9912C20.3766 49.1269 20.1739 49.2502 20.3021 49.2543C20.0829 48.7239 21.0798 49.1803 21.0508 48.6869C21.3073 48.6951 21.4728 49.0405 21.6713 49.02C21.6465 48.4731 22.2546 48.9665 22.2918 48.4484C21.9195 48.2757 21.9774 48.358 21.8823 47.8851L21.6424 48.58L21.5017 47.8728C21.3611 48.0249 21.4024 48.3621 21.2701 48.4114C21.1667 48.0414 21.2246 48.1236 20.9143 47.9797C21.5431 48.1606 21.0219 47.33 21.5389 47.3547L22.2628 48.0085C22.9164 47.9345 22.4697 47.034 23.0819 46.7297L22.8171 46.7667C22.5855 46.446 23.0405 46.4419 23.0612 46.1829C23.2928 46.4131 23.4666 46.3967 23.6775 46.4666C23.4914 46.3144 24.0043 46.1376 23.5576 45.6607L24.0664 45.7388C24.5421 45.4756 23.7685 44.6862 24.1822 44.3984C24.3477 44.7438 24.6703 44.7314 24.6372 45.1467C24.7489 45.0275 24.8937 44.9576 24.7282 44.8054C24.9433 44.8712 24.7075 44.1763 25.0385 44.2709C24.9805 44.1229 24.7406 43.8803 24.8854 43.7611C24.9474 43.7898 25.0054 43.868 25.0054 43.868C24.8854 43.7611 25.0385 43.5061 24.662 43.3869C25.7582 43.6912 25.5597 42.2891 26.5028 42.5481C26.6641 42.2109 26.8751 41.8203 27.0778 41.5613C27.1357 41.6435 27.1977 41.6723 27.1315 41.6929C27.6569 41.5654 26.6269 40.8582 27.2184 40.706C27.7851 40.8664 27.2474 41.1008 27.5038 41.1131C28.3435 41.7833 27.8141 40.5621 28.5131 40.7307L28.5049 40.8335C28.9516 40.887 28.6455 40.0934 28.993 39.8303C28.993 39.8303 29.0468 39.9084 29.1088 39.9413C28.9061 39.3574 29.1543 38.827 29.328 38.424C29.5473 38.8023 29.3611 38.7119 29.7293 38.9421C29.812 38.7653 29.1874 38.5186 29.3529 38.165C29.6052 38.2349 29.932 38.1732 30.2919 38.4569L30.0726 38.7283C30.6269 38.9956 30.3663 38.387 30.569 38.3212L30.7427 38.5145C31.0447 38.0663 30.5773 37.6223 31.0033 37.2358L30.8213 37.1453C30.5649 36.4792 31.2681 37.1987 31.1316 36.6437L31.6735 37.0178C31.6983 36.7588 31.7107 36.0598 31.8761 35.7062C32.083 36.1914 31.9671 36.6766 31.9961 37.0672C32.1409 36.9192 32.4387 36.5244 32.2774 36.2284C32.265 36.3312 32.3105 36.5162 32.1823 36.508C31.9796 35.9735 32.0251 35.5623 32.3105 35.2704C33.1833 36.1873 33.2702 34.707 34.1926 35.1676C34.3539 34.3288 35.3343 34.2753 35.8638 33.6174C34.9455 33.1569 36.0127 33.4201 35.2474 32.7622C35.3384 32.5772 35.4005 32.5319 35.4625 32.5648L36.3105 32.5525C36.6208 32.6553 36.3436 32.8403 36.5173 32.9842C36.8731 32.7293 36.9517 33.1487 37.3446 33.1323C37.0427 32.9267 37.0758 32.6676 37.3446 32.5854L36.7697 32.5114C36.7986 31.7096 37.7418 32.7252 37.779 31.9234L37.8741 32.2811C37.9527 31.9275 38.6725 31.4629 38.3002 30.6817C38.4243 30.7228 38.6725 30.8626 38.627 31.0106C39.2309 30.5624 39.1523 29.2179 39.9176 29.1603L40.0541 29.37C40.0996 29.222 39.8928 28.8766 40.1906 28.926C40.2568 29.0041 40.3271 29.1357 40.385 29.1028C40.3767 28.9918 40.3354 28.5395 40.567 28.5107L40.6539 28.8149C41.3943 28.5271 40.9517 27.5568 41.2619 27.0058C41.779 27.5156 42.3499 27.2772 42.6311 27.1579L42.6973 27.236C43.355 26.7015 43.2764 25.8011 43.628 25.0445C44.5257 25.2542 45.0221 24.1152 45.8949 23.8891C45.717 23.8768 45.5102 23.4738 45.5557 23.3258C45.7915 23.3011 45.5598 22.6145 46.0107 23.1079L45.9569 23.1449C46.5153 23.5108 46.6601 23.1284 46.8835 22.9352L46.3044 22.2814C47.7439 22.6474 47.4171 20.5463 48.5092 21.0602C48.4885 20.7765 48.6539 20.6162 48.6333 20.3325L48.9518 20.6737C49.4026 20.4024 49.6219 20.2626 50.0066 19.7486L50.1472 20.0775C50.4285 19.8555 49.535 18.8029 49.7543 18.5521L50.3127 18.9838C50.7594 18.548 51.6405 18.5521 51.6488 17.6722C51.7108 17.7544 51.8391 17.9107 51.7853 18.0011C52.0087 17.812 52.9353 17.5612 52.1948 16.9444C52.6292 17.3885 52.7036 16.5456 52.7574 16.1138L53.0345 16.4839C52.836 15.863 52.7326 15.7397 52.9063 15.3491C53.0138 15.3285 53.2207 15.5588 53.0469 15.5588C53.4399 15.5176 52.927 15.0736 53.3737 14.9955L53.473 15.3038C53.7336 15.1106 53.6054 15.0119 53.502 14.646C53.5226 14.3746 54.0314 14.3129 54.3499 14.5843C54.2093 14.3705 54.1059 14.0045 54.3293 13.9634C54.4575 14.0621 54.4699 14.1772 54.4782 14.2348C55.0863 14.095 54.7015 13.3014 55.2848 13.3754C55.3924 13.4823 55.4627 13.5193 55.5165 13.5317C55.1938 13.8154 54.9249 14.0292 54.9249 13.984C55.2145 14.2923 55.5206 14.1114 55.7191 14.7282C55.7026 14.3088 55.5785 13.4782 55.9632 13.396C56.0046 13.4165 56.0418 13.433 56.0956 13.4741L56.1038 13.5317C56.1907 13.5111 56.2155 13.433 56.2155 13.3384C56.3438 13.3179 56.4265 13.3096 56.5092 13.2439C56.7781 13.4741 56.927 13.1123 57.0677 13.0095C56.7409 12.6806 56.9601 12.5819 56.5423 12.4421C56.5837 12.4462 56.5547 12.5037 56.4844 12.5983C56.4761 12.6271 56.4554 12.6518 56.4637 12.6847C56.4596 12.6723 56.4513 12.66 56.443 12.6477C56.3686 12.734 56.2693 12.8409 56.1493 12.9601C56.0873 12.697 56.0583 12.4544 56.3727 12.512C56.2362 12.2324 56.0997 11.9404 56.0418 11.8006C56.654 12.1131 57.2248 12.0597 57.5434 12.3146C57.7585 11.7719 58.3458 11.3607 58.0066 10.4931C58.0439 10.3081 58.3045 10.563 58.4368 10.6247C58.4327 10.748 58.3458 10.8056 58.3955 10.929C58.4658 10.563 58.9953 10.2711 58.6395 9.77356C59.107 9.72422 58.8588 10.3286 59.1773 9.90925L59.2517 10.0943C60.6582 10.1313 59.4462 7.82872 61.1297 8.00963C61.018 8.00552 60.9684 8.00552 60.8857 7.93974C62.2218 7.49978 62.5403 5.7893 64.0873 5.62484C64.4762 5.52204 64.2528 5.20544 64.228 4.83538L64.6127 5.16021L64.5258 4.47766C64.6582 3.80745 66.0274 4.81071 66.0315 3.77045L65.7461 3.56897C65.9736 3.46207 66.2094 2.92343 66.4286 3.24415C66.408 3.18247 66.2673 2.92343 66.4493 2.99745L66.623 3.1907L66.7968 2.46703C67.2766 2.31901 67.4007 3.30994 67.9509 2.92343C68.0791 2.68495 68.0171 1.89962 67.8392 1.81738C67.7523 1.87083 67.5372 1.85027 67.3676 1.65291L67.4628 1.4021C67.0119 0.777115 66.6727 0.0452289 65.8743 0L65.8619 0.616758L65.5269 0.411172L65.7751 0.180916C65.4028 0.0328938 65.5062 0.349496 65.5351 0.5962C65.3862 0.464625 65.2539 0.394725 65.1422 0.386502L65.3076 1.20062C65.0801 0.999148 65.0636 0.629093 64.7533 0.670211C64.8278 1.04849 65.32 1.07316 65.229 1.4391C64.8609 1.29519 64.7202 1.04027 64.7409 1.41443C64.5879 1.28286 64.5465 1.15539 64.5589 1.03204C64.5589 1.34042 64.2197 1.44733 64.4017 1.8256C63.9715 1.62413 63.9591 2.34368 63.5041 1.77626C63.5703 1.94896 63.6034 2.43414 63.4834 2.57805C63.1732 1.70225 62.9291 2.98511 62.3914 2.22033C62.714 2.97278 61.9405 3.06323 61.8909 3.67588C61.8702 3.6142 61.8205 3.48674 61.8784 3.49085C61.6468 3.60187 61.44 3.47029 61.2207 3.46207C61.622 3.96781 61.4276 4.32964 61.5351 4.76549C60.8981 4.49411 61.1711 4.07472 60.7078 3.68821C61.0635 4.0706 60.6582 4.42832 61.0222 4.68736C60.5961 4.55168 60.7492 4.67914 60.3066 4.35431C60.8112 4.98752 60.2362 4.59691 60.4224 5.09854C59.9095 5.02041 59.8557 4.58868 59.744 5.01219C59.4503 4.94229 59.5041 4.51467 59.5041 4.51467L59.4917 4.53934ZM53.957 11.3977L53.9487 11.3895C53.9942 11.3319 54.0356 11.2785 54.0645 11.2497C54.0438 11.2785 54.0108 11.3237 53.957 11.3977ZM53.4275 11.8993C53.5061 11.8541 53.5888 11.7801 53.6716 11.6978C53.7998 11.7965 53.8908 11.9363 53.8329 11.9816C53.7874 11.8747 53.6012 11.924 53.4275 11.8993ZM56.7491 13.2069C56.7078 13.3343 56.6209 13.2932 56.5423 13.2315C56.5754 13.1904 56.6126 13.1328 56.6499 13.0547C56.6416 13.0424 56.6292 13.0177 56.6209 13.0054C56.6747 13.0794 56.7202 13.1452 56.745 13.2069H56.7491Z" fill="#FF2768" style="mix-blend-mode:multiply"/>
<path d="M56.4803 12.6189C56.4803 12.6189 56.4803 12.5778 56.4927 12.5613C56.4472 12.549 56.4058 12.5366 56.3727 12.5325C56.3975 12.5778 56.4182 12.623 56.443 12.6682C56.4554 12.6518 56.472 12.6353 56.4844 12.623L56.4803 12.6189Z" fill="#FF2768" style="mix-blend-mode:multiply"/>
<path d="M10.6226 59.7803H10.6392C10.6185 59.7721 10.5937 59.7721 10.5688 59.7557C10.5937 59.7639 10.6019 59.7721 10.6226 59.7803Z" fill="#FF2768" style="mix-blend-mode:multiply"/>
<path d="M45.4854 18.1985L45.5681 18.2807L45.5433 18.1615L45.4854 18.1985Z" fill="#FF2768" style="mix-blend-mode:multiply"/>
<path d="M6.8046 61.8197C6.76737 61.7992 6.72601 61.7827 6.68051 61.7827C6.70533 61.7992 6.75083 61.8115 6.8046 61.8197Z" fill="#FF2768" style="mix-blend-mode:multiply"/>
<path d="M5.62569 63.0903L5.34027 63.1766C5.48091 63.1561 5.56364 63.1232 5.62569 63.0903Z" fill="#FF2768" style="mix-blend-mode:multiply"/>
<path d="M4.59983 63.9743C4.6536 64.0401 4.69497 64.0812 4.73633 64.1223L4.59569 63.9743H4.59983Z" fill="#FF2768" style="mix-blend-mode:multiply"/>
<path d="M17.9815 47.5192C17.9815 47.5192 17.9981 47.4863 17.9981 47.4657C18.0105 47.3177 17.9815 47.3999 17.9815 47.5192Z" fill="#FF2768" style="mix-blend-mode:multiply"/>
<path d="M14.6309 52.9631C14.6102 52.8562 14.5937 52.7534 14.5978 52.6671C14.4986 52.7287 14.4324 52.7863 14.6309 52.9631Z" fill="#FF2768" style="mix-blend-mode:multiply"/>
<path d="M22.2794 41.9026C22.2794 41.9026 22.2794 41.9026 22.2835 41.9067C22.2918 41.8943 22.3042 41.8861 22.3125 41.8738L22.2794 41.8984V41.9026Z" fill="#FF2768" style="mix-blend-mode:multiply"/>
<path d="M14.7964 52.4532C14.6516 52.4779 14.6061 52.5602 14.5978 52.6671C14.6806 52.6177 14.7881 52.5684 14.7964 52.4532Z" fill="#FF2768" style="mix-blend-mode:multiply"/>
<path d="M0.765259 68.3039L0.711484 68.3409C0.736303 68.3574 0.75285 68.3779 0.765259 68.3944V68.3039Z" fill="#FF2768" style="mix-blend-mode:multiply"/>
<path d="M0.765259 68.3944V68.4848C0.781805 68.4602 0.798351 68.4355 0.765259 68.3944Z" fill="#FF2768" style="mix-blend-mode:multiply"/>
<path d="M0.756986 68.6699V68.4807C0.72803 68.5219 0.674255 68.5589 0.756986 68.6699Z" fill="#FF2768" style="mix-blend-mode:multiply"/>
<path d="M2.05586 67.0745L1.9359 66.9512C1.95658 66.98 1.99381 67.0211 2.05586 67.0745Z" fill="#FF2768" style="mix-blend-mode:multiply"/>
<path d="M2.35783 66.6305C2.24614 66.7045 1.87385 66.651 1.8449 66.8566L1.94004 66.9553C1.79939 66.7333 2.5026 66.9059 2.36196 66.6305H2.35783Z" fill="#FF2768" style="mix-blend-mode:multiply"/>
<path d="M5.38991 66.2152L5.00107 66.4742C5.19135 66.5277 5.44368 66.5976 5.3444 66.7826C6.11794 66.6839 4.95971 66.6181 5.38991 66.2111V66.2152Z" fill="#FF2768" style="mix-blend-mode:multiply"/>
<path d="M6.47368 65.3065C6.38681 65.545 6.67637 65.471 6.74669 65.545C6.71773 65.3229 6.70946 65.2695 6.47368 65.3065Z" fill="#FF2768" style="mix-blend-mode:multiply"/>
<path d="M12.9349 57.634L13.2411 57.9259C13.3155 57.745 13.117 57.819 12.9349 57.634Z" fill="#FF2768" style="mix-blend-mode:multiply"/>
<path d="M12.5172 54.7599L12.2028 54.727L12.4386 55.0436L12.5172 54.7599Z" fill="#FF2768" style="mix-blend-mode:multiply"/>
<path d="M15.541 55.8495L15.5368 55.9482L15.6196 55.6152L15.541 55.8495Z" fill="#FF2768" style="mix-blend-mode:multiply"/>
<path d="M26.6227 43.1854L26.2008 42.877C26.1843 43.0333 26.6021 43.4445 26.6227 43.1854Z" fill="#FF2768" style="mix-blend-mode:multiply"/>
<path d="M31.1771 37.4989C31.4211 37.6181 31.6859 37.5811 31.5825 37.318C31.4459 37.4126 31.1853 37.392 31.1771 37.4989Z" fill="#FF2768" style="mix-blend-mode:multiply"/>
<path d="M47.0283 22.5158L47.0448 22.7419L47.14 22.45L47.0283 22.5158Z" fill="#FF2768" style="mix-blend-mode:multiply"/>
</g>
</svg>
