<svg width="20" height="23" viewBox="0 0 20 23" fill="none" xmlns="http://www.w3.org/2000/svg">
<path id="Q" d="M8.28235 14.1694L11.1393 17.8921C10.6487 18.022 10.1293 18.0941 9.58097 18.0941C6.1757 18.0941 3.76604 15.5113 3.78046 10.7353C3.76604 5.95922 6.1757 3.37641 9.58097 3.37641C13.0007 3.37641 15.3959 5.95922 15.3815 10.7353C15.3959 13.3325 14.6889 15.266 13.4913 16.5069L11.7165 14.1694H8.28235ZM3.7986e-05 10.7353C-0.0143911 17.4737 4.08348 21.4705 9.58097 21.4705C10.894 21.4705 12.1349 21.2396 13.2604 20.7923L15.0063 23H18.6713L15.7711 19.2773C17.8777 17.4448 19.1763 14.5301 19.1619 10.7353C19.1763 3.98243 15.0496 0 9.58097 0C4.08348 0 -0.0143911 3.98243 3.7986e-05 10.7353Z" fill="white"/>
</svg>
