<svg width="28" height="22" viewBox="0 0 28 22" fill="none" xmlns="http://www.w3.org/2000/svg">
<path fill-rule="evenodd" clip-rule="evenodd" d="M22.5 6.71387H21.9371C20.2752 6.71387 19.2055 5.44495 18.9102 4.26681C18.5836 2.96331 17.4018 2 16 2H12C10.5982 2 9.41641 2.96331 9.08975 4.26681C8.7945 5.44495 7.72476 6.71387 6.06288 6.71387H5C3.34315 6.71387 2 8.05701 2 9.71387V16.9996C2 18.6564 3.34315 19.9996 5 19.9996H22.5C24.1569 19.9996 25.5 18.6564 25.5 16.9996V9.71387C25.5 8.05701 24.1569 6.71387 22.5 6.71387ZM21.9371 4.71387C21.4067 4.71387 20.9792 4.29513 20.8503 3.78064C20.3059 1.60857 18.3408 0 16 0H12C9.65918 0 7.69407 1.60857 7.14974 3.78063C7.02081 4.29513 6.59328 4.71387 6.06288 4.71387H5C2.23858 4.71387 0 6.95245 0 9.71387V16.9996C0 19.761 2.23858 21.9996 5 21.9996H22.5C25.2614 21.9996 27.5 19.761 27.5 16.9996V9.71387C27.5 6.95244 25.2614 4.71387 22.5 4.71387H21.9371ZM14 16C15.6569 16 17 14.6569 17 13C17 11.3431 15.6569 10 14 10C12.3431 10 11 11.3431 11 13C11 14.6569 12.3431 16 14 16ZM14 18C16.7614 18 19 15.7614 19 13C19 10.2386 16.7614 8 14 8C11.2386 8 9 10.2386 9 13C9 15.7614 11.2386 18 14 18ZM20 9C19.4477 9 19 8.55229 19 8C19 7.44772 19.4477 7 20 7C20.5523 7 21 7.44772 21 8C21 8.55229 20.5523 9 20 9Z" fill="#B099FE"/>
</svg>
