<svg width="34" height="31" viewBox="0 0 34 31" fill="none" xmlns="http://www.w3.org/2000/svg">
<path id="Subtract" fill-rule="evenodd" clip-rule="evenodd" d="M12.0556 0C11.2496 0 10.5043 0.428088 10.0982 1.12427L8.21597 4.35088H5.89181C2.63786 4.35088 0 6.98873 0 10.2427V25.1082C0 28.3621 2.63786 31 5.89181 31H27.6462C30.9002 31 33.538 28.3622 33.538 25.1082V10.2427C33.538 6.98873 30.9002 4.35088 27.6462 4.35088H25.322L23.4398 1.12427C23.0337 0.428088 22.2884 0 21.4825 0H12.0556ZM17.3729 12.4622C14.6613 12.4622 12.463 14.6604 12.463 17.372C12.463 20.0837 14.6613 22.2819 17.3729 22.2819C20.0845 22.2819 22.2827 20.0837 22.2827 17.372C22.2827 14.6604 20.0845 12.4622 17.3729 12.4622ZM10.197 17.372C10.197 13.4089 13.4097 10.1961 17.3729 10.1961C21.336 10.1961 24.5488 13.4089 24.5488 17.372C24.5488 21.3352 21.336 24.5479 17.3729 24.5479C13.4097 24.5479 10.197 21.3352 10.197 17.372ZM26.2727 11.5455C25.5698 11.5455 24.9999 10.9756 24.9999 10.2727C24.9999 9.56982 25.5698 9 26.2727 9C26.9756 9 27.5454 9.56982 27.5454 10.2727C27.5454 10.9756 26.9756 11.5455 26.2727 11.5455Z" fill="#D1C2FE"/>
</svg>
