<svg width="40" height="40" viewBox="0 0 40 40" fill="none" xmlns="http://www.w3.org/2000/svg">
<g opacity="0.3">
<ellipse cx="20" cy="19.9629" rx="20" ry="19.9629" fill="#8C6EFF"/>
<rect width="26.0465" height="25.9983" transform="translate(7.51898 6.42188)" fill="#8C6EFF"/>
<path d="M9.68952 28.2086C9.68952 24.1187 13.1128 20.8032 20.1081 20.8032C27.1035 20.8032 30.5267 24.1187 30.5267 28.2086C30.5267 28.8593 30.0511 29.3867 29.4644 29.3867H10.7518C10.1651 29.3867 9.68952 28.8593 9.68952 28.2086Z" fill="#3B27FF"/>
<path d="M24.0151 12.4879C24.0151 14.6416 22.2659 16.3876 20.1081 16.3876C17.9504 16.3876 16.2011 14.6416 16.2011 12.4879C16.2011 10.3341 17.9504 8.58814 20.1081 8.58814C22.2659 8.58814 24.0151 10.3341 24.0151 12.4879Z" fill="#3B27FF"/>
<path fill-rule="evenodd" clip-rule="evenodd" d="M20.1081 9.6714C18.5497 9.6714 17.2864 10.9324 17.2864 12.4879C17.2864 14.0434 18.5497 15.3044 20.1081 15.3044C21.6665 15.3044 22.9298 14.0434 22.9298 12.4879C22.9298 10.9324 21.6665 9.6714 20.1081 9.6714ZM15.1159 12.4879C15.1159 9.73585 17.351 7.50488 20.1081 7.50488C22.8653 7.50488 25.1004 9.73585 25.1004 12.4879C25.1004 15.2399 22.8653 17.4709 20.1081 17.4709C17.351 17.4709 15.1159 15.2399 15.1159 12.4879ZM11.6102 22.1164C13.5866 20.5857 16.4511 19.7199 20.1081 19.7199C23.7651 19.7199 26.6297 20.5857 28.606 22.1164C30.6064 23.6657 31.612 25.8356 31.612 28.2086C31.612 29.3474 30.7552 30.47 29.4644 30.47H10.7518C9.46102 30.47 8.60425 29.3474 8.60425 28.2086C8.60425 25.8356 9.60988 23.6657 11.6102 22.1164ZM12.9409 23.828C11.4808 24.9589 10.7748 26.4918 10.7748 28.2086C10.7748 28.2545 10.7871 28.2858 10.7976 28.3035H29.4186C29.4291 28.2858 29.4415 28.2545 29.4415 28.2086C29.4415 26.4918 28.7355 24.9589 27.2754 23.828C25.7912 22.6785 23.4465 21.8865 20.1081 21.8865C16.7698 21.8865 14.425 22.6785 12.9409 23.828Z" fill="#3B27FF"/>
</g>
</svg>
