<svg width="57" height="57" viewBox="0 0 57 57" fill="none" xmlns="http://www.w3.org/2000/svg">
<circle cx="28.5" cy="28.5" r="28.5" fill="#E0E0E0"/>
<path d="M30.0942 32.4452C30.0555 32.4069 30.0033 32.3854 29.9489 32.3854C29.8945 32.3854 29.8422 32.4069 29.8036 32.4452L26.8152 35.4335C25.4317 36.8171 23.0965 36.9637 21.5689 35.4335C20.0388 33.9034 20.1854 31.5708 21.5689 30.1872L24.5573 27.1989C24.637 27.1192 24.637 26.988 24.5573 26.9083L23.5337 25.8848C23.4951 25.8465 23.4428 25.825 23.3884 25.825C23.334 25.825 23.2818 25.8465 23.2431 25.8848L20.2548 28.8731C18.0791 31.0488 18.0791 34.5694 20.2548 36.7425C22.4305 38.9156 25.9511 38.9182 28.1242 36.7425L31.1126 33.7542C31.1923 33.6745 31.1923 33.5433 31.1126 33.4636L30.0942 32.4452ZM36.7446 20.2553C34.569 18.0796 31.0483 18.0796 28.8752 20.2553L25.8843 23.2436C25.846 23.2823 25.8245 23.3345 25.8245 23.3889C25.8245 23.4433 25.846 23.4956 25.8843 23.5342L26.9053 24.5552C26.985 24.6349 27.1161 24.6349 27.1959 24.5552L30.1842 21.5669C31.5678 20.1833 33.9029 20.0367 35.4305 21.5669C36.9607 23.097 36.8141 25.4296 35.4305 26.8132L32.4421 29.8015C32.4039 29.8402 32.3824 29.8924 32.3824 29.9468C32.3824 30.0012 32.4039 30.0534 32.4421 30.0921L33.4657 31.1156C33.5454 31.1954 33.6766 31.1954 33.7563 31.1156L36.7446 28.1273C38.9177 25.9516 38.9177 22.431 36.7446 20.2553V20.2553ZM31.0226 24.9075C30.9839 24.8692 30.9317 24.8478 30.8773 24.8478C30.8228 24.8478 30.7706 24.8692 30.732 24.9075L24.907 30.7299C24.8687 30.7685 24.8473 30.8208 24.8473 30.8752C24.8473 30.9296 24.8687 30.9818 24.907 31.0205L25.9254 32.0389C26.0052 32.1186 26.1363 32.1186 26.216 32.0389L32.0384 26.2165C32.1181 26.1368 32.1181 26.0056 32.0384 25.9259L31.0226 24.9075Z" fill="white"/>
</svg>
