<svg width="13" height="14" viewBox="0 0 13 14" fill="none" xmlns="http://www.w3.org/2000/svg">
<path d="M10.25 9.5C9.75625 9.5 9.3125 9.69375 8.98125 10.0063L4.56875 7.4375C4.6 7.29375 4.625 7.15 4.625 7C4.625 6.85 4.6 6.70625 4.56875 6.5625L8.975 3.99375C9.30625 4.30625 9.75625 4.5 10.25 4.5C11.2875 4.5 12.125 3.6625 12.125 2.625C12.125 1.5875 11.2875 0.75 10.25 0.75C9.2125 0.75 8.375 1.5875 8.375 2.625C8.375 2.775 8.4 2.925 8.43125 3.0625L4.025 5.63125C3.6875 5.31875 3.24375 5.125 2.75 5.125C1.7125 5.125 0.875 5.9625 0.875 7C0.875 8.0375 1.7125 8.875 2.75 8.875C3.24375 8.875 3.6875 8.68125 4.025 8.36875L8.43125 10.9437C8.4 11.0812 8.375 11.225 8.375 11.375C8.375 12.4125 9.2125 13.25 10.25 13.25C11.2875 13.25 12.125 12.4125 12.125 11.375C12.125 10.3375 11.2875 9.5 10.25 9.5Z" fill="#8C6EFF"/>
</svg>
