<svg width="36" height="25" viewBox="0 0 36 25" fill="none" xmlns="http://www.w3.org/2000/svg">
<path fill-rule="evenodd" clip-rule="evenodd" d="M5.09094 0C5.04684 0.160565 5.00259 0.339305 5.01587 0.54269C5.26916 0.47969 5.27298 0.516323 5.27826 0.566934C5.28352 0.617383 5.29024 0.68172 5.54692 0.67511C5.58064 0.767804 5.57221 0.774425 5.53849 0.787667L5.2266 0.992917C5.1419 1.01879 5.11762 0.995142 5.09216 0.970352C5.07202 0.950736 5.05114 0.930404 4.99901 0.933328C4.97516 1.01574 4.90814 1.02397 4.83001 1.03357C4.77005 1.04094 4.70354 1.04911 4.64497 1.09223C4.83042 1.07237 4.90629 1.1452 4.83885 1.23127L5.07487 1.11209C5.21363 1.21448 5.107 1.2592 4.99873 1.30461C4.88995 1.35023 4.77952 1.39654 4.91472 1.50273L4.75456 1.43652C4.78186 1.46772 4.79308 1.51499 4.80588 1.56887C4.83653 1.69796 4.87618 1.86498 5.1676 1.93972C5.10859 1.95958 4.96529 1.98607 4.93157 1.93972C4.90589 2.05213 4.98563 2.17457 5.06302 2.2934C5.1634 2.44754 5.25982 2.59559 5.11702 2.70775L4.99058 2.68789C5.00172 2.7032 5.03125 2.71779 5.06125 2.73261C5.12208 2.76265 5.18484 2.79365 5.10016 2.83355C5.08263 2.83355 5.06206 2.83116 5.04231 2.82887C5.00509 2.82455 4.9708 2.82057 4.96529 2.83355L4.97663 2.84053C5.03211 2.87446 5.17888 2.96422 5.10859 3.02556L4.96529 2.97259C4.8623 3.1263 5.01414 3.23553 5.1671 3.34556C5.26452 3.41564 5.3624 3.48605 5.39519 3.56848C5.03218 3.56848 4.91142 3.75876 4.85113 3.85375L4.84728 3.8598H4.7967C4.76954 4.04332 4.90347 4.19382 5.04275 4.35032C5.11954 4.43661 5.19796 4.52473 5.25189 4.62122C5.01644 4.71754 4.99793 4.89458 4.97875 5.07797C4.96498 5.20972 4.95086 5.34474 4.85571 5.45546C4.92314 5.41574 5.14231 5.46208 5.18446 5.50843C5.15431 5.53474 5.18938 5.56732 5.22091 5.59662C5.26874 5.64105 5.30845 5.67795 5.10016 5.67395V5.65409C4.83437 5.69156 4.84408 5.7853 4.85309 5.87231C4.85523 5.89292 4.85732 5.91315 4.85571 5.93217L5.30247 5.95204C4.96424 6.09004 5.0426 6.273 5.11293 6.43719C5.17756 6.58809 5.23541 6.72314 4.95686 6.7929C5.01051 6.82532 5.0379 6.86091 5.06473 6.89579C5.09271 6.93215 5.1201 6.96774 5.17603 6.99815H4.94L4.93751 7.00544C4.88006 7.17296 4.84812 7.2661 4.90629 7.48148L4.7377 7.43514C4.72894 7.50049 4.91582 7.54083 5.09862 7.58028C5.2677 7.61677 5.43329 7.65251 5.43734 7.7066L5.0833 7.7397C5.0833 7.81146 5.05058 7.8825 5.01796 7.95329C4.95126 8.09807 4.88504 8.24182 5.10016 8.38856C5.04959 8.38856 4.94843 8.38194 4.93157 8.34221C4.92987 8.36235 4.9188 8.39038 4.90632 8.422C4.85952 8.54055 4.7928 8.70956 5.12466 8.70212C4.88966 8.72642 5.15093 8.93163 5.28561 9.03742L5.04959 9.01755C5.10207 9.03473 5.14774 9.04893 5.18783 9.0614L5.18784 9.0614C5.37954 9.12103 5.44349 9.14092 5.51321 9.25591C5.48275 9.28581 5.35602 9.2833 5.37526 9.25326C5.37855 9.24988 5.38237 9.24635 5.38676 9.24267C5.38105 9.24651 5.37732 9.25004 5.37526 9.25326C5.33272 9.29704 5.37873 9.31742 5.42868 9.33954C5.48616 9.365 5.54886 9.39277 5.48792 9.46116L5.33619 9.41481C5.32333 9.50062 5.36437 9.51332 5.46303 9.54384C5.49379 9.55336 5.53014 9.5646 5.57221 9.58034C5.62092 9.6186 5.60217 9.67513 5.54285 9.72209C5.51703 9.71716 5.48914 9.70834 5.46053 9.6993C5.36752 9.66991 5.26698 9.63813 5.20577 9.72971C5.15264 9.70692 5.13126 9.65628 5.11136 9.60912C5.09172 9.56259 5.07351 9.51945 5.02763 9.50982C4.95809 9.61368 4.89021 9.59863 4.82066 9.58321C4.75163 9.5679 4.68095 9.55223 4.60536 9.6521L4.63134 9.67466C4.67132 9.70918 4.69215 9.72716 4.69855 9.74932C4.70552 9.77341 4.69545 9.80243 4.67441 9.86301C4.6678 9.88203 4.66012 9.90415 4.65155 9.9302L4.92206 9.68444L4.8099 9.98194C4.85254 9.96403 4.88956 9.92268 4.9242 9.88399C4.96459 9.83887 5.00175 9.79737 5.04082 9.80085L5.02757 9.83921C5.0096 9.89071 5.00177 9.91314 5.00755 9.93123C5.012 9.94519 5.02456 9.95656 5.04681 9.9767L5.04682 9.97671C5.05779 9.98664 5.07113 9.99871 5.08701 10.0143C4.96829 9.93214 4.92164 10.004 4.87274 10.0792C4.86187 10.096 4.85089 10.1129 4.83898 10.1283C4.81802 10.1234 4.79557 10.1174 4.77142 10.11C4.78836 10.1198 4.80747 10.1304 4.82798 10.1417C4.79409 10.1806 4.75165 10.205 4.68454 10.1824L4.51959 9.83966C4.35024 9.81545 4.27333 9.92439 4.18899 10.0439C4.11561 10.1478 4.0366 10.2597 3.88619 10.2989H4.01155C4.03916 10.3917 3.97713 10.4174 3.91009 10.4453C3.86502 10.464 3.81769 10.4836 3.79381 10.5252C3.74421 10.4426 3.68715 10.4184 3.62544 10.3922L3.62543 10.3922L3.62542 10.3922L3.62541 10.3922L3.62541 10.3922L3.6254 10.3922L3.62539 10.3922L3.62539 10.3922L3.62538 10.3922L3.62537 10.3922L3.62536 10.3922L3.62535 10.3922L3.62526 10.3922C3.60494 10.3836 3.58412 10.3747 3.56289 10.3635C3.58561 10.3932 3.56098 10.4201 3.52931 10.4546C3.47824 10.5103 3.40886 10.586 3.49031 10.7257L3.27258 10.674C3.13677 10.7286 3.14064 10.8535 3.14451 10.9782C3.14797 11.0899 3.15143 11.2014 3.05485 11.2625C3.03907 11.2007 3.00655 11.1645 2.97688 11.1315C2.93207 11.0816 2.89376 11.039 2.92948 10.9262C2.91729 10.937 2.90488 10.9468 2.89311 10.9562L2.8931 10.9562C2.84119 10.9975 2.8019 11.0287 2.85031 11.0814C2.80915 11.0699 2.79419 11.1238 2.77741 11.1844C2.75654 11.2597 2.73285 11.3451 2.65237 11.3272C2.65619 11.3459 2.66611 11.3679 2.6765 11.391C2.70198 11.4475 2.73031 11.5103 2.67876 11.5471C2.66066 11.5382 2.64566 11.5202 2.63802 11.5098C2.63652 11.5069 2.63472 11.5043 2.63258 11.5018C2.63258 11.5018 2.63453 11.505 2.63802 11.5098C2.64577 11.5244 2.64577 11.5441 2.64577 11.5655C2.64577 11.6168 2.64577 11.6786 2.75134 11.7088C2.51014 11.6608 2.39488 11.8071 2.28192 11.9504C2.18167 12.0776 2.08324 12.2026 1.90021 12.1874C1.82763 12.3555 1.72866 12.5495 1.64289 12.6918C1.63439 12.6814 1.62589 12.6737 1.61916 12.6676C1.60772 12.6572 1.60137 12.6514 1.6087 12.6449L1.61649 12.6401C1.61302 12.6418 1.61046 12.6434 1.6087 12.6449C1.51305 12.7071 1.56729 12.7822 1.62227 12.8583C1.68143 12.9402 1.74146 13.0233 1.61649 13.0928C1.4628 13.0928 1.48762 13.0272 1.50401 12.9839C1.51436 12.9565 1.52135 12.938 1.47794 12.9505C1.2695 12.8519 1.25289 12.9451 1.233 13.0567C1.21638 13.1501 1.19746 13.2562 1.06227 13.2739V13.2222C0.958521 13.2537 0.96728 13.3594 0.977058 13.4775C0.985314 13.5771 0.994296 13.6855 0.936907 13.7654C0.936907 13.7654 0.903917 13.7396 0.877526 13.7396C1.00109 13.9563 0.983629 14.2296 0.970467 14.4356L0.969897 14.4445C0.920802 14.4033 0.899872 14.3766 0.885679 14.3586C0.859818 14.3257 0.856329 14.3212 0.745567 14.3087C0.74278 14.3497 0.789433 14.3676 0.843263 14.3882C0.916876 14.4165 1.00391 14.4499 0.996289 14.5545C0.965338 14.562 0.932687 14.5757 0.897502 14.5905C0.812678 14.6261 0.713132 14.6679 0.587216 14.645C0.593814 14.6159 0.602062 14.5884 0.610309 14.5609C0.618557 14.5334 0.626804 14.506 0.633402 14.4769C0.467015 14.4852 0.488218 14.5747 0.507928 14.6579C0.5187 14.7034 0.529026 14.7469 0.508041 14.7744L0.409072 14.7356C0.390342 14.8641 0.4366 14.9463 0.481458 15.026C0.531409 15.1147 0.579623 15.2004 0.534433 15.3435L0.620206 15.3306C0.732694 15.4341 0.684925 15.4566 0.63521 15.48C0.588695 15.5018 0.540476 15.5245 0.620206 15.6151H0.356289C0.368098 15.6449 0.386379 15.6852 0.40749 15.7318C0.468941 15.8674 0.554377 16.056 0.574021 16.1907C0.439801 16.1062 0.371752 15.9636 0.309147 15.8324C0.285581 15.783 0.262787 15.7352 0.237526 15.6927C0.217732 15.7962 0.204536 16.0485 0.323299 16.1131C0.318682 16.1026 0.31227 16.0913 0.305738 16.0798C0.284266 16.0421 0.261494 16.0021 0.296907 15.9773C0.475052 16.1261 0.574021 16.2942 0.560825 16.4882C0.286371 16.4564 0.264913 16.6144 0.241143 16.7894C0.221485 16.9342 0.200245 17.0906 0.0329897 17.1609C0.138557 17.342 0.125361 17.523 0.0989691 17.7235C0.0972157 17.7493 0.0952294 17.7753 0.0932267 17.8016C0.0801576 17.9727 0.0663949 18.1529 0.112165 18.338C0.293967 18.2278 0.301888 18.2589 0.313471 18.3043C0.325008 18.3495 0.340178 18.409 0.534433 18.3574C0.568563 18.4354 0.583076 18.4702 0.569518 18.4908C0.544947 18.4967 0.505308 18.488 0.460501 18.4781L0.460427 18.4781L0.460414 18.4781C0.358757 18.4556 0.230544 18.4274 0.191366 18.5511C0.249913 18.4726 0.311338 18.5055 0.372953 18.5385C0.429203 18.5686 0.485611 18.5988 0.540131 18.5444L0.402474 18.8424C0.350832 18.8967 0.321875 18.868 0.291391 18.8379C0.267349 18.8141 0.242356 18.7894 0.204536 18.8036C0.219562 18.9325 0.172565 18.9586 0.117123 18.9895H0.11712C0.0751832 19.0128 0.0284141 19.0389 0 19.1141C0.131959 19.0494 0.217732 19.1335 0.197938 19.2757L0.329897 19.0494C0.469683 19.1673 0.412459 19.2554 0.355518 19.343C0.296891 19.4332 0.238563 19.523 0.395876 19.6444L0.244124 19.5926C0.279578 19.6292 0.311865 19.6917 0.348449 19.7624C0.441221 19.9419 0.561619 20.1747 0.83134 20.1747C0.798351 20.22 0.719175 20.2976 0.659794 20.2459C0.715495 20.4279 0.874242 20.57 1.02576 20.7057C1.1973 20.8593 1.35958 21.0047 1.35258 21.1901L1.25361 21.216C1.27551 21.231 1.30687 21.2368 1.33802 21.2425C1.40071 21.254 1.46258 21.2654 1.44495 21.3518C1.43589 21.3563 1.42579 21.3604 1.41577 21.3644C1.38198 21.3781 1.349 21.3915 1.35918 21.4165L1.37338 21.4198C1.44142 21.4356 1.61748 21.4764 1.62969 21.5782H1.49113C1.5722 21.8291 1.78571 21.8799 1.99606 21.93C2.11098 21.9573 2.22496 21.9844 2.31588 22.0438C2.10474 22.2314 2.2301 22.5224 2.31588 22.6582L2.28289 22.6841C2.50573 22.9211 2.7865 22.9912 3.07132 23.0622L3.07134 23.0622L3.07136 23.0622L3.07138 23.0622L3.0714 23.0623L3.07142 23.0623L3.07144 23.0623L3.07145 23.0623L3.07147 23.0623L3.07149 23.0623L3.0715 23.0623L3.07152 23.0623L3.07153 23.0623L3.07154 23.0623L3.07156 23.0623C3.18301 23.0901 3.29508 23.118 3.40454 23.1562C3.41279 23.4111 3.66121 23.5749 3.91553 23.7426C4.06773 23.8429 4.22203 23.9447 4.32825 24.0682C4.29526 23.997 4.44041 23.8741 4.51959 23.8806C4.54297 23.9163 4.59809 23.9138 4.64865 23.9115C4.72647 23.9081 4.79351 23.9051 4.71753 24.0423L4.69113 24.0229C4.64937 24.2568 4.81805 24.311 4.96294 24.3574L4.96302 24.3575C4.97831 24.3624 4.99334 24.3672 5.00783 24.3721L5.15959 24.0617C5.25196 24.3592 5.52247 24.4174 5.7732 24.4303C5.79431 24.4314 5.81519 24.4323 5.83576 24.4332H5.83578H5.8358C6.05949 24.4429 6.24665 24.451 6.30103 24.6761C6.35286 24.6492 6.40611 24.6389 6.45946 24.6285C6.52155 24.6165 6.58379 24.6044 6.64412 24.5662L6.60454 24.7472C6.6321 24.756 6.65822 24.7645 6.68329 24.7727C6.89831 24.8426 7.03624 24.8875 7.3435 24.8701L7.26433 24.9995C7.3695 25.0098 7.443 24.8649 7.51355 24.7259C7.57577 24.6032 7.63568 24.4851 7.71299 24.4821L7.75258 24.7602C7.8407 24.7672 7.93078 24.7873 8.02148 24.8074C8.26356 24.8612 8.51009 24.916 8.73567 24.7278C8.73567 24.7666 8.73567 24.8443 8.67629 24.8637C8.69387 24.8651 8.71527 24.8676 8.73928 24.8703C8.92414 24.8917 9.2638 24.9309 9.20641 24.653C9.27011 24.8283 9.54862 24.5845 9.68577 24.4562L9.69897 24.6373C9.71906 24.5848 9.73454 24.5402 9.74792 24.5017L9.74793 24.5017C9.80047 24.3505 9.82092 24.2916 9.96289 24.204C10.0135 24.2164 10.0398 24.3238 9.97227 24.31L9.96289 24.3075C9.9662 24.3085 9.96932 24.3094 9.97227 24.31C10.0498 24.329 10.0693 24.2869 10.0903 24.2416C10.1141 24.1905 10.1398 24.1351 10.2532 24.1587L10.2136 24.2881C10.348 24.267 10.3554 24.2287 10.3749 24.1279C10.3793 24.1049 10.3844 24.0787 10.3918 24.0488C10.4643 23.9453 10.6953 23.9905 10.7744 24.1328C10.7612 24.0294 10.7942 23.8806 10.8998 23.8871C10.9328 23.9388 10.9196 23.9841 10.9064 24.01C11.0625 24.023 11.1333 23.9328 11.1971 23.8515C11.2601 23.7713 11.3163 23.6998 11.4408 23.7448C11.4738 23.7965 11.4936 23.8159 11.52 23.8289C11.331 23.9125 11.1814 23.9741 11.165 23.9677L11.1637 23.9647C11.1632 23.9662 11.1637 23.9671 11.165 23.9677C11.1898 24.0238 11.2296 24.0524 11.2678 24.0799C11.3326 24.1265 11.393 24.1699 11.3682 24.3398C11.3838 24.3069 11.4001 24.2684 11.4174 24.2274C11.4952 24.0431 11.5944 23.8083 11.7509 23.803C11.756 23.808 11.7621 23.812 11.7684 23.8162C11.7784 23.8228 11.789 23.8299 11.7971 23.8418V23.8677C11.8367 23.8677 11.8631 23.8353 11.8763 23.7965C11.9357 23.7965 11.9819 23.7965 12.028 23.7642C12.0911 23.845 12.1792 23.7825 12.2555 23.7283C12.2829 23.7088 12.3089 23.6904 12.3315 23.6801C12.2872 23.6177 12.2824 23.5746 12.2786 23.5404C12.2735 23.4942 12.2701 23.4641 12.1738 23.4243C12.1729 23.4224 12.1705 23.4214 12.1666 23.4214L12.1738 23.4243C12.1765 23.43 12.1668 23.4434 12.1472 23.4622C12.148 23.4561 12.1507 23.4451 12.1601 23.4405C12.1502 23.4373 12.1419 23.4341 12.1337 23.4308L12.1336 23.4308C12.1254 23.4276 12.1171 23.4244 12.1073 23.4211L12.1205 23.4793L12.1469 23.4599V23.4625C12.1394 23.4697 12.1305 23.4776 12.1204 23.4861C12.1187 23.4894 12.1166 23.4923 12.1143 23.495L12.1107 23.4992C12.1055 23.5051 12.1006 23.5106 12.1006 23.5184V23.499C12.0753 23.5145 12.0484 23.533 12.0193 23.5531C11.9878 23.5748 11.9536 23.5984 11.9159 23.6219C11.9291 23.5055 11.9489 23.402 12.0874 23.4408L12.0769 23.3749L12.0769 23.3749L12.0768 23.3748L12.0768 23.3747L12.0768 23.3746C12.0608 23.2739 12.0455 23.1782 12.0346 23.1304C12.1607 23.2127 12.2978 23.2496 12.4166 23.2815C12.5216 23.3097 12.6123 23.334 12.668 23.3826C12.7111 23.3158 12.7673 23.2533 12.8241 23.1901C12.9762 23.021 13.1324 22.8473 13.0507 22.5742C13.07 22.5128 13.1315 22.5514 13.1838 22.5842C13.2031 22.5964 13.2212 22.6077 13.2355 22.613C13.2327 22.6346 13.2231 22.6528 13.2137 22.6704C13.2007 22.6951 13.1882 22.7186 13.1959 22.7488C13.2134 22.6928 13.2544 22.6376 13.2958 22.5817C13.379 22.4695 13.4643 22.3544 13.3674 22.2249C13.4771 22.1989 13.4964 22.2581 13.5087 22.2961C13.5209 22.3335 13.5264 22.3503 13.6049 22.2443L13.6313 22.3219C13.948 22.2637 13.9876 21.9986 14.0206 21.7528L14.0216 21.7433C14.0466 21.4978 14.0696 21.2714 14.4025 21.1807C14.4146 21.1785 14.4277 21.175 14.4429 21.1707C14.4289 21.1738 14.4155 21.1772 14.4025 21.1807C14.3779 21.1851 14.3573 21.1837 14.3307 21.1707C14.6154 20.9515 14.7417 20.64 14.8687 20.3268C14.989 20.0302 15.1099 19.7319 15.3666 19.5086C15.4656 19.3969 15.4123 19.329 15.346 19.2446L15.346 19.2446C15.324 19.2166 15.3006 19.1867 15.2808 19.1529L15.4854 19.1723L15.3138 18.9265C15.2676 18.8019 15.3795 18.7232 15.4972 18.6404C15.6483 18.5341 15.809 18.4211 15.6569 18.1957L15.5184 18.2151C15.534 18.1756 15.5368 18.119 15.5395 18.0629C15.5448 17.9537 15.55 17.8467 15.6503 17.8723L15.6445 17.8689L15.6354 17.864C15.6002 17.8455 15.5307 17.809 15.5975 17.7817H15.7031C15.6635 17.6847 15.6107 17.5813 15.5513 17.4842C15.5896 17.3861 15.6752 17.3897 15.7617 17.3934C15.8691 17.3979 15.9781 17.4025 16 17.2126C15.967 17.0768 15.7163 16.844 15.6437 16.8957C15.6371 16.9474 15.5711 17.0186 15.4656 17.0251L15.4194 16.9151L15.3928 16.9128L15.3929 16.8762C15.3929 16.4387 15.3529 16.0104 15.2763 15.5945L15.294 15.5957L15.2747 15.5858C15.2632 15.5239 15.251 15.4623 15.2379 15.401C15.2663 15.4026 15.2911 15.4123 15.3072 15.434C15.3638 15.3589 15.333 15.3382 15.3039 15.3187C15.2753 15.2995 15.2484 15.2814 15.3072 15.2142C15.3233 15.1984 15.335 15.1997 15.3459 15.2076L15.3534 15.2142C15.3509 15.2117 15.3484 15.2095 15.3459 15.2076L15.2412 15.1171C15.2614 15.1193 15.2891 15.1126 15.3162 15.106C15.369 15.0932 15.4193 15.081 15.4062 15.1365C15.4571 15.0067 15.3787 14.9351 15.3158 14.8777C15.2565 14.8236 15.211 14.7821 15.3006 14.7162L15.3204 14.7291C15.2245 14.5898 15.1745 14.608 15.1024 14.6343L15.1023 14.6343C15.0821 14.6417 15.0602 14.6497 15.035 14.655C15.019 14.6069 15.0024 14.5589 14.9854 14.5112L15.2412 14.3281L15.0433 14.3669C15.0433 14.3669 15.0301 14.2764 15.1093 14.257C15.017 14.2256 15.003 14.243 14.9871 14.2627C14.9743 14.2787 14.9603 14.2961 14.9026 14.2906L14.8978 14.2784C14.9442 14.1911 14.9062 14.1176 14.871 14.0493C14.8252 13.9607 14.784 13.881 14.9377 13.7913C14.86 13.7974 14.8453 13.8365 14.8342 13.8661C14.8217 13.8992 14.8138 13.9202 14.7266 13.8689C14.886 13.7695 14.8306 13.7383 14.7612 13.6993C14.7043 13.6673 14.6381 13.6301 14.6738 13.5455C14.7502 13.5261 14.789 13.5448 14.8146 13.5571C14.8487 13.5735 14.8595 13.5787 14.9047 13.4679C14.7221 13.5029 14.7378 13.3975 14.7533 13.2925C14.7636 13.2229 14.7739 13.1535 14.7266 13.1251C14.5936 13.1944 14.5418 13.1097 14.4788 13.0069C14.4417 12.9464 14.4008 12.8796 14.3373 12.8341C14.3916 12.8096 14.335 12.6687 14.2744 12.5177C14.2392 12.4299 14.2026 12.3387 14.1856 12.265L14.2186 12.2456C14.065 12.3277 13.9869 12.2618 13.9056 12.1931C13.8716 12.1644 13.8371 12.1353 13.7963 12.1162C13.9085 12.0257 13.9744 12.0063 14.0734 12.0257L13.981 11.9287C13.9019 11.9545 13.8425 11.9545 13.7633 11.9093L13.9216 11.8187C13.8736 11.774 13.809 11.7456 13.7424 11.7162C13.626 11.665 13.5036 11.6111 13.4532 11.463C13.4145 11.4969 13.3802 11.5518 13.3442 11.6095C13.3069 11.6692 13.2677 11.7319 13.2197 11.7778C13.1927 11.7518 13.1656 11.7259 13.1382 11.7002C13.1628 11.6814 13.1874 11.6678 13.2104 11.6637C13.2166 11.6638 13.2224 11.6637 13.2273 11.6636L13.2355 11.6635C13.2274 11.6621 13.219 11.6622 13.2104 11.6637C13.1768 11.6634 13.1299 11.658 13.1299 11.6182L13.308 11.5729C13.2938 11.5102 13.2585 11.532 13.2208 11.5553C13.1884 11.5752 13.1542 11.5963 13.1299 11.5665C13.1777 11.5196 13.1813 11.4935 13.1847 11.4694C13.1878 11.4469 13.1907 11.4262 13.2289 11.3919C13.2392 11.3919 13.2435 11.4048 13.2484 11.4197C13.2561 11.4428 13.2653 11.4709 13.3014 11.463C13.2487 11.3854 13.2157 11.256 13.2553 11.159C13.2091 11.2172 13.1365 11.2884 13.0771 11.256C12.9974 11.1928 13.029 11.151 13.064 11.1047C13.0899 11.0705 13.1175 11.0339 13.1035 10.9844C13.0708 10.9992 13.0458 10.9877 13.0204 10.976C12.9792 10.957 12.937 10.9376 12.8594 11.0297C12.829 11.0048 12.8492 10.9571 12.8692 10.9099C12.8752 10.8957 12.8812 10.8815 12.8858 10.868C12.8414 10.8726 12.7839 10.8448 12.7263 10.817C12.6349 10.7728 12.5433 10.7286 12.504 10.8136C12.5018 10.8096 12.4993 10.8059 12.4965 10.8032L12.4437 10.6803C12.4083 10.72 12.4348 10.7444 12.467 10.774C12.4768 10.783 12.4872 10.7926 12.4965 10.8032L12.5025 10.8169C12.4972 10.8292 12.493 10.8439 12.4899 10.8615L12.5031 10.8874H12.4833C12.2997 10.8733 12.1829 10.7514 12.0665 10.6299C11.9694 10.5286 11.8727 10.4276 11.7377 10.3894L11.7707 10.3312C11.7115 10.3229 11.6523 10.3066 11.5935 10.2905L11.5935 10.2905C11.4689 10.2563 11.3463 10.2226 11.2297 10.2665C11.1835 10.2471 11.1703 10.1113 11.2231 10.0466C11.1887 10.0436 11.1606 10.0441 11.1359 10.0446C11.0839 10.0457 11.0464 10.0464 10.9961 10.0127C11.0101 9.9894 11.0437 9.96458 11.0769 9.94003C11.1297 9.90093 11.1817 9.86251 11.1525 9.83193C10.9604 9.83193 10.9608 9.7603 10.9614 9.67246C10.9617 9.62153 10.962 9.56515 10.9249 9.51413C10.9866 9.51817 11.0358 9.42103 11.0897 9.31461C11.1241 9.24673 11.1604 9.17506 11.2031 9.12349H11.2536C11.0167 9.1084 10.9938 9.02834 10.9706 8.94719C10.9633 8.92153 10.9559 8.89575 10.9418 8.87189C11.1272 8.87189 11.2031 8.89176 11.2874 8.94472V8.85203C11.1862 8.83217 11.1356 8.80568 11.1019 8.74609L11.3295 8.76596C11.3236 8.72412 11.2886 8.68147 11.2522 8.63715C11.185 8.5552 11.113 8.46753 11.2115 8.3687C11.1444 8.36667 11.0622 8.37768 10.9764 8.38919H10.9764C10.8391 8.4076 10.6924 8.42727 10.5831 8.39668V8.32746C10.6723 8.32641 10.7674 8.32802 10.8128 8.34885L10.82 8.35367L10.82 8.35368C10.8251 8.35707 10.8294 8.35992 10.8322 8.36208C10.8275 8.35698 10.821 8.3526 10.8128 8.34885C10.7861 8.33088 10.7494 8.30288 10.7816 8.28262L10.9755 8.34883C11.0221 8.30853 10.9681 8.30067 10.9134 8.29271C10.8692 8.28628 10.8246 8.2798 10.8322 8.25614C10.9185 8.25614 10.9473 8.24573 10.9731 8.23645C10.9976 8.22761 11.0192 8.2198 11.0851 8.22303C11.0911 8.22781 11.0841 8.23518 11.0757 8.24388C11.0608 8.2593 11.0419 8.27894 11.0851 8.29587C11.1188 8.22966 11.2115 8.15683 11.3379 8.13034C11.2452 8.13034 11.1103 8.13034 11.0935 8.08399C11.0887 8.01614 11.1549 8.01267 11.2284 8.00883C11.284 8.00592 11.3438 8.0028 11.3801 7.97144C11.3335 7.96098 11.3237 7.94226 11.3138 7.92343C11.2987 7.89459 11.2835 7.8655 11.1356 7.8655C11.1356 7.84043 11.2033 7.83055 11.2655 7.82148C11.2854 7.81857 11.3047 7.81575 11.3211 7.81253C11.282 7.7913 11.2665 7.7482 11.2509 7.70481C11.2227 7.62645 11.1942 7.54717 11.026 7.59404L11.0092 7.60728V7.59404H11.0008C10.8638 7.47901 10.9253 7.35982 10.9866 7.24114C11.0347 7.14805 11.0826 7.05527 11.0345 6.96505H11.1188C11.0844 6.92082 11.0674 6.87203 11.0505 6.82376L11.0505 6.82376C11.022 6.74196 10.9941 6.66164 10.8827 6.60751C10.8827 6.57441 11.0345 6.52144 11.1356 6.5413C11.121 6.51836 11.1038 6.50028 11.0884 6.48406C11.0415 6.43475 11.0109 6.40259 11.1188 6.30295C11.194 6.3516 11.2251 6.34006 11.2352 6.3363L11.2378 6.33543C11.2383 6.33533 11.2387 6.33534 11.2389 6.33552C11.2397 6.3361 11.2392 6.3384 11.2378 6.34397C11.2358 6.35225 11.2321 6.36777 11.2284 6.39564C11.2457 6.36834 11.2658 6.3459 11.2836 6.32593C11.3436 6.25877 11.3785 6.21964 11.2031 6.11756C11.4138 6.16391 11.4728 6.02487 11.4054 5.9719L11.2536 6.05797C11.2276 6.00686 11.2367 5.96364 11.2461 5.91918C11.2489 5.90604 11.2517 5.8928 11.2536 5.87921L11.5318 5.91231C11.6902 5.79723 11.5714 5.69238 11.4604 5.59433C11.335 5.48364 11.2194 5.38162 11.5234 5.28332C11.4294 5.25121 11.3948 5.28138 11.3573 5.31419C11.3174 5.34903 11.2741 5.38684 11.1525 5.35615C11.1738 5.28498 11.3434 5.21116 11.4652 5.15813C11.5361 5.12729 11.5908 5.10348 11.5908 5.09131C11.6674 5.01442 11.5614 4.97804 11.4517 4.94042C11.3442 4.90352 11.2331 4.86542 11.2874 4.78674C11.1862 4.80661 10.9165 4.82647 10.8237 4.70729C10.8575 4.59473 11.2452 4.56825 11.3211 4.64108C11.3295 4.66756 11.2958 4.68081 11.2621 4.68081C11.2958 4.72053 11.3379 4.76688 11.4475 4.72053L11.3464 4.70729C11.3843 4.68744 11.4068 4.65271 11.4286 4.61913C11.4649 4.56311 11.4991 4.51031 11.5992 4.53515C11.5141 4.4561 11.4503 4.48874 11.3947 4.54588C11.4564 4.47518 11.4509 4.41984 11.4452 4.36235C11.4399 4.30938 11.4345 4.25458 11.4812 4.18423C11.4222 4.21072 11.3126 4.23058 11.3126 4.2041C11.3849 4.07929 11.3113 4.06466 11.2271 4.04791C11.1639 4.03534 11.0947 4.02158 11.0766 3.95912C11.1426 3.9217 11.2197 3.92307 11.2754 3.92407C11.3479 3.92536 11.3841 3.92601 11.3126 3.83994C11.4138 3.74725 11.574 3.82008 11.6583 3.8598C11.5236 3.76322 11.637 3.67942 11.7302 3.61061C11.7711 3.58036 11.8081 3.55302 11.8184 3.52876L11.8898 3.59041C11.8937 3.59413 11.898 3.59786 11.9027 3.60159L11.8898 3.59041C11.8522 3.55446 11.8529 3.51903 11.8606 3.48903L11.6583 3.52876C11.6662 3.51944 11.6722 3.51013 11.6779 3.50134L11.6779 3.50133C11.6966 3.47259 11.7117 3.4493 11.7763 3.4493C11.7187 3.42951 11.6503 3.43266 11.5764 3.43606C11.4773 3.44063 11.3683 3.44565 11.2621 3.39634C11.3018 3.37551 11.2934 3.34444 11.2849 3.3132C11.2718 3.265 11.2586 3.21638 11.4222 3.20433C11.3749 3.29552 11.4461 3.2885 11.5327 3.27996C11.5973 3.2736 11.6704 3.26639 11.7096 3.29827C11.7121 3.31272 11.7203 3.32585 11.7341 3.33675C11.7295 3.32 11.721 3.3075 11.7096 3.29827C11.7061 3.27759 11.7143 3.2542 11.7341 3.23081C11.7678 3.23081 11.7931 3.23081 11.8016 3.25067C11.926 3.15988 11.8348 3.14276 11.722 3.12159C11.6209 3.10263 11.5025 3.08043 11.5065 2.99908C11.6583 3.01894 11.7931 2.95935 11.7594 2.93287C11.7594 3.0057 11.5065 2.96597 11.3969 2.89976C11.4707 2.82939 11.4193 2.80043 11.3724 2.77404C11.3444 2.75822 11.3179 2.74333 11.3211 2.72099L11.2621 2.7872C11.1496 2.77248 11.1344 2.73594 11.1135 2.68566C11.1062 2.6681 11.0981 2.64887 11.0851 2.6283C11.1186 2.62642 11.1399 2.63149 11.1543 2.63909C11.1589 2.64462 11.1657 2.65006 11.1748 2.65541C11.1778 2.65879 11.1803 2.66214 11.1826 2.66523L11.1826 2.66526C11.192 2.67781 11.1981 2.68605 11.2199 2.67465C11.2009 2.66837 11.186 2.66196 11.1748 2.65541C11.1698 2.64969 11.1634 2.64389 11.1543 2.63909C11.1248 2.60387 11.1809 2.5652 11.2405 2.52418C11.3169 2.47151 11.399 2.41496 11.3126 2.35684C11.3632 2.33036 11.4328 2.33036 11.4981 2.33036C11.5634 2.33036 11.6245 2.33036 11.6583 2.30387C11.5598 2.23327 11.6135 2.19682 11.6692 2.15896C11.7233 2.12226 11.7792 2.08425 11.7004 2.01255C11.6783 2.01688 11.6593 2.02083 11.6426 2.02428C11.5843 2.03631 11.5549 2.0424 11.5268 2.03855C11.4979 2.03459 11.4705 2.02017 11.415 1.99096C11.3979 1.98195 11.3781 1.97153 11.3548 1.95958L11.4981 2.19132L11.2031 2.03903C11.2031 2.07443 11.2329 2.11139 11.2598 2.1446C11.2881 2.17971 11.3131 2.21062 11.2958 2.23104L11.2506 2.21023C11.2016 2.18745 11.1785 2.17673 11.1546 2.17455C11.1334 2.17262 11.1115 2.17746 11.0702 2.18661L11.0701 2.18661L11.07 2.18664L11.07 2.18665L11.0699 2.18666C11.0552 2.18991 11.0381 2.19371 11.0176 2.19794C11.178 2.14543 11.1194 2.09478 11.0583 2.04207C11.0039 1.99506 10.9475 1.94642 11.0429 1.89337H11.5402C11.6533 1.80802 11.5825 1.73147 11.5047 1.64739C11.4317 1.5684 11.3526 1.48277 11.4138 1.37693L11.3295 1.44977C11.2164 1.43431 11.2267 1.39179 11.2381 1.34458C11.2463 1.3109 11.255 1.27484 11.2199 1.24451C11.3441 1.24451 11.4088 1.22297 11.4747 1.20104C11.4983 1.19319 11.522 1.18529 11.5487 1.1783C11.4999 1.1783 11.49 1.15465 11.4774 1.12446C11.4573 1.07639 11.4303 1.01174 11.2284 0.999538L11.4475 0.900223C11.4932 0.818589 11.3791 0.761111 11.2576 0.699992C11.1328 0.637183 11.0004 0.570528 11.026 0.469859C11.0948 0.487861 11.1547 0.477894 11.2101 0.468669C11.2973 0.454144 11.3735 0.441458 11.4559 0.54269C11.4559 0.524976 11.4572 0.507504 11.4584 0.490966V0.490946V0.490929V0.490912V0.490897V0.490883V0.49087V0.490859V0.490849V0.490839C11.4633 0.420903 11.4671 0.367729 11.3717 0.383787C11.417 0.348138 11.3759 0.307158 11.3312 0.26264C11.2762 0.207939 11.2159 0.147896 11.3042 0.0858419C11.2799 0.0816012 11.2461 0.0841509 11.2117 0.0867497C11.1385 0.0922658 11.0625 0.0980028 11.0682 0.0394949C11.0948 0.0238452 11.1318 0.0123056 11.1463 0.00811429C11.1212 0.0142311 11.1011 0.0080589 11.0797 0.00147349C11.0781 0.000982982 11.0765 0.000490183 11.0749 0H10.9747C10.9441 0.0107401 10.9063 0.0324778 10.8575 0.0725999C10.8866 0.0476797 10.9124 0.0235017 10.9351 0H5.09094ZM10.6214 8.93148C10.6214 8.90728 10.6075 8.88199 10.5831 8.85871V8.9064C10.5964 8.91293 10.6092 8.92121 10.6214 8.93148ZM10.5831 9.12784V9.0918C10.5921 9.10117 10.5932 9.11292 10.5831 9.12784ZM10.5831 9.33761V9.27052C10.6028 9.2909 10.6134 9.31233 10.6046 9.33536L10.5831 9.33761ZM10.5831 9.49053V9.45709C10.59 9.46841 10.5907 9.47957 10.5831 9.49053ZM12.0874 23.7254C12.1138 23.7577 12.1468 23.7771 12.1864 23.7254V23.7189C12.1864 23.7025 12.1811 23.6836 12.1755 23.6636C12.1723 23.6521 12.169 23.6402 12.1666 23.6284V23.6542C12.148 23.6725 12.1315 23.6866 12.1171 23.6989L12.1171 23.6989L12.1169 23.6991L12.1169 23.6991C12.1058 23.7086 12.096 23.717 12.0874 23.7254ZM13.9942 11.9093L14.0001 11.915L13.9942 11.9157V11.9093ZM14.0001 11.915L14.1064 11.9028C14.0734 11.9157 14.0206 11.9351 14.0206 11.9351L14.0001 11.915ZM14.6145 13.1315C14.6871 13.1056 14.8653 13.0539 14.8653 13.0539C14.8257 13.0927 14.7927 13.1121 14.7597 13.1315C14.7333 13.1121 14.6871 13.1056 14.6145 13.1315ZM13.2949 11.1526C13.2949 11.1526 13.3213 11.1073 13.3279 11.0944C13.3147 11.1138 13.3015 11.1332 13.2949 11.1526ZM15.4525 16.9021L15.4393 16.8763L15.5514 16.9086L15.4525 16.9021ZM3.52336 10.3181C3.52336 10.3181 3.56954 10.3505 3.59593 10.3634C3.58274 10.3505 3.56294 10.3311 3.52336 10.3181ZM2.73817 11.269C2.73817 11.269 2.7271 11.269 2.71345 11.2726C2.7197 11.2703 2.72776 11.269 2.73817 11.269ZM2.71345 11.2726C2.69198 11.2806 2.69198 11.3007 2.69198 11.3207C2.68539 11.3143 2.67219 11.3143 2.66559 11.3143C2.67309 11.2885 2.6955 11.2774 2.71345 11.2726ZM1.93987 12.1743H1.89369V12.1679L1.95307 12.1355L1.93987 12.1743ZM15.1028 13.9463C15.116 14.0174 15.1226 14.0951 15.1292 14.1727L15.1334 14.168C15.1858 14.1101 15.2559 14.0326 15.3073 14.1145C15.3546 13.9508 15.3281 13.9685 15.2789 14.0014C15.2251 14.0374 15.1441 14.0916 15.1028 13.9463ZM14.9908 13.2646C14.9708 13.3039 14.9488 13.347 14.8916 13.2866C14.9048 13.1767 14.9312 13.1832 15.0235 13.222C15.0104 13.2263 15.0008 13.245 14.9908 13.2646ZM11.2363 9.9624L11.2421 9.95152C11.2404 9.95512 11.2384 9.95875 11.2363 9.9624ZM11.2421 9.95152C11.2586 9.91735 11.2585 9.88558 11.2585 9.86088C11.2584 9.82358 11.2583 9.80244 11.3155 9.81364L11.2421 9.95152ZM1.90029 11.9028L2.07843 12.0127C2.09163 11.9416 1.92008 11.7863 1.90029 11.9028ZM0.468479 15.2786C0.356314 15.2916 0.270541 15.3886 0.362912 15.4662C0.374994 15.4307 0.400901 15.3979 0.424178 15.3684C0.451751 15.3335 0.475635 15.3032 0.468479 15.2786ZM5.17284 24.3849L5.27181 24.3461L5.33779 24.3849H5.17284Z" fill="#D9FFF0"/>
</svg>
